<?xml version="1.0" encoding="utf-8"?>
<!-- Generator: Adobe Illustrator 27.5.0, SVG Export Plug-In . SVG Version: 6.00 Build 0)  -->
<svg version="1.1" xmlns="http://www.w3.org/2000/svg" xmlns:xlink="http://www.w3.org/1999/xlink" x="0px" y="0px"
	 viewBox="0 0 500 500" style="enable-background:new 0 0 500 500;" xml:space="preserve">
<g id="Background_Complete">
	<g>
		<rect x="416.779" y="398.494" style="fill:#EBEBEB;" width="33.122" height="0.25"/>
		<rect x="322.527" y="401.208" style="fill:#EBEBEB;" width="8.693" height="0.25"/>
		<rect x="396.586" y="389.208" style="fill:#EBEBEB;" width="19.192" height="0.25"/>
		<rect x="52.459" y="390.888" style="fill:#EBEBEB;" width="43.193" height="0.25"/>
		<rect x="104.556" y="390.888" style="fill:#EBEBEB;" width="6.333" height="0.25"/>
		<rect x="131.471" y="395.111" style="fill:#EBEBEB;" width="93.676" height="0.25"/>
		<g>
			<path style="fill:#EBEBEB;" d="M238.401,337.8H45.302c-3.147,0-5.708-2.561-5.708-5.708V60.66c0-3.147,2.561-5.708,5.708-5.708
				h193.099c3.146,0,5.707,2.561,5.707,5.708v271.432C244.108,335.239,241.547,337.8,238.401,337.8z M45.302,55.203
				c-3.01,0-5.458,2.448-5.458,5.458v271.432c0,3.01,2.448,5.458,5.458,5.458h193.099c3.009,0,5.457-2.448,5.457-5.458V60.66
				c0-3.009-2.448-5.458-5.457-5.458H45.302z"/>
			<path style="fill:#EBEBEB;" d="M454.698,337.8H261.599c-3.146,0-5.707-2.561-5.707-5.708V60.66c0-3.147,2.561-5.708,5.707-5.708
				h193.099c3.148,0,5.708,2.561,5.708,5.708v271.432C460.406,335.239,457.845,337.8,454.698,337.8z M261.599,55.203
				c-3.009,0-5.457,2.448-5.457,5.458v271.432c0,3.01,2.448,5.458,5.457,5.458h193.099c3.01,0,5.458-2.448,5.458-5.458V60.66
				c0-3.009-2.448-5.458-5.458-5.458H261.599z"/>
		</g>
		<rect y="382.398" style="fill:#EBEBEB;" width="500" height="0.25"/>
	</g>
	<g>
		
			<rect x="300.802" y="102.126" transform="matrix(0.0915 0.9958 -0.9958 0.0915 472.0914 -197.2601)" style="fill:#E6E6E6;" width="86.703" height="115.948"/>
		
			<rect x="292.896" y="123.463" transform="matrix(0.9958 -0.0915 0.0915 0.9958 -13.2056 32.1623)" style="opacity:0.9;fill:#FAFAFA;" width="102.516" height="73.272"/>
		<path style="fill:#E0E0E0;" d="M344.895,132.432l0.607,6.61l-39.656,3.644l2.003,21.802l2.107,22.928l19.346-1.778l31.058-2.854
			l1.433-0.132l21.496-1.975l-0.34-3.702l-5.682,0.522c0.086-2.626,1.957-4.931,4.592-5.52l0.618-0.139l-1.295-14.089l-3.831,0.352
			l-2.611-28.412L344.895,132.432z M311.258,185.852l-1.843-20.062l4.437-0.408c1.025,3.243,4.191,5.396,7.614,5.081l0.716-0.066
			l-0.527-5.732l4.24-0.39l1.843,20.062L311.258,185.852z M329.171,184.206l-1.975-21.495l-7.105,0.653l0.523,5.687
			c-2.628-0.086-4.933-1.959-5.522-4.598l-0.138-0.618l-5.671,0.521l-1.872-20.37l38.223-3.512l2.003,21.802l3.262-0.3l5.138-0.472
			l2.348-0.216l1.844,20.062L329.171,184.206z M350.767,160.545l-0.398-4.334c2.389,0.076,4.488,1.627,5.3,3.884L350.767,160.545z
			 M379.881,159.315l1.05,11.425c-3.239,1.026-5.39,4.19-5.076,7.611l0.066,0.717l5.727-0.526l0.077,0.836l-20.062,1.844
			l-1.844-20.062l17.665-1.623L379.881,159.315z M373.439,131.254l2.479,26.979l-16.232,1.492l-1.433,0.132l-1.1,0.101
			c-0.998-3.292-4.172-5.477-7.637-5.159l-0.716,0.066l0.534,5.812l-0.396,0.036l-2.003-21.802l-0.476-5.177L373.439,131.254z"/>
	</g>
	<g>
		
			<rect x="89.532" y="90.607" transform="matrix(-0.1951 0.9808 -0.9808 -0.1951 306.7216 47.7759)" style="fill:#E6E6E6;" width="88.448" height="118.281"/>
		
			<rect x="96.384" y="97.458" transform="matrix(0.1951 -0.9808 0.9808 0.1951 -39.208 251.7203)" style="opacity:0.9;fill:#FAFAFA;" width="74.747" height="104.579"/>
		<path style="fill:#E0E0E0;" d="M142.497,122.9l-1.321,6.641l-39.844-7.925l-4.357,21.906l-4.582,23.037l19.437,3.866l31.205,6.207
			l1.44,0.286l21.597,4.296l0.74-3.72l-5.709-1.135c0.845-2.544,3.343-4.256,6.091-4.069l0.644,0.043l2.816-14.156l-3.849-0.766
			l5.678-28.547L142.497,122.9z M94.119,165.405l4.01-20.157l4.458,0.887c0.063,3.469,2.535,6.492,5.975,7.176l0.72,0.143
			l1.146-5.759l4.26,0.847l-4.01,20.157L94.119,165.405z M112.116,168.985l4.296-21.597l-7.139-1.42l-1.137,5.714
			c-2.546-0.846-4.258-3.345-4.069-6.097l0.044-0.644l-5.697-1.133l4.071-20.466l38.404,7.639l-4.357,21.906l3.277,0.652
			l5.162,1.027l2.359,0.469l-4.01,20.157L112.116,168.985z M140.096,152.099l0.866-4.355c2.315,0.767,3.918,2.891,4.059,5.335
			L140.096,152.099z M168.928,159.331l-2.283,11.479c-3.465,0.065-6.486,2.537-7.17,5.974l-0.143,0.72l5.754,1.145l-0.167,0.84
			l-20.157-4.01l4.01-20.157l17.748,3.53L168.928,159.331z M170.758,130.018l-5.392,27.107l-16.309-3.244l-1.44-0.286l-1.105-0.22
			c-0.022-3.509-2.493-6.566-5.975-7.258l-0.72-0.143l-1.161,5.839l-0.397-0.079l4.357-21.906l1.035-5.201L170.758,130.018z"/>
	</g>
	<g>
		<g>
			<path style="fill:#F0F0F0;" d="M299.118,107.034h-9.777c-5.677,0-10.295-4.618-10.295-10.295v-9.777
				c0-5.677,4.618-10.295,10.295-10.295h9.777c5.677,0,10.295,4.618,10.295,10.295v9.777
				C309.413,102.416,304.795,107.034,299.118,107.034z M289.341,79.667c-4.022,0-7.295,3.272-7.295,7.295v9.777
				c0,4.022,3.273,7.295,7.295,7.295h9.777c4.022,0,7.295-3.272,7.295-7.295v-9.777c0-4.022-3.272-7.295-7.295-7.295H289.341z"/>
		</g>
		<g>
			<polygon style="fill:#E0E0E0;" points="290.162,98.2 275.905,83.944 280.147,79.701 290.162,89.715 308.311,71.566 
				312.553,75.809 			"/>
		</g>
	</g>
	<g>
		<g>
			<path style="fill:#F0F0F0;" d="M89.16,237.971h-7.535c-4.375,0-7.934-3.559-7.934-7.934v-7.535c0-4.375,3.559-7.934,7.934-7.934
				h7.535c4.375,0,7.934,3.559,7.934,7.934v7.535C97.093,234.413,93.535,237.971,89.16,237.971z M81.625,216.882
				c-3.1,0-5.622,2.522-5.622,5.622v7.535c0,3.1,2.522,5.622,5.622,5.622h7.535c3.1,0,5.622-2.522,5.622-5.622v-7.535
				c0-3.1-2.522-5.622-5.622-5.622H81.625z"/>
		</g>
		<g>
			<polygon style="fill:#E0E0E0;" points="82.258,231.164 71.271,220.178 74.541,216.908 82.258,224.625 96.244,210.639 
				99.513,213.909 			"/>
		</g>
	</g>
	<g>
		<g>
			<path style="fill:#F0F0F0;" d="M430.998,299.333h-7.535c-4.375,0-7.934-3.559-7.934-7.934v-7.535
				c0-4.375,3.559-7.934,7.934-7.934h7.535c4.375,0,7.934,3.559,7.934,7.934v7.535C438.932,295.774,435.373,299.333,430.998,299.333
				z M423.463,278.243c-3.1,0-5.622,2.522-5.622,5.622v7.535c0,3.1,2.522,5.622,5.622,5.622h7.535c3.1,0,5.622-2.522,5.622-5.622
				v-7.535c0-3.1-2.522-5.622-5.622-5.622H423.463z"/>
		</g>
		<g>
			<polygon style="fill:#E0E0E0;" points="424.096,292.525 413.11,281.539 416.379,278.269 424.096,285.986 438.082,272 
				441.352,275.27 			"/>
		</g>
	</g>
</g>
<g id="Background_Simple" style="display:none;">
	<g style="display:inline;">
		<path style="fill:#407BFF;" d="M70.511,146.231c15.814-25.452,83.736-72.655,117.527-63.893
			c29.648,7.688,14.709,82.407,42.432,93.8c29.204,12.002,82.912-56.229,115.013-50.72c51.056,8.762,108.674,117.077,82.892,153.414
			c-28.64,40.365-160.694,77.687-216.848,66.049c-45.767-9.486-131.049-59.202-147.545-94.655
			C52.632,225.829,56.028,169.54,70.511,146.231z"/>
		<path style="opacity:0.9;fill:#FFFFFF;" d="M70.511,146.231c15.814-25.452,83.736-72.655,117.527-63.893
			c29.648,7.688,14.709,82.407,42.432,93.8c29.204,12.002,82.912-56.229,115.013-50.72c51.056,8.762,108.674,117.077,82.892,153.414
			c-28.64,40.365-160.694,77.687-216.848,66.049c-45.767-9.486-131.049-59.202-147.545-94.655
			C52.632,225.829,56.028,169.54,70.511,146.231z"/>
	</g>
</g>
<g id="Shadow">
	<ellipse id="_x3C_Path_x3E__1_" style="fill:#F5F5F5;" cx="250" cy="412.391" rx="193.889" ry="11.323"/>
</g>
<g id="Character">
	<g>
		<path style="fill:#B55B52;" d="M347.443,200.017c1.441-3.958,3.232-7.536,5.163-11.008c0.958-1.738,1.985-3.423,3.031-5.093
			c1.057-1.683,2.098-3.288,3.304-4.971c1.532-2.132,4.494-2.699,6.705-1.239c2.266,1.496,2.89,4.546,1.394,6.811l-0.043,0.064
			c-0.96,1.455-1.996,3.048-2.967,4.594c-0.977,1.562-1.916,3.144-2.844,4.72c-1.826,3.159-3.56,6.369-4.874,9.525
			c-0.403,0.967-0.753,1.935-1.03,2.853h-9.479C346.146,203.944,346.765,201.945,347.443,200.017z"/>
		<g>
			<path style="fill:#407BFF;" d="M366.826,168.432c-9.557,2.116-17.65,22.723-17.65,22.723l11.04,6.259
				c0,0,4.634-4.681,7.967-11.784C370.584,180.515,375.354,166.544,366.826,168.432z"/>
		</g>
		<path style="opacity:0.2;" d="M370.344,180.01c-0.687,2.196-1.51,4.234-2.161,5.621c-3.333,7.103-7.967,11.784-7.967,11.784
			l-2.421-1.373c3.784-6.882,3.748-15.671,3.748-15.671l8.24-1.426L370.344,180.01z"/>
		<g>
			<path style="fill:#263238;" d="M354.941,265.634l-0.086-0.015c-1.514-0.264-2.528-1.706-2.263-3.221l3.194-18.294
				c0.218-1.247,1.405-2.081,2.652-1.863l0.571,0.1c0.91,0.159,1.519,1.026,1.36,1.936l-3.492,19.998
				C356.718,265.184,355.851,265.793,354.941,265.634z"/>
			<path style="opacity:0.1;fill:#FFFFFF;" d="M354.941,265.634l-0.086-0.015c-1.514-0.264-2.528-1.706-2.263-3.221l3.194-18.294
				c0.218-1.247,1.405-2.081,2.652-1.863l0.571,0.1c0.91,0.159,1.519,1.026,1.36,1.936l-3.492,19.998
				C356.718,265.184,355.851,265.793,354.941,265.634z"/>
		</g>
		<g>
			<g>
				<polygon style="fill:#B55B52;" points="359.295,405.327 351.842,405.238 351.219,387.901 361.075,388.056 				"/>
				<polygon style="opacity:0.2;" points="351.221,387.908 351.583,398.042 360.038,398.155 361.08,388.062 				"/>
			</g>
			<path style="fill:#263238;" d="M351.682,402.702l8.135,0.128c0.305,0.005,0.543,0.221,0.575,0.52l0.695,6.655
				c0.072,0.69-0.525,1.333-1.227,1.31c-2.928-0.096-7.149-0.335-10.837-0.393c-4.313-0.068-3.893,0.109-8.95,0.03
				c-3.058-0.048-3.544-3.158-2.231-3.418c5.977-1.185,6.579-1.247,11.979-4.278C350.406,402.926,351.039,402.692,351.682,402.702z"
				/>
			<g>
				<path style="fill:#407BFF;" d="M350.329,403.367c0.062-0.02,0.109-0.074,0.12-0.14c0.012-0.074-0.024-0.148-0.09-0.183
					c-0.336-0.181-3.307-1.748-4.222-1.257c-0.177,0.095-0.281,0.256-0.3,0.466v0c-0.033,0.352,0.073,0.643,0.315,0.865
					c0.805,0.737,2.948,0.477,4.155,0.256C350.313,403.372,350.321,403.37,350.329,403.367z M346.367,402.07
					c0.566-0.186,2.181,0.46,3.353,1.042c-1.652,0.248-2.879,0.157-3.331-0.257c-0.159-0.145-0.225-0.332-0.203-0.572
					c0.009-0.092,0.043-0.148,0.115-0.187C346.322,402.087,346.344,402.078,346.367,402.07z"/>
				<path style="fill:#407BFF;" d="M350.329,403.367c0.016-0.005,0.031-0.013,0.046-0.023c0.052-0.036,0.081-0.097,0.076-0.159
					c-0.007-0.085-0.17-2.098-1.105-2.892c-0.285-0.242-0.613-0.349-0.974-0.318l0,0c-0.487,0.042-0.632,0.286-0.667,0.484
					c-0.152,0.842,1.602,2.483,2.495,2.901C350.24,403.379,350.286,403.381,350.329,403.367z M348.219,400.361
					c0.046-0.015,0.105-0.027,0.181-0.034l0,0c0.268-0.023,0.502,0.054,0.716,0.236c0.614,0.522,0.857,1.728,0.942,2.316
					c-0.909-0.567-2.098-1.854-2.007-2.359C348.057,400.489,348.072,400.409,348.219,400.361z M348.386,400.151l-0.004,0.001
					L348.386,400.151z"/>
			</g>
			<path style="fill:#263238;" d="M367.787,323.132c11.096-38.086,21.437-64.538,19-83.431l-26.319,0.314
				c0,0-13.934,61.734-12.898,84.074c1.075,23.228,2.447,67.367,2.447,67.367l12,0.171
				C362.017,391.627,370.911,349.077,367.787,323.132z"/>
			<path style="opacity:0.2;" d="M372.25,307.782c5.88-19.419,11.151-32.917,14.189-44.23
				C369.003,269.696,369.348,290.965,372.25,307.782z"/>
			<polygon style="fill:#263238;" points="348.324,388.788 349.053,393.935 362.253,394.171 363.039,389.307 			"/>
			<polygon style="opacity:0.3;" points="348.324,388.788 349.053,393.935 362.253,394.171 363.039,389.307 			"/>
		</g>
		<g>
			<polygon style="fill:#B55B52;" points="410.185,405.327 402.715,405.236 398.832,387.901 408.434,388.052 			"/>
			<polygon style="opacity:0.2;" points="398.835,387.908 401.076,397.917 409.449,398.031 408.44,388.058 			"/>
		</g>
		<path style="fill:#263238;" d="M402.148,403.71l8.134-0.164c0.305-0.006,0.551,0.201,0.594,0.499l0.947,6.625
			c0.098,0.687-0.474,1.351-1.176,1.353c-2.93,0.009-3.859-0.197-7.548-0.122c-4.312,0.087-2.317,0.193-7.374,0.295
			c-3.058,0.062-3.658-3.015-2.359-3.336c4.11-1.016,5.138-2.704,6.942-4.53C400.781,403.852,401.505,403.723,402.148,403.71z"/>
		<g>
			<path style="fill:#407BFF;" d="M403.642,404.222c0.066,0,0.127-0.037,0.157-0.097c0.034-0.067,0.022-0.148-0.03-0.202
				c-0.264-0.276-2.607-2.686-3.628-2.503c-0.197,0.036-0.345,0.157-0.429,0.35h0c-0.14,0.325-0.128,0.634,0.034,0.921
				c0.538,0.951,2.657,1.366,3.872,1.53C403.626,404.222,403.634,404.222,403.642,404.222z M400.273,401.762
				c0.596-0.002,1.932,1.112,2.868,2.03c-1.647-0.275-2.786-0.741-3.088-1.275c-0.106-0.188-0.112-0.386-0.017-0.607
				c0.037-0.085,0.086-0.128,0.167-0.142C400.225,401.764,400.249,401.762,400.273,401.762z"/>
			<path style="fill:#407BFF;" d="M403.642,404.222c0.017,0,0.034-0.002,0.05-0.007c0.06-0.018,0.106-0.067,0.121-0.128
				c0.02-0.083,0.483-2.049-0.161-3.094c-0.197-0.319-0.475-0.522-0.828-0.604l0,0c-0.476-0.111-0.689,0.076-0.783,0.253
				c-0.404,0.754,0.76,2.858,1.48,3.533C403.554,404.205,403.597,404.222,403.642,404.222z M402.56,400.708
				c0.048,0,0.108,0.007,0.183,0.024h0c0.262,0.061,0.461,0.207,0.608,0.446c0.424,0.687,0.284,1.909,0.184,2.495
				c-0.69-0.82-1.425-2.413-1.183-2.865C402.367,400.78,402.405,400.709,402.56,400.708z M402.783,400.56l-0.004,0L402.783,400.56z"
				/>
		</g>
		<path style="fill:#263238;" d="M401.679,324.33c4.087-38.086,7.473-66.159,1.559-85.051l-27.424,0.736
			c0,0,0.677,62.932,5.824,85.272c5.35,23.228,16.429,66.169,16.429,66.169l12.031,0.171
			C410.099,391.627,409.579,350.275,401.679,324.33z"/>
		<polygon style="fill:#263238;" points="396.313,388.788 397.1,393.935 410.589,394.171 411.351,389.307 		"/>
		<polygon style="opacity:0.3;" points="396.313,388.788 397.1,393.935 410.589,394.171 411.351,389.307 		"/>
		<path style="fill:#407BFF;" d="M370.667,167.282c8.065-0.976,16.482-0.543,25.15,0.897c4.621,0.767,8.224,4.369,8.891,8.971
			c1.547,10.67,3.958,31.675-0.403,64.458c-3.953,1.25-15.586,1.162-24.831,0.497c-1.005-0.072-3.467-2.414-3.467-2.414
			s-2.213,1.909-3.492,1.756c-6.125-0.733-11.006-1.786-12.13-2.983c-2.507-5.957-4.075-21.061,2.573-34.575
			c0.072-8.093-1.529-17.2-1.662-25.884C361.212,172.573,365.233,167.94,370.667,167.282z"/>
		<path style="fill:#B55B52;" d="M384.819,153.48c0.745,5.551,1.874,11.987,5.796,15.136c-1.466,3.836-5.133,7.272-10.536,7.554
			c-5.939,0.31-5.023-4.433-4.04-6.944c2.523-2.831,1.31-5.982,0.674-8.221L384.819,153.48z"/>
		<path style="opacity:0.2;" d="M383.175,156.192c-0.037-0.353-0.093-0.706-0.149-1.05l-6.312,5.866
			c0.381,1.339,0.967,3.012,0.836,4.741C380.684,163.648,383.556,159.557,383.175,156.192z"/>
		<path style="fill:#B55B52;" d="M386.897,145.414c-0.935,7.337-1.109,11.683-5.081,15.189c-5.976,5.274-14.86,1.222-16.139-6.267
			c-1.151-6.74,0.571-17.607,7.983-20.004C380.961,131.971,387.831,138.077,386.897,145.414z"/>
		<path style="fill:#263238;" d="M375.146,149.571c-0.039,0.6-0.389,1.063-0.782,1.034c-0.393-0.029-0.679-0.539-0.64-1.14
			c0.039-0.6,0.389-1.063,0.782-1.034C374.898,148.46,375.185,148.971,375.146,149.571z"/>
		<path style="fill:#263238;" d="M367.643,149.246c-0.039,0.6-0.389,1.063-0.782,1.034c-0.393-0.029-0.679-0.539-0.64-1.14
			c0.039-0.6,0.389-1.063,0.782-1.034C367.396,148.135,367.682,148.645,367.643,149.246z"/>
		<path style="fill:#263238;" d="M377.214,149.748h-5.558c-0.452,0-0.814,0.347-0.869,0.785c-0.759-0.304-1.35-0.181-1.71-0.008
			c-0.058-0.434-0.418-0.777-0.867-0.777h-4.236c-0.49,0-0.89,0.401-0.89,0.89v2.575c0,0.49,0.401,0.89,0.89,0.89h4.236
			c0.49,0,0.89-0.401,0.89-0.89v-2.099c0.181-0.136,0.77-0.466,1.665-0.027v2.126c0,0.49,0.401,0.89,0.89,0.89h5.558
			c0.49,0,0.89-0.401,0.89-0.89v-2.575C378.104,150.148,377.704,149.748,377.214,149.748z M368.58,153.213
			c0,0.201-0.17,0.37-0.37,0.37h-4.236c-0.204,0-0.37-0.166-0.37-0.37v-2.575c0-0.204,0.166-0.37,0.37-0.37h4.236
			c0.201,0,0.37,0.17,0.37,0.37V153.213z M377.584,153.213c0,0.204-0.166,0.37-0.37,0.37h-5.558c-0.204,0-0.37-0.166-0.37-0.37
			v-2.575c0-0.204,0.166-0.37,0.37-0.37h5.558c0.201,0,0.37,0.17,0.37,0.37V153.213z"/>
		<path style="fill:#A02724;" d="M369.934,150.858c0,0-1.515,2.749-2.954,3.979c0.785,0.953,2.349,0.78,2.349,0.78L369.934,150.858z
			"/>
		<path style="fill:#263238;" d="M376.596,146.278c0.057-0.014,0.111-0.043,0.156-0.086c0.141-0.134,0.145-0.358,0.009-0.499
			c-1.361-1.416-2.969-1.139-3.037-1.127c-0.192,0.035-0.318,0.219-0.281,0.411c0.037,0.191,0.221,0.318,0.413,0.284l0,0
			c0.053-0.009,1.309-0.211,2.395,0.918C376.344,146.275,376.477,146.308,376.596,146.278z"/>
		<path style="fill:#263238;" d="M365.362,146.189c0.112,0.021,0.233-0.012,0.318-0.101c1.079-1.118,2.332-0.898,2.385-0.888
			c0.191,0.036,0.375-0.09,0.41-0.281c0.035-0.191-0.09-0.376-0.28-0.414c-0.07-0.012-1.673-0.312-3.025,1.088
			c-0.135,0.14-0.13,0.364,0.01,0.5C365.233,146.145,365.296,146.176,365.362,146.189z"/>
		<g>
			<path style="fill:#407BFF;" d="M388.531,165.866c0.178,1.704-1.859,7.737-8.986,10.318c2.75,0.024,3.951,3.51,3.951,3.51
				s9.451-5.035,8.328-11.117C391.087,165.749,388.531,165.866,388.531,165.866z"/>
			<path style="fill:#407BFF;" d="M377.337,166.331c0.174,1.665-1.756,5.164,2.208,9.853c-2.75,0.024-4.399,2.761-4.399,2.761
				s-3.658-5.216-0.78-11.243C375.84,166.422,377.337,166.331,377.337,166.331z"/>
		</g>
		<g style="opacity:0.5;">
			<path style="fill:#FFFFFF;" d="M388.531,165.866c0.178,1.704-1.859,7.737-8.986,10.318c2.75,0.024,3.951,3.51,3.951,3.51
				s9.451-5.035,8.328-11.117C391.087,165.749,388.531,165.866,388.531,165.866z"/>
			<path style="fill:#FFFFFF;" d="M377.337,166.331c0.174,1.665-1.756,5.164,2.208,9.853c-2.75,0.024-4.399,2.761-4.399,2.761
				s-3.658-5.216-0.78-11.243C375.84,166.422,377.337,166.331,377.337,166.331z"/>
		</g>
		<polygon style="fill:#263238;" points="358.645,244.352 405.686,245.615 405.686,239.701 359.355,238.457 		"/>
		<polygon style="opacity:0.3;fill:#FFFFFF;" points="358.645,244.352 405.686,245.615 405.686,239.701 359.355,238.457 		"/>
		<path style="fill:#263238;" d="M391.465,243.41l1.529,24.195l12.469-0.788c1.636-0.103,2.879-1.514,2.775-3.15l-1.187-18.794
			c-0.085-1.347-1.246-2.37-2.593-2.285L391.465,243.41z"/>
		<path style="opacity:0.3;fill:#FFFFFF;" d="M391.465,243.41l1.529,24.195l12.469-0.788c1.636-0.103,2.879-1.514,2.775-3.15
			l-1.187-18.794c-0.085-1.347-1.246-2.37-2.593-2.285L391.465,243.41z"/>
		<path style="opacity:0.2;" d="M392.993,267.606l1.479-0.093c1.534-0.097,2.7-1.419,2.603-2.954l-1.208-19.13
			c-0.08-1.263-1.168-2.223-2.432-2.143l-1.97,0.124L392.993,267.606z"/>
		<path style="opacity:0.2;fill:#FFFFFF;" d="M395.924,246.339l-0.048-0.758c-0.085-1.347-1.246-2.37-2.593-2.285l11.175-0.706
			c1.347-0.085,2.508,0.938,2.593,2.285l0.048,0.758l0.116,1.845c0.074,1.174-0.817,2.185-1.991,2.259l-6.924,0.437
			c-1.174,0.074-2.185-0.817-2.259-1.991L395.924,246.339z"/>
		<path style="fill:#263238;" d="M400.736,247.757c0.029,0.463,0.429,0.815,0.892,0.786c0.463-0.029,0.815-0.429,0.786-0.892
			c-0.029-0.463-0.429-0.815-0.892-0.786C401.059,246.895,400.707,247.294,400.736,247.757z"/>
		<path style="fill:#263238;" d="M374.884,241.743c0,0.464,0.376,0.841,0.841,0.841c0.464,0,0.841-0.376,0.841-0.841
			c0-0.464-0.376-0.841-0.841-0.841C375.26,240.902,374.884,241.279,374.884,241.743z"/>
		
			<rect x="400.167" y="249.94" transform="matrix(0.998 -0.063 0.063 0.998 -15.4955 25.8766)" style="opacity:0.1;" width="4.221" height="17.062"/>
		<path style="fill:#263238;" d="M383.209,152.129c0,0-2.245,0.215-1.635-2.936c0.61-3.151-2.495-6.28-1.613-9.297
			c0.882-3.017-8.689-0.67-9.378-3.017c-0.689-2.346-0.84,4.251-3.807,3.352c-2.58-0.782,0.786-3.874,0.786-3.874
			s-3.951,2.254-3.951,0c0-2.216,4.657-2.144,6.311-2.541c4.699-1.127,14.944-6.658,17.849,7.42c0,0,4.392,3.069-1.991,12.007
			L383.209,152.129z"/>
		<path style="opacity:0.2;" d="M405.073,179.776c0.82,6.145,1.708,14.917,1.706,26.498c-6.329-5.477-11.871-20.369-11.871-20.369
			v-5.929l4.725-3.792L405.073,179.776z"/>
		<g>
			<polygon style="fill:#407BFF;" points="361.609,196.948 349.001,189.728 348.008,193.124 359.355,199.561 			"/>
			<polygon style="opacity:0.5;fill:#FFFFFF;" points="361.609,196.948 349.001,189.728 348.008,193.124 359.355,199.561 			"/>
		</g>
		<path style="fill:#407BFF;" d="M368.855,133.155c0,0,9.867-9.237,18.842-1.602c7.487,6.368,1.098,16.289,1.098,16.289
			l-3.594-4.203l-6.983-6.034l-6.406-3.706L368.855,133.155z"/>
		<g>
			<path style="fill:#407BFF;" d="M363.59,132.522c4.339-3.328,17.443,2.888,25.344,15.418l-0.043,0.098
				c-2.233-2.438-14.506-15.389-21.911-13.792C366.98,134.246,360.919,134.57,363.59,132.522z"/>
		</g>
		<g style="opacity:0.3;">
			<path d="M363.59,132.522c4.339-3.328,17.443,2.888,25.344,15.418l-0.043,0.098c-2.233-2.438-14.506-15.389-21.911-13.792
				C366.98,134.246,360.919,134.57,363.59,132.522z"/>
		</g>
		<g>
			<path style="fill:#407BFF;" d="M372.07,130.465c3.327-1.893,9.809-4.299,15.845,0.833c6.453,5.489,2.876,13.57,1.627,15.916
				l-0.609-0.277c0.036-0.093,3.521-9.422-1.414-13.6c-4.02-3.402-8.884-1.578-11.427-0.186l-0.173,0.095l-0.167-0.106
				c-0.83-0.525-2.139-1.312-3.666-2.083l-0.558-0.282L372.07,130.465z"/>
			<path style="opacity:0.3;fill:#FFFFFF;" d="M372.07,130.465c3.327-1.893,9.809-4.299,15.845,0.833
				c6.453,5.489,2.876,13.57,1.627,15.916l-0.609-0.277c0.036-0.093,3.521-9.422-1.414-13.6c-4.02-3.402-8.884-1.578-11.427-0.186
				l-0.173,0.095l-0.167-0.106c-0.83-0.525-2.139-1.312-3.666-2.083l-0.558-0.282L372.07,130.465z"/>
		</g>
		<path style="fill:#263238;" d="M371.132,158.662c-0.332,0-0.684-0.029-1.056-0.095c-0.1-0.018-0.168-0.114-0.15-0.215
			c0.018-0.1,0.111-0.167,0.215-0.15c2.72,0.484,4.331-1.194,4.347-1.211c0.07-0.075,0.187-0.079,0.261-0.009
			c0.075,0.07,0.079,0.187,0.009,0.261C374.696,157.31,373.4,158.662,371.132,158.662z"/>
		<g>
			<path style="opacity:0.5;fill:#FFFFFF;" d="M396.599,191.926h-13.389l0.438,1.553c0.259,0.917,1.095,1.55,2.047,1.55h7.95
				c0.779,0,1.495-0.426,1.868-1.109L396.599,191.926z"/>
			<path style="fill:#407BFF;" d="M389.071,193.397c0,0.46,0.373,0.833,0.833,0.833s0.833-0.373,0.833-0.833
				c0-0.46-0.373-0.833-0.833-0.833S389.071,192.937,389.071,193.397z"/>
		</g>
		<g>
			<path style="opacity:0.5;fill:#FFFFFF;" d="M373.72,191.846h-10.784l0.353,1.553c0.208,0.917,0.882,1.55,1.649,1.55h6.403
				c0.627,0,1.204-0.426,1.504-1.109L373.72,191.846z"/>
			<path style="fill:#407BFF;" d="M366.602,193.397c0,0.46,0.373,0.833,0.833,0.833s0.833-0.373,0.833-0.833
				c0-0.46-0.373-0.833-0.833-0.833S366.602,192.937,366.602,193.397z"/>
		</g>
		<g>
			<polygon style="fill:#263238;" points="377.741,150.398 383.939,149.979 383.895,149.311 377.158,149.777 			"/>
		</g>
		<path style="fill:#B55B52;" d="M388.914,153.068c-1.05,1.688-2.787,2.728-4.391,3.065c-2.413,0.507-3.48-1.691-2.693-3.885
			c0.708-1.975,2.817-4.618,5.182-4.139C389.343,148.58,390.115,151.138,388.914,153.068z"/>
		<g>
			<path style="fill:#263238;" d="M375.561,201.899l-0.501,1.563c-0.066,0.207,0.15,0.391,0.343,0.292l1.462-0.745l8.742-10.279
				c0.186-0.219,0.16-0.547-0.059-0.733l-0.513-0.436c-0.219-0.186-0.547-0.16-0.733,0.059L375.561,201.899z"/>
			<path style="opacity:0.5;fill:#FFFFFF;" d="M375.561,201.899l-0.501,1.563c-0.066,0.207,0.15,0.391,0.343,0.292l1.462-0.745
				l8.742-10.279c0.186-0.219,0.16-0.547-0.059-0.733l-0.513-0.436c-0.219-0.186-0.547-0.16-0.733,0.059L375.561,201.899z"/>
			<path style="opacity:0.5;fill:#FFFFFF;" d="M384.835,191.458l-9.112,10.714l-0.613,1.513c-0.048-0.06-0.077-0.137-0.049-0.223
				l0.501-1.563l8.742-10.279C384.438,191.461,384.647,191.407,384.835,191.458z"/>
		</g>
		<g>
			<path style="fill:#B55B52;" d="M389.327,202.301l-6.016-2.957l-1.382,7.92c0,0,5.772,2.016,7.339-0.878L389.327,202.301z"/>
			<path style="fill:#B55B52;" d="M376.703,201.54l-0.016,2.857c-0.007,1.137,0.812,2.112,1.933,2.303l3.309,0.563l1.382-7.92
				l-4.222-0.113C377.786,199.197,376.71,200.238,376.703,201.54z"/>
		</g>
		<path style="fill:#B55B52;" d="M386.514,206.563c4.296,2.678,8.67,4.943,13.626,6.674c1.246,0.419,2.528,0.823,3.921,1.108
			c1.406,0.278,2.863,0.533,4.761,0.42c0.95-0.071,2.054-0.239,3.377-0.873c0.66-0.33,1.366-0.803,1.994-1.456
			c0.149-0.159,0.322-0.353,0.437-0.499l0.286-0.387c0.195-0.261,0.347-0.526,0.505-0.796c1.202-2.197,1.352-4.201,1.367-5.87
			c-0.005-1.695-0.252-3.18-0.546-4.589c-0.303-1.405-0.681-2.726-1.099-4.005c-0.843-2.554-1.863-4.934-2.94-7.257
			c-1.105-2.307-2.26-4.555-3.522-6.733c-1.27-2.197-2.513-4.293-3.999-6.47c-1.6-2.345-4.798-2.948-7.142-1.348
			c-2.282,1.557-2.915,4.628-1.472,6.952l0.058,0.092c1.165,1.871,2.427,3.919,3.565,5.918c1.139,2.023,2.274,4.04,3.291,6.083
			c1.039,2.028,1.978,4.081,2.753,6.089c0.776,1.978,1.361,4.04,1.477,5.525c0.034,0.313,0.03,0.568,0.019,0.77
			c-0.519,0.04-1.172,0.032-1.84-0.027c-0.997-0.093-2.077-0.228-3.168-0.435c-4.382-0.829-9.029-2.165-13.536-3.493l-0.091-0.027
			c-1.358-0.4-2.782,0.376-3.182,1.734C385.079,204.793,385.562,205.969,386.514,206.563z"/>
		<g>
			<path style="fill:#407BFF;" d="M399.654,169.348c10.445,3.291,16.318,25.191,16.318,25.191l-11.316,4.423
				c0,0-5.354-3.808-9.137-11.012C394.373,185.768,391.323,166.723,399.654,169.348z"/>
		</g>
		<g>
			<polygon style="fill:#407BFF;" points="415.973,191.926 402.111,197.415 404.152,200.305 416.859,195.278 			"/>
			<polygon style="opacity:0.5;fill:#FFFFFF;" points="415.973,191.926 402.111,197.415 404.152,200.305 416.859,195.278 			"/>
		</g>
		<g>
			<polygon style="fill:#263238;" points="350.89,194.637 371.348,194.637 385.724,219.682 385.168,220.238 364.711,220.238 
				350.335,195.193 			"/>
			<polygon style="opacity:0.2;fill:#FFFFFF;" points="350.89,194.637 371.348,194.637 385.724,219.682 385.168,220.238 
				364.711,220.238 350.335,195.193 			"/>
			<polygon style="fill:#263238;" points="364.711,220.238 385.168,220.238 370.793,195.193 350.335,195.193 			"/>
			<polygon style="opacity:0.4;fill:#FFFFFF;" points="364.711,220.238 385.168,220.238 370.793,195.193 350.335,195.193 			"/>
			<g>
				<polygon style="fill:#407BFF;" points="356.126,194.272 363.919,194.272 365.568,197.145 365.338,197.376 357.545,197.376 
					355.896,194.503 				"/>
				<polygon style="opacity:0.5;fill:#FFFFFF;" points="356.126,194.272 363.919,194.272 365.568,197.145 365.338,197.376 
					357.545,197.376 355.896,194.503 				"/>
				<polygon style="fill:#407BFF;" points="357.545,197.376 355.896,194.503 363.689,194.503 365.338,197.376 				"/>
				<polygon style="opacity:0.2;fill:#FFFFFF;" points="357.545,197.376 355.896,194.503 363.689,194.503 365.338,197.376 				"/>
			</g>
		</g>
		<path style="fill:#B55B52;" d="M345.759,210.648c-0.233-1.577-0.144-2.903,0.003-4.129c0.049-0.358,0.117-0.693,0.178-1.036h9.594
			c-0.289,0.851-0.525,1.674-0.665,2.417c-0.136,0.654-0.182,1.253-0.165,1.568c0.003,0.104,0.006,0.162,0.004,0.197
			c0.076,0.037,0.147,0.075,0.231,0.111c0.619,0.281,1.393,0.518,2.207,0.749c1.624,0.449,3.474,0.828,5.227,1.262l0.189,0.046
			c0.816,0.204,1.51,0.815,1.781,1.677c0.414,1.318-0.318,2.721-1.636,3.135c-2.052,0.645-4.025,1.012-6.201,1.139
			c-1.085,0.064-2.205,0.043-3.443-0.108c-0.623-0.095-1.278-0.225-2.005-0.454c-0.723-0.239-1.542-0.549-2.478-1.271
			c-0.245-0.203-0.478-0.404-0.712-0.642c-0.228-0.248-0.514-0.584-0.653-0.8c-0.297-0.438-0.535-0.884-0.739-1.333
			C346.084,212.283,345.88,211.433,345.759,210.648z"/>
		<g>
			<path style="fill:#B55B52;" d="M362.338,216.66l7.113-0.98l-4.103-6.581c0,0-6,0.882-5.596,4.587L362.338,216.66z"/>
			<path style="fill:#B55B52;" d="M372.272,211.679l-1.28-2.951c-0.457-1.053-1.697-1.517-2.733-1.021l-2.911,1.393l4.103,6.581
				l2.149-1.553C372.371,213.57,372.65,212.551,372.272,211.679z"/>
		</g>
	</g>
</g>
<g id="Building">
	<g>
		<g>
			<g>
				<polygon style="fill:#407BFF;" points="104.588,238.303 112.536,238.303 112.536,241.442 111.238,241.442 111.238,255.527 
					105.885,255.527 105.885,241.442 104.588,241.442 				"/>
			</g>
			<g style="opacity:0.2;">
				<polygon points="104.588,238.303 112.536,238.303 112.536,241.442 111.238,241.442 111.238,255.527 105.885,255.527 
					105.885,241.442 104.588,241.442 				"/>
			</g>
			<polygon style="fill:#407BFF;" points="151.591,228.262 179.816,271.689 179.816,310.664 112.984,310.664 112.984,271.689 			"/>
			<polygon style="opacity:0.5;fill:#FFFFFF;" points="151.591,228.262 179.816,271.689 179.816,310.664 112.984,310.664 
				112.984,271.689 			"/>
			<polygon style="fill:#407BFF;" points="120.59,230.028 124.885,223.439 151.591,223.439 183.047,271.689 156.342,271.689 
				120.59,271.689 			"/>
			<polygon style="opacity:0.2;" points="120.59,230.028 124.885,223.439 151.591,223.439 183.047,271.689 156.342,271.689 
				120.59,271.689 			"/>
			<g>
				<polygon style="fill:#407BFF;" points="156.342,271.689 124.885,223.44 93.429,271.689 				"/>
			</g>
			<polygon style="fill:#407BFF;" points="124.885,228.262 153.111,271.689 153.111,310.664 96.66,310.664 96.66,271.689 			"/>
			<polygon style="opacity:0.8;fill:#FFFFFF;" points="124.885,228.262 153.111,271.689 153.111,310.664 96.66,310.664 
				96.66,271.689 			"/>
			<g>
				<rect x="131.835" y="253.258" style="fill:#407BFF;" width="5.71" height="15.131"/>
				<rect x="111.85" y="253.258" style="fill:#407BFF;" width="5.71" height="15.131"/>
				<rect x="117.56" y="252.544" style="fill:#407BFF;" width="14.275" height="16.559"/>
				<g>
					<rect x="117.56" y="252.544" style="opacity:0.4;fill:#FFFFFF;" width="14.275" height="16.559"/>
				</g>
				<rect x="119.345" y="254.328" style="fill:#263238;" width="10.706" height="12.99"/>
			</g>
			<g>
				<g>
					<g>
						
							<rect x="116.067" y="282.806" transform="matrix(-1 -1.224647e-16 1.224647e-16 -1 249.3953 593.4697)" style="fill:#407BFF;" width="17.262" height="27.859"/>
						
							<rect x="116.067" y="282.806" transform="matrix(-1 -1.224647e-16 1.224647e-16 -1 249.3953 593.4697)" style="opacity:0.3;fill:#FFFFFF;" width="17.262" height="27.859"/>
					</g>
					<polygon style="fill:#407BFF;" points="117.136,276.969 132.259,276.969 135.935,283.79 113.461,283.79 					"/>
				</g>
				<g>
					<rect x="125.028" y="287.538" style="fill:#263238;" width="5.286" height="23.126"/>
					<rect x="119.081" y="287.538" style="fill:#263238;" width="5.286" height="23.126"/>
				</g>
			</g>
		</g>
		<g>
			<g>
				<rect x="88.642" y="338.806" style="fill:#407BFF;" width="80.412" height="68.148"/>
				<rect x="88.642" y="338.806" style="opacity:0.6;fill:#FFFFFF;" width="80.412" height="68.148"/>
			</g>
			<g>
				<rect x="148.12" y="338.806" style="fill:#407BFF;" width="39.714" height="68.148"/>
				<rect x="148.12" y="338.806" style="opacity:0.8;fill:#FFFFFF;" width="39.714" height="68.148"/>
			</g>
			<g>
				<rect x="124.82" y="345.662" style="fill:#407BFF;" width="15.816" height="18.347"/>
				<g>
					<rect x="124.82" y="345.662" style="opacity:0.3;fill:#FFFFFF;" width="15.816" height="18.347"/>
				</g>
				<rect x="126.797" y="347.639" style="fill:#263238;" width="11.862" height="14.393"/>
			</g>
			<g>
				<rect x="153.563" y="346.453" style="fill:#407BFF;" width="6.326" height="16.765"/>
				<rect x="175.706" y="346.453" style="fill:#407BFF;" width="6.326" height="16.765"/>
				<rect x="159.889" y="345.662" style="fill:#407BFF;" width="15.816" height="18.347"/>
				<g>
					<rect x="159.889" y="345.662" style="opacity:0.3;fill:#FFFFFF;" width="15.816" height="18.347"/>
				</g>
				<rect x="161.866" y="347.639" style="fill:#263238;" width="11.862" height="14.393"/>
			</g>
			<g>
				<g>
					<g>
						<rect x="107.231" y="376.643" style="fill:#407BFF;" width="18.782" height="30.311"/>
						<rect x="107.231" y="376.643" style="opacity:0.3;fill:#FFFFFF;" width="18.782" height="30.311"/>
					</g>
					<polygon style="fill:#407BFF;" points="124.849,370.292 108.395,370.292 104.395,377.714 128.848,377.714 					"/>
				</g>
				<g>
					<rect x="110.511" y="381.792" style="fill:#263238;" width="5.751" height="25.162"/>
					<rect x="116.981" y="381.792" style="fill:#263238;" width="5.751" height="25.162"/>
				</g>
			</g>
			<g>
				<g>
					<g>
						<polygon style="fill:#407BFF;" points="178.007,339.387 162.296,310.23 95.4,310.23 79.689,339.387 						"/>
						<polygon style="opacity:0.3;" points="178.007,339.387 162.296,310.23 95.4,310.23 79.689,339.387 						"/>
					</g>
					<g>
						<polygon style="fill:#407BFF;" points="196.787,339.387 181.076,310.23 154.878,310.23 139.168,339.387 						"/>
						<polygon style="opacity:0.1;" points="196.787,339.387 181.076,310.23 154.878,310.23 139.168,339.387 						"/>
					</g>
				</g>
				<g>
					<polygon style="fill:#407BFF;" points="110.386,334.403 110.386,310.23 141.313,310.23 128.288,334.403 					"/>
					<polygon style="opacity:0.8;fill:#FFFFFF;" points="110.386,334.403 110.386,310.23 141.313,310.23 128.288,334.403 					"/>
					
						<rect x="109.48" y="315.621" transform="matrix(-1 -1.224647e-16 1.224647e-16 -1 237.7408 650.0245)" style="fill:#407BFF;" width="18.782" height="18.782"/>
					
						<rect x="109.48" y="315.621" transform="matrix(-1 -1.224647e-16 1.224647e-16 -1 237.7408 650.0245)" style="opacity:0.6;fill:#FFFFFF;" width="18.782" height="18.782"/>
					<g>
						<path style="fill:#407BFF;" d="M114.911,332.13h7.918c0.717,0,1.298-0.581,1.298-1.298v-0.948h-10.514v0.948
							C113.613,331.549,114.195,332.13,114.911,332.13z"/>
						<path style="fill:#263238;" d="M115.545,322.176c0-1.836,1.489-3.325,3.325-3.325c1.836,0,3.325,1.489,3.325,3.325l0,7.175
							h-6.65L115.545,322.176z"/>
					</g>
					<polygon style="fill:#407BFF;" points="122.196,316.693 125.678,310.23 141.313,310.23 137.83,316.693 					"/>
					<polygon style="opacity:0.2;" points="122.196,316.693 125.678,310.23 141.313,310.23 137.83,316.693 					"/>
					<polygon style="fill:#407BFF;" points="127.614,310.23 131.097,316.693 106.644,316.693 110.127,310.23 					"/>
				</g>
			</g>
			<g>
				<rect x="96.488" y="345.662" style="fill:#407BFF;" width="15.816" height="18.347"/>
				<g>
					<rect x="96.488" y="345.662" style="opacity:0.3;fill:#FFFFFF;" width="15.816" height="18.347"/>
				</g>
				<rect x="98.464" y="347.639" style="fill:#263238;" width="11.862" height="14.393"/>
			</g>
		</g>
	</g>
</g>
<g id="Form">
	<g>
		<g>
			<path style="fill:#263238;" d="M190.97,406.276h147.156c2.729,0,4.748-2.212,4.509-4.941l-18.462-211.018
				c-0.239-2.729-2.645-4.941-5.374-4.941H171.643c-2.729,0-4.748,2.212-4.509,4.941l18.462,211.018
				C185.835,404.063,188.24,406.276,190.97,406.276z"/>
			<path style="fill:#263238;" d="M193.092,406.276h147.156c2.729,0,4.748-2.212,4.509-4.941l-18.462-211.018
				c-0.239-2.729-2.645-4.941-5.374-4.941H173.765c-2.729,0-4.748,2.212-4.509,4.941l18.462,211.018
				C187.956,404.063,190.363,406.276,193.092,406.276z"/>
			<path style="opacity:0.5;fill:#FFFFFF;" d="M193.092,406.276h147.156c2.729,0,4.748-2.212,4.509-4.941l-18.462-211.018
				c-0.239-2.729-2.645-4.941-5.374-4.941H173.765c-2.729,0-4.748,2.212-4.509,4.941l18.462,211.018
				C187.956,404.063,190.363,406.276,193.092,406.276z"/>
			<polygon style="opacity:0.2;" points="312.608,197.576 330.256,398.619 197.619,398.619 179.97,197.576 			"/>
		</g>
		<path style="fill:#FFFFFF;" d="M313.421,197.576l5.087,64.838c1.319,16.805,3.309,33.552,5.965,50.198l13.001,81.463H204.837
			l-13.024-81.666c-2.651-16.626-4.638-33.352-5.955-50.137l-5.075-64.696H313.421z"/>
		<path style="fill:#407BFF;" d="M225.39,223.349h49.734c1.648,0,2.82-1.336,2.618-2.984l-0.395-3.228
			c-0.202-1.648-1.701-2.983-3.349-2.983h-49.734c-1.648,0-2.82,1.336-2.618,2.983l0.395,3.228
			C222.243,222.013,223.742,223.349,225.39,223.349z"/>
		<g>
			<path style="fill:#407BFF;" d="M204.386,290.19h106.77c1.648,0,2.82-1.336,2.618-2.983l-0.395-3.228
				c-0.202-1.648-1.701-2.983-3.349-2.983H203.26c-1.648,0-2.82,1.336-2.618,2.983l0.395,3.228
				C201.239,288.854,202.738,290.19,204.386,290.19z"/>
			<path style="opacity:0.5;fill:#FFFFFF;" d="M204.386,290.19h106.77c1.648,0,2.82-1.336,2.618-2.983l-0.395-3.228
				c-0.202-1.648-1.701-2.983-3.349-2.983H203.26c-1.648,0-2.82,1.336-2.618,2.983l0.395,3.228
				C201.239,288.854,202.738,290.19,204.386,290.19z"/>
		</g>
		<g>
			<g>
				<path style="fill:#263238;" d="M270.194,237.113c-16.578,0-33.156,0-49.734,0c-1.024,0-1.165-1.591-0.139-1.591
					c16.578,0,33.156,0,49.734,0C271.079,235.522,271.22,237.113,270.194,237.113L270.194,237.113z"/>
			</g>
			<g>
				<path style="fill:#263238;" d="M199.265,241.534c23.842,0,47.684,0,71.525,0c1.024,0,1.165,1.592,0.139,1.592
					c-23.842,0-47.684,0-71.525,0C198.38,243.126,198.24,241.534,199.265,241.534L199.265,241.534z"/>
			</g>
		</g>
		<g>
			<path style="fill:#263238;" d="M281.157,243.391h24.271c1.648,0,2.82-1.336,2.618-2.984l-0.395-3.228
				c-0.202-1.648-1.701-2.983-3.349-2.983h-24.271c-1.648,0-2.82,1.336-2.618,2.983l0.395,3.228
				C278.01,242.055,279.509,243.391,281.157,243.391z"/>
			<path style="opacity:0.7;fill:#FFFFFF;" d="M281.157,243.391h24.271c1.648,0,2.82-1.336,2.618-2.984l-0.395-3.228
				c-0.202-1.648-1.701-2.983-3.349-2.983h-24.271c-1.648,0-2.82,1.336-2.618,2.983l0.395,3.228
				C278.01,242.055,279.509,243.391,281.157,243.391z"/>
			<g>
				<path style="fill:#263238;" d="M294.838,261.897h12.855c1.648,0,2.82-1.336,2.618-2.983l-0.207-1.693
					c-0.202-1.648-1.701-2.983-3.349-2.983H293.9c-1.648,0-2.82,1.336-2.618,2.983l0.207,1.693
					C291.691,260.561,293.19,261.897,294.838,261.897z"/>
				<path style="fill:#263238;" d="M255.542,261.897h29.83c1.648,0,2.82-1.336,2.618-2.983l-0.207-1.693
					c-0.202-1.648-1.701-2.983-3.349-2.983h-29.83c-1.648,0-2.82,1.336-2.618,2.983l0.207,1.693
					C252.395,260.561,253.895,261.897,255.542,261.897z"/>
				<path style="fill:#263238;" d="M223.673,261.897h22.404c1.648,0,2.82-1.336,2.618-2.983l-0.207-1.693
					c-0.202-1.648-1.701-2.983-3.349-2.983h-22.404c-1.648,0-2.82,1.336-2.618,2.983l0.207,1.693
					C220.527,260.561,222.026,261.897,223.673,261.897z"/>
				<path style="fill:#263238;" d="M202.414,261.897h11.794c1.648,0,2.82-1.336,2.618-2.983l-0.207-1.693
					c-0.202-1.648-1.701-2.983-3.349-2.983h-11.794c-1.648,0-2.82,1.336-2.618,2.983l0.207,1.693
					C199.267,260.561,200.767,261.897,202.414,261.897z"/>
				<path style="fill:#263238;" d="M286.66,273.093h22.404c1.648,0,2.82-1.336,2.618-2.984l-0.207-1.692
					c-0.202-1.648-1.701-2.984-3.349-2.984h-22.404c-1.648,0-2.82,1.336-2.618,2.984l0.207,1.692
					C283.513,271.757,285.012,273.093,286.66,273.093z"/>
				<path style="fill:#263238;" d="M250.547,273.093h26.647c1.648,0,2.82-1.336,2.618-2.984l-0.207-1.692
					c-0.202-1.648-1.701-2.984-3.349-2.984h-26.647c-1.648,0-2.82,1.336-2.618,2.984l0.207,1.692
					C247.4,271.757,248.899,273.093,250.547,273.093z"/>
				<path style="fill:#263238;" d="M228.227,273.093h12.855c1.648,0,2.82-1.336,2.618-2.984l-0.207-1.692
					c-0.202-1.648-1.701-2.984-3.349-2.984h-12.855c-1.648,0-2.82,1.336-2.618,2.984l0.207,1.692
					C225.08,271.757,226.579,273.093,228.227,273.093z"/>
				<path style="fill:#263238;" d="M203.785,273.093h14.977c1.648,0,2.82-1.336,2.618-2.984l-0.207-1.692
					c-0.202-1.648-1.701-2.984-3.349-2.984h-14.977c-1.648,0-2.82,1.336-2.618,2.984l0.207,1.692
					C200.638,271.757,202.137,273.093,203.785,273.093z"/>
			</g>
			<g style="opacity:0.7;">
				<path style="fill:#FFFFFF;" d="M294.838,261.897h12.855c1.648,0,2.82-1.336,2.618-2.983l-0.207-1.693
					c-0.202-1.648-1.701-2.983-3.349-2.983H293.9c-1.648,0-2.82,1.336-2.618,2.983l0.207,1.693
					C291.691,260.561,293.19,261.897,294.838,261.897z"/>
				<path style="fill:#FFFFFF;" d="M255.542,261.897h29.83c1.648,0,2.82-1.336,2.618-2.983l-0.207-1.693
					c-0.202-1.648-1.701-2.983-3.349-2.983h-29.83c-1.648,0-2.82,1.336-2.618,2.983l0.207,1.693
					C252.395,260.561,253.895,261.897,255.542,261.897z"/>
				<path style="fill:#FFFFFF;" d="M223.673,261.897h22.404c1.648,0,2.82-1.336,2.618-2.983l-0.207-1.693
					c-0.202-1.648-1.701-2.983-3.349-2.983h-22.404c-1.648,0-2.82,1.336-2.618,2.983l0.207,1.693
					C220.527,260.561,222.026,261.897,223.673,261.897z"/>
				<path style="fill:#FFFFFF;" d="M202.414,261.897h11.794c1.648,0,2.82-1.336,2.618-2.983l-0.207-1.693
					c-0.202-1.648-1.701-2.983-3.349-2.983h-11.794c-1.648,0-2.82,1.336-2.618,2.983l0.207,1.693
					C199.267,260.561,200.767,261.897,202.414,261.897z"/>
				<path style="fill:#FFFFFF;" d="M286.66,273.093h22.404c1.648,0,2.82-1.336,2.618-2.984l-0.207-1.692
					c-0.202-1.648-1.701-2.984-3.349-2.984h-22.404c-1.648,0-2.82,1.336-2.618,2.984l0.207,1.692
					C283.513,271.757,285.012,273.093,286.66,273.093z"/>
				<path style="fill:#FFFFFF;" d="M250.547,273.093h26.647c1.648,0,2.82-1.336,2.618-2.984l-0.207-1.692
					c-0.202-1.648-1.701-2.984-3.349-2.984h-26.647c-1.648,0-2.82,1.336-2.618,2.984l0.207,1.692
					C247.4,271.757,248.899,273.093,250.547,273.093z"/>
				<path style="fill:#FFFFFF;" d="M228.227,273.093h12.855c1.648,0,2.82-1.336,2.618-2.984l-0.207-1.692
					c-0.202-1.648-1.701-2.984-3.349-2.984h-12.855c-1.648,0-2.82,1.336-2.618,2.984l0.207,1.692
					C225.08,271.757,226.579,273.093,228.227,273.093z"/>
				<path style="fill:#FFFFFF;" d="M203.785,273.093h14.977c1.648,0,2.82-1.336,2.618-2.984l-0.207-1.692
					c-0.202-1.648-1.701-2.984-3.349-2.984h-14.977c-1.648,0-2.82,1.336-2.618,2.984l0.207,1.692
					C200.638,271.757,202.137,273.093,203.785,273.093z"/>
			</g>
		</g>
		<g>
			<g>
				<path style="fill:#263238;" d="M246.352,385.931c-11.517,0-23.033,0-34.55,0c-1.024,0-1.165-1.591-0.139-1.591
					c11.517,0,23.033,0,34.55,0C247.237,384.34,247.378,385.931,246.352,385.931L246.352,385.931z"/>
			</g>
			<g>
				<path style="fill:#263238;" d="M325.831,385.931c-11.517,0-23.033,0-34.55,0c-1.024,0-1.165-1.591-0.139-1.591
					c11.517,0,23.033,0,34.55,0C326.716,384.34,326.857,385.931,325.831,385.931L325.831,385.931z"/>
			</g>
		</g>
		<g>
			<g>
				<path style="fill:#263238;" d="M319.837,336.961c-14.7,0-29.399,0-44.099,0c-1.024,0-1.165-1.591-0.139-1.591
					c14.7,0,29.399,0,44.099,0C320.722,335.369,320.863,336.961,319.837,336.961L319.837,336.961z"/>
			</g>
			<g>
				<path style="fill:#263238;" d="M276.348,341.491c14.7,0,29.399,0,44.099,0c1.024,0,1.165,1.591,0.139,1.591
					c-14.7,0-29.399,0-44.099,0C275.463,343.082,275.323,341.491,276.348,341.491L276.348,341.491z"/>
			</g>
			<g>
				<path style="fill:#263238;" d="M277.098,347.612c14.7,0,29.399,0,44.099,0c1.024,0,1.165,1.591,0.139,1.591
					c-14.7,0-29.399,0-44.099,0C276.213,349.203,276.072,347.612,277.098,347.612L277.098,347.612z"/>
			</g>
			<g>
				<path style="fill:#263238;" d="M277.847,353.733c14.7,0,29.399,0,44.099,0c1.024,0,1.165,1.592,0.139,1.592
					c-14.7,0-29.399,0-44.099,0C276.962,355.325,276.821,353.733,277.847,353.733L277.847,353.733z"/>
			</g>
			<g>
				<path style="fill:#263238;" d="M278.596,359.854c14.7,0,29.399,0,44.099,0c1.024,0,1.165,1.592,0.139,1.592
					c-14.7,0-29.399,0-44.099,0C277.711,361.446,277.57,359.854,278.596,359.854L278.596,359.854z"/>
			</g>
			<g>
				<path style="fill:#263238;" d="M253.9,336.961c-11.517,0-23.033,0-34.55,0c-1.024,0-1.165-1.591-0.139-1.591
					c11.517,0,23.033,0,34.55,0C254.785,335.369,254.926,336.961,253.9,336.961L253.9,336.961z"/>
			</g>
			<g>
				<path style="fill:#263238;" d="M219.96,341.491c11.517,0,23.033,0,34.55,0c1.024,0,1.165,1.591,0.139,1.591
					c-11.517,0-23.033,0-34.55,0C219.076,343.082,218.934,341.491,219.96,341.491L219.96,341.491z"/>
			</g>
			<g>
				<path style="fill:#263238;" d="M220.71,347.612c11.517,0,23.033,0,34.55,0c1.024,0,1.165,1.591,0.139,1.591
					c-11.517,0-23.033,0-34.55,0C219.825,349.203,219.684,347.612,220.71,347.612L220.71,347.612z"/>
			</g>
			<g>
				<path style="fill:#263238;" d="M221.459,353.733c11.517,0,23.033,0,34.55,0c1.024,0,1.165,1.592,0.139,1.592
					c-11.517,0-23.033,0-34.55,0C220.574,355.325,220.433,353.733,221.459,353.733L221.459,353.733z"/>
			</g>
			<g>
				<path style="fill:#263238;" d="M222.208,359.854c11.517,0,23.033,0,34.55,0c1.024,0,1.165,1.592,0.139,1.592
					c-11.517,0-23.033,0-34.55,0C221.323,361.446,221.182,359.854,222.208,359.854L222.208,359.854z"/>
			</g>
		</g>
		<g>
			<path style="fill:#407BFF;" d="M202.871,305.441L202.871,305.441l0.909,7.427h0l0.909,7.427h0l0.909,7.427h20.758h0.796h34.815
				h0.796h34.815h0.796h20.758l-1.006-8.223h0l-0.909-7.427h0l-0.909-7.427h0l-0.909-7.427h-20.757h-0.796H259.03h-0.796h-34.815
				h-0.796h-20.757L202.871,305.441z M223.126,301.33l0.406,3.315h-19.961l-0.812-6.631h19.961L223.126,301.33z M224.831,308.757
				l-0.406-3.315h34.814l0.406,3.315l0.406,3.316h-34.815L224.831,308.757z M260.036,305.441h34.815l0.406,3.315l0.406,3.316
				h-34.814l-0.406-3.316L260.036,305.441z M296.572,319.499h-34.815l-0.406-3.315l-0.406-3.316h34.814l0.406,3.316L296.572,319.499
				z M260.96,319.499h-34.814l-0.406-3.315l-0.406-3.316h34.815l0.406,3.316L260.96,319.499z M258.737,301.33l0.406,3.315h-34.814
				l-0.406-3.315l-0.406-3.315h34.815L258.737,301.33z M294.348,301.33l0.406,3.315h-34.815l-0.406-3.315l-0.406-3.315h34.814
				L294.348,301.33z M315.511,304.646H295.55l-0.406-3.315l-0.406-3.315h19.961L315.511,304.646z M316.421,312.073h-19.962
				l-0.406-3.316l-0.406-3.315h19.961L316.421,312.073z M317.329,319.499h-19.961l-0.406-3.315l-0.406-3.316h19.961L317.329,319.499
				z M297.871,323.611l-0.406-3.316h19.961l0.812,6.631h-19.962L297.871,323.611z M262.26,323.611l-0.406-3.316h34.815l0.406,3.316
				l0.406,3.315h-34.814L262.26,323.611z M226.649,323.611l-0.406-3.316h34.814l0.406,3.316l0.406,3.315h-34.814L226.649,323.611z
				 M205.486,320.295h19.961l0.406,3.316l0.406,3.315h-19.961L205.486,320.295z M204.576,312.868h19.961l0.406,3.316l0.406,3.315
				h-19.961L204.576,312.868z M203.668,305.441h19.961l0.406,3.315l0.406,3.316h-19.961L203.668,305.441z"/>
			<path style="opacity:0.5;fill:#FFFFFF;" d="M202.871,305.441L202.871,305.441l0.909,7.427h0l0.909,7.427h0l0.909,7.427h20.758
				h0.796h34.815h0.796h34.815h0.796h20.758l-1.006-8.223h0l-0.909-7.427h0l-0.909-7.427h0l-0.909-7.427h-20.757h-0.796H259.03
				h-0.796h-34.815h-0.796h-20.757L202.871,305.441z M223.126,301.33l0.406,3.315h-19.961l-0.812-6.631h19.961L223.126,301.33z
				 M224.831,308.757l-0.406-3.315h34.814l0.406,3.315l0.406,3.316h-34.815L224.831,308.757z M260.036,305.441h34.815l0.406,3.315
				l0.406,3.316h-34.814l-0.406-3.316L260.036,305.441z M296.572,319.499h-34.815l-0.406-3.315l-0.406-3.316h34.814l0.406,3.316
				L296.572,319.499z M260.96,319.499h-34.814l-0.406-3.315l-0.406-3.316h34.815l0.406,3.316L260.96,319.499z M258.737,301.33
				l0.406,3.315h-34.814l-0.406-3.315l-0.406-3.315h34.815L258.737,301.33z M294.348,301.33l0.406,3.315h-34.815l-0.406-3.315
				l-0.406-3.315h34.814L294.348,301.33z M315.511,304.646H295.55l-0.406-3.315l-0.406-3.315h19.961L315.511,304.646z
				 M316.421,312.073h-19.962l-0.406-3.316l-0.406-3.315h19.961L316.421,312.073z M317.329,319.499h-19.961l-0.406-3.315
				l-0.406-3.316h19.961L317.329,319.499z M297.871,323.611l-0.406-3.316h19.961l0.812,6.631h-19.962L297.871,323.611z
				 M262.26,323.611l-0.406-3.316h34.815l0.406,3.316l0.406,3.315h-34.814L262.26,323.611z M226.649,323.611l-0.406-3.316h34.814
				l0.406,3.316l0.406,3.315h-34.814L226.649,323.611z M205.486,320.295h19.961l0.406,3.316l0.406,3.315h-19.961L205.486,320.295z
				 M204.576,312.868h19.961l0.406,3.316l0.406,3.315h-19.961L204.576,312.868z M203.668,305.441h19.961l0.406,3.315l0.406,3.316
				h-19.961L203.668,305.441z"/>
		</g>
		<g>
			<path style="fill:#407BFF;" d="M209.619,341.98h3.292c0.612,0,1.048-0.496,0.973-1.108l-0.403-3.292
				c-0.075-0.612-0.632-1.108-1.244-1.108h-3.292c-0.612,0-1.048,0.496-0.973,1.108l0.403,3.292
				C208.45,341.484,209.007,341.98,209.619,341.98z"/>
			<path style="fill:#407BFF;" d="M210.355,347.992h3.292c0.612,0,1.048-0.496,0.973-1.108l-0.403-3.292
				c-0.075-0.612-0.632-1.108-1.244-1.108h-3.292c-0.612,0-1.048,0.496-0.973,1.108l0.403,3.292
				C209.186,347.496,209.743,347.992,210.355,347.992z"/>
			<path style="fill:#407BFF;" d="M211.091,354.005h3.293c0.612,0,1.048-0.496,0.973-1.108l-0.403-3.293
				c-0.075-0.612-0.632-1.108-1.244-1.108h-3.292c-0.612,0-1.048,0.496-0.973,1.108l0.403,3.293
				C209.922,353.508,210.479,354.005,211.091,354.005z"/>
			<path style="fill:#407BFF;" d="M211.827,360.017h3.292c0.612,0,1.048-0.496,0.973-1.108l-0.403-3.292
				c-0.075-0.612-0.632-1.108-1.244-1.108h-3.292c-0.612,0-1.048,0.496-0.973,1.108l0.403,3.292
				C210.658,359.521,211.214,360.017,211.827,360.017z"/>
			<path style="opacity:0.5;fill:#FFFFFF;" d="M210.355,347.992h3.292c0.612,0,1.048-0.496,0.973-1.108l-0.403-3.292
				c-0.075-0.612-0.632-1.108-1.244-1.108h-3.292c-0.612,0-1.048,0.496-0.973,1.108l0.403,3.292
				C209.186,347.496,209.743,347.992,210.355,347.992z"/>
			<path style="opacity:0.5;fill:#FFFFFF;" d="M211.827,360.017h3.292c0.612,0,1.048-0.496,0.973-1.108l-0.403-3.292
				c-0.075-0.612-0.632-1.108-1.244-1.108h-3.292c-0.612,0-1.048,0.496-0.973,1.108l0.403,3.292
				C210.658,359.521,211.214,360.017,211.827,360.017z"/>
		</g>
		<g>
			<path style="fill:#407BFF;" d="M226.279,181.757h12.986l-2.057-4.888c-0.646-1.535,0.718-3.032,2.763-3.032h12.726
				c2.045,0,3.671,1.497,3.294,3.032l-1.202,4.888h12.986c3.923,0,7.381,3.18,7.724,7.103l0.999,11.415
				c0.198,2.261-1.475,4.093-3.735,4.093h-47.514c-2.261,0-4.254-1.833-4.452-4.093l-0.999-11.415
				C219.455,184.937,222.356,181.757,226.279,181.757z"/>
			<polygon style="opacity:0.2;" points="254.789,181.757 239.265,181.757 238.054,178.88 255.496,178.88 			"/>
			<g>
				<path style="fill:#263238;" d="M265.25,197.532c0.107,1.221,1.183,2.21,2.404,2.21c1.221,0,2.124-0.99,2.017-2.21
					c-0.107-1.221-1.183-2.21-2.404-2.21C266.046,195.321,265.143,196.311,265.25,197.532z"/>
				<path style="fill:#263238;" d="M227.143,197.532c0.107,1.221,1.183,2.21,2.404,2.21c1.221,0,2.124-0.99,2.017-2.21
					c-0.107-1.221-1.183-2.21-2.404-2.21C227.94,195.321,227.036,196.311,227.143,197.532z"/>
			</g>
		</g>
		<g>
			<g>
				<path style="fill:#407BFF;" d="M311.239,377.851l-58.797,11.495c-2.875,0.562-5.471-1.28-5.786-4.106l-0.996-8.94
					c-0.315-2.827,1.768-5.583,4.644-6.146L309.1,358.66c2.875-0.562,5.471,1.28,5.786,4.107l0.996,8.94
					C316.197,374.533,314.114,377.289,311.239,377.851z M250.47,371.651c-2.037,0.398-3.512,2.35-3.289,4.353l0.996,8.94
					c0.223,2.001,2.061,3.306,4.098,2.908l58.797-11.495c2.036-0.398,3.512-2.35,3.288-4.352l-0.996-8.94
					c-0.223-2.002-2.061-3.307-4.098-2.909L250.47,371.651z"/>
			</g>
			<g>
				<path style="fill:#407BFF;" d="M258.797,380.133l-2.967,0.58l-0.416,1.456l-1.515,0.296l2.148-6.838l1.46-0.286l3.557,5.723
					l-1.552,0.303L258.797,380.133z M258.209,379.12l-1.281-2.206l-0.745,2.603L258.209,379.12z"/>
				<path style="fill:#407BFF;" d="M265.303,374.103c0.437,0.104,0.788,0.305,1.051,0.602c0.263,0.297,0.421,0.679,0.473,1.145
					c0.051,0.46-0.017,0.884-0.203,1.272c-0.187,0.388-0.479,0.714-0.875,0.978c-0.396,0.264-0.878,0.451-1.444,0.561l-1.287,0.252
					l0.193,1.732l-1.479,0.289l-0.7-6.281l2.766-0.541C264.364,374.002,264.866,374,265.303,374.103z M265.072,377.013
					c0.211-0.234,0.296-0.523,0.258-0.87c-0.039-0.353-0.185-0.601-0.438-0.745c-0.252-0.143-0.601-0.171-1.045-0.085l-1.205,0.236
					l0.243,2.18l1.205-0.236C264.535,377.407,264.862,377.246,265.072,377.013z"/>
				<path style="fill:#407BFF;" d="M271.894,372.814c0.437,0.104,0.788,0.305,1.051,0.602c0.263,0.297,0.421,0.679,0.473,1.145
					c0.051,0.46-0.016,0.884-0.203,1.272c-0.187,0.388-0.479,0.714-0.875,0.978c-0.397,0.264-0.878,0.451-1.444,0.561l-1.287,0.252
					l0.193,1.732l-1.479,0.289l-0.7-6.281l2.766-0.541C270.954,372.714,271.456,372.711,271.894,372.814z M271.663,375.724
					c0.21-0.234,0.296-0.523,0.258-0.87c-0.039-0.353-0.185-0.601-0.438-0.745c-0.252-0.143-0.6-0.171-1.045-0.085l-1.205,0.236
					l0.243,2.18l1.205-0.236C271.125,376.118,271.453,375.958,271.663,375.724z"/>
				<path style="fill:#407BFF;" d="M278.985,377.561l-1.427-1.509l-0.073,0.014l-1.287,0.252l0.195,1.75l-1.479,0.289l-0.7-6.281
					l2.766-0.541c0.566-0.111,1.068-0.113,1.505-0.01c0.437,0.104,0.788,0.305,1.051,0.602c0.263,0.297,0.421,0.679,0.473,1.145
					c0.052,0.467-0.017,0.891-0.208,1.273c-0.191,0.383-0.486,0.704-0.886,0.966l1.658,1.739L278.985,377.561z M278.074,372.82
					c-0.252-0.143-0.601-0.171-1.045-0.085l-1.205,0.236l0.244,2.19l1.205-0.236c0.444-0.087,0.771-0.249,0.981-0.486
					c0.21-0.237,0.296-0.528,0.257-0.875C278.473,373.212,278.327,372.964,278.074,372.82z"/>
				<path style="fill:#407BFF;" d="M282.889,376.477c-0.564-0.177-1.024-0.483-1.38-0.917c-0.356-0.435-0.569-0.96-0.638-1.576
					c-0.069-0.616,0.02-1.2,0.267-1.753c0.246-0.552,0.62-1.021,1.121-1.407c0.501-0.384,1.083-0.642,1.747-0.772
					c0.663-0.13,1.276-0.105,1.836,0.072c0.561,0.178,1.021,0.484,1.38,0.918c0.359,0.434,0.573,0.959,0.642,1.575
					c0.069,0.616-0.022,1.201-0.271,1.754c-0.25,0.552-0.623,1.022-1.121,1.406c-0.498,0.385-1.079,0.641-1.742,0.771
					S283.453,376.654,282.889,376.477z M285.586,374.855c0.285-0.23,0.497-0.515,0.637-0.853c0.139-0.339,0.187-0.703,0.144-1.092
					c-0.043-0.388-0.168-0.718-0.376-0.99c-0.207-0.271-0.473-0.463-0.796-0.573c-0.324-0.111-0.674-0.13-1.051-0.056
					c-0.377,0.074-0.709,0.225-0.994,0.455c-0.286,0.23-0.498,0.514-0.637,0.854c-0.139,0.339-0.187,0.703-0.144,1.091
					c0.043,0.389,0.169,0.719,0.376,0.99c0.207,0.271,0.473,0.462,0.796,0.573c0.323,0.111,0.673,0.129,1.051,0.056
					C284.969,375.237,285.3,375.085,285.586,374.855z"/>
				<path style="fill:#407BFF;" d="M294.562,368.098l-2.066,6.822l-1.461,0.286l-3.457-5.742l1.598-0.312l2.444,4.106l1.472-4.872
					L294.562,368.098z"/>
				<path style="fill:#407BFF;" d="M300.608,372.142l0.13,1.166l-4.948,0.967l-0.7-6.281l4.829-0.944l0.13,1.167l-3.359,0.657
					l0.152,1.364l2.967-0.58l0.126,1.13l-2.967,0.58l0.162,1.454L300.608,372.142z"/>
				<path style="fill:#407BFF;" d="M301.216,366.797l2.903-0.568c0.694-0.136,1.321-0.125,1.883,0.031
					c0.562,0.156,1.016,0.442,1.364,0.856c0.348,0.415,0.557,0.936,0.627,1.564c0.07,0.628-0.016,1.207-0.259,1.737
					c-0.243,0.53-0.615,0.978-1.119,1.342c-0.504,0.365-1.102,0.615-1.796,0.75l-2.903,0.568L301.216,366.797z M304.613,371.332
					c0.639-0.125,1.129-0.4,1.471-0.824s0.479-0.936,0.412-1.534c-0.067-0.598-0.31-1.035-0.729-1.31
					c-0.419-0.276-0.948-0.351-1.588-0.226l-1.351,0.264l0.434,3.894L304.613,371.332z"/>
			</g>
		</g>
	</g>
</g>
</svg>
