<?xml version="1.0" encoding="utf-8"?>
<!-- Generator: Adobe Illustrator 27.5.0, SVG Export Plug-In . SVG Version: 6.00 Build 0)  -->
<svg version="1.1" xmlns="http://www.w3.org/2000/svg" xmlns:xlink="http://www.w3.org/1999/xlink" x="0px" y="0px"
	 viewBox="0 0 750 500" style="enable-background:new 0 0 750 500;" xml:space="preserve">
<g id="Background_Complete">
	<g>
		<g>
			<g>
				<g>
					<path style="fill:#EBEBEB;" d="M199.031,192.299c0,0-5.596-4.583-14.382,9.024c-8.786,13.607-12.406,21.603-12.406,21.603
						s-2.242,2.81-4.107,0.632c-1.865-2.178-4.124-8.045-7.738-7.4c-3.749,0.669-5.365,4.611-5.282,10.655
						c0.083,6.044-0.221,19.294-0.253,20.491c-0.031,1.176-0.876,2.827-2.384,1.547c-1.508-1.28-9.776-12.628-14.926-8.383
						c-5.15,4.245-2.152,21.046-1.859,22.889c0.293,1.843-0.137,2.573-1.035,2.93c-0.898,0.357-3.317-3.719-5.801-6.851
						c-2.484-3.131-5.913-6.327-8.679-3.628c-2.766,2.698-4.808,14.865,4.811,35.951l5.097,9.479l10.798,0.504
						c23.174-0.331,33.296-7.383,34.552-11.038c1.255-3.655-3.1-5.386-6.993-6.291c-3.893-0.905-8.613-1.347-8.674-2.311
						c-0.062-0.964,0.415-1.665,2.205-2.189c1.791-0.525,18.258-5.005,19.891-11.476c1.633-6.471-12.161-9.087-13.964-9.903
						c-1.802-0.815-0.671-2.285,0.378-2.817c1.069-0.542,12.913-6.487,18.412-8.999c5.498-2.512,8.37-5.659,7.369-9.333
						c-0.964-3.543-7.234-3.074-10-3.827c-2.766-0.754-1.186-3.982-1.186-3.982s5.677-6.693,14.215-20.458
						c8.538-13.764,1.821-16.906,1.821-16.906"/>
				</g>
			</g>
			<g>
				<g>
					<g>
						<path style="fill:#E0E0E0;" d="M128.176,302.991c6.31-10.084,17.826-27.819,27.634-43.096
							c9.805-15.272,18.669-29.107,25.03-39.158c3.17-5.02,5.737-9.087,7.52-11.911c0.883-1.396,1.572-2.485,2.047-3.237
							c0.232-0.359,0.411-0.638,0.54-0.838c0.123-0.188,0.194-0.279,0.194-0.279s-0.051,0.104-0.165,0.297
							c-0.122,0.204-0.292,0.488-0.511,0.855c-0.463,0.76-1.134,1.86-1.994,3.271c-1.735,2.838-4.274,6.928-7.431,11.968
							c-6.31,10.084-15.143,23.941-24.948,39.213c-9.808,15.277-21.355,32.99-27.716,43.042"/>
					</g>
				</g>
			</g>
			<g>
				<g>
					<g>
						<path style="fill:#E0E0E0;" d="M163.227,224.492c0.023-0.004,0.091,0.264,0.196,0.754c0.107,0.489,0.24,1.2,0.397,2.081
							c0.31,1.761,0.675,4.205,1.03,6.909c0.34,2.668,0.648,5.08,0.883,6.925c0.111,0.831,0.205,1.532,0.281,2.096
							c0.068,0.495,0.096,0.771,0.073,0.775c-0.023,0.004-0.093-0.264-0.201-0.753c-0.105-0.489-0.239-1.201-0.386-2.083
							c-0.292-1.765-0.626-4.212-0.98-6.916c-0.359-2.663-0.684-5.073-0.932-6.916c-0.116-0.831-0.213-1.532-0.291-2.096
							C163.229,224.773,163.204,224.497,163.227,224.492z"/>
					</g>
				</g>
			</g>
			<g>
				<g>
					<g>
						<path style="fill:#E0E0E0;" d="M167.049,244.322c-0.016-0.091,4.988-1.067,11.177-2.179c6.191-1.113,11.221-1.941,11.237-1.85
							c0.016,0.091-4.987,1.066-11.178,2.179C172.097,243.584,167.066,244.413,167.049,244.322z"/>
					</g>
				</g>
			</g>
			<g>
				<g>
					<g>
						<path style="fill:#E0E0E0;" d="M150.932,267.099c0.003-0.023,0.286-0.006,0.794,0.045c0.576,0.061,1.294,0.137,2.148,0.227
							c1.813,0.189,4.318,0.44,7.093,0.616c2.775,0.182,5.292,0.259,7.114,0.3c0.858,0.02,1.58,0.037,2.159,0.051
							c0.51,0.015,0.792,0.034,0.793,0.057c0,0.023-0.281,0.048-0.792,0.073c-0.51,0.025-1.249,0.048-2.162,0.055
							c-1.826,0.019-4.351-0.021-7.134-0.203c-2.782-0.176-5.291-0.465-7.1-0.715c-0.904-0.129-1.635-0.241-2.137-0.333
							C151.205,267.183,150.929,267.122,150.932,267.099z"/>
					</g>
				</g>
			</g>
			<g>
				<g>
					<g>
						<path style="fill:#E0E0E0;" d="M143.527,249.925c0.021-0.01,0.147,0.22,0.358,0.642c0.234,0.49,0.522,1.092,0.862,1.801
							c0.715,1.527,1.681,3.645,2.73,5.994c1.049,2.349,1.981,4.484,2.641,6.035c0.301,0.727,0.557,1.343,0.765,1.845
							c0.174,0.439,0.26,0.685,0.239,0.695c-0.021,0.009-0.147-0.22-0.358-0.642c-0.234-0.49-0.523-1.091-0.862-1.801
							c-0.715-1.527-1.681-3.646-2.73-5.995c-1.049-2.348-1.981-4.482-2.64-6.034c-0.302-0.727-0.557-1.343-0.765-1.845
							C143.592,250.181,143.506,249.934,143.527,249.925z"/>
					</g>
				</g>
			</g>
			<g>
				<g>
					<g>
						<path style="fill:#E0E0E0;" d="M126.743,268.225c0.021-0.009,0.18,0.285,0.45,0.826c0.29,0.6,0.664,1.375,1.114,2.304
							c0.927,1.952,2.187,4.658,3.559,7.655c1.373,2.998,2.599,5.72,3.471,7.697c0.41,0.948,0.752,1.737,1.017,2.348
							c0.233,0.558,0.352,0.87,0.331,0.88c-0.021,0.01-0.18-0.285-0.45-0.826c-0.29-0.6-0.664-1.375-1.114-2.304
							c-0.927-1.952-2.187-4.658-3.56-7.656c-1.372-2.997-2.598-5.719-3.47-7.696c-0.41-0.947-0.752-1.736-1.017-2.348
							C126.841,268.548,126.722,268.235,126.743,268.225z"/>
					</g>
				</g>
			</g>
			<g>
				<g>
					<g>
						<path style="fill:#E0E0E0;" d="M136.594,289.349c0.002-0.023,0.361-0.011,1.007,0.031c0.705,0.049,1.625,0.113,2.733,0.19
							c2.308,0.158,5.496,0.364,9.023,0.492c3.527,0.133,6.722,0.17,9.035,0.18c1.111,0.006,2.033,0.011,2.74,0.014
							c0.647,0.006,1.005,0.02,1.006,0.043c0,0.023-0.357,0.053-1.004,0.087c-0.647,0.034-1.583,0.069-2.741,0.092
							c-2.315,0.05-5.517,0.051-9.05-0.083c-3.532-0.128-6.724-0.372-9.029-0.59c-1.152-0.112-2.084-0.212-2.727-0.296
							C136.946,289.428,136.592,289.372,136.594,289.349z"/>
					</g>
				</g>
			</g>
		</g>
		<g>
			<g>
				<g>
					<g>
						<path style="fill:#E0E0E0;" d="M110.914,230.438c0,0,0.118,1.719-0.28,4.93c-0.429,3.18-1.454,7.937-4.494,13.232
							l-0.105-0.181l0.009,0l0.208-0.001l-0.102,0.182c-6.518,11.56-16.301,28.908-28.01,49.674l-0.176,0.311l-0.19-0.303
							c-8.913-14.218-18.984-30.284-29.609-47.233c-0.499-0.796-0.996-1.59-1.456-2.324l-0.226-0.361l0.425,0.001h0.001
							l-0.203,0.353c-2.27-3.889-3.763-8.155-4.462-12.477c-0.334-2.162-0.521-4.338-0.444-6.491
							c0.059-1.076,0.117-2.147,0.175-3.214c0.16-1.056,0.319-2.108,0.477-3.155c1.625-8.338,6.156-15.653,12.087-20.668
							c2.987-2.493,6.318-4.393,9.741-5.725l1.288-0.48l0.64-0.239l0.658-0.175c0.877-0.229,1.747-0.455,2.61-0.68
							c1.762-0.265,3.488-0.626,5.219-0.632c1.723-0.158,3.415,0.004,5.076,0.091c0.828,0.066,1.637,0.245,2.444,0.36
							c0.403,0.065,0.804,0.13,1.202,0.194c0.395,0.083,0.78,0.203,1.167,0.302c0.772,0.209,1.536,0.416,2.292,0.621
							c0.732,0.279,1.456,0.555,2.173,0.829c0.356,0.141,0.718,0.263,1.064,0.417c0.339,0.17,0.676,0.339,1.011,0.507
							c0.669,0.338,1.329,0.672,1.983,1.003c5.072,2.951,8.879,6.803,11.502,10.617c2.643,3.827,4.108,7.6,5.011,10.721
							c0.381,1.585,0.766,2.983,0.882,4.236c0.174,1.242,0.344,2.29,0.335,3.15c0.029,0.846,0.052,1.494,0.068,1.947
							C110.92,230.214,110.914,230.438,110.914,230.438s-0.026-0.224-0.054-0.662c-0.026-0.452-0.064-1.098-0.113-1.941
							c-0.005-0.857-0.191-1.9-0.378-3.135c-0.13-1.246-0.528-2.635-0.92-4.209c-0.926-3.098-2.407-6.837-5.051-10.622
							c-2.624-3.773-6.417-7.575-11.45-10.479c-0.648-0.325-1.304-0.653-1.967-0.986c-0.332-0.165-0.666-0.331-1.002-0.498
							c-0.343-0.151-0.702-0.271-1.055-0.409c-0.71-0.268-1.427-0.539-2.153-0.814c-0.749-0.2-1.506-0.402-2.27-0.607
							c-0.383-0.097-0.764-0.215-1.155-0.295c-0.395-0.062-0.792-0.125-1.19-0.188c-0.799-0.111-1.599-0.286-2.418-0.35
							c-1.643-0.08-3.317-0.238-5.02-0.076c-1.711,0.009-3.416,0.372-5.157,0.636c-0.852,0.224-1.711,0.45-2.577,0.678l-0.649,0.174
							l-0.632,0.237l-1.271,0.477c-3.379,1.322-6.665,3.205-9.612,5.672c-5.85,4.964-10.315,12.191-11.913,20.425
							c-0.156,1.034-0.312,2.073-0.469,3.116c-0.056,1.053-0.113,2.111-0.17,3.174c-0.076,2.127,0.111,4.275,0.441,6.41
							c0.691,4.266,2.166,8.476,4.407,12.314l0.207,0.354l-0.41-0.001h-0.001l0.2-0.359c0.46,0.734,0.957,1.528,1.456,2.324
							c10.611,16.957,20.67,33.031,29.571,47.256l-0.365,0.008c11.776-20.728,21.614-38.044,28.17-49.583l0.105,0.18h-0.009l-0.21,0
							l0.105-0.181c3.05-5.242,4.109-9.964,4.576-13.128c0.23-1.594,0.296-2.827,0.349-3.655c0.015-0.405,0.026-0.716,0.035-0.94
							C110.901,230.545,110.914,230.438,110.914,230.438z"/>
					</g>
				</g>
				<g>
					<g>
						<path style="fill:#E0E0E0;" d="M98.349,230.043c-0.008,0-0.022-0.12-0.041-0.354c-0.018-0.257-0.042-0.6-0.073-1.038
							c-0.014-0.23-0.03-0.485-0.048-0.764c-0.03-0.28-0.091-0.583-0.141-0.913c-0.105-0.659-0.205-1.423-0.457-2.255
							c-0.386-1.687-1.175-3.681-2.419-5.794c-1.254-2.104-3.061-4.302-5.523-6.17c-2.454-1.849-5.551-3.425-9.128-4.065
							c-3.553-0.618-7.564-0.517-11.388,0.926c-0.973,0.309-1.888,0.788-2.828,1.236c-0.891,0.536-1.83,1.03-2.66,1.701
							c-0.882,0.603-1.653,1.357-2.462,2.083c-0.73,0.805-1.498,1.592-2.128,2.506c-1.293,1.787-2.424,3.773-3.11,5.958
							c-0.711,2.172-1.097,4.479-1.134,6.829c0.025,2.35,0.398,4.661,1.098,6.837c0.675,2.19,1.795,4.182,3.079,5.976
							c0.626,0.917,1.389,1.709,2.116,2.517c0.805,0.73,1.572,1.489,2.451,2.096c0.827,0.676,1.763,1.174,2.652,1.715
							c0.938,0.453,1.851,0.937,2.822,1.251c3.817,1.462,7.828,1.584,11.384,0.983c3.58-0.623,6.685-2.183,9.148-4.02
							c2.471-1.855,4.29-4.044,5.554-6.142c1.254-2.107,2.053-4.096,2.448-5.781c0.257-0.83,0.36-1.593,0.468-2.252
							c0.051-0.33,0.114-0.632,0.145-0.912c0.019-0.279,0.036-0.533,0.052-0.764c0.033-0.438,0.059-0.781,0.078-1.037
							C98.326,230.163,98.341,230.043,98.349,230.043s0.01,0.12,0.005,0.355c-0.008,0.258-0.018,0.603-0.032,1.043
							c-0.009,0.232-0.019,0.488-0.029,0.769c-0.024,0.282-0.079,0.587-0.124,0.92c-0.095,0.665-0.185,1.437-0.429,2.277
							c-0.37,1.706-1.152,3.726-2.399,5.871c-1.258,2.136-3.083,4.371-5.578,6.271c-2.488,1.883-5.637,3.487-9.279,4.138
							c-3.617,0.629-7.705,0.52-11.603-0.96c-0.992-0.318-1.925-0.808-2.883-1.269c-0.909-0.548-1.865-1.057-2.71-1.744
							c-0.898-0.618-1.684-1.39-2.506-2.135c-0.744-0.823-1.524-1.631-2.164-2.566c-1.314-1.83-2.46-3.865-3.152-6.101
							c-0.717-2.223-1.099-4.584-1.124-6.984c0.037-2.399,0.433-4.758,1.161-6.976c0.704-2.232,1.859-4.26,3.183-6.083
							c0.645-0.932,1.429-1.735,2.177-2.555c0.826-0.741,1.615-1.508,2.517-2.122c0.849-0.683,1.808-1.186,2.719-1.729
							c0.961-0.456,1.896-0.941,2.889-1.254c3.906-1.459,7.994-1.548,11.607-0.901c3.638,0.67,6.779,2.29,9.257,4.185
							c2.486,1.913,4.3,4.157,5.547,6.299c1.237,2.152,2.008,4.176,2.37,5.884c0.24,0.842,0.327,1.614,0.418,2.279
							c0.043,0.333,0.096,0.639,0.119,0.921c0.009,0.281,0.018,0.538,0.026,0.77c0.011,0.44,0.02,0.785,0.027,1.043
							C98.359,229.923,98.357,230.043,98.349,230.043z"/>
					</g>
				</g>
			</g>
			<g>
				<polygon style="fill:#E0E0E0;" points="76.027,240.232 63.304,231.355 66.402,226.916 74.933,232.868 85.97,218.845 
					90.223,222.193 				"/>
			</g>
		</g>
		<g>
			<g>
				<g>
					<g>
						<g>
							<g>
								<g>
									<g>
										<path style="fill-rule:evenodd;clip-rule:evenodd;fill:#F5F5F5;" d="M432.085,75.867
											c3.761,0.472,7.396,1.445,10.821,2.858l7.954-6.666l13.663,10.399l-4.305,9.443c2.275,2.924,4.182,6.168,5.639,9.67
											l10.334,0.91l2.307,17.014l-9.716,3.632c-0.47,3.763-1.445,7.398-2.859,10.823l6.666,7.955l-10.397,13.661l-9.443-4.304
											c-2.924,2.275-6.168,4.18-9.671,5.637l-0.909,10.334l-17.016,2.309l-3.631-9.718c-3.763-0.47-7.396-1.445-10.822-2.859
											l-7.956,6.667l-13.663-10.399l4.306-9.444c-2.274-2.924-4.179-6.168-5.639-9.67l-10.333-0.911l-2.309-17.014l9.717-3.631
											c0.47-3.763,1.444-7.399,2.859-10.823l-6.666-7.955l10.397-13.662l9.444,4.305c2.924-2.275,6.168-4.181,9.671-5.638
											l0.91-10.333l17.013-2.308L432.085,75.867L432.085,75.867z M426.982,99.329c-11.702,0.418-20.026,11.35-17.312,22.743
											c2.007,8.427,9.855,14.397,18.512,14.081c11.695-0.427,20.007-11.349,17.301-22.734
											C443.48,104.993,435.637,99.02,426.982,99.329z"/>
									</g>
								</g>
							</g>
						</g>
					</g>
				</g>
			</g>
		</g>
		<g>
			<g>
				<g>
					<g>
						<g>
							<g>
								<g>
									<g>
										<path style="fill-rule:evenodd;clip-rule:evenodd;fill:#EBEBEB;" d="M277.146,130.264
											c2.442,0.307,4.801,0.938,7.025,1.855l5.163-4.327l8.869,6.75l-2.794,6.13c1.477,1.898,2.715,4.004,3.661,6.277
											l6.708,0.591l1.497,11.044l-6.307,2.358c-0.305,2.443-0.938,4.802-1.856,7.025l4.327,5.164l-6.749,8.868l-6.13-2.794
											c-1.898,1.477-4.004,2.713-6.278,3.659l-0.59,6.708l-11.045,1.499l-2.357-6.308c-2.443-0.305-4.801-0.938-7.025-1.856
											l-5.164,4.327l-8.869-6.75l2.795-6.13c-1.477-1.898-2.713-4.004-3.66-6.277l-6.707-0.592l-1.499-11.044l6.308-2.357
											c0.305-2.443,0.938-4.803,1.856-7.026l-4.327-5.164l6.749-8.868l6.13,2.795c1.898-1.477,4.004-2.714,6.278-3.66
											l0.59-6.707l11.044-1.498L277.146,130.264L277.146,130.264z M273.834,145.494c-7.596,0.271-12.999,7.367-11.238,14.763
											c1.303,5.47,6.397,9.345,12.017,9.14c7.592-0.277,12.987-7.367,11.231-14.757
											C284.544,149.171,279.452,145.294,273.834,145.494z"/>
									</g>
								</g>
							</g>
						</g>
					</g>
				</g>
			</g>
		</g>
		<g>
			<g>
				<g>
					<g>
						<g>
							<g>
								<path style="fill:#EBEBEB;" d="M369.817,210.99c0,0,1.64,0.6,3.992,2.64c2.3,2.005,5.284,5.792,6.191,11.378
									c0.428,2.755,0.354,5.919-0.684,9.066c-1.044,3.118-2.876,6.294-5.709,8.737c-1.377,1.256-2.999,2.308-4.77,3.122
									c-1.761,0.84-3.696,1.419-5.711,1.669c-4.023,0.59-8.363-0.206-12.158-2.245c-3.762-2.105-6.766-5.338-8.432-9.048
									c-0.872-1.834-1.424-3.777-1.662-5.714c-0.265-1.932-0.25-3.866,0.07-5.702c0.538-3.704,2.232-6.955,4.301-9.511
									c2.097-2.567,4.725-4.329,7.279-5.448c5.198-2.237,9.995-1.755,12.921-0.893C368.43,209.93,369.817,210.99,369.817,210.99
									c-0.057,0.125-1.53-0.791-4.481-1.53c-2.897-0.719-7.544-1.047-12.495,1.192c-2.433,1.12-4.918,2.842-6.886,5.314
									c-1.941,2.463-3.523,5.571-4.002,9.085c-0.291,1.742-0.292,3.575-0.03,5.402c0.235,1.833,0.765,3.669,1.598,5.399
									c1.588,3.504,4.427,6.543,7.979,8.534c3.588,1.924,7.675,2.685,11.482,2.141c1.906-0.228,3.74-0.767,5.41-1.554
									c1.682-0.761,3.226-1.747,4.539-2.928c2.706-2.293,4.476-5.296,5.51-8.256c1.027-2.988,1.144-6.009,0.782-8.663
									c-0.771-5.379-3.545-9.121-5.709-11.179C371.307,211.855,369.743,211.106,369.817,210.99z"/>
							</g>
						</g>
					</g>
				</g>
			</g>
			<g>
				<g>
					<g>
						<g>
							<g>
								<path style="fill:#EBEBEB;" d="M390.441,195.419c-0.015,0.004,0.035-0.219,0.148-0.663c0.129-0.489,0.302-1.145,0.525-1.993
									c0.499-1.822,1.218-4.447,2.151-7.855l0.085,0.204c-4.056-2.195-9.39-5.08-15.841-8.571l0.345-0.06
									c-2.175,2.478-4.592,5.232-7.177,8.177l-0.129,0.148l-0.193-0.047c-3.556-0.864-7.467-1.339-11.586-1.226l-0.22,0.006
									l-0.108-0.194c-1.655-2.963-3.446-6.17-5.309-9.505l0.456,0.187c-5.441,1.6-11.215,3.298-17.278,5.081l0.313-0.446
									c0.212,3.364,0.445,7.068,0.684,10.866l0.017,0.276l-0.238,0.144c-3.094,1.869-6.255,4.332-9.051,7.284l-0.199,0.21
									l-0.28-0.08c-3.244-0.924-6.822-1.943-10.465-2.981l0.569-0.238c-2.715,4.964-5.642,10.316-8.643,15.802l-0.11-0.634
									c2.54,2.243,5.329,4.707,8.155,7.204l0.239,0.211l-0.076,0.31c-0.871,3.531-1.355,7.509-1.249,11.533l0.008,0.324
									l-0.285,0.158c-2.981,1.656-6.233,3.462-9.517,5.286l0.258-0.627c1.598,5.474,3.311,11.341,5.048,17.289l-0.563-0.396
									c3.432-0.21,7.136-0.437,10.868-0.665l0.335-0.02l0.173,0.287c1.9,3.157,4.361,6.294,7.247,9.037l0.004,0.004l0.001,0.002
									c0.068,0.248-0.149-0.552,0.153,0.556l-0.003,0.01l-0.006,0.021l-0.012,0.041l-0.024,0.082l-0.047,0.165l-0.094,0.329
									l-0.188,0.658l-0.377,1.315l-0.751,2.623c-0.5,1.746-0.999,3.485-1.495,5.215l-0.266-0.638
									c5.336,2.929,10.602,5.818,15.791,8.666l-0.675,0.117c2.429-2.742,4.833-5.458,7.215-8.146l0.219-0.247l0.32,0.079
									c3.81,0.944,7.7,1.359,11.529,1.267l0.326-0.008l0.157,0.284c1.784,3.221,3.54,6.392,5.275,9.523l-0.61-0.251
									c5.904-1.715,11.671-3.39,17.294-5.023l-0.366,0.521c-0.221-3.687-0.437-7.309-0.649-10.867l-0.018-0.301l0.258-0.155
									c3.4-2.044,6.447-4.506,9.07-7.251l0.202-0.211l0.278,0.08c3.585,1.033,7.061,2.035,10.456,3.013l-0.531,0.222
									c3.059-5.548,5.947-10.786,8.696-15.773l0.091,0.522c-2.86-2.543-5.544-4.93-8.132-7.232l-0.181-0.161l0.058-0.233
									c1.004-4.033,1.371-7.902,1.295-11.569l-0.005-0.222l0.192-0.106c3.466-1.908,6.588-3.626,9.537-5.249l-0.155,0.378
									c-1.923-6.707-3.562-12.421-4.964-17.313l0.254,0.178c-4.342,0.236-7.903,0.431-10.87,0.593l-0.109,0.006l-0.055-0.092
									c-2.028-3.397-3.934-5.656-5.221-7.112c-0.638-0.689-1.127-1.216-1.485-1.603
									C390.581,195.596,390.427,195.423,390.441,195.419c0.014-0.004,0.205,0.158,0.552,0.471
									c0.352,0.331,0.883,0.833,1.554,1.544c1.337,1.422,3.299,3.656,5.392,7.051l-0.164-0.086c2.965-0.2,6.523-0.44,10.861-0.733
									l0.197-0.013l0.057,0.192c1.446,4.88,3.135,10.579,5.116,17.269l0.074,0.25l-0.23,0.128
									c-2.938,1.643-6.048,3.382-9.502,5.313l0.187-0.327c0.1,3.727-0.25,7.666-1.251,11.778l-0.122-0.393
									c2.599,2.289,5.295,4.663,8.167,7.192l0.254,0.224l-0.163,0.299c-2.729,4.997-5.595,10.247-8.632,15.808l-0.176,0.323
									l-0.355-0.101c-3.398-0.966-6.877-1.956-10.466-2.977l0.479-0.13c-2.672,2.815-5.78,5.341-9.251,7.441l0.24-0.455
									c0.221,3.557,0.447,7.178,0.676,10.865l0.025,0.407l-0.392,0.115c-5.619,1.645-11.383,3.331-17.284,5.058l-0.405,0.119
									l-0.205-0.37c-1.739-3.129-3.5-6.297-5.289-9.515l0.482,0.276c-3.923,0.1-7.911-0.32-11.816-1.284l0.538-0.168
									c-2.379,2.691-4.781,5.409-7.207,8.153l-0.29,0.329l-0.385-0.211c-5.191-2.845-10.458-5.732-15.795-8.658l-0.388-0.213
									l0.122-0.426c0.496-1.731,0.994-3.47,1.493-5.216l0.751-2.624l0.376-1.315l0.189-0.659l0.094-0.329l0.047-0.165l0.023-0.082
									l0.012-0.041l0.006-0.021l0.003-0.01c0.301,1.107,0.082,0.306,0.149,0.552l-0.002-0.001l-0.004-0.004
									c-2.96-2.813-5.483-6.031-7.43-9.268l0.507,0.266c-3.731,0.227-7.435,0.451-10.868,0.66l-0.44,0.027l-0.123-0.423
									c-1.731-5.949-3.439-11.818-5.032-17.294l-0.121-0.417l0.379-0.21c3.288-1.82,6.542-3.622,9.525-5.274l-0.276,0.482
									c-0.103-4.123,0.399-8.197,1.298-11.811l0.162,0.52c-2.821-2.502-5.605-4.971-8.141-7.22l-0.309-0.274l0.199-0.361
									c3.014-5.479,5.954-10.824,8.681-15.781l0.191-0.347l0.379,0.109c3.64,1.049,7.215,2.079,10.456,3.012l-0.478,0.13
									c2.867-3.009,6.105-5.514,9.271-7.409l-0.22,0.42c-0.224-3.798-0.443-7.504-0.642-10.868l-0.021-0.349l0.334-0.097
									c6.071-1.755,11.853-3.426,17.301-5.001l0.305-0.088l0.152,0.275c1.844,3.346,3.617,6.563,5.255,9.535l-0.327-0.188
									c4.188-0.089,8.157,0.419,11.76,1.323l-0.321,0.1c2.61-2.925,5.049-5.659,7.244-8.12l0.151-0.169l0.195,0.109
									c6.411,3.565,11.71,6.512,15.741,8.754l0.125,0.07l-0.04,0.134c-1.003,3.355-1.775,5.941-2.311,7.734
									c-0.262,0.85-0.465,1.505-0.616,1.995C390.536,195.185,390.456,195.415,390.441,195.419z"/>
							</g>
						</g>
					</g>
				</g>
			</g>
		</g>
		<g>
			<g>
				<polygon style="fill:#EBEBEB;" points="432.782,213.502 417.09,151.099 480.937,150.044 				"/>
			</g>
			<g>
				
					<rect x="491.017" y="147.604" transform="matrix(0.6045 -0.7966 0.7966 0.6045 25.351 492.9895)" style="fill:#EBEBEB;" width="36.281" height="146.72"/>
			</g>
		</g>
	</g>
</g>
<g id="Background_Simple" style="display:none;">
	<path style="display:inline;fill:#F5F5F5;" d="M655.517,119.066c-16.506-23.61-41.255-42.074-69.479-47.844
		c-28.224-5.769-59.664,2.316-79.368,23.329c-29.691,31.663-30.107,86.221-66.384,110.055
		c-36.413,23.923-87.901,2.639-127.281,21.277c-34.437,16.299-48.994,62.401-34.689,97.713c9.537,23.542,24.717,42.937,47.32,56.505
		c16.935,10.166,36.276,15.634,56.013,16.437l66.116,2.69c18.244,0.742,36.532,0.058,54.628-2.378
		c34.903-4.697,66.782-14.975,97.612-38.897c35.649-27.662,64.002-65.774,75.721-109.348
		C687.443,205.032,681.371,156.048,655.517,119.066z"/>
	<path style="display:inline;fill:#F5F5F5;" d="M401.519,120.551c-2.267-25.55-24.603-47.833-50.158-50.04
		c-1.363-0.809-25.966,2.465-36.422,9.811c-20.989,14.744-29.111,45.232-18.238,68.463c10.873,23.231,39.486,36.526,64.253,29.855
		C385.722,171.969,403.786,146.101,401.519,120.551z"/>
</g>
<g id="Character">
	<g>
		<path style="fill:#E8505B;" d="M547.003,373.024l8.11,18.388c0,0-15.967,14.419-14.799,17.964l36.219-14.445l-11.461-29.17
			L547.003,373.024z"/>
		<path style="opacity:0.5;" d="M547.003,373.024l8.11,18.388c0,0-15.967,14.419-14.799,17.964l36.219-14.445l-11.461-29.17
			L547.003,373.024z"/>
		<path style="fill:#263238;" d="M576.533,394.931l-1.27-2.895l-34.251,14.932c0,0-1.333,1.345-0.698,2.408L576.533,394.931z"/>
		<path style="fill:#E8505B;" d="M610.784,399.072l10.152,17.344c0,0-14.22,16.145-12.656,19.533l34.337-18.477l-14.71-27.675
			L610.784,399.072z"/>
		<path style="opacity:0.5;" d="M610.784,399.072l10.152,17.344c0,0-14.22,16.145-12.656,19.533l34.337-18.477l-14.71-27.675
			L610.784,399.072z"/>
		<path style="fill:#263238;" d="M642.617,417.472l-1.592-2.731l-32.327,18.737c0,0-1.171,1.488-0.419,2.471L642.617,417.472z"/>
		<g>
			<g>
				<g>
					<g>
						<g>
							<g>
								<g>
									<g>
										<g>
											<g>
												<path style="fill:#FFBE9D;" d="M566.477,155.775l-22.258,1.734l-0.739-12.461c0,0-8.978-0.131-10.322-8.9
													c-1.344-8.769-2.657-29.154-2.657-29.154l0,0c9.554-5.8,21.499-5.975,31.219-0.457l1.443,0.819L566.477,155.775z"/>
											</g>
										</g>
									</g>
								</g>
							</g>
							<g>
								<g>
									<g>
										<g>
											<g>
												<path style="fill:#EB996E;" d="M543.449,144.923c0,0,5.615-0.329,10.994-4.865c0,0-1.946,6.897-10.823,7.338
													L543.449,144.923z"/>
											</g>
										</g>
									</g>
								</g>
							</g>
						</g>
					</g>
				</g>
				<g>
					<g>
						<g>
							<g>
								<g>
									<g>
										<path style="fill:#FFBE9D;" d="M563.361,116.607c0.141-0.086,5.785-2.634,6.437,3.399
											c0.653,6.032-5.539,5.443-5.568,5.271C564.201,125.105,563.361,116.607,563.361,116.607z"/>
									</g>
								</g>
							</g>
						</g>
					</g>
					<g>
						<g>
							<g>
								<g>
									<g>
										<g>
											<path style="fill:#EB996E;" d="M565.826,122.792c0.024-0.022,0.113,0.062,0.299,0.124
												c0.182,0.06,0.486,0.083,0.787-0.069c0.612-0.303,1.039-1.373,0.951-2.463c-0.044-0.551-0.215-1.061-0.457-1.473
												c-0.232-0.421-0.551-0.699-0.878-0.721c-0.327-0.039-0.534,0.177-0.589,0.355c-0.063,0.177-0.011,0.294-0.042,0.307
												c-0.015,0.017-0.141-0.087-0.119-0.341c0.012-0.123,0.067-0.273,0.196-0.404c0.132-0.134,0.339-0.216,0.565-0.217
												c0.469-0.018,0.934,0.365,1.199,0.816c0.291,0.451,0.497,1.024,0.546,1.642c0.093,1.22-0.406,2.424-1.251,2.771
												c-0.412,0.157-0.78,0.067-0.978-0.056C565.853,122.937,565.806,122.805,565.826,122.792z"/>
										</g>
									</g>
								</g>
							</g>
						</g>
					</g>
				</g>
				<g>
					<g>
						<g>
							<g>
								<g>
									<g>
										<g>
											<g>
												<g>
													<g>
														<g>
															<path style="fill:#263238;" d="M534.293,120.798c0.069,0.666,0.691,1.156,1.388,1.095
																c0.695-0.06,1.204-0.647,1.134-1.313c-0.07-0.666-0.691-1.157-1.387-1.097
																C534.732,119.544,534.223,120.132,534.293,120.798z"/>
														</g>
													</g>
												</g>
											</g>
										</g>
										<g>
											<g>
												<g>
													<g>
														<g>
															<g>
																<path style="fill:#263238;" d="M533.902,119.118c0.179,0.142,1.03-0.695,2.381-0.881
																	c1.346-0.205,2.434,0.35,2.558,0.164c0.062-0.083-0.138-0.356-0.614-0.61c-0.469-0.253-1.236-0.455-2.076-0.333
																	c-0.84,0.123-1.504,0.532-1.866,0.906C533.915,118.74,533.816,119.055,533.902,119.118z"/>
															</g>
														</g>
													</g>
												</g>
											</g>
										</g>
									</g>
									<g>
										<g>
											<g>
												<g>
													<g>
														<g>
															<path style="fill:#263238;" d="M547.422,119.279c0.07,0.666,0.691,1.155,1.388,1.096
																c0.695-0.06,1.204-0.647,1.134-1.313c-0.07-0.666-0.691-1.156-1.387-1.097
																C547.86,118.025,547.352,118.613,547.422,119.279z"/>
														</g>
													</g>
												</g>
											</g>
										</g>
										<g>
											<g>
												<g>
													<g>
														<g>
															<g>
																<path style="fill:#263238;" d="M547.207,117.504c0.179,0.142,1.032-0.695,2.381-0.881
																	c1.346-0.205,2.435,0.35,2.558,0.164c0.061-0.083-0.137-0.356-0.614-0.609c-0.469-0.253-1.235-0.455-2.076-0.334
																	c-0.84,0.123-1.504,0.532-1.866,0.906C547.22,117.126,547.121,117.441,547.207,117.504z"/>
															</g>
														</g>
													</g>
												</g>
											</g>
										</g>
									</g>
									<g>
										<g>
											<g>
												<g>
													<g>
														<g>
															<path style="fill:#263238;" d="M543.716,128.204c-0.005-0.078-0.864-0.105-2.248-0.087
																c-0.35,0.013-0.685-0.01-0.777-0.237c-0.116-0.238-0.024-0.63,0.086-1.054c0.207-0.88,0.423-1.802,0.65-2.768
																c0.89-3.936,1.483-7.153,1.324-7.188c-0.159-0.035-1.009,3.128-1.899,7.064c-0.211,0.969-0.414,1.894-0.605,2.778
																c-0.075,0.41-0.237,0.886,0.011,1.378c0.129,0.244,0.408,0.396,0.638,0.424c0.23,0.036,0.425,0.013,0.597-0.001
																C542.872,128.395,543.721,128.281,543.716,128.204z"/>
														</g>
													</g>
												</g>
											</g>
										</g>
									</g>
									<g>
										<g>
											<g>
												<g>
													<g>
														<g>
															<path style="fill:#263238;" d="M547.82,128.579c-0.221,0.018-0.018,1.484-1.126,2.7
																c-1.105,1.219-2.69,1.275-2.673,1.481c-0.008,0.095,0.388,0.236,1.049,0.161c0.65-0.069,1.565-0.409,2.243-1.153
																c0.675-0.745,0.885-1.643,0.85-2.251C548.133,128.896,547.919,128.556,547.82,128.579z"/>
														</g>
													</g>
												</g>
											</g>
										</g>
									</g>
								</g>
							</g>
						</g>
						<g>
							<g>
								<g>
									<g>
										<g>
											<path style="fill:#263238;" d="M546.115,112.263c0.185,0.348,1.508-0.015,3.119-0.047c1.61-0.064,2.952,0.22,3.116-0.139
												c0.072-0.171-0.2-0.485-0.766-0.767c-0.562-0.283-1.426-0.505-2.392-0.478c-0.965,0.03-1.815,0.303-2.358,0.619
												C546.285,111.767,546.033,112.096,546.115,112.263z"/>
										</g>
									</g>
								</g>
							</g>
						</g>
						<g>
							<g>
								<g>
									<g>
										<g>
											<path style="fill:#263238;" d="M533.849,115.141c0.281,0.273,1.166-0.176,2.282-0.348
												c1.11-0.211,2.094-0.084,2.267-0.436c0.074-0.169-0.119-0.455-0.573-0.688c-0.448-0.232-1.164-0.372-1.929-0.241
												c-0.765,0.132-1.392,0.504-1.737,0.873C533.809,114.672,533.724,115.006,533.849,115.141z"/>
										</g>
									</g>
								</g>
							</g>
						</g>
					</g>
				</g>
			</g>
			<g>
				<g>
					<g>
						<path style="fill:#263238;" d="M525.443,102.05c-0.247-1.076-0.006-2.301,0.79-3.065c0.796-0.764,2.176-0.917,3.011-0.196
							c-0.619-1.409,0.343-3.269,1.85-3.58c1.42-0.292,2.794,0.618,4.232,0.803c1.403,0.181,2.809-0.344,4.035-1.05
							c1.226-0.706,2.34-1.6,3.588-2.265c2.604-1.389,5.761-1.704,8.588-0.858c2.827,0.846,5.292,2.843,6.706,5.434
							c1.837-0.87,4.157-0.202,5.57,1.259c1.413,1.461,2.018,3.555,2.063,5.587c0.031,1.373-0.176,2.733-0.45,4.083
							c0.016,0.113,0.043,0.222,0.057,0.336c0.588,4.843,0.84,10.593-1.217,10.914c-3.584,0.56-3.68-6.327-3.68-6.327
							c-4.648-1.083-3.934-7.919-5.177-8.765c-1.243-0.847-3.876-2.851-12.442,3.164c-3.326,2.335-8.099,2.948-10.783,2.724
							c-0.079-0.006-0.157-0.007-0.236-0.014c-0.017-0.002-0.038-0.002-0.055-0.003c-0.029-0.003-0.052-0.016-0.081-0.02
							c-0.86-0.099-1.704-0.308-2.508-0.671c-0.91-0.411-1.771-1.021-2.255-1.894c-0.484-0.874-0.513-2.045,0.117-2.821
							C526.366,104.062,525.69,103.126,525.443,102.05z"/>
					</g>
				</g>
			</g>
		</g>
		<g>
			<polygon style="fill:#EBEBEB;" points="543.449,152.684 544.442,187.556 566.139,140.846 565.596,136.521 			"/>
		</g>
		<g>
			<g>
				<path style="fill:#263238;" d="M557.844,256.933c-0.795,0.26-45.971,45.949-44.956,54.155
					c1.015,8.207,33.174,68.984,33.174,68.984l22.944-11.313l-21.523-53.283l0.282-3.305l26.304-21.555l-1.405-34.664
					L557.844,256.933z"/>
			</g>
			<g>
				<path style="fill:#263238;" d="M567.585,265.936c0.525,0.796,8.348,72.574,10.445,76.288c2.097,3.715,33.52,64.992,33.52,64.992
					l23.33-9.401l-28.482-67.346l3.246-63.74l-1.757-17.999l-35.224,7.222L567.585,265.936z"/>
			</g>
			<g>
				<g>
					<path style="fill:#455A64;" d="M577.621,340.961c-0.017,0.002-0.069-0.245-0.152-0.718c-0.086-0.521-0.198-1.211-0.34-2.073
						c-0.281-1.857-0.674-4.452-1.156-7.636c-0.935-6.501-2.214-15.393-3.627-25.216c-1.357-9.835-2.585-18.735-3.483-25.241
						c-0.416-3.193-0.756-5.795-0.998-7.657c-0.102-0.867-0.184-1.561-0.246-2.086c-0.051-0.478-0.069-0.729-0.052-0.732
						c0.017-0.002,0.069,0.245,0.152,0.718c0.086,0.521,0.198,1.21,0.34,2.072c0.281,1.857,0.674,4.451,1.156,7.635
						c0.935,6.501,2.214,15.394,3.628,25.222c1.356,9.832,2.584,18.732,3.482,25.238c0.416,3.193,0.756,5.795,0.998,7.657
						c0.103,0.867,0.184,1.561,0.246,2.085C577.619,340.707,577.638,340.959,577.621,340.961z"/>
				</g>
			</g>
			<g>
				<g>
					<path style="fill:#455A64;" d="M605.806,328.41c0.133,0.038-0.474,2.585-1.356,5.688c-0.883,3.104-1.706,5.589-1.839,5.551
						c-0.133-0.038,0.474-2.584,1.356-5.688C604.85,330.858,605.673,328.372,605.806,328.41z"/>
				</g>
			</g>
			<g>
				<g>
					<path style="fill:#455A64;" d="M609.336,344.667c-0.046,0.034-0.598-0.598-1.274-1.771c-0.676-1.168-1.43-2.903-1.865-4.929
						c-0.429-2.028-0.449-3.92-0.308-5.262c0.139-1.346,0.385-2.148,0.441-2.136c0.167,0.012-0.515,3.322,0.358,7.293
						C607.51,341.843,609.483,344.587,609.336,344.667z"/>
				</g>
			</g>
			<g>
				<g>
					<path style="fill:#455A64;" d="M539.958,307.745c0.046-0.117,1.933,0.667,3.767,2.35c1.845,1.672,2.799,3.478,2.687,3.535
						c-0.126,0.083-1.239-1.549-3.025-3.165C541.615,308.837,539.887,307.879,539.958,307.745z"/>
				</g>
			</g>
			<g>
				<g>
					<path style="fill:#455A64;" d="M543.5,305.625c0.091-0.094,1.242,0.923,2.224,2.523c0.991,1.596,1.386,3.08,1.261,3.119
						c-0.137,0.05-0.728-1.313-1.688-2.855C544.348,306.864,543.393,305.725,543.5,305.625z"/>
				</g>
			</g>
		</g>
		<g>
			<g>
				<g>
					<path style="fill:#E8505B;" d="M546.619,200.914l5.775,28.652l4.7,39.982c0,0,19.376-2.706,27.634-5.32
						c9.578-3.032,30.419-5.614,30.419-5.614l-3.513,3.476c7.456-2.088,12.204-9.204,12.204-9.204
						c-12.853-11.92-23.816-36.441-23.816-36.441l-9.773-48.523c0,0-1.483-6.846-2.379-9.889
						c-0.896-3.044-15.735-12.863-17.792-14.104l-1.292-0.611l-0.411-3.889l-1.529-0.915l-16.061,14.59
						c-3.121,2.841-5.113,6.711-5.589,10.904c-0.502,4.421-0.952,10.763-0.7,18.253
						C544.688,187.945,546.619,200.914,546.619,200.914z"/>
				</g>
			</g>
			<g>
				<g>
					<path style="fill:#E8505B;" d="M557.644,151.281c0,0-8.485,4.549-9.956,8.409c-1.471,3.86,2.904,46.185,2.904,46.185
						l-30.468,0.571l-0.096,18.155c0,0,48.395,3.824,50.279,1.208c2.546-3.537,5.505-36.609,5.505-36.609l1.099-23.795
						C576.911,165.404,574.105,147.258,557.644,151.281z"/>
				</g>
				<g style="opacity:0.3;">
					<g>
						<path d="M552.394,229.565c4.101,1.326,7.904,1.538,12.195,1.139c4.291-0.399,8.658-2.747,10.28-6.74
							c1.242-3.058,0.724-6.503,0.912-9.798c0.164-2.862,0.873-5.662,1.305-8.496c0.432-2.834-1.037-8.044-1.972-10.754
							c0,0-1.087,19.646-4.16,27.895c-0.419,1.124-0.95,2.26-1.884,3.012c-1.087,0.875-2.595,0.952-3.983,1.097
							c-3.887,0.406-13.266-0.268-13.266-0.268"/>
					</g>
				</g>
				<g>
					<g>
						<path style="fill:#263238;" d="M576.859,167.975c0.009,0.001,0.009,0.147,0.001,0.432c-0.012,0.307-0.028,0.727-0.048,1.265
							c-0.055,1.136-0.134,2.769-0.234,4.86c-0.111,2.118-0.246,4.699-0.403,7.689c-0.183,2.996-0.282,6.415-0.65,10.177
							c-0.328,3.764-0.722,7.884-1.194,12.302c-0.491,4.416-1.014,9.136-1.855,14.072c-0.239,1.234-0.429,2.477-0.836,3.732
							c-0.419,1.238-1.147,2.425-2.197,3.292c-1.035,0.847-2.408,1.45-3.791,1.353c-1.344,0.031-2.69-0.004-4.051-0.02
							c-5.439-0.134-11.06-0.413-16.816-0.725c-8.648-0.478-16.983-1.018-24.772-1.564l-0.224-0.016l0.001-0.225
							c0.039-6.448,0.076-12.523,0.109-18.126l0.001-0.21l0.208-0.004c12.166-0.262,22.295-0.479,29.408-0.632
							c3.526-0.061,6.304-0.109,8.227-0.143c0.93-0.009,1.652-0.016,2.166-0.021c0.49-0.001,0.743,0.015,0.743,0.015
							s-0.252,0.029-0.742,0.052c-0.514,0.02-1.235,0.049-2.165,0.085c-1.922,0.061-4.699,0.149-8.224,0.261
							c-7.113,0.196-17.24,0.476-29.404,0.812l0.21-0.214c-0.018,5.603-0.039,11.678-0.06,18.126l-0.223-0.24
							c7.787,0.532,16.121,1.064,24.766,1.541c5.753,0.312,11.373,0.594,16.8,0.735c1.356,0.018,2.703,0.054,4.026,0.026
							c1.303,0.096,2.529-0.456,3.501-1.238c0.971-0.799,1.655-1.9,2.056-3.075c0.387-1.179,0.59-2.445,0.827-3.66
							c0.849-4.909,1.388-9.628,1.896-14.037c0.49-4.413,0.904-8.529,1.254-12.289c0.39-3.757,0.514-7.173,0.724-10.165
							c0.19-2.988,0.353-5.565,0.487-7.681c0.141-2.088,0.252-3.719,0.328-4.854c0.042-0.537,0.074-0.955,0.098-1.262
							C576.834,168.12,576.851,167.974,576.859,167.975z"/>
					</g>
				</g>
				<g>
					<g>
						<path style="fill:#263238;" d="M526.009,224.334c-0.139-0.001-0.23-3.943-0.205-8.804c0.026-4.863,0.159-8.803,0.297-8.802
							c0.138,0.001,0.23,3.942,0.205,8.805C526.28,220.393,526.147,224.334,526.009,224.334z"/>
					</g>
				</g>
				<g>
					<g>
						<path style="fill:#263238;" d="M522.778,209.486c-0.058-0.033,0.246-0.372,0.825-0.18c0.266,0.085,0.59,0.382,0.618,0.806
							c0.034,0.401-0.164,0.87-0.619,1.087c-0.46,0.199-0.94,0.047-1.226-0.225c-0.305-0.282-0.36-0.691-0.297-0.959
							c0.137-0.575,0.537-0.697,0.551-0.639c0.049,0.056-0.19,0.269-0.198,0.682c-0.003,0.201,0.065,0.426,0.253,0.571
							c0.181,0.15,0.484,0.218,0.71,0.114c0.225-0.1,0.37-0.377,0.365-0.605c0.004-0.231-0.135-0.409-0.305-0.51
							C523.104,209.419,522.809,209.551,522.778,209.486z"/>
					</g>
				</g>
			</g>
			<g>
				<path style="fill:#E8505B;" d="M590.385,172.08c0,0,15.851,20.726,17.782,26.374c1.931,5.648,0.439,13.757-2.789,17.635
					s-5.831,2.302-5.831,2.302L590.385,172.08z"/>
			</g>
			<g>
				<g>
					<path style="fill:#263238;" d="M598.979,216.726c0.023,0.137-1.755,0.556-3.972,0.936c-2.218,0.381-4.034,0.578-4.058,0.442
						c-0.023-0.137,1.755-0.556,3.973-0.936C597.139,216.787,598.955,216.589,598.979,216.726z"/>
				</g>
			</g>
			<g>
				<g>
					<path style="fill:#263238;" d="M602.026,232.007c0.033-0.009,0.185,0.381,0.43,1.094c0.24,0.714,0.604,1.742,1.075,3.003
						c0.935,2.524,2.376,5.955,4.258,9.604c1.888,3.648,3.842,6.816,5.325,9.063c0.74,1.125,1.351,2.028,1.778,2.65
						c0.424,0.623,0.646,0.979,0.618,0.999c-0.028,0.021-0.302-0.294-0.776-0.884c-0.477-0.587-1.134-1.462-1.914-2.566
						c-1.564-2.205-3.578-5.363-5.478-9.033c-1.893-3.671-3.292-7.15-4.146-9.716c-0.43-1.282-0.744-2.331-0.927-3.065
						C602.081,232.426,601.993,232.017,602.026,232.007z"/>
				</g>
			</g>
			<g style="opacity:0.3;">
				<g>
					<path d="M603.103,234.463c2.513,4.477,5.094,9.042,8.921,12.463c1.351,1.208,2.863,2.28,3.893,3.771
						c1.03,1.491,1.476,3.576,0.497,5.101c-0.345,0.538-0.958,1.001-1.58,0.854c-0.441-0.104-0.757-0.481-1.035-0.839
						c-4.771-6.141-8.364-13.195-10.525-20.666"/>
				</g>
			</g>
			<g style="opacity:0.3;">
				<g>
					<path d="M601.01,218.313c2.17-1.559,2.93-4.526,2.608-7.179s-1.534-5.1-2.632-7.536c-3.406-7.557-5.706-14.391-7.721-22.643
						l-1.549-5.749l7.841,41.02L601.01,218.313z"/>
				</g>
			</g>
			<g>
				<g>
					<path style="fill:#263238;" d="M561.77,149.439c-0.088-0.115,1.335-1.326,2.954-2.952c1.626-1.62,2.836-3.043,2.951-2.955
						c0.107,0.078-0.943,1.661-2.596,3.309C563.431,148.496,561.848,149.546,561.77,149.439z"/>
				</g>
			</g>
			<g>
				<g>
					<path style="fill:#263238;" d="M560.168,152.951c0.025,0.084-0.915,0.367-2.317,1.061c-1.402,0.688-3.239,1.863-4.918,3.554
						c-1.672,1.699-2.825,3.55-3.497,4.96c-0.677,1.411-0.948,2.354-1.033,2.329c-0.033-0.009,0.007-0.251,0.109-0.685
						c0.095-0.436,0.296-1.051,0.6-1.79c0.601-1.477,1.742-3.419,3.463-5.167c1.728-1.742,3.655-2.905,5.125-3.524
						c0.735-0.313,1.348-0.521,1.783-0.621C559.916,152.961,560.158,152.918,560.168,152.951z"/>
				</g>
			</g>
			<g>
				<g>
					<path style="fill:#263238;" d="M602.739,222.435c-0.015,0.007-0.1-0.13-0.249-0.398c-0.17-0.319-0.38-0.711-0.635-1.189
						c-0.567-1.109-1.336-2.613-2.281-4.463l-0.009-0.017l-0.005-0.023c-0.991-4.542-2.394-11.167-3.918-18.534
						c-1.408-6.944-2.681-13.226-3.621-17.861c-0.429-2.237-0.781-4.072-1.041-5.424c-0.104-0.597-0.189-1.086-0.258-1.48
						c-0.054-0.339-0.074-0.519-0.057-0.523c0.017-0.004,0.07,0.17,0.156,0.502c0.093,0.389,0.209,0.872,0.35,1.461
						c0.298,1.344,0.703,3.168,1.197,5.392c0.977,4.627,2.301,10.899,3.764,17.832c1.524,7.368,2.865,14.005,3.758,18.567
						l-0.014-0.04c0.888,1.878,1.611,3.405,2.143,4.531c0.223,0.494,0.406,0.899,0.555,1.229
						C602.697,222.277,602.754,222.428,602.739,222.435z"/>
				</g>
			</g>
			<g>
				<g>
					<path style="fill:#263238;" d="M550.065,205.858c-0.034,0.003-0.115-0.532-0.232-1.502c-0.115-1.06-0.266-2.444-0.447-4.113
						c-0.355-3.475-0.812-8.279-1.286-13.587c-0.474-5.31-0.874-10.119-1.139-13.602c-0.117-1.674-0.214-3.063-0.288-4.126
						c-0.057-0.975-0.072-1.515-0.037-1.518c0.035-0.003,0.115,0.533,0.232,1.503c0.115,1.06,0.266,2.445,0.447,4.113
						c0.356,3.475,0.812,8.278,1.286,13.587c0.473,5.307,0.874,10.115,1.139,13.597c0.117,1.674,0.214,3.063,0.288,4.127
						C550.085,205.313,550.1,205.854,550.065,205.858z"/>
				</g>
			</g>
		</g>
		<g>
			<g>
				<g>
					<path style="fill:#FFBE9D;" d="M520.505,208.57c0,0-6.571-4.985-8.174-5.285c-1.228-0.23-8.561-0.108-11.935-0.038
						c-1.296,0.027-2.436,1.046-2.42,2.343c0.001,0.084,0.008,0.164,0.023,0.238c0.265,1.368,1.604,1.666,1.604,1.666
						s-1.748,0.501-1.776,2.405c-0.028,1.904,2.277,2.305,2.277,2.305s-0.138,0.102-0.33,0.293c-1.26,1.257-0.62,3.418,1.116,3.813
						l1.039,0.236c0,0-1.406,0.585-1.386,1.892c0.038,2.507,5.675,2.987,5.675,2.987s13.931,2.205,14.232,2.105
						C520.75,223.429,520.505,208.57,520.505,208.57z"/>
				</g>
				<g>
					<path style="fill:#FFBE9D;" d="M501.692,200.282c0.061,0.826,0.255,2.584,1.661,3.381l7.763-0.304c0,0-5.781-1.995-6.603-2.981
						c-0.288-0.346-0.685-0.774-1.108-1.084C502.669,198.755,501.625,199.372,501.692,200.282z"/>
				</g>
			</g>
			<g>
				<g>
					<path style="fill:#EB996E;" d="M507.464,203.283c0.003,0.135-1.584,0.287-3.545,0.251c-1.951-0.036-3.534-0.109-3.538-0.251
						c-0.003-0.135,1.584-0.287,3.545-0.251C505.878,203.068,507.461,203.141,507.464,203.283z"/>
				</g>
			</g>
			<g>
				<g>
					<path style="fill:#EB996E;" d="M505.72,207.617c0.014,0.133-1.355,0.375-3.06,0.312c-1.705-0.058-3.054-0.397-3.031-0.529
						c0.023-0.141,1.379-0.029,3.048,0.027C504.346,207.49,505.707,207.474,505.72,207.617z"/>
				</g>
			</g>
			<g>
				<g>
					<path style="fill:#EB996E;" d="M509.67,207.064c0.115,0.071-0.034,0.494-0.472,0.777c-0.438,0.285-0.884,0.248-0.902,0.113
						c-0.025-0.139,0.288-0.309,0.629-0.534C509.27,207.2,509.553,206.984,509.67,207.064z"/>
				</g>
			</g>
			<g>
				<g>
					<path style="fill:#EB996E;" d="M506.575,212.535c-0.01,0.138-1.508,0.201-3.345,0.141c-1.837-0.061-3.328-0.222-3.329-0.361
						c-0.001-0.139,1.496-0.202,3.345-0.141C505.095,212.235,506.585,212.397,506.575,212.535z"/>
				</g>
			</g>
			<g>
				<g>
					<path style="fill:#EB996E;" d="M511.011,210.46c0.062-0.018,0.183,0.138,0.22,0.444c0.039,0.298-0.034,0.751-0.335,1.134
						c-0.302,0.383-0.724,0.56-1.023,0.593c-0.305,0.036-0.486-0.044-0.483-0.109c-0.004-0.137,0.669-0.223,1.112-0.794
						C510.952,211.163,510.878,210.489,511.011,210.46z"/>
				</g>
			</g>
			<g>
				<g>
					<path style="fill:#EB996E;" d="M507.747,217.351c-0.017,0.138-1.368,0.084-3.018-0.12c-1.65-0.204-2.974-0.481-2.957-0.618
						c0.017-0.137,1.368-0.084,3.018,0.12C506.44,216.937,507.764,217.214,507.747,217.351z"/>
				</g>
			</g>
			<g>
				<g>
					<path style="fill:#EB996E;" d="M512.079,214.903c0.065-0.009,0.16,0.161,0.151,0.462c-0.005,0.298-0.141,0.704-0.416,1.054
						c-0.568,0.688-1.206,0.937-1.277,0.844c-0.1-0.119,0.412-0.575,0.88-1.151C511.895,215.533,511.949,214.926,512.079,214.903z"
						/>
				</g>
			</g>
		</g>
		<g>
			<path style="fill:#E8505B;" d="M608.998,262.509c2.743-0.244,5.328-1.872,6.732-4.241c0.159-0.268,0.296-0.634,0.089-0.867
				c-0.14-0.157-0.376-0.174-0.587-0.176c-2.169-0.02-4.341,0.352-6.379,1.094c-0.232,0.084-0.486,0.197-0.573,0.428
				c-0.063,0.167-0.018,0.353,0.027,0.526c0.273,1.051,0.546,2.103,0.819,3.154"/>
		</g>
		<g style="opacity:0.4;">
			<g>
				<path d="M608.998,262.509c2.743-0.244,5.328-1.872,6.732-4.241c0.159-0.268,0.296-0.634,0.089-0.867
					c-0.14-0.157-0.376-0.174-0.587-0.176c-2.169-0.02-4.341,0.352-6.379,1.094c-0.232,0.084-0.486,0.197-0.573,0.428
					c-0.063,0.167-0.018,0.353,0.027,0.526c0.273,1.051,0.546,2.103,0.819,3.154"/>
			</g>
		</g>
		<g>
			<g>
				<path style="fill:#EBEBEB;" d="M543.449,152.684c0,0-3.196,10.729-2.315,10.119c0.881-0.61,2.791-2.304,2.791-2.304
					L543.449,152.684z"/>
			</g>
			<g>
				<path style="fill:#263238;" d="M543.633,157.63l-1.748,4.177c-0.168,0.436-0.281,0.886-0.338,1.349
					c-0.145,1.17-0.312,3.315,0.385,3.464c0.962,0.206,1.868-0.773,1.868-0.773L543.633,157.63z"/>
			</g>
			<g>
				<g>
					<path style="fill:#263238;" d="M597.834,158.289c0,0-17.096-6.67-26.563-0.78c-9.466,5.89-11.191,15.289-16.828,15.289
						c-10.994,0-10.642-7.757-10.642-7.757l-2.337,0.708c-0.046,1.587-2.549,12.984,9.037,14.397
						c11.586,1.413,16.455-14.382,26.878-14.397c10.423-0.015,18.335,5.637,18.335,5.637l7.488-4.736L597.834,158.289z"/>
				</g>
				<g>
					<path style="fill:#455A64;" d="M553.966,179.956c0,0,4.263-2.185,6.595-7.567c2.655-6.127,8.357-13.123,13.117-14.881
						c4.761-1.758,15.775-2.984,23.383,1.973l4.872,6.582l-6.326,4.103c0,0-5-2.747-11.147-4.463
						c-7.862-2.195-12.641,0.284-17.211,4.61c-0.284,0.269-0.545,0.535-0.773,0.793c-1.154,1.31-4.342,4.343-7.237,6.407
						C557.005,179.109,554.984,179.974,553.966,179.956z"/>
				</g>
			</g>
		</g>
	</g>
</g>
<g id="Flag">
	<g>
		<g>
			<path style="fill:#E8505B;" d="M199.973,86.875c-10.14,1.562-17.574-6.955-19.944-14.539c-2.188-7-3.229-14.283-6.303-20.942
				c-4.296-9.306-15.677-13.606-25.891-12.746c-10.214,0.86-20.506,5.979-29.542,10.816l2.493,56.016
				c0,0,19.679-20.955,29.135-21.336c15.777-0.637,14.918,25.297,30.238,29.125c0,0,21.479,5.823,35.999-12.933
				c9.215-11.903,10.032-26.364,10.032-26.364S219.131,83.924,199.973,86.875z"/>
		</g>
		<g>
			<g>
				<path style="fill:#263238;" d="M117.879,40.17c0.138-0.006,2.898,59.478,6.163,132.845c3.266,73.393,5.801,132.874,5.662,132.88
					c-0.138,0.006-2.897-59.465-6.163-132.858C120.276,99.671,117.741,40.177,117.879,40.17z"/>
			</g>
		</g>
		<g style="opacity:0.2;">
			<g>
				<path d="M172.04,68.461c1.4,5.242,4.537,12.241,7.458,16.814c2.92,4.573,7.35,8.423,12.662,9.531
					c0.961,0.2,1.956,0.315,2.842,0.738c0.886,0.423,1.665,1.247,1.692,2.228c0.041,1.468-1.475,2.427-2.792,3.076
					c-1.873,0.923-3.776,1.856-5.828,2.24c-2.052,0.384-3.661,0.598-5.071-0.943c-1.187-1.298-2.766-2.859-3.667-4.394
					c-4.629-7.887-6.919-19.169-7.295-28.094"/>
			</g>
		</g>
		<g>
			<g>
				<path style="fill:#263238;" d="M185.752,104.433c-0.01,0.014-0.166-0.075-0.456-0.26c-0.289-0.186-0.701-0.481-1.211-0.89
					c-1.008-0.826-2.385-2.152-3.74-4.063c-1.366-1.901-2.673-4.388-3.745-7.284c-1.08-2.895-1.964-6.168-2.773-9.625
					c-1.613-6.926-2.325-13.344-2.584-17.987c-0.129-2.323-0.151-4.207-0.149-5.507c0.013-0.604,0.024-1.098,0.033-1.497
					c0.014-0.342,0.029-0.522,0.047-0.522c0.017,0,0.036,0.18,0.055,0.521c0.016,0.398,0.036,0.892,0.061,1.494
					c0.058,1.297,0.134,3.174,0.308,5.487c0.348,4.623,1.113,11.003,2.718,17.897c0.805,3.442,1.673,6.706,2.718,9.578
					c1.037,2.875,2.293,5.341,3.602,7.24c1.299,1.91,2.617,3.254,3.576,4.118C185.182,103.991,185.777,104.397,185.752,104.433z"/>
			</g>
		</g>
	</g>
</g>
<g id="Stairs">
	<g>
		<polygon style="fill:#E0E0E0;" points="56.736,317.722 190.708,339.654 190.708,317.722 		"/>
	</g>
	<g>
		<polygon style="fill:#E0E0E0;" points="212.824,367.267 346.795,389.2 346.795,367.267 		"/>
	</g>
	<g>
		<polygon style="fill:#E0E0E0;" points="367.835,414.662 501.807,436.594 501.807,414.662 		"/>
	</g>
	<g>
		<polygon style="fill:#E0E0E0;" points="522.643,452.376 656.614,474.309 656.614,452.376 		"/>
	</g>
	<g>
		<g>
			<rect x="56.736" y="301.295" style="fill:#E8505B;" width="133.971" height="16.427"/>
		</g>
		<g style="opacity:0.3;">
			<rect x="148.902" y="301.295" width="41.806" height="16.427"/>
		</g>
	</g>
	<g>
		<g>
			<rect x="212.824" y="350.84" style="fill:#E8505B;" width="133.971" height="16.427"/>
		</g>
		<g style="opacity:0.3;">
			<rect x="304.989" y="350.84" width="41.806" height="16.427"/>
		</g>
	</g>
	<g>
		<g>
			<rect x="367.835" y="398.234" style="fill:#E8505B;" width="133.971" height="16.427"/>
		</g>
		<g style="opacity:0.3;">
			<rect x="460.001" y="398.234" width="41.806" height="16.427"/>
		</g>
	</g>
	<g>
		<g>
			<rect x="522.847" y="435.949" style="fill:#E8505B;" width="133.971" height="16.427"/>
		</g>
		<g style="opacity:0.3;">
			<rect x="615.013" y="435.949" width="41.806" height="16.427"/>
		</g>
	</g>
	<g>
		<g>
			<path style="fill:#EBEBEB;" d="M574.256,376.157c0,2.012,1.631,3.643,3.643,3.643c2.012,0,3.643-1.631,3.643-3.643
				c0-2.012-1.631-3.643-3.643-3.643C575.887,372.513,574.256,374.145,574.256,376.157z"/>
		</g>
	</g>
</g>
</svg>
