<?xml version="1.0" encoding="utf-8"?>
<!-- Generator: Adobe Illustrator 27.5.0, SVG Export Plug-In . SVG Version: 6.00 Build 0)  -->
<svg version="1.1" xmlns="http://www.w3.org/2000/svg" xmlns:xlink="http://www.w3.org/1999/xlink" x="0px" y="0px"
	 viewBox="0 0 500 500" style="enable-background:new 0 0 500 500;" xml:space="preserve">
<g id="BACKGROUND">
</g>
<g id="OBJECTS">
	<g>
		<g>
			<path style="fill:#FFC35E;" d="M98.171,120.108c11.479-14.776,31.712-25.82,54.45-29.722c22.738-3.902,47.64-0.602,67.014,8.88
				c23.761,11.629,39.26,31.83,65.915,39.466c20.74,5.942,43.974,3.019,66.134,1.234c22.16-1.785,46.74-1.836,64.051,8.366
				c23.31,13.738,23.107,39.144,20.835,60.881H98.351L98.171,120.108z"/>
		</g>
		<g>
			<path style="fill:#FFC35E;" d="M91.373,309.718c-14.576,23.163-18.189,54.123-5.033,78.121
				c13.156,23.998,44.595,37.753,69.836,27.175c14.026-5.878,25.057-18.107,39.753-22.02c19.741-5.256,41.289,5.757,60.821-0.229
				c13.477-4.13,23.65-16.109,27.966-29.527c4.316-13.418,3.369-28.069-0.097-41.731L91.373,309.718z"/>
		</g>
		
			<ellipse transform="matrix(0.1598 -0.9872 0.9872 0.1598 -228.9719 538.7891)" style="fill:#FFC35E;" cx="202.023" cy="403.903" rx="7.821" ry="7.821"/>
		
			<ellipse transform="matrix(0.7071 -0.7071 0.7071 0.7071 10.5118 278.5975)" style="fill:#FFC35E;" cx="341.553" cy="126.61" rx="7.821" ry="7.821"/>
		<path style="fill:#FFC35E;" d="M185.884,401.643c2.253,0.685,3.524,3.066,2.839,5.319c-0.685,2.253-3.066,3.524-5.319,2.839
			c-2.253-0.685-3.524-3.066-2.839-5.319C181.249,402.229,183.631,400.958,185.884,401.643z"/>
		<path style="fill:#FFC35E;" d="M357.565,125.138c2.253,0.685,3.524,3.066,2.839,5.319c-0.685,2.253-3.066,3.524-5.319,2.839
			c-2.253-0.685-3.524-3.066-2.839-5.319C352.931,125.724,355.312,124.453,357.565,125.138z"/>
		<path style="fill:#FFC35E;" d="M109.655,93.589c2.253,0.685,3.524,3.066,2.839,5.319c-0.685,2.253-3.066,3.524-5.319,2.839
			c-2.253-0.685-3.524-3.066-2.839-5.319C105.021,94.175,107.402,92.904,109.655,93.589z"/>
	</g>
	<g>
		<g>
			<g>
				<path style="fill:#60C798;" d="M336.02,340.869c-7.79-5.557-12.251-15.456-11.253-24.973
					c0.997-9.516,7.414-18.276,16.186-22.097c5.585-2.433,12.39-3.275,16.064-8.134c2.438-3.225,2.865-7.485,3.347-11.498
					c1.716-14.286,6.809-30.309,20.063-35.908c4.3-1.816,9.065-2.311,13.368-4.118c8.788-3.69,14.462-12.271,18.665-20.826
					c4.203-8.554,7.603-17.747,14.046-24.771s17.126-11.346,25.671-7.123c11.543,5.707,11.924,22.442,6.868,34.285
					c-5.056,11.843-13.827,22.436-15.311,35.227c-1.26,10.858,2.986,21.8,1.695,32.654c-1.235,10.384-7.856,19.979-17.128,24.817
					c-4.955,2.586-10.843,4.087-14.227,8.536c-3.35,4.405-3.262,10.404-3.949,15.896c-1.781,14.255-10.592,28.002-23.869,33.486
					c-13.278,5.484-30.581,0.993-37.787-11.435L336.02,340.869z"/>
			</g>
			<path style="opacity:0.7;fill:#2B1F5D;" d="M398.517,323.526l-28.306-0.927c24.631-28.964,59.82-75.266,69.199-113.047
				c0.066-0.269-0.097-0.539-0.365-0.606c-0.236-0.053-0.539,0.097-0.606,0.365c-6.441,25.951-25.147,55.973-44.196,81.582
				l7.482-40.107c0.05-0.267-0.123-0.524-0.388-0.581c-0.004-0.001-0.008-0.002-0.012-0.003c-0.271-0.051-0.533,0.128-0.583,0.4
				l-7.688,41.213c-0.033,0.175,0.037,0.341,0.159,0.454c-8.408,11.227-16.84,21.567-24.274,30.288l-0.206-0.007
				c-0.276-0.009-0.507,0.208-0.516,0.483c-0.003,0.102,0.03,0.195,0.079,0.275c-13.537,15.831-23.614,26.149-23.895,26.434
				c-0.193,0.197-0.191,0.513,0.006,0.707c0.07,0.069,0.156,0.113,0.247,0.132c0.161,0.034,0.336-0.012,0.461-0.139
				c0.284-0.289,10.539-10.787,24.269-26.872l29.102,0.953c0.276,0.009,0.507-0.208,0.516-0.483
				C399.009,323.766,398.786,323.536,398.517,323.526z"/>
		</g>
		<g>
			<g>
				<path style="fill:#60C798;" d="M142.233,238.155c-7.681,4.171-17.596,3.87-25.01-0.76s-12.037-13.405-11.662-22.138
					c0.239-5.56,2.272-11.484-0.247-16.447c-1.671-3.293-4.998-5.349-8.101-7.352c-11.042-7.13-22.16-17.727-21.449-30.851
					c0.231-4.257,1.732-8.368,1.972-12.625c0.489-8.693-4.285-16.788-9.626-23.664c-5.341-6.876-11.527-13.349-14.715-21.451
					c-3.188-8.102-2.458-18.605,4.431-23.929c9.307-7.193,23.201-0.805,30.9,8.088c7.699,8.893,12.885,20.336,22.793,26.676
					c8.41,5.382,19.095,6.277,27.49,11.683c8.032,5.172,13.258,14.45,13.519,24c0.139,5.104-0.986,10.539,1.312,15.099
					c2.275,4.515,7.236,6.845,11.47,9.607c10.991,7.17,18.751,19.909,17.937,33.006c-0.814,13.098-11.43,25.507-24.519,26.447
					L142.233,238.155z"/>
			</g>
			<path style="opacity:0.7;fill:#2B1F5D;" d="M156.869,227.392c-3.24-12.212-10.097-26.756-18.453-41.576
				c0.152-0.063,0.266-0.206,0.281-0.381l1.914-22.014c0.022-0.252-0.164-0.473-0.415-0.495c-0.242-0.025-0.473,0.164-0.495,0.415
				l-1.865,21.451c-5.121-9.016-10.777-18.113-16.498-26.837c0.085-0.088,0.138-0.207,0.131-0.339
				c-0.012-0.252-0.241-0.459-0.478-0.434l-0.155,0.007c-20.3-30.858-41.213-56.811-41.582-57.267
				c-0.158-0.196-0.446-0.227-0.642-0.068c-0.196,0.159-0.227,0.447-0.068,0.642c0.367,0.453,21.063,26.135,41.237,56.743
				l-18.89,0.9c-0.252,0.012-0.446,0.226-0.434,0.478c0.012,0.244,0.214,0.435,0.456,0.435c0.008,0,0.015,0,0.022,0l19.428-0.925
				c15.38,23.419,30.34,49.588,35.623,69.501c0.054,0.204,0.239,0.339,0.441,0.339c0.039,0,0.078-0.005,0.118-0.015
				C156.788,227.886,156.933,227.636,156.869,227.392z"/>
		</g>
		<path style="fill:#C4C6FF;" d="M82.824,189.82c5.339-5.475,23.473-24.998,12.547-26.924
			c-10.368-1.827-13.106,18.146-13.765,25.601c-4.2-4.673-8.634-10.778-12.1-18.374c4.941-5.036,23.958-25.252,12.83-27.213
			c-10.171-1.792-12.998,17.387-13.723,25.155c-1.749-4.187-3.197-8.791-4.151-13.832c-0.486-2.57-0.968-4.954-1.447-7.174
			c5.546-5.708,23.18-24.837,12.37-26.742c-9.049-1.595-12.284,13.414-13.399,22.216c-3.415-14.276-6.744-20.706-10.505-26.149
			c-2.855-10.131-8.496-25.896-14.561-19.224c-7.493,8.242,10.2,22.29,15.219,26.005c1.768,3.301,3.443,7.36,5.125,13.144
			c-6.282-8.085-18.895-22.624-22.083-13.576c-3.539,10.043,16.19,16.031,23.238,17.828c1.014,3.975,2.039,8.641,3.096,14.23
			c0.221,1.17,0.473,2.311,0.742,3.436c-5.571-8.486-17.222-24.384-21.143-15.518c-4.414,9.981,15.882,17.615,22.289,19.744
			c2.509,8.309,6.207,15.252,10.17,20.902c-8.226-6.48-22.651-16.418-23.61-7.268c-1.133,10.802,20.313,11.881,27.172,11.951
			c7.941,9.633,15.796,14.349,16.378,14.691l1.519-2.587C94.914,200.072,89.302,196.691,82.824,189.82z"/>
		<path style="fill:#C4C6FF;" d="M396.743,372.924c7.187,2.611,32.445,11.1,29.702,0.35c-2.603-10.201-21.933-4.473-28.998-2.004
			c2.53-5.751,6.267-12.306,11.763-18.591c6.624,2.43,32.876,11.437,30.082,0.489c-2.554-10.007-21.197-4.687-28.574-2.15
			c3.096-3.318,6.695-6.533,10.897-9.478c2.142-1.501,4.116-2.922,5.941-4.272c7.485,2.704,32.178,10.899,29.464,0.264
			c-2.272-8.903-17.282-5.673-25.763-3.065c11.604-8.989,16.094-14.67,19.506-20.339c8.058-6.773,20.102-18.404,11.525-21.184
			c-10.596-3.435-16.114,18.472-17.433,24.575c-2.28,2.971-5.289,6.168-9.868,10.082c4.781-9.054,12.839-26.533,3.281-25.714
			c-10.609,0.91-7.944,21.355-6.68,28.517c-3.205,2.56-7.035,5.415-11.694,8.68c-0.975,0.684-1.911,1.383-2.826,2.09
			c5.44-8.57,15.131-25.734,5.437-25.657c-10.913,0.087-9.514,21.726-8.817,28.441c-6.539,5.707-11.344,11.936-14.862,17.874
			c2.518-10.164,5.637-27.401-3.097-24.508c-10.311,3.415-2.465,23.403,0.295,29.683c-5.51,11.203-6.573,20.303-6.645,20.974
			l2.983,0.319C392.376,388.163,393.147,381.657,396.743,372.924z"/>
	</g>
	<g>
		<g>
			<path style="fill:#FF5D7A;" d="M182.633,124.339c9.447,18.747,6.104,39.487-7.465,46.324
				c-13.569,6.837-32.227-2.817-41.673-21.564c-9.446-18.747,7.465-46.324,7.465-46.324S173.186,105.592,182.633,124.339z"/>
			<path style="opacity:0.38;fill:#2B1F5D;" d="M141.512,102.832c6.559,12.014,12.799,24.204,19.572,36.091
				c5.736,10.068,11.731,20.288,14.511,31.507c13.206-7.057,16.384-27.545,7.038-46.09
				C173.916,107.04,145.802,103.305,141.512,102.832z"/>
			<path style="opacity:0.55;fill:#2B1F5D;" d="M186.275,132.477c-0.15-0.119-0.369-0.094-0.486,0.054l-17.216,21.497
				c-3.058-6.292-6.779-13.508-10.481-20.51l11.693-22.253c0.089-0.169,0.024-0.378-0.145-0.466
				c-0.169-0.089-0.378-0.024-0.467,0.145l-11.464,21.819l-0.018-0.004c-8-15.104-15.786-29.006-16.43-30.153
				c-0.094-0.166-0.289-0.238-0.47-0.132c-0.166,0.093-0.225,0.304-0.132,0.47c0.158,0.282,7.987,14.259,16.124,29.611
				l-24.412-5.482c-0.185-0.043-0.37,0.075-0.413,0.261c-0.042,0.186,0.076,0.371,0.261,0.413l24.99,5.612
				c3.748,7.083,7.532,14.41,10.639,20.784l-30.934-0.219c-0.191-0.002-0.347,0.152-0.348,0.343
				c-0.001,0.191,0.153,0.346,0.343,0.348l31.276,0.222c3.486,7.19,6.058,13.084,6.646,15.898c0.039,0.187,0.223,0.306,0.409,0.267
				c0.03-0.006,0.059-0.016,0.085-0.029c0.137-0.069,0.216-0.223,0.183-0.379c-0.599-2.862-3.145-8.732-6.6-15.876l17.422-21.754
				C186.448,132.814,186.424,132.597,186.275,132.477z"/>
		</g>
		<g>
			<path style="fill:#FF5D7A;" d="M439.631,306.986c-6.858,12.496-19.231,18.888-27.634,14.276
				c-8.404-4.612-9.657-18.481-2.798-30.978c6.858-12.496,27.634-14.276,27.634-14.276S446.49,294.49,439.631,306.986z"/>
			<path style="opacity:0.38;fill:#2B1F5D;" d="M436.994,276.328c-4.22,8.281-8.646,16.459-12.723,24.804
				c-3.453,7.069-6.899,14.337-12,20.266c8.397,4.33,20.575-2.051,27.36-14.413C445.96,295.455,438.226,278.828,436.994,276.328z"/>
			<path style="opacity:0.55;fill:#2B1F5D;" d="M436.495,312.164c0.012-0.128-0.077-0.236-0.198-0.241l-17.595-0.787
				c2.341-4.134,4.951-8.989,7.453-13.75l16.087-2.488c0.122-0.019,0.212-0.137,0.202-0.262c-0.01-0.126-0.118-0.213-0.241-0.194
				l-15.773,2.44l-0.004-0.011c5.391-10.278,10.205-19.966,10.602-20.765c0.057-0.116,0.028-0.25-0.091-0.306
				c-0.108-0.053-0.242-0.002-0.3,0.114c-0.097,0.196-4.938,9.937-10.415,20.387l-5.505-15.322c-0.041-0.117-0.169-0.17-0.285-0.119
				c-0.115,0.051-0.174,0.187-0.132,0.304l5.635,15.685c-2.529,4.818-5.177,9.751-7.546,13.944l-10.612-16.758
				c-0.065-0.104-0.203-0.127-0.306-0.052c-0.104,0.075-0.134,0.219-0.069,0.322l10.73,16.944c-2.678,4.719-4.973,8.433-6.289,9.861
				c-0.088,0.095-0.089,0.241-0.003,0.326c0.014,0.014,0.029,0.025,0.045,0.034c0.085,0.047,0.195,0.028,0.269-0.051
				c1.34-1.453,3.63-5.145,6.294-9.828l17.805,0.797C436.373,312.39,436.482,312.291,436.495,312.164z"/>
		</g>
		<g>
			<path style="fill:#FF5D7A;" d="M280.328,373.27c16.388-13.119,37.371-14.138,46.867-2.276
				c9.496,11.862,3.908,32.113-12.48,45.232c-16.388,13.119-46.867,2.276-46.867,2.276S263.94,386.389,280.328,373.27z"/>
			<path style="opacity:0.38;fill:#2B1F5D;" d="M267.789,417.949c10.398-8.902,21.034-17.528,31.263-26.612
				c8.664-7.694,17.423-15.673,27.825-20.713c-9.636-11.461-30.337-10.333-46.55,2.645
				C265.205,385.376,267.366,413.654,267.789,417.949z"/>
			<path style="opacity:0.55;fill:#2B1F5D;" d="M287.537,368.023c-0.085,0.171-0.016,0.381,0.153,0.464l24.593,12.399
				c-5.524,4.293-11.814,9.426-17.899,14.496l-24.19-6.838c-0.183-0.052-0.374,0.055-0.426,0.238
				c-0.052,0.184,0.055,0.375,0.239,0.427l23.718,6.704l0,0.019c-13.124,10.95-25.114,21.443-26.103,22.31
				c-0.143,0.126-0.173,0.332-0.032,0.488c0.125,0.143,0.344,0.158,0.487,0.032c0.243-0.213,12.299-10.763,25.636-21.899
				l-0.315,25.018c-0.003,0.19,0.15,0.347,0.341,0.35c0.191,0.002,0.347-0.151,0.35-0.341l0.323-25.61
				c6.155-5.132,12.54-10.349,18.135-14.707l6.182,30.31c0.037,0.187,0.22,0.308,0.408,0.27c0.187-0.038,0.307-0.221,0.269-0.408
				l-6.251-30.646c6.313-4.898,11.549-8.632,14.179-9.79c0.175-0.077,0.254-0.281,0.177-0.455c-0.012-0.028-0.028-0.054-0.046-0.077
				c-0.096-0.12-0.263-0.165-0.409-0.1c-2.677,1.178-7.893,4.883-14.168,9.74l-24.887-12.547
				C287.831,367.784,287.623,367.853,287.537,368.023z"/>
		</g>
	</g>
	<g>
		<path style="fill:#2B1F5D;" d="M414.873,165.921v210.29c0,5.138-4.204,9.341-9.341,9.341H98.228c-5.138,0-9.341-4.204-9.341-9.341
			v-210.29c0-5.138,4.204-9.342,9.341-9.342h307.303C410.669,156.58,414.873,160.783,414.873,165.921z"/>
		<path style="fill:#C4C6FF;" d="M404.201,172.805v196.521c0,4.801-3.928,8.73-8.73,8.73H108.288c-4.801,0-8.73-3.928-8.73-8.73
			V172.805c0-4.801,3.928-8.73,8.73-8.73h287.183C400.273,164.076,404.201,168.004,404.201,172.805z"/>
		<g>
			<rect x="99.033" y="178.606" style="fill:#4E67C3;" width="79.353" height="85.375"/>
			<rect x="192.892" y="226.388" style="fill:#4E67C3;" width="79.353" height="85.375"/>
			<rect x="192.892" y="178.606" style="fill:#4E67C3;" width="79.353" height="38.446"/>
			<rect x="192.892" y="321.1" style="fill:#4E67C3;" width="79.353" height="38.446"/>
			<rect x="99.033" y="277.535" style="fill:#4E67C3;" width="79.353" height="81.962"/>
			<path style="fill:#4E67C3;" d="M283.337,303.133c-0.295,0-0.578-0.018-0.853-0.048v55.559H404.5v-55.511H283.337z"/>
			<path style="fill:#4E67C3;" d="M283.337,289.578H404.5V179.41H282.484v110.217C282.759,289.597,283.042,289.578,283.337,289.578z
				"/>
		</g>
		<g>
			<g>
				<path style="fill:#FFC35E;" d="M120.63,226.305l-5.186-5.741l-5.186,5.741h-0.09v0.1l-0.055,0.061h0.055v8.783h8.481h1.388
					h8.481v-8.944H120.63z M114.702,232.718h-2.12v-2.12h2.12V232.718z M114.702,229.975h-2.12v-2.12h2.12V229.975z M117.57,232.718
					h-2.12v-2.12h2.12V232.718z M117.57,229.975h-2.12v-2.12h2.12V229.975z"/>
				<path style="fill:#FFFFFF;" d="M154.802,248.722h-43.079c-2.995,0-5.446-2.451-5.446-5.446l0,0c0-2.995,2.451-5.446,5.446-5.446
					h43.079c2.995,0,5.446,2.451,5.446,5.446l0,0C160.248,246.271,157.797,248.722,154.802,248.722z"/>
				<polygon style="fill:#FFC35E;" points="114.051,240.103 115.113,242.255 117.488,242.6 115.769,244.275 116.175,246.641 
					114.051,245.524 111.927,246.641 112.332,244.275 110.614,242.6 112.989,242.255 				"/>
				<polygon style="fill:#FFC35E;" points="123.827,240.103 124.889,242.255 127.264,242.6 125.545,244.275 125.951,246.641 
					123.827,245.524 121.703,246.641 122.108,244.275 120.39,242.6 122.765,242.255 				"/>
				<polygon style="fill:#FFC35E;" points="133.603,240.103 134.665,242.255 137.04,242.6 135.321,244.275 135.727,246.641 
					133.603,245.524 131.479,246.641 131.884,244.275 130.166,242.6 132.541,242.255 				"/>
				<polygon style="fill:#4E67C3;" points="143.379,240.103 144.441,242.255 146.816,242.6 145.097,244.275 145.503,246.641 
					143.379,245.524 141.255,246.641 141.66,244.275 139.942,242.6 142.317,242.255 				"/>
				<polygon style="fill:#4E67C3;" points="153.155,240.103 154.217,242.255 156.592,242.6 154.873,244.275 155.279,246.641 
					153.155,245.524 151.031,246.641 151.436,244.275 149.718,242.6 152.093,242.255 				"/>
			</g>
			<g>
				<path style="fill:#FFC35E;" d="M118.082,326.168l-5.186-5.741l-5.186,5.741h-0.09v0.1l-0.055,0.061h0.055v8.783h8.481h1.388
					h8.481v-8.944H118.082z M112.154,332.581h-2.12v-2.12h2.12V332.581z M112.154,329.838h-2.12v-2.12h2.12V329.838z
					 M115.022,332.581h-2.12v-2.12h2.12V332.581z M115.022,329.838h-2.12v-2.12h2.12V329.838z"/>
				<path style="fill:#FFFFFF;" d="M152.254,348.584h-43.079c-2.995,0-5.446-2.451-5.446-5.446l0,0c0-2.995,2.451-5.446,5.446-5.446
					h43.079c2.995,0,5.446,2.451,5.446,5.446l0,0C157.7,346.134,155.249,348.584,152.254,348.584z"/>
				<polygon style="fill:#FFC35E;" points="111.503,339.966 112.565,342.118 114.94,342.463 113.221,344.138 113.627,346.503 
					111.503,345.387 109.379,346.503 109.785,344.138 108.066,342.463 110.441,342.118 				"/>
				<polygon style="fill:#FFC35E;" points="121.279,339.966 122.341,342.118 124.716,342.463 122.997,344.138 123.403,346.503 
					121.279,345.387 119.155,346.503 119.56,344.138 117.842,342.463 120.217,342.118 				"/>
				<polygon style="fill:#FFC35E;" points="131.055,339.966 132.117,342.118 134.492,342.463 132.773,344.138 133.179,346.503 
					131.055,345.387 128.931,346.503 129.337,344.138 127.618,342.463 129.993,342.118 				"/>
				<polygon style="fill:#FFC35E;" points="140.831,339.966 141.893,342.118 144.268,342.463 142.549,344.138 142.955,346.503 
					140.831,345.387 138.707,346.503 139.112,344.138 137.394,342.463 139.769,342.118 				"/>
				<polygon style="fill:#4E67C3;" points="150.607,339.966 151.669,342.118 154.044,342.463 152.325,344.138 152.731,346.503 
					150.607,345.387 148.483,346.503 148.888,344.138 147.17,342.463 149.545,342.118 				"/>
			</g>
			<path style="fill:#FFC35E;" d="M375.253,265.237l-5.186-5.741l-5.186,5.741h-0.09v0.1l-0.055,0.061h0.055v8.783h8.481h1.388
				h8.481v-8.944H375.253z M369.326,271.65h-2.12v-2.12h2.12V271.65z M369.326,268.906h-2.12v-2.12h2.12V268.906z M372.194,271.65
				h-2.12v-2.12h2.12V271.65z M372.194,268.906h-2.12v-2.12h2.12V268.906z"/>
			<g>
				<path style="fill:#FFC35E;" d="M221.338,327.296l-5.186-5.741l-5.186,5.741h-0.09v0.099l-0.055,0.061h0.055v8.783h8.481h1.388
					h8.481v-8.944H221.338z M215.41,333.708h-2.12v-2.12h2.12V333.708z M215.41,330.965h-2.12v-2.12h2.12V330.965z M218.278,333.708
					h-2.12v-2.12h2.12V333.708z M218.278,330.965h-2.12v-2.12h2.12V330.965z"/>
				<path style="fill:#FFFFFF;" d="M255.51,349.712h-43.079c-2.995,0-5.446-2.451-5.446-5.446l0,0c0-2.995,2.451-5.446,5.446-5.446
					h43.079c2.996,0,5.446,2.451,5.446,5.446l0,0C260.956,347.261,258.505,349.712,255.51,349.712z"/>
				<polygon style="fill:#FFC35E;" points="214.759,341.093 215.821,343.245 218.196,343.591 216.477,345.266 216.883,347.631 
					214.759,346.514 212.635,347.631 213.041,345.266 211.322,343.591 213.697,343.245 				"/>
				<polygon style="fill:#FFC35E;" points="224.535,341.093 225.597,343.245 227.972,343.591 226.253,345.266 226.659,347.631 
					224.535,346.514 222.411,347.631 222.817,345.266 221.098,343.591 223.473,343.245 				"/>
				<polygon style="fill:#FFC35E;" points="234.311,341.093 235.373,343.245 237.748,343.591 236.029,345.266 236.435,347.631 
					234.311,346.514 232.187,347.631 232.593,345.266 230.874,343.591 233.249,343.245 				"/>
				<polygon style="fill:#FFC35E;" points="244.087,341.093 245.149,343.245 247.524,343.591 245.805,345.266 246.211,347.631 
					244.087,346.514 241.963,347.631 242.369,345.266 240.65,343.591 243.025,343.245 				"/>
				<polygon style="fill:#4E67C3;" points="253.863,341.093 254.925,343.245 257.3,343.591 255.581,345.266 255.987,347.631 
					253.863,346.514 251.739,347.631 252.145,345.266 250.426,343.591 252.801,343.245 				"/>
			</g>
		</g>
		<g>
			<g style="opacity:0.52;">
				<path style="fill:#2B1F5D;" d="M347.972,268.962v-82.486c0-3.327-2.722-6.049-6.049-6.049H211.222
					c-3.327,0-6.049,2.722-6.049,6.049v83.101c0,3.327,2.722,6.049,6.049,6.049h130.701l14.617,1.904L347.972,268.962z"/>
				<rect x="291.804" y="186.511" style="fill:#2B1F5D;" width="52.359" height="18.088"/>
				<path style="fill:#2B1F5D;" d="M283.375,270.39h-66.917c-3.327,0-6.049-2.722-6.049-6.049v-73.105
					c0-3.327,2.722-6.049,6.049-6.049h66.917c3.327,0,6.049,2.722,6.049,6.049v73.105
					C289.424,267.668,286.702,270.39,283.375,270.39z"/>
				<path style="opacity:0.41;fill:#2B1F5D;" d="M210.655,254.265c-0.085,0-0.164-0.008-0.246-0.012v10.088
					c0,3.327,2.722,6.049,6.049,6.049h66.917c3.327,0,6.049-2.722,6.049-6.049v-10.076H210.655z"/>
				<rect x="226.658" y="207.292" style="fill:#2B1F5D;" width="6.866" height="16.205"/>
				<polygon style="fill:#2B1F5D;" points="238.566,222.107 261.582,198.425 284.598,222.107 				"/>
				<polygon style="fill:#2B1F5D;" points="279.221,222.123 261.582,203.974 243.943,222.123 245.24,222.123 245.24,256.07 
					277.924,256.07 277.924,222.123 				"/>
				<rect x="245.24" y="229.523" style="opacity:0.45;fill:#2B1F5D;" width="14.393" height="26.546"/>
				<polygon style="fill:#2B1F5D;" points="217.417,230.072 240.433,206.39 263.449,230.072 				"/>
				<rect x="224.091" y="228.95" style="fill:#2B1F5D;" width="32.685" height="27.231"/>
				<polygon style="fill:#2B1F5D;" points="222.794,230.089 240.433,211.939 258.072,230.089 				"/>
				<rect x="235.382" y="238.054" style="fill:#2B1F5D;" width="10.712" height="18.128"/>
				<rect x="236.533" y="239.528" style="fill:#2B1F5D;" width="3.933" height="3.277"/>
				<rect x="240.975" y="239.528" style="fill:#2B1F5D;" width="3.933" height="3.277"/>
				<rect x="236.533" y="243.169" style="fill:#2B1F5D;" width="3.933" height="3.277"/>
				<rect x="240.975" y="243.169" style="fill:#2B1F5D;" width="3.933" height="3.277"/>
				<rect x="232.894" y="223.083" style="fill:#2B1F5D;" width="13.098" height="9.824"/>
				<rect x="233.767" y="224.051" style="fill:#2B1F5D;" width="11.352" height="7.888"/>
				<rect x="239.185" y="223.255" style="fill:#2B1F5D;" width="0.517" height="8.617"/>
				<rect x="260.323" y="233.445" style="fill:#2B1F5D;" width="13.098" height="19.81"/>
				<rect x="261.196" y="235.397" style="fill:#2B1F5D;" width="11.352" height="15.905"/>
				<rect x="266.613" y="233.792" style="fill:#2B1F5D;" width="0.517" height="17.377"/>
				<rect x="256.462" y="212.721" style="fill:#2B1F5D;" width="9.848" height="7.386"/>
				<rect x="257.119" y="213.449" style="fill:#2B1F5D;" width="8.535" height="5.93"/>
				<rect x="261.192" y="212.851" style="fill:#2B1F5D;" width="0.389" height="6.479"/>
				<path style="fill:#2B1F5D;" d="M279.803,256.559c0.96-1.84,0.667-4.164-0.878-5.709c-1.149-1.149-2.728-1.601-4.22-1.365
					c-1.221-1.946-3.385-3.24-5.852-3.24c-2.661,0-4.969,1.506-6.122,3.711c-1.835-0.939-4.139-0.642-5.675,0.894
					c-0.232,0.232-0.436,0.483-0.611,0.747c-1.126-0.085-2.265,0.407-2.957,1.4c-0.761,1.094-0.764,2.486-0.126,3.562H279.803z"/>
				<path style="fill:#2B1F5D;" d="M227.69,256.254c0.449-0.861,0.312-1.949-0.411-2.673c-0.538-0.538-1.277-0.749-1.975-0.639
					c-0.572-0.911-1.585-1.517-2.739-1.517c-1.246,0-2.326,0.705-2.866,1.737c-0.859-0.439-1.937-0.301-2.657,0.418
					c-0.109,0.109-0.204,0.226-0.286,0.35c-0.527-0.04-1.061,0.19-1.384,0.656c-0.356,0.512-0.358,1.164-0.059,1.667H227.69z"/>
				<path style="fill:#2B1F5D;" d="M270.142,220.353c0.332-0.638,0.231-1.443-0.304-1.978c-0.398-0.398-0.945-0.555-1.462-0.473
					c-0.423-0.674-1.173-1.123-2.027-1.123c-0.922,0-1.721,0.522-2.121,1.286c-0.636-0.325-1.434-0.223-1.966,0.31
					c-0.081,0.081-0.151,0.167-0.212,0.259c-0.39-0.03-0.785,0.141-1.024,0.485c-0.264,0.379-0.265,0.861-0.044,1.234H270.142z"/>
				<rect x="256.462" y="220.107" style="fill:#2B1F5D;" width="14.046" height="2.367"/>
				<path style="opacity:0.53;fill:#2B1F5D;" d="M281.234,195.277c0.564-1.081,0.392-2.446-0.516-3.354
					c-0.675-0.675-1.603-0.94-2.479-0.802c-0.718-1.143-1.989-1.904-3.438-1.904c-1.563,0-2.919,0.885-3.597,2.18
					c-1.078-0.551-2.432-0.377-3.334,0.525c-0.137,0.137-0.256,0.284-0.359,0.439c-0.661-0.05-1.331,0.239-1.737,0.823
					c-0.447,0.643-0.449,1.461-0.074,2.093H281.234z"/>
				<path style="opacity:0.53;fill:#2B1F5D;" d="M227.901,198.795c0.334-0.64,0.232-1.448-0.305-1.986
					c-0.4-0.4-0.949-0.557-1.468-0.475c-0.425-0.677-1.177-1.127-2.035-1.127c-0.926,0-1.728,0.524-2.13,1.291
					c-0.638-0.327-1.44-0.223-1.974,0.311c-0.081,0.081-0.152,0.168-0.213,0.26c-0.391-0.03-0.788,0.141-1.029,0.487
					c-0.265,0.38-0.266,0.865-0.044,1.239H227.901z"/>
				<path style="fill:#2B1F5D;" d="M300.796,252.069l-2.893-3.203l-2.893,3.203h-0.05v0.055l-0.031,0.034h0.031v4.9h4.731h0.774
					h4.731v-4.989H300.796z M297.49,255.647h-1.182v-1.182h1.182V255.647z M297.49,254.116h-1.182v-1.182h1.182V254.116z
					 M299.089,255.647h-1.182v-1.182h1.182V255.647z M299.089,254.116h-1.182v-1.182h1.182V254.116z"/>
				<path style="fill:none;stroke:#2B1F5D;stroke-miterlimit:10;" d="M318.63,213.759h-24.032c-1.671,0-3.038-1.367-3.038-3.038l0,0
					c0-1.671,1.367-3.038,3.038-3.038h24.032c1.671,0,3.038,1.367,3.038,3.038l0,0C321.669,212.392,320.301,213.759,318.63,213.759z
					"/>
				<polygon style="fill:#2B1F5D;" points="295.897,208.951 296.49,210.152 297.815,210.344 296.856,211.279 297.082,212.598 
					295.897,211.975 294.712,212.598 294.939,211.279 293.98,210.344 295.305,210.152 				"/>
				<polygon style="fill:#2B1F5D;" points="301.351,208.951 301.943,210.152 303.268,210.344 302.31,211.279 302.536,212.598 
					301.351,211.975 300.166,212.598 300.392,211.279 299.434,210.344 300.758,210.152 				"/>
				<polygon style="fill:#2B1F5D;" points="306.805,208.951 307.397,210.152 308.722,210.344 307.763,211.279 307.99,212.598 
					306.805,211.975 305.62,212.598 305.846,211.279 304.887,210.344 306.212,210.152 				"/>
				<polygon style="fill:#2B1F5D;" points="312.258,208.951 312.851,210.152 314.175,210.344 313.217,211.279 313.443,212.598 
					312.258,211.975 311.073,212.598 311.299,211.279 310.341,210.344 311.666,210.152 				"/>
				<polygon style="fill:#2B1F5D;" points="317.712,208.951 318.304,210.152 319.629,210.344 318.67,211.279 318.897,212.598 
					317.712,211.975 316.527,212.598 316.753,211.279 315.794,210.344 317.119,210.152 				"/>
				<path style="fill:#2B1F5D;" d="M342.432,220.379h-48.063c-0.436,0-0.792-0.356-0.792-0.792l0,0c0-0.436,0.357-0.792,0.792-0.792
					h48.063c0.436,0,0.792,0.357,0.792,0.792l0,0C343.224,220.023,342.868,220.379,342.432,220.379z"/>
				<path style="fill:#2B1F5D;" d="M342.432,225.133h-48.063c-0.436,0-0.792-0.357-0.792-0.792l0,0c0-0.436,0.357-0.792,0.792-0.792
					h48.063c0.436,0,0.792,0.357,0.792,0.792l0,0C343.224,224.776,342.868,225.133,342.432,225.133z"/>
				<path style="fill:#2B1F5D;" d="M342.432,229.886h-48.063c-0.436,0-0.792-0.356-0.792-0.792l0,0c0-0.436,0.357-0.792,0.792-0.792
					h48.063c0.436,0,0.792,0.357,0.792,0.792l0,0C343.224,229.53,342.868,229.886,342.432,229.886z"/>
				<path style="fill:#2B1F5D;" d="M342.432,234.64h-48.063c-0.436,0-0.792-0.357-0.792-0.792l0,0c0-0.436,0.357-0.792,0.792-0.792
					h48.063c0.436,0,0.792,0.356,0.792,0.792l0,0C343.224,234.283,342.868,234.64,342.432,234.64z"/>
				<path style="fill:#2B1F5D;" d="M342.432,239.393h-48.063c-0.436,0-0.792-0.356-0.792-0.792l0,0c0-0.436,0.357-0.792,0.792-0.792
					h48.063c0.436,0,0.792,0.356,0.792,0.792l0,0C343.224,239.037,342.868,239.393,342.432,239.393z"/>
				<path style="fill:#2B1F5D;" d="M342.432,244.147h-48.063c-0.436,0-0.792-0.357-0.792-0.792l0,0c0-0.436,0.357-0.792,0.792-0.792
					h48.063c0.436,0,0.792,0.356,0.792,0.792l0,0C343.224,243.79,342.868,244.147,342.432,244.147z"/>
				
					<text transform="matrix(1 0 0 1 296.9911 204.8421)" style="fill:#2B1F5D; font-family:'Inter-SemiBoldItalic'; font-size:17.008px;">SALE</text>
				
					<text transform="matrix(1 0 0 1 295.9911 201.8421)" style="fill:#2B1F5D; font-family:'Inter-SemiBoldItalic'; font-size:17.008px;">SALE</text>
			</g>
			<g>
				<g>
					<path style="fill:#FFFFFF;" d="M351.972,264.962v-82.486c0-3.327-2.722-6.049-6.049-6.049H215.222
						c-3.327,0-6.049,2.722-6.049,6.049v83.101c0,3.327,2.722,6.049,6.049,6.049h130.701l14.617,1.904L351.972,264.962z"/>
					<rect x="295.804" y="182.511" style="fill:#60C798;" width="52.359" height="18.088"/>
					<g>
						<path style="fill:#C4C6FF;" d="M287.375,266.39h-66.917c-3.327,0-6.049-2.722-6.049-6.049v-73.105
							c0-3.327,2.722-6.049,6.049-6.049h66.917c3.327,0,6.049,2.722,6.049,6.049v73.105
							C293.424,263.668,290.702,266.39,287.375,266.39z"/>
						<path style="opacity:0.41;fill:#4E67C3;" d="M214.655,250.265c-0.085,0-0.164-0.008-0.246-0.012v10.088
							c0,3.327,2.722,6.049,6.049,6.049h66.917c3.327,0,6.049-2.722,6.049-6.049v-10.076H214.655z"/>
						<g>
							<rect x="230.658" y="203.292" style="fill:#FF5D7A;" width="6.866" height="16.205"/>
							<polygon style="fill:#FF5D7A;" points="242.566,218.107 265.582,194.425 288.598,218.107 							"/>
							<polygon style="fill:#FFFFFF;" points="283.221,218.123 265.582,199.974 247.943,218.123 249.24,218.123 249.24,252.07 
								281.924,252.07 281.924,218.123 							"/>
							<rect x="249.24" y="225.523" style="opacity:0.45;fill:#C4C6FF;" width="14.393" height="26.546"/>
							<polygon style="fill:#FF5D7A;" points="221.417,226.072 244.433,202.39 267.449,226.072 							"/>
							<rect x="228.091" y="224.95" style="fill:#FFFFFF;" width="32.685" height="27.231"/>
							<polygon style="fill:#FFFFFF;" points="226.794,226.089 244.433,207.939 262.072,226.089 							"/>
							<rect x="239.382" y="234.054" style="fill:#2B1F5D;" width="10.712" height="18.128"/>
							<g>
								<rect x="240.533" y="235.528" style="fill:#C4C6FF;" width="3.933" height="3.277"/>
								<rect x="244.975" y="235.528" style="fill:#C4C6FF;" width="3.933" height="3.277"/>
								<rect x="240.533" y="239.169" style="fill:#C4C6FF;" width="3.933" height="3.277"/>
								<rect x="244.975" y="239.169" style="fill:#C4C6FF;" width="3.933" height="3.277"/>
							</g>
							<g>
								<rect x="236.894" y="219.083" style="fill:#2B1F5D;" width="13.098" height="9.824"/>
								<rect x="237.767" y="220.051" style="fill:#C4C6FF;" width="11.352" height="7.888"/>
								<rect x="243.185" y="219.255" style="fill:#2B1F5D;" width="0.517" height="8.617"/>
							</g>
							<g>
								<rect x="264.323" y="229.445" style="fill:#2B1F5D;" width="13.098" height="19.81"/>
								<rect x="265.196" y="231.397" style="fill:#C4C6FF;" width="11.352" height="15.905"/>
								<rect x="270.613" y="229.792" style="fill:#2B1F5D;" width="0.517" height="17.377"/>
							</g>
							<g>
								<rect x="260.462" y="208.721" style="fill:#2B1F5D;" width="9.848" height="7.386"/>
								<rect x="261.119" y="209.449" style="fill:#C4C6FF;" width="8.535" height="5.93"/>
								<rect x="265.192" y="208.851" style="fill:#2B1F5D;" width="0.389" height="6.479"/>
							</g>
							<path style="fill:#60C798;" d="M283.803,252.559c0.96-1.84,0.667-4.164-0.878-5.709c-1.149-1.149-2.728-1.601-4.22-1.365
								c-1.221-1.946-3.385-3.24-5.852-3.24c-2.661,0-4.969,1.506-6.122,3.711c-1.835-0.939-4.139-0.642-5.675,0.894
								c-0.232,0.232-0.436,0.483-0.611,0.747c-1.125-0.085-2.265,0.407-2.957,1.4c-0.761,1.094-0.764,2.486-0.126,3.562H283.803z"
								/>
							<path style="fill:#60C798;" d="M231.69,252.254c0.449-0.861,0.312-1.949-0.411-2.673c-0.538-0.538-1.277-0.749-1.975-0.639
								c-0.572-0.911-1.585-1.517-2.739-1.517c-1.246,0-2.326,0.705-2.866,1.737c-0.859-0.439-1.937-0.301-2.657,0.418
								c-0.109,0.109-0.204,0.226-0.286,0.35c-0.527-0.04-1.061,0.19-1.384,0.656c-0.356,0.512-0.358,1.164-0.059,1.667H231.69z"/>
							<path style="fill:#60C798;" d="M274.142,216.353c0.332-0.638,0.231-1.443-0.304-1.978c-0.398-0.398-0.945-0.555-1.462-0.473
								c-0.423-0.674-1.173-1.123-2.027-1.123c-0.922,0-1.721,0.522-2.121,1.286c-0.636-0.325-1.434-0.223-1.966,0.31
								c-0.081,0.081-0.151,0.167-0.212,0.259c-0.39-0.03-0.785,0.141-1.024,0.485c-0.264,0.379-0.265,0.861-0.044,1.234H274.142z"
								/>
							<rect x="260.462" y="216.107" style="fill:#FF5D7A;" width="14.046" height="2.367"/>
						</g>
						<path style="opacity:0.53;fill:#FFFFFF;" d="M285.234,191.277c0.564-1.081,0.392-2.446-0.516-3.354
							c-0.675-0.675-1.603-0.94-2.479-0.802c-0.718-1.143-1.989-1.904-3.438-1.904c-1.563,0-2.919,0.885-3.597,2.18
							c-1.078-0.551-2.432-0.377-3.334,0.525c-0.137,0.137-0.256,0.284-0.359,0.439c-0.661-0.05-1.331,0.239-1.737,0.823
							c-0.447,0.643-0.449,1.461-0.074,2.093H285.234z"/>
						<path style="opacity:0.53;fill:#FFFFFF;" d="M231.901,194.795c0.334-0.64,0.232-1.448-0.305-1.986
							c-0.4-0.4-0.949-0.557-1.468-0.475c-0.425-0.677-1.177-1.127-2.035-1.127c-0.926,0-1.728,0.524-2.13,1.291
							c-0.638-0.327-1.44-0.223-1.974,0.311c-0.081,0.081-0.152,0.168-0.213,0.26c-0.391-0.03-0.788,0.141-1.029,0.487
							c-0.265,0.38-0.266,0.865-0.044,1.239H231.901z"/>
					</g>
					<path style="fill:#FFC35E;" d="M304.796,248.069l-2.893-3.203l-2.893,3.203h-0.05v0.055l-0.031,0.034h0.031v4.9h4.731h0.774
						h4.731v-4.989H304.796z M301.49,251.647h-1.182v-1.182h1.182V251.647z M301.49,250.116h-1.182v-1.182h1.182V250.116z
						 M303.089,251.647h-1.182v-1.182h1.182V251.647z M303.089,250.116h-1.182v-1.182h1.182V250.116z"/>
					<path style="fill:none;stroke:#C4C6FF;stroke-miterlimit:10;" d="M322.63,209.759h-24.032c-1.671,0-3.038-1.367-3.038-3.038
						l0,0c0-1.671,1.367-3.038,3.038-3.038h24.032c1.671,0,3.038,1.367,3.038,3.038l0,0
						C325.669,208.392,324.301,209.759,322.63,209.759z"/>
					<polygon style="fill:#FFC35E;" points="299.897,204.951 300.49,206.152 301.815,206.344 300.856,207.279 301.082,208.598 
						299.897,207.975 298.712,208.598 298.939,207.279 297.98,206.344 299.305,206.152 					"/>
					<polygon style="fill:#FFC35E;" points="305.351,204.951 305.943,206.152 307.268,206.344 306.31,207.279 306.536,208.598 
						305.351,207.975 304.166,208.598 304.392,207.279 303.434,206.344 304.758,206.152 					"/>
					<polygon style="fill:#FFC35E;" points="310.805,204.951 311.397,206.152 312.722,206.344 311.763,207.279 311.99,208.598 
						310.805,207.975 309.62,208.598 309.846,207.279 308.887,206.344 310.212,206.152 					"/>
					<polygon style="fill:#FFC35E;" points="316.258,204.951 316.851,206.152 318.175,206.344 317.217,207.279 317.443,208.598 
						316.258,207.975 315.073,208.598 315.299,207.279 314.341,206.344 315.666,206.152 					"/>
					<polygon style="fill:#4E67C3;" points="321.712,204.951 322.304,206.152 323.629,206.344 322.67,207.279 322.897,208.598 
						321.712,207.975 320.527,208.598 320.753,207.279 319.794,206.344 321.119,206.152 					"/>
					<path style="fill:#C4C6FF;" d="M346.432,216.379h-48.063c-0.436,0-0.792-0.356-0.792-0.792l0,0
						c0-0.436,0.357-0.792,0.792-0.792h48.063c0.436,0,0.792,0.357,0.792,0.792l0,0
						C347.224,216.023,346.868,216.379,346.432,216.379z"/>
					<path style="fill:#C4C6FF;" d="M346.432,221.133h-48.063c-0.436,0-0.792-0.357-0.792-0.792l0,0
						c0-0.436,0.357-0.792,0.792-0.792h48.063c0.436,0,0.792,0.357,0.792,0.792l0,0
						C347.224,220.776,346.868,221.133,346.432,221.133z"/>
					<path style="fill:#C4C6FF;" d="M346.432,225.886h-48.063c-0.436,0-0.792-0.356-0.792-0.792l0,0
						c0-0.436,0.357-0.792,0.792-0.792h48.063c0.436,0,0.792,0.357,0.792,0.792l0,0C347.224,225.53,346.868,225.886,346.432,225.886
						z"/>
					<path style="fill:#C4C6FF;" d="M346.432,230.64h-48.063c-0.436,0-0.792-0.357-0.792-0.792l0,0c0-0.436,0.357-0.792,0.792-0.792
						h48.063c0.436,0,0.792,0.356,0.792,0.792l0,0C347.224,230.283,346.868,230.64,346.432,230.64z"/>
					<path style="fill:#C4C6FF;" d="M346.432,235.393h-48.063c-0.436,0-0.792-0.356-0.792-0.792l0,0
						c0-0.436,0.357-0.792,0.792-0.792h48.063c0.436,0,0.792,0.356,0.792,0.792l0,0
						C347.224,235.037,346.868,235.393,346.432,235.393z"/>
					<path style="fill:#C4C6FF;" d="M346.432,240.147h-48.063c-0.436,0-0.792-0.357-0.792-0.792l0,0
						c0-0.436,0.357-0.792,0.792-0.792h48.063c0.436,0,0.792,0.356,0.792,0.792l0,0C347.224,239.79,346.868,240.147,346.432,240.147
						z"/>
					<g>
						<g style="opacity:0.48;">
							
								<text transform="matrix(1 0 0 1 300.9911 200.8421)" style="fill:#2B1F5D; font-family:'Inter-SemiBoldItalic'; font-size:17.008px;">SALE</text>
						</g>
						<g>
							
								<text transform="matrix(1 0 0 1 299.9911 197.8421)" style="fill:#FFFFFF; font-family:'Inter-SemiBoldItalic'; font-size:17.008px;">SALE</text>
						</g>
					</g>
				</g>
			</g>
		</g>
		<polygon style="opacity:0.4;fill:#FFFFFF;" points="117.004,378.704 330.028,162.84 343.283,162.84 133.099,378.704 		"/>
		<polygon style="opacity:0.4;fill:#FFFFFF;" points="145.407,378.704 365.059,164.725 372.633,164.725 156.768,378.704 		"/>
		<path style="fill:#C4C6FF;" d="M93.292,274.559L93.292,274.559c-0.521,0-0.947-0.426-0.947-0.947v-35.031
			c0-0.521,0.426-0.947,0.947-0.947l0,0c0.521,0,0.947,0.426,0.947,0.947v35.031C94.238,274.133,93.812,274.559,93.292,274.559z"/>
		<path style="fill:#C4C6FF;" d="M94.281,282.607c0,0.784-0.636,1.42-1.42,1.42c-0.784,0-1.42-0.636-1.42-1.42
			c0-0.784,0.636-1.42,1.42-1.42C93.646,281.187,94.281,281.823,94.281,282.607z"/>
	</g>
	<g>
		<g>
			<g>
				<path style="fill:#E5BA9A;" d="M360.121,382.22c0,0-47.597,12.981-61.196-37.089c-13.599-50.069,6.206-51.608,14.229-53.002
					c8.024-1.394,21.623-9.43,44.494-9.43c22.871,0,34.29,6.477,34.29,6.477s10.834,65.228-2.147,85.008
					C389.792,374.184,389.174,380.365,360.121,382.22z"/>
				<path style="fill:#E5BA9A;" d="M313.142,296.298c0,0-11.076-77.501,1.57-77.384c12.647,0.117,13.883,12.479,20.683,71.203
					C335.395,290.116,326.741,314.224,313.142,296.298z"/>
				<path style="fill:#E5BA9A;" d="M335.395,290.116c0,0-10.508-45.742,4.945-47.597c0,0,15.454-7.418,16.69,31.525l1.236,16.072
					C358.267,290.116,338.486,297.534,335.395,290.116z"/>
				<path style="fill:#E5BA9A;" d="M355.467,298.771c0,0-9.523-45.743,4.481-47.597c0,0,14.004-7.418,15.124,31.525l1.12,16.072
					C376.193,298.771,358.268,306.188,355.467,298.771z"/>
				<path style="fill:#E5BA9A;" d="M375.335,313.876c0,0-8.584-45.742,4.039-47.597c0,0,12.624-7.418,13.633,31.525l1.01,16.072
					C394.017,313.876,377.859,321.294,375.335,313.876z"/>
			</g>
			<path style="fill:#E5BA9A;" d="M325.29,379.04l6.8,49.451h71.704c0,0-8.654-92.103-8.654-90.249
				C395.14,340.097,323.436,338.243,325.29,379.04z"/>
			<g style="opacity:0.55;">
				<path style="fill:#FE604B;" d="M316.374,334.998c-0.17,0-0.334-0.097-0.41-0.262c-1.5-3.241-4.166-41.108-4.279-42.719
					c-0.018-0.249,0.17-0.465,0.419-0.483c0.242-0.029,0.465,0.17,0.483,0.419c0.951,13.585,3.052,39.929,4.198,42.403
					c0.104,0.227,0.006,0.495-0.221,0.6C316.502,334.984,316.438,334.998,316.374,334.998z"/>
			</g>
			<g style="opacity:0.55;">
				<path style="fill:#FE604B;" d="M333.565,284.284c-0.235,0-0.433-0.183-0.45-0.421l-1.715-24.697
					c-0.017-0.249,0.17-0.464,0.42-0.482c0.244-0.02,0.464,0.171,0.482,0.42l1.715,24.697c0.017,0.249-0.17,0.464-0.42,0.482
					C333.586,284.284,333.576,284.284,333.565,284.284z"/>
			</g>
			<g style="opacity:0.55;">
				<path style="fill:#FE604B;" d="M357.332,281.963c-0.23,0-0.427-0.176-0.449-0.41l-2.473-26.579
					c-0.023-0.248,0.16-0.469,0.409-0.492c0.244-0.019,0.468,0.16,0.491,0.409l2.473,26.579c0.023,0.248-0.16,0.469-0.409,0.491
					C357.36,281.962,357.346,281.963,357.332,281.963z"/>
			</g>
			<g style="opacity:0.55;">
				<path style="fill:#FE604B;" d="M375.731,287.142c-0.234,0-0.432-0.181-0.45-0.418l-1.236-16.69
					c-0.018-0.249,0.169-0.466,0.417-0.485c0.248-0.018,0.466,0.169,0.484,0.417l1.236,16.69c0.018,0.249-0.169,0.466-0.417,0.484
					C375.753,287.142,375.742,287.142,375.731,287.142z"/>
			</g>
			<g style="opacity:0.55;">
				<path style="fill:#FE604B;" d="M306.171,302.682c-0.008,0-0.016,0-0.025-0.001l-7.509-0.411
					c-0.249-0.013-0.44-0.227-0.426-0.476c0.014-0.249,0.205-0.448,0.476-0.426l7.509,0.411c0.249,0.013,0.44,0.227,0.426,0.476
					C306.609,302.495,306.409,302.682,306.171,302.682z"/>
			</g>
			<g style="opacity:0.55;">
				<path style="fill:#FE604B;" d="M313.545,242.883c-0.222,0-0.417-0.165-0.447-0.392c-0.033-0.248,0.141-0.475,0.388-0.508
					l9.273-1.236c0.239-0.033,0.475,0.14,0.508,0.388c0.033,0.248-0.141,0.475-0.388,0.508l-9.273,1.236
					C313.585,242.882,313.565,242.883,313.545,242.883z"/>
			</g>
			<g style="opacity:0.55;">
				<path style="fill:#FE604B;" d="M316.017,266.99c-0.224,0-0.419-0.167-0.447-0.395c-0.031-0.248,0.145-0.474,0.392-0.505
					l9.89-1.236c0.24-0.035,0.474,0.144,0.505,0.392c0.031,0.248-0.145,0.474-0.392,0.505l-9.89,1.236
					C316.055,266.989,316.036,266.99,316.017,266.99z"/>
			</g>
			<g style="opacity:0.55;">
				<path style="fill:#FE604B;" d="M338.889,246.223c-0.232,0-0.43-0.178-0.449-0.414c-0.021-0.249,0.164-0.468,0.412-0.488
					l7.418-0.619c0.243-0.017,0.467,0.163,0.488,0.412c0.021,0.249-0.164,0.468-0.412,0.488l-7.418,0.619
					C338.914,246.222,338.902,246.223,338.889,246.223z"/>
			</g>
			<g style="opacity:0.55;">
				<path style="fill:#FE604B;" d="M360.263,255.319c-0.24,0-0.439-0.188-0.451-0.43c-0.012-0.25,0.18-0.461,0.429-0.473
					l5.591-0.268c0.283-0.033,0.462,0.18,0.473,0.429c0.012,0.25-0.18,0.462-0.429,0.473l-5.591,0.268
					C360.278,255.319,360.271,255.319,360.263,255.319z"/>
			</g>
			<g style="opacity:0.55;">
				<path style="fill:#FE604B;" d="M379.686,270.081c-0.227,0-0.423-0.171-0.448-0.402c-0.027-0.248,0.151-0.471,0.4-0.499
					l5.564-0.618c0.24-0.03,0.471,0.152,0.499,0.4c0.027,0.248-0.151,0.471-0.4,0.499l-5.564,0.618
					C379.719,270.08,379.702,270.081,379.686,270.081z"/>
			</g>
			<path style="fill:#FE604B;" d="M322.673,223.927c0.296,3.667-2.065,6.85-5.273,7.109c-3.208,0.259-6.049-2.504-6.344-6.172
				c-0.296-3.667,2.065-6.85,5.273-7.109C319.537,217.496,322.377,220.259,322.673,223.927z"/>
		</g>
		<polygon style="fill:#C4C6FF;" points="325.142,393.48 334.701,500 428.549,500 402.48,389.642 		"/>
		<path style="opacity:0.33;fill:#4E67C3;" d="M407.043,408.958c0.047,1.47,0.098,2.939,0.12,4.411
			c0.245,16.366-0.064,35.615-8.626,50.153c-7.94,13.482-24.378,17.498-37.213,8.157c-13.779-10.028-21.241-27.41-27.331-42.754
			c-2.881-7.26-5.34-14.645-7.651-22.08L334.701,500h93.848L407.043,408.958z"/>
		<g style="opacity:0.54;">
			
				<rect x="326.553" y="406.745" transform="matrix(0.9992 -0.0391 0.0391 0.9992 -15.6314 14.6249)" style="fill:#2B1F5D;" width="79.626" height="1.001"/>
		</g>
	</g>
</g>
</svg>
