<?xml version="1.0" encoding="utf-8"?>
<!-- Generator: Adobe Illustrator 27.5.0, SVG Export Plug-In . SVG Version: 6.00 Build 0)  -->
<svg version="1.1" xmlns="http://www.w3.org/2000/svg" xmlns:xlink="http://www.w3.org/1999/xlink" x="0px" y="0px"
	 viewBox="0 0 500 500" style="enable-background:new 0 0 500 500;" xml:space="preserve">
<g id="BACKGROUND">
	<g>
		<defs>
			<path id="SVGID_1_" d="M447.317,209.853c0-89.386-88.342-161.848-197.317-161.848S52.683,120.467,52.683,209.853
				c0,11.939,0,223.584,0,223.584h394.634C447.317,433.437,447.317,236.75,447.317,209.853z"/>
		</defs>
		<clipPath id="SVGID_00000124139077632589927260000014815209916393395341_">
			<use xlink:href="#SVGID_1_"  style="overflow:visible;"/>
		</clipPath>
		<g style="clip-path:url(#SVGID_00000124139077632589927260000014815209916393395341_);">
			<rect y="5.114" style="fill:#D8F0FE;" width="500" height="500"/>
			<g style="opacity:0.2;">
				<path style="fill:#DEEFFD;" d="M498.332,327.044v-22.231c-71.861-22.785-406.837,4.902-500.154-7.5v187.549
					c31.475,10.413,80.464,16.078,159.154,20.012h201.03c95.699-10.072,128.421-38.529,139.97-67.071v-61.163
					c-61.396-32.761-486.683-36.774-488.62-54.212C7.813,305.337,417.749,353.589,498.332,327.044z"/>
				<path style="fill:#DEEFFD;" d="M498.332,147.107v-37.025C397.302,84.01,56.761,137.681,55.847,122.156
					c-1.049-17.825,399.494-10.485,391.106-41.942c-6.988-26.207-331.996,29.093-448.776,31.912v41.734
					C111.216,142.574,406.383,166.793,498.332,147.107z"/>
				<path style="fill:#DEEFFD;" d="M-1.822,33.839v57.906c111.625-19.288,417.287-36.503,500.154-47.541v-8.542
					C411.514,29.293,80.913,32.835-1.822,33.839z"/>
				<path style="fill:#DEEFFD;" d="M-1.822,182.206v19.389c120.823-11.838,407.555,17.344,500.154,6.56V182.52
					C404.368,167.8,110.783,190.418-1.822,182.206z"/>
				<path style="fill:#DEEFFD;" d="M490.992,247.981c-8.466-22.012-355.964,16.81-492.814-0.534v28.074
					C101.494,254.678,500.186,271.885,490.992,247.981z"/>
			</g>
			<g>
				<path style="fill:#5A8248;" d="M487.734,375.7c-0.249,0.376-0.498,0.763-0.748,1.161c0,0-8.671-37.249-27.476-2.737
					c0,0-17.108-18.189-31.674,2.004c0,0-11.582-14.765-20.884,0c0,0-11.773-28.062-27.391,2.398c0,0-10.285-31.923-28.949-2.398
					c0,0-5.999-11.835-13.332-2.82c0,0-10.408-10.708-14.202,2.82c0,0-17.127-52.483-42.456-2.82c0,0-11.998-20.107-21.33,0
					c0,0-12.665-8.369-18.664,7.322c0,0-19.331-38.494-36.662-1.07c0,0-9.999-27.515-23.997-3.044c0,0-21.997-17.582-30.662-0.342
					c0,0-15.252-37.845-35.092-2.051c0,0-14.036-21.52-27.885-2.569c0,0-14.43-42.379-33.216-6.428c0,0-14.38-15.062-21.418,0.067
					c0,0-11.889-17.365-24.616-16.074v92.862h480.655V375.7z"/>
				<path style="opacity:0.3;fill:#5A8248;" d="M487.734,385.313c-0.249,0.376-0.498,0.763-0.748,1.161
					c0,0-8.671-37.249-27.476-2.737c0,0-17.108-18.189-31.674,2.004c0,0-11.582-14.764-20.884,0c0,0-11.773-28.062-27.391,2.398
					c0,0-10.285-31.923-28.949-2.398c0,0-5.999-11.835-13.332-2.82c0,0-10.408-10.708-14.202,2.82c0,0-17.127-52.482-42.456-2.82
					c0,0-11.998-20.107-21.33,0c0,0-12.665-8.369-18.664,7.322c0,0-19.331-38.494-36.662-1.07c0,0-9.999-27.515-23.997-3.044
					c0,0-21.997-17.582-30.662-0.342c0,0-15.252-37.845-35.092-2.051c0,0-14.036-21.52-27.885-2.569c0,0-14.43-42.379-33.216-6.428
					c0,0-14.38-15.062-21.418,0.067c0,0-11.889-17.365-24.616-16.074v82.728h480.655V385.313z"/>
				<path style="opacity:0.3;fill:#5A8248;" d="M14.36,387.614c-9.08-15.006,7.086-23.529,7.086-23.529
					C29.037,381.253,14.36,387.614,14.36,387.614z M189.332,400.761c0,0-3.355-17.964-20.376-13.734
					C168.956,387.027,170.688,402.93,189.332,400.761z M35.077,413.927c0,0-3.354-17.964-20.376-13.734
					C14.701,400.193,16.432,416.096,35.077,413.927z M36.371,383.975c0,0-2.68,11.283,8.283,13.212
					C44.654,397.187,47.744,387.517,36.371,383.975z M77.579,362.666c0,0-11.529,1.263-9.666,12.237
					C67.913,374.903,78.06,374.568,77.579,362.666z M164.385,375.089c0,0-11.528,1.263-9.666,12.237
					C154.719,387.326,164.865,386.992,164.385,375.089z M87.022,389.25c0,0-5.08-10.425-14.782-4.967
					C72.241,384.283,75.981,393.72,87.022,389.25z M119.989,385.591c0,0-11.528,1.263-9.666,12.237
					C110.323,397.828,120.469,397.494,119.989,385.591z M164.385,403.609c0,0-11.528,1.263-9.666,12.237
					C154.719,415.846,164.865,415.512,164.385,403.609z M126.341,401.893c0,0-11.529,1.263-9.666,12.237
					C116.675,414.13,126.821,413.795,126.341,401.893z M195.416,372.275c0,0-11.528,1.263-9.666,12.237
					C185.75,384.512,195.896,384.177,195.416,372.275z M129.966,366.601c0,0-2.68,11.284,8.283,13.212
					C138.249,379.813,141.339,370.143,129.966,366.601z M138.921,390.366c0,0-2.68,11.284,8.283,13.213
					C147.204,403.579,150.294,393.909,138.921,390.366z M59.761,392.942c0,0-2.68,11.284,8.283,13.212
					C68.044,406.154,71.134,396.484,59.761,392.942z M90.952,396.972c-9.569,9.357-1.268,19.733-1.268,19.733
					C101.953,403.688,90.952,396.972,90.952,396.972z M99.679,390.747c11.249-7.251,5.195-19.079,5.195-19.079
					C90.247,381.964,99.679,390.747,99.679,390.747z M41.466,367.873c2.862,13.074,16.06,11.536,16.06,11.536
					C52.992,362.105,41.466,367.873,41.466,367.873z M298.596,419.776c-9.08-15.006,7.086-23.529,7.086-23.529
					C313.273,413.414,298.596,419.776,298.596,419.776z M316.865,377.044c0,0-3.354-17.964-20.376-13.734
					C296.489,363.311,298.22,379.213,316.865,377.044z M312.677,386.816c0,0-2.68,11.284,8.283,13.212
					C320.96,400.028,324.05,390.358,312.677,386.816z M364.613,371.181c0,0-11.529,1.263-9.666,12.237
					C354.947,383.418,365.093,383.084,364.613,371.181z M362.134,402.221c0,0-5.081-10.425-14.782-4.967
					C347.352,397.254,351.092,406.691,362.134,402.221z M327.966,401.405c0,0-2.68,11.284,8.283,13.213
					C336.249,414.618,339.339,404.948,327.966,401.405z M377.807,385.112c-9.569,9.357-1.268,19.733-1.268,19.733
					C388.808,391.828,377.807,385.112,377.807,385.112z M327.677,378.084c2.862,13.074,16.06,11.536,16.06,11.536
					C339.203,372.316,327.677,378.084,327.677,378.084z M255.998,377.3c0,0-11.529,1.263-9.666,12.237
					C246.332,389.537,256.478,389.202,255.998,377.3z M202.913,402.802c0,0-11.529,1.263-9.666,12.237
					C193.247,415.039,203.393,414.704,202.913,402.802z M258.462,404.566c0,0-5.08-10.425-14.782-4.967
					C243.68,399.599,247.42,409.036,258.462,404.566z M212.768,394.383c0,0-5.08-10.425-14.782-4.968
					C197.987,389.416,201.727,398.853,212.768,394.383z M290.982,384.629c0,0-11.528,1.263-9.666,12.237
					C281.316,396.866,291.463,396.531,290.982,384.629z M222.638,367.089c0,0-11.528,1.263-9.666,12.237
					C212.972,379.326,223.118,378.991,222.638,367.089z M220.37,403.122c0,0-2.68,11.284,8.283,13.212
					C228.653,416.334,231.743,406.664,220.37,403.122z M274.581,399.861c-9.569,9.357-1.268,19.733-1.268,19.733
					C285.581,406.577,274.581,399.861,274.581,399.861z M268.058,390.747c11.249-7.251,5.195-19.079,5.195-19.079
					C258.625,381.964,268.058,390.747,268.058,390.747z M220.523,384.341c2.862,13.074,16.06,11.536,16.06,11.536
					C232.049,378.574,220.523,384.341,220.523,384.341z M417.698,403.395c0,0-3.354-17.964-20.376-13.734
					C397.322,389.662,399.053,405.565,417.698,403.395z M399.579,369.731c0,0-11.528,1.263-9.666,12.237
					C389.913,381.969,400.059,381.634,399.579,369.731z M394.636,402.964c0,0-11.528,1.263-9.666,12.237
					C384.97,415.202,395.116,414.867,394.636,402.964z M424.781,377.3c0,0-11.528,1.263-9.666,12.237
					C415.115,389.537,425.261,389.202,424.781,377.3z M473.738,401.893c0,0-11.529,1.263-9.666,12.237
					C464.072,414.13,474.218,413.795,473.738,401.893z M442.585,399.646c0,0-5.081-10.425-14.782-4.967
					C427.803,394.678,431.543,404.116,442.585,399.646z M447.511,372.275c0,0-11.528,1.263-9.666,12.237
					C437.845,384.512,447.992,384.177,447.511,372.275z M474.043,370.555c0,0-2.68,11.284,8.283,13.212
					C482.326,383.768,485.416,374.098,474.043,370.555z M451.53,384.203c2.862,13.074,16.06,11.536,16.06,11.536
					C463.056,378.435,451.53,384.203,451.53,384.203z"/>
			</g>
			<g>
				<path style="fill:#FFFFFF;" d="M9.709,148.674c1.942-10.534,10.863-18.499,21.59-18.499c3.43,0,6.664,0.838,9.557,2.289
					c1.639-7.467,8.069-13.045,15.768-13.045c1.272,0,2.503,0.168,3.69,0.455c2.752-13.166,14.049-23.032,27.573-23.032
					c13.359,0,24.541,9.626,27.466,22.549c3.615-3.579,8.501-5.789,13.894-5.789c11.12,0,20.135,9.346,20.135,20.874
					c0,1.655-0.205,3.257-0.556,4.801c0.385-0.043,0.774-0.068,1.17-0.068c5.393,0,9.849,4.106,10.649,9.465H9.709z"/>
				<path style="fill:#FFFFFF;" d="M386.797,197.007c1.507-8.174,8.429-14.354,16.753-14.354c2.662,0,5.171,0.65,7.416,1.776
					c1.272-5.794,6.261-10.122,12.235-10.122c0.987,0,1.942,0.13,2.863,0.353c2.135-10.216,10.901-17.871,21.395-17.871
					c10.365,0,19.042,7.469,21.311,17.497c2.805-2.777,6.596-4.492,10.78-4.492c8.629,0,15.624,7.252,15.624,16.197
					c0,1.284-0.159,2.527-0.432,3.725c0.298-0.033,0.601-0.053,0.908-0.053c4.185,0,7.642,3.186,8.263,7.344H386.797z"/>
				<path style="fill:#FFFFFF;" d="M196.774,227.376c0.955-5.18,5.342-9.096,10.616-9.096c1.687,0,3.277,0.412,4.699,1.126
					c0.806-3.671,3.968-6.414,7.753-6.414c0.625,0,1.231,0.082,1.815,0.224c1.353-6.474,6.908-11.325,13.558-11.325
					c6.568,0,12.067,4.733,13.505,11.088c1.777-1.76,4.18-2.847,6.831-2.847c5.468,0,9.901,4.595,9.901,10.264
					c0,0.814-0.101,1.601-0.274,2.36c0.189-0.021,0.381-0.034,0.575-0.034c2.652,0,4.843,2.019,5.236,4.654H196.774z"/>
			</g>
		</g>
	</g>
</g>
<g id="OBJECTS">
	<g>
		<ellipse style="fill:#F4D792;" cx="250" cy="436.295" rx="227.361" ry="15.699"/>
		<g>
			<g>
				<path style="opacity:0.6;fill:#F4D792;" d="M156.352,429.741c0,2.906-15.801,5.263-35.293,5.263
					c-19.492,0-35.293-2.356-35.293-5.263c0-2.906,15.801-5.263,35.293-5.263C140.551,424.478,156.352,426.834,156.352,429.741z"/>
				<g>
					<g>
						<g>
							<g>
								<path style="fill:#1D2F4C;" d="M107.98,291.899l71.787,14.615l24.267,46.756l20.494-7.302l-14.592-53.471
									c-1.046-3.831-3.986-6.857-7.785-8.012l-45.214-13.055L107.98,291.899z"/>
								<polygon style="opacity:0.25;fill:#1D2F4C;" points="184.317,303.384 132.673,292.92 135.266,297.454 179.767,306.514 
									201.195,347.8 204.928,344.074 								"/>
							</g>
							<g>
								<path style="fill:#1D2F4C;" d="M102.322,272.115c0-0.04,0,131.478,0,131.478h19.644l19.143-131.478H102.322z"/>
								<path style="opacity:0.25;fill:#1D2F4C;" d="M102.322,272.115c0-0.006,0,2.79,0,7.548
									c9.05,3.232,47.239,15.204,68.969-4.087l-14.354-4.145l-16.749,7.003l0.92-6.318H102.322z"/>
								<polyline style="fill:none;stroke:#15588C;stroke-width:0.8948;stroke-miterlimit:10;" points="102.322,403.592 
									121.965,403.592 138.464,290.275 								"/>
							</g>
						</g>
						<g>
							<path style="fill:#6B332A;" d="M124.958,415.411l0.624-20.067h-25.228v34.397h42.875
								C143.825,419.284,127.658,415.902,124.958,415.411z"/>
							<path style="fill:#8A432E;" d="M98.614,392.609v3.739c0,0.835,0.677,1.513,1.513,1.513h25.786
								c0.836,0,1.513-0.677,1.513-1.513v-3.739c0-0.836-0.677-1.513-1.513-1.513h-25.786
								C99.291,391.097,98.614,391.774,98.614,392.609z"/>
							<path style="fill:#8A432E;" d="M142.745,426.239c0.369,1.07,0.556,2.231,0.483,3.502h-42.875v-3.502H142.745z"/>
							<g>
								
									<line style="fill:none;stroke:#FFFFFF;stroke-width:0.8784;stroke-linecap:round;stroke-linejoin:round;stroke-miterlimit:10;" x1="125.173" y1="403.208" x2="118.758" y2="403.208"/>
								
									<line style="fill:none;stroke:#FFFFFF;stroke-width:0.8784;stroke-linecap:round;stroke-linejoin:round;stroke-miterlimit:10;" x1="118.591" y1="407.94" x2="125.006" y2="407.94"/>
								
									<line style="fill:none;stroke:#FFFFFF;stroke-width:0.8784;stroke-linecap:round;stroke-linejoin:round;stroke-miterlimit:10;" x1="118.591" y1="411.671" x2="125.006" y2="411.671"/>
							</g>
						</g>
						<g>
							<path style="fill:#6B332A;" d="M227.656,356.394l-5.467-19.318l-24.049,7.62l10.39,32.791l40.872-12.95
								C246.812,354.388,230.378,356.047,227.656,356.394z"/>
							<path style="fill:#8A432E;" d="M195.655,342.615l1.129,3.565c0.252,0.797,1.103,1.238,1.899,0.985l24.581-7.789
								c0.796-0.252,1.238-1.103,0.985-1.899l-1.129-3.564c-0.252-0.797-1.103-1.238-1.899-0.985l-24.581,7.789
								C195.844,340.969,195.403,341.819,195.655,342.615z"/>
							<path style="fill:#8A432E;" d="M247.883,361.344c0.675,0.908,1.204,1.959,1.518,3.193l-40.872,12.95l-1.058-3.338
								L247.883,361.344z"/>
							<g>
								
									<line style="fill:none;stroke:#FFFFFF;stroke-width:0.8784;stroke-linecap:round;stroke-linejoin:round;stroke-miterlimit:10;" x1="218.06" y1="346.635" x2="224.176" y2="344.697"/>
								
									<line style="fill:none;stroke:#FFFFFF;stroke-width:0.8784;stroke-linecap:round;stroke-linejoin:round;stroke-miterlimit:10;" x1="219.331" y1="351.196" x2="225.446" y2="349.258"/>
								
									<line style="fill:none;stroke:#FFFFFF;stroke-width:0.8784;stroke-linecap:round;stroke-linejoin:round;stroke-miterlimit:10;" x1="220.457" y1="354.752" x2="226.573" y2="352.815"/>
							</g>
						</g>
					</g>
					
						<path style="fill:none;stroke:#15588C;stroke-width:1.3422;stroke-linecap:round;stroke-linejoin:round;stroke-miterlimit:10;" d="
						M163.671,215.92"/>
					<g>
						<g>
							<g>
								<path style="fill:#FFC343;" d="M170.952,208.519c0,0-5.162,61.881-10.532,67.426c0,0-14.066,7.147-36.253,4.692
									c-13.072-1.446-25.412-6.256-25.412-6.256c4.012-76.275,15.698-100.102,17.975-101.082
									c11.927-5.139,47.015,12.625,50.652,14.526C173.794,191.175,173.349,192.835,170.952,208.519z"/>
							</g>
							<g>
								<g>
									<path style="fill:#D69331;" d="M160.421,275.945c-4.761,2.276-9.921,3.614-15.113,4.547
										c-5.212,0.882-10.522,1.176-15.81,0.972c-1.325-0.012-2.641-0.152-3.962-0.247c-1.322-0.082-2.636-0.253-3.951-0.41
										c-2.624-0.357-5.231-0.83-7.818-1.388c-5.169-1.157-10.244-2.63-15.234-4.468c-0.251-0.092-0.403-0.336-0.39-0.59
										l0.001-0.013c0.447-8.618,0.96-17.236,1.756-25.832c0.781-8.597,1.755-17.178,2.964-25.729
										c1.218-8.548,2.775-17.054,4.749-25.464c0.991-4.204,2.137-8.375,3.513-12.47c0.683-2.049,1.43-4.078,2.285-6.063
										c0.439-0.987,0.882-1.973,1.402-2.92c0.253-0.477,0.526-0.944,0.83-1.391c0.301-0.441,0.62-0.906,1.087-1.182
										c-0.457,0.29-0.758,0.761-1.044,1.21c-0.288,0.453-0.546,0.927-0.782,1.41c-0.488,0.959-0.899,1.955-1.304,2.951
										c-0.788,2.003-1.468,4.046-2.084,6.108c-1.245,4.121-2.23,8.314-3.168,12.514c-1.841,8.411-3.168,16.926-4.335,25.457
										c-1.155,8.534-2.077,17.1-2.806,25.684c-0.717,8.584-1.372,17.176-1.839,25.781l-0.389-0.602
										c4.883,1.832,9.938,3.33,15.038,4.507c2.551,0.597,5.121,1.11,7.709,1.509c1.296,0.178,2.591,0.371,3.897,0.474
										c1.304,0.116,2.606,0.278,3.916,0.313c5.232,0.297,10.49,0.07,15.694-0.612
										C150.415,279.238,155.594,278.069,160.421,275.945z"/>
								</g>
							</g>
							<g style="opacity:0.35;">
								<path style="fill:#FFC343;" d="M98.755,274.381c0,0,12.34,4.81,25.412,6.256c22.187,2.455,36.253-4.692,36.253-4.692
									c3.413-3.525,6.741-29.804,8.714-48.491c-3.579-4.28-6.23-6.997-6.23-6.997l-13.736,51.657l-28.034-22.346l-17.671-5.933
									l21.772,29.578C125.237,273.414,110.535,276.681,98.755,274.381z"/>
								<path style="fill:#FFC343;" d="M115.311,196.902l-6.842-1.611c-0.27,1.129-0.541,2.305-0.813,3.535L115.311,196.902z"/>
							</g>
							<path style="fill:#D69331;" d="M143.712,174.196c-2.043-0.845-8.85,0.221-9.404,3.318
								c-0.554,3.097,7.708,12.189,18.233,13.104C163.066,191.534,174.274,186.83,143.712,174.196z"/>
						</g>
						<g>
							<g>
								<g>
									<path style="fill:#B57164;" d="M139.773,177.466c0,0,13.461-28.345,15.337-32.295c2.795-5.884,10.104-11.473,22.93-5.382
										c10.2,4.844,7.55,16.984,5.429,21.451s-4.5,9.475-5.999,12.632c-3.292,6.931-11.56,11.026-17.027,8.43
										c0,0-0.361,0.751-1.93,4.064C156.622,190.367,137.838,181.555,139.773,177.466z"/>
									<g>
										<g style="opacity:0.3;">
											<path style="fill:#B57164;" d="M152.269,177.466c1.316,4.816,7.152,6.984,7.152,6.984
												c0.49-1.031,0.966-2.035,1.013-2.133C155.976,180.878,152.269,177.466,152.269,177.466z"/>
										</g>
										<g>
											<path style="fill:#6B332A;" d="M151.649,176.966c2.083,1.414,4.23,2.715,6.445,3.813c1.112,0.525,2.251,1.032,3.41,1.297
												c1.167,0.291,2.38,0.395,3.575,0.339c1.197-0.061,2.38-0.308,3.501-0.736c1.103-0.436,2.195-1.066,3.223-1.728
												c2.049-1.354,3.838-3.126,5.23-5.228c-1.049,2.291-2.71,4.338-4.764,5.884c-1.033,0.768-2.097,1.461-3.311,1.997
												c-1.201,0.538-2.513,0.799-3.82,0.892c-1.313,0.077-2.627-0.079-3.894-0.407c-1.28-0.354-2.439-0.913-3.554-1.539
												C155.467,180.291,153.46,178.721,151.649,176.966z"/>
										</g>
									</g>
								</g>
								<path style="fill:#8A432E;" d="M149.475,157.922c0,0,1.754,1.24,2.597,0.503c0.843-0.737,3.077-8.94,6.401-11.643
									c3.324-2.703,21.128-0.438,21.128-0.438s-6.852-13.523-17.69-14.529c-10.838-1.006-17.186,12.031-18.794,18.896
									c-1.608,6.865-1.799,13.134-0.86,13.073c0.939-0.061,1.792-0.117,1.792-0.117s-0.042,4.885,0.192,4.392
									C144.475,167.566,149.475,157.922,149.475,157.922z"/>
								<g>
									<g>
										<path style="fill:#B57164;" d="M149.52,160.318c0,0-2.538,0.929-4.332-1.635c-1.775-2.537-0.879-7.342,3.079-8.24
											c3.669-0.832,4.708,2.597,4.708,2.597L149.52,160.318z"/>
									</g>
									<g>
										<path style="fill:#6B332A;" d="M146.604,153.215c0.174-0.511,0.538-0.927,0.985-1.237
											c0.447-0.316,1.016-0.491,1.594-0.492c0.573,0.023,1.157,0.182,1.587,0.531c0.449,0.315,0.772,0.756,0.965,1.249
											c-0.514-0.172-0.933-0.372-1.357-0.492c-0.414-0.142-0.813-0.19-1.203-0.196
											C148.386,152.551,147.583,152.834,146.604,153.215z"/>
									</g>
								</g>
								<g>
									<path style="fill:#15588C;" d="M144.667,142.19l42.96,15.738c0,0,3.879-20.458-8.26-26.521
										C167.229,125.343,151.047,123.514,144.667,142.19z"/>
									<path style="fill:#1D2F4C;" d="M143.994,144.289c0,0,51.111,22.584,52.126,21.231c1.015-1.353,1.109-5.537-1.463-6.911
										c-2.572-1.374-49.99-16.419-49.99-16.419L143.994,144.289z"/>
								</g>
							</g>
							<g>
								<g>
									<g>
										<path style="fill:#6B332A;" d="M161.356,155.701c0.402-0.357,0.909-0.547,1.429-0.632
											c0.523-0.091,1.072-0.039,1.595,0.115c0.518,0.168,1.01,0.449,1.374,0.852c0.383,0.379,0.627,0.875,0.728,1.391
											c-0.476-0.258-0.846-0.524-1.249-0.717c-0.39-0.203-0.774-0.371-1.18-0.486
											C163.247,155.956,162.392,155.853,161.356,155.701z"/>
									</g>
								</g>
								<g>
									<path style="fill:#6B332A;" d="M173.394,163.571c-0.39,0.824-0.261,1.703,0.288,1.963c0.549,0.26,1.311-0.197,1.702-1.021
										c0.39-0.824,0.261-1.703-0.288-1.963C174.546,162.29,173.784,162.747,173.394,163.571z"/>
									<path style="fill:#6B332A;" d="M162.691,158.504c-0.39,0.824-0.261,1.703,0.288,1.963c0.549,0.26,1.311-0.197,1.701-1.021
										c0.39-0.824,0.261-1.703-0.288-1.963C163.843,157.222,163.081,157.68,162.691,158.504z"/>
									<g>
										<path style="fill:#6B332A;" d="M178.509,163.167c-0.881-0.567-1.592-1.051-2.376-1.38
											c-0.381-0.181-0.781-0.307-1.209-0.411c-0.43-0.12-0.884-0.163-1.412-0.281c0.415-0.322,0.925-0.536,1.463-0.569
											c0.539-0.065,1.095,0.048,1.596,0.262c0.495,0.228,0.943,0.55,1.278,0.963
											C178.184,162.158,178.441,162.634,178.509,163.167z"/>
									</g>
								</g>
								<g>
									<path style="fill:#6B332A;" d="M172.134,159.918c-0.08,1.56-0.242,3.079-0.356,4.595c-0.106,1.511-0.217,3.02-0.099,4.476
										l0.003,0.039c0.012,0.143-0.043,0.278-0.137,0.373c-0.434,0.435-1.038,0.605-1.552,0.592
										c-0.523-0.013-1.004-0.135-1.442-0.331c-0.438-0.195-0.842-0.446-1.192-0.759c-0.348-0.307-0.662-0.687-0.792-1.127
										c0.276,0.359,0.649,0.59,1.025,0.792c0.382,0.193,0.781,0.343,1.184,0.44c0.791,0.201,1.675,0.154,2.033-0.301
										l-0.133,0.411c-0.231-1.605-0.118-3.188,0.146-4.725c0.127-0.77,0.305-1.529,0.522-2.276
										C171.557,161.369,171.808,160.63,172.134,159.918z"/>
								</g>
								
									<path style="fill:none;stroke:#6B332A;stroke-width:1.0915;stroke-linecap:round;stroke-linejoin:round;stroke-miterlimit:10;" d="
									M159.48,167.716c0,0-0.138,7.209,6.85,6.495"/>
							</g>
						</g>
						<g>
							<g>
								<path style="fill:#B57164;" d="M161.095,267.446l-2.206,28.604l17.165,17.017c0,0,0.405-12.551-2.802-17.346
									c-3.207-4.796-0.898-28.275-0.898-28.275H161.095z"/>
								<g>
									<g>
										<path style="fill:#97A6B0;" d="M251.341,415.991c0,0,0.845-12.31,10.258-18.586c9.414-6.276,17.379,9.293,17.379,9.293
											s7.036-5.777,13.825-4.454c-7.982-7.501-27.06-25.239-33.577-29.624c-8.326-5.602-23.086-3.438-27.827-1.232l-6.376-5.872
											l-5.307,4.431l5.54,6.147c0,0-10.346,11.367-3.146,19.748c4.048,4.711,13.094,12.697,20.24,18.787
											C244.772,414.437,247.728,414.801,251.341,415.991z"/>
										<path style="fill:#D4AC8C;" d="M75.357,218.843l144.359,151.103l5.307-4.431L81.877,212.675
											c-1.887-2.016-5.129-1.866-6.822,0.316l0,0C73.693,214.747,73.821,217.236,75.357,218.843z"/>
										
											<line style="fill:none;stroke:#7A8991;stroke-width:1.1328;stroke-linecap:round;stroke-linejoin:round;stroke-miterlimit:10;" x1="219.715" y1="369.946" x2="232.461" y2="383.36"/>
										
											<line style="fill:none;stroke:#7A8991;stroke-width:1.1328;stroke-linecap:round;stroke-linejoin:round;stroke-miterlimit:10;" x1="225.022" y1="365.516" x2="237.606" y2="378.304"/>
										
											<path style="fill:none;stroke:#7A8991;stroke-width:1.1328;stroke-linecap:round;stroke-linejoin:round;stroke-miterlimit:10;" d="
											M242.098,407.894c0,0-11.759-11.45-14.305-14.196c-3.757-4.053-2.023-11.861,1.223-13.964"/>
									</g>
									<g>
										<g>
											<path style="fill:#F4D792;" d="M231.427,431.468v-4.475c0,0,0.483-17.398,19.914-11.002c0,0,0.845-12.31,10.258-18.586
												c9.414-6.276,17.379,9.293,17.379,9.293s17.017-14,23.655,6.517c0,0,23.775-3.621,23.534,17.379"/>
											<path style="fill:#D8A235;" d="M231.427,431.468l-0.049-3.972c-0.033-1.332,0.209-2.654,0.537-3.941
												c0.676-2.559,1.985-5.05,4.099-6.759c2.094-1.749,4.871-2.45,7.542-2.481c2.692,0.012,5.345,0.56,7.885,1.373
												l-0.418,0.281c0.376-3.733,1.428-7.362,3.166-10.682c1.708-3.325,4.237-6.263,7.387-8.344
												c0.8-0.526,1.696-0.916,2.628-1.182c0.939-0.257,1.931-0.31,2.896-0.204c1.95,0.208,3.71,1.14,5.218,2.266
												c3.01,2.327,5.252,5.389,7.049,8.677l-0.663-0.138c2.065-1.59,4.316-2.855,6.754-3.745c2.422-0.866,5.11-1.306,7.7-0.713
												c2.582,0.581,4.865,2.216,6.396,4.306c1.59,2.067,2.626,4.467,3.401,6.902l-0.37-0.229
												c2.865-0.335,5.73-0.274,8.563,0.147c2.819,0.439,5.617,1.298,8.055,2.825c2.456,1.5,4.388,3.793,5.528,6.404
												c1.118,2.632,1.495,5.51,1.438,8.335c-0.013-2.826-0.464-5.682-1.631-8.248c-1.191-2.546-3.131-4.73-5.557-6.13
												c-2.404-1.436-5.14-2.251-7.914-2.639c-2.774-0.376-5.625-0.391-8.381-0.03l-0.005,0.001
												c-0.164,0.021-0.316-0.078-0.366-0.23c-0.786-2.381-1.852-4.683-3.364-6.642c-1.471-1.984-3.585-3.465-5.967-3.994
												c-2.391-0.538-4.922-0.125-7.244,0.718c-2.324,0.856-4.541,2.12-6.484,3.632c-0.192,0.151-0.47,0.118-0.621-0.074
												c-0.015-0.019-0.03-0.043-0.042-0.063c-0.853-1.581-1.877-3.116-2.999-4.537c-1.126-1.421-2.374-2.755-3.802-3.842
												c-1.423-1.074-3.049-1.931-4.79-2.122c-1.738-0.233-3.497,0.285-4.987,1.239c-3.014,1.973-5.476,4.79-7.147,8.011
												c-1.686,3.208-2.805,6.77-3.207,10.368l-0.002,0.016c-0.02,0.174-0.177,0.3-0.351,0.28
												c-0.022-0.003-0.045-0.008-0.066-0.014c-2.486-0.835-5.073-1.403-7.684-1.452c-2.595-0.009-5.24,0.646-7.298,2.262
												c-2.074,1.589-3.425,3.988-4.155,6.503C231.265,426.136,231.506,428.829,231.427,431.468z"/>
										</g>
										<path style="fill:#D8A235;" d="M265.724,407.063c0,0.82-0.665,1.486-1.486,1.486c-0.82,0-1.486-0.665-1.486-1.486
											c0-0.82,0.665-1.486,1.486-1.486C265.059,405.578,265.724,406.243,265.724,407.063z M270.807,409.253
											c-0.605,0-1.095,0.49-1.095,1.095c0,0.605,0.49,1.095,1.095,1.095c0.605,0,1.095-0.49,1.095-1.095
											C271.901,409.743,271.411,409.253,270.807,409.253z M264.239,410.444c-0.897,0-1.624,0.727-1.624,1.624
											c0,0.897,0.727,1.624,1.624,1.624c0.897,0,1.624-0.727,1.624-1.624C265.862,411.171,265.135,410.444,264.239,410.444z
											 M307.711,419.73c-1.036,0-1.876,0.84-1.876,1.877c0,1.036,0.84,1.876,1.876,1.876c1.036,0,1.876-0.84,1.876-1.876
											C309.588,420.57,308.748,419.73,307.711,419.73z M314.905,421.421c-0.783,0-1.417,0.634-1.417,1.417
											c0,0.783,0.634,1.417,1.417,1.417c0.783,0,1.417-0.634,1.417-1.417C316.322,422.055,315.687,421.421,314.905,421.421z
											 M310.839,424.499c-0.821,0-1.486,0.665-1.486,1.486c0,0.82,0.665,1.486,1.486,1.486c0.82,0,1.486-0.665,1.486-1.486
											C312.324,425.164,311.659,424.499,310.839,424.499z"/>
										<path style="fill:#D8A235;" d="M296.897,436.457c-5.696-4.416-12.024-8.144-18.501-11.46
											c2.347-3.27,5.195-6.038,7.603-9.263c0.291-0.389-0.202-0.844-0.588-0.586c-3.296,2.206-5.98,5.816-8.169,9.255
											c-2.222-1.118-4.458-2.19-6.69-3.224c-0.602-0.278-1.127,0.609-0.519,0.904c2.218,1.077,4.393,2.211,6.542,3.385
											c-0.146,0.238-0.291,0.474-0.433,0.708c-2.507,4.134-4.348,8.507-5.637,13.161c-0.144,0.518,0.624,0.839,0.795,0.309
											c1.501-4.638,3.514-9.122,6.138-13.237c0.073-0.114,0.153-0.221,0.227-0.334c6.334,3.516,12.436,7.373,18.599,11.257
											C296.777,437.656,297.385,436.836,296.897,436.457z"/>
									</g>
								</g>
								<path style="fill:#B57164;" d="M160.524,298.776c-2.527-0.665-6.147,10.626-2.495,11.131c0,0-0.465,4.525,2.826,3.144
									c0,0-0.181,3.959,2.386,3.358c0,0,0.332,4.469,2.51,3.152c2.178-1.316,3.99-10,3.484-11.694
									c-0.497-1.662-1.381-1.29-2.15-0.56c0,0-0.195-4.672-3.105-3.128c0,0,0.311-4.01-2.356-2.96
									C161.624,301.219,162.319,299.248,160.524,298.776z"/>
							</g>
							<g>
								<path style="fill:#FFC343;" d="M178.446,265.231c0.343-2.701-0.895-44.512-0.895-51.684c0-13.761-0.28-18.887-5.872-23.271
									c-5.592-4.384-13.901,66.954-14.72,72.244C156.141,267.811,177.705,271.067,178.446,265.231z"/>
								<g>
									<path style="fill:#D69331;" d="M163.671,215.92l-4.608,35.729l-1.196,8.928l-0.161,1.117l-0.085,0.563
										c-0.029,0.186-0.065,0.396-0.056,0.497c-0.04,0.502,0.266,1.045,0.747,1.503c0.977,0.915,2.338,1.554,3.696,2.066
										c2.755,1.009,5.72,1.543,8.678,1.673c1.479,0.073,2.975,0.036,4.421-0.274c0.715-0.165,1.437-0.372,2.058-0.767
										c0.622-0.373,1.156-0.968,1.28-1.724c-0.052,0.763-0.548,1.444-1.167,1.892c-0.623,0.462-1.356,0.723-2.084,0.944
										c-1.472,0.42-3,0.559-4.519,0.587c-3.04-0.001-6.079-0.422-9.008-1.357c-1.456-0.484-2.921-1.069-4.168-2.19
										c-0.6-0.547-1.197-1.383-1.157-2.408c0.001-0.275,0.033-0.436,0.056-0.621l0.072-0.552l0.137-1.115l1.126-8.937
										c0.801-5.954,1.627-11.906,2.619-17.833c0.496-2.964,0.997-5.926,1.533-8.883
										C162.458,221.806,163.016,218.853,163.671,215.92z"/>
								</g>
								<path style="fill:#D69331;" d="M156.502,264.887c-0.349,0.133-2.963-0.433-3.05-0.951c-0.087-0.518,0.959-3.923,2.091-4.123
									c1.133-0.2,22.308,1.869,25.184,3.471s0,4.139-1.481,4.005c0,0,0.871,0.467,0.697,1.335
									c-0.174,0.868-0.261,2.871-1.743,2.804c-1.481-0.067-25.097-0.734-25.445-1.669s-0.436-4.084,0.436-4.145
									S156.502,264.887,156.502,264.887z"/>
							</g>
							<g>
								<path style="fill:#B57164;" d="M81.925,169.607c0,0-5.586,3.784-3.463,16.894s10.39,44.17,10.39,44.17
									s-1.62,9.519-0.209,11.22c1.508,1.818,8.406,8.757,14.968,6.771c-1.01-1.857-2.839-5.365-2.406-6.562
									c0.433-1.198,6.724-1.212,6.724-1.212c0.43-1.585-1.912-7.354-5.263-9.197c-3.35-1.843-7.507-34.427-8.177-38.112
									c-0.67-3.685-0.656-6.335-0.656-6.335L81.925,169.607z"/>
								<g>
									<g>
										<g>
											<path style="fill:#FFC343;" d="M131.406,173.612c-8.926-4.192-37.285-6.898-44.39-6.526
												c-7.105,0.372-1.576,15.742,5.292,22.004c4.989,4.548,18.043,7.191,25.525,7.779
												C130.762,197.883,135.667,175.614,131.406,173.612z"/>
										</g>
									</g>
									<g>
										<g>
											<g>
												<path style="fill:#D69331;" d="M87.015,167.086c-0.546,0.091-1.094,0.215-1.54,0.526
													c-0.448,0.296-0.8,0.704-1.035,1.177c-0.434,0.97-0.501,2.071-0.397,3.14c0.196,2.152,0.888,4.251,1.727,6.258
													c0.866,2.001,1.885,3.942,3.102,5.746c1.201,1.803,2.564,3.535,4.182,4.899c1.604,1.345,3.58,2.32,5.586,3.153
													c2.012,0.846,4.111,1.507,6.223,2.125c4.241,1.189,8.573,2.121,12.968,2.758c-4.444-0.117-8.886-0.709-13.233-1.745
													c-2.178-0.507-4.326-1.157-6.433-1.96c-2.092-0.831-4.162-1.82-5.981-3.31c-1.756-1.52-3.157-3.326-4.376-5.23
													c-1.202-1.914-2.229-3.934-3.009-6.052c-0.782-2.111-1.364-4.328-1.411-6.615c-0.007-1.134,0.166-2.318,0.74-3.337
													c0.306-0.498,0.737-0.917,1.246-1.183C85.89,167.165,86.466,167.111,87.015,167.086z"/>
											</g>
										</g>
									</g>
									<path style="fill:#D69331;" d="M96.699,191.727c0,0-7.744-27.782-11.262-28.514c-3.518-0.732-3.829,5.256-3.35,5.688
										c0,0-3.183-0.725-4.523,2.123c-1.34,2.848,1.025,4.403,6.701,11.868C92.749,194.051,97.942,196.154,96.699,191.727z"/>
								</g>
							</g>
						</g>
					</g>
				</g>
			</g>
			<g>
				<path style="opacity:0.6;fill:#F4D792;" d="M457.661,433.437c0,2.906-31.723,3.766-70.79,5.262
					c-41.931,1.606-72.646-1.305-70.79-5.262c1.234-2.632,31.694-5.263,70.79-5.263S457.661,430.531,457.661,433.437z"/>
				<g>
					<g>
						<g>
							<g>
								<rect x="356.081" y="410.23" style="fill:#B57164;" width="12.661" height="8.809"/>
							</g>
							<path style="fill:#1D2F4C;" d="M356.852,419.04l1.156-2.575c0.282-0.628-0.178-1.338-0.866-1.338h-9.285
								c-0.689,0-1.148,0.71-0.866,1.338l1.156,2.575c0,0-19.311,2.991-18.661,14.398h42.875V419.04H356.852z"/>
							<path style="fill:#FFFFFF;" d="M329.969,429.935c-0.369,1.07-0.556,2.231-0.483,3.502h42.875v-3.502H329.969z"/>
							<g>
								
									<line style="fill:none;stroke:#FFFFFF;stroke-width:0.8784;stroke-linecap:round;stroke-linejoin:round;stroke-miterlimit:10;" x1="348.497" y1="420.68" x2="342.082" y2="420.68"/>
								
									<line style="fill:none;stroke:#FFFFFF;stroke-width:0.8784;stroke-linecap:round;stroke-linejoin:round;stroke-miterlimit:10;" x1="344.789" y1="422.331" x2="338.374" y2="422.331"/>
								
									<line style="fill:none;stroke:#FFFFFF;stroke-width:0.8784;stroke-linecap:round;stroke-linejoin:round;stroke-miterlimit:10;" x1="341.582" y1="423.982" x2="335.167" y2="423.982"/>
							</g>
						</g>
						<g>
							<g>
								<rect x="407.582" y="410.23" style="fill:#B57164;" width="12.661" height="8.809"/>
							</g>
							<path style="fill:#1D2F4C;" d="M419.472,419.04l-1.156-2.575c-0.282-0.628,0.178-1.338,0.866-1.338h9.285
								c0.689,0,1.148,0.71,0.866,1.338l-1.156,2.575c0,0,19.311,2.991,18.661,14.398h-42.875V419.04H419.472z"/>
							<path style="fill:#FFFFFF;" d="M446.355,429.935c0.369,1.07,0.556,2.231,0.483,3.502h-42.875v-3.502H446.355z"/>
							<g>
								
									<line style="fill:none;stroke:#FFFFFF;stroke-width:0.8784;stroke-linecap:round;stroke-linejoin:round;stroke-miterlimit:10;" x1="427.827" y1="420.68" x2="434.242" y2="420.68"/>
								
									<line style="fill:none;stroke:#FFFFFF;stroke-width:0.8784;stroke-linecap:round;stroke-linejoin:round;stroke-miterlimit:10;" x1="431.535" y1="422.331" x2="437.95" y2="422.331"/>
								
									<line style="fill:none;stroke:#FFFFFF;stroke-width:0.8784;stroke-linecap:round;stroke-linejoin:round;stroke-miterlimit:10;" x1="434.742" y1="423.982" x2="441.157" y2="423.982"/>
							</g>
						</g>
						<g>
							<g>
								<g>
									<g>
										<g>
											<g>
												<g>
													<g>
														<g>
															<g>
																<polygon style="fill:#15588C;" points="350.063,271.001 347.479,411.92 375.435,411.92 377.647,297.709 
																	401.307,411.92 428.655,411.92 404.622,270.207 																"/>
															</g>
														</g>
													</g>
												</g>
											</g>
										</g>
									</g>
								</g>
							</g>
							<g>
								
									<line style="fill:none;stroke:#1D2F4C;stroke-width:0.8784;stroke-miterlimit:10;" x1="348.497" y1="406.165" x2="374.581" y2="406.165"/>
								
									<line style="fill:none;stroke:#1D2F4C;stroke-width:0.8784;stroke-miterlimit:10;" x1="400.02" y1="406.165" x2="427.827" y2="406.165"/>
								
									<line style="fill:none;stroke:#1D2F4C;stroke-width:0.8784;stroke-miterlimit:10;" x1="377.261" y1="292.402" x2="368.742" y2="411.92"/>
								
									<line style="fill:none;stroke:#1D2F4C;stroke-width:0.8784;stroke-miterlimit:10;" x1="401.307" y1="411.92" x2="375.041" y2="282.473"/>
								
									<line style="fill:none;stroke:#1D2F4C;stroke-width:0.8784;stroke-miterlimit:10;" x1="408.323" y1="411.92" x2="379.043" y2="300.374"/>
							</g>
						</g>
						<path style="opacity:0.25;fill:#1D2F4C;" d="M406.638,282.092l-2.016-11.885l-54.559,0.793l-0.185,10.083
							C360.955,286.763,379.16,291.088,406.638,282.092z"/>
					</g>
					<g>
						<path style="fill:#1D2F4C;" d="M395.12,263.188h-17.479c-10.805,0-19.563-8.759-19.563-19.563v-36.898
							c0-10.805,8.759-19.563,19.563-19.563h17.479c10.805,0,19.563,8.759,19.563,19.563v36.898
							C414.684,254.43,405.925,263.188,395.12,263.188z"/>
						<g>
							<path style="fill:#E86666;" d="M348.578,267.479c0,0-0.86,4.301,0.645,6.99c0,0,11.399,7.528,30.326,7.42
								c18.927-0.108,27.745-6.13,27.745-6.13s2.258-1.936,0-7.313L348.578,267.479z"/>
							<g>
								<g>
									<path style="fill:#BD425B;" d="M351.482,275.736c-0.439-0.449-0.719-0.981-0.926-1.529
										c-0.215-0.549-0.322-1.128-0.381-1.712c-0.055-0.585,0-1.183,0.129-1.763c0.127-0.579,0.374-1.147,0.767-1.628
										c0.151,0.612,0.207,1.152,0.278,1.693c0.068,0.538,0.121,1.063,0.163,1.595
										C351.576,273.462,351.648,274.517,351.482,275.736z"/>
								</g>
								<g>
									<path style="fill:#BD425B;" d="M354.059,270.404c0.149,0.612,0.205,1.152,0.276,1.693c0.078,0.538,0.105,1.064,0.165,1.595
										c0.067,1.069,0.139,2.124-0.03,3.344c-0.44-0.448-0.721-0.98-0.928-1.528c-0.205-0.55-0.337-1.126-0.379-1.713
										C353.088,272.635,353.28,271.381,354.059,270.404z"/>
								</g>
								<g>
									<path style="fill:#BD425B;" d="M357.696,278.22c-0.439-0.449-0.719-0.981-0.926-1.529
										c-0.215-0.549-0.322-1.128-0.381-1.712c-0.055-0.585,0-1.183,0.129-1.763c0.127-0.579,0.374-1.147,0.767-1.628
										c0.15,0.613,0.207,1.152,0.278,1.693c0.068,0.538,0.121,1.063,0.163,1.595C357.79,275.945,357.862,277,357.696,278.22z"/>
								</g>
								<g>
									<path style="fill:#BD425B;" d="M360.922,279.403c-0.439-0.449-0.719-0.981-0.926-1.529
										c-0.215-0.549-0.322-1.128-0.381-1.712c-0.054-0.585,0-1.183,0.129-1.763c0.127-0.579,0.374-1.147,0.767-1.628
										c0.151,0.613,0.207,1.152,0.278,1.693c0.068,0.538,0.121,1.063,0.163,1.595
										C361.016,277.129,361.088,278.184,360.922,279.403z"/>
								</g>
								<g>
									<path style="fill:#BD425B;" d="M364.148,280.081c-0.439-0.449-0.719-0.981-0.926-1.529
										c-0.215-0.549-0.322-1.128-0.381-1.712c-0.055-0.585,0-1.183,0.129-1.763c0.127-0.58,0.374-1.147,0.767-1.628
										c0.15,0.613,0.207,1.152,0.278,1.693c0.068,0.538,0.121,1.063,0.163,1.595
										C364.242,277.807,364.314,278.862,364.148,280.081z"/>
								</g>
								<g>
									<path style="fill:#BD425B;" d="M367.983,280.899c-0.439-0.449-0.719-0.981-0.926-1.529
										c-0.215-0.549-0.322-1.128-0.381-1.712c-0.055-0.585,0-1.183,0.129-1.763c0.127-0.579,0.374-1.147,0.767-1.628
										c0.15,0.612,0.207,1.152,0.278,1.693c0.068,0.538,0.121,1.063,0.163,1.595
										C368.077,278.624,368.149,279.679,367.983,280.899z"/>
								</g>
								<g>
									<path style="fill:#BD425B;" d="M371.818,281.316c-0.439-0.449-0.719-0.981-0.926-1.529
										c-0.215-0.549-0.322-1.128-0.381-1.712c-0.055-0.585,0-1.183,0.129-1.763c0.127-0.579,0.374-1.147,0.767-1.628
										c0.151,0.613,0.207,1.152,0.278,1.693c0.068,0.538,0.121,1.063,0.163,1.595
										C371.913,279.042,371.984,280.097,371.818,281.316z"/>
								</g>
								<g>
									<path style="fill:#BD425B;" d="M375.502,281.698c-0.439-0.449-0.719-0.981-0.926-1.529
										c-0.215-0.549-0.322-1.128-0.381-1.712c-0.055-0.585,0-1.183,0.129-1.763c0.127-0.579,0.374-1.147,0.767-1.628
										c0.15,0.613,0.207,1.152,0.278,1.693c0.068,0.538,0.121,1.063,0.163,1.595
										C375.596,279.424,375.668,280.479,375.502,281.698z"/>
								</g>
								<g>
									<path style="fill:#BD425B;" d="M379.298,281.698c-0.439-0.449-0.719-0.981-0.926-1.529
										c-0.215-0.549-0.322-1.128-0.381-1.712c-0.055-0.585,0-1.183,0.129-1.763c0.127-0.579,0.374-1.147,0.767-1.628
										c0.151,0.613,0.207,1.152,0.278,1.693c0.068,0.538,0.121,1.063,0.163,1.595
										C379.392,279.424,379.464,280.479,379.298,281.698z"/>
								</g>
								<g>
									<path style="fill:#BD425B;" d="M383.094,281.698c-0.439-0.449-0.719-0.981-0.926-1.529
										c-0.215-0.549-0.322-1.128-0.381-1.712c-0.055-0.585,0-1.183,0.129-1.763c0.127-0.579,0.374-1.147,0.767-1.628
										c0.151,0.613,0.207,1.152,0.278,1.693c0.068,0.538,0.121,1.063,0.163,1.595
										C383.188,279.424,383.26,280.479,383.094,281.698z"/>
								</g>
								<g>
									<path style="fill:#BD425B;" d="M405.283,276.828c-0.326-1.187-0.394-2.242-0.472-3.31c-0.028-0.533-0.046-1.06-0.049-1.603
										c-0.001-0.545-0.016-1.088,0.052-1.715c0.453,0.424,0.773,0.955,0.976,1.512c0.205,0.558,0.338,1.143,0.361,1.73
										c0.018,0.587-0.011,1.175-0.152,1.748C405.865,275.761,405.658,276.325,405.283,276.828z"/>
								</g>
								<g>
									<path style="fill:#BD425B;" d="M402.401,277.998c-0.326-1.187-0.394-2.242-0.472-3.31c-0.028-0.533-0.046-1.06-0.049-1.602
										c-0.001-0.545-0.016-1.088,0.052-1.715c0.453,0.424,0.773,0.955,0.976,1.512c0.205,0.558,0.338,1.143,0.361,1.73
										c0.018,0.587-0.011,1.175-0.152,1.747C402.983,276.931,402.776,277.495,402.401,277.998z"/>
								</g>
								<g>
									<path style="fill:#BD425B;" d="M398.768,279.231c-0.326-1.187-0.394-2.242-0.472-3.31c-0.028-0.533-0.046-1.06-0.049-1.602
										c-0.001-0.545-0.016-1.088,0.052-1.715c0.453,0.424,0.773,0.955,0.976,1.512c0.205,0.558,0.338,1.143,0.361,1.73
										c0.018,0.587-0.011,1.175-0.152,1.748C399.35,278.164,399.143,278.728,398.768,279.231z"/>
								</g>
								<g>
									<path style="fill:#BD425B;" d="M395.077,280.142c-0.326-1.187-0.394-2.242-0.472-3.31c-0.028-0.533-0.046-1.06-0.049-1.603
										c-0.001-0.545-0.016-1.088,0.052-1.715c0.453,0.424,0.773,0.955,0.976,1.512c0.205,0.558,0.338,1.143,0.361,1.73
										c0.018,0.587-0.011,1.175-0.152,1.747C395.66,279.075,395.453,279.639,395.077,280.142z"/>
								</g>
								<g>
									<path style="fill:#BD425B;" d="M390.735,274.313c0.901,0.865,1.257,2.082,1.337,3.243c0.036,0.587-0.019,1.175-0.15,1.748
										c-0.133,0.571-0.341,1.135-0.718,1.638c-0.329-1.187-0.397-2.242-0.472-3.31c-0.011-0.534-0.054-1.06-0.047-1.603
										C390.684,275.482,390.668,274.939,390.735,274.313z"/>
								</g>
								<g>
									<path style="fill:#BD425B;" d="M387.34,281.314c-0.326-1.187-0.394-2.242-0.472-3.31c-0.028-0.533-0.046-1.06-0.049-1.603
										c-0.001-0.545-0.016-1.088,0.052-1.715c0.454,0.424,0.773,0.955,0.976,1.512c0.205,0.558,0.338,1.143,0.361,1.73
										c0.018,0.587-0.011,1.175-0.152,1.748C387.923,280.247,387.716,280.811,387.34,281.314z"/>
								</g>
							</g>
						</g>
						<g>
							<path style="fill:#E86666;" d="M332.032,233.429c1.339-2.371,12.815-22.072,16.191-28.401
								c3.375-6.329,8.697-15.683,15.8-15.857c7.103-0.175-15.142,51.424-17.646,56.156c-2.504,4.732-10.677,4.624-13.903,1.29
								C329.247,243.283,329.14,238.551,332.032,233.429z"/>
							<path style="fill:#E86666;" d="M356.615,204.723c0,0-13.065,55.658-9.678,62.595c3.387,6.936,25.325,8.549,40.81,7.42
								c15.485-1.129,20.97-2.097,20.808-8.227c-0.161-6.13-4.477-72.265-6.594-73.555c-2.117-1.29-31.337-3.71-35.439-3.871
								S359.195,189.068,356.615,204.723z"/>
							<path style="opacity:0.3;fill:#E86666;" d="M407.528,249.173l-34.527-5.142l-2.942,5.064c0,0,10.157,13.326,26.503,15.658
								c6.047,0.863,8.889,1.469,11.955,0.755C408.398,262.848,408.036,256.76,407.528,249.173z"/>
							<g>
								
									<path style="fill:none;stroke:#BD425B;stroke-width:1.3422;stroke-linecap:round;stroke-linejoin:round;stroke-miterlimit:10;" d="
									M370.58,191.501c0,0-7.174,3.826-4.093,8.915c3.081,5.089,22.628,4.5,26.296,0c3.669-4.5-1.703-9.19-1.703-9.19"/>
								
									<line style="fill:none;stroke:#BD425B;stroke-width:1.3422;stroke-linecap:round;stroke-linejoin:round;stroke-miterlimit:10;" x1="365.726" y1="197.621" x2="371.361" y2="195.808"/>
								
									<line style="fill:none;stroke:#BD425B;stroke-width:1.3422;stroke-linecap:round;stroke-linejoin:round;stroke-miterlimit:10;" x1="367.869" y1="201.77" x2="371.684" y2="197.621"/>
								
									<line style="fill:none;stroke:#BD425B;stroke-width:1.3422;stroke-linecap:round;stroke-linejoin:round;stroke-miterlimit:10;" x1="372.511" y1="203.449" x2="374.641" y2="199.403"/>
								
									<line style="fill:none;stroke:#BD425B;stroke-width:1.3422;stroke-linecap:round;stroke-linejoin:round;stroke-miterlimit:10;" x1="377.293" y1="204.016" x2="378.012" y2="199.403"/>
								
									<line style="fill:none;stroke:#BD425B;stroke-width:1.3422;stroke-linecap:round;stroke-linejoin:round;stroke-miterlimit:10;" x1="382.011" y1="203.788" x2="382.011" y2="199.403"/>
								
									<line style="fill:none;stroke:#BD425B;stroke-width:1.3422;stroke-linecap:round;stroke-linejoin:round;stroke-miterlimit:10;" x1="387.403" y1="202.893" x2="385.291" y2="198.459"/>
								
									<line style="fill:none;stroke:#BD425B;stroke-width:1.3422;stroke-linecap:round;stroke-linejoin:round;stroke-miterlimit:10;" x1="392.017" y1="201.136" x2="388.257" y2="196.976"/>
								
									<line style="fill:none;stroke:#BD425B;stroke-width:1.3422;stroke-linecap:round;stroke-linejoin:round;stroke-miterlimit:10;" x1="393.924" y1="195.808" x2="389.425" y2="194.774"/>
							</g>
							<path style="fill:#1D2F4C;" d="M401.962,192.956c0,0-7.572,7.201-6.08,21.349c1.491,14.148,4.691,26.363,13.759,36.998v5.796
								c0,0-17.826-15.352-19.534-39.678s5.337-25.645,5.337-25.645S398.827,190.65,401.962,192.956z"/>
							<g>
								<path style="fill:#BD425B;" d="M356.615,204.723c-1.087,5.351-2.195,10.696-3.217,16.057
									c-1.061,5.353-2.083,10.713-3.019,16.086c-0.913,5.376-1.854,10.748-2.538,16.146c-0.341,2.697-0.642,5.403-0.766,8.099
									c-0.039,1.341-0.096,2.7,0.044,3.996c0.065,0.64,0.169,1.29,0.374,1.792c0.233,0.525,0.589,1.028,1.038,1.455
									c1.796,1.76,4.403,2.742,6.938,3.515c2.572,0.764,5.24,1.262,7.919,1.644c5.367,0.764,10.813,0.986,16.248,1.029
									c5.434,0.027,10.88-0.365,16.306-0.849c2.704-0.26,5.422-0.569,8.009-1.359c1.266-0.434,2.523-1.028,3.403-2.046
									c0.912-1.004,1.208-2.425,1.203-3.778c0.071,1.347-0.148,2.807-1.046,3.906c-0.877,1.101-2.164,1.762-3.443,2.254
									c-2.613,0.905-5.343,1.315-8.053,1.677c-5.433,0.618-10.882,1.128-16.369,1.228c-5.479,0.12-10.97-0.14-16.423-0.851
									c-2.724-0.368-5.444-0.853-8.113-1.623c-1.333-0.387-2.656-0.839-3.938-1.429c-1.275-0.595-2.533-1.32-3.592-2.373
									c-0.531-0.518-0.988-1.148-1.3-1.867c-0.306-0.769-0.39-1.485-0.464-2.198c-0.139-1.423-0.068-2.801-0.018-4.185
									c0.147-2.757,0.471-5.48,0.835-8.195c0.748-5.426,1.663-10.817,2.736-16.176c1.061-5.361,2.196-10.704,3.39-16.033
									C353.997,215.326,355.233,210.007,356.615,204.723z"/>
							</g>
							<path style="fill:#1D2F4C;" d="M369.26,189.253c0,0-9.73,8.997-19.461,47.911c0,0,2.357-31.064,13.585-47.994
								C363.384,189.17,366.828,188.184,369.26,189.253z"/>
						</g>
						<g>
							<g>
								<g>
									<path style="fill:#B57164;" d="M390.736,192.29c0,0-0.037-31.379-0.042-35.752c-0.008-6.514-4.223-14.693-18.421-14.677
										c-11.292,0.013-14.091,12.12-14.086,17.065c0.006,4.945,0.012,10.489,0.017,13.984c0.009,7.673,5.73,14.912,11.783,14.905
										c0,0,0.005,0.833,0.005,4.499c0,0.75-0.829,4.09,1.705,5.703c2.534,1.613,6.565,1.267,10.712,1.382
										C386.555,199.514,390.736,196.813,390.736,192.29z"/>
									<g>
										<g style="opacity:0.3;">
											<path style="fill:#B57164;" d="M379.442,186.942c-3.25,3.79-9.453,3.251-9.453,3.251
												c-0.001-1.142-0.003-2.253-0.003-2.361C374.632,188.44,379.442,186.942,379.442,186.942z"/>
										</g>
										<g>
											<path style="fill:#6B332A;" d="M380.216,186.755c-2.387,0.812-4.874,1.372-7.421,1.558
												c-1.276,0.089-2.562,0.098-3.871-0.129c-1.285-0.246-2.54-0.667-3.693-1.299c-1.142-0.643-2.216-1.441-3.071-2.441
												c-0.868-1.004-1.533-2.086-2.138-3.222c-1.195-2.276-1.82-4.837-1.788-7.357c0.358,2.495,1.216,4.863,2.49,6.963
												c0.646,1.038,1.363,2.074,2.174,2.94c0.83,0.867,1.793,1.597,2.849,2.164c1.057,0.562,2.197,0.988,3.376,1.224
												c1.16,0.257,2.407,0.285,3.637,0.287C375.232,187.399,377.728,187.142,380.216,186.755z"/>
										</g>
									</g>
								</g>
								<g>
									<path style="opacity:0.3;fill:#B57164;" d="M390.694,156.538c-0.008-6.514-4.223-14.693-18.421-14.677
										c-11.292,0.013-14.091,12.12-14.086,17.065c0.001,0.446,0.001,0.898,0.002,1.351h16.727l0.827-7.938l1.01,7.938h9.458
										c-0.462,7.09,4.469,8.708,4.469,8.708S390.696,158.712,390.694,156.538z"/>
									<g>
										<g>
											<path style="fill:#1D2F4C;" d="M384.835,139.801c-0.18-0.18-6.189-5.102-5.645-9.844
												c0.543-4.742,4.625-1.921,4.625-1.921s3.301-8.883,12.244-9.003c8.943-0.12,13.805,10.629,8.163,16.149
												c0,0,2.461,4.979,0.12,7.26C402.001,144.723,384.835,139.801,384.835,139.801z"/>
											<g>
												<g>
													<path style="fill:#15588C;" d="M385.905,131.638c-0.094-2.286,0.95-4.597,2.666-6.192
														c1.723-1.633,4.028-2.434,6.288-2.854c1.137-0.222,2.318-0.233,3.486-0.161c1.163,0.143,2.346,0.438,3.349,1.093
														c1.008,0.636,1.812,1.563,2.325,2.609c0.499,1.055,0.738,2.212,0.705,3.349c-0.26-2.241-1.442-4.386-3.353-5.417
														c-0.95-0.508-2.007-0.792-3.093-0.892c-1.091-0.04-2.197-0.009-3.284,0.226c-2.18,0.34-4.327,1.099-6.008,2.517
														c-0.842,0.697-1.554,1.559-2.072,2.539C386.374,129.423,386.028,130.51,385.905,131.638z"/>
												</g>
												<g>
													<path style="fill:#15588C;" d="M380.785,131.638c-0.239-0.51-0.363-1.08-0.302-1.675
														c0.047-0.577,0.354-1.283,1.027-1.587c0.683-0.301,1.359-0.093,1.86,0.172c0.518,0.273,0.938,0.667,1.261,1.129
														c-0.518-0.212-1.022-0.397-1.502-0.538c-0.478-0.125-0.96-0.19-1.278-0.02c-0.347,0.135-0.582,0.512-0.744,0.972
														C380.96,130.558,380.858,131.084,380.785,131.638z"/>
												</g>
												<g>
													<path style="fill:#15588C;" d="M398.256,131.039c1.131,0.87,2.151,1.871,3.094,2.949c0.927,1.09,1.808,2.25,2.335,3.67
														c0.246,0.691,0.433,1.536,0.097,2.354c-0.351,0.834-1.216,1.246-1.945,1.346c-1.505,0.218-2.935-0.108-4.267-0.604
														c0.706,0.09,1.407,0.171,2.106,0.171c0.693,0.022,1.392-0.008,2.026-0.182c0.626-0.18,1.183-0.492,1.362-1.022
														c0.204-0.526,0.086-1.176-0.15-1.79c-0.438-1.253-1.269-2.409-2.055-3.554
														C400.037,133.242,399.148,132.147,398.256,131.039z"/>
												</g>
												<g>
													<path style="fill:#15588C;" d="M400.02,127.199c-1.059,0.045-2.094,0.176-3.095,0.373
														c-0.995,0.214-1.967,0.513-2.793,1.031c-0.829,0.511-1.452,1.272-1.814,2.181c-0.403,0.908-0.44,1.951-0.506,3.011
														c-0.113-0.512-0.243-1.04-0.277-1.58c0.004-0.542-0.007-1.098,0.177-1.635c0.275-1.086,1.023-2.07,1.985-2.67
														c0.971-0.588,2.06-0.872,3.136-0.967C397.91,126.843,398.991,126.929,400.02,127.199z"/>
												</g>
												<g>
													<path style="fill:#15588C;" d="M395.867,133.305c0.864,0.351,1.538,1.089,1.855,2.021c0.137,0.472,0.159,1.002,0,1.478
														c-0.132,0.489-0.504,0.855-0.877,1.108c0.127-0.455,0.248-0.845,0.251-1.233c0.005-0.382-0.04-0.747-0.156-1.112
														C396.711,134.83,396.291,134.125,395.867,133.305z"/>
												</g>
											</g>
										</g>
										<path style="fill:#E86666;" d="M379.19,136.439c0,0-1.798-2.161,1.353-3.301c3.151-1.14,9.451,1.105,13.835,5.402
											c4.385,4.297,2.318,7.623-1.482,6.062C389.096,143.042,379.19,136.439,379.19,136.439z"/>
									</g>
									<path style="fill:#1D2F4C;" d="M396.519,144.988c-9.034-13.563-25.337-12.176-33.719-5.009
										c-8.382,7.167-6.26,19.266-6.26,19.266h17.682l1.521-7.938l1.615,7.938h10.162c-0.462,7.09,3.16,8.708,3.16,8.708
										l0.057,10.488C401.744,176.676,405.552,158.551,396.519,144.988z"/>
									<g>
										<path style="fill:#15588C;" d="M390.736,178.441c2.328-0.47,4.437-1.707,5.999-3.439c1.562-1.732,2.68-3.836,3.36-6.063
											c1.383-4.456,1.401-9.293,0.328-13.828c-0.997-4.559-3.124-8.877-6.09-12.48c-2.971-3.608-7.089-6.271-11.682-7.449
											c2.331,0.427,4.584,1.289,6.66,2.47c2.053,1.221,3.916,2.77,5.5,4.569c1.608,1.783,2.887,3.833,3.972,5.964
											c1.08,2.138,1.901,4.408,2.439,6.746c1.035,4.666,1.027,9.646-0.53,14.208c-0.775,2.27-1.993,4.412-3.667,6.141
											C395.319,176.97,393.097,178.155,390.736,178.441z"/>
									</g>
									<g>
										<g>
											<path style="fill:#15588C;" d="M360.373,159.245c-0.286-2.112-0.303-4.255-0.13-6.39
												c0.066-1.071,0.263-2.131,0.492-3.184c0.231-1.052,0.55-2.099,0.999-3.094c0.92-1.976,2.262-3.749,3.913-5.148
												c1.644-1.368,3.624-2.529,5.783-2.633c-1.045,0.208-2.013,0.636-2.898,1.191c-0.895,0.537-1.721,1.184-2.469,1.907
												c-1.492,1.441-2.775,3.119-3.586,5.02c-0.883,1.865-1.294,3.943-1.605,6.014
												C360.571,155.008,360.43,157.12,360.373,159.245z"/>
										</g>
										<g>
											<path style="fill:#15588C;" d="M368.133,159.245c-0.282-2.082-0.301-4.196-0.138-6.301
												c0.178-2.102,0.589-4.211,1.423-6.202c0.883-1.967,2.252-3.71,3.941-5.025c1.688-1.292,3.711-2.259,5.83-2.33
												c-1.03,0.201-2.006,0.568-2.907,1.068c-0.911,0.478-1.759,1.07-2.524,1.748c-1.527,1.351-2.816,2.988-3.592,4.868
												c-0.848,1.849-1.243,3.899-1.549,5.942C368.329,155.067,368.188,157.15,368.133,159.245z"/>
										</g>
										<g>
											<path style="fill:#15588C;" d="M380.051,159.245c-0.433-2.02-0.449-4.097-0.253-6.147
												c0.233-2.039,0.713-4.111,1.776-5.893c-0.453,2.008-0.752,3.973-0.963,5.98
												C380.395,155.188,380.262,157.197,380.051,159.245z"/>
										</g>
									</g>
								</g>
								<g>
									<g>
										<path style="fill:#B57164;" d="M389.265,172.62c0,0,1.896,1.926,4.615,0.376c2.69-1.534,3.936-6.26,0.743-8.765
											c-2.96-2.322-5.367,0.332-5.367,0.332L389.265,172.62z"/>
									</g>
									<g>
										<path style="fill:#6B332A;" d="M394.94,167.448c-0.722-0.764-1.327-1.363-2.051-1.678
											c-0.355-0.161-0.736-0.288-1.171-0.337c-0.434-0.072-0.898-0.071-1.437-0.135c0.385-0.363,0.865-0.624,1.406-0.716
											c0.538-0.131,1.133-0.025,1.661,0.199c0.523,0.249,0.962,0.65,1.23,1.127C394.85,166.38,395.001,166.912,394.94,167.448z"
											/>
									</g>
									<path style="fill:#FFFFFF;" d="M391.141,172.066c0,0.371,0.301,0.671,0.672,0.671c0.371,0,0.671-0.301,0.671-0.672
										c0-0.371-0.301-0.671-0.672-0.671C391.441,171.395,391.14,171.696,391.141,172.066z"/>
								</g>
							</g>
							<g>
								<g>
									<g>
										<path style="fill:#6B332A;" d="M380.543,163.382c-1.002-0.305-1.818-0.578-2.661-0.68
											c-0.416-0.07-0.835-0.083-1.275-0.066c-0.446,0.002-0.895,0.084-1.436,0.114c0.311-0.423,0.744-0.767,1.253-0.946
											c0.501-0.209,1.067-0.252,1.607-0.182c0.539,0.084,1.057,0.273,1.491,0.578
											C379.956,162.499,380.332,162.887,380.543,163.382z"/>
									</g>
								</g>
								<g>
									<path style="fill:#6B332A;" d="M366.295,165.344c0,0.912-0.493,1.651-1.101,1.651c-0.608,0-1.101-0.739-1.101-1.651
										c0-0.912,0.493-1.651,1.101-1.651C365.802,163.693,366.295,164.432,366.295,165.344z"/>
									<path style="fill:#6B332A;" d="M378.137,165.344c0,0.912-0.493,1.651-1.101,1.651c-0.608,0-1.101-0.739-1.101-1.651
										c0-0.912,0.493-1.651,1.101-1.651C377.644,163.693,378.137,164.432,378.137,165.344z"/>
									<g>
										<path style="fill:#6B332A;" d="M361.845,162.79c0.29-0.453,0.726-0.774,1.203-0.997c0.479-0.23,1.021-0.329,1.566-0.323
											c0.544,0.02,1.095,0.157,1.554,0.446c0.472,0.26,0.842,0.671,1.079,1.14c-0.528-0.119-0.957-0.274-1.397-0.35
											c-0.431-0.089-0.846-0.146-1.268-0.146C363.734,162.521,362.883,162.655,361.845,162.79z"/>
									</g>
								</g>
								<g>
									<path style="fill:#B57164;" d="M368.997,162.581c0,0-1.115,5.655-3.044,8.666c0.523,1.617,3.678,1.661,4.714,0.818"/>
									<path style="fill:#6B332A;" d="M368.997,162.581c-0.01,0.783-0.099,1.558-0.226,2.325c-0.124,0.768-0.288,1.53-0.503,2.281
										c-0.419,1.502-0.994,2.981-1.889,4.333l0.055-0.429c0.128,0.564,0.908,0.985,1.708,1.142
										c0.405,0.085,0.831,0.12,1.258,0.109c0.426-0.021,0.862-0.07,1.265-0.277c-0.306,0.342-0.753,0.551-1.198,0.68
										c-0.451,0.133-0.923,0.187-1.402,0.176c-0.48-0.01-0.967-0.106-1.445-0.318c-0.47-0.208-0.944-0.621-1.15-1.199
										c-0.048-0.135-0.031-0.278,0.035-0.394l0.021-0.036c0.73-1.265,1.275-2.677,1.826-4.088
										C367.898,165.468,368.402,164.026,368.997,162.581z"/>
								</g>
								<g>
									<path style="fill:#6B332A;" d="M375.36,177.047c-0.352-1.165-9.034-1.165-9.387,0c-0.524,1.733,0.999,4.394,4.693,4.394
										S375.884,178.78,375.36,177.047z"/>
									<path style="fill:#FFFFFF;" d="M367.24,176.447c0.458,0.532,1.436,1.221,3.427,1.174c1.746-0.041,2.871-0.623,3.539-1.149
										C372.435,176.083,369.077,176.074,367.24,176.447z"/>
									<path style="fill:#E86666;" d="M370.667,181.441c1.229,0,2.213-0.298,2.966-0.755c-0.675-0.599-1.726-1.277-2.966-1.192
										c-1.312,0.09-2.156,0.817-2.622,1.38C368.747,181.221,369.616,181.441,370.667,181.441z"/>
								</g>
							</g>
						</g>
						<g>
							<g>
								<polygon style="fill:#FFF4EB;" points="302.019,185.217 302.019,263.559 323.655,272.42 351.071,269.104 373.006,271.371 
									374.323,195.315 351.482,193.176 326.672,193.176 								"/>
								<g style="opacity:0.4;">
									<g>
										<path style="fill:#EDCCB4;" d="M319.739,207.936c-1.218-1.728-2.724-3.179-4.334-4.516
											c0.853-1.289,1.734-2.563,2.639-3.832c0.372-0.521-0.343-1.145-0.771-0.647c-1.018,1.182-1.922,2.447-2.742,3.766
											c-0.126-0.099-0.255-0.194-0.381-0.293c-1.053-1.021-2.199-2.141-3.512-2.617c-0.371-0.135-0.88,0.232-0.591,0.638
											c0.95,1.337,2.499,2.309,3.88,3.305c-0.976,1.692-1.832,3.455-2.587,5.255c-0.15,0.356,0.444,0.649,0.619,0.296
											c0.845-1.706,1.805-3.326,2.821-4.909c1.454,1.167,2.863,2.373,4.337,3.512c0.105,0.105,0.206,0.216,0.311,0.321
											C319.6,208.382,319.874,208.127,319.739,207.936z"/>
									</g>
									<g>
										<g>
											<path style="fill:#EDCCB4;" d="M316.839,211.497c-0.201,0-0.384-0.136-0.434-0.341c-0.134-0.542-0.194-0.906-0.194-0.906
												c-0.041-0.243,0.124-0.474,0.367-0.515c0.244-0.046,0.474,0.123,0.515,0.367c0.001,0.009,0.058,0.343,0.18,0.841
												c0.059,0.239-0.087,0.482-0.328,0.541C316.91,211.493,316.874,211.497,316.839,211.497z"/>
										</g>
										<g>
											<path style="fill:#EDCCB4;" d="M331.661,263.997c-0.009,0-0.018,0-0.027-0.001c-0.624-0.038-1.24-0.118-1.831-0.241
												c-0.242-0.05-0.398-0.287-0.347-0.529c0.05-0.242,0.286-0.403,0.529-0.347c0.548,0.114,1.122,0.189,1.703,0.224
												c0.247,0.015,0.435,0.226,0.42,0.474C332.094,263.813,331.896,263.997,331.661,263.997z M333.441,263.946
												c-0.223,0-0.416-0.166-0.444-0.393c-0.03-0.245,0.144-0.468,0.389-0.498c0.564-0.069,1.119-0.194,1.652-0.37
												c0.236-0.08,0.488,0.05,0.565,0.284c0.078,0.235-0.05,0.488-0.284,0.565c-0.589,0.195-1.202,0.332-1.824,0.408
												C333.478,263.945,333.459,263.946,333.441,263.946z M363.999,263.805c-0.023,0-0.046-0.002-0.07-0.005
												c-0.593-0.094-1.204-0.267-1.814-0.517c-0.229-0.094-0.338-0.356-0.244-0.584c0.094-0.229,0.355-0.337,0.584-0.245
												c0.545,0.224,1.088,0.379,1.613,0.461c0.244,0.038,0.411,0.267,0.373,0.511
												C364.406,263.648,364.216,263.805,363.999,263.805z M365.775,263.8c-0.211,0-0.399-0.15-0.439-0.365
												c-0.046-0.242,0.114-0.476,0.357-0.522c0.541-0.101,1.02-0.313,1.423-0.628c0.194-0.151,0.475-0.119,0.628,0.076
												c0.152,0.195,0.118,0.476-0.077,0.628c-0.516,0.405-1.125,0.675-1.809,0.803C365.83,263.797,365.802,263.8,365.775,263.8
												z M328.184,263.268c-0.053,0-0.107-0.01-0.159-0.029c-0.581-0.221-1.145-0.489-1.676-0.797
												c-0.214-0.124-0.287-0.398-0.163-0.612c0.124-0.214,0.398-0.287,0.612-0.163c0.489,0.284,1.008,0.531,1.544,0.734
												c0.231,0.088,0.347,0.346,0.259,0.578C328.534,263.158,328.364,263.268,328.184,263.268z M336.809,262.837
												c-0.156,0-0.309-0.082-0.391-0.228c-0.121-0.216-0.045-0.488,0.171-0.609c0.488-0.274,0.96-0.599,1.402-0.966
												c0.19-0.158,0.472-0.132,0.63,0.059c0.158,0.19,0.132,0.472-0.059,0.63c-0.483,0.401-0.999,0.757-1.534,1.057
												C336.959,262.819,336.884,262.837,336.809,262.837z M360.71,262.48c-0.085,0-0.17-0.024-0.246-0.074
												c-0.543-0.359-1.032-0.761-1.452-1.193c-0.172-0.177-0.168-0.46,0.01-0.633c0.177-0.172,0.461-0.169,0.633,0.009
												c0.375,0.386,0.813,0.746,1.303,1.07c0.206,0.136,0.263,0.414,0.126,0.62C360.998,262.409,360.855,262.48,360.71,262.48z
												 M368.515,261.712c-0.076,0-0.152-0.019-0.223-0.059c-0.214-0.123-0.288-0.397-0.164-0.611
												c0.254-0.441,0.491-0.964,0.705-1.553c0.085-0.232,0.341-0.352,0.573-0.267c0.232,0.084,0.352,0.341,0.267,0.573
												c-0.231,0.637-0.491,1.207-0.771,1.693C368.821,261.632,368.67,261.712,368.515,261.712z M325.111,261.483
												c-0.1,0-0.201-0.033-0.284-0.102c-0.475-0.392-0.922-0.828-1.329-1.294c-0.163-0.186-0.143-0.469,0.043-0.632
												c0.186-0.162,0.468-0.144,0.631,0.043c0.376,0.431,0.788,0.832,1.225,1.193c0.19,0.157,0.218,0.44,0.06,0.63
												C325.368,261.428,325.24,261.483,325.111,261.483z M339.549,260.577c-0.104,0-0.208-0.036-0.293-0.109
												c-0.187-0.162-0.207-0.444-0.046-0.631c0.37-0.427,0.713-0.892,1.019-1.381c0.132-0.209,0.408-0.272,0.617-0.142
												c0.209,0.131,0.273,0.407,0.141,0.617c-0.33,0.527-0.701,1.029-1.101,1.491
												C339.799,260.525,339.674,260.577,339.549,260.577z M358.306,259.899c-0.171,0-0.334-0.098-0.408-0.264
												c-0.197-0.437-0.296-0.864-0.296-1.271c0-0.28,0.048-0.548,0.14-0.799c0.085-0.233,0.341-0.349,0.574-0.267
												c0.232,0.086,0.351,0.342,0.266,0.574c-0.056,0.153-0.084,0.318-0.085,0.492c0,0.278,0.073,0.582,0.218,0.903
												c0.101,0.225,0.001,0.49-0.225,0.592C358.43,259.887,358.367,259.899,358.306,259.899z M322.772,258.808
												c-0.149,0-0.295-0.074-0.38-0.211c-0.328-0.525-0.615-1.079-0.854-1.645c-0.096-0.228,0.011-0.49,0.239-0.586
												c0.226-0.094,0.49,0.011,0.586,0.239c0.22,0.523,0.485,1.034,0.788,1.52c0.131,0.21,0.067,0.486-0.143,0.616
												C322.935,258.786,322.853,258.808,322.772,258.808z M369.77,258.38c-0.036,0-0.072-0.004-0.109-0.013
												c-0.239-0.06-0.385-0.302-0.326-0.543c0.134-0.539,0.254-1.116,0.356-1.715c0.042-0.243,0.274-0.408,0.516-0.366
												c0.244,0.042,0.408,0.273,0.367,0.517c-0.105,0.62-0.23,1.219-0.37,1.781C370.153,258.244,369.97,258.38,369.77,258.38z
												 M341.444,257.566c-0.06,0-0.121-0.012-0.179-0.038c-0.226-0.1-0.329-0.363-0.23-0.59
												c0.232-0.529,0.423-1.074,0.568-1.618c0.063-0.239,0.31-0.381,0.547-0.317c0.239,0.064,0.381,0.309,0.318,0.548
												c-0.157,0.588-0.363,1.176-0.613,1.748C341.781,257.466,341.617,257.566,341.444,257.566z M359.372,256.912
												c-0.16,0-0.314-0.086-0.395-0.237c-0.117-0.218-0.034-0.488,0.184-0.605c0.195-0.104,0.411-0.2,0.65-0.289
												c0.347-0.128,0.664-0.28,0.942-0.451c0.209-0.131,0.485-0.064,0.615,0.147c0.13,0.211,0.064,0.486-0.147,0.615
												c-0.328,0.202-0.698,0.379-1.099,0.528c-0.198,0.073-0.377,0.154-0.539,0.24
												C359.515,256.896,359.443,256.912,359.372,256.912z M321.396,255.53c-0.202,0-0.386-0.138-0.435-0.344
												c-0.146-0.612-0.236-1.232-0.27-1.842c-0.013-0.247,0.175-0.458,0.422-0.471c0.248-0.042,0.458,0.175,0.471,0.422
												c0.031,0.557,0.114,1.124,0.247,1.685c0.057,0.24-0.091,0.481-0.332,0.538C321.465,255.527,321.43,255.53,321.396,255.53
												z M362.261,254.934c-0.081,0-0.163-0.022-0.237-0.068c-0.209-0.131-0.273-0.407-0.141-0.617
												c0.27-0.431,0.419-0.926,0.443-1.471c0.01-0.246,0.222-0.429,0.466-0.428c0.247,0.011,0.438,0.219,0.428,0.467
												c-0.03,0.702-0.225,1.343-0.578,1.908C362.555,254.86,362.41,254.934,362.261,254.934z M370.377,254.864
												c-0.016,0-0.032-0.001-0.048-0.003c-0.246-0.026-0.423-0.246-0.397-0.493c0.062-0.578,0.108-1.165,0.139-1.755
												c0.013-0.247,0.224-0.461,0.47-0.424c0.247,0.012,0.437,0.223,0.424,0.469c-0.031,0.607-0.079,1.21-0.143,1.805
												C370.797,254.694,370.603,254.864,370.377,254.864z M342.347,254.127c-0.013,0-0.026-0.001-0.039-0.002
												c-0.246-0.021-0.429-0.239-0.407-0.484c0.021-0.244,0.032-0.484,0.031-0.721c0-0.332-0.021-0.655-0.063-0.961
												c-0.033-0.245,0.139-0.47,0.384-0.503c0.242-0.041,0.47,0.138,0.503,0.383c0.047,0.346,0.07,0.71,0.07,1.081
												c0.001,0.262-0.011,0.529-0.035,0.799C342.772,253.951,342.577,254.127,342.347,254.127z M321.218,251.988
												c-0.022,0-0.044-0.002-0.066-0.005c-0.244-0.036-0.413-0.264-0.377-0.508c0.095-0.639,0.261-1.252,0.492-1.823
												c0.093-0.23,0.356-0.341,0.583-0.246c0.229,0.093,0.339,0.354,0.246,0.583c-0.205,0.504-0.352,1.049-0.436,1.617
												C321.627,251.828,321.436,251.988,321.218,251.988z M362.503,251.491c-0.188,0-0.363-0.119-0.425-0.308
												c-0.164-0.496-0.407-1.005-0.722-1.512c-0.131-0.21-0.066-0.485,0.143-0.616c0.21-0.129,0.485-0.066,0.616,0.144
												c0.353,0.566,0.626,1.139,0.812,1.704c0.078,0.234-0.05,0.488-0.284,0.564
												C362.596,251.484,362.549,251.491,362.503,251.491z M370.561,251.3c-0.247,0-0.447-0.199-0.447-0.447
												c-0.001-0.592-0.019-1.181-0.054-1.758c-0.015-0.246,0.173-0.459,0.419-0.474c0.251-0.027,0.459,0.173,0.474,0.419
												c0.036,0.595,0.055,1.201,0.056,1.811C371.009,251.099,370.809,251.299,370.561,251.3
												C370.562,251.3,370.561,251.3,370.561,251.3z M341.825,250.636c-0.168,0-0.328-0.094-0.405-0.256
												c-0.219-0.465-0.507-0.864-0.855-1.187c-0.183-0.167-0.246-0.497-0.079-0.68c0.167-0.183,0.398-0.24,0.581-0.075
												l0.069,0.064c0.47,0.435,0.825,0.927,1.094,1.495c0.105,0.224,0.01,0.49-0.214,0.596
												C341.954,250.622,341.889,250.636,341.825,250.636z M322.445,248.657c-0.05,0-0.101-0.009-0.151-0.026
												c-0.232-0.083-0.354-0.339-0.27-0.572c0.146-0.41,0.221-0.826,0.221-1.236c0-0.109-0.005-0.219-0.016-0.329
												c-0.023-0.245,0.158-0.464,0.404-0.487c0.252-0.012,0.464,0.158,0.487,0.405c0.012,0.136,0.019,0.272,0.019,0.409
												c0,0.515-0.092,1.031-0.273,1.538C322.802,248.544,322.629,248.657,322.445,248.657z M360.658,248.463
												c-0.122,0-0.244-0.05-0.332-0.148c-0.378-0.419-0.797-0.815-1.245-1.178c-0.192-0.156-0.222-0.437-0.066-0.629
												c0.156-0.192,0.437-0.223,0.629-0.066c0.484,0.391,0.937,0.821,1.347,1.274c0.166,0.184,0.151,0.466-0.032,0.632
												C360.872,248.425,360.765,248.463,360.658,248.463z M339.446,248.011c-0.108,0-0.217-0.039-0.302-0.118
												c-0.42-0.384-0.862-0.795-1.312-1.226c-0.178-0.171-0.184-0.454-0.013-0.633c0.171-0.178,0.454-0.184,0.633-0.014
												c0.445,0.427,0.882,0.833,1.297,1.214c0.182,0.167,0.194,0.45,0.027,0.632
												C339.688,247.962,339.567,248.011,339.446,248.011z M370.34,247.737c-0.222,0-0.415-0.165-0.443-0.391
												c-0.077-0.606-0.175-1.185-0.291-1.722c-0.052-0.241,0.101-0.48,0.343-0.531c0.24-0.053,0.48,0.1,0.532,0.343
												c0.122,0.562,0.224,1.167,0.305,1.798c0.031,0.245-0.142,0.469-0.387,0.501
												C370.378,247.736,370.359,247.737,370.34,247.737z M357.895,246.223c-0.077,0-0.154-0.019-0.226-0.061
												c-0.499-0.292-1.018-0.541-1.541-0.739c-0.231-0.088-0.347-0.347-0.259-0.578c0.088-0.231,0.347-0.343,0.577-0.26
												c0.569,0.217,1.132,0.487,1.675,0.804c0.213,0.125,0.285,0.398,0.16,0.612
												C358.198,246.143,358.048,246.223,357.895,246.223z M336.874,245.531c-0.117,0-0.234-0.045-0.322-0.136
												c-0.415-0.431-0.827-0.876-1.223-1.334c-0.162-0.187-0.142-0.469,0.045-0.631c0.186-0.162,0.469-0.142,0.631,0.046
												c0.386,0.446,0.786,0.879,1.191,1.298c0.172,0.178,0.166,0.461-0.011,0.633
												C337.098,245.489,336.986,245.531,336.874,245.531z M322.156,245.208c-0.162,0-0.318-0.087-0.398-0.241
												c-0.235-0.452-0.557-0.912-0.96-1.369c-0.163-0.185-0.145-0.468,0.04-0.631c0.185-0.164,0.468-0.145,0.632,0.04
												c0.45,0.511,0.814,1.032,1.082,1.548c0.114,0.219,0.028,0.489-0.191,0.603
												C322.296,245.192,322.225,245.208,322.156,245.208z M354.572,244.969c-0.031,0-0.064-0.004-0.096-0.01
												c-0.71-0.155-1.315-0.416-1.799-0.775c-0.198-0.148-0.24-0.427-0.092-0.626c0.148-0.198,0.427-0.239,0.626-0.093
												c0.381,0.283,0.871,0.491,1.456,0.619c0.241,0.052,0.394,0.291,0.341,0.532
												C354.963,244.826,354.778,244.969,354.572,244.969z M369.566,244.257c-0.184,0-0.357-0.115-0.422-0.299
												c-0.209-0.594-0.449-1.106-0.712-1.522c-0.132-0.209-0.07-0.485,0.139-0.618c0.21-0.129,0.485-0.07,0.617,0.139
												c0.299,0.473,0.568,1.046,0.8,1.704c0.082,0.233-0.04,0.488-0.273,0.571
												C369.665,244.249,369.615,244.257,369.566,244.257z M351.904,242.856c-0.184,0-0.357-0.115-0.422-0.299
												c-0.162-0.459-0.244-0.978-0.244-1.541c0-0.13,0.004-0.261,0.013-0.396c0.015-0.247,0.225-0.433,0.475-0.419
												c0.247,0.016,0.434,0.228,0.419,0.474c-0.007,0.115-0.011,0.229-0.011,0.34c0,0.462,0.065,0.881,0.194,1.244
												c0.082,0.232-0.04,0.489-0.273,0.571C352.004,242.848,351.953,242.856,351.904,242.856z M334.551,242.821
												c-0.137,0-0.273-0.063-0.36-0.182c-0.382-0.518-0.723-1.033-1.012-1.528c-0.124-0.213-0.052-0.488,0.161-0.612
												c0.214-0.126,0.488-0.052,0.612,0.161c0.273,0.468,0.596,0.955,0.959,1.448c0.147,0.199,0.104,0.479-0.094,0.626
												C334.736,242.792,334.643,242.821,334.551,242.821z M319.85,242.511c-0.101,0-0.203-0.034-0.287-0.105
												c-0.415-0.348-0.884-0.7-1.392-1.046c-0.204-0.139-0.257-0.418-0.118-0.621c0.139-0.204,0.416-0.257,0.622-0.118
												c0.532,0.363,1.025,0.733,1.462,1.1c0.189,0.158,0.214,0.44,0.056,0.63C320.105,242.456,319.978,242.511,319.85,242.511z
												 M367.568,241.391c-0.073,0-0.147-0.018-0.215-0.055c-0.276-0.152-0.56-0.225-0.87-0.225l-0.124,0.003
												c-0.192,0.012-0.384,0.009-0.562-0.006c-0.246-0.022-0.428-0.239-0.406-0.485c0.022-0.245,0.236-0.417,0.485-0.406
												c0.137,0.012,0.282,0.012,0.435,0.004l0.173-0.005c0.457,0,0.895,0.113,1.3,0.336c0.217,0.119,0.296,0.391,0.177,0.607
												C367.879,241.307,367.726,241.391,367.568,241.391z M316.91,240.488c-0.077,0-0.154-0.019-0.225-0.06
												c-0.52-0.302-1.042-0.583-1.548-0.839c-0.22-0.112-0.308-0.381-0.197-0.601c0.111-0.22,0.381-0.309,0.601-0.198
												c0.521,0.265,1.058,0.552,1.593,0.863c0.213,0.124,0.286,0.398,0.162,0.612
												C317.214,240.409,317.064,240.488,316.91,240.488z M364.301,240.313c-0.133,0-0.264-0.059-0.353-0.171
												c-0.364-0.466-0.605-1.092-0.715-1.863c-0.035-0.245,0.135-0.471,0.38-0.506c0.242-0.034,0.471,0.135,0.506,0.38
												c0.087,0.613,0.267,1.097,0.534,1.437c0.152,0.195,0.118,0.476-0.077,0.628
												C364.495,240.281,364.398,240.313,364.301,240.313z M332.781,239.73c-0.179,0-0.348-0.108-0.417-0.285
												c-0.241-0.617-0.407-1.228-0.494-1.815c-0.036-0.245,0.133-0.472,0.377-0.508c0.246-0.041,0.472,0.132,0.508,0.377
												c0.077,0.521,0.226,1.066,0.442,1.621c0.09,0.23-0.024,0.489-0.254,0.579C332.891,239.72,332.836,239.73,332.781,239.73z
												 M352.02,239.343c-0.041,0-0.083-0.005-0.124-0.017c-0.238-0.068-0.374-0.316-0.306-0.554
												c0.159-0.551,0.372-1.133,0.633-1.73c0.099-0.227,0.361-0.33,0.589-0.231c0.226,0.099,0.329,0.363,0.23,0.589
												c-0.246,0.561-0.445,1.105-0.593,1.62C352.393,239.215,352.214,239.343,352.02,239.343z M313.727,238.867
												c-0.062,0-0.125-0.013-0.184-0.04c-0.288-0.13-0.561-0.249-0.818-0.358c-0.337-0.143-0.63-0.322-0.869-0.529
												c-0.187-0.163-0.207-0.445-0.045-0.632c0.162-0.186,0.445-0.206,0.631-0.045c0.169,0.147,0.382,0.276,0.633,0.383
												c0.262,0.111,0.543,0.233,0.837,0.367c0.225,0.101,0.325,0.367,0.223,0.592
												C314.06,238.769,313.897,238.867,313.727,238.867z M363.641,236.881c-0.011,0-0.023,0-0.034-0.001
												c-0.246-0.019-0.431-0.234-0.413-0.48c0.042-0.565,0.129-1.178,0.257-1.821c0.048-0.242,0.283-0.404,0.526-0.351
												c0.242,0.048,0.4,0.283,0.352,0.526c-0.12,0.607-0.202,1.184-0.242,1.713
												C364.069,236.702,363.873,236.881,363.641,236.881z M311.452,236.465c-0.247,0-0.447-0.197-0.447-0.445
												c0-0.577,0.155-1.215,0.463-1.902c0.1-0.225,0.364-0.328,0.591-0.225c0.225,0.1,0.327,0.365,0.226,0.591
												c-0.256,0.571-0.385,1.087-0.385,1.531C311.9,236.262,311.699,236.465,311.452,236.465z M332.305,236.236
												c-0.022,0-0.044-0.002-0.066-0.005c-0.245-0.036-0.413-0.263-0.377-0.508c0.093-0.627,0.287-1.243,0.575-1.827
												c0.11-0.221,0.377-0.313,0.599-0.204c0.221,0.109,0.313,0.378,0.203,0.598c-0.247,0.503-0.413,1.029-0.492,1.563
												C332.714,236.077,332.523,236.236,332.305,236.236z M353.426,236.07c-0.073,0-0.147-0.018-0.215-0.056
												c-0.217-0.119-0.295-0.391-0.176-0.607c0.281-0.509,0.596-1.033,0.936-1.558c0.134-0.207,0.411-0.266,0.619-0.131
												c0.207,0.135,0.266,0.412,0.132,0.619c-0.329,0.507-0.633,1.013-0.903,1.502
												C353.737,235.986,353.584,236.07,353.426,236.07z M364.31,233.38c-0.041,0-0.082-0.005-0.123-0.018
												c-0.238-0.067-0.376-0.314-0.308-0.552c0.162-0.568,0.347-1.147,0.553-1.727c0.083-0.233,0.336-0.359,0.572-0.272
												c0.233,0.082,0.354,0.338,0.272,0.571c-0.2,0.562-0.379,1.122-0.536,1.673C364.685,233.251,364.505,233.38,364.31,233.38
												z M312.769,233.207c-0.088,0-0.178-0.026-0.256-0.08c-0.203-0.142-0.252-0.42-0.111-0.623
												c0.326-0.467,0.711-0.951,1.145-1.438c0.164-0.186,0.448-0.201,0.632-0.037c0.184,0.164,0.201,0.446,0.037,0.631
												c-0.41,0.461-0.773,0.918-1.079,1.355C313.049,233.14,312.91,233.207,312.769,233.207z M355.362,233.072
												c-0.092,0-0.185-0.028-0.265-0.087c-0.199-0.146-0.242-0.426-0.095-0.625c0.351-0.478,0.722-0.955,1.111-1.429
												c0.157-0.19,0.438-0.218,0.63-0.062c0.191,0.157,0.219,0.439,0.062,0.63c-0.379,0.461-0.74,0.926-1.082,1.39
												C355.635,233.009,355.5,233.072,355.362,233.072z M333.829,233.064c-0.104,0-0.207-0.036-0.291-0.108
												c-0.188-0.161-0.209-0.443-0.048-0.631c0.381-0.443,0.832-0.877,1.342-1.291c0.191-0.158,0.474-0.126,0.629,0.065
												c0.155,0.192,0.126,0.474-0.066,0.629c-0.468,0.38-0.88,0.778-1.226,1.18
												C334.079,233.01,333.954,233.064,333.829,233.064z M336.499,230.704c-0.124,0-0.248-0.051-0.336-0.152
												c-0.163-0.186-0.144-0.468,0.042-0.632c0.447-0.392,0.866-0.799,1.248-1.209c0.169-0.18,0.452-0.191,0.632-0.023
												c0.181,0.169,0.191,0.452,0.023,0.633c-0.402,0.433-0.845,0.861-1.314,1.272
												C336.709,230.667,336.603,230.704,336.499,230.704z M315.127,230.531c-0.119,0-0.237-0.047-0.325-0.14
												c-0.17-0.18-0.162-0.463,0.018-0.633c0.431-0.407,0.89-0.811,1.367-1.199c0.192-0.155,0.474-0.127,0.63,0.064
												c0.156,0.192,0.127,0.474-0.064,0.63c-0.459,0.374-0.903,0.763-1.318,1.155
												C315.348,230.491,315.238,230.531,315.127,230.531z M357.623,230.311c-0.107,0-0.214-0.038-0.3-0.115
												c-0.184-0.165-0.198-0.448-0.032-0.632c0.4-0.444,0.815-0.882,1.242-1.312c0.174-0.176,0.457-0.177,0.633-0.004
												c0.175,0.174,0.176,0.457,0.003,0.633c-0.416,0.421-0.821,0.848-1.213,1.282
												C357.867,230.261,357.745,230.311,357.623,230.311z M365.498,230.014c-0.058,0-0.116-0.011-0.173-0.035
												c-0.228-0.095-0.336-0.357-0.24-0.586c0.233-0.557,0.482-1.11,0.744-1.65c0.108-0.223,0.377-0.316,0.598-0.208
												c0.222,0.107,0.315,0.376,0.208,0.598c-0.255,0.526-0.497,1.063-0.724,1.606
												C365.839,229.911,365.673,230.014,365.498,230.014z M317.891,228.272c-0.14,0-0.278-0.066-0.365-0.189
												c-0.143-0.202-0.096-0.481,0.106-0.624c0.496-0.351,1.006-0.688,1.516-1c0.211-0.128,0.486-0.062,0.615,0.148
												c0.129,0.211,0.063,0.486-0.148,0.615c-0.492,0.301-0.985,0.626-1.465,0.966
												C318.07,228.245,317.98,228.272,317.891,228.272z M338.916,228.09c-0.091,0-0.184-0.028-0.263-0.086
												c-0.2-0.146-0.244-0.426-0.098-0.626c0.345-0.472,0.654-0.962,0.919-1.456c0.118-0.217,0.39-0.297,0.606-0.182
												c0.218,0.117,0.299,0.389,0.182,0.606c-0.285,0.529-0.616,1.053-0.984,1.559
												C339.19,228.026,339.054,228.09,338.916,228.09z M360.137,227.774c-0.119,0-0.238-0.047-0.326-0.141
												c-0.169-0.18-0.16-0.463,0.021-0.633l0.111-0.101c0.39-0.356,0.754-0.74,1.081-1.142c0.157-0.19,0.438-0.22,0.63-0.065
												c0.192,0.156,0.221,0.438,0.065,0.629c-0.355,0.436-0.75,0.854-1.174,1.241l-0.1,0.092
												C360.357,227.734,360.247,227.774,360.137,227.774z M367.052,226.801c-0.073,0-0.148-0.018-0.216-0.056
												c-0.216-0.12-0.294-0.392-0.175-0.608c0.302-0.546,0.616-1.07,0.931-1.559c0.134-0.208,0.41-0.269,0.619-0.134
												c0.208,0.134,0.267,0.411,0.134,0.618c-0.308,0.478-0.609,0.983-0.9,1.508
												C367.362,226.718,367.209,226.801,367.052,226.801z M320.861,226.296c-0.129,0-0.257-0.055-0.345-0.162
												c-0.158-0.19-0.132-0.472,0.059-0.63c0.443-0.368,0.82-0.777,1.119-1.216c0.139-0.205,0.417-0.256,0.622-0.118
												c0.204,0.139,0.257,0.418,0.118,0.621c-0.347,0.509-0.78,0.98-1.287,1.402
												C321.063,226.262,320.962,226.296,320.861,226.296z M362.375,225.014c-0.074,0-0.15-0.018-0.219-0.058
												c-0.215-0.121-0.292-0.394-0.17-0.61c0.278-0.493,0.518-1.015,0.712-1.552c0.084-0.233,0.34-0.353,0.573-0.268
												c0.232,0.084,0.353,0.34,0.269,0.572c-0.211,0.584-0.471,1.152-0.774,1.688
												C362.683,224.932,362.531,225.014,362.375,225.014z M340.59,224.951c-0.049,0-0.1-0.008-0.149-0.025
												c-0.233-0.082-0.356-0.337-0.273-0.571c0.19-0.54,0.336-1.097,0.433-1.653c0.042-0.244,0.274-0.414,0.518-0.364
												c0.243,0.042,0.406,0.273,0.364,0.517c-0.106,0.606-0.264,1.21-0.471,1.797
												C340.947,224.835,340.774,224.951,340.59,224.951z M368.938,223.769c-0.074,0-0.15-0.018-0.219-0.058
												c-0.215-0.121-0.292-0.394-0.17-0.609c0.268-0.476,0.509-1,0.716-1.556c0.087-0.232,0.344-0.349,0.576-0.263
												c0.232,0.087,0.349,0.344,0.263,0.576c-0.224,0.599-0.484,1.166-0.776,1.682
												C369.246,223.687,369.095,223.769,368.938,223.769z M322.821,223.38c-0.041,0-0.083-0.005-0.124-0.017
												c-0.238-0.068-0.374-0.316-0.306-0.554c0.138-0.482,0.209-0.992,0.209-1.517l-0.001-0.113
												c-0.005-0.247,0.191-0.452,0.438-0.457c0.291-0.008,0.452,0.191,0.457,0.438l0.001,0.132
												c0,0.609-0.082,1.202-0.244,1.765C323.194,223.252,323.015,223.38,322.821,223.38z M363.59,221.675
												c-0.028,0-0.056-0.003-0.085-0.008c-0.242-0.046-0.402-0.281-0.355-0.523c0.106-0.552,0.172-1.126,0.197-1.707
												c0.011-0.246,0.228-0.429,0.466-0.428c0.247,0.011,0.438,0.22,0.428,0.467c-0.027,0.624-0.098,1.242-0.212,1.836
												C363.988,221.525,363.8,221.675,363.59,221.675z M341.196,221.445c-0.247,0-0.447-0.194-0.447-0.441v-0.012
												c0-0.563-0.048-1.132-0.143-1.69c-0.041-0.244,0.123-0.475,0.366-0.516c0.243-0.039,0.475,0.122,0.516,0.366
												c0.103,0.608,0.156,1.228,0.156,1.84C341.643,221.239,341.443,221.445,341.196,221.445z M370.195,220.441
												c-0.034,0-0.068-0.003-0.102-0.011c-0.241-0.057-0.391-0.297-0.334-0.538c0.128-0.549,0.23-1.124,0.303-1.71
												c0.03-0.245,0.253-0.424,0.499-0.389c0.245,0.031,0.419,0.254,0.388,0.499c-0.077,0.618-0.184,1.224-0.319,1.803
												C370.582,220.302,370.398,220.441,370.195,220.441z M322.781,219.855c-0.195,0-0.375-0.129-0.43-0.327
												c-0.152-0.541-0.365-1.063-0.635-1.554c-0.119-0.217-0.04-0.488,0.176-0.607c0.217-0.122,0.488-0.04,0.608,0.176
												c0.303,0.55,0.543,1.137,0.713,1.744c0.067,0.238-0.072,0.485-0.31,0.551
												C322.862,219.85,322.821,219.855,322.781,219.855z M363.75,218.121c-0.229,0-0.425-0.175-0.445-0.408
												c-0.05-0.565-0.138-1.14-0.26-1.711c-0.052-0.241,0.102-0.48,0.344-0.531c0.24-0.047,0.479,0.102,0.531,0.344
												c0.13,0.606,0.223,1.218,0.276,1.819c0.022,0.246-0.16,0.463-0.406,0.485C363.777,218.12,363.763,218.121,363.75,218.121
												z M340.606,217.947c-0.186,0-0.359-0.116-0.423-0.301c-0.186-0.539-0.416-1.067-0.684-1.569
												c-0.117-0.218-0.034-0.489,0.184-0.606c0.217-0.116,0.489-0.034,0.605,0.184c0.291,0.544,0.54,1.116,0.741,1.699
												c0.08,0.234-0.044,0.488-0.277,0.569C340.703,217.939,340.654,217.947,340.606,217.947z M370.645,216.904
												c-0.005,0-0.01,0-0.015,0c-0.247-0.008-0.441-0.215-0.432-0.462c0.007-0.223,0.011-0.447,0.011-0.672
												c0-0.356-0.009-0.716-0.028-1.075c-0.013-0.246,0.177-0.457,0.424-0.469c0.231-0.039,0.457,0.177,0.47,0.424
												c0.019,0.375,0.028,0.748,0.028,1.12c0,0.235-0.004,0.468-0.012,0.702C371.084,216.714,370.885,216.904,370.645,216.904z
												 M321.049,216.775c-0.114,0-0.228-0.043-0.315-0.129c-0.369-0.364-0.737-0.596-1.039-0.65
												c-0.111-0.019-0.223-0.049-0.331-0.087c-0.233-0.081-0.357-0.337-0.276-0.57c0.08-0.233,0.333-0.357,0.569-0.276
												c0.063,0.022,0.127,0.039,0.194,0.051c0.488,0.088,1.01,0.398,1.513,0.895c0.176,0.174,0.177,0.457,0.004,0.633
												C321.28,216.73,321.165,216.775,321.049,216.775z M338.932,214.81c-0.135,0-0.268-0.06-0.357-0.177
												c-0.229-0.3-0.474-0.587-0.728-0.854c-0.168-0.176-0.313-0.366-0.432-0.565c-0.126-0.212-0.057-0.487,0.155-0.613
												c0.213-0.127,0.488-0.058,0.613,0.156c0.084,0.142,0.188,0.278,0.31,0.405c0.278,0.291,0.545,0.604,0.794,0.931
												c0.15,0.197,0.112,0.477-0.085,0.626C339.122,214.78,339.027,214.81,338.932,214.81z M318.178,214.792
												c-0.142,0-0.282-0.067-0.369-0.194c-0.312-0.454-0.6-1.019-0.856-1.68c-0.089-0.231,0.025-0.489,0.256-0.578
												c0.231-0.091,0.489,0.024,0.579,0.255c0.231,0.596,0.486,1.099,0.759,1.496c0.14,0.204,0.088,0.482-0.115,0.622
												C318.354,214.767,318.265,214.792,318.178,214.792z M363.012,214.633c-0.187,0-0.362-0.118-0.424-0.306
												c-0.182-0.543-0.396-1.086-0.638-1.617c-0.103-0.225-0.004-0.49,0.221-0.593c0.224-0.102,0.491-0.003,0.592,0.221
												c0.256,0.559,0.482,1.132,0.673,1.706c0.078,0.234-0.048,0.488-0.282,0.566
												C363.107,214.626,363.059,214.633,363.012,214.633z M370.466,213.344c-0.221,0-0.414-0.164-0.443-0.389
												c-0.077-0.581-0.176-1.161-0.296-1.724c-0.052-0.242,0.102-0.48,0.344-0.531c0.241-0.05,0.479,0.103,0.531,0.344
												c0.125,0.586,0.229,1.19,0.308,1.794c0.032,0.245-0.14,0.47-0.385,0.503
												C370.505,213.343,370.485,213.344,370.466,213.344z M337.457,211.714c-0.016,0-0.032-0.001-0.049-0.003
												c-0.245-0.027-0.423-0.247-0.396-0.494c0.064-0.588,0.267-1.209,0.601-1.845c0.115-0.218,0.386-0.302,0.604-0.187
												c0.219,0.115,0.303,0.385,0.187,0.605c-0.282,0.536-0.451,1.049-0.503,1.524
												C337.877,211.544,337.683,211.714,337.457,211.714z M361.532,211.389c-0.153,0-0.303-0.079-0.386-0.221
												c-0.292-0.497-0.614-0.986-0.957-1.452c-0.146-0.199-0.104-0.479,0.096-0.626c0.198-0.147,0.479-0.103,0.625,0.096
												c0.361,0.491,0.699,1.005,1.007,1.529c0.125,0.212,0.054,0.487-0.159,0.612
												C361.687,211.369,361.609,211.389,361.532,211.389z M369.719,209.856c-0.192,0-0.369-0.124-0.428-0.317
												c-0.173-0.57-0.37-1.122-0.584-1.641c-0.094-0.228,0.015-0.489,0.243-0.584c0.23-0.095,0.491,0.015,0.585,0.243
												c0.225,0.545,0.431,1.125,0.613,1.721c0.072,0.236-0.062,0.486-0.298,0.558
												C369.806,209.85,369.762,209.856,369.719,209.856z M339.017,208.56c-0.102,0-0.205-0.035-0.289-0.106
												c-0.188-0.16-0.212-0.442-0.052-0.631c0.381-0.45,0.821-0.892,1.307-1.314c0.187-0.162,0.469-0.141,0.631,0.045
												c0.162,0.187,0.142,0.469-0.045,0.632c-0.451,0.391-0.858,0.8-1.21,1.216C339.271,208.506,339.144,208.56,339.017,208.56
												z M359.42,208.517c-0.121,0-0.243-0.05-0.331-0.147c-0.391-0.431-0.806-0.842-1.234-1.221
												c-0.185-0.164-0.202-0.447-0.038-0.632c0.164-0.185,0.446-0.203,0.631-0.038c0.452,0.401,0.891,0.835,1.303,1.289
												c0.166,0.183,0.153,0.466-0.031,0.632C359.635,208.479,359.528,208.517,359.42,208.517z M368.352,206.564
												c-0.158,0-0.311-0.084-0.392-0.232c-0.288-0.523-0.601-1.01-0.931-1.447c-0.149-0.197-0.109-0.477,0.088-0.626
												c0.199-0.148,0.478-0.109,0.627,0.088c0.355,0.47,0.691,0.993,1,1.554c0.119,0.217,0.04,0.489-0.176,0.608
												C368.499,206.547,368.425,206.564,368.352,206.564z M341.698,206.218c-0.145,0-0.287-0.07-0.373-0.2
												c-0.137-0.205-0.081-0.483,0.125-0.62c0.509-0.338,1.044-0.649,1.589-0.924c0.22-0.111,0.49-0.023,0.601,0.198
												c0.111,0.22,0.022,0.489-0.198,0.6c-0.514,0.259-1.018,0.551-1.496,0.87
												C341.869,206.194,341.784,206.218,341.698,206.218z M356.753,206.157c-0.089,0-0.179-0.026-0.257-0.081
												c-0.474-0.333-0.969-0.638-1.473-0.908c-0.218-0.116-0.3-0.387-0.184-0.606c0.117-0.218,0.388-0.301,0.606-0.183
												c0.535,0.286,1.061,0.61,1.565,0.964c0.202,0.142,0.251,0.421,0.109,0.623
												C357.032,206.09,356.893,206.157,356.753,206.157z M344.878,204.61c-0.183,0-0.354-0.113-0.42-0.295
												c-0.085-0.232,0.035-0.488,0.267-0.573c0.579-0.211,1.171-0.387,1.761-0.524c0.237-0.055,0.482,0.094,0.537,0.335
												c0.055,0.241-0.094,0.481-0.335,0.537c-0.555,0.128-1.112,0.294-1.656,0.493
												C344.98,204.602,344.929,204.61,344.878,204.61z M353.611,204.482c-0.052,0-0.105-0.009-0.157-0.028
												c-0.533-0.2-1.087-0.359-1.646-0.473c-0.242-0.05-0.398-0.286-0.349-0.528c0.05-0.243,0.286-0.398,0.528-0.349
												c0.605,0.124,1.204,0.296,1.781,0.511c0.231,0.087,0.349,0.345,0.262,0.576
												C353.962,204.371,353.792,204.482,353.611,204.482z M348.345,203.814c-0.228,0-0.423-0.174-0.445-0.405
												c-0.024-0.246,0.157-0.464,0.403-0.488c0.609-0.057,1.228-0.077,1.847-0.044c0.247,0.012,0.437,0.222,0.425,0.468
												c-0.012,0.247-0.212,0.44-0.469,0.425c-0.576-0.027-1.152-0.011-1.718,0.043
												C348.373,203.813,348.359,203.814,348.345,203.814z"/>
										</g>
										<g>
											<path style="fill:#EDCCB4;" d="M366.039,203.611c-0.104,0-0.208-0.036-0.292-0.108c-0.215-0.184-0.436-0.354-0.665-0.506
												c-0.205-0.137-0.261-0.415-0.124-0.621c0.137-0.205,0.414-0.262,0.621-0.124c0.258,0.173,0.509,0.363,0.751,0.572
												c0.188,0.161,0.208,0.444,0.047,0.631C366.29,203.558,366.165,203.611,366.039,203.611z"/>
										</g>
									</g>
									<g>
										<circle style="fill:#EDCCB4;" cx="312.32" cy="233.665" r="2.164"/>
									</g>
									<g>
										<path style="fill:#EDCCB4;" d="M322.984,253.467c0,1.195-0.969,2.164-2.164,2.164s-2.164-0.969-2.164-2.164
											s0.969-2.164,2.164-2.164S322.984,252.272,322.984,253.467z"/>
									</g>
									<g>
										<circle style="fill:#EDCCB4;" cx="340.335" cy="259.263" r="2.164"/>
									</g>
									<g>
										<path style="fill:#EDCCB4;" d="M336.317,232.798c0,1.195-0.969,2.164-2.164,2.164c-1.195,0-2.164-0.969-2.164-2.164
											s0.969-2.164,2.164-2.164C335.348,230.634,336.317,231.603,336.317,232.798z"/>
									</g>
									<g>
										<path style="fill:#EDCCB4;" d="M343.218,205.655c0,1.195-0.969,2.164-2.164,2.164c-1.195,0-2.164-0.969-2.164-2.164
											s0.969-2.164,2.164-2.164C342.249,203.491,343.218,204.46,343.218,205.655z"/>
									</g>
									<g>
										<circle style="fill:#EDCCB4;" cx="363.305" cy="216.927" r="2.164"/>
									</g>
									<g>
										<path style="fill:#EDCCB4;" d="M360.242,246.712c0,1.195-0.969,2.164-2.164,2.164c-1.195,0-2.164-0.969-2.164-2.164
											s0.969-2.164,2.164-2.164C359.273,244.548,360.242,245.517,360.242,246.712z"/>
									</g>
									<g>
										<path style="fill:#EDCCB4;" d="M372.311,249.765c0,1.195-0.969,2.164-2.164,2.164c-1.195,0-2.164-0.969-2.164-2.164
											s0.969-2.164,2.164-2.164C371.342,247.601,372.311,248.57,372.311,249.765z"/>
									</g>
									<g>
										<path style="fill:#EDCCB4;" d="M367.634,202.624c0,1.195-0.969,2.164-2.164,2.164c-1.195,0-2.164-0.969-2.164-2.164
											c0-1.195,0.969-2.164,2.164-2.164C366.665,200.46,367.634,201.428,367.634,202.624z"/>
									</g>
								</g>
								<g>
									<g>
										<path style="fill:#EDCCB4;" d="M323.655,272.42c0.067-6.611,0.232-13.218,0.412-19.824l0.65-19.815l0.857-19.807
											c0.323-6.601,0.661-13.201,1.098-19.798c-0.066,6.611-0.231,13.218-0.41,19.824l-0.652,19.815l-0.858,19.807
											C324.429,259.223,324.091,265.824,323.655,272.42z"/>
									</g>
									<g>
										<path style="fill:#EDCCB4;" d="M351.482,193.176c0.15,6.328,0.203,12.656,0.24,18.984l0.001,18.983l-0.206,18.981
											c-0.106,6.327-0.227,12.654-0.447,18.98c-0.152-6.328-0.204-12.656-0.241-18.984v-18.982l0.207-18.981
											C351.142,205.83,351.263,199.503,351.482,193.176z"/>
									</g>
								</g>
							</g>
							<g>
								<path style="fill:#E86666;" d="M401.962,192.956c2.674,2.214,4.415,2.199,7.798,16.682
									c2.243,9.603,7.291,34.759,6.958,41.867c-0.333,7.107-6.422,14.128-16.881,11.486
									c-10.459-2.642-28.703-15.107-28.703-15.107l5.672-8.91l21.664,2.433c0,0-2.823-25.268-3.451-32.746
									C393.934,195.738,401.962,192.956,401.962,192.956z"/>
								<g>
									
										<path style="fill:none;stroke:#BD425B;stroke-width:1.3422;stroke-linecap:round;stroke-linejoin:round;stroke-miterlimit:10;" d="
										M379.973,239.33c0,0,1.451,7.687-5.991,10.436"/>
									<g>
										<path style="fill:#BD425B;" d="M404.365,263.558c-3.118,0.164-6.178-0.768-9.076-1.841
											c-2.92-1.076-5.721-2.432-8.479-3.854c-5.517-2.854-10.848-6.027-16.017-9.481c-0.27-0.18-0.345-0.541-0.174-0.814
											l0.005-0.008l5.63-8.937c0.136-0.215,0.378-0.324,0.615-0.3l0.01,0.001c3.614,0.373,7.221,0.814,10.83,1.234l10.826,1.268
											l-0.647,0.642c-0.57-5.458-1.013-10.93-1.526-16.394c-0.496-5.466-0.936-10.938-1.343-16.413
											c0.743,5.44,1.453,10.883,2.107,16.333c0.637,5.451,1.345,10.895,1.924,16.352c0.034,0.321-0.198,0.609-0.519,0.643
											c-0.041,0.004-0.088,0.004-0.128,0l-10.838-1.165c-3.612-0.392-7.227-0.762-10.834-1.2l0.624-0.298l-5.714,8.883
											l-0.169-0.822c2.538,1.736,5.152,3.39,7.763,5.031c2.614,1.641,5.264,3.224,7.962,4.718
											c2.702,1.485,5.442,2.908,8.271,4.128C398.297,262.462,401.252,263.504,404.365,263.558z"/>
									</g>
								</g>
							</g>
							<g>
								<g>
									<path style="fill:#B57164;" d="M299.659,203.091c-0.965,0.635-3.67,13.177-1.695,13.888
										c1.975,0.711,6.096-0.014,7.101-1.049c1.005-1.035,2.254-10.072,1.462-11.551
										C305.735,202.9,301.263,202.035,299.659,203.091z"/>
									<g>
										<path style="fill:#6B332A;" d="M299.659,203.091c-0.226,0.269-0.3,0.623-0.4,0.953c-0.098,0.333-0.18,0.673-0.257,1.012
											c-0.151,0.681-0.274,1.368-0.384,2.057c-0.236,1.373-0.423,2.754-0.57,4.13c-0.119,1.371-0.253,2.769-0.122,4.064
											c0.037,0.314,0.085,0.635,0.174,0.858c0.037,0.116,0.098,0.196,0.109,0.205c0.016,0.024-0.02-0.029-0.015-0.003
											l0.209,0.059c0.568,0.154,1.234,0.186,1.889,0.161c1.303-0.039,2.701-0.271,3.819-0.776
											c0.267-0.128,0.527-0.268,0.572-0.408c0.117-0.183,0.247-0.513,0.347-0.819c0.202-0.631,0.381-1.298,0.537-1.969
											c0.305-1.346,0.566-2.715,0.769-4.091c0.11-0.687,0.205-1.378,0.26-2.071c0.03-0.347,0.046-0.693,0.045-1.04
											c0.005-0.348-0.011-0.692-0.114-1.032c0.323,0.635,0.38,1.376,0.424,2.075c0.046,0.709,0.051,1.418,0.04,2.126
											c-0.049,1.415-0.172,2.827-0.396,4.234c-0.105,0.705-0.241,1.407-0.442,2.118c-0.108,0.361-0.201,0.703-0.437,1.125
											c-0.28,0.501-0.698,0.696-1.036,0.89c-1.428,0.681-2.863,0.9-4.348,0.981c-0.743,0.013-1.496-0.02-2.281-0.24l-0.295-0.09
											c-0.141-0.064-0.356-0.176-0.45-0.29c-0.237-0.239-0.341-0.479-0.419-0.692c-0.156-0.435-0.197-0.817-0.223-1.199
											c-0.07-1.506,0.107-2.913,0.351-4.317c0.242-1.4,0.573-2.777,0.966-4.135c0.209-0.676,0.432-1.348,0.682-2.01
											C298.931,204.31,299.145,203.594,299.659,203.091z"/>
									</g>
								</g>
							</g>
							<g>
								<path style="fill:#B57164;" d="M364.112,236.249c0,0-3.128-3.443-2.364-4.591s6.813,5.2,10.676,5.536
									C376.287,237.531,369.323,238.913,364.112,236.249z"/>
							</g>
							<g>
								<g>
									<path style="fill:#B57164;" d="M377.775,241.095c0.908-2.408-2.279-9.165-4.079-9.576l-0.152,4.765
										c-1.036,0.736-1.964,1.05-3.436,0.932c-5.179-0.417-9.703-4.766-10.269-3.875c-0.854,1.345,1.869,3.827,1.869,3.827
										s1.186,1.205-1.508-1.218c-2.117-1.904-1.505,3.381,2.354,5.865c0,0-0.389,0.004-2.53-2.539
										c-1.93-2.293-1.342,1.839,1.604,4.393c3.052,2.646,5.754,3.483,7.159,3.664
										C374.116,248.022,375.658,246.708,377.775,241.095z"/>
								</g>
							</g>
							<g>
								<g>
									<path style="fill:#6B332A;" d="M365.351,239.33c-0.929,0.315-1.836,0.111-2.627-0.314c-0.392-0.222-0.744-0.527-1.02-0.901
										c-0.269-0.371-0.486-0.825-0.445-1.332l1.139,0.547c0.342,0.172,0.674,0.332,0.993,0.522
										c0.314,0.201,0.649,0.377,0.969,0.621C364.689,238.704,365.021,238.956,365.351,239.33z"/>
								</g>
								<g>
									<path style="fill:#6B332A;" d="M362.673,234.495c0.918,0.393,1.58,0.729,2.283,1.129c0.349,0.193,0.684,0.416,1.032,0.655
										c0.347,0.244,0.7,0.502,1.052,0.885c-0.489,0.159-0.972,0.168-1.434,0.09c-0.464-0.076-0.914-0.232-1.322-0.47
										c-0.4-0.251-0.78-0.546-1.07-0.935C362.925,235.471,362.686,235.019,362.673,234.495z"/>
								</g>
								<g>
									<path style="fill:#6B332A;" d="M360.024,239.276c0.934,0.272,1.578,0.673,2.227,1.103c0.317,0.22,0.615,0.464,0.915,0.728
										c0.298,0.273,0.599,0.547,0.898,0.953c-0.959,0.234-1.862-0.09-2.583-0.581c-0.353-0.264-0.683-0.559-0.935-0.93
										C360.29,240.186,360.082,239.773,360.024,239.276z"/>
								</g>
							</g>
						</g>
					</g>
				</g>
			</g>
		</g>
	</g>
</g>
</svg>
