<?xml version="1.0" encoding="utf-8"?>
<!-- Generator: Adobe Illustrator 27.5.0, SVG Export Plug-In . SVG Version: 6.00 Build 0)  -->
<svg version="1.1" xmlns="http://www.w3.org/2000/svg" xmlns:xlink="http://www.w3.org/1999/xlink" x="0px" y="0px"
	 viewBox="0 0 500 500" style="enable-background:new 0 0 500 500;" xml:space="preserve">
<g id="Background_Complete">
	<rect x="416.779" y="398.494" style="fill:#EBEBEB;" width="33.122" height="0.25"/>
	<rect x="322.527" y="401.208" style="fill:#EBEBEB;" width="8.693" height="0.25"/>
	<rect x="396.586" y="389.208" style="fill:#EBEBEB;" width="19.192" height="0.25"/>
	<rect x="52.459" y="390.888" style="fill:#EBEBEB;" width="43.193" height="0.25"/>
	<rect x="104.556" y="390.888" style="fill:#EBEBEB;" width="6.333" height="0.25"/>
	<rect x="131.471" y="395.111" style="fill:#EBEBEB;" width="93.676" height="0.25"/>
	<g>
		<path style="fill:#EBEBEB;" d="M238.401,337.8H45.302c-3.147,0-5.708-2.561-5.708-5.708V60.66c0-3.147,2.561-5.708,5.708-5.708
			h193.099c3.146,0,5.707,2.561,5.707,5.708v271.432C244.108,335.239,241.547,337.8,238.401,337.8z M45.302,55.203
			c-3.01,0-5.458,2.448-5.458,5.458v271.432c0,3.01,2.448,5.458,5.458,5.458h193.099c3.009,0,5.457-2.448,5.457-5.458V60.66
			c0-3.009-2.448-5.458-5.457-5.458H45.302z"/>
		<path style="fill:#EBEBEB;" d="M454.698,337.8H261.599c-3.146,0-5.707-2.561-5.707-5.708V60.66c0-3.147,2.561-5.708,5.707-5.708
			h193.099c3.148,0,5.708,2.561,5.708,5.708v271.432C460.406,335.239,457.845,337.8,454.698,337.8z M261.599,55.203
			c-3.009,0-5.457,2.448-5.457,5.458v271.432c0,3.01,2.448,5.458,5.457,5.458h193.099c3.01,0,5.458-2.448,5.458-5.458V60.66
			c0-3.009-2.448-5.458-5.458-5.458H261.599z"/>
	</g>
	<rect y="382.398" style="fill:#EBEBEB;" width="500" height="0.25"/>
	<g>
		<g>
			<g>
				<g>
					<g>
						<g>
							<path style="fill:#E0E0E0;" d="M412.381,356.066l-0.762,0.094c-0.048-0.387-4.667-39.045,4.862-70.636
								c9.471-31.398,2.949-51.406,2.882-51.604l0.727-0.246c0.068,0.201,6.666,20.44-2.875,52.071
								C407.734,317.179,412.333,355.681,412.381,356.066z"/>
						</g>
						<g>
							<g>
								<path style="fill:#E0E0E0;" d="M420.722,238.226c-1.644-1.967-3.924-3.373-6.42-3.958l0.175-0.747
									c2.657,0.623,5.084,2.119,6.834,4.213L420.722,238.226z"/>
							</g>
						</g>
						<g>
							
								<rect x="421.814" y="242.007" transform="matrix(0.8706 -0.492 0.492 0.8706 -64.5081 239.4983)" style="fill:#E0E0E0;" width="2.521" height="0.767"/>
						</g>
						<g>
							<path style="fill:#E0E0E0;" d="M419.897,259.247c-1.887-4.327-5.483-7.816-9.865-9.572l0.285-0.712
								c4.568,1.83,8.316,5.466,10.284,9.977L419.897,259.247z"/>
						</g>
						<g>
							<path style="fill:#E0E0E0;" d="M417.84,283.399l-0.767,0.01c-0.038-3.12-1.522-6.137-3.969-8.072l0.476-0.602
								C416.207,276.812,417.8,280.051,417.84,283.399z"/>
						</g>
						<g>
							<path style="fill:#E0E0E0;" d="M416.129,289.575l-0.714-0.281c0.769-1.953,2.4-3.563,4.363-4.306l0.272,0.717
								C418.286,286.373,416.82,287.819,416.129,289.575z"/>
						</g>
						<g>
							<path style="fill:#E0E0E0;" d="M411.158,328.757l-0.59-0.49c0.933-1.126,1.639-5.411,2.018-7.713
								c0.091-0.551,0.168-1.02,0.232-1.359l0.754,0.143c-0.063,0.334-0.14,0.797-0.229,1.34
								C412.776,324.116,412.141,327.571,411.158,328.757z"/>
						</g>
						<g>
							<path style="fill:#E0E0E0;" d="M410.714,341.061c-0.991-3.03-4.139-5.203-7.323-5.055l-0.036-0.766
								c3.517-0.164,6.994,2.236,8.088,5.582L410.714,341.061z"/>
						</g>
						<g>
							
								<rect x="410.107" y="351.969" transform="matrix(0.6663 -0.7457 0.7457 0.6663 -124.536 426.4241)" style="fill:#E0E0E0;" width="8.114" height="0.767"/>
						</g>
					</g>
					<g>
						<path style="fill:#F0F0F0;" d="M420.398,309.633c1.225,3.965-7.32,11.514-7.32,11.514s-11.314-1.415-12.538-5.38
							c-1.225-3.965,1.641-10.454,7.124-12.148C413.148,301.925,419.173,305.667,420.398,309.633z"/>
						<path style="fill:#EBEBEB;" d="M429.881,261.51c-1.084,4.211-9.177,7.203-9.177,7.203s-5.642-6.527-4.558-10.739
							c1.084-4.211,5.557-8.852,9.35-7.875C429.289,251.075,430.965,257.298,429.881,261.51z"/>
						<path style="fill:#F5F5F5;" d="M397.408,324.443c5.082,1.979,8.196,10.966,8.196,10.966s-8.372,4.514-13.453,2.536
							c-5.082-1.979-10.46-7.553-9.008-11.282C384.595,322.934,392.327,322.464,397.408,324.443z"/>
						<path style="fill:#E6E6E6;" d="M408.549,274.999c1.074,0.797,2.181,1.611,3.473,1.961c1.291,0.35,2.826,0.136,3.703-0.874
							c1.087-1.252,0.796-3.191,0.111-4.701c-1.357-2.992-6.365-8.069-10.211-6.612
							C400.072,266.875,406.073,273.161,408.549,274.999z"/>
						<path style="fill:#EBEBEB;" d="M419.913,282.622c-0.728,0.903-1.502,2.041-1.103,3.13c0.354,0.966,1.541,1.41,2.558,1.256
							c1.017-0.154,1.902-0.757,2.747-1.344c1.96-1.361,5.978-4.217,3.413-6.888C424.863,276,421.448,280.72,419.913,282.622z"/>
						<path style="fill:#E0E0E0;" d="M403.515,244.611c-0.839,0.093-1.688,0.654-1.831,1.486c-0.167,0.972,0.639,1.823,1.421,2.425
							c1.947,1.5,7.796,5.548,9.102,1.643C413.439,246.475,406.101,244.326,403.515,244.611z"/>
						<g>
							<path style="fill:#E6E6E6;" d="M414.298,231.765c-1.207,0.115-2.411-0.323-3.621-0.246c-1.21,0.077-2.552,1.05-2.284,2.232
								c0.249,1.093,1.607,1.458,2.725,1.529c1.908,0.12,3.832-0.013,5.705-0.394c0.435-0.089,0.908-0.217,1.158-0.585
								c0.489-0.72-0.289-1.686-1.122-1.941c-0.832-0.255-1.772-0.17-2.528-0.602L414.298,231.765z"/>
						</g>
						<g>
							<path style="fill:#F0F0F0;" d="M426.092,240.07c1.212,0.035,2.384-0.481,3.597-0.485s2.616,0.879,2.426,2.077
								c-0.176,1.107-1.507,1.561-2.618,1.705c-1.896,0.246-3.824,0.24-5.719-0.017c-0.44-0.06-0.921-0.157-1.194-0.507
								c-0.535-0.686,0.177-1.701,0.991-2.011c0.814-0.309,1.757-0.287,2.483-0.768L426.092,240.07z"/>
						</g>
						<g>
							<path style="fill:#F0F0F0;" d="M424.899,329.36c0.299-0.253,0.638-0.512,1.03-0.509c0.52,0.004,0.933,0.494,1.029,1.004
								c0.096,0.51-0.047,1.033-0.195,1.53c-0.821,2.748-10.044,22.653-12.166,19.078c-1.254-2.113,1.828-9.112,2.738-11.092
								C419.094,335.542,421.676,332.082,424.899,329.36z"/>
						</g>
					</g>
				</g>
				<g>
					<path style="fill:#E6E6E6;" d="M419.383,232.522c0.732-1.643,1.524-3.362,2.979-4.42c1.455-1.057,3.785-1.137,4.844,0.316
						c1.184,1.625,0,4.095-1.815,4.961c-1.815,0.867-3.941,0.606-5.932,0.326c-0.016-0.296-0.032-0.592-0.048-0.887L419.383,232.522
						z"/>
				</g>
			</g>
			<g>
				<path style="fill:#F0F0F0;" d="M425.827,382.62L425.827,382.62c-9.809,1.673-20.031,1.673-29.84,0l0,0l-11.607-34.25h53.055
					L425.827,382.62z"/>
			</g>
		</g>
		<g>
			<g>
				<path style="fill:#E6E6E6;" d="M400.145,112.958c-0.445-5.087,2.22-8.495,6.646-8.495c4.424,0,7.726,3.365,8.175,8.495
					c0.449,5.133-2.265,8.495-6.689,8.495C403.851,121.453,400.59,118.045,400.145,112.958z M411.338,112.958
					c-0.302-3.451-1.888-5.397-4.276-5.397c-2.302,0-3.632,1.989-3.334,5.397c0.298,3.408,1.976,5.396,4.278,5.396
					C410.394,118.354,411.64,116.409,411.338,112.958z M425.399,104.773h4.336l-18.439,30.971h-4.336L425.399,104.773z
					 M421.73,127.559c-0.445-5.087,2.22-8.495,6.646-8.495c4.424,0,7.73,3.408,8.175,8.495c0.445,5.087-2.265,8.495-6.689,8.495
					C425.436,136.054,422.175,132.646,421.73,127.559z M432.923,127.559c-0.298-3.408-1.931-5.396-4.276-5.396
					c-2.345,0-3.636,1.945-3.334,5.396c0.302,3.451,1.933,5.397,4.278,5.397C431.936,132.956,433.221,130.967,432.923,127.559z"/>
			</g>
			<g>
				<g>
					<g>
						
							<ellipse transform="matrix(0.9914 -0.1309 0.1309 0.9914 -20.4616 34.0127)" style="fill:#E0E0E0;" cx="248.567" cy="172.696" rx="16.542" ry="16.542"/>
					</g>
					<path style="fill:#E6E6E6;" d="M266.468,167.92c2.355,8.827-2.892,17.893-11.72,20.247c-8.827,2.355-17.893-2.893-20.247-11.72
						c-2.355-8.827,2.893-17.892,11.72-20.247C255.049,153.846,264.114,159.093,266.468,167.92z"/>
					<circle style="fill:#F0F0F0;" cx="250.485" cy="172.184" r="12.379"/>
				</g>
				<g>
					<path style="fill:#E0E0E0;" d="M256.417,173.328c1.168,2.521-0.178,4.775-3.376,5.925l0.529,2.202l-1.988,0.53l-0.529-2.202
						c-1.968,0.334-3.901,0.211-5.249-0.239l0.243-2.706c1.397,0.458,2.948,0.577,4.382,0.344l-0.808-3.383
						c-2.095-0.038-4.448-0.197-5.511-2.492c-1.168-2.52,0.21-4.804,3.484-5.934l-0.529-2.202l1.988-0.53l0.538,2.221
						c1.473-0.245,2.941-0.209,4.159,0.104l-0.123,2.674c-1.11-0.321-2.293-0.368-3.419-0.195l0.85,3.521
						C253.122,170.991,255.407,171.148,256.417,173.328z M248.921,170.94l-0.688-2.883c-1.036,0.511-1.401,1.267-1.086,1.993
						C247.419,170.638,248.074,170.846,248.921,170.94z M253.424,174.679c-0.255-0.549-0.871-0.769-1.68-0.83l0.666,2.74
						C253.387,176.094,253.758,175.4,253.424,174.679z"/>
				</g>
			</g>
			<g>
				<g>
					<g>
						
							<ellipse transform="matrix(0.2929 -0.9561 0.9561 0.2929 -63.0901 177.0962)" style="fill:#E0E0E0;" cx="88.191" cy="131.204" rx="23.269" ry="23.269"/>
					</g>
					
						<ellipse transform="matrix(0.7071 -0.7071 0.7071 0.7071 -66.1194 102.7603)" style="fill:#E6E6E6;" cx="90.983" cy="131.193" rx="23.269" ry="23.269"/>
					
						<ellipse transform="matrix(0.7071 -0.7071 0.7071 0.7071 -66.1193 102.7603)" style="fill:#F0F0F0;" cx="90.983" cy="131.193" rx="17.413" ry="17.413"/>
				</g>
				<g>
					<path style="fill:#E0E0E0;" d="M98.644,134.87c0.688,3.847-1.949,6.432-6.711,6.854l-0.068,3.185l-2.894,0.011l0.068-3.185
						c-2.797-0.25-5.383-1.107-7.055-2.202l1.297-3.594c1.736,1.123,3.804,1.838,5.838,2.034l0.11-4.892
						c-2.836-0.8-5.981-1.859-6.607-5.36c-0.688-3.846,2.002-6.461,6.86-6.828l0.068-3.184l2.894-0.011l-0.062,3.215
						c2.091,0.193,4.076,0.767,5.62,1.628l-1.124,3.593c-1.395-0.833-2.988-1.321-4.582-1.488l-0.102,5.095
						C94.998,130.513,98.049,131.543,98.644,134.87z M89.301,128.942l0.094-4.168c-1.592,0.325-2.359,1.224-2.19,2.324
						C87.365,127.994,88.181,128.511,89.301,128.942z M94.09,135.639c-0.15-0.838-0.909-1.358-1.989-1.729l-0.073,3.965
						C93.533,137.55,94.286,136.739,94.09,135.639z"/>
				</g>
			</g>
			<g>
				<g>
					<path style="fill:#E6E6E6;" d="M62.569,289.29c3.593,9.667,7.185,19.334,10.778,29c22.851-0.571,37.941-22.022,60.792-22.594
						c-3.593-9.667-7.185-19.333-10.778-29C100.51,267.267,85.42,288.719,62.569,289.29z"/>
					<path style="fill:#FAFAFA;" d="M66.222,291.644c2.996,8.061,5.992,16.122,8.988,24.182
						c20.597-2.018,35.08-20.489,55.755-22.296c-2.996-8.061-5.992-16.122-8.987-24.182
						C101.302,271.155,86.819,289.626,66.222,291.644z"/>
					<g>
						<g>
							<path style="fill:#E0E0E0;" d="M107.197,287.547c1.716,4.618-0.465,10.245-4.789,12.784
								c-4.326,2.538-9.266,0.74-10.991-3.903c-1.716-4.616,0.435-10.325,4.76-12.863
								C100.502,281.027,105.472,282.906,107.197,287.547z"/>
							<path style="fill:#F5F5F5;" d="M105.191,288.612c1.285,3.46-0.327,7.719-3.568,9.611c-3.24,1.891-6.925,0.578-8.214-2.892
								c-1.286-3.459,0.312-7.764,3.551-9.654C100.2,283.784,103.902,285.142,105.191,288.612z"/>
						</g>
						<g>
							<path style="fill:#E0E0E0;" d="M102.371,291.796c0.744,1.257,0.192,2.693-1.361,3.769c0.133,0.388,0.266,0.775,0.399,1.163
								c-0.325,0.189-0.651,0.377-0.976,0.566c-0.133-0.388-0.266-0.775-0.4-1.163c-0.978,0.454-1.965,0.647-2.676,0.575
								c-0.013-0.516-0.025-1.032-0.038-1.548c0.736,0.069,1.529-0.075,2.242-0.4c-0.204-0.596-0.408-1.191-0.612-1.787
								c-1.064,0.263-2.266,0.491-2.943-0.652c-0.743-1.255-0.18-2.719,1.412-3.797c-0.133-0.387-0.266-0.775-0.399-1.163
								c0.325-0.189,0.651-0.378,0.976-0.566c0.135,0.391,0.27,0.782,0.405,1.172c0.732-0.336,1.48-0.512,2.117-0.497
								c0.032,0.504,0.064,1.009,0.096,1.513c-0.583-0.032-1.187,0.1-1.747,0.349c0.214,0.62,0.427,1.239,0.641,1.859
								C100.558,290.923,101.728,290.709,102.371,291.796z M98.425,291.463c-0.174-0.508-0.347-1.015-0.521-1.523
								c-0.495,0.427-0.635,0.901-0.432,1.265C97.646,291.497,97.99,291.525,98.425,291.463z M100.932,292.951
								c-0.162-0.274-0.488-0.314-0.902-0.239c0.167,0.482,0.334,0.964,0.501,1.445C100.997,293.749,101.144,293.31,100.932,292.951
								z"/>
						</g>
					</g>
					<path style="fill:#FFFFFF;" d="M89.102,296.756c1.634,4.397-0.415,9.852-4.828,11.508c-4.405,1.677-9.597-1.325-11.239-5.743
						c-1.642-4.418,0.888-8.58,5.293-10.257C82.741,290.608,87.452,292.316,89.102,296.756z"/>
					<path style="fill:#FFFFFF;" d="M125.647,280.624c1.643,4.42-0.984,8.321-5.469,9.785c-4.494,1.44-9.238-0.357-10.889-4.798
						c-1.634-4.395,0.448-9.762,4.942-11.202C118.717,272.945,124.006,276.207,125.647,280.624z"/>
					<path style="fill:#EBEBEB;" d="M66.222,291.644c0.338,0.91,0.676,1.819,1.014,2.729l0,0c1.477-0.144,2.234-1.443,1.735-2.785
						c-0.036-0.098-0.073-0.197-0.11-0.295C67.993,291.439,67.113,291.557,66.222,291.644z"/>
					<path style="fill:#EBEBEB;" d="M74.196,313.098c0.338,0.91,0.676,1.819,1.014,2.729c0.891-0.087,1.771-0.206,2.639-0.352
						c-0.036-0.098-0.073-0.197-0.109-0.295C77.24,313.834,75.672,312.954,74.196,313.098L74.196,313.098z"/>
					<path style="fill:#EBEBEB;" d="M128.206,293.561c0.036,0.098,0.073,0.197,0.109,0.295c0.872-0.138,1.755-0.247,2.649-0.325
						c-0.338-0.91-0.676-1.819-1.014-2.729l0,0C128.469,290.93,127.707,292.219,128.206,293.561z"/>
					<path style="fill:#EBEBEB;" d="M119.328,269.673c0.037,0.098,0.073,0.197,0.11,0.295c0.5,1.346,2.071,2.238,3.554,2.109l0,0
						c-0.338-0.91-0.676-1.819-1.014-2.729C121.083,269.426,120.2,269.536,119.328,269.673z"/>
				</g>
				<g>
					<path style="fill:#E6E6E6;" d="M64.909,250.769c-0.781,10.283-1.562,20.566-2.343,30.85
						c20.994,9.041,43.675-4.129,64.669,4.912c0.781-10.283,1.562-20.566,2.343-30.85C108.584,246.639,85.903,259.81,64.909,250.769
						z"/>
					<path style="fill:#FAFAFA;" d="M67.242,254.435c-0.651,8.575-1.303,17.15-1.954,25.725c19.552,6.784,40.434-3.934,59.969,3.075
						c0.651-8.575,1.303-17.15,1.954-25.724C107.676,250.501,86.795,261.219,67.242,254.435z"/>
					<g>
						<g>
							<path style="fill:#E0E0E0;" d="M106.173,267.857c-0.373,4.912-4.708,9.111-9.699,9.608c-4.991,0.496-8.725-3.204-8.35-8.143
								c0.373-4.911,4.714-9.196,9.705-9.692C102.82,259.133,106.548,262.919,106.173,267.857z"/>
							<path style="fill:#F5F5F5;" d="M103.906,267.984c-0.28,3.68-3.527,6.874-7.261,7.236c-3.734,0.362-6.531-2.372-6.251-6.063
								c0.279-3.68,3.531-6.921,7.265-7.283C101.392,261.511,104.186,264.294,103.906,267.984z"/>
						</g>
						<g>
							<path style="fill:#E0E0E0;" d="M100.012,269.697c0.15,1.453-0.952,2.526-2.813,2.854c-0.041,0.408-0.083,0.816-0.124,1.224
								c-0.374,0.035-0.749,0.07-1.124,0.106c0.041-0.408,0.082-0.815,0.124-1.223c-1.078,0.003-2.056-0.235-2.671-0.598
								c0.204-0.474,0.409-0.948,0.613-1.422c0.64,0.37,1.42,0.572,2.204,0.575c0.064-0.626,0.128-1.253,0.192-1.879
								c-1.076-0.206-2.264-0.502-2.4-1.823c-0.149-1.451,0.974-2.545,2.871-2.858c0.041-0.408,0.082-0.815,0.124-1.223
								c0.375-0.035,0.749-0.071,1.124-0.105c-0.041,0.411-0.082,0.823-0.122,1.234c0.805,0.001,1.558,0.154,2.131,0.434
								c-0.182,0.472-0.364,0.943-0.546,1.415c-0.516-0.273-1.119-0.406-1.733-0.414c-0.065,0.652-0.13,1.305-0.195,1.957
								C98.73,268.146,99.883,268.44,100.012,269.697z M96.567,267.743c0.054-0.534,0.109-1.068,0.164-1.601
								c-0.628,0.181-0.953,0.552-0.921,0.968C95.845,267.448,96.146,267.618,96.567,267.743z M98.221,270.144
								c-0.033-0.316-0.312-0.489-0.719-0.594c-0.05,0.507-0.099,1.015-0.149,1.523C97.947,270.896,98.264,270.559,98.221,270.144z"
								/>
						</g>
					</g>
					<path style="fill:#FFFFFF;" d="M85.885,268.651c-0.355,4.677-4.498,8.775-9.2,8.432c-4.703-0.319-8.163-5.218-7.806-9.918
						c0.357-4.7,4.396-7.421,9.098-7.102C82.679,260.405,86.244,263.928,85.885,268.651z"/>
					<path style="fill:#FFFFFF;" d="M125.827,269.288c-0.357,4.702-4.375,7.146-9.061,6.599c-4.684-0.572-8.241-4.189-7.882-8.914
						c0.355-4.676,4.491-8.679,9.175-8.107C122.745,259.413,126.184,264.589,125.827,269.288z"/>
					<path style="fill:#EBEBEB;" d="M67.242,254.435c-0.074,0.968-0.147,1.935-0.22,2.903l0,0c1.402,0.487,2.632-0.376,2.741-1.804
						c0.008-0.105,0.016-0.209,0.024-0.314C68.936,254.99,68.088,254.729,67.242,254.435z"/>
					<path style="fill:#EBEBEB;" d="M65.509,277.257c-0.073,0.968-0.147,1.935-0.22,2.903c0.846,0.293,1.694,0.554,2.545,0.785
						c0.008-0.105,0.016-0.209,0.024-0.314C67.966,279.199,66.91,277.744,65.509,277.257L65.509,277.257z"/>
					<path style="fill:#EBEBEB;" d="M122.739,282.108c-0.008,0.104-0.016,0.209-0.024,0.314c0.85,0.24,1.697,0.51,2.542,0.813
						c0.074-0.968,0.147-1.935,0.22-2.903l0,0C124.078,279.829,122.848,280.681,122.739,282.108z"/>
					<path style="fill:#EBEBEB;" d="M124.669,256.698c-0.008,0.104-0.016,0.209-0.024,0.314c-0.109,1.432,0.945,2.899,2.345,3.402
						l0,0c0.074-0.967,0.147-1.935,0.22-2.903C126.366,257.207,125.519,256.937,124.669,256.698z"/>
				</g>
				<g>
					<path style="fill:#E6E6E6;" d="M80.35,218.075c-4.42,9.318-8.839,18.636-13.259,27.953
						c16.35,15.973,42.247,11.82,58.598,27.794c4.42-9.318,8.839-18.636,13.259-27.953
						C122.598,229.895,96.701,234.048,80.35,218.075z"/>
					<path style="fill:#FAFAFA;" d="M81.212,222.335c-3.685,7.77-7.371,15.54-11.056,23.309
						c15.815,13.349,39.152,10.839,54.87,24.392c3.685-7.77,7.371-15.54,11.056-23.31
						C120.364,233.174,97.027,235.683,81.212,222.335z"/>
					<g>
						<g>
							<path style="fill:#E0E0E0;" d="M112.733,248.833c-2.111,4.451-7.664,6.814-12.501,5.487
								c-4.837-1.329-6.994-6.122-4.872-10.597c2.111-4.45,7.701-6.892,12.537-5.563
								C112.734,239.488,114.855,244.36,112.733,248.833z"/>
							<path style="fill:#F5F5F5;" d="M110.571,248.139c-1.582,3.335-5.759,5.15-9.375,4.148c-3.615-1.002-5.245-4.558-3.659-7.903
								c1.581-3.335,5.78-5.193,9.395-4.191C110.548,241.195,112.157,244.795,110.571,248.139z"/>
						</g>
						<g>
							<path style="fill:#E0E0E0;" d="M106.322,248.34c-0.382,1.41-1.795,2.016-3.65,1.655c-0.185,0.366-0.37,0.732-0.554,1.098
								c-0.362-0.102-0.724-0.203-1.087-0.305c0.185-0.366,0.37-0.732,0.555-1.098c-1.008-0.384-1.834-0.957-2.278-1.516
								c0.361-0.369,0.722-0.738,1.083-1.107c0.464,0.575,1.12,1.043,1.851,1.327c0.284-0.562,0.569-1.123,0.854-1.685
								c-0.931-0.579-1.933-1.281-1.586-2.563c0.381-1.408,1.822-2.026,3.705-1.637c0.185-0.366,0.37-0.732,0.554-1.097
								c0.362,0.101,0.725,0.203,1.087,0.305c-0.186,0.37-0.372,0.739-0.557,1.108c0.751,0.29,1.399,0.703,1.833,1.17
								c-0.339,0.375-0.678,0.75-1.017,1.125c-0.384-0.44-0.899-0.781-1.468-1.008c-0.295,0.585-0.59,1.171-0.885,1.756
								C105.682,246.432,106.652,247.121,106.322,248.34z M103.808,245.281c0.242-0.479,0.485-0.957,0.728-1.436
								c-0.651-0.057-1.088,0.173-1.207,0.573C103.24,244.746,103.459,245.012,103.808,245.281z M104.49,248.115
								c0.083-0.307-0.115-0.568-0.458-0.813c-0.229,0.456-0.457,0.912-0.686,1.368C103.964,248.718,104.381,248.517,104.49,248.115
								z"/>
						</g>
					</g>
					<path style="fill:#FFFFFF;" d="M93.511,242.294c-2.01,4.238-7.348,6.576-11.613,4.569c-4.275-1.986-5.746-7.8-3.726-12.059
						c2.02-4.259,6.767-5.349,11.041-3.364C93.479,233.447,95.541,238.014,93.511,242.294z"/>
					<path style="fill:#FFFFFF;" d="M130.564,257.223c-2.021,4.26-6.648,5.099-10.825,2.908c-4.167-2.215-6.189-6.868-4.158-11.149
						c2.009-4.237,7.306-6.489,11.473-4.274C131.232,246.9,132.583,252.965,130.564,257.223z"/>
					<path style="fill:#EBEBEB;" d="M81.212,222.335c-0.416,0.877-0.832,1.753-1.248,2.63l0,0c1.133,0.958,2.592,0.593,3.206-0.7
						c0.045-0.095,0.09-0.189,0.135-0.284C82.595,223.46,81.896,222.912,81.212,222.335z"/>
					<path style="fill:#EBEBEB;" d="M71.404,243.014c-0.416,0.877-0.832,1.754-1.247,2.63c0.684,0.577,1.382,1.125,2.093,1.646
						c0.045-0.095,0.09-0.189,0.135-0.284C73,245.708,72.536,243.971,71.404,243.014L71.404,243.014z"/>
					<path style="fill:#EBEBEB;" d="M123.08,268.081c-0.045,0.095-0.09,0.189-0.135,0.284c0.707,0.529,1.401,1.085,2.081,1.671
						c0.416-0.877,0.832-1.753,1.247-2.63l0,0C125.149,266.434,123.694,266.788,123.08,268.081z"/>
					<path style="fill:#EBEBEB;" d="M134.002,245.056c-0.045,0.095-0.09,0.189-0.135,0.284c-0.615,1.297-0.158,3.045,0.968,4.017
						l0,0c0.416-0.877,0.832-1.753,1.247-2.63C135.403,246.141,134.709,245.585,134.002,245.056z"/>
				</g>
			</g>
		</g>
	</g>
</g>
<g id="Background_Simple" style="display:none;">
	<g style="display:inline;">
		<path style="fill:#407BFF;" d="M103.213,137.984c-29.568,19.195-45.12,57.559-41.589,85.944
			c2.468,19.838,9.257,39.707,22.629,54.567c11.46,12.736,27.643,21.121,44.656,23.139c35.107,4.165,71.832-17.617,104.784-4.81
			c17.069,6.634,29.663,21.557,46.152,29.523c9.957,4.811,21.053,6.923,32.1,7.437c36.421,1.695,73.145-14.458,96.927-42.095
			c23.782-27.637,34.281-66.086,28.391-102.068c-5.89-35.982-27.903-68.904-58.607-88.567c-9.635-6.171-20.167-11.124-31.365-13.477
			c-28.988-6.09-59.938,6.432-80.395,27.854c-8.233,8.622-15.965,19.191-27.596,21.804c-11.919,2.678-22.201-7.23-33.837-10.951
			C163.795,112.958,119.757,127.243,103.213,137.984z"/>
		<path style="opacity:0.9;fill:#FFFFFF;" d="M103.213,137.984c-29.568,19.195-45.12,57.559-41.589,85.944
			c2.468,19.838,9.257,39.707,22.629,54.567c11.46,12.736,27.643,21.121,44.656,23.139c35.107,4.165,71.832-17.617,104.784-4.81
			c17.069,6.634,29.663,21.557,46.152,29.523c9.957,4.811,21.053,6.923,32.1,7.437c36.421,1.695,73.145-14.458,96.927-42.095
			c23.782-27.637,34.281-66.086,28.391-102.068c-5.89-35.982-27.903-68.904-58.607-88.567c-9.635-6.171-20.167-11.124-31.365-13.477
			c-28.988-6.09-59.938,6.432-80.395,27.854c-8.233,8.622-15.965,19.191-27.596,21.804c-11.919,2.678-22.201-7.23-33.837-10.951
			C163.795,112.958,119.757,127.243,103.213,137.984z"/>
	</g>
</g>
<g id="Shadow">
	<ellipse id="_x3C_Path_x3E__359_" style="fill:#F5F5F5;" cx="250" cy="415.693" rx="193.889" ry="11.323"/>
</g>
<g id="Clipboard">
	<g>
		<path d="M396.888,279.127H273.707c-5.178,0-9.669-4.197-10.031-9.375L250.908,87.164c-0.362-5.178,3.542-9.375,8.72-9.375h123.181
			c5.178,0,9.669,4.198,10.031,9.375l12.768,182.588C405.969,274.93,402.065,279.127,396.888,279.127z"/>
		<path style="opacity:0.7;fill:#FFFFFF;" d="M396.888,279.127H273.707c-5.178,0-9.669-4.197-10.031-9.375L250.908,87.164
			c-0.362-5.178,3.542-9.375,8.72-9.375h123.181c5.178,0,9.669,4.198,10.031,9.375l12.768,182.588
			C405.969,274.93,402.065,279.127,396.888,279.127z"/>
		<polygon style="fill:#FFFFFF;" points="398.518,272.628 270.444,272.628 257.26,84.083 385.334,84.083 		"/>
		<path style="fill:#407BFF;" d="M347.499,88.384h-52.012l-0.862-12.325c-0.342-4.896,3.349-8.866,8.246-8.866h34.281
			c4.896,0,9.143,3.969,9.486,8.866L347.499,88.384z"/>
		
			<text transform="matrix(0.9976 0 0.0698 0.9976 268.6291 111.748)" style="font-family:'Montserrat-SemiBold'; font-size:23.005px;">TAX</text>
		<polygon points="374.995,124.352 273.394,124.352 273.097,120.109 374.699,120.109 		"/>
		<polygon points="379.578,189.893 277.977,189.893 277.68,185.65 379.282,185.65 		"/>
		<path d="M377.52,153.285h-9.142l-0.639-9.14h9.143L377.52,153.285z M369.31,152.285h7.138l-0.499-7.14h-7.138L369.31,152.285z"/>
		<rect x="273.848" y="130.096" width="101.602" height="1.5"/>
		<rect x="274.331" y="137.246" width="101.602" height="1"/>
		<rect x="274.813" y="144.145" width="37.471" height="1"/>
		<rect x="318.858" y="107.07" transform="matrix(0.0012 -1 1 0.0012 167.8168 470.3419)" width="1" height="88.186"/>
		<g>
			<path d="M332.074,163.652h-5.046l-0.352-5.044h5.046L332.074,163.652z M327.961,162.652h3.041l-0.213-3.044h-3.041
				L327.961,162.652z"/>
			<path d="M332.509,169.868h-5.046l-0.352-5.043h5.046L332.509,169.868z M328.396,168.868h3.041l-0.213-3.043h-3.041
				L328.396,168.868z"/>
			<path d="M332.931,175.905h-5.046l-0.353-5.044h5.046L332.931,175.905z M328.818,174.905h3.041l-0.213-3.044h-3.041
				L328.818,174.905z"/>
			<rect x="355.537" y="140.906" transform="matrix(0.0012 -1 1 0.0012 192.806 518.6498)" width="1" height="43.803"/>
			<rect x="356.004" y="147.578" transform="matrix(0.0012 -1 1 0.0012 186.6032 525.782)" width="1" height="43.802"/>
			<rect x="356.437" y="153.782" transform="matrix(0.0012 -1 1 0.0012 180.8322 532.4124)" width="1" height="43.802"/>
		</g>
		<g>
			<path d="M280.686,163.652h-5.046l-0.353-5.044h5.046L280.686,163.652z M276.573,162.652h3.041l-0.213-3.044h-3.041
				L276.573,162.652z"/>
			<path d="M281.121,169.868h-5.045l-0.353-5.043h5.046L281.121,169.868z M277.008,168.868h3.04l-0.213-3.043h-3.041
				L277.008,168.868z"/>
			<path d="M281.543,175.905h-5.046l-0.353-5.044h5.046L281.543,175.905z M277.43,174.905h3.041l-0.213-3.044h-3.041L277.43,174.905
				z"/>
			<rect x="302.872" y="142.183" transform="matrix(0.0013 -1 1 0.0013 140.1814 465.9727)" width="1" height="41.248"/>
			<rect x="303.339" y="148.855" transform="matrix(0.0013 -1 1 0.0013 133.9782 473.1046)" width="1" height="41.248"/>
			<rect x="303.772" y="155.059" transform="matrix(0.0013 -1 1 0.0013 128.2074 479.7347)" width="1" height="41.248"/>
		</g>
		<g>
			<path d="M384.707,262.494h-51.54l-4.717-67.452h51.541L384.707,262.494z M334.1,261.494h49.536l-4.577-65.452h-49.536
				L334.1,261.494z"/>
			<g>
				<rect x="330.055" y="203.9" width="50.538" height="1"/>
				<rect x="330.744" y="213.761" width="50.539" height="1"/>
				<rect x="331.434" y="223.622" width="50.539" height="1"/>
				<rect x="332.124" y="233.482" width="50.538" height="1"/>
				<rect x="332.813" y="243.343" width="50.538" height="1"/>
				<rect x="333.502" y="253.203" width="50.538" height="1"/>
			</g>
		</g>
		<g>
			<path d="M333.663,262.494h-51.11l-4.717-67.452h51.11L333.663,262.494z M283.485,261.494h49.105l-4.577-65.452h-49.105
				L283.485,261.494z"/>
			<g>
				<rect x="279.436" y="203.9" width="50.108" height="1"/>
				<rect x="280.126" y="213.761" width="50.108" height="1"/>
				<rect x="280.815" y="223.622" width="50.108" height="1"/>
				<rect x="281.505" y="233.482" width="50.108" height="1"/>
				<rect x="282.195" y="243.343" width="50.107" height="1"/>
				<rect x="282.884" y="253.203" width="50.108" height="1"/>
			</g>
		</g>
	</g>
</g>
<g id="Device">
	<g>
		<g>
			<path style="fill:#263238;" d="M105.166,74.944h21.153l21.331,243.819h-21.153c-9.805,0-18.448-7.948-19.306-17.753
				L88.966,92.697C88.108,82.892,95.362,74.944,105.166,74.944z"/>
		</g>
		<path style="fill:#407BFF;" d="M130.829,318.763h87.156c9.805,0,17.058-7.948,16.2-17.753L215.959,92.697
			c-0.858-9.805-9.502-17.753-19.306-17.753h-87.156c-9.805,0-17.058,7.948-16.2,17.753l18.225,208.313
			C112.38,310.815,121.024,318.763,130.829,318.763z"/>
		<path style="fill:#407BFF;" d="M109.854,79.017h22.654c1.484,0,2.833,1.103,3.149,2.575l0.153,0.71
			c0.773,3.594,4.068,6.287,7.691,6.287h21.537c3.623,0,6.447-2.693,6.591-6.287l0.029-0.71c0.059-1.472,1.215-2.575,2.699-2.575
			h22.654c7.555,0,14.216,6.125,14.877,13.68l18.225,208.313c0.661,7.555-4.928,13.68-12.483,13.68h-87.156
			c-7.555,0-14.216-6.125-14.877-13.68L97.371,92.697C96.71,85.142,102.299,79.017,109.854,79.017z"/>
		<path style="opacity:0.7;fill:#FFFFFF;" d="M109.854,79.017h22.654c1.484,0,2.833,1.103,3.149,2.575l0.153,0.71
			c0.773,3.594,4.068,6.287,7.691,6.287h21.537c3.623,0,6.447-2.693,6.591-6.287l0.029-0.71c0.059-1.472,1.215-2.575,2.699-2.575
			h22.654c7.555,0,14.216,6.125,14.877,13.68l18.225,208.313c0.661,7.555-4.928,13.68-12.483,13.68h-87.156
			c-7.555,0-14.216-6.125-14.877-13.68L97.371,92.697C96.71,85.142,102.299,79.017,109.854,79.017z"/>
		<g style="opacity:0.2;">
			<path d="M158.905,81.325c0.084,0.956,0.926,1.731,1.882,1.731s1.663-0.775,1.58-1.731c-0.084-0.956-0.926-1.731-1.883-1.731
				C159.529,79.594,158.821,80.369,158.905,81.325z"/>
			<path d="M146.48,79.594c0.684,0,5.251,0,5.935,0c0.956,0,1.799,0.775,1.882,1.731c0.083,0.956-0.624,1.731-1.58,1.731
				c-0.594,0-5.341,0-5.935,0c-0.956,0-1.799-0.775-1.883-1.731C144.817,80.369,145.524,79.594,146.48,79.594z"/>
		</g>
		<g>
			<polygon style="fill:#407BFF;" points="202.038,88.555 200.205,88.555 200.044,86.722 201.877,86.722 			"/>
			<polygon style="fill:#407BFF;" points="198.212,86.722 198.372,88.555 196.539,88.555 196.379,86.722 196.218,84.889 
				198.051,84.889 			"/>
			<polygon style="fill:#407BFF;" points="194.225,83.056 194.385,84.889 194.546,86.722 194.706,88.555 192.873,88.555 
				192.713,86.722 192.553,84.889 192.392,83.056 			"/>
		</g>
		<path style="fill:#407BFF;" d="M107.352,83.178l0.47,5.376h8.065l-0.118-1.344h0.896l-0.235-2.688h-0.896l-0.118-1.344H107.352z
			 M111.95,84.522h2.688l0.235,2.688h-2.688L111.95,84.522z"/>
		<g>
			<path style="opacity:0.7;fill:#263238;" d="M211.888,92.67l18.226,208.32c0.66,7.55-4.933,13.68-12.483,13.68h-87.16
				c-7.55,0-14.216-6.13-14.877-13.68L97.368,92.67c-0.66-7.55,4.933-13.68,12.483-13.68h22.65c1.49,0,2.837,1.11,3.156,2.58
				l0.152,0.71c0.774,3.59,4.07,6.29,7.69,6.29h21.54c3.62,0,6.444-2.7,6.59-6.29l0.028-0.71c0.061-1.47,1.214-2.58,2.694-2.58
				h22.66C204.561,78.99,211.228,85.12,211.888,92.67z"/>
			<path style="fill:#407BFF;" d="M216.898,149.928l13.216,151.062c0.66,7.55-4.933,13.68-12.483,13.68h-87.16
				c-7.55,0-14.216-6.13-14.877-13.68l-13.216-151.062H216.898z"/>
			<g>
				<path style="fill:#263238;" d="M170.416,284.216l1.331,15.217c0.286,3.273-2.135,5.926-5.408,5.926h-44.367
					c-3.273,0-6.159-2.653-6.445-5.926l-1.331-15.217c-0.286-3.273,2.135-5.926,5.408-5.926h44.367
					C167.245,278.29,170.13,280.943,170.416,284.216z"/>
				<path style="fill:#263238;" d="M195.492,305.359h-15.222c-3.273,0-6.159-2.653-6.445-5.926l-1.332-15.222
					c-0.286-3.273,2.135-5.926,5.408-5.926h15.222c3.273,0,6.159,2.653,6.445,5.926l1.332,15.222
					C201.186,302.706,198.764,305.359,195.492,305.359z"/>
				<path style="fill:#263238;" d="M224.64,305.359h-15.222c-3.273,0-6.158-2.653-6.445-5.926l-1.332-15.222
					c-0.286-3.273,2.135-5.926,5.408-5.926h15.222c3.273,0,6.158,2.653,6.445,5.926l1.332,15.222
					C230.334,302.706,227.913,305.359,224.64,305.359z"/>
			</g>
			<g>
				<path style="fill:#263238;" d="M134.617,275.894h-15.222c-3.273,0-6.159-2.653-6.445-5.926l-1.332-15.222
					c-0.286-3.273,2.135-5.926,5.408-5.926h15.222c3.273,0,6.158,2.653,6.445,5.926l1.332,15.222
					C140.311,273.241,137.89,275.894,134.617,275.894z"/>
				<path style="fill:#263238;" d="M163.765,275.894h-15.222c-3.273,0-6.158-2.653-6.445-5.926l-1.332-15.222
					c-0.286-3.273,2.135-5.926,5.408-5.926h15.222c3.273,0,6.159,2.653,6.445,5.926l1.332,15.222
					C169.459,273.241,167.038,275.894,163.765,275.894z"/>
				<path style="fill:#263238;" d="M192.914,275.894h-15.222c-3.273,0-6.159-2.653-6.445-5.926l-1.332-15.222
					c-0.286-3.273,2.135-5.926,5.408-5.926h15.222c3.273,0,6.158,2.653,6.445,5.926l1.332,15.222
					C198.608,273.241,196.187,275.894,192.914,275.894z"/>
				<path style="fill:#263238;" d="M222.062,275.894H206.84c-3.273,0-6.158-2.653-6.445-5.926l-1.332-15.222
					c-0.286-3.273,2.135-5.926,5.408-5.926h15.222c3.273,0,6.158,2.653,6.445,5.926l1.332,15.222
					C227.756,273.241,225.335,275.894,222.062,275.894z"/>
			</g>
			<g>
				<path style="fill:#263238;" d="M132.039,246.429h-15.222c-3.273,0-6.159-2.653-6.445-5.926l-1.332-15.222
					c-0.286-3.273,2.135-5.926,5.408-5.926h15.222c3.273,0,6.158,2.653,6.445,5.926l1.332,15.222
					C137.733,243.775,135.312,246.429,132.039,246.429z"/>
				<path style="fill:#263238;" d="M161.187,246.429h-15.222c-3.273,0-6.159-2.653-6.445-5.926l-1.332-15.222
					c-0.286-3.273,2.135-5.926,5.408-5.926h15.222c3.273,0,6.158,2.653,6.445,5.926l1.332,15.222
					C166.882,243.775,164.46,246.429,161.187,246.429z"/>
				<path style="fill:#263238;" d="M190.336,246.429h-15.222c-3.273,0-6.158-2.653-6.445-5.926l-1.332-15.222
					c-0.286-3.273,2.135-5.926,5.408-5.926h15.222c3.273,0,6.158,2.653,6.445,5.926l1.332,15.222
					C196.03,243.775,193.609,246.429,190.336,246.429z"/>
				<path style="fill:#263238;" d="M219.484,246.429h-15.222c-3.273,0-6.159-2.653-6.445-5.926l-1.332-15.222
					c-0.286-3.273,2.135-5.926,5.408-5.926h15.222c3.273,0,6.158,2.653,6.445,5.926l1.332,15.222
					C225.178,243.775,222.757,246.429,219.484,246.429z"/>
			</g>
			<g>
				<path style="fill:#263238;" d="M129.461,216.964h-15.222c-3.273,0-6.158-2.653-6.445-5.926l-1.332-15.222
					c-0.286-3.273,2.135-5.926,5.408-5.926h15.222c3.273,0,6.158,2.653,6.445,5.926l1.332,15.222
					C135.155,214.31,132.734,216.964,129.461,216.964z"/>
				<path style="fill:#263238;" d="M158.609,216.964h-15.222c-3.273,0-6.158-2.653-6.445-5.926l-1.332-15.222
					c-0.286-3.273,2.135-5.926,5.408-5.926h15.222c3.273,0,6.158,2.653,6.445,5.926l1.332,15.222
					C164.304,214.31,161.882,216.964,158.609,216.964z"/>
				<path style="fill:#263238;" d="M187.758,216.964h-15.222c-3.273,0-6.158-2.653-6.445-5.926l-1.332-15.222
					c-0.286-3.273,2.135-5.926,5.408-5.926h15.222c3.273,0,6.158,2.653,6.445,5.926l1.332,15.222
					C193.452,214.31,191.031,216.964,187.758,216.964z"/>
				<path style="fill:#263238;" d="M216.906,216.964h-15.222c-3.273,0-6.158-2.653-6.445-5.926l-1.332-15.222
					c-0.286-3.273,2.135-5.926,5.408-5.926h15.222c3.273,0,6.158,2.653,6.445,5.926l1.332,15.222
					C222.6,214.31,220.179,216.964,216.906,216.964z"/>
			</g>
			<g>
				<path style="fill:#263238;" d="M126.883,187.498h-15.222c-3.273,0-6.158-2.653-6.445-5.926l-1.332-15.222
					c-0.286-3.273,2.135-5.926,5.408-5.926h15.222c3.273,0,6.158,2.653,6.445,5.926l1.332,15.222
					C132.577,184.845,130.156,187.498,126.883,187.498z"/>
				<path style="fill:#263238;" d="M156.031,187.498h-15.222c-3.273,0-6.158-2.653-6.445-5.926l-1.332-15.222
					c-0.286-3.273,2.135-5.926,5.408-5.926h15.222c3.273,0,6.158,2.653,6.445,5.926l1.332,15.222
					C161.726,184.845,159.305,187.498,156.031,187.498z"/>
				<path style="fill:#263238;" d="M185.18,187.498h-15.222c-3.273,0-6.158-2.653-6.445-5.926l-1.332-15.222
					c-0.286-3.273,2.135-5.926,5.408-5.926h15.222c3.273,0,6.158,2.653,6.445,5.926l1.332,15.222
					C190.874,184.845,188.453,187.498,185.18,187.498z"/>
				<path style="fill:#263238;" d="M214.328,187.498h-15.222c-3.273,0-6.158-2.653-6.445-5.926l-1.332-15.222
					c-0.286-3.273,2.135-5.926,5.408-5.926h15.222c3.273,0,6.158,2.653,6.445,5.926l1.332,15.222
					C220.023,184.845,217.601,187.498,214.328,187.498z"/>
			</g>
			<g>
				<path style="fill:#FFFFFF;" d="M164.324,126.539l1.427,16.311h-3.029l-1.205-13.77h-3.448l-0.222-2.54H164.324z"/>
				<path style="fill:#FFFFFF;" d="M168.743,141.079c-0.102-1.165,0.693-1.935,1.741-1.935c1.048,0,1.978,0.77,2.08,1.935
					c0.098,1.118-0.693,1.934-1.742,1.934C169.774,143.013,168.841,142.197,168.743,141.079z"/>
				<path style="fill:#FFFFFF;" d="M185.203,126.539l0.177,2.027l-5.088,14.283h-3.239l4.925-13.747h-6.408l0.243,2.773h-2.819
					l-0.467-5.336H185.203z"/>
				<path style="fill:#FFFFFF;" d="M199.371,126.539l0.177,2.027l-5.088,14.283h-3.239l4.925-13.747h-6.408l0.243,2.773h-2.819
					l-0.467-5.336H199.371z"/>
				<path style="fill:#FFFFFF;" d="M213.54,126.539l0.177,2.027l-5.088,14.283h-3.239l4.925-13.747h-6.408l0.243,2.773h-2.819
					l-0.467-5.336H213.54z"/>
			</g>
			<g>
				<path style="fill:#FFFFFF;" d="M140.046,291.182c-0.241-2.759,1.133-4.318,3.124-4.318c2.003,0,3.651,1.559,3.892,4.318
					c0.241,2.758-1.134,4.317-3.137,4.317C141.935,295.499,140.288,293.939,140.046,291.182z M145.491,291.182
					c-0.177-2.027-1.051-2.963-2.202-2.963c-1.139,0-1.849,0.936-1.672,2.963c0.177,2.026,1.051,2.962,2.19,2.962
					C144.959,294.143,145.669,293.208,145.491,291.182z"/>
			</g>
			<g>
				<g>
					<path style="fill:#FFFFFF;" d="M124.975,258.193l0.734,8.396h-1.559l-0.62-7.088h-1.775l-0.114-1.308H124.975z"/>
				</g>
				<g>
					<path style="fill:#FFFFFF;" d="M157.762,265.27l0.115,1.319h-6.189l-0.091-1.043l3.057-3.167
						c0.747-0.779,0.848-1.272,0.807-1.738c-0.067-0.768-0.634-1.212-1.665-1.212c-0.816,0-1.475,0.276-1.89,0.876l-1.165-0.84
						c0.571-0.876,1.689-1.392,3.069-1.392c1.823,0,3.079,0.924,3.21,2.411c0.071,0.815-0.092,1.559-1.159,2.65l-2.056,2.135
						H157.762z"/>
				</g>
				<g>
					<path style="fill:#FFFFFF;" d="M187.142,264.07c0.124,1.415-0.837,2.639-3.091,2.639c-1.187,0-2.406-0.36-3.239-0.972
						l0.565-1.211c0.644,0.503,1.584,0.827,2.531,0.827c1.116,0,1.732-0.492,1.664-1.271c-0.066-0.756-0.661-1.247-1.932-1.247
						h-0.768l-0.093-1.067l1.709-2.267h-3.814l-0.114-1.308h5.721l0.091,1.044l-1.827,2.422
						C186.146,261.863,187.032,262.81,187.142,264.07z"/>
				</g>
			</g>
			<g>
				<g>
					<path style="fill:#FFFFFF;" d="M127.514,234.848h-1.487l0.167,1.907h-1.511l-0.167-1.907h-4.605l-0.094-1.079l3.664-5.409
						h1.667l-3.445,5.169h2.746l-0.148-1.69h1.463l0.148,1.69h1.487L127.514,234.848z"/>
				</g>
				<g>
					<path style="fill:#FFFFFF;" d="M155.066,234.177c0.129,1.475-0.831,2.698-3.086,2.698c-1.187,0-2.418-0.36-3.239-0.972
						l0.554-1.211c0.656,0.503,1.596,0.827,2.543,0.827c1.115,0,1.732-0.492,1.663-1.283c-0.07-0.804-0.63-1.308-2.369-1.308h-2.027
						l0.032-4.569h4.929l0.114,1.308h-3.61l-0.01,1.942h0.804C153.845,231.609,154.935,232.689,155.066,234.177z"/>
				</g>
				<g>
					<path style="fill:#FFFFFF;" d="M185.268,234.152c0.146,1.667-1.117,2.723-2.832,2.723c-2.291,0-3.763-1.476-3.999-4.174
						c-0.252-2.879,1.289-4.462,3.723-4.462c0.839,0,1.659,0.181,2.254,0.54l-0.473,1.176c-0.482-0.301-1.043-0.408-1.631-0.408
						c-1.583,0-2.493,0.983-2.326,2.891l0.001,0.012c0.452-0.588,1.231-0.875,2.167-0.875
						C183.808,231.574,185.131,232.581,185.268,234.152z M183.764,234.225c-0.077-0.876-0.785-1.428-1.804-1.428
						c-1.008,0-1.65,0.612-1.577,1.439c0.069,0.791,0.747,1.415,1.863,1.415C183.217,235.651,183.84,235.1,183.764,234.225z"/>
				</g>
			</g>
			<g>
				<g>
					<path style="fill:#FFFFFF;" d="M123.185,198.524l0.091,1.044l-2.619,7.352h-1.667l2.535-7.076h-3.298l0.125,1.428h-1.451
						l-0.24-2.747H123.185z"/>
				</g>
				<g>
					<path style="fill:#FFFFFF;" d="M153.177,204.509c0.137,1.559-1.133,2.531-3.22,2.531s-3.503-0.972-3.64-2.531
						c-0.081-0.923,0.339-1.607,1.169-2.002c-0.704-0.372-1.129-0.972-1.198-1.764c-0.126-1.439,1.055-2.339,2.914-2.339
						c1.871,0,3.221,0.899,3.347,2.339c0.069,0.792-0.262,1.392-0.913,1.764C152.545,202.902,153.097,203.586,153.177,204.509z
						 M151.602,204.461c-0.072-0.827-0.837-1.343-1.989-1.343c-1.151,0-1.802,0.516-1.73,1.343c0.074,0.852,0.814,1.355,1.966,1.355
						C151.001,205.816,151.677,205.313,151.602,204.461z M147.829,200.815c0.063,0.72,0.702,1.175,1.686,1.175
						c0.996,0,1.567-0.455,1.504-1.175c-0.066-0.756-0.751-1.188-1.711-1.188C148.349,199.628,147.763,200.06,147.829,200.815z"/>
				</g>
				<g>
					<path style="fill:#FFFFFF;" d="M182.266,202.578c0.252,2.879-1.289,4.462-3.723,4.462c-0.839,0-1.659-0.18-2.254-0.54
						l0.472-1.175c0.482,0.3,1.043,0.407,1.631,0.407c1.584,0,2.493-0.983,2.326-2.891l-0.001-0.012
						c-0.452,0.588-1.23,0.876-2.166,0.876c-1.655,0-2.978-1.008-3.116-2.579c-0.146-1.667,1.117-2.723,2.832-2.723
						C180.558,198.404,182.03,199.88,182.266,202.578z M180.321,201.043c-0.069-0.791-0.747-1.415-1.863-1.415
						c-0.971,0-1.595,0.552-1.518,1.427c0.077,0.876,0.785,1.428,1.804,1.428C179.751,202.482,180.393,201.871,180.321,201.043z"/>
				</g>
			</g>
			<g>
				<path style="fill:#FFFFFF;" d="M188.227,293.042c0.023,0.264-0.018,0.48-0.186,1.031l-0.464,1.69h-0.971l0.319-1.835
					c-0.349-0.144-0.603-0.455-0.641-0.887c-0.052-0.6,0.332-0.996,0.884-0.996C187.732,292.046,188.176,292.454,188.227,293.042z"
					/>
			</g>
			<g>
				<path style="fill:#FFFFFF;" d="M212.937,289.13h5.529l0.105,1.2h-5.529L212.937,289.13z M213.191,292.033h5.529l0.105,1.199
					h-5.529L213.191,292.033z"/>
			</g>
			<g>
				<path style="fill:#FFFFFF;" d="M216.527,262.392h-2.123l0.184,2.099h-1.283l-0.184-2.099h-2.123l-0.105-1.199h2.122l-0.184-2.1
					h1.283l0.184,2.1h2.123L216.527,262.392z"/>
			</g>
			<g>
				<path style="fill:#FFFFFF;" d="M210.782,205.276l-1.632-1.501l-1.354,1.483l-0.987-0.907l1.355-1.483l-1.632-1.501l0.774-0.849
					l1.632,1.501l1.354-1.484l0.987,0.907l-1.355,1.484l1.633,1.502L210.782,205.276z"/>
			</g>
			<g>
				<path style="fill:#FFFFFF;" d="M210.289,232.797h3.298l0.109,1.247h-3.298L210.289,232.797z"/>
			</g>
			<g>
				<g>
					<path style="fill:#FFFFFF;" d="M208.738,173.852l0.068,0.779h-6.43l-0.068-0.779H208.738z"/>
				</g>
				<path style="fill:#FFFFFF;" d="M206.093,171.342c0.038,0.436-0.284,0.789-0.72,0.789c-0.436,0-0.82-0.353-0.858-0.789
					c-0.038-0.436,0.284-0.789,0.72-0.789C205.671,170.553,206.055,170.907,206.093,171.342z"/>
				<path style="fill:#FFFFFF;" d="M206.595,177.085c0.038,0.436-0.284,0.789-0.72,0.789c-0.436,0-0.82-0.353-0.858-0.789
					c-0.038-0.436,0.284-0.789,0.72-0.789C206.173,176.296,206.557,176.649,206.595,177.085z"/>
			</g>
			<g>
				<path style="fill:#FFFFFF;" d="M172.169,171.697c-0.121-1.379,0.602-2.303,1.801-2.303c1.199,0,2.094,0.912,2.216,2.303
					c0.122,1.392-0.614,2.303-1.813,2.303C173.173,174,172.289,173.076,172.169,171.697z M175.203,171.697
					c-0.082-0.936-0.512-1.463-1.159-1.463c-0.624,0-0.985,0.539-0.904,1.463c0.081,0.924,0.536,1.463,1.16,1.463
					C174.947,173.16,175.285,172.633,175.203,171.697z M179.014,169.479h1.175l-4.998,8.395h-1.175L179.014,169.479z
					 M178.02,175.655c-0.121-1.379,0.602-2.303,1.801-2.303c1.199,0,2.095,0.924,2.216,2.303c0.121,1.379-0.614,2.303-1.813,2.303
					C179.025,177.958,178.14,177.034,178.02,175.655z M181.054,175.655c-0.081-0.924-0.523-1.463-1.159-1.463
					c-0.636,0-0.986,0.527-0.904,1.463c0.082,0.936,0.524,1.463,1.16,1.463C180.786,177.118,181.135,176.579,181.054,175.655z"/>
			</g>
			<g>
				<path style="fill:#FFFFFF;" d="M114.692,174.672c-0.168-1.919,1.153-3.275,3.18-3.275c1.247,0,2.288,0.516,2.865,1.487
					l-1.093,0.672c-0.437-0.612-1.037-0.888-1.673-0.888c-1.103,0-1.876,0.768-1.768,2.003c0.109,1.247,1.015,2.003,2.118,2.003
					c0.636,0,1.187-0.276,1.518-0.888l1.21,0.672c-0.408,0.959-1.356,1.499-2.603,1.499
					C116.42,177.958,114.86,176.591,114.692,174.672z"/>
			</g>
			<g>
				<polygon style="fill:#FFFFFF;" points="144.471,170.553 141.669,173.852 145.042,177.085 151.932,177.085 151.361,170.553 				
					"/>
				<g>
					<path style="fill:#263238;" d="M150.167,172.192l-1.602,1.756l1.836,1.688l-0.409,0.448l-1.836-1.688l-1.615,1.77l-0.52-0.477
						l1.616-1.771l-1.836-1.689l0.409-0.448l1.836,1.689l1.602-1.756L150.167,172.192z"/>
				</g>
			</g>
		</g>
		<g style="opacity:0.1;">
			<path style="fill:#FFFFFF;" d="M164.974,88.589l60.164,223.713c-2.066,1.505-4.645,2.388-7.51,2.388h-4.704L152.118,88.589
				H164.974z"/>
			<path style="fill:#FFFFFF;" d="M109.854,79.017h22.654c1.484,0,2.833,1.103,3.149,2.575l0.152,0.71
				c0.753,3.502,3.901,6.141,7.413,6.275l60.809,226.114h-46.381L97.369,90.535C97.836,84.01,103.036,79.017,109.854,79.017z"/>
		</g>
	</g>
</g>
<g id="Table">
	<g>
		<g>
			<g>
				<g>
					<path style="fill:#263238;" d="M118.12,356.606v61.779c0,1.537,1.246,2.783,2.783,2.783l0,0c1.38,0,2.551-1.011,2.753-2.376
						l5.502-61.867c0.251-1.698-1.081-3.217-2.797-3.19l-5.502,0.088C119.339,353.848,118.12,355.086,118.12,356.606z"/>
				</g>
				<g>
					<path style="fill:#263238;" d="M198.858,356.606v61.779c0,1.537-1.246,2.783-2.783,2.783l0,0c-1.38,0-2.551-1.011-2.753-2.376
						l-5.502-61.867c-0.251-1.698,1.081-3.217,2.797-3.19l5.502,0.088C197.639,353.848,198.858,355.086,198.858,356.606z"/>
				</g>
			</g>
		</g>
		<path style="fill:#263238;" d="M203.391,357.172h-90.763c-2.549,0-4.616-2.067-4.616-4.616l0,0c0-2.549,2.067-4.616,4.616-4.616
			h90.763c2.549,0,4.616,2.067,4.616,4.616l0,0C208.007,355.105,205.941,357.172,203.391,357.172z"/>
		<g>
			<polygon style="fill:#263238;" points="123.935,320.772 121.216,348.249 125.648,348.249 			"/>
			<g>
				<g>
					<polygon style="fill:#407BFF;" points="156.997,348.088 125.189,348.221 123.635,320.773 155.444,320.64 					"/>
					<polygon style="opacity:0.6;fill:#FFFFFF;" points="156.997,348.088 125.189,348.221 123.635,320.773 155.444,320.64 					"/>
				</g>
				<polygon style="fill:#263238;" points="155.444,320.64 123.635,320.773 123.345,315.638 155.153,315.504 				"/>
				<g>
					<g>
						<path style="fill:#407BFF;" d="M128.102,313.922c-0.026-0.468-0.427-0.846-0.896-0.844c-0.468,0.002-0.826,0.383-0.799,0.851
							c0.017,0.3,0.175,3.091,0.192,3.391c0.026,0.468,0.427,0.846,0.896,0.844c0.468-0.002,0.826-0.383,0.8-0.851
							C128.28,317.073,128.115,314.162,128.102,313.922z"/>
						<path style="fill:#407BFF;" d="M134.224,313.896c-0.027-0.468-0.427-0.846-0.896-0.844c-0.468,0.002-0.826,0.383-0.8,0.851
							c0.017,0.3,0.175,3.091,0.192,3.391c0.026,0.468,0.427,0.846,0.895,0.844c0.468-0.002,0.826-0.383,0.8-0.851
							C134.402,317.047,134.238,314.136,134.224,313.896z"/>
						<path style="fill:#407BFF;" d="M140.346,313.87c-0.027-0.468-0.427-0.846-0.896-0.844c-0.468,0.002-0.826,0.383-0.8,0.851
							c0.017,0.3,0.175,3.091,0.192,3.391c0.027,0.468,0.428,0.846,0.896,0.844c0.468-0.002,0.826-0.383,0.8-0.851
							C140.525,317.022,140.36,314.11,140.346,313.87z"/>
						<path style="fill:#407BFF;" d="M146.468,313.845c-0.026-0.468-0.427-0.846-0.896-0.844c-0.468,0.002-0.826,0.383-0.799,0.851
							c0.017,0.3,0.175,3.091,0.192,3.391c0.027,0.468,0.427,0.846,0.896,0.844c0.468-0.002,0.826-0.383,0.8-0.851
							C146.647,316.996,146.482,314.085,146.468,313.845z"/>
						<path style="fill:#407BFF;" d="M152.591,313.819c-0.027-0.468-0.428-0.846-0.896-0.844c-0.468,0.002-0.826,0.383-0.8,0.851
							c0.017,0.3,0.175,3.091,0.192,3.391c0.027,0.468,0.427,0.846,0.895,0.844c0.468-0.002,0.826-0.383,0.8-0.851
							C152.769,316.97,152.604,314.059,152.591,313.819z"/>
					</g>
					<g style="opacity:0.7;">
						<path style="fill:#FFFFFF;" d="M128.102,313.922c-0.026-0.468-0.427-0.846-0.896-0.844c-0.468,0.002-0.826,0.383-0.799,0.851
							c0.017,0.3,0.175,3.091,0.192,3.391c0.026,0.468,0.427,0.846,0.896,0.844c0.468-0.002,0.826-0.383,0.8-0.851
							C128.28,317.073,128.115,314.162,128.102,313.922z"/>
						<path style="fill:#FFFFFF;" d="M134.224,313.896c-0.027-0.468-0.427-0.846-0.896-0.844c-0.468,0.002-0.826,0.383-0.8,0.851
							c0.017,0.3,0.175,3.091,0.192,3.391c0.026,0.468,0.427,0.846,0.895,0.844c0.468-0.002,0.826-0.383,0.8-0.851
							C134.402,317.047,134.238,314.136,134.224,313.896z"/>
						<path style="fill:#FFFFFF;" d="M140.346,313.87c-0.027-0.468-0.427-0.846-0.896-0.844c-0.468,0.002-0.826,0.383-0.8,0.851
							c0.017,0.3,0.175,3.091,0.192,3.391c0.027,0.468,0.428,0.846,0.896,0.844c0.468-0.002,0.826-0.383,0.8-0.851
							C140.525,317.022,140.36,314.11,140.346,313.87z"/>
						<path style="fill:#FFFFFF;" d="M146.468,313.845c-0.026-0.468-0.427-0.846-0.896-0.844c-0.468,0.002-0.826,0.383-0.799,0.851
							c0.017,0.3,0.175,3.091,0.192,3.391c0.027,0.468,0.427,0.846,0.896,0.844c0.468-0.002,0.826-0.383,0.8-0.851
							C146.647,316.996,146.482,314.085,146.468,313.845z"/>
						<path style="fill:#FFFFFF;" d="M152.591,313.819c-0.027-0.468-0.428-0.846-0.896-0.844c-0.468,0.002-0.826,0.383-0.8,0.851
							c0.017,0.3,0.175,3.091,0.192,3.391c0.027,0.468,0.427,0.846,0.895,0.844c0.468-0.002,0.826-0.383,0.8-0.851
							C152.769,316.97,152.604,314.059,152.591,313.819z"/>
					</g>
				</g>
				<g>
					<polygon style="fill:#407BFF;" points="157.885,347.316 126.077,347.449 123.635,320.773 155.444,320.64 					"/>
					<polygon style="opacity:0.8;fill:#FFFFFF;" points="157.885,347.316 126.077,347.449 123.635,320.773 155.444,320.64 					"/>
				</g>
				<g>
					<polygon style="fill:#407BFF;" points="148.707,327.224 132.961,327.29 132.531,322.595 148.277,322.529 					"/>
					<polygon style="opacity:0.6;fill:#FFFFFF;" points="148.707,327.224 132.961,327.29 132.531,322.595 148.277,322.529 					"/>
				</g>
				<polygon style="fill:#FFFFFF;" points="130.865,333.365 126.66,333.383 126.275,329.177 130.48,329.159 				"/>
				<polygon style="fill:#FFFFFF;" points="136.831,333.34 132.626,333.358 132.241,329.152 136.446,329.134 				"/>
				<g>
					<polygon style="fill:#407BFF;" points="131.384,339.038 127.179,339.055 126.794,334.85 130.999,334.832 					"/>
				</g>
				<g>
					<polygon style="fill:#407BFF;" points="131.904,344.711 127.698,344.728 127.313,340.522 131.519,340.505 					"/>
				</g>
				<g>
					<polygon style="fill:#407BFF;" points="137.35,339.013 133.145,339.03 132.76,334.825 136.965,334.807 					"/>
					<polygon style="opacity:0.2;fill:#FFFFFF;" points="137.35,339.013 133.145,339.03 132.76,334.825 136.965,334.807 					"/>
				</g>
				<g>
					<polygon style="fill:#407BFF;" points="143.316,338.988 139.111,339.005 138.726,334.8 142.931,334.782 					"/>
					<polygon style="opacity:0.2;fill:#FFFFFF;" points="143.316,338.988 139.111,339.005 138.726,334.8 142.931,334.782 					"/>
				</g>
				<g>
					<polygon style="fill:#407BFF;" points="149.282,338.963 145.076,338.98 144.691,334.775 148.897,334.757 					"/>
					<polygon style="opacity:0.2;fill:#FFFFFF;" points="149.282,338.963 145.076,338.98 144.691,334.775 148.897,334.757 					"/>
				</g>
				<g>
					<polygon style="fill:#407BFF;" points="155.248,338.938 151.042,338.956 150.657,334.75 154.863,334.732 					"/>
					<polygon style="opacity:0.2;fill:#FFFFFF;" points="155.248,338.938 151.042,338.956 150.657,334.75 154.863,334.732 					"/>
				</g>
				<g>
					<polygon style="fill:#407BFF;" points="137.869,344.686 133.664,344.703 133.279,340.497 137.484,340.48 					"/>
					<polygon style="opacity:0.2;fill:#FFFFFF;" points="137.869,344.686 133.664,344.703 133.279,340.497 137.484,340.48 					"/>
				</g>
				<g>
					<polygon style="fill:#407BFF;" points="143.835,344.661 139.63,344.678 139.245,340.473 143.45,340.455 					"/>
					<polygon style="opacity:0.2;fill:#FFFFFF;" points="143.835,344.661 139.63,344.678 139.245,340.473 143.45,340.455 					"/>
				</g>
				<g>
					<polygon style="fill:#407BFF;" points="149.801,344.636 145.596,344.653 145.211,340.448 149.416,340.43 					"/>
					<polygon style="opacity:0.2;fill:#FFFFFF;" points="149.801,344.636 145.596,344.653 145.211,340.448 149.416,340.43 					"/>
				</g>
				<g>
					<polygon style="fill:none;" points="142.797,333.315 138.591,333.333 138.206,329.127 142.412,329.109 					"/>
					<polygon style="fill:#407BFF;" points="142.797,333.315 138.591,333.333 138.206,329.127 142.412,329.109 					"/>
					<polygon style="opacity:0.2;fill:#FFFFFF;" points="142.797,333.315 138.591,333.333 138.206,329.127 142.412,329.109 					"/>
				</g>
				<g>
					<polygon style="fill:none;" points="148.763,333.29 144.557,333.308 144.172,329.102 148.378,329.084 					"/>
					<polygon style="fill:#407BFF;" points="148.763,333.29 144.557,333.308 144.172,329.102 148.378,329.084 					"/>
					<polygon style="opacity:0.2;fill:#FFFFFF;" points="148.763,333.29 144.557,333.308 144.172,329.102 148.378,329.084 					"/>
				</g>
				<g>
					<polygon style="fill:none;" points="154.729,333.265 150.523,333.283 150.138,329.077 154.344,329.059 					"/>
					<polygon style="fill:#407BFF;" points="154.729,333.265 150.523,333.283 150.138,329.077 154.344,329.059 					"/>
					<polygon style="opacity:0.2;fill:#FFFFFF;" points="154.729,333.265 150.523,333.283 150.138,329.077 154.344,329.059 					"/>
				</g>
				<polygon style="fill:#FFFFFF;" points="155.767,344.611 151.561,344.628 151.176,340.423 155.382,340.405 				"/>
			</g>
		</g>
		<g>
			<g>
				<g>
					<path style="fill:#407BFF;" d="M190.572,340.47v6.357c0.784,0,0.785,1.217,0,1.217c-2.423,0-4.847,0.016-7.272,0.031v-8.823
						c2.424,0,4.848,0,7.272,0C191.356,339.252,191.357,340.47,190.572,340.47z"/>
					<path style="opacity:0.3;fill:#FFFFFF;" d="M190.572,340.47v6.357c0.784,0,0.785,1.217,0,1.217
						c-2.423,0-4.847,0.016-7.272,0.031v-8.823c2.424,0,4.848,0,7.272,0C191.356,339.252,191.357,340.47,190.572,340.47z"/>
				</g>
				<rect x="184.923" y="340.479" style="fill:#407BFF;" width="5.649" height="6.349"/>
				<rect x="184.923" y="340.479" style="opacity:0.6;fill:#FFFFFF;" width="5.649" height="6.349"/>
			</g>
			<path style="fill:#407BFF;" d="M186.108,339.861h-31.184c-1.346,0-2.438,1.696-2.438,3.787c0,2.092,1.091,3.787,2.438,3.787
				h31.184V339.861z"/>
			<path style="opacity:0.9;fill:#FFFFFF;" d="M186.108,339.861h-31.184c-1.346,0-2.438,1.696-2.438,3.787
				c0,2.092,1.091,3.787,2.438,3.787h31.184V339.861z"/>
			<g>
				<g>
					<path style="fill:#407BFF;" d="M186.108,348.044c-6.412,0-24.434,0.116-30.844,0c-4.391-0.079-4.627-8.496-0.32-8.792
						c3.003-0.206,6.091,0,9.099,0c3.488,0,18.577,0,22.065,0c0.784,0,0.785,1.217,0,1.217c-6.077,0-23.754,0-29.831,0
						c-1.406,0-2.412,0.016-2.956,1.675c-0.47,1.436-0.322,4.365,1.603,4.683c0.207,0.034,0.452,0,0.66,0c3.313,0,6.627,0,9.94,0
						c2.995,0,17.589,0,20.584,0C186.892,346.827,186.893,348.044,186.108,348.044L186.108,348.044z"/>
				</g>
			</g>
		</g>
		<g>
			<g>
				<path style="fill:#407BFF;" d="M188.552,339.089l-5.08,0.066c0.033-0.914,0.341-1.972,1.333-2.709
					c0.287-0.22,0.903-0.397,0.903-0.397c0.54,0.154,0.947,0.584,1.289,1.024c0.341,0.452,0.584,0.969,0.837,1.476
					C187.966,338.814,188.255,339.056,188.552,339.089z"/>
			</g>
			<g style="opacity:0.3;">
				<path d="M188.552,339.089l-4.959-0.06c0.033-0.914,0.22-1.846,1.212-2.583c0.287-0.22,0.903-0.397,0.903-0.397
					c0.54,0.154,0.947,0.584,1.289,1.024c0.341,0.452,0.584,0.969,0.837,1.476C187.966,338.814,188.255,339.056,188.552,339.089z"/>
			</g>
			<g>
				<g>
					<path style="fill:#407BFF;" d="M180.079,339.099h-5.555c0.16-0.96,0.36-1.99,0.86-2.95c0.37-0.72,0.91-1.4,1.68-1.98
						c0.53-0.41,1.65-0.72,1.65-0.72c1.01,0.46,0.78,4.9,1.36,5.37L180.079,339.099z"/>
				</g>
				<path style="fill:#407BFF;" d="M185.634,336.079c0,0-0.56,0.16-0.82,0.36c-0.9,0.67-1.18,1.63-1.21,2.46
					c-0.01,0.05-0.01,0.09-0.01,0.13c-0.12-0.02-0.23-0.06-0.32-0.11c0.01,0.02,0.03,0.03,0.05,0.04c0.1,0.07,0.22,0.11,0.35,0.13
					l-0.12,0.01h-3.48v-0.28c0.01,0.01,0.01,0.01,0.02,0.01c0.21,0,0.03-3.16,1.43-2.73c0-0.02-0.01-0.03-0.02-0.05L185.634,336.079
					z"/>
			</g>
			<g>
				<path style="fill:#407BFF;" d="M158.934,333.249h-0.4C158.534,333.249,158.684,333.229,158.934,333.249z"/>
				<g>
					<path style="fill:#407BFF;" d="M180.074,339.104h-5.55c0.159-0.96,0.359-1.99,0.859-2.95c0.37-0.72,0.91-1.4,1.68-1.98
						c0.53-0.41,1.65-0.72,1.65-0.72c1.012,0.453,0.786,4.894,1.364,5.368L180.074,339.104z"/>
				</g>
				<path style="opacity:0.3;" d="M183.673,339.094l-0.119,0.01h-9.03c0.159-0.96,0.359-1.99,0.859-2.95
					c0.37-0.72,0.91-1.4,1.68-1.98c0.53-0.41,1.65-0.72,1.65-0.72c1.012,0.453,0.786,4.894,1.364,5.368
					c0.243,0.199,2.906-0.068,3.246,0.142C183.423,339.034,183.543,339.074,183.673,339.094z"/>
				<path style="fill:#407BFF;" d="M183.624,339.039h-0.03v-0.01C183.604,339.039,183.614,339.039,183.624,339.039z"/>
				<path style="fill:#407BFF;" d="M178.901,333.389c0,0-1.12,0.31-1.65,0.72c-0.77,0.58-1.31,1.26-1.68,1.98
					c-0.5,0.96-0.7,1.99-0.74,2.95c-0.02,0.6,0.01,1.17,0.07,1.67c0.14,1.15,0.43,1.95,0.43,1.95h-20.21
					c-0.87-1.51-0.84-3.96-0.24-5.59c0.6-1.64,2.24-3.29,3.7-3.82h0.64L178.901,333.389z"/>
				<path style="opacity:0.3;fill:#FFFFFF;" d="M178.901,333.389c0,0-1.12,0.31-1.65,0.72c-0.77,0.58-1.31,1.26-1.68,1.98
					c-0.5,0.96-0.7,1.99-0.74,2.95c-0.02,0.6,0.01,1.17,0.07,1.67c0.14,1.15,0.43,1.95,0.43,1.95h-20.21
					c-0.87-1.51-0.84-3.96-0.24-5.59c0.6-1.64,2.24-3.29,3.7-3.82h0.64L178.901,333.389z"/>
			</g>
		</g>
	</g>
</g>
<g id="Character">
	<g>
		<g>
			<g>
				<g>
					<path style="fill:#407BFF;" d="M387.534,395.302l5.81-92.507c2.158-34.36-25.128-63.413-59.555-63.413h0
						c-31.651,0-57.796,24.712-59.578,56.313l-6.092,108.046h110.429C383.301,403.741,387.236,400.046,387.534,395.302z"/>
					<path style="opacity:0.1;" d="M387.744,391.951l5.599-89.156c2.158-34.36-25.128-63.413-59.555-63.413h0
						c-31.651,0-57.796,24.712-59.578,56.313l-6.092,108.046H375.19C381.831,403.741,387.328,398.579,387.744,391.951z"/>
				</g>
				<path style="fill:#407BFF;" d="M369.611,403.741l6.34-100.947c2.158-34.36-25.128-63.413-59.555-63.413h0
					c-31.651,0-57.796,24.712-59.578,56.313l-6.092,108.046H369.611z"/>
			</g>
			<g>
				<path style="fill:#263238;" d="M371.512,421.12l1.526,0c0.777,0,1.501-0.657,1.628-1.551l2.25-15.823h-9.282l2.25,15.823
					C370.011,420.463,370.734,421.12,371.512,421.12z"/>
			</g>
			<g>
				<path style="fill:#263238;" d="M222.036,421.12l1.383,0c0.705,0,1.361-0.657,1.476-1.551l2.04-15.823h-8.414l2.04,15.823
					C220.676,420.463,221.332,421.12,222.036,421.12z"/>
			</g>
			<g>
				<path style="fill:#263238;" d="M265.072,421.12l1.383,0c0.705,0,1.361-0.657,1.476-1.551l2.04-15.823h-8.414l2.04,15.823
					C263.712,420.463,264.367,421.12,265.072,421.12z"/>
			</g>
			<g>
				<path style="fill:#263238;" d="M325.178,421.12l1.526,0c0.777,0,1.501-0.657,1.628-1.551l2.25-15.823H321.3l2.25,15.823
					C323.678,420.463,324.401,421.12,325.178,421.12z"/>
			</g>
			<g>
				<g>
					<path style="fill:#407BFF;" d="M274.805,365.618h-40.681l-2.695-39.223l-0.574-8.42v-0.012l-0.265-3.875
						c-0.077-1.036-0.21-2.047-0.398-3.034c-0.044-0.219-0.099-0.451-0.143-0.67c-0.022-0.171-0.066-0.329-0.122-0.487
						c-1.16-4.118-3.325-7.75-6.197-10.528c-3.435-3.326-7.842-5.434-12.702-5.727h38.262c0.42-0.024,0.84-0.037,1.259-0.037
						c5.313,0,10.162,2.181,13.862,5.763c2.872,2.778,5.037,6.409,6.197,10.528c0.055,0.158,0.099,0.317,0.121,0.487
						c0.265,1.194,0.453,2.425,0.541,3.704l0.265,3.875v0.012L274.805,365.618z"/>
					<path style="opacity:0.1;" d="M274.805,365.618h-40.681l-2.695-39.223l-0.574-8.42v-0.012l-0.265-3.875
						c-0.077-1.036-0.21-2.047-0.398-3.034c-0.044-0.219-0.099-0.451-0.143-0.67c-0.022-0.171-0.066-0.329-0.122-0.487
						c-1.16-4.118-3.325-7.75-6.197-10.528c-3.435-3.326-7.842-5.434-12.702-5.727h38.262c0.42-0.024,0.84-0.037,1.259-0.037
						c5.313,0,10.162,2.181,13.862,5.763c2.872,2.778,5.037,6.409,6.197,10.528c0.055,0.158,0.099,0.317,0.121,0.487
						c0.265,1.194,0.453,2.425,0.541,3.704l0.265,3.875v0.012L274.805,365.618z"/>
				</g>
			</g>
			<g style="opacity:0.1;">
				<path d="M307.046,344.724h16.343c3.973,0,7.193,2.515,7.193,5.616v9.665c0,3.102-3.22,5.616-7.193,5.616h-16.343V344.724z"/>
			</g>
			<g>
				<path style="fill:#407BFF;" d="M239.552,365.622h73.514c2.996,0,5.425-2.429,5.425-5.425v-10.048
					c0-2.996-2.429-5.425-5.425-5.425h-73.514c-2.996,0-5.425,2.429-5.425,5.425v10.048
					C234.127,363.193,236.556,365.622,239.552,365.622z"/>
			</g>
			<path style="fill:#407BFF;" d="M410.045,316.781c0,11.454-8.31,20.982-19.228,22.846l-4.216,55.745
				c-0.366,4.74-3.802,8.371-7.92,8.371h-44.876c4.119,0,7.555-3.631,7.92-8.371l2.254-29.755l1.962-25.99
				c7.262-1.243,13.367-5.861,16.632-12.197c0.219-0.402,0.414-0.828,0.597-1.255c1.292-2.876,1.998-6.044,1.998-9.394
				c0-1.621-0.17-3.205-0.487-4.728c-0.122-0.621-0.28-1.243-0.451-1.84c-0.829-2.766-2.145-5.313-3.851-7.542l-0.012-0.012
				c-2.132-2.778-4.874-5.032-8.017-6.604c-3.119-1.572-6.641-2.449-10.357-2.449h44.876c2.376,0,4.679,0.366,6.848,1.036
				c1.218,0.378,2.389,0.853,3.509,1.413c3.144,1.572,5.885,3.826,8.018,6.604l0.012,0.012
				C408.254,306.583,410.045,311.469,410.045,316.781z"/>
			<path style="opacity:0.1;" d="M410.045,316.781c0,11.454-8.31,20.982-19.228,22.846l-4.216,55.745
				c-0.366,4.74-3.802,8.371-7.92,8.371h-44.876c4.119,0,7.555-3.631,7.92-8.371l2.254-29.755l1.962-25.99
				c7.262-1.243,13.367-5.861,16.632-12.197c0.219-0.402,0.414-0.828,0.597-1.255c1.292-2.876,1.998-6.044,1.998-9.394
				c0-1.621-0.17-3.205-0.487-4.728c-0.122-0.621-0.28-1.243-0.451-1.84c-0.829-2.766-2.145-5.313-3.851-7.542l-0.012-0.012
				c-2.132-2.778-4.874-5.032-8.017-6.604c-3.119-1.572-6.641-2.449-10.357-2.449h44.876c2.376,0,4.679,0.366,6.848,1.036
				c1.218,0.378,2.389,0.853,3.509,1.413c3.144,1.572,5.885,3.826,8.018,6.604l0.012,0.012
				C408.254,306.583,410.045,311.469,410.045,316.781z"/>
			<path style="fill:#407BFF;" d="M365.173,316.784c0,11.448-7.534,20.981-17.434,22.842l-3.822,55.745
				c-0.329,4.745-3.443,8.377-7.185,8.377H216.906c-3.732,0-6.846-3.633-7.185-8.377l-3.832-55.833
				c-9.699-2.036-17.034-11.448-17.034-22.753c0-4.998,1.437-9.621,3.872-13.397c1.986-3.093,4.66-5.625,7.753-7.331
				c2.824-1.574,6.017-2.455,9.39-2.455c5.309,0,10.159,2.191,13.861,5.768c2.874,2.774,5.039,6.407,6.197,10.524
				c0.05,0.165,0.1,0.319,0.12,0.495c0.269,1.189,0.449,2.422,0.539,3.699l0.269,3.875v0.011l3.263,47.643h85.4l3.532-51.529
				c0.509-7.276,4.051-13.342,8.971-16.215c3.103-2.444,6.846-3.963,10.877-4.216c0.419-0.044,0.838-0.055,1.257-0.055
				c3.273,0,6.376,0.826,9.131,2.323c0.09,0.033,0.17,0.088,0.259,0.132c2.854,1.574,5.339,3.831,7.275,6.605l0.01,0.011
				C363.546,306.579,365.173,311.467,365.173,316.784z"/>
			<g>
				<path style="opacity:0.1;fill:#FFFFFF;" d="M317.543,403.747H216.906c-3.732,0-6.846-3.633-7.185-8.377l-3.832-55.833
					c-9.699-2.036-17.034-11.448-17.034-22.753c0-4.998,1.437-9.621,3.872-13.397c1.986-3.093,4.66-5.625,7.753-7.331
					c2.824-1.574,6.017-2.455,9.39-2.455c5.309,0,10.159,2.191,13.861,5.768c2.874,2.774,5.039,6.407,6.197,10.524
					c0.05,0.165,0.1,0.319,0.12,0.495c0.269,1.189,0.449,2.422,0.539,3.699l0.269,3.875v0.011l3.263,47.643h85.4L317.543,403.747z"
					/>
			</g>
			<g>
				<path style="fill:#407BFF;" d="M319.519,365.615l3.532-51.529c0.509-7.276,4.051-13.342,8.971-16.215
					c3.103-2.444,6.846-3.963,10.877-4.216c0.419-0.044,0.838-0.055,1.257-0.055c3.273,0,6.376,0.826,9.131,2.323
					c0.09,0.033,0.17,0.088,0.259,0.132c2.854,1.574,5.339,3.831,7.275,6.605l0.01,0.011c2.714,3.908,4.341,8.796,4.341,14.112
					c0,11.448-7.534,20.981-17.434,22.842l-3.822,55.745c-0.329,4.745-3.443,8.377-7.185,8.377h-19.19L319.519,365.615z"/>
				<path style="opacity:0.1;fill:#FFFFFF;" d="M319.519,365.615l3.532-51.529c0.509-7.276,4.051-13.342,8.971-16.215
					c3.103-2.444,6.846-3.963,10.877-4.216c0.419-0.044,0.838-0.055,1.257-0.055c3.273,0,6.376,0.826,9.131,2.323
					c0.09,0.033,0.17,0.088,0.259,0.132c2.854,1.574,5.339,3.831,7.275,6.605l0.01,0.011c2.714,3.908,4.341,8.796,4.341,14.112
					c0,11.448-7.534,20.981-17.434,22.842l-3.822,55.745c-0.329,4.745-3.443,8.377-7.185,8.377h-19.19L319.519,365.615z"/>
			</g>
		</g>
		<g>
			<g>
				<g>
					<path style="fill:#263238;" d="M287.541,234.544c-9.749,1.923-29.059,10.227-29.181,9.763c0,0-16.255-3.846-22.933-11.214
						c0,0-6.381-0.789-9.726-1.446c2.426,5.711,7.146,12.632,12.4,15.933c6.67,4.19,8.488,5.458,15.092,7.971
						c8.257,3.143,20.896-0.196,29.071-3.547c3.019-1.237,6.103-2.807,7.876-5.546C291.913,243.719,290.243,236.372,287.541,234.544
						z"/>
					<path style="opacity:0.3;enable-background:new    ;" d="M287.541,234.544c-9.749,1.923-29.059,10.227-29.181,9.763
						c0,0-16.255-3.846-22.933-11.214c0,0-6.381-0.789-9.726-1.446c2.426,5.711,7.146,12.632,12.4,15.933
						c6.67,4.19,8.488,5.458,15.092,7.971c8.257,3.143,20.896-0.196,29.071-3.547c3.019-1.237,6.103-2.807,7.876-5.546
						C291.913,243.719,290.243,236.372,287.541,234.544z"/>
					<g>
						<g>
							<g>
								<path style="fill:#263238;" d="M249.418,235.114l-13.013,0.735c-0.375,0.021-0.717-0.264-0.765-0.638l-3.094-25.749
									c-0.047-0.374,0.218-0.693,0.593-0.715l12.84-0.726c0.375-0.021,0.717,0.264,0.765,0.638l3.267,25.739
									C250.059,234.773,249.793,235.093,249.418,235.114z"/>
								<path style="opacity:0.7;fill:#FFFFFF;" d="M249.418,235.114l-13.013,0.735c-0.375,0.021-0.717-0.264-0.765-0.638
									l-3.094-25.749c-0.047-0.374,0.218-0.693,0.593-0.715l12.84-0.726c0.375-0.021,0.717,0.264,0.765,0.638l3.267,25.739
									C250.059,234.773,249.793,235.093,249.418,235.114z"/>
							</g>
							<g>
								<path style="fill:#263238;" d="M248.835,234.72l-12.632,0.714c-0.432,0.024-0.827-0.305-0.882-0.736l-3.241-25.533
									c-0.055-0.431,0.252-0.8,0.684-0.824l12.632-0.714c0.432-0.024,0.827,0.305,0.882,0.736l3.241,25.533
									C249.574,234.327,249.268,234.696,248.835,234.72z"/>
								<path style="opacity:0.2;fill:#FFFFFF;" d="M248.835,234.72l-12.632,0.714c-0.432,0.024-0.827-0.305-0.882-0.736
									l-3.241-25.533c-0.055-0.431,0.252-0.8,0.684-0.824l12.632-0.714c0.432-0.024,0.827,0.305,0.882,0.736l3.241,25.533
									C249.574,234.327,249.268,234.696,248.835,234.72z"/>
							</g>
							<path style="opacity:0.4;" d="M236.292,209.276l0.85,6.693c0.023,0.181-0.106,0.336-0.296,0.347l-2.875,0.163
								c-0.06,0.003-0.115-0.011-0.171-0.042c-0.11-0.037-0.193-0.146-0.208-0.266l-0.85-6.693c-0.024-0.19,0.104-0.345,0.295-0.355
								l2.875-0.163c0.13-0.007,0.251,0.055,0.308,0.156C236.26,209.165,236.284,209.216,236.292,209.276z"/>
							<path style="opacity:0.5;" d="M236.439,209.398l0.85,6.693c0.023,0.181-0.105,0.345-0.286,0.355l-2.883,0.163
								c-0.13,0.007-0.252-0.064-0.319-0.173c0.056,0.031,0.111,0.046,0.171,0.042l2.875-0.163c0.19-0.011,0.319-0.166,0.296-0.347
								l-0.85-6.693c-0.008-0.06-0.032-0.111-0.073-0.161C236.33,209.161,236.422,209.269,236.439,209.398z"/>
							<path d="M236,210.863c0.09,0.707-0.413,1.313-1.123,1.354c-0.71,0.04-1.359-0.501-1.449-1.208
								c-0.09-0.708,0.413-1.313,1.123-1.354C235.262,209.615,235.91,210.156,236,210.863z"/>
							<path d="M236.429,214.245c0.09,0.708-0.413,1.314-1.124,1.354c-0.71,0.04-1.359-0.501-1.449-1.208s0.413-1.314,1.123-1.354
								C235.691,212.997,236.34,213.538,236.429,214.245z"/>
							<path style="opacity:0.2;fill:#FFFFFF;" d="M235.418,214.302c0.019,0.151-0.088,0.281-0.24,0.289
								c-0.152,0.009-0.29-0.107-0.31-0.258c-0.019-0.151,0.088-0.281,0.24-0.289C235.26,214.035,235.399,214.151,235.418,214.302z"
								/>
							<path style="opacity:0.2;fill:#FFFFFF;" d="M235.001,211.017c0.019,0.151-0.088,0.281-0.24,0.289
								c-0.152,0.009-0.29-0.107-0.31-0.258c-0.019-0.151,0.088-0.281,0.24-0.289C234.843,210.75,234.982,210.865,235.001,211.017z"
								/>
						</g>
						<path style="fill:#FFC3BD;" d="M241.135,230.28l-4.25,0.86c-0.67,0.89-1.81,2.18-3.05,2.48c-1.35,0.32-2.59,0.56-3.71,0.56
							c-1.8,0-3.29-0.62-4.42-2.53c-0.39-0.66-0.33-1.49,0.14-2.09l5.331-5.831c0.61-0.667,1.498-1.01,2.398-0.926l6.181,0.577
							c0.77,0.08,1.44,0.57,1.74,1.28l1.16,2.73C243.175,228.62,242.434,230.02,241.135,230.28z"/>
					</g>
				</g>
				<path style="fill:#263238;" d="M331.925,248.54c-3.23,31.31-11.288,68.623-11.288,68.623c-3.278-3.067-6.897-4.657-11.981-5.879
					c-9.127-2.193-27.981-6.764-27.981-6.914c-2.1-0.43-6.831-3.091-7.11-2.99c-12.969-5.773-6.921-20.63-2.324-28.775
					c2.142-3.795,3.475-7.981,4.095-12.295c0.977-6.801,3.158-15.98,6.51-21.809c1.211-2.105,3.296-3.553,5.691-3.956
					c3.384-0.569,8.23-1.362,8.178-1.225c7.16-0.54,19.74,0.41,20.33,0.42l3.5,0.22C327.055,234.43,332.695,241.05,331.925,248.54z"
					/>
				<path style="fill:#FFC3BD;" d="M314.144,234.79c-4.86,4.77-11.73,8.03-19.14,9.09c-9.33,1.52-7.04-4.125-4.48-7.235
					c6.49-2.92,6.56-4.035,5.5-7.735c-0.01-0.08-0.04-0.15-0.06-0.23c-0.12-0.41-0.25-0.83-0.38-1.25
					c-0.12-0.37-0.23-0.74-0.34-1.12l0.24-0.18l7.57-6.43l9.15-6.86C310.445,219.49,308.805,231.22,314.144,234.79z"/>
				<g>
					<g>
						<polygon style="fill:#FFC3BD;" points="256.891,413.971 248.718,414.762 243.875,391.742 253.514,390.632 						"/>
						<path style="fill:#263238;" d="M245.339,412.859c0.75-0.778,1.785-1.216,2.863-1.291l8.767-0.612
							c0.409-0.045,0.782,0.234,0.856,0.638l1.689,8.133c0.204,0.93-0.384,1.848-1.314,2.052c-0.02,0.004-0.039,0.008-0.059,0.012
							c-3.308,0.856-5.39,0.165-10.444,0.513c-3.113,0.219-9.75,1.457-13.996,0.757c-4.246-0.699-3.715-4.921-1.883-5.011
							C238.311,417.832,243.655,414.605,245.339,412.859z"/>
						<g style="opacity:0.2;">
							<polygon points="243.874,391.751 246.692,405.139 255.356,403.332 253.521,390.634 							"/>
						</g>
						<g>
							<path style="fill:#407BFF;" d="M295.095,344.02c-0.33,0-0.66,0-1-0.03c-0.55-0.01-1.11-0.05-1.67-0.12l-43.748-2.338
								c7.06,6.47,8.228,58.378,8.228,58.378l-2.1,0.45l-9.48,2.03h-0.01l-1.74,0.37c0,0-3.97-17-8.57-36.5
								c-2.32-9.87-5.33-20.08-6.62-29.88c-0.36-2.65-0.58-5.28-0.63-7.86c-0.02-0.8-0.02-1.6,0.01-2.4c-0.01-0.08,0-0.17,0-0.25
								c0.01-0.34,0.04-0.67,0.08-0.99c0.22-1.63,0.89-3.06,1.91-4.3c0.11-0.13,0.21-0.25,0.32-0.37c0.11-0.12,0.22-0.24,0.34-0.35
								c0.23-0.24,0.47-0.46,0.73-0.68c0.26-0.22,0.53-0.43,0.81-0.64c0.24-0.17,0.48-0.34,0.74-0.51c0.3-0.19,0.61-0.37,0.93-0.55
								c0.16-0.09,0.32-0.18,0.49-0.26c0.5-0.26,1.01-0.51,1.55-0.74c0.16-0.06,0.31-0.13,0.47-0.2c0.21-0.08,0.42-0.16,0.64-0.24
								c0.19-0.08,0.38-0.15,0.57-0.21c0.58-0.21,1.18-0.41,1.8-0.58c0.1-0.03,0.2-0.06,0.31-0.09c0.03-0.01,0.06-0.02,0.09-0.02
								c16.59-4.7,44.83-1.07,44.83-1.07s7.45-5.52,15.38-6.57c0.37,0.05,0.74,0.09,1.12,0.13c1.13,0.12,2.31,0.25,3.53,0.39
								c0.05,0.01,0.1,0.01,0.15,0.02C316.144,328.43,308.945,343.87,295.095,344.02z"/>
						</g>
						<g style="opacity:0.3;">
							<path style="fill:#FFFFFF;" d="M295.095,344.02c-0.33,0-0.66,0-1-0.03c-0.55-0.01-1.11-0.05-1.67-0.12l-43.748-2.338
								c7.06,6.47,8.228,58.378,8.228,58.378l-2.1,0.45l-9.48,2.03h-0.01l-1.74,0.37c0,0-3.97-17-8.57-36.5
								c-2.32-9.87-5.33-20.08-6.62-29.88c-0.36-2.65-0.58-5.28-0.63-7.86c-0.02-0.8-0.02-1.6,0.01-2.4c-0.01-0.08,0-0.17,0-0.25
								c0.01-0.34,0.04-0.67,0.08-0.99c0.22-1.63,0.89-3.06,1.91-4.3c0.11-0.13,0.21-0.25,0.32-0.37c0.11-0.12,0.22-0.24,0.34-0.35
								c0.23-0.24,0.47-0.46,0.73-0.68c0.26-0.22,0.53-0.43,0.81-0.64c0.24-0.17,0.48-0.34,0.74-0.51c0.3-0.19,0.61-0.37,0.93-0.55
								c0.16-0.09,0.32-0.18,0.49-0.26c0.5-0.26,1.01-0.51,1.55-0.74c0.16-0.06,0.31-0.13,0.47-0.2c0.21-0.08,0.42-0.16,0.64-0.24
								c0.19-0.08,0.38-0.15,0.57-0.21c0.58-0.21,1.18-0.41,1.8-0.58c0.1-0.03,0.2-0.06,0.31-0.09c0.03-0.01,0.06-0.02,0.09-0.02
								c16.59-4.7,44.83-1.07,44.83-1.07s7.45-5.52,15.38-6.57c0.37,0.05,0.74,0.09,1.12,0.13c1.13,0.12,2.31,0.25,3.53,0.39
								c0.05,0.01,0.1,0.01,0.15,0.02C316.144,328.43,308.945,343.87,295.095,344.02z"/>
						</g>
						<polygon style="fill:#FFC3BD;" points="202.792,374.888 200.453,378.468 195.242,386.468 186.523,387.378 193.133,373.488 
							197.623,364.038 						"/>
						<path style="fill:#263238;" d="M188.732,381.397l7.222,4.505c0.354,0.19,0.501,0.622,0.337,0.989l-3.543,8.261
							c-0.422,0.83-1.438,1.161-2.268,0.739c-0.016-0.008-0.032-0.017-0.048-0.025c-3.361-2.047-4.875-3.201-9.151-5.704
							c-2.633-1.542-6.973-4.059-10.603-6.185c-3.63-2.126-1.669-5.799,0.045-5.238c7.665,2.535,12.782,2.885,16.224,2.325
							C187.564,380.961,188.195,381.08,188.732,381.397z"/>
						<g style="opacity:0.2;">
							<polygon points="202.792,374.888 200.462,378.468 200.453,378.468 193.133,373.488 197.623,364.038 							"/>
						</g>
						<g>
							<g>
								<path style="fill:#407BFF;" d="M297.905,344.82c-0.87-0.11-1.81-0.29-2.81-0.55c-0.33-0.08-0.66-0.17-1-0.28
									c-8.03-2.31-19.59-8.64-30.35-14.87c-9.91-5.73-19.11-11.38-24.2-13.73c-0.03,0-0.06,0.01-0.09,0.02
									c-0.11,0.03-0.21,0.06-0.31,0.09c-0.62,0.17-1.22,0.37-1.8,0.58c-0.19,0.06-0.38,0.13-0.57,0.21
									c-0.22,0.08-0.43,0.16-0.64,0.24c-0.16,0.07-0.31,0.14-0.47,0.2c-0.54,0.23-1.05,0.48-1.55,0.74
									c-0.17,0.08-0.33,0.17-0.49,0.26c-0.32,0.18-0.63,0.36-0.93,0.55c-0.26,0.17-0.5,0.34-0.74,0.51
									c-0.28,0.21-0.55,0.42-0.81,0.64c-0.26,0.22-0.5,0.44-0.73,0.68c-0.12,0.11-0.23,0.23-0.34,0.35
									c-0.11,0.12-0.21,0.24-0.32,0.37c-1.02,1.24-1.69,2.67-1.91,4.3c-0.04,0.32-0.07,0.65-0.08,0.99
									c-0.03,0.8-0.03,1.6-0.01,2.4c0.04,2.59,0.25,5.24,0.6,7.91c0.01,0.07,0.02,0.13,0.03,0.2
									c-11.95,21.54-24.37,41.08-24.37,41.08l-2.11-1.45l-7.61-5.22l-1.32-0.91c0,0,13.26-31.07,22.39-58.75
									c3.44-10.43,13.2-17.49,24.19-17.39c22.52,0.2,52.08,12.65,52.08,12.65s3.46,0.36,8.12,0.86c0.37,0.05,0.74,0.09,1.12,0.13
									c1.13,0.12,2.31,0.25,3.53,0.39c0.05,0.01,0.1,0.01,0.15,0.02c1.926,0.212,4.034,0.369,6.1,0.517
									c4.675,0.335,8.618,3.598,9.852,8.119C326.49,338.593,312.099,346.564,297.905,344.82z"/>
							</g>
						</g>
						<g style="opacity:0.4;">
							<g>
								<path style="fill:#FFFFFF;" d="M297.905,344.82c-0.87-0.11-1.81-0.29-2.81-0.55c-0.33-0.08-0.66-0.17-1-0.28
									c-8.03-2.31-19.59-8.64-30.35-14.87c-9.91-5.73-19.11-11.38-24.2-13.73c-0.03,0-0.06,0.01-0.09,0.02
									c-0.11,0.03-0.21,0.06-0.31,0.09c-0.62,0.17-1.22,0.37-1.8,0.58c-0.19,0.06-0.38,0.13-0.57,0.21
									c-0.22,0.08-0.43,0.16-0.64,0.24c-0.16,0.07-0.31,0.14-0.47,0.2c-0.54,0.23-1.05,0.48-1.55,0.74
									c-0.17,0.08-0.33,0.17-0.49,0.26c-0.32,0.18-0.63,0.36-0.93,0.55c-0.26,0.17-0.5,0.34-0.74,0.51
									c-0.28,0.21-0.55,0.42-0.81,0.64c-0.26,0.22-0.5,0.44-0.73,0.68c-0.12,0.11-0.23,0.23-0.34,0.35
									c-0.11,0.12-0.21,0.24-0.32,0.37c-1.02,1.24-1.69,2.67-1.91,4.3c-0.04,0.32-0.07,0.65-0.08,0.99
									c-0.03,0.8-0.03,1.6-0.01,2.4c0.04,2.59,0.25,5.24,0.6,7.91c0.01,0.07,0.02,0.13,0.03,0.2
									c-11.95,21.54-24.37,41.08-24.37,41.08l-2.11-1.45l-7.61-5.22l-1.32-0.91c0,0,13.26-31.07,22.39-58.75
									c3.44-10.43,13.2-17.49,24.19-17.39c22.52,0.2,52.08,12.65,52.08,12.65s3.46,0.36,8.12,0.86c0.37,0.05,0.74,0.09,1.12,0.13
									c1.13,0.12,2.31,0.25,3.53,0.39c0.05,0.01,0.1,0.01,0.15,0.02c1.769,0.194,3.692,0.343,5.594,0.48
									c4.977,0.36,9.225,3.815,10.488,8.643C326.276,338.711,311.993,346.551,297.905,344.82z"/>
							</g>
						</g>
						<g>
							<path style="fill:#407BFF;" d="M239.453,315.148v0.01c-0.11,0.03-0.21,0.06-0.31,0.09
								C239.242,315.208,239.342,315.178,239.453,315.148z"/>
						</g>
					</g>
				</g>
				<path style="opacity:0.3;enable-background:new    ;" d="M296.025,228.91c-0.01-0.08-0.04-0.15-0.06-0.23
					c-0.12-0.41-0.25-0.83-0.38-1.25c-0.12-0.37-0.23-0.74-0.34-1.12l0.24-0.18l7.57-6.43l1.72-1.08
					C306.045,225.82,299.495,228.36,296.025,228.91z"/>
				<g>
					<g>
						<path style="fill:#FFC3BD;" d="M292.79,195.021c-8.004,4.519-8.086,17.31-5.62,24.702c0.702,2.182,2.063,4.092,3.897,5.468
							c4.895,3.673,11.84,2.683,15.513-2.211c3.909-4.948,3.348-9.94,3.156-18.525C309.528,195.88,300.794,190.502,292.79,195.021z"
							/>
						<g>
							<path style="fill:#263238;" d="M305.448,192.091c0,0,0-4.831-5.728-3.564c-4.768,1.054-10.395,4.427-13.057,4.612
								c-1.199,0.083-2.426-0.007-3.582,0.324c-1.155,0.331-2.265,1.232-2.357,2.43c-0.092,1.198,1.344,2.361,2.352,1.707
								c-0.16-0.054-0.666,0.193-0.833,0.172c-0.771-0.094-2.429,2.19-0.884,3.853c2.474,2.665,15.531-2.306,18.499-3.186
								c0.777-0.23,1.633,0.021,2.131,0.661c1.743,2.24,2.108,6.259,2.108,6.259c1.063-0.227,2.264,0.09,3.066,0.825
								c1.497,1.372,2.092,3.448,2.608,5.411c0.544,2.07,0.87,7.095,0.958,9.233c0.534-4.396,1.137-10.891,1.454-15.336
								C312.578,199.934,311.184,191.616,305.448,192.091z"/>
						</g>
						<path style="fill:#FFC3BD;" d="M311.033,207.889c-2.402,0.542-3.422,3.987-3.353,6.198c0.015,2.507,1.857,4.144,3.943,2.631
							c1.576-1.17,2.648-2.895,3-4.826C315.049,209.52,313.435,207.348,311.033,207.889z"/>
						<path style="fill:#ED847E;" d="M293.361,215.768c0,0-1.368,0.899-2.489,0.377c0.926-2.063,0.802-1.597,1.084-5.114
							L293.361,215.768z"/>
						<path style="fill:#263238;" d="M298.323,205.175c-0.688-0.767-2.557-1.062-3.577-0.913l0,0
							c-0.008,0.002-0.016,0.003-0.023,0.004c-0.213,0.033-0.413-0.114-0.445-0.327c-0.03-0.227,0.122-0.438,0.346-0.483
							c1.278-0.193,3.411,0.192,4.276,1.152c0.003,0.003,0.006,0.006,0.008,0.009c0.149,0.169,0.133,0.428-0.036,0.577
							c-0.052,0.049-0.113,0.088-0.18,0.114C298.554,205.332,298.414,205.281,298.323,205.175z"/>
						<path style="fill:#263238;" d="M286.493,206.93c-0.009-0.005-0.017-0.01-0.025-0.015c-0.18-0.12-0.228-0.363-0.108-0.542
							c0.653-1.167,1.814-1.963,3.138-2.152c0.01-0.001,0.019-0.001,0.029-0.001c0.211,0,0.382,0.171,0.382,0.382
							c0.008,0.229-0.166,0.423-0.394,0.44c-1.046,0.166-1.957,0.807-2.466,1.736c-0.071,0.118-0.193,0.196-0.33,0.21
							C286.639,206.993,286.56,206.973,286.493,206.93z"/>
					</g>
					<g>
						<path style="fill:#263238;" d="M293.146,219.39c1,1.174,2.42,3.516,2.42,3.516c0.192-0.076,0.384-0.152,0.571-0.241
							c2.573-1.114,3.306-2.666,3.337-4.048c0.015-0.757-0.19-1.469-0.416-2.023c-0.256-0.643-0.56-1.058-0.56-1.058
							c-0.922,1.583-3.221,2.846-4.482,3.457C293.491,219.257,293.146,219.39,293.146,219.39z"/>
						<path style="fill:#FFFFFF;" d="M294.016,218.994l0.367,0.509c0.214,0.297,0.614,0.406,0.945,0.25
							c1.902-0.896,3.163-1.849,3.621-2.862c0.088-0.195,0.062-0.424-0.03-0.617c-0.215-0.457-0.421-0.736-0.421-0.736
							C297.576,217.119,295.277,218.383,294.016,218.994z"/>
						<path style="fill:#DE5753;" d="M296.137,222.666c2.573-1.114,3.306-2.666,3.337-4.048c-0.859,0.421-1.837,1.045-2.55,1.926
							C296.376,221.215,296.18,221.969,296.137,222.666z"/>
					</g>
					<path style="fill:#263238;" d="M298.833,215.923c0.155,0.314,0.09,0.688,0.022,1.032c-0.086,0.43-0.189,0.892-0.515,1.185
						c-0.239,0.214-0.564,0.304-0.881,0.358c-1.033,0.177-2.014-0.059-2.973-0.48c-0.315,0.862-1.006,1.579-1.856,1.927
						c-0.85,0.347-1.845,0.319-2.674-0.075c-0.011-0.073-0.035-0.249-0.046-0.322c0.407-0.251,0.625-0.719,0.76-1.178
						s0.214-0.941,0.444-1.36c0.23-0.419,0.663-0.775,1.14-0.733c0.758-0.36,1.562-0.9,2.389-1.041
						c0.827-0.141,1.719-0.062,2.432,0.38c0.278,0.172,0.532,0.4,0.848,0.483C298.237,216.183,298.769,216.244,298.833,215.923z"/>
					<g>
						<path style="fill:#263238;" d="M289.433,209.829c-0.447,0.082-0.701,0.718-0.568,1.404c0.134,0.686,0.612,1.18,1.056,1.09
							c0.444-0.09,0.701-0.717,0.567-1.404C290.371,210.247,289.88,209.747,289.433,209.829z"/>
					</g>
					<g>
						<path style="fill:#263238;" d="M297.276,208.527c-0.447,0.082-0.701,0.717-0.568,1.404s0.612,1.18,1.056,1.09
							c0.444-0.091,0.701-0.717,0.567-1.404C298.214,208.945,297.723,208.446,297.276,208.527z"/>
					</g>
				</g>
				<g>
					<path style="fill:#263238;" d="M320.666,258.655c-6.954,4.346-16.184,9.976-17.543,10.32
						c-12.827,8.095-17.131-5.858-18.056-7.528c-1.618-2.895-2.567-6.657-3.844-9.718c-2.513-5.901-5.153-11.179-6.906-17.349
						l6.147-2.558c0,0,12.362,17.548,14.004,19.83c0.701,1.007,4.441,5.769,6.479,3.311c1.187-0.381,14.107-13.643,20.365-17.913
						c0.704-0.481,1.5-0.799,2.338-0.96l0.284-0.054c1.89-0.363,3.762,0.511,5.252,1.992c3.239,3.218,3.415,8.42,0.703,12.093v0
						C327.377,253.52,324.251,256.415,320.666,258.655z"/>
				</g>
				<g style="opacity:0.1;">
					<path style="fill:#FFFFFF;" d="M320.666,258.655c-6.954,4.346-16.184,9.976-17.543,10.32
						c-12.827,8.095-17.131-5.858-18.056-7.528c-1.618-2.895-2.567-6.657-3.844-9.718c-2.513-5.901-5.153-11.179-6.906-17.349
						l6.147-2.558c0,0,12.362,17.548,14.004,19.83c0.701,1.007,4.441,5.769,6.479,3.311c1.187-0.381,14.107-13.643,20.365-17.913
						c0.704-0.481,1.5-0.799,2.338-0.96l0.284-0.054c1.89-0.363,3.762,0.511,5.252,1.992c3.239,3.218,3.415,8.42,0.703,12.093v0
						C327.377,253.52,324.251,256.415,320.666,258.655z"/>
				</g>
				<g>
					<path style="fill:#FFC3BD;" d="M280.173,232.529L280.173,232.529c-1.591,2.763-5.183,3.587-7.838,1.822
						c-2.159-1.436-3.852-3.274-3.852-3.274l6.733-7.898l4.796,6.507C280.621,230.52,280.684,231.633,280.173,232.529z"/>
					<path style="fill:#FFC3BD;" d="M275.217,223.179l-6.726,7.935l-2.992-2.433c-1.815-1.476-2.304-4.044-1.158-6.083l0.119-0.212
						c1.344-2.392,4.414-3.176,6.74-1.721L275.217,223.179z"/>
				</g>
			</g>
		</g>
	</g>
</g>
</svg>
