<?xml version="1.0" encoding="utf-8"?>
<!-- Generator: Adobe Illustrator 27.5.0, SVG Export Plug-In . SVG Version: 6.00 Build 0)  -->
<svg version="1.1" xmlns="http://www.w3.org/2000/svg" xmlns:xlink="http://www.w3.org/1999/xlink" x="0px" y="0px"
	 viewBox="0 0 2500 2500" style="enable-background:new 0 0 2500 2500;" xml:space="preserve">
<g id="Background">
	<rect style="fill:#FFFFFF;" width="2500" height="2500"/>
</g>
<g id="Illustration">
	<g id="Building_regulations_1_">
		<path style="fill:#F2E6DC;" d="M2165.367,1250.368c0,505.543-407.986,914.632-913.529,914.632s-917.206-409.089-917.206-914.632
			S744.456,335,1250,335S2165.367,744.824,2165.367,1250.368z"/>
		<g>
			
				<rect x="641.953" y="1038.589" transform="matrix(-1 -1.224647e-16 1.224647e-16 -1 1898.0861 2143.3481)" style="fill:#F7F1EB;" width="614.18" height="66.171"/>
			
				<rect x="644.758" y="1226.073" transform="matrix(-1 -1.224647e-16 1.224647e-16 -1 1903.6951 2518.3181)" style="fill:#F7F1EB;" width="614.18" height="66.171"/>
			
				<rect x="639.148" y="1470.907" transform="matrix(-1 -1.224647e-16 1.224647e-16 -1 1892.4772 3007.9844)" style="fill:#F7F1EB;" width="614.18" height="66.171"/>
			
				<rect x="641.062" y="901.83" transform="matrix(-1 -1.224647e-16 1.224647e-16 -1 1335.8673 2423.4631)" style="fill:#F7F1EB;" width="53.743" height="619.803"/>
			
				<rect x="838.565" y="886.394" transform="matrix(-1 -1.224647e-16 1.224647e-16 -1 1730.8722 2410.2373)" style="fill:#F7F1EB;" width="53.742" height="637.449"/>
			
				<rect x="1037.059" y="889.698" transform="matrix(-1 -1.224647e-16 1.224647e-16 -1 2127.8611 2416.845)" style="fill:#F7F1EB;" width="53.742" height="637.449"/>
		</g>
		<path style="fill:#F7F1EB;" d="M972.929,653.48l-27.555-65.435l-31.104,13.098c-6.993-8.905-15.006-16.78-23.8-23.515
			l12.734-31.261l-65.754-26.785l-12.734,31.261c-10.997-1.327-22.232-1.292-33.457,0.191l-13.098-31.104l-65.435,27.555
			l13.098,31.104c-8.905,6.993-16.78,15.006-23.515,23.8l-31.261-12.734l-26.786,65.754l31.261,12.734
			c-1.327,10.997-1.293,22.232,0.191,33.457l-31.104,13.098l27.555,65.435l31.104-13.098c6.993,8.905,15.006,16.78,23.8,23.515
			l-12.734,31.261l65.754,26.785l12.734-31.261c10.997,1.327,22.232,1.293,33.457-0.191l13.098,31.104l65.435-27.555l-13.098-31.104
			c8.905-6.993,16.78-15.006,23.515-23.8l31.261,12.734l26.786-65.754l-31.261-12.734c1.327-10.997,1.293-22.232-0.191-33.457
			L972.929,653.48z M837.449,752.194c-37.614,15.839-80.946-1.813-96.785-39.426c-15.839-37.614,1.813-80.946,39.426-96.785
			c37.614-15.839,80.946,1.813,96.785,39.426C892.714,693.023,875.063,736.355,837.449,752.194z"/>
		<g>
			<rect x="1200.617" y="534.917" style="fill:#E6D0BE;" width="932.302" height="1176.443"/>
			<path style="fill:#D3BBA3;" d="M1227.158,1151.886c-1.218,0-2.206-0.986-2.206-2.206V561.458c0-1.219,0.988-2.206,2.206-2.206
				h932.301c1.219,0,2.206,0.987,2.206,2.206v274.205c0,1.219-0.987,2.206-2.206,2.206s-2.206-0.987-2.206-2.206v-272h-927.89
				v586.017C1229.364,1150.9,1228.376,1151.886,1227.158,1151.886z"/>
			<g>
				<polygon style="fill:#FFFFFF;" points="2084.781,1650.617 1248.754,1650.617 1248.754,595.66 1851.792,595.66 1851.792,815.89 
					2084.781,817.096 				"/>
				<polygon style="fill:#F2E6DC;" points="2084.781,816.493 1851.792,816.493 1851.792,595.66 				"/>
				<rect x="1441.462" y="1017.025" style="fill:#F2E6DC;" width="560.901" height="163.343"/>
				<rect x="1441.462" y="1229.354" style="fill:#F2E6DC;" width="560.901" height="94.336"/>
				<rect x="1441.462" y="1362.06" style="fill:#F2E6DC;" width="560.901" height="170.763"/>
				<circle style="fill:#F2E6DC;" cx="1359.184" cy="1047.358" r="30.333"/>
				<rect x="1441.462" y="835.662" style="fill:#F2E6DC;" width="560.901" height="133.834"/>
				
					<ellipse transform="matrix(0.7071 -0.7071 0.7071 0.7071 -214.2556 1214.7325)" style="fill:#F2E6DC;" cx="1359.184" cy="865.996" rx="30.333" ry="30.333"/>
				<circle style="fill:#F2E6DC;" cx="1359.184" cy="1259.687" r="30.333"/>
				<circle style="fill:#F7F1EB;" cx="1359.184" cy="1392.393" r="30.333"/>
			</g>
			<g>
				<rect x="1507.233" y="504.951" style="fill:#E6D0BE;" width="319.07" height="141.425"/>
				<path style="fill:#D3BBA3;" d="M1666.768,586.586c-64.153,0-116.344-52.192-116.344-116.345s52.192-116.345,116.344-116.345
					s116.344,52.192,116.344,116.345S1730.921,586.586,1666.768,586.586z M1666.768,358.309
					c-61.721,0-111.933,50.212-111.933,111.933s50.212,111.933,111.933,111.933s111.933-50.212,111.933-111.933
					S1728.489,358.309,1666.768,358.309z"/>
				<path style="fill:#D3BBA3;" d="M1666.768,560.646c-49.848,0-90.404-40.556-90.404-90.404s40.556-90.404,90.404-90.404
					c49.848,0,90.404,40.556,90.404,90.404S1716.616,560.646,1666.768,560.646z M1666.768,384.25
					c-47.416,0-85.992,38.576-85.992,85.992s38.576,85.992,85.992,85.992c47.416,0,85.992-38.576,85.992-85.992
					S1714.184,384.25,1666.768,384.25z"/>
			</g>
		</g>
		<g>
			<g>
				<path style="fill:#D87355;" d="M779.573,573.208c-0.676,0-1.343-0.31-1.776-0.894c-0.724-0.98-0.517-2.361,0.462-3.085
					l167.399-123.782c0.981-0.728,2.361-0.515,3.086,0.461c0.724,0.98,0.517,2.361-0.462,3.085L780.883,572.775
					C780.487,573.068,780.029,573.208,779.573,573.208z"/>
				<path style="fill:#D87355;" d="M1426.913,590.332c-0.222,0-0.446-0.032-0.67-0.103L983.68,449.322
					c-1.161-0.371-1.803-1.611-1.432-2.772c0.369-1.159,1.617-1.803,2.77-1.432l442.565,140.907
					c1.161,0.371,1.801,1.611,1.432,2.772C1428.716,589.733,1427.848,590.332,1426.913,590.332z"/>
				
					<rect x="737.301" y="559.994" transform="matrix(-1 -1.224647e-16 1.224647e-16 -1 1572.7256 1148.1194)" style="fill:#D87355;" width="98.123" height="28.132"/>
				<path style="fill:#D87355;" d="M1496.143,640.193H911.848L738.63,624.568c-1.137-0.103-2.008-1.055-2.008-2.197v-34.244
					c0-1.219,0.988-2.206,2.206-2.206h688.085c0.463,0,0.913,0.147,1.288,0.416l69.23,49.861c0.778,0.56,1.105,1.555,0.812,2.466
					C1497.948,639.575,1497.099,640.193,1496.143,640.193z M741.034,620.355l171.012,15.436l577.26-0.009l-63.104-45.45H741.034
					V620.355z"/>
				<path style="fill:#D87355;" d="M1031.358,639.2c-0.453,0-0.911-0.14-1.305-0.429c-0.981-0.724-1.191-2.104-0.469-3.084
					l34.85-47.343c0.831-1.129,2.72-1.129,3.552,0l34.851,47.343c0.723,0.98,0.513,2.361-0.469,3.084
					c-0.98,0.72-2.363,0.51-3.083-0.469l-33.075-44.93l-33.074,44.93C1032.705,638.89,1032.036,639.2,1031.358,639.2z"/>
				<path style="fill:#D87355;" d="M1171.334,639.2c-0.677,0-1.346-0.31-1.778-0.898l-33.074-44.93l-33.075,44.93
					c-0.722,0.982-2.101,1.189-3.084,0.469c-0.981-0.724-1.191-2.104-0.468-3.084l34.851-47.343c0.831-1.129,2.721-1.129,3.552,0
					l34.85,47.343c0.723,0.98,0.513,2.361-0.469,3.084C1172.247,639.06,1171.788,639.2,1171.334,639.2z"/>
				<path style="fill:#D87355;" d="M1241.606,639.2c-0.677,0-1.346-0.31-1.778-0.898l-33.074-44.93l-33.074,44.93
					c-0.718,0.982-2.1,1.189-3.083,0.469c-0.981-0.724-1.191-2.104-0.469-3.084l34.85-47.343c0.831-1.129,2.72-1.129,3.552,0
					l34.85,47.343c0.723,0.98,0.513,2.361-0.469,3.084C1242.518,639.06,1242.059,639.2,1241.606,639.2z"/>
				<path style="fill:#D87355;" d="M1310.317,639.2c-0.679,0-1.346-0.31-1.779-0.898l-33.073-44.93l-33.075,44.93
					c-0.719,0.982-2.101,1.189-3.083,0.469c-0.981-0.724-1.191-2.104-0.469-3.084l34.85-47.343c0.831-1.129,2.723-1.129,3.554,0
					l34.85,47.343c0.722,0.98,0.51,2.361-0.469,3.084C1311.228,639.06,1310.771,639.2,1310.317,639.2z"/>
				<path style="fill:#D87355;" d="M1379.027,639.2c-0.679,0-1.346-0.31-1.779-0.898l-33.073-44.93l-33.075,44.93
					c-0.724,0.982-2.102,1.189-3.084,0.469c-0.982-0.724-1.191-2.104-0.47-3.084l34.852-47.343c0.416-0.564,1.075-0.898,1.777-0.898
					l0,0c0.702,0,1.361,0.334,1.777,0.898l34.85,47.343c0.722,0.98,0.51,2.361-0.47,3.084
					C1379.938,639.06,1379.482,639.2,1379.027,639.2z"/>
				<path style="fill:#D87355;" d="M1449.297,639.2c-0.678,0-1.346-0.31-1.779-0.898l-33.073-44.93l-33.073,44.93
					c-0.724,0.982-2.1,1.189-3.085,0.469c-0.98-0.724-1.191-2.104-0.47-3.084l34.85-47.343c0.831-1.129,2.723-1.129,3.554,0
					l34.85,47.343c0.722,0.98,0.51,2.361-0.47,3.084C1450.209,639.06,1449.752,639.2,1449.297,639.2z"/>
				<path style="fill:#D87355;" d="M1101.061,640.193c-1.218,0-2.206-0.987-2.206-2.206v-49.861c0-1.219,0.988-2.206,2.206-2.206
					c1.218,0,2.206,0.987,2.206,2.206v49.861C1103.267,639.207,1102.279,640.193,1101.061,640.193z"/>
				<path style="fill:#D87355;" d="M904.302,639.2c-0.677,0-1.346-0.31-1.778-0.898l-33.196-45.096l-33.046,38.968
					c-0.788,0.928-2.182,1.042-3.109,0.256c-0.928-0.788-1.044-2.18-0.255-3.108l34.851-41.096c0.436-0.515,1.073-0.849,1.758-0.778
					c0.674,0.021,1.301,0.353,1.701,0.896l34.85,47.343c0.723,0.98,0.513,2.361-0.469,3.084
					C905.214,639.06,904.755,639.2,904.302,639.2z"/>
				<path style="fill:#D87355;" d="M834.029,632.385c-1.218,0-2.206-0.987-2.206-2.206v-42.053c0-1.219,0.988-2.206,2.206-2.206
					c1.218,0,2.206,0.987,2.206,2.206v42.053C836.234,631.398,835.247,632.385,834.029,632.385z"/>
				<path style="fill:#D87355;" d="M834.03,631.765c-0.617,0-1.23-0.256-1.666-0.758l-33.304-38.313l-33.177,32.935
					c-0.866,0.857-2.262,0.853-3.119-0.013c-0.858-0.864-0.854-2.26,0.011-3.119l34.85-34.593c0.433-0.429,1.024-0.692,1.635-0.638
					c0.611,0.021,1.184,0.295,1.584,0.756l34.851,40.09c0.799,0.92,0.701,2.313-0.218,3.113
					C835.058,631.586,834.542,631.765,834.03,631.765z"/>
				<path style="fill:#D87355;" d="M763.756,625.768c-1.218,0-2.206-0.987-2.206-2.206v-35.436c0-1.219,0.988-2.206,2.206-2.206
					c1.218,0,2.206,0.987,2.206,2.206v35.436C765.962,624.781,764.974,625.768,763.756,625.768z"/>
				<path style="fill:#D87355;" d="M1171.332,640.193c-1.218,0-2.206-0.987-2.206-2.206v-49.861c0-1.219,0.988-2.206,2.206-2.206
					s2.206,0.987,2.206,2.206v49.861C1173.538,639.207,1172.551,640.193,1171.332,640.193z"/>
				<path style="fill:#D87355;" d="M1241.604,640.193c-1.218,0-2.206-0.987-2.206-2.206v-49.861c0-1.219,0.988-2.206,2.206-2.206
					c1.218,0,2.206,0.987,2.206,2.206v49.861C1243.809,639.207,1242.822,640.193,1241.604,640.193z"/>
				<path style="fill:#D87355;" d="M1310.314,640.193c-1.219,0-2.206-0.987-2.206-2.206v-49.861c0-1.219,0.987-2.206,2.206-2.206
					c1.219,0,2.206,0.987,2.206,2.206v49.861C1312.52,639.207,1311.534,640.193,1310.314,640.193z"/>
				<path style="fill:#D87355;" d="M1379.025,640.193c-1.219,0-2.206-0.987-2.206-2.206v-49.861c0-1.219,0.986-2.206,2.206-2.206
					c1.219,0,2.206,0.987,2.206,2.206v49.861C1381.231,639.207,1380.244,640.193,1379.025,640.193z"/>
				<path style="fill:#D87355;" d="M1449.295,640.193c-1.219,0-2.206-0.987-2.206-2.206v-32.685c0-1.219,0.987-2.206,2.206-2.206
					c1.219,0,2.206,0.987,2.206,2.206v32.685C1451.501,639.207,1450.515,640.193,1449.295,640.193z"/>
				<path style="fill:#D87355;" d="M996.489,1339.348h-60.451c-1.218,0-2.206-0.986-2.206-2.206V549.027
					c0-0.08,0.004-0.157,0.013-0.235l10.932-101.807c0.12-1.122,1.066-1.971,2.193-1.971h37.38c1.125,0,2.071,0.849,2.193,1.967
					l11.069,101.807c0.009,0.08,0.013,0.157,0.013,0.237l1.071,788.115c0.001,0.584-0.232,1.146-0.645,1.562
					C997.636,1339.115,997.075,1339.348,996.489,1339.348z M938.244,1334.936h56.036l-1.067-785.789l-10.842-99.722h-33.419
					l-10.708,99.72V1334.936z"/>
				<path style="fill:#D87355;" d="M995.28,1170.698c-0.453,0-0.912-0.14-1.305-0.429l-57.397-42.253
					c-0.564-0.416-0.898-1.075-0.898-1.777c0-0.702,0.334-1.361,0.898-1.777l57.397-42.251c0.979-0.719,2.362-0.513,3.083,0.47
					c0.723,0.98,0.513,2.361-0.469,3.084l-54.983,40.474l54.983,40.476c0.981,0.724,1.191,2.104,0.469,3.084
					C996.626,1170.387,995.957,1170.698,995.28,1170.698z"/>
				<path style="fill:#D87355;" d="M995.28,1085.502c-0.453,0-0.911-0.14-1.305-0.429l-57.397-42.251
					c-0.564-0.416-0.898-1.075-0.898-1.777s0.334-1.361,0.898-1.777l57.397-42.251c0.979-0.719,2.362-0.513,3.083,0.47
					c0.723,0.98,0.513,2.361-0.469,3.085l-54.983,40.474l54.983,40.474c0.981,0.724,1.191,2.104,0.469,3.084
					C996.626,1085.192,995.957,1085.502,995.28,1085.502z"/>
				<path style="fill:#D87355;" d="M995.28,1000.307c-0.453,0-0.911-0.14-1.305-0.429l-57.397-42.251
					c-0.564-0.416-0.898-1.075-0.898-1.777s0.334-1.361,0.898-1.777l57.397-42.251c0.979-0.72,2.362-0.513,3.083,0.469
					c0.723,0.98,0.513,2.361-0.469,3.085l-54.983,40.474l54.983,40.474c0.981,0.724,1.191,2.105,0.469,3.085
					C996.626,999.997,995.957,1000.307,995.28,1000.307z"/>
				<path style="fill:#D87355;" d="M995.28,917.005c-0.453,0-0.911-0.14-1.305-0.429l-57.397-42.251
					c-0.564-0.416-0.898-1.075-0.898-1.777s0.334-1.361,0.898-1.777l57.397-42.251c0.979-0.719,2.362-0.513,3.083,0.47
					c0.723,0.98,0.513,2.361-0.469,3.084l-54.983,40.474l54.983,40.474c0.981,0.724,1.191,2.104,0.469,3.085
					C996.626,916.695,995.957,917.005,995.28,917.005z"/>
				<path style="fill:#D87355;" d="M995.28,833.703c-0.453,0-0.911-0.14-1.305-0.429l-57.397-42.251
					c-0.564-0.416-0.898-1.075-0.898-1.777c0-0.702,0.334-1.361,0.898-1.777l57.397-42.251c0.979-0.719,2.362-0.513,3.083,0.47
					c0.723,0.98,0.513,2.361-0.469,3.084l-54.983,40.474l54.983,40.474c0.981,0.724,1.191,2.104,0.469,3.085
					C996.626,833.393,995.957,833.703,995.28,833.703z"/>
				<path style="fill:#D87355;" d="M995.28,748.508c-0.453,0-0.911-0.14-1.305-0.429l-57.397-42.251
					c-0.564-0.416-0.898-1.075-0.898-1.777s0.334-1.361,0.898-1.777l57.397-42.251c0.979-0.719,2.362-0.513,3.083,0.47
					c0.723,0.98,0.513,2.361-0.469,3.084l-54.983,40.474l54.983,40.474c0.981,0.724,1.191,2.104,0.469,3.085
					C996.626,748.197,995.957,748.508,995.28,748.508z"/>
				<path style="fill:#D87355;" d="M996.486,1086.194h-60.451c-1.218,0-2.206-0.987-2.206-2.206c0-1.219,0.988-2.206,2.206-2.206
					h60.451c1.218,0,2.206,0.986,2.206,2.206C998.692,1085.207,997.704,1086.194,996.486,1086.194z"/>
				<path style="fill:#D87355;" d="M995.28,1255.023c-0.453,0-0.911-0.14-1.305-0.429l-57.397-42.251
					c-0.564-0.416-0.898-1.075-0.898-1.777c0-0.702,0.334-1.361,0.898-1.777l57.397-42.251c0.979-0.719,2.362-0.51,3.083,0.47
					c0.723,0.98,0.513,2.361-0.469,3.084l-54.983,40.474l54.983,40.474c0.981,0.724,1.191,2.104,0.469,3.085
					C996.626,1254.712,995.957,1255.023,995.28,1255.023z"/>
				<path style="fill:#D87355;" d="M996.486,1170.521h-60.451c-1.218,0-2.206-0.986-2.206-2.206c0-1.219,0.988-2.206,2.206-2.206
					h60.451c1.218,0,2.206,0.987,2.206,2.206C998.692,1169.534,997.704,1170.521,996.486,1170.521z"/>
				<path style="fill:#D87355;" d="M995.28,1339.348c-0.453,0-0.911-0.14-1.305-0.429l-57.397-42.251
					c-0.564-0.416-0.898-1.075-0.898-1.777c0-0.702,0.334-1.361,0.898-1.777l57.397-42.251c0.979-0.719,2.362-0.513,3.083,0.47
					c0.723,0.98,0.513,2.361-0.469,3.085l-54.983,40.474l54.983,40.474c0.981,0.724,1.191,2.104,0.469,3.084
					C996.626,1339.037,995.957,1339.348,995.28,1339.348z"/>
				<path style="fill:#D87355;" d="M996.486,1254.846h-60.451c-1.218,0-2.206-0.987-2.206-2.206s0.988-2.206,2.206-2.206h60.451
					c1.218,0,2.206,0.987,2.206,2.206S997.704,1254.846,996.486,1254.846z"/>
				<path style="fill:#D87355;" d="M996.486,1001h-60.451c-1.218,0-2.206-0.987-2.206-2.206c0-1.219,0.988-2.206,2.206-2.206h60.451
					c1.218,0,2.206,0.987,2.206,2.206C998.692,1000.014,997.704,1001,996.486,1001z"/>
				<path style="fill:#D87355;" d="M996.486,915.805h-60.451c-1.218,0-2.206-0.987-2.206-2.206c0-1.219,0.988-2.206,2.206-2.206
					h60.451c1.218,0,2.206,0.987,2.206,2.206C998.692,914.818,997.704,915.805,996.486,915.805z"/>
				<path style="fill:#D87355;" d="M996.486,832.503h-60.451c-1.218,0-2.206-0.987-2.206-2.206c0-1.219,0.988-2.206,2.206-2.206
					h60.451c1.218,0,2.206,0.987,2.206,2.206C998.692,831.516,997.704,832.503,996.486,832.503z"/>
				<path style="fill:#D87355;" d="M996.486,749.201h-60.451c-1.218,0-2.206-0.987-2.206-2.206c0-1.219,0.988-2.206,2.206-2.206
					h60.451c1.218,0,2.206,0.987,2.206,2.206C998.692,748.215,997.704,749.201,996.486,749.201z"/>
				<path style="fill:#D87355;" d="M995.083,551.564c-0.392,0-0.79-0.103-1.149-0.325l-54.578-33.391
					c-0.631-0.386-1.026-1.062-1.053-1.803c-0.026-0.739,0.321-1.443,0.923-1.872l46.771-33.394c0.99-0.709,2.368-0.48,3.077,0.513
					c0.708,0.991,0.478,2.369-0.514,3.076l-44.058,31.457l51.735,31.653c1.039,0.635,1.366,1.992,0.73,3.031
					C996.551,551.19,995.826,551.564,995.083,551.564z"/>
				<path style="fill:#D87355;" d="M988.16,484.779h-44.325c-1.218,0-2.206-0.987-2.206-2.206c0-1.219,0.988-2.206,2.206-2.206
					h44.325c1.218,0,2.206,0.987,2.206,2.206C990.365,483.793,989.378,484.779,988.16,484.779z"/>
				<polygon style="fill:#D87355;" points="904.692,663.937 1032.966,663.937 1032.966,586.381 1001.734,549.026 904.692,549.026 
									"/>
				<polygon style="fill:#EFBC73;" points="974.714,621.737 1020.723,621.737 1020.723,590.218 995.453,559.994 974.714,559.994 
									"/>
				<rect x="916.935" y="559.994" style="fill:#EFBC73;" width="41.325" height="61.744"/>
				<polygon style="fill:#D87355;" points="869.45,1398.964 1066.211,1398.964 1034.979,1335.489 900.682,1335.489 				"/>
			</g>
			<g>
				<path style="fill:#D87355;" d="M1266.808,772.757c-1.219,0-2.206-0.987-2.206-2.206V639.59c0-1.219,0.987-2.206,2.206-2.206
					s2.206,0.987,2.206,2.206v130.961C1269.013,771.771,1268.027,772.757,1266.808,772.757z"/>
				<path style="fill:#D87355;" d="M1282.375,772.757c-1.219,0-2.206-0.987-2.206-2.206V639.59c0-1.219,0.987-2.206,2.206-2.206
					s2.206,0.987,2.206,2.206v130.961C1284.58,771.771,1283.594,772.757,1282.375,772.757z"/>
				<path style="fill:#D87355;" d="M1371.342,827.297c-0.444,0-0.89-0.133-1.277-0.409l-95.487-68.084l-89.959,68.047
					c-0.973,0.73-2.355,0.541-3.089-0.429c-0.736-0.971-0.544-2.357,0.429-3.091l91.249-69.023c0.771-0.579,1.827-0.597,2.611-0.037
					l96.806,69.023c0.993,0.709,1.224,2.085,0.517,3.076C1372.71,826.976,1372.031,827.297,1371.342,827.297z"/>
				<rect x="1264.205" y="735.57" style="fill:#363E44;" width="20.666" height="40.998"/>
				<rect x="1170.197" y="812.004" style="fill:#EFBC73;" width="208.682" height="38.986"/>
			</g>
		</g>
		<g>
			<rect x="972.248" y="1762.542" style="fill:#F2E6DC;" width="1063.074" height="225.034"/>
			<rect x="966.392" y="1499.239" style="fill:#EFBC73;" width="1077.973" height="489.6"/>
			<rect x="965.832" y="1748.382" style="fill:#FFD092;" width="1081.214" height="14.159"/>
			<rect x="955.423" y="1476.655" style="fill:#D87355;" width="1102.031" height="48.781"/>
			<rect x="1189.296" y="1396.012" style="fill:#FFD092;" width="623.681" height="592.828"/>
			<rect x="1186.819" y="1660.106" style="fill:#F7F1EB;" width="633.704" height="36.662"/>
			<g>
				<rect x="1240.06" y="1445.628" style="fill:#F7F1EB;" width="39.37" height="80.249"/>
				<rect x="1240.06" y="1549.772" style="fill:#F7F1EB;" width="39.37" height="80.249"/>
				<rect x="1308.776" y="1445.628" style="fill:#F7F1EB;" width="39.37" height="80.249"/>
				<rect x="1308.776" y="1549.772" style="fill:#F7F1EB;" width="39.37" height="80.249"/>
				<rect x="1377.492" y="1445.628" style="fill:#F7F1EB;" width="39.37" height="80.249"/>
				<rect x="1377.492" y="1549.772" style="fill:#F7F1EB;" width="39.37" height="80.249"/>
				<rect x="1446.208" y="1445.628" style="fill:#F7F1EB;" width="39.37" height="80.249"/>
				<rect x="1446.208" y="1549.772" style="fill:#F7F1EB;" width="39.37" height="80.249"/>
				<rect x="1514.925" y="1445.628" style="fill:#F7F1EB;" width="39.37" height="80.249"/>
				<rect x="1514.925" y="1549.772" style="fill:#F7F1EB;" width="39.37" height="80.249"/>
				<rect x="1583.641" y="1445.628" style="fill:#F7F1EB;" width="39.37" height="80.249"/>
				<rect x="1583.641" y="1549.772" style="fill:#F7F1EB;" width="39.37" height="80.249"/>
				<rect x="1652.357" y="1445.628" style="fill:#F7F1EB;" width="39.37" height="80.249"/>
				<rect x="1652.357" y="1549.772" style="fill:#F7F1EB;" width="39.37" height="80.249"/>
				<rect x="1721.073" y="1445.628" style="fill:#F7F1EB;" width="39.37" height="80.249"/>
				<rect x="1721.073" y="1549.772" style="fill:#F7F1EB;" width="39.37" height="80.249"/>
			</g>
			<path style="fill:#FFD092;" d="M1820.524,1680.644h-631.227c-1.218,0-2.206-0.987-2.206-2.206c0-1.219,0.988-2.206,2.206-2.206
				h631.227c1.219,0,2.206,0.986,2.206,2.206C1822.729,1679.657,1821.743,1680.644,1820.524,1680.644z"/>
			<g>
				<rect x="988.713" y="1547.157" style="fill:#F2E6DC;" width="39.37" height="80.249"/>
				<rect x="988.713" y="1651.301" style="fill:#F2E6DC;" width="39.37" height="80.249"/>
				<rect x="1057.429" y="1547.157" style="fill:#F2E6DC;" width="39.37" height="80.249"/>
				<rect x="1057.429" y="1651.301" style="fill:#F2E6DC;" width="39.37" height="80.249"/>
				<rect x="1126.145" y="1547.157" style="fill:#F2E6DC;" width="39.37" height="80.249"/>
				<rect x="1126.145" y="1651.301" style="fill:#F2E6DC;" width="39.37" height="80.249"/>
			</g>
			<g>
				<rect x="988.713" y="1781.66" style="fill:#F2E6DC;" width="39.37" height="80.249"/>
				<rect x="988.713" y="1885.804" style="fill:#F2E6DC;" width="39.37" height="80.249"/>
				<rect x="1057.429" y="1781.66" style="fill:#F2E6DC;" width="39.37" height="80.249"/>
				<rect x="1057.429" y="1885.804" style="fill:#F2E6DC;" width="39.37" height="80.249"/>
				<rect x="1126.145" y="1781.66" style="fill:#F2E6DC;" width="39.37" height="80.249"/>
				<rect x="1126.145" y="1885.804" style="fill:#F2E6DC;" width="39.37" height="80.249"/>
			</g>
			<g>
				<rect x="1841.403" y="1547.157" style="fill:#F2E6DC;" width="39.37" height="80.249"/>
				<rect x="1841.403" y="1651.301" style="fill:#F2E6DC;" width="39.37" height="80.249"/>
				<rect x="1910.119" y="1547.157" style="fill:#F2E6DC;" width="39.37" height="80.249"/>
				<rect x="1910.119" y="1651.301" style="fill:#F2E6DC;" width="39.37" height="80.249"/>
				<rect x="1978.835" y="1547.157" style="fill:#F2E6DC;" width="39.37" height="80.249"/>
				<rect x="1978.835" y="1651.301" style="fill:#F2E6DC;" width="39.37" height="80.249"/>
			</g>
			<g>
				<rect x="1841.403" y="1781.66" style="fill:#F2E6DC;" width="39.37" height="80.249"/>
				<rect x="1841.403" y="1885.804" style="fill:#F2E6DC;" width="39.37" height="80.249"/>
				<rect x="1910.119" y="1781.66" style="fill:#F2E6DC;" width="39.37" height="80.249"/>
				<rect x="1910.119" y="1885.804" style="fill:#F2E6DC;" width="39.37" height="80.249"/>
				<rect x="1978.835" y="1781.66" style="fill:#F2E6DC;" width="39.37" height="80.249"/>
				<rect x="1978.835" y="1885.804" style="fill:#F2E6DC;" width="39.37" height="80.249"/>
			</g>
			<polygon style="fill:#D87355;" points="1829.761,1405.055 1166.62,1405.055 1190.788,1310.927 1803.897,1312.199 			"/>
			<g>
				<rect x="1407.044" y="1740.866" style="fill:#B77250;" width="193.346" height="198.784"/>
				<path style="fill:#FFD092;" d="M1504.974,1942.778c-0.004,0-0.011,0-0.015,0c-1.219-0.009-2.199-1.004-2.191-2.221
					l1.439-200.538c0.009-1.213,0.995-2.191,2.206-2.191c0.004,0,0.011,0,0.015,0c1.219,0.009,2.199,1.004,2.191,2.221
					l-1.439,200.538C1507.171,1941.8,1506.185,1942.778,1504.974,1942.778z"/>
				<path style="fill:#B77250;" d="M1608.007,1943.414h-208.609c-1.219,0-2.206-0.987-2.206-2.206v-209.247
					c0-1.219,0.987-2.206,2.206-2.206h208.609c1.219,0,2.206,0.987,2.206,2.206v209.247
					C1610.213,1942.427,1609.226,1943.414,1608.007,1943.414z M1401.603,1939.002h204.198v-204.835h-204.198V1939.002z"/>
			</g>
			<g>
				<rect x="1268.749" y="1941.853" style="fill:#F2E6DC;" width="470.918" height="15.44"/>
				<rect x="1252.206" y="1955.088" style="fill:#F2E6DC;" width="504.555" height="15.44"/>
				<rect x="1232.906" y="1969.425" style="fill:#F2E6DC;" width="537.641" height="15.44"/>
				<rect x="1214.157" y="1983.21" style="fill:#F2E6DC;" width="569.623" height="15.44"/>
				<path style="fill:#FFD092;" d="M1757.312,1956.193h-505.106c-1.218,0-2.206-0.987-2.206-2.206c0-1.219,0.988-2.206,2.206-2.206
					h505.106c1.219,0,2.206,0.987,2.206,2.206C1759.518,1955.207,1758.531,1956.193,1757.312,1956.193z"/>
				<path style="fill:#FFD092;" d="M1770.546,1971.633h-538.192c-1.218,0-2.206-0.986-2.206-2.206s0.988-2.206,2.206-2.206h538.192
					c1.219,0,2.206,0.986,2.206,2.206S1771.766,1971.633,1770.546,1971.633z"/>
				<path style="fill:#FFD092;" d="M1783.781,1984.867h-569.072c-1.218,0-2.206-0.987-2.206-2.206s0.988-2.206,2.206-2.206h569.072
					c1.219,0,2.206,0.987,2.206,2.206S1785,1984.867,1783.781,1984.867z"/>
			</g>
			<g>
				<path style="fill:#F7F1EB;" d="M1745.55,1919.567h-67.409v-136.869c0-17.471,14.163-31.634,31.634-31.634h4.292
					c17.387,0,31.482,14.095,31.482,31.482V1919.567z"/>
				<path style="fill:#EFBC73;" d="M1756.41,1930.694h-87.769c-1.219,0-2.206-0.986-2.206-2.206v-143.642
					c0-24.995,20.336-45.331,45.331-45.331h1.456c25.03,0,45.394,20.362,45.394,45.391v143.582
					C1758.615,1929.708,1757.629,1930.694,1756.41,1930.694z M1670.846,1926.283h83.358v-141.376
					c0-22.595-18.384-40.98-40.982-40.98h-1.456c-22.563,0-40.92,18.356-40.92,40.92V1926.283z"/>
				<path style="fill:#EFBC73;" d="M1713.198,1931.196c-1.211,0-2.197-0.976-2.206-2.189l-1.432-187.269
					c-0.009-1.219,0.971-2.214,2.188-2.223c0.006,0,0.013,0,0.017,0c1.21,0,2.197,0.976,2.206,2.188l1.432,187.27
					c0.009,1.219-0.971,2.214-2.188,2.223C1713.209,1931.196,1713.202,1931.196,1713.198,1931.196z"/>
			</g>
			<g>
				<path style="fill:#EFBC73;" d="M1335.798,1931.33h-87.769c-1.218,0-2.206-0.987-2.206-2.206v-146.882
					c0-24.032,19.55-43.582,43.58-43.582h4.28c24.439,0,44.321,19.881,44.321,44.321v146.143
					C1338.004,1930.343,1337.018,1931.33,1335.798,1931.33z M1250.235,1926.918h83.358v-143.937
					c0-22.005-17.904-39.909-39.909-39.909h-4.28c-21.598,0-39.169,17.572-39.169,39.171V1926.918z"/>
				<path style="fill:#F7F1EB;" d="M1326.464,1919.933h-67.409v-136.869c0-17.471,14.163-31.634,31.634-31.634h4.293
					c17.387,0,31.482,14.095,31.482,31.482V1919.933z"/>
				<path style="fill:#EFBC73;" d="M1289.703,1929.725c-1.217,0-2.204-0.984-2.206-2.201l-0.299-186.653
					c-0.002-1.219,0.984-2.208,2.201-2.21c0.002,0,0.002,0,0.004,0c1.217,0,2.203,0.984,2.206,2.201l0.299,186.653
					c0.002,1.219-0.984,2.208-2.201,2.21C1289.705,1929.725,1289.703,1929.725,1289.703,1929.725z"/>
			</g>
		</g>
		<g>
			<polygon style="fill:#363E44;" points="840.075,1660.554 953.791,2163.551 717.93,2163.551 684.313,1968.072 675.806,2163.551 
				439.729,2163.551 458.292,1723.465 			"/>
			<g>
				<path style="fill:#FFFFFF;" d="M701.826,1245.08c11.969-3.419,30.314-7.326,52.673-6.667c0,0,45.586,1.344,94.404,30.63
					c54.967,32.976,113.499,125.977,140.198,254.686l-144.1,55.429L701.826,1245.08z"/>
				<path style="fill:#EFBC73;" d="M442.996,1315.409c60.302-27.694,159.58-66.21,268.287-79.341l207.681,493.375l-416.141,74.556
					l-44.531-85.813l-21.91,97.717l-42.273,14.386l-11.293-420.895C382.816,1369.002,406.291,1332.266,442.996,1315.409z"/>
				<path style="fill:#FFFFFF;" d="M876.312,1715.229c-0.855,0-1.669-0.5-2.028-1.336L678.475,1257.5
					c-0.48-1.12,0.038-2.417,1.158-2.897c1.118-0.489,2.415,0.037,2.896,1.157l195.809,456.393c0.48,1.12-0.038,2.417-1.157,2.897
					C876.897,1715.173,876.602,1715.229,876.312,1715.229z"/>
				<path style="fill:#FFFFFF;" d="M477.849,1308.326c0,0,87.079-45.448,176.495-57.507l6.028,169.824L477.849,1308.326z"/>
				<polygon style="fill:#363E44;" points="1042.645,1682.329 818.299,1682.329 919.741,1375.55 1144.088,1375.55 				"/>
				<g>
					<path style="fill:#84524D;" d="M1088.712,1561.35c15.956,4.503,20.429,12.59,18.508,20.467
						c-1.92,7.877-9.506,12.56-25.462,8.057c-15.956-4.503-34.24-16.488-32.319-24.364
						C1051.359,1557.633,1072.756,1556.847,1088.712,1561.35z"/>
					<path style="fill:#84524D;" d="M1091.855,1533.126c18.493,5.219,23.677,14.592,21.452,23.721
						c-2.226,9.129-11.018,14.557-29.511,9.338c-18.493-5.219-39.684-19.11-37.458-28.239
						C1048.563,1528.818,1073.363,1527.907,1091.855,1533.126z"/>
					<path style="fill:#84524D;" d="M1099.848,1515.668c15.956,4.503,23.542-0.18,25.462-8.057
						c1.92-7.876-2.553-15.963-18.508-20.467c-15.956-4.503-37.352-3.717-39.273,4.159
						C1065.609,1499.18,1083.892,1511.164,1099.848,1515.668z"/>
					<path style="fill:#84524D;" d="M1089.712,1541.918c18.493,5.219,27.285-0.209,29.511-9.338
						c2.225-9.129-2.959-18.502-21.452-23.721c-18.493-5.219-43.292-4.309-45.518,4.82
						C1050.028,1522.808,1071.219,1536.699,1089.712,1541.918z"/>
				</g>
				<g>
					<path style="fill:#FFFFFF;" d="M787.157,1430.28c0,0-9.162-26.417-38.055,0.706c-28.894,27.123-85.878,91.513-124.057,82.837
						c-38.179-8.676-110.277-231.123-229.12-172.976c-118.843,58.146-24.662,243.817,28.727,305.874
						c53.389,62.057,141.848,119.474,241.495,108.124c99.647-11.35,177.5-188.902,188.335-211.117
						C873.95,1503.812,787.157,1430.28,787.157,1430.28z"/>
					<g>
						<path style="fill:#84524D;" d="M790.044,1407.928c0,0,111.654-132.601,132.474-95.213
							c4.497,8.076-24.613,18.452-30.987,34.347c0,0,27.433,0.108,22.933,22.335c0,0,15.392,8.718,12.551,21.733
							c0,0,28.805,23.408,14.53,35.267c-12.162,10.103-17.101-10.319-30.289-7.95c-13.188,2.369-17.9,55.346-44.573,56.992
							l-17.78,39.974C848.903,1515.413,785.586,1444.904,790.044,1407.928z"/>
						<path style="fill:#363E44;" d="M899.142,1394.736c-0.517,0-1.036-0.181-1.455-0.549c-0.914-0.803-1.005-2.197-0.201-3.113
							c10.001-11.377,29.637-2.331,30.469-1.941c1.102,0.519,1.573,1.831,1.056,2.934c-0.518,1.101-1.833,1.577-2.933,1.06
							c-0.174-0.08-17.467-8.035-25.277,0.859C900.365,1394.482,899.755,1394.736,899.142,1394.736z"/>
						<path style="fill:#363E44;" d="M887.765,1373.562c-0.626,0-1.247-0.265-1.683-0.78c-0.788-0.928-0.673-2.32,0.256-3.108
							c0.454-0.385,11.355-9.378,28.947-2.324c1.131,0.452,1.68,1.736,1.227,2.867c-0.453,1.129-1.736,1.687-2.868,1.226
							c-15.151-6.072-24.36,1.519-24.453,1.596C888.776,1373.39,888.269,1373.562,887.765,1373.562z"/>
					</g>
					<path style="fill:#FFFFFF;" d="M796.341,1393.46l-18.524,28.934c0,0,30.015,75.85,71.086,101.333l14.984-29.863
						C863.886,1493.866,816.999,1425.408,796.341,1393.46z"/>
					<path style="fill:#E6D0BE;" d="M853.537,1514.746c-0.271,0-0.548-0.05-0.815-0.157c-34.816-13.88-61.006-57.992-62.103-59.864
						c-0.617-1.051-0.265-2.402,0.785-3.018c1.049-0.622,2.403-0.265,3.019,0.786c0.262,0.444,26.534,44.683,59.932,57.999
						c1.132,0.45,1.683,1.734,1.232,2.865C855.244,1514.221,854.414,1514.746,853.537,1514.746z"/>
					<path style="fill:#E6D0BE;" d="M638.929,1558.1c-0.857,0-1.673-0.502-2.03-1.34l-11.384-26.693
						c-0.478-1.12,0.043-2.417,1.164-2.895c1.121-0.48,2.416,0.043,2.894,1.163l11.384,26.693c0.478,1.122-0.043,2.417-1.164,2.895
						C639.511,1558.044,639.218,1558.1,638.929,1558.1z"/>
					<path style="fill:#E6D0BE;" d="M795.774,1429.579c-4.376,0-7.936-3.561-7.936-7.935s3.561-7.935,7.936-7.935
						c4.376,0,7.935,3.561,7.935,7.935S800.15,1429.579,795.774,1429.579z M795.774,1418.12c-1.944,0-3.525,1.581-3.525,3.524
						s1.581,3.524,3.525,3.524c1.943,0,3.524-1.581,3.524-3.524S797.718,1418.12,795.774,1418.12z"/>
					<path style="fill:#E6D0BE;" d="M847.416,1560.806c-0.335,0-0.675-0.075-0.994-0.237c-1.087-0.551-1.522-1.878-0.971-2.966
						c16.282-32.157,6.613-43.416,6.51-43.52c-0.561-0.575-0.766-1.411-0.534-2.18l7.076-23.459
						c0.352-1.165,1.583-1.829,2.748-1.473c1.166,0.351,1.827,1.581,1.476,2.749l-6.752,22.382
						c2.516,3.756,8.651,17.394-6.589,47.496C848.997,1560.364,848.221,1560.806,847.416,1560.806z"/>
					<path style="fill:#E6D0BE;" d="M608.359,1558.1c-0.135,0-0.271-0.013-0.409-0.039c-1.196-0.224-1.985-1.376-1.761-2.574
						l5.056-26.955c0.225-1.198,1.369-1.982,2.575-1.76c1.196,0.224,1.985,1.376,1.761,2.574l-5.057,26.955
						C610.325,1557.361,609.399,1558.1,608.359,1558.1z"/>
				</g>
			</g>
			<g>
				<g>
					<path style="fill:#84524D;" d="M646.05,1201.346c-18.098,22.574-99.527-12.418-99.527-12.418l-23.742-42.375
						c-8.776-29.44,15.019-56.411,44.459-65.188c29.44-8.776,60.419,7.974,69.196,37.414
						C636.436,1118.779,659.962,1183.993,646.05,1201.346z"/>
					<path style="fill:#84524D;" d="M625.741,1280.295l-5.3-124.415l-75.198,2.992l5.3,124.415
						c0.923,18.594,18.504,32.998,39.269,32.171C610.578,1314.632,626.663,1298.889,625.741,1280.295z"/>
					<path style="fill:#84524D;" d="M634.489,1134.621c0,0,19.621,11.208,20.059,15.58c0.522,5.219-15.235,13.196-15.235,13.196
						S634.897,1134.541,634.489,1134.621z"/>
					<g>
						<path style="fill:#FFFFFF;" d="M586.322,1153.838c0,0,4.556-9.542,13.615-16.172c1.927-1.41,9.58,16.673,7.111,17.138
							C596.194,1156.853,586.322,1153.838,586.322,1153.838z"/>
						<path style="fill:#363E44;" d="M614.502,1152.526c13.306-5.854,20.007-19.888,20.007-19.888s-14.873-4.542-28.18,1.311
							c-2.33,1.025-4.445,2.31-6.37,3.717c-0.802,6.761,2.055,13.161,7.077,17.137
							C609.509,1154.339,612.032,1153.613,614.502,1152.526z"/>
					</g>
					<path style="fill:#363E44;" d="M626.634,1179.089c-0.935,0-1.877-0.131-2.799-0.403c-3.625-1.064-6.387-4.17-7.037-7.912
						c-0.208-1.2,0.596-2.341,1.795-2.55c1.211-0.203,2.342,0.597,2.551,1.796c0.364,2.098,1.908,3.839,3.934,4.435
						c2.103,0.616,4.391-0.069,5.832-1.745c0.794-0.924,2.187-1.032,3.11-0.237c0.924,0.795,1.031,2.186,0.237,3.11
						C632.319,1177.842,629.512,1179.089,626.634,1179.089z"/>
					<path style="fill:#363E44;" d="M622.766,1212.606c-0.045,0-0.092-0.002-0.138-0.004c-20.206-1.245-46.813-7.526-47.08-7.591
						c-1.185-0.282-1.917-1.471-1.635-2.656c0.28-1.182,1.461-1.921,2.656-1.635c0.263,0.063,26.508,6.257,46.331,7.479
						c1.216,0.075,2.141,1.12,2.066,2.337C624.893,1211.705,623.921,1212.606,622.766,1212.606z"/>
				</g>
				<path style="fill:#363E44;" d="M554.713,1179.856c-7.863,0-16.701-5.075-22.596-13.824c-3.935-5.839-6.017-12.452-5.86-18.621
					c0.164-6.449,2.73-11.668,7.226-14.697c6.53-4.401,15.954-3.138,24.008,3.216c0.956,0.754,1.12,2.141,0.366,3.098
					c-0.756,0.956-2.143,1.118-3.098,0.366c-6.521-5.146-13.906-6.328-18.811-3.022c-3.279,2.21-5.154,6.169-5.281,11.151
					c-0.135,5.26,1.68,10.957,5.107,16.045c6.92,10.266,18.256,14.776,25.273,10.048c1.631-1.101,2.917-2.628,3.819-4.538
					c0.521-1.103,1.838-1.57,2.937-1.051c1.102,0.521,1.572,1.835,1.052,2.938c-1.247,2.636-3.045,4.76-5.343,6.309
					C560.912,1179.027,557.892,1179.856,554.713,1179.856z"/>
				<g>
					<path style="fill:#D87355;" d="M635.573,1078.135c-0.156-0.285-0.299-0.575-0.461-0.859
						c-19.852-34.862-64.205-47.031-99.068-27.179c-34.862,19.852-47.032,64.206-27.18,99.068c0.162,0.284,0.34,0.554,0.504,0.834
						L635.573,1078.135z"/>
					<path style="fill:#EFBC73;" d="M506.096,1117.86c-0.087,0-0.175-0.004-0.264-0.015c-1.21-0.144-2.073-1.243-1.93-2.451
						c2.802-23.513,16.745-44.538,37.298-56.243c19.858-11.311,43.442-12.952,64.707-4.506c1.132,0.45,1.685,1.732,1.235,2.865
						c-0.45,1.133-1.733,1.682-2.864,1.236c-20.01-7.95-42.206-6.402-60.897,4.239c-19.341,11.013-32.462,30.8-35.098,52.93
						C508.15,1117.037,507.197,1117.86,506.096,1117.86z"/>
					<path style="fill:#EFBC73;" d="M515.543,1125.237c-0.139,0-0.28-0.013-0.422-0.041c-1.197-0.233-1.977-1.389-1.745-2.585
						c3.86-19.886,17.641-38.294,36.864-49.243c18.576-10.574,39.999-13.264,58.776-7.375c1.162,0.364,1.809,1.603,1.444,2.764
						c-0.364,1.163-1.606,1.811-2.765,1.445c-17.607-5.519-37.759-2.972-55.273,7.001c-18.12,10.32-31.097,27.608-34.717,46.249
						C517.501,1124.505,516.578,1125.237,515.543,1125.237z"/>
					<path style="fill:#D87355;" d="M664.258,1080.414l-156.16,88.923c-3.881,2.21-8.819,0.855-11.029-3.026l0,0
						c-2.21-3.881-0.855-8.819,3.026-11.029l156.161-88.923c3.881-2.21,8.819-0.855,11.029,3.026l0,0
						C669.494,1073.266,668.139,1078.204,664.258,1080.414z"/>
				</g>
			</g>
		</g>
		<g>
			<g>
				<path style="fill:#363E44;" d="M2050.089,1526.15c-0.556,0-1.111-0.209-1.54-0.627l-45.693-44.53
					c-0.872-0.849-0.89-2.247-0.039-3.119s2.251-0.885,3.119-0.039l45.693,44.53c0.872,0.849,0.889,2.247,0.039,3.119
					C2051.237,1525.928,2050.662,1526.15,2050.089,1526.15z"/>
				<path style="fill:#363E44;" d="M2034.559,1541.939c-0.556,0-1.111-0.209-1.54-0.627l-45.695-44.532
					c-0.872-0.849-0.89-2.247-0.039-3.119s2.251-0.885,3.119-0.039l45.695,44.532c0.872,0.849,0.89,2.247,0.039,3.119
					C2035.707,1541.717,2035.132,1541.939,2034.559,1541.939z"/>
				<path style="fill:#363E44;" d="M2128.435,1654.951c-7.895,0-15.789-2.996-21.809-8.989L1969.743,1509.7
					c-2.774-2.761-4.306-6.436-4.312-10.35c-0.006-3.912,1.512-7.591,4.276-10.361l27.558-27.621
					c5.699-5.712,14.988-5.728,20.704-0.037l136.87,136.252c5.853,5.824,9.081,13.577,9.096,21.831
					c0.015,8.256-3.188,16.024-9.021,21.87l0,0l-4.592,4.603C2144.295,1651.929,2136.366,1654.951,2128.435,1654.951z
					 M2007.636,1461.482c-2.626,0-5.251,1.002-7.248,3l-27.558,27.621c-1.93,1.937-2.992,4.506-2.988,7.24
					c0.004,2.734,1.075,5.301,3.011,7.229l136.883,136.263c10.346,10.305,27.151,10.268,37.463-0.063l4.592-4.603
					c5-5.012,7.746-11.67,7.733-18.746c-0.013-7.074-2.781-13.721-7.795-18.712l-136.87-136.252
					C2012.864,1462.473,2010.249,1461.482,2007.636,1461.482z M2153.352,1639.726h0.021H2153.352z"/>
				<path style="fill:#363E44;" d="M1972.342,1491.884c-0.562,0-1.124-0.213-1.553-0.64l-84.429-83.815
					c-0.416-0.414-0.65-0.976-0.653-1.562s0.23-1.148,0.644-1.562l25.607-25.667c0.862-0.864,2.257-0.864,3.115-0.009l84.428,83.815
					c0.416,0.414,0.651,0.976,0.653,1.562c0.002,0.586-0.23,1.148-0.644,1.562l-25.607,25.667
					C1973.473,1491.668,1972.907,1491.884,1972.342,1491.884z M1891.037,1405.857l81.299,80.706l22.49-22.546l-81.299-80.706
					L1891.037,1405.857z"/>
			</g>
			<g>
				<ellipse style="fill:#FFFFFF;" cx="1701.462" cy="1188.31" rx="259.212" ry="258.927"/>
				<g>
					<path style="fill:#363E44;" d="M1701.461,1452.849c-67.847,0-135.696-25.799-187.349-77.393
						c-50.042-49.988-77.602-116.45-77.602-187.147c0-70.694,27.561-137.156,77.602-187.144
						c103.308-103.192,271.396-103.188,374.701,0l0,0c50.042,49.988,77.602,116.45,77.602,187.144
						c0,70.697-27.56,137.159-77.602,187.147C1837.159,1427.05,1769.31,1452.849,1701.461,1452.849z M1701.463,928.18
						c-66.72,0-133.441,25.368-184.232,76.103c-49.21,49.157-76.31,114.511-76.31,184.026c0,69.516,27.1,134.871,76.31,184.028
						c101.581,101.471,266.877,101.475,368.463,0c49.21-49.157,76.31-114.511,76.31-184.028c0-69.514-27.1-134.869-76.31-184.026
						C1834.902,953.548,1768.181,928.18,1701.463,928.18z"/>
					<path style="fill:#363E44;" d="M1868.045,1024.117c-0.564,0-1.129-0.215-1.56-0.646
						c-66.475-66.402-165.716-86.501-252.846-51.209c-1.12,0.455-2.415-0.086-2.871-1.217c-0.457-1.129,0.086-2.415,1.217-2.871
						c88.765-35.961,189.887-15.481,257.62,52.179c0.862,0.859,0.862,2.257,0,3.119
						C1869.176,1023.902,1868.61,1024.117,1868.045,1024.117z"/>
					<path style="fill:#363E44;" d="M1701.101,1425.788c-27.877,0-55.955-4.879-82.927-14.932c-1.142-0.426-1.721-1.697-1.297-2.839
						c0.427-1.142,1.702-1.712,2.839-1.297c85.441,31.849,182.307,10.82,246.77-53.57c0.862-0.862,2.255-0.862,3.121,0
						c0.859,0.862,0.859,2.26-0.002,3.119C1824.272,1401.551,1763.205,1425.788,1701.101,1425.788z"/>
				</g>
			</g>
			<polygon style="fill:#8B865C;" points="1679.689,1334.656 1554.203,1205.48 1599.542,1163.381 1672.511,1236 1797.763,1054.124 
				1848.721,1089.215 			"/>
		</g>
	</g>
</g>
</svg>
