<?xml version="1.0" encoding="utf-8"?>
<!-- Generator: Adobe Illustrator 27.5.0, SVG Export Plug-In . SVG Version: 6.00 Build 0)  -->
<svg version="1.1" id="Слой_1" xmlns="http://www.w3.org/2000/svg" xmlns:xlink="http://www.w3.org/1999/xlink" x="0px" y="0px"
	 viewBox="0 0 2246.33 2000" style="enable-background:new 0 0 2246.33 2000;" xml:space="preserve">
<g>
	<rect x="0.001" y="0.001" style="fill:#F5F5F5;" width="2246.33" height="2000"/>
	<g>
		<g>
			<linearGradient id="SVGID_1_" gradientUnits="userSpaceOnUse" x1="719.3574" y1="192.2205" x2="1865.863" y2="2237.134">
				<stop  offset="0" style="stop-color:#FF9F55"/>
				<stop  offset="1" style="stop-color:#FFD255"/>
			</linearGradient>
			<path style="fill:url(#SVGID_1_);" d="M851.989,1639.407h727.346c33.735,0,61.084-27.349,61.084-61.085V576.542
				c0-33.736-27.349-61.084-61.084-61.084H851.989c-33.736,0-61.084,27.348-61.084,61.084v1001.78
				C790.905,1612.058,818.253,1639.407,851.989,1639.407z"/>
		</g>
		<g>
			<g>
				<g>
					<path style="fill:#97A43C;" d="M1462.836,954.941l-0.592-2.583c0.547-0.125,55.534-12.646,123.775-22.27
						c63.035-8.889,150.604-17.052,209.823-5.464l0.109,0.026c0.289,0.083,29.405,8.186,71.251,2.772
						c38.6-4.994,96.251-22.845,151.691-79.531l1.895,1.853c-24.728,25.283-51.963,45.091-80.949,58.873
						c-23.203,11.032-47.571,18.249-72.429,21.45c-41.44,5.336-70.615-2.437-72.128-2.853
						C1682.563,905.181,1465.02,954.441,1462.836,954.941z"/>
				</g>
				<g>
					<path style="fill:#97A43C;" d="M1837.875,1017.8c-19.147,0-37.188-5.63-53.081-16.698
						c-19.72-13.732-34.537-34.704-41.724-59.052c-11.83-40.065-1.247-88.734,49.059-107.145
						c49.749-18.206,80.508-4.761,110.253,8.242c32.389,14.157,62.979,27.53,116.938,4.451l2.715-1.161l-0.936,2.8
						c-0.117,0.351-12.017,35.483-37.522,73.259c-14.992,22.205-31.69,40.98-49.628,55.804
						c-22.462,18.563-46.941,30.948-72.759,36.813C1853.289,1016.908,1845.493,1017.8,1837.875,1017.8z M1838.045,828.729
						c-13.248,0-28,2.442-45.005,8.666c-48.694,17.819-58.908,65.026-47.43,103.905c13.385,45.335,57.183,84.358,114.993,71.229
						c57.561-13.073,97.429-56.951,120.738-91.458c21.174-31.345,32.899-60.845,36.237-69.868
						c-53.335,21.882-85.313,7.901-116.259-5.626C1882.262,837.245,1862.778,828.729,1838.045,828.729z"/>
				</g>
				<g>
					
						<rect x="1824.26" y="888.787" transform="matrix(0.5598 -0.8286 0.8286 0.5598 5.2599 1936.8348)" style="fill:#97A43C;" width="2.65" height="149.359"/>
				</g>
				<g>
					
						<rect x="1790.489" y="883.629" transform="matrix(0.7042 -0.71 0.71 0.7042 -80.5056 1576.6896)" style="fill:#97A43C;" width="122.688" height="2.65"/>
				</g>
			</g>
			<g>
				<g>
					<path style="fill:#97A43C;" d="M1731.445,1120.423l1.162-7.446c0.199-1.269,4.459-31.25-30.1-44.224
						c-20.989-7.881-58.583-29.732-66.339-61.65c-4.595-18.905,1.89-38.244,19.273-57.479c17.892-19.798,41.296-22.552,62.607-7.37
						c18.659,13.292,32.583,38.524,37.248,67.497c3.827,23.764,3.424,61.109-20.219,104.071L1731.445,1120.423z M1690.196,935.26
						c-11.735,0-23.112,5.433-32.789,16.14c-16.759,18.545-23.038,37.076-18.664,55.076c7.494,30.842,44.193,52.098,64.696,59.795
						c27.211,10.216,31.563,31.077,31.982,41.264c38.383-74.703,11.916-141.163-18.911-163.123
						C1707.916,938.289,1698.957,935.26,1690.196,935.26z"/>
				</g>
				<g>
					<path style="fill:#97A43C;" d="M1735.187,1113.564l-2.538-0.764c0.06-0.201,6.023-20.428,4.141-47.676
						c-1.733-25.086-10.67-61.448-43.401-92.218c-28.653-26.937-52.029-29.389-79.098-32.228
						c-32.295-3.389-68.897-7.228-122.248-55.92l1.787-1.958c52.706,48.104,88.85,51.896,120.738,55.242
						c26.397,2.769,51.332,5.385,80.636,32.932c33.391,31.389,42.486,68.481,44.236,94.068
						C1741.337,1092.751,1735.248,1113.359,1735.187,1113.564z"/>
				</g>
				<g>
					
						<rect x="1622.953" y="995.863" transform="matrix(0.1971 -0.9804 0.9804 0.1971 359.2955 2433.1038)" style="fill:#97A43C;" width="84.391" height="2.651"/>
				</g>
				<g>
					
						<rect x="1721.418" y="956.443" transform="matrix(0.02 -0.9998 0.9998 0.02 709.9041 2681.4893)" style="fill:#97A43C;" width="2.651" height="44.378"/>
				</g>
				<g>
					
						<rect x="1683.307" y="1037.397" transform="matrix(0.2122 -0.9772 0.9772 0.2122 336.0536 2494.3208)" style="fill:#97A43C;" width="63.654" height="2.651"/>
				</g>
				<g>
					
						<rect x="1743.068" y="1048.845" transform="matrix(0.6515 -0.7587 0.7587 0.6515 -195.4715 1692.441)" style="fill:#97A43C;" width="2.65" height="20.271"/>
				</g>
			</g>
			<g>
				<g>
					<g>
						<g>
							<path style="fill:#BBD070;" d="M1461.44,618.615c0,0,142.463,117.894,84.327,221.421
								c-58.136,103.527-94.577,18.911-94.577,18.911s-43.044,16.322,13.735-110.288
								C1491.688,688.982,1461.44,618.615,1461.44,618.615z"/>
						</g>
					</g>
				</g>
				<g>
					<g>
						<g>
							<path style="fill:#97A43C;" d="M1698.959,463.591c0,0,110.41,112.881-14.541,288.492
								c-124.951,175.612-97.694,261.952-97.694,261.952S1376.681,738.39,1698.959,463.591z"/>
						</g>
					</g>
				</g>
				<g>
					<g>
						<g>
							<path style="fill:#48753A;" d="M1548.295,963.26c-62.622,17.253-19.878-168.231,71.455-231.148
								c91.334-62.918,176.165-74.316,225.749-132.245C1845.499,599.867,1856.665,878.297,1548.295,963.26z"/>
						</g>
					</g>
				</g>
			</g>
		</g>
		
			<linearGradient id="SVGID_00000018197016803370207730000008804789506809900170_" gradientUnits="userSpaceOnUse" x1="1310.0522" y1="88.8255" x2="1310.0522" y2="491.0421">
			<stop  offset="0" style="stop-color:#DFEAF0"/>
			<stop  offset="1" style="stop-color:#FFF9F5"/>
		</linearGradient>
		<path style="fill:url(#SVGID_00000018197016803370207730000008804789506809900170_);" d="M1776.368,357.061
			c-185.258,11.975-188.78,222.591-188.78,222.591v1003.073H843.736V579.652c0,0-0.845-209.912,189.71-222.591H1776.368z"/>
		<rect x="941.414" y="619.1" style="fill:#DFEAF0;" width="510.928" height="45.082"/>
		<rect x="941.414" y="723.352" style="fill:#DFEAF0;" width="436.262" height="31.933"/>
		<rect x="941.414" y="807.645" style="fill:#DFEAF0;" width="219.305" height="47.43"/>
		<rect x="1225.524" y="807.645" style="fill:#DFEAF0;" width="226.818" height="47.43"/>
		<rect x="941.414" y="898.983" style="fill:#DFEAF0;" width="349.385" height="33.811"/>
		<rect x="941.414" y="983.512" style="fill:#DFEAF0;" width="393.645" height="18.784"/>
		<rect x="941.414" y="1068.04" style="fill:#DFEAF0;" width="473.36" height="18.784"/>
		<g>
			<path style="fill:#DFEAF0;" d="M1162.219,1257.381H939.914v-106.313h222.305V1257.381z M942.914,1254.381h216.305v-100.313
				H942.914V1254.381z"/>
		</g>
		<rect x="1215.662" y="1152.568" style="fill:#DFEAF0;" width="199.111" height="24.42"/>
		<rect x="1215.662" y="1204.225" style="fill:#DFEAF0;" width="141.126" height="24.42"/>
		<rect x="941.414" y="1321.626" style="fill:#DFEAF0;" width="390.126" height="18.784"/>
		<rect x="941.414" y="1406.154" style="fill:#DFEAF0;" width="224.236" height="18.784"/>
		<g>
			
				<linearGradient id="SVGID_00000112632796600185063230000013302570860048862641_" gradientUnits="userSpaceOnUse" x1="1371.6621" y1="1385.7104" x2="1511.834" y2="1385.7104">
				<stop  offset="0" style="stop-color:#FF9F55"/>
				<stop  offset="1" style="stop-color:#FFD255"/>
			</linearGradient>
			<path style="fill:url(#SVGID_00000112632796600185063230000013302570860048862641_);" d="M1511.834,1455.797h-140.172v-140.173
				h140.172V1455.797z M1384.805,1442.655h113.888v-113.889h-113.888V1442.655z"/>
		</g>
		<g>
			
				<linearGradient id="SVGID_00000159432031007735571670000014978854799777713574_" gradientUnits="userSpaceOnUse" x1="1518.9464" y1="1408.2551" x2="1327.2345" y2="1209.9651">
				<stop  offset="0" style="stop-color:#FF9F55"/>
				<stop  offset="1" style="stop-color:#FFD255"/>
			</linearGradient>
			<polygon style="fill:url(#SVGID_00000159432031007735571670000014978854799777713574_);" points="1443.951,1415.054 
				1394.67,1368.597 1409.695,1352.659 1444.944,1385.888 1522.024,1322.556 1535.93,1339.48 			"/>
		</g>
		<g>
			<g>
				
					<rect x="1711.471" y="1472.197" transform="matrix(-1 -1.224647e-16 1.224647e-16 -1 3539.8965 2951.3379)" style="fill:#E2D2CA;" width="116.955" height="6.943"/>
			</g>
			<g>
				<rect x="1802.503" y="1497.208" style="fill:#706865;" width="10.248" height="315.735"/>
			</g>
			<g>
				
					<rect x="1648.48" y="1470.229" transform="matrix(-1 -1.224647e-16 1.224647e-16 -1 3378.2559 2950.3738)" style="fill:#CCBDB7;" width="81.295" height="9.915"/>
			</g>
			<g>
				
					<rect x="1673.735" y="1385.638" transform="matrix(-1 -1.224647e-16 1.224647e-16 -1 3378.2549 2864.7783)" style="fill:#4667A8;" width="30.784" height="93.503"/>
			</g>
			<g>
				
					<rect x="1419.957" y="1479.256" transform="matrix(-1 -1.224647e-16 1.224647e-16 -1 3290.3359 2976.4639)" style="fill:#B59074;" width="450.422" height="17.952"/>
			</g>
			<g>
				<path style="fill:#F75A5A;" d="M1956.826,1370.598c0,0,4.927,69.085-8.573,77.353c-8.455,5.179-42.171,22.649-41.171,25.925
					c1,3.276,19.037,29.149,19.037,29.149s64.762-42.648,66.85-56.087c2.04-13.131-3.188-101.154-12.088-105.209
					c-6.667-3.037-10.186-0.525-18.59,5.713C1950.499,1356.197,1956.826,1370.598,1956.826,1370.598z"/>
			</g>
			<g>
				<g>
					<g>
						<path style="fill:#EAD8CF;" d="M1838.795,1390.322l-5.708-2.111c0,0,7.119-16.709,10.226-16.303
							c3.58,0.469,8.047,1.648,8.047,1.648L1838.795,1390.322z"/>
					</g>
				</g>
			</g>
			<g>
				<g>
					<g>
						<path style="fill:#DA9B5B;" d="M1837.491,1393.205c0.729-0.543,12.133-22.421,12.133-22.421l24.365,3.311l-13.166,25.913
							L1837.491,1393.205z"/>
					</g>
				</g>
			</g>
			<g>
				<g>
					<g>
						<path style="fill:#424773;" d="M1877.146,1769.834c0,0,2.014,13.979,2.266,16.078c0.251,2.1,22.403-1.237,22.403-1.237
							l1.793-16.642C1903.607,1768.033,1879.915,1767.861,1877.146,1769.834z"/>
					</g>
				</g>
			</g>
			<g>
				<g>
					<g>
						<path style="fill:#292C47;" d="M1879.175,1784.135c0,0-7.018,8.423-13.806,12.094c-6.788,3.672-17.455,5.126-21.469,8.926
							c-2.897,2.744-10.554,14.554,17.639,14.315s41.785,1.669,44.806-2.859c3.021-4.528-4.371-33.423-4.371-33.423
							S1895.298,1785.591,1879.175,1784.135z"/>
					</g>
				</g>
			</g>
			<g>
				<g>
					<g>
						<path style="fill:#424773;" d="M1735.226,1769.967c0,0,2.014,13.978,2.266,16.077c0.251,2.101,22.403-1.236,22.403-1.236
							l1.793-16.642C1761.688,1768.166,1737.994,1767.994,1735.226,1769.967z"/>
					</g>
				</g>
			</g>
			<g>
				<g>
					<g>
						<path style="fill:#292C47;" d="M1737.256,1784.267c0,0-7.019,8.422-13.807,12.094c-6.788,3.672-31.768,6.688-35.781,10.487
							c-2.898,2.743-7.717,13.786,31.951,12.754c28.183-0.733,41.785,1.668,44.806-2.86c3.021-4.527-4.37-33.422-4.37-33.422
							S1753.765,1785.887,1737.256,1784.267z"/>
					</g>
				</g>
			</g>
			<g>
				<g>
					<g>
						<path style="fill:#292C47;" d="M1948.592,1528.371c0,0-80.533,13.627-98.723,16.483
							c-18.188,2.857-116.813,27.399-129.146,34.876c-9.818,5.953,5.148,148.914,8.645,203.457h38.846l2.816-163.613
							c46.616,1.165,79.881-10.905,113.826-5.749c33.944,5.155,62.245,12.483,83.815-16.45
							C1968.671,1597.375,1969.471,1534.69,1948.592,1528.371z"/>
					</g>
				</g>
			</g>
			<g>
				<g>
					<g>
						<path style="fill:#292C47;" d="M1869.214,1783.32l37.856-2.341l3.689-161.405c20.068,0.501,26.947-0.771,43.187-2.741
							l30.564-71.046c-26.786,5.355-112.611,27.002-124.055,33.942C1850.638,1585.684,1865.718,1728.774,1869.214,1783.32z"/>
					</g>
				</g>
			</g>
			<g>
				<g>
					<g>
						<path style="fill:#EEA886;" d="M1911.52,1226.503c0,0-29.521-8.159-40.785,14.759c-11.263,22.918-6.156,66.364,8.723,70.451
							c14.879,4.088,36.274-0.619,42.45-14.883c6.178-14.264,11.104-34.532,9.626-47.657
							C1930.055,1236.048,1919.359,1229.639,1911.52,1226.503z"/>
					</g>
				</g>
			</g>
			<g>
				<g>
					<g>
						<path style="fill:#EEA886;" d="M1887.171,1307.14c0,0,0.324,17.43-1.598,21.144c-1.921,3.716,41.108,2.784,41.108,2.784
							s-6.781-20.93-2.934-38.762C1927.556,1274.658,1887.171,1307.14,1887.171,1307.14z"/>
					</g>
				</g>
			</g>
			<g>
				<g>
					<g>
						<path style="fill:#3A3F47;" d="M1926.065,1285.707c0,0-2.3,4.678-13.438,3.922c-11.139-0.755-25.829-14.191-30.558-15.392
							c-4.729-1.201-5.009-3.893-5.009-3.893l-2.503,4.448l-4.845,0.737c0,0,3.293-13.466-3.881-18.208
							c-7.174-4.742,3.23-42.934,39.549-33.723c0,0,27.718,5.076,28.09,20.554
							C1933.844,1259.631,1931.446,1277.51,1926.065,1285.707z"/>
					</g>
				</g>
			</g>
			<g>
				<g>
					<g>
						<path style="fill:#E2D2CA;" d="M1883.312,1327.837c0,0,0.12-7.099,3.338-7.78c3.219-0.681,33.825-4.891,37.774-3.338
							l1.695,9.375C1926.119,1326.094,1918.508,1330.777,1883.312,1327.837z"/>
					</g>
				</g>
			</g>
			<g>
				<g>
					<g>
						<path style="fill:#EEA886;" d="M1874.455,1267.171c0.826-5.818,7.441-12.502,11.23-3.438
							c3.788,9.063-2.558,22.262-6.809,21.554C1874.627,1284.578,1873.335,1275.066,1874.455,1267.171z"/>
					</g>
				</g>
			</g>
			<g>
				<g>
					<g>
						<path style="fill:#323657;" d="M1755.115,1411.717c0.016-0.007,0.032-0.009,0.054-0.005
							C1754.947,1411.809,1754.915,1411.818,1755.115,1411.717z"/>
					</g>
				</g>
			</g>
			<g>
				<g>
					<g>
						<path style="fill:#3A3F47;" d="M1920.131,1230.658c0,0,35.994-1.694,6.282,54.497L1920.131,1230.658z"/>
					</g>
				</g>
			</g>
			<g>
				<g>
					<polygon style="fill:#918783;" points="2000.331,1802.467 1997.653,1809.998 1884.516,1774.943 1889.938,1759.69 					"/>
				</g>
			</g>
			<g>
				<g>
					
						<rect x="1880.635" y="1646.572" transform="matrix(-1 -1.224647e-16 1.224647e-16 -1 3774.1289 3416.1482)" style="fill:#918783;" width="12.859" height="123.004"/>
				</g>
			</g>
			<g>
				<g>
					
						<rect x="1849.141" y="1640.036" transform="matrix(-1 -1.224647e-16 1.224647e-16 -1 3774.127 3287.3203)" style="fill:#5E5854;" width="75.846" height="7.248"/>
				</g>
			</g>
			<g>
				<g>
					<polygon style="fill:#918783;" points="1772.803,1802.467 1775.48,1809.998 1888.618,1774.943 1883.646,1758.732 					"/>
				</g>
			</g>
			<g>
				<g>
					<polygon style="fill:#918783;" points="1852.516,1809.192 1852.516,1817.955 1888.618,1774.943 1883.646,1758.732 					"/>
				</g>
			</g>
			<g>
				<g>
					<path style="fill:#BFB2AC;" d="M1762.229,1812.943c0,5.84,4.734,10.573,10.574,10.573c5.84,0,10.573-4.733,10.573-10.573
						s-4.733-10.573-10.573-10.573C1766.963,1802.37,1762.229,1807.104,1762.229,1812.943z"/>
				</g>
			</g>
			<g>
				<g>
					
						<ellipse transform="matrix(0.7071 -0.7071 0.7071 0.7071 -736.5213 1847.767)" style="fill:#BFB2AC;" cx="1862.191" cy="1812.943" rx="10.573" ry="10.573"/>
				</g>
			</g>
			<g>
				<g>
					
						<ellipse transform="matrix(0.9732 -0.2298 0.2298 0.9732 -363.0169 508.0777)" style="fill:#BFB2AC;" cx="2000.331" cy="1812.943" rx="10.573" ry="10.573"/>
				</g>
			</g>
			<g>
				<path style="fill:#E2D2CA;" d="M1810.278,1640.036h152.577c7.485,0,13.553-6.067,13.553-13.554v-0.348
					c0-7.485-6.067-13.554-13.553-13.554h-152.577c-7.484,0-13.553,6.068-13.553,13.554v0.348
					C1796.726,1633.969,1802.794,1640.036,1810.278,1640.036z"/>
			</g>
			<g>
				
					<rect x="1477.586" y="1497.208" transform="matrix(-1 -1.224647e-16 1.224647e-16 -1 2965.4199 3310.1514)" style="fill:#706865;" width="10.248" height="315.735"/>
			</g>
			<g>
				<path style="fill:#5F8BE3;" d="M1569.736,1430.679h238.783c7.467,0,13.52-6.054,13.52-13.521v-160.484
					c0-7.467-6.053-13.52-13.52-13.52h-238.783c-7.467,0-13.521,6.053-13.521,13.52v160.484
					C1556.216,1424.625,1562.27,1430.679,1569.736,1430.679z"/>
			</g>
			<g>
				
					<rect x="1566.627" y="1253.29" transform="matrix(-1 -1.224647e-16 1.224647e-16 -1 3378.2549 2654.5818)" style="fill:#F5F7FF;" width="245.001" height="148.002"/>
			</g>
			<g>
				<path style="fill:#2C4069;" d="M1634.098,1479.496v-3.337c0,0,4.691-20.756,37.875-20.756c33.185,0,32.514,24.093,32.514,24.093
					H1634.098z"/>
			</g>
			<g>
				<g>
					<path style="fill:#EEA886;" d="M1704.889,1458.486c0,0-7.209-0.559-9.852-2.153c-2.641-1.594-18.442-12.221-22.154-10.52
						c-3.712,1.701-28.413,9.268-27.555,12.88c0.857,3.612,3.143,3.265,4.885,2.625c1.743-0.64,19.68-4.404,21.263-3.77
						c0,0-17.618,6.427-17.689,11.116c-0.07,4.689,3.688,5.833,5.358,7.606c1.671,1.773,3.676,6.177,8.217,6.515
						c4.54,0.338,26.693-7.371,31.254-7.722c4.561-0.352,13.002,0.281,13.576-0.461
						C1712.765,1473.861,1704.889,1458.486,1704.889,1458.486z"/>
				</g>
			</g>
			<g>
				<g>
					<g>
						<path style="fill:#F75A5A;" d="M1836.132,1337.676c22.986-4.039,47.18-9.84,47.18-9.84l42.808-1.744
							c0,0,39.288,8.648,54.762,15.638c1.468,0.662,1.474,35.05,5.502,44.067l-12.829,27.063c0,0-7.409,53.61-8.947,77.453
							c-0.707,10.944,1.996,105.78,1.996,105.78s-3.846,1.899-33.063,5.118c-29.216,3.221-102.214-1.164-102.674-4.614
							c-0.462-3.452,14.137-128.491,14.783-134.968c0.991-9.938-2.871-55.861-2.871-55.861
							c-5.505,7.394-19.538,40.786-34.165,56.674c-8.605,9.347-51.21,15.076-59.24,15.344c-17.48,0.583-49.371,4.063-50.304,2.363
							c-0.744-1.021-2.778-28.307-0.779-28.973c1.751-0.584,60.968-3.992,76.14-12.043c5.549-2.944,22.142-39.125,22.142-39.125
							S1823.452,1343.375,1836.132,1337.676z"/>
					</g>
				</g>
			</g>
			<g>
				<path style="fill:#E2D2CA;" d="M1920.494,1593.353h71.866c14.372,0,26.022-11.651,26.022-26.023v-119.571
					c0-14.373-11.65-26.024-26.022-26.024h-71.866c-14.373,0-26.023,11.65-26.023,26.024v119.571
					C1894.471,1581.701,1906.121,1593.353,1920.494,1593.353z"/>
			</g>
			<g>
				<path style="fill:#E2D2CA;" d="M1916.428,1633.203c18.266,0,33.084-6.136,44.045-18.236
					c24.771-27.348,20.319-75.423,20.118-77.456c-0.377-3.789-3.759-6.559-7.541-6.181c-3.788,0.376-6.554,3.75-6.181,7.537
					c0.053,0.548,4,44.124-16.643,66.872c-8.35,9.202-19.405,13.675-33.799,13.675c-3.807,0-6.894,3.087-6.894,6.895
					C1909.534,1630.115,1912.621,1633.203,1916.428,1633.203z"/>
			</g>
		</g>
		<g>
			<g>
				<g>
					<g>
						<path style="fill:#EEA886;" d="M896.035,1425.756c0,0,3.047,2.913,4.1,5.633c0.833,2.152,3.619,5.001,4.938,6.628
							c1.318,1.627,6.237,9.239,6.939,11.357c0.287,0.865-0.093,6.849,0.685,8.547c0.779,1.699,2.783,4.954,1.266,5.564
							s-4.127-1.828-4.127-1.828s0.612,1.589-0.551,2.529c-2.261,1.827-3.942,1.095-3.942,1.095s-0.452,2.016-1.59,2.543
							c-2.508,1.165-4.114,0.41-4.114,0.41s-0.886,1.281-2.734,1.684c-2.363,0.516-3.929-1.281-3.929-1.281
							s-2.805,1.313-4.064,0.129c-1.259-1.185-1.532-2.703-2.247-3.877c-0.716-1.175-3.684-12.614-2.155-21.726
							c1.529-9.11-5.588-15.943-5.588-15.943L896.035,1425.756z"/>
					</g>
				</g>
			</g>
			<g>
				<path style="fill:#0E1E2B;" d="M921.185,1495.813h-39.342c-3.995,0-7.246-3.25-7.246-7.246v-24.809
					c0-3.995,3.251-7.246,7.246-7.246h39.342c3.995,0,7.246,3.251,7.246,7.246v24.809
					C928.431,1492.563,925.18,1495.813,921.185,1495.813z M881.843,1461.375c-1.314,0-2.384,1.068-2.384,2.383v24.809
					c0,1.314,1.069,2.384,2.384,2.384h39.342c1.314,0,2.384-1.069,2.384-2.384v-24.809c0-1.314-1.069-2.383-2.384-2.383H881.843z"/>
			</g>
			<g>
				<rect x="827.712" y="1485.164" style="fill:#595C59;" width="147.604" height="105.752"/>
			</g>
			<g>
				<path style="fill:#EEA886;" d="M838.819,1202.182c0,0-7.561,0.107-10.785,22.714c-3.225,22.606,2.886,32.056,3.614,41.463
					c0.728,9.407,11.765,70.167,12.064,72.854c0.299,2.687,1.78,35.021,6.083,43.601c4.303,8.581,35.936,57.216,36.359,59.645
					c0.423,2.429,15.36-8.473,15.36-8.473s-24.852-52.021-26.293-57.956c-1.441-5.936-11.443-36.243-9.862-45.496
					c1.581-9.252-4.429-60.288-3.848-65.969C862.092,1258.885,853.307,1205.631,838.819,1202.182z"/>
			</g>
			<g>
				<path style="fill:#384C9E;" d="M838.819,1202.182c0,0-7.561,0.107-10.785,22.714c-3.225,22.606-0.31,30.746,1.64,40.546
					c1.842,9.254,8.114,65.866,8.413,68.553c0.3,2.685,7.806,36.814,11.708,48.819c2.968,9.13,31.174,56.926,31.598,59.354
					c0.424,2.428,21.929-11.168,21.929-11.168s-27.579-53.807-29.019-59.742c-1.441-5.937-6.111-26.483-6.261-35.868
					c-0.177-11.025-7.112-65.145-6.53-70.825C862.092,1258.885,859.917,1209.912,838.819,1202.182z"/>
			</g>
			<path style="fill:#EDDAD3;" d="M775.569,1729.426c0,0,13.166,19.553,18.472,24.269c0,0,12.212,4.273,12.97,12.576
				c0.495,5.43,0.02,14.151-13.932,14.544c-13.952,0.394-22.905-4.478-25.46-12.928c-2.555-8.45-7.377-12.228-7.377-12.228v17.686
				h-3.144c0,0-0.786-17.096-0.983-20.24c-0.196-3.143-2.258-15.232,4.373-20.585
				C767.119,1727.166,775.569,1729.426,775.569,1729.426z"/>
			<path style="fill:#EDDAD3;" d="M864.882,1713.803c0,0,2.279,5.389,6.583,11.005c3.156,4.118,12.97,21.026,17.293,22.205
				c4.323,1.179,17.686,3.537,18.865,11.005c1.179,7.467,1.768,12.773-11.398,13.362c-13.167,0.59-21.813,1.375-28.101-7.86
				c-6.288-9.236-16.31-15.917-16.31-15.917v24.098h-5.109c0,0-2.358-25.08-3.734-26.849c-1.375-1.769-4.913-21.026,7.271-31.049
				C862.426,1703.781,864.882,1713.803,864.882,1713.803z"/>
			<path style="fill:#EEA886;" d="M766.726,1352.031c0,0-16.625,21.615-21.135,47.26c-4.509,25.645,2.663,111.715,2.467,124.391
				c-0.196,12.674-11.987,44.214-9.629,68.09c2.358,23.875,22.059,140.748,22.059,140.748l15.081-3.094c0,0-1.474-121.147,0-131.17
				c1.474-10.022,4.432-46.553,5.021-50.68c0.589-4.126,37.424-112.486,37.424-130.975
				C818.015,1398.112,806.813,1321.867,766.726,1352.031z"/>
			<path style="fill:#EEA886;" d="M850.242,1360.48c0,0,27.315,104.248,30.557,118.691c3.243,14.443,7.939,26.356,7.939,32.488
				c0,14.228-5.286,37.076-5.286,37.076l-18.57,165.066h-14.64c0,0-9.236-96.387-10.71-115.842
				c-1.474-19.454,10.611-49.52,7.664-57.773c-2.948-8.253-47.457-103.461-47.457-103.461S766.038,1330.219,850.242,1360.48z"/>
			<path style="fill:#EEA886;" d="M796.307,1754.695c0,0-11.471,5.893-21.886-1.89c-10.414-7.783-13.933-20.286-13.933-20.286
				l15.081-3.094L796.307,1754.695z"/>
			<path style="fill:#EEA886;" d="M888.758,1747.013c0,0-11.791,2.948-16.31,0c-4.52-2.947-19.885-28.919-24.975-30.475
				c0,0,4.931-10.006,17.41-2.735C864.882,1713.803,885.417,1742.689,888.758,1747.013z"/>
			<path style="fill:#1D3B54;" d="M885.2,1495.797c0,0-50.186,29.539-144.252,29.539c0,0-5.327-109.102,8.349-139.795
				c13.676-30.694,104.464-11.608,104.464-11.608S881.97,1473.228,885.2,1495.797z"/>
			<g>
				<path style="fill:#EDDAD3;" d="M816.635,1194.035c0,0,14.587,6.888,19.652,7.901c5.065,1.013,24.717,26.54,28.162,35.86
					c3.444,9.319,0,23.299-7.091,39.709c-7.091,16.411-0.405,21.882-3.647,38.292c-3.242,16.411-6.078,51.157-5.47,60.274
					c0.608,9.116-81.946,10.837-100.788-5.776c0,0,18.938-28.362,21.369-32.415c2.431-4.052,0.405-26.135-1.824-31.808
					c-2.228-5.673-17.061-53.914-17.061-53.914s-12.135-37.05-1.173-45.563c9.522-7.395,35.474-10.031,40.134-11.652
					C793.557,1193.323,807.112,1192.617,816.635,1194.035z"/>
			</g>
			<g>
				<path style="fill:#D6C5BE;" d="M821.294,1226.553l8.864-10.38l-7.697-27.327
					C822.461,1188.846,819.876,1204.063,821.294,1226.553z"/>
			</g>
			<g>
				<path style="fill:#EEA886;" d="M798.226,1090.506c8.668-3.05,40.52-10.535,48.016,30.188
					c7.497,40.723-14.993,69.694-35.658,61.996c-20.665-7.699-33.429-35.86-34.644-57.336
					C774.724,1103.877,787.285,1094.355,798.226,1090.506z"/>
			</g>
			<g>
				<path style="fill:#252E3B;" d="M846.242,1120.693c0,0,1.561-34.848-33.084-36.064c-34.645-1.215-43.964,27.309-41.128,48.097
					c2.836,20.788,17.177,31.754,17.177,31.754s-1.246-16.819,5.477-21.186c6.723-4.366,33.669-13.078,45.419-33.339
					C840.103,1109.955,845.549,1116.348,846.242,1120.693z"/>
			</g>
			<g>
				<path style="fill:#252E3B;" d="M803.046,1117.002c-4.564,13.877-18.098,21.893-30.228,17.902
					c-12.131-3.99-18.265-18.474-13.701-32.351c4.564-13.877,18.098-21.892,30.229-17.901
					C801.477,1088.642,807.61,1103.125,803.046,1117.002z"/>
			</g>
			<g>
				<path style="fill:#EEA886;" d="M823.597,1177.202c0,0-2.91,26.76-2.302,35.472c0,0-15.157,15.189-32.397-17.73
					c0,0,7.254-13.568,1.794-32.057C785.232,1144.397,823.597,1177.202,823.597,1177.202z"/>
			</g>
			<g>
				<polygon style="fill:#EEA886;" points="821.294,1212.674 821.294,1226.553 803.85,1213.517 				"/>
			</g>
			<g>
				<polygon style="fill:#D6C5BE;" points="821.294,1226.553 814.051,1217.587 789.654,1193.271 781.762,1200.873 				"/>
			</g>
			<g>
				<path style="fill:#384C9E;" d="M786.268,1195.598c0,0,20.474,31.072,21.452,44.747c0.978,13.675-7.609,115.974-14.485,148.857
					c-6.876,32.884-56.565-3.71-56.565-3.71s33.39-54.043,20.573-97.316c-12.816-43.272-17.475-60.574-17.475-60.574
					s4.41-24.098,20.037-27.488C773.506,1197.14,786.268,1195.598,786.268,1195.598z"/>
			</g>
			<g>
				<path style="fill:#384C9E;" d="M866.022,1241.938c0,0,3.468,13.077-10.919,41.96c0,0,0.229,36.965,0.634,48.513
					c0.405,11.548,3.141,55.209,3.141,55.209l-14.228,8.333c-2.866,1.679-6.414-0.649-6.015-3.946
					c4.029-33.232,17.137-159.292-11.177-193.176l11.362,3.351C838.819,1202.182,859.232,1218.69,866.022,1241.938z"/>
			</g>
			<g>
				<path style="fill:#EEA886;" d="M798.165,1135.929c-1.26-3.195-5.47-4.093-7.901-2.269c-2.432,1.823-3.85,7.293,0,14.385
					C794.113,1155.136,807.687,1160.079,798.165,1135.929z"/>
			</g>
			<g>
				<polygon style="fill:#FAE6DE;" points="830.158,1216.173 841.327,1219.259 822.461,1188.846 				"/>
			</g>
			<g>
				<polygon style="fill:#FAE6DE;" points="814.051,1217.587 803.85,1230.959 782.901,1196.045 789.654,1193.271 				"/>
			</g>
			<g>
				<path style="fill:#A77860;" d="M822.997,1183.092l-0.501,5.367c0,0-12.047,2.253-27.812-16.975
					C794.684,1171.484,805.857,1185.115,822.997,1183.092z"/>
			</g>
			<g>
				<g>
					<g>
						<path style="fill:#EEA886;" d="M884.99,1346.92c0,0,7.084,4.564,11.161,2.012c3.467-2.169,9.514-2.47,11.375-2.566
							c2.49-0.128,9.986-3.369,10.179-0.231c0.192,3.138-12.101,5.938-14.561,7.04c-2.461,1.103,8.373,6.392,9.593,8.918
							c1.219,2.526-8.56,19.975-15.575,15.483c-7.016-4.491-11.546-13.92-12.937-14.465c-1.391-0.545-5.233-3.066-5.233-3.066
							L884.99,1346.92z"/>
					</g>
				</g>
			</g>
			<g>
				<path style="fill:#EEA886;" d="M750.429,1204.986c0,0,9.834-2.442,18.343,6.675c8.51,9.117,12.764,24.109,14.993,28.972
					c2.229,4.862,30.39,49.84,32.011,50.854c1.621,1.013,30.238,24.106,43.204,36.465c12.967,12.359,38.241,26.139,38.241,26.139
					l-9.522,13.371c0,0-76.786-40.925-86.51-55.918c-9.725-14.992-48.549-56.527-48.549-56.527S729.46,1220.088,750.429,1204.986z"
					/>
			</g>
			<g>
				<g>
					<g>
						<path style="fill:#EEA886;" d="M911.347,1360.658c0,0,20.565,15.176,21.088,17.334c0.524,2.158-0.364,3.225-2.346,1.885
							c-1.982-1.338-20.294-14.087-20.294-14.087s21.321,22.052,22.137,23.726c0.478,0.98-1.119,3.146-2.247,2.527
							c-1.127-0.619-23.509-21.266-23.509-21.266s19.87,20.625,20.135,22.229c0.232,1.403-1.732,3.023-3.311,1.596
							c-1.579-1.429-21.103-19.529-21.103-19.529s13.518,15.921,12.942,17.41c-0.352,0.91-1.646,2.846-5.005-1.371
							c-3.36-4.218-12.331-13.334-12.331-13.334L911.347,1360.658z"/>
					</g>
				</g>
			</g>
			<path style="fill:#27356E;" d="M858.488,1276.651c0,0,0.679,46.145-2.137,68.401l-1.248-61.153L858.488,1276.651z"/>
			<g>
				<path style="fill:#384C9E;" d="M755.499,1201.601c0,0,5.601,0.943,14.11,10.06c8.509,9.117,12.764,24.109,14.992,28.972
					c2.229,4.862,30.39,49.84,32.011,50.854c1.621,1.013,25.071,17.117,38.038,29.476c12.966,12.358,37.1,27.123,37.1,27.123
					l-12.384,18.386c0,0-67.716-37.504-78.456-51.787c-11.472-15.256-52.374-60.049-52.374-60.049
					S722.021,1213.836,755.499,1201.601z"/>
			</g>
			<g>
				<g>
					<path style="fill:#DB9C7C;" d="M909.95,1460.49c0,0-2.641-10.27-5.943-11.802c-3.302-1.532-2.558,2.224-2.558,2.224
						s-0.671-3.727-3.744-3.52c-3.073,0.208-1.965,4.563-1.965,4.563s-1.279-2.692-4.196-1.381
						c-2.916,1.312-1.163,4.719-1.163,4.719s-3.942-2.81-4.89,1.02c-1.601,6.466,3.247,12.559,3.247,12.559s1.532,1.392,4.249-0.063
						c0,0,3.153,3.621,6.729-0.267c0,0,5.25,1.375,5.757-2.98C905.473,1465.563,911.402,1466.283,909.95,1460.49z"/>
				</g>
			</g>
			<path style="fill:#27356E;" d="M801.692,1325.486l-23.182-37.404c0,0,19.766,23.34,21.825,25.844
				c2.06,2.505,2.234,2.69,2.234,2.69S801.968,1324.212,801.692,1325.486z"/>
		</g>
		<g>
			<path style="fill:#EEA886;" d="M1081.253,1414.084c0,0,1.609,7.29,4.434,14.723c1.378,3.625,2.059,27.411,1.919,30.488
				c-0.117,2.58-1.83,1.055-2.703-0.646c-0.502-0.976-2.06-9.197-3.582-13.569c-1.277-3.671-2.38-5.043-3.027-3.854
				c-0.647,1.189-1.821,16.475-0.421,23.005c1.401,6.529-0.059,21.579-3.497,19.404s-11.482-29.392-10.805-39.642
				c0.676-10.249,4.34-23.098,4.34-23.098L1081.253,1414.084z"/>
			<g>
				<path style="fill:#F75A5A;" d="M1078.029,1427.863c0,0,11.217-74.588,14.194-88.762c1.349-6.424,5.056-22.393,7.405-35.511
					c0.776-4.321,1.427-8.771,1.981-13.128c0.003-0.01,0-0.017,0-0.017c2.204-17.396,2.767-33.266,2.767-33.266
					s9.729-44.573-18.395-47.319c0,0-7.537,2.351-7.979,5.447c-1.702,11.911-5.583,37.667-5.748,43.77
					c-0.134,4.957-7.41,54.969-7.516,56.738c-0.206,3.434-1.892,26.6-2.579,36.77c-1.605,23.748-2.21,76.86-2.21,76.86
					L1078.029,1427.863z"/>
			</g>
			<g>
				<path style="fill:#202338;" d="M1069.06,1745.781c0,0-10.857,12.121-21.88,14.661c-11.022,2.54-18.732,5.778-18.815,12.735
					c-0.083,6.955,31.72,11.539,44.334,4.526c18.825-10.466,20.739-7.311,22.826-12.542c2.087-5.232-2.507-19.221-2.371-20.885
					C1093.321,1742.222,1069.06,1745.781,1069.06,1745.781z"/>
			</g>
			<g>
				<path style="fill:#202338;" d="M1179.83,1748.941c0,0-7.986,11.809-18.67,14.531c-10.534,2.686-17.36,7.796-17.877,14.557
					c-0.516,6.761,24.836,15.613,42.648,3.738c11.704-7.803,16.069-7.359,18.427-12.316c2.358-4.958-1.234-18.852-0.998-20.463
					C1203.651,1747,1179.83,1748.941,1179.83,1748.941z"/>
			</g>
			<g>
				<path style="fill:#81807E;" d="M1070.281,1739.981c0,0-1.434,5.68-1.221,5.8c0.213,0.12,24.839,3.054,24.094-1.504
					c-0.604-3.695-1.466-7.712-1.466-7.712L1070.281,1739.981z"/>
			</g>
			<g>
				<path style="fill:#81807E;" d="M1180.156,1743.104c0,0-0.525,5.707-0.326,5.837c0.199,0.131,23.67,4.546,23.53,0.047
					c-0.111-3.572-1.488-8.017-1.488-8.017L1180.156,1743.104z"/>
			</g>
			<g>
				<path style="fill:#292C47;" d="M1092.671,1400.034c0,0-8.957,86.972-13.614,116.745c-5.445,34.813-7.292,63.575-8.81,81.594
					c-1.91,22.662-2.279,134.141-3.616,140.768c-1.337,6.626,29.665,1.83,29.665,1.83s15.251-145.66,20.94-169.796
					c5.298-22.473,24.959-119.228,29.793-113.091c4.833,6.137,10.827,112.91,14.407,130.635s14.468,156.485,14.468,156.485
					s24.673,4.913,31.236-0.642c0,0,2.987-119.584,0.706-152.814c-0.869-12.664,14.838-151.844-5.303-207.874
					C1191.899,1354.263,1092.671,1400.034,1092.671,1400.034z"/>
			</g>
			<g>
				<path style="fill:#D8D5E0;" d="M1246.166,1412.381c0,0-15.101,4.586-21.423,3.426c-6.332-1.161-3.128-78.756-3.377-94.902
					c-0.192-13.096-7.358-47.672-7.358-47.672s0,0.018-0.01,0.058c-0.01,0.009-0.01,0.028-0.01,0.038c0,0.02-0.01,0.039-0.01,0.058
					c-0.71,2.591-10.38,38.472-10.717,55.712c-0.354,17.893,2.332,86.334,2.332,86.334l-24.032,11.321l-83.102,2.389l-12.107,0.183
					c0,0,1.909-40.572,2.619-54.475c0.441-8.836,2.158-24.655,1.717-40.063c0,0,0.278-16.242-1.334-23.235
					c-0.172-30.874-2.043-61.449-2.043-61.449c-1.037-13.997-1.756-27.083-2.168-39.297c3.377-1.784,7.435-3.875,10.688-5.42
					c10.054-4.787,24.062-11.234,33.051-15.359c5.267-2.418,10.419-4.183,10.419-4.183s35.928-3.444,38.845-3.262
					c0.921,0.058,5.411,1.621,11.302,3.866c12.74,4.835,37.301,14.679,41.215,17.489c5.737,4.106,17.864,101.695,18.41,108.525
					C1250.062,1324.771,1246.166,1412.381,1246.166,1412.381z"/>
			</g>
			<g>
				<path style="fill:#EEA886;" d="M1177.963,1182.503c-2.64,24.215-29.529,24.215-29.529,24.215s-11.128-9.735-10.773-16.942
					c0.009-0.154,0.018-0.318,0.039-0.469c0.163-1.326,1.667-2.975,1.822-5.632c0.021-0.362,0.03-0.734,0.039-1.101
					c0.009-0.358,0.009-0.721,0.009-1.079c-0.009-1.839-0.114-3.656-0.221-4.921c-0.04-0.441-0.075-0.822-0.107-1.119
					c-0.044-0.446-0.075-0.702-0.075-0.702s4.337-4.567,9.842-10.01c9.624-9.515,22.862-21.708,22.884-16.862
					c0,0.257-0.04,0.565-0.114,0.92C1169.452,1159.717,1177.963,1182.503,1177.963,1182.503z"/>
			</g>
			<g>
				<path style="fill:#5D676C;" d="M1175.449,1382.488c0,0,2.177,13.728,2.366,17.305l4.612-0.92c0,0-1.271-14.523-2.018-16.958
					L1175.449,1382.488z"/>
			</g>
			<g>
				<path style="fill:#7F827F;" d="M1250.941,1462.429c0,0-1.41-19.245-6.557-22.159c-5.146-2.913-2.107,3.002-2.107,3.002
					s3.077,13.936,3.794,19.59C1246.106,1463.135,1250.941,1462.429,1250.941,1462.429z"/>
			</g>
			<g>
				<g>
					<polygon style="fill:#7F827F;" points="1200.092,1476.015 1267.914,1455.665 1268.977,1539.556 1201.803,1581.2 					"/>
				</g>
			</g>
			<g>
				<polygon style="fill:#7F827F;" points="1201.803,1581.2 1210.36,1582.647 1275.673,1540.653 1273.58,1455.967 
					1267.914,1455.665 				"/>
			</g>
			<path style="fill:#B4B1BA;" d="M1159.627,1196.757l-11.193,9.96c0,0,12.92-0.858,15.335-3.011L1159.627,1196.757z"/>
			<path style="fill:#292C47;" d="M1088.658,1416.279c0,0,52.58,4.478,98.631,0v15.11c0,0-69.159,9.987-100.937-2.882
				L1088.658,1416.279z"/>
			<g>
				<path style="fill:#F75A5A;" d="M1128.882,1190.025c-2.907,1.333-6.342,2.906-9.988,4.595
					c-7.646,3.531-16.261,7.531-23.063,10.765c-3.607,1.717-8.073,3.736-11.526,5.194c0.403,12.415,1.005,25.731,2.061,39.987
					c0,0,0.995,34.817,2.999,67.844c0.682,4.729,1.027,9.564,0.643,14.515c-0.499,6.457-1.199,13.509-2.043,20.867
					c-0.01,0.096-0.019,0.192-0.029,0.278c-0.201,1.746-0.412,3.502-0.623,5.276c0,0.028-0.01,0.048-0.01,0.076
					c-4.471,36.793-12.041,79.006-15.993,91.775c-0.834,2.667,2.043,5.132,4.097,7.032l14.381,9.066c0,0,5.929-54.579,7.896-73.104
					c1.9-17.883,7.876-41.858,10.496-65.219v-0.01c3.319-29.636,7.89-58.673,10.355-75.923c6.418-44.908,14.97-65.003,14.97-65.003
					L1128.882,1190.025z"/>
			</g>
			<g>
				<path style="fill:#F75A5A;" d="M1220.269,1321.639c1.114,14.984-5.225,97.896,1.101,99.063
					c6.325,1.16,29.572-3.948,29.572-3.948s2.915-89.411,1.981-98.783c-0.681-6.823-11.542-109.151-17.276-113.261
					c-3.31-2.377-27.853-11.076-39.895-15.822c-2.201-0.869-4.333-1.697-6.305-2.445c-2.555,2.844-29.646,52.962-31.761,93.689
					c-0.645,12.399,2.26,38.574,4.471,59.961c2.358,22.814,4.97,40.622,6.883,59.701c3.771,37.593,6.409,67.504,6.409,67.504
					l37.412-16.656c6.054-3.029,14.438-15.456,12.161-21.832c-8.649-24.224-19.54-65.612-19.552-86.869
					c0,0,4.173-52.051,7.48-63.492C1212.951,1278.447,1218.852,1302.587,1220.269,1321.639z"/>
			</g>
			<g>
				<path style="fill:#EEA886;" d="M1227.239,1419.723c0,0-1.85,8.355-4.341,16.72c-2.49,8.365-4.859,11.055-3.738,15.81
					c0.847,3.588,4.961,6.229,5.972,5.06c1.011-1.171,1.298-15.177,7.099-15.199c5.801-0.024-1.474,17.362,1.96,16.042
					c3.434-1.32,16.615-8.801,15.673-15.845c-0.942-7.044-6.336-12.063-6.153-22.607c0.167-9.568-2.873-13.517-2.873-13.517
					L1227.239,1419.723z"/>
			</g>
			<g>
				<g>
					<path style="fill:#7F827F;" d="M1231.649,1441.533c0,0-7.693,2.09-6.842,28.211l8.725-1.592c0,0-0.378-14.44,2.115-22.347
						C1235.646,1445.806,1235.124,1440.701,1231.649,1441.533z"/>
				</g>
			</g>
			<g>
				<path style="fill:#F75A5A;" d="M1219.283,1363.554l0.383,65.892c0,0,13.15-0.585,31.275-7.278l1.257-92.919L1219.283,1363.554z"
					/>
			</g>
			<path style="fill:#D8D5E0;" d="M1136.202,1198.516c0,0-0.96,13.751,10.673,14.07c11.632,0.32,20.866-10.85,20.866-10.85
				l-19.308,4.98l-11.752-9.96L1136.202,1198.516z"/>
			<path style="fill:#EAE6F2;" d="M1176.408,1177.973c0,0-11.025,14.147-16.781,18.784l9.434,15.829l16.273-27.68L1176.408,1177.973
				z"/>
			<path style="fill:#B4B1BA;" d="M1138.48,1199.355l9.953,7.361c0,0-8.742-15.945-8.915-23.045L1138.48,1199.355z"/>
			<polygon style="fill:#EAE6F2;" points="1139.519,1183.672 1133.13,1188.188 1126.008,1209.429 1138.48,1199.355 			"/>
			<path style="fill:#963737;" d="M1088.032,1293.496c0,0,2.828,24.515,1.336,46.887c-1.493,22.371-7.607,58.142-7.607,58.142
				S1081.704,1320.029,1088.032,1293.496z"/>
			<g>
				<path style="fill:#EEA886;" d="M1107.855,1112.788c0,0-7.019,17.082-2.434,19.142c3.789,1.701-2.297,18.381-3.04,21.08
					c-0.742,2.698,6.939,3.795,8.703,5.296c1.764,1.501,8.635,21.532,14.862,21.504c6.229-0.029,32.981-12.605,39.716-21.263
					c6.735-8.656,9.205-44.819,2.583-59.267C1161.625,1084.832,1120.275,1082.931,1107.855,1112.788z"/>
			</g>
			<g>
				<path style="fill:#323657;" d="M1106.484,1116.474c0,0-10.737-16.523,4.069-31.173c14.806-14.652,47.008,4.944,50.458,5.458
					c3.451,0.514,23.679,4.836,16.952,35.61c-5.989,27.404-6.563,28.122-6.563,28.122s-8.033-14.489-11.797-16.66
					c-5.875-3.389-17.744-1.179-17.744-1.179s4.111-15.741-5.027-16.948C1127.693,1118.497,1115.149,1112.178,1106.484,1116.474z"/>
			</g>
			<g>
				<path style="fill:#EEA886;" d="M1150.442,1126.983c0.567-2.159,2.17-11.354,10.382-6.916c8.211,4.437-2.453,22.567-3.766,22.925
					C1155.746,1143.35,1145.665,1145.156,1150.442,1126.983z"/>
			</g>
			<path style="fill:#A77860;" d="M1164.603,1159.778c-0.187,0.464-6.296,15.306-25.042,22.796c0.009-0.358,0.009-0.721,0.009-1.079
				c-0.009-1.839-0.114-3.656-0.221-4.921c-0.04-0.441-0.075-0.822-0.107-1.119
				C1139.242,1175.455,1159.381,1165.99,1164.603,1159.778z"/>
		</g>
		<polygon style="fill:#FFCE55;" points="1365.391,864.179 1152.956,864.179 1152.956,1023.646 1152.956,1057.234 
			1185.388,1023.646 1365.391,1023.646 		"/>
		<polygon style="fill:#FFCE55;" points="488.952,864.179 701.387,864.179 701.387,1023.646 701.387,1057.234 668.956,1023.646 
			488.952,1023.646 		"/>
		<g>
			<g>
				<path style="fill:#FFFFFF;" d="M1256.652,996.604c-4.342-0.329-8.378-1.944-11.494-4.624c-3.534-3.039-5.473-7.08-5.464-11.384
					c-0.599-8.473-3.238-17.228-5.415-23.229c-10.373-8.273-15.957-21.051-14.953-34.279c1.666-21.972,20.896-38.492,42.868-36.826
					c21.973,1.666,38.493,20.896,36.827,42.869c-0.907,11.962-7.037,22.738-16.846,29.648c-2.981,8.107-4.772,15.529-5.322,22.066
					c-0.1,8.798-8.467,15.889-18.687,15.82C1257.658,996.663,1257.153,996.643,1256.652,996.604z M1261.947,889.522
					c-20.174-1.529-37.832,13.64-39.361,33.813c-0.933,12.291,4.329,24.158,14.074,31.746l0.369,0.287l0.161,0.439
					c2.283,6.22,5.138,15.541,5.771,24.622l0.004,0.124c-0.023,3.352,1.514,6.53,4.325,8.948c2.89,2.484,6.762,3.87,10.898,3.896
					c8.442,0.057,15.349-5.612,15.396-12.638l0.001-0.063l0.005-0.062c0.58-6.978,2.498-14.876,5.699-23.475l0.18-0.486l0.428-0.292
					c9.237-6.333,15.02-16.356,15.865-27.498C1297.291,908.71,1282.122,891.052,1261.947,889.522z"/>
			</g>
			<g>
				<polygon style="fill:#FFFFFF;" points="1249.244,982.977 1244.01,939.426 1253.09,946.938 1258.721,940.689 1263.588,946.551 
					1272.072,939.361 1266.912,982.98 1263.666,982.597 1267.85,947.224 1263.182,951.18 1258.619,945.685 1253.421,951.454 
					1248.232,947.162 1252.49,982.586 				"/>
			</g>
			<g>
				
					<rect x="1243.956" y="992.68" transform="matrix(1 0.0067 -0.0067 1 6.735 -8.4288)" style="fill:#FFFFFF;" width="28.345" height="11.422"/>
			</g>
			<g>
				
					<rect x="1239.453" y="981.011" transform="matrix(1 0.0067 -0.0067 1 6.6896 -8.4414)" style="fill:#FFFFFF;" width="37.461" height="18.387"/>
			</g>
		</g>
		<g>
			<path style="fill:#FFFFFF;" d="M621.371,922.089c-0.788-0.88-1.95-1.829-3.483-2.845c-1.535-1.015-3.31-1.988-5.328-2.917
				c-2.019-0.929-4.234-1.727-6.648-2.393c-2.416-0.667-4.896-1.091-7.442-1.276l-0.089,27.281l2.502,0.536
				c4.741,1.157,9.02,2.446,12.837,3.863c3.817,1.419,7.041,3.143,9.67,5.172c2.629,2.031,4.664,4.519,6.104,7.467
				c1.44,2.949,2.153,6.53,2.139,10.748c-0.015,4.658-0.864,8.63-2.543,11.919c-1.681,3.29-3.996,6.029-6.946,8.215
				c-2.952,2.188-6.384,3.823-10.296,4.908c-3.914,1.085-8.11,1.664-12.592,1.738l-0.045,13.839l-6.853-0.022l0.046-14.102
				c-6.325-0.461-12.34-1.731-18.043-3.815c-5.706-2.082-10.923-4.979-15.656-8.684l6.763-12.631
				c0.962,1.058,2.365,2.205,4.206,3.44c1.841,1.238,3.989,2.431,6.446,3.58c2.455,1.15,5.154,2.17,8.096,3.057
				c2.94,0.889,5.992,1.515,9.153,1.875l0.089-27.281c-0.527-0.176-1.076-0.333-1.646-0.466c-0.572-0.134-1.119-0.288-1.646-0.467
				c-4.654-1.245-8.713-2.553-12.178-3.928c-3.467-1.372-6.339-3.029-8.616-4.971c-2.28-1.939-4.006-4.208-5.184-6.805
				c-1.178-2.594-1.76-5.738-1.748-9.429c0.014-4.304,0.772-8.124,2.278-11.459c1.504-3.333,3.622-6.203,6.354-8.612
				c2.73-2.406,5.922-4.285,9.574-5.636c3.649-1.349,7.672-2.192,12.068-2.53l0.043-13.312l6.854,0.022l-0.044,13.312
				c5.71,0.371,10.977,1.531,15.804,3.479c4.825,1.949,9.08,4.292,12.761,7.026L621.371,922.089z M577.868,925.373
				c-0.012,3.69,1.274,6.461,3.86,8.315c2.585,1.854,6.513,3.493,11.78,4.915l0.085-25.963c-5.361,0.246-9.319,1.485-11.874,3.717
				C579.163,918.59,577.88,921.597,577.868,925.373z M615.813,969.253c0.013-3.865-1.516-6.792-4.584-8.779
				c-3.07-1.987-7.368-3.78-12.898-5.38l-0.086,26.095c5.623-0.068,9.955-1.108,12.992-3.12
				C614.275,976.058,615.801,973.121,615.813,969.253z"/>
		</g>
		<g>
			<polygon style="fill:#FFCE55;" points="1312.473,280.203 1264.725,252.636 1264.725,270.813 1193.74,270.813 1193.74,289.594 
				1264.725,289.594 1264.725,307.77 			"/>
			<polygon style="fill:#FFCE55;" points="1193.74,219.735 1241.488,247.303 1241.488,229.126 1312.473,229.126 1312.473,210.345 
				1241.488,210.345 1241.488,192.169 			"/>
		</g>
		<g>
			<g>
				<path style="fill:#FFCE55;" d="M1877.08,532.5c-5.818-0.442-11.225-2.605-15.399-6.195c-4.735-4.072-7.333-9.486-7.32-15.252
					c-0.804-11.352-4.34-23.082-7.256-31.121c-13.897-11.085-21.379-28.205-20.035-45.928c2.232-29.439,27.998-51.572,57.436-49.341
					c29.439,2.233,51.572,27.998,49.34,57.437c-1.215,16.026-9.429,30.465-22.57,39.723c-3.994,10.863-6.393,20.807-7.131,29.565
					c-0.133,11.787-11.343,21.287-25.035,21.196C1878.428,532.579,1877.752,532.551,1877.08,532.5z M1884.175,389.031
					c-27.03-2.049-50.688,18.273-52.737,45.304c-1.249,16.467,5.801,32.367,18.856,42.533l0.495,0.385l0.215,0.588
					c3.061,8.334,6.885,20.822,7.731,32.987l0.005,0.167c-0.029,4.491,2.029,8.748,5.796,11.989
					c3.871,3.329,9.058,5.185,14.602,5.219c11.311,0.075,20.564-7.52,20.627-16.932v-0.083l0.008-0.083
					c0.776-9.35,3.346-19.931,7.634-31.452l0.242-0.65l0.573-0.392c12.376-8.484,20.124-21.913,21.256-36.842
					C1931.528,414.738,1911.205,391.081,1884.175,389.031z"/>
			</g>
			<g>
				<polygon style="fill:#FFCE55;" points="1867.154,514.241 1860.142,455.892 1872.307,465.956 1879.852,457.585 1886.371,465.438 
					1897.74,455.806 1890.827,514.247 1886.478,513.732 1892.082,466.34 1885.828,471.64 1879.716,464.279 1872.75,472.007 
					1865.799,466.257 1871.503,513.718 				"/>
			</g>
			<g>
				
					<rect x="1860.069" y="527.241" transform="matrix(1 0.0067 -0.0067 1 3.6398 -12.625)" style="fill:#FFCE55;" width="37.977" height="15.304"/>
			</g>
			<g>
				
					<rect x="1854.036" y="511.609" transform="matrix(1 0.0067 -0.0067 1 3.5591 -12.6017)" style="fill:#FFCE55;" width="50.19" height="24.635"/>
			</g>
		</g>
		<g>
			<path style="fill:#FFCE55;" d="M1649.896,220.774c-0.379-1.119-1.076-2.447-2.088-3.984c-1.014-1.535-2.265-3.127-3.756-4.773
				c-1.492-1.648-3.217-3.251-5.175-4.811c-1.96-1.561-4.075-2.925-6.345-4.095l-10.787,25.058l2.091,1.475
				c3.906,2.926,7.336,5.79,10.291,8.592c2.954,2.803,5.243,5.654,6.865,8.552c1.622,2.899,2.517,5.987,2.685,9.263
				c0.167,3.278-0.583,6.852-2.25,10.725c-1.842,4.279-4.182,7.599-7.017,9.966c-2.837,2.365-6.042,3.977-9.612,4.829
				c-3.574,0.853-7.372,1.012-11.396,0.475c-4.026-0.538-8.113-1.652-12.265-3.343l-5.472,12.711l-6.295-2.71l5.576-12.953
				c-5.636-2.906-10.671-6.435-15.099-10.59c-4.431-4.154-8.093-8.865-10.992-14.131l11.177-8.963c0.47,1.35,1.311,2.956,2.52,4.814
				c1.207,1.861,2.715,3.801,4.524,5.822c1.806,2.022,3.888,4.02,6.245,5.989c2.356,1.972,4.917,3.745,7.685,5.317l10.787-25.059
				c-0.415-0.369-0.858-0.727-1.331-1.075c-0.473-0.347-0.916-0.704-1.33-1.075c-3.792-2.971-7.012-5.767-9.66-8.392
				c-2.651-2.623-4.642-5.273-5.975-7.953c-1.336-2.678-2.033-5.442-2.098-8.293c-0.064-2.848,0.633-5.969,2.093-9.358
				c1.701-3.953,3.897-7.169,6.592-9.645c2.69-2.476,5.765-4.284,9.224-5.428c3.456-1.143,7.128-1.617,11.018-1.427
				c3.886,0.191,7.917,0.993,12.093,2.408l5.263-12.227l6.296,2.71l-5.265,12.227c5.107,2.581,9.497,5.716,13.172,9.401
				c3.673,3.686,6.667,7.511,8.981,11.471L1649.896,220.774z M1608.594,206.724c-1.459,3.389-1.363,6.443,0.288,9.163
				c1.649,2.72,4.619,5.769,8.905,9.143l10.268-23.847c-5.027-1.878-9.154-2.292-12.381-1.241
				C1612.446,200.992,1610.088,203.254,1608.594,206.724z M1626.275,261.974c1.529-3.55,1.271-6.842-0.771-9.874
				c-2.043-3.033-5.293-6.369-9.752-10.011l-10.318,23.969c5.197,2.144,9.59,2.887,13.174,2.229
				C1622.19,267.63,1624.746,265.526,1626.275,261.974z"/>
		</g>
		<g>
			
				<ellipse transform="matrix(0.7071 -0.7071 0.7071 0.7071 -877.5656 748.5485)" style="fill:#F8BB66;" cx="464.795" cy="1433.59" rx="202.413" ry="202.413"/>
			<path style="fill:#F8BB66;" d="M511.599,1630.52l-69.839-398.03c105.653-12.205,203.785,60.004,222.403,166.118
				C682.783,1504.723,615.096,1606.026,511.599,1630.52z"/>
			<path style="fill:#F8BB66;" d="M265.43,1468.57c-16.376-93.328,34.003-182.93,116.788-219.835l67.865,386.778
				C359.68,1628.997,281.806,1561.898,265.43,1468.57z"/>
			
				<ellipse transform="matrix(0.7071 -0.7071 0.7071 0.7071 -877.5654 748.5484)" style="fill:#F89829;" cx="464.795" cy="1433.589" rx="153.842" ry="153.841"/>
			<g>
				<path style="fill:#F8C681;" d="M471.936,1380.193c-1.999-0.239-4.556-0.147-7.663,0.277c-3.107,0.429-6.477,1.181-10.106,2.261
					c-3.631,1.082-7.366,2.554-11.207,4.415c-3.844,1.864-7.497,4.112-10.967,6.741l30.587,35.038l3.807-2.131
					c7.375-3.852,14.305-7.018,20.788-9.499c6.486-2.479,12.554-3.898,18.204-4.259c5.652-0.358,11.059,0.538,16.22,2.692
					c5.163,2.156,10.107,5.941,14.836,11.357c5.223,5.982,8.605,12.024,10.157,18.126c1.549,6.104,1.667,12.218,0.349,18.337
					c-1.318,6.123-3.872,12.081-7.661,17.873c-3.792,5.794-8.515,11.259-14.17,16.397l15.515,17.773l-8.802,7.683l-15.811-18.111
					c-8.619,6.526-17.751,11.67-27.4,15.42c-9.65,3.754-19.59,5.916-29.821,6.497l-5.553-23.786c2.422,0.271,5.51,0.162,9.258-0.327
					c3.75-0.487,7.844-1.376,12.284-2.671c4.44-1.288,9.043-3.018,13.809-5.193c4.765-2.17,9.378-4.804,13.832-7.9l-30.587-35.037
					c-0.873,0.365-1.753,0.783-2.633,1.254c-0.883,0.473-1.758,0.891-2.633,1.254c-7.361,3.645-14.031,6.536-20.016,8.676
					c-5.985,2.145-11.527,3.254-16.628,3.331c-5.102,0.082-9.866-0.881-14.296-2.881c-4.428-1.997-8.713-5.368-12.85-10.108
					c-4.826-5.527-8.153-11.271-9.978-17.237c-1.825-5.962-2.343-12.021-1.554-18.18c0.788-6.155,2.762-12.152,5.918-17.992
					c3.155-5.834,7.357-11.441,12.607-16.82l-14.924-17.096l8.802-7.684l14.924,17.095c7.728-5.95,15.781-10.393,24.154-13.331
					c8.372-2.932,16.458-4.721,24.25-5.361L471.936,1380.193z M419.921,1433.357c4.137,4.739,8.904,6.842,14.303,6.305
					c5.396-0.535,12.271-2.855,20.616-6.963l-29.109-33.345c-6.589,6.349-10.263,12.39-11.022,18.123
					C413.945,1423.213,415.686,1428.507,419.921,1433.357z M517.896,1446.85c-4.334-4.965-9.585-6.993-15.751-6.085
					c-6.168,0.91-13.69,3.45-22.572,7.626l29.257,33.514c7.124-6.414,11.501-12.621,13.126-18.616
					C523.585,1457.295,522.232,1451.816,517.896,1446.85z"/>
			</g>
			<path style="fill:#F8F8F8;" d="M543.323,1620.193c85.184-35.757,137.479-126.746,120.839-221.585
				c-16.641-94.839-96.789-162.589-189.058-167.21L543.323,1620.193z"/>
			<path style="fill:#F8F8F8;" d="M450.083,1635.514l-67.865-386.778c14.882-6.636,30.816-11.568,47.597-14.513
				c3.992-0.7,7.973-1.278,11.945-1.733l69.839,398.03c-3.889,0.924-7.83,1.736-11.821,2.437
				C482.997,1635.9,466.336,1636.688,450.083,1635.514z"/>
			<g>
				<g>
					<g>
						<g>
							<g>
								<path style="fill:#EEA886;" d="M485.324,1228.521c0,0,0.172,2.883-0.367,4.18c0,0-1.163,2.285-1.891,3.959
									c-0.229,0.532-0.418,1.002-0.507,1.316c-0.376,1.318-0.807,4.322-2.598,7.234c-1.788,2.908-12.732,13.473-12.732,13.473
									l-7.389-4.295l-7.492-3.033c0,0,0.192-20.919,1.545-23.822c0.134-0.284,0.276-0.559,0.43-0.806
									c1.384-2.348,3.401-3.513,4.267-4.662c0.321-0.42,3.791-4.382,5.365-4.337c2.184,0.059,3.673,0.985,4.462,2.258
									c0,0,4.271,0.304,6.365,2.285c0,0,3.949,0.153,5.852,3.359C480.636,1225.631,484.625,1226.236,485.324,1228.521z"/>
							</g>
						</g>
					</g>
				</g>
			</g>
			<g>
				<path style="fill:#424773;" d="M254.086,1716.926c0,0-2.004,13.915-2.255,16.006c-0.251,2.09-22.302-1.231-22.302-1.231
					l-1.786-16.567C227.744,1715.133,251.33,1714.962,254.086,1716.926z"/>
			</g>
			<g>
				<path style="fill:#292C47;" d="M252.066,1731.162c0,0,6.987,8.385,13.744,12.04c6.758,3.655,17.377,5.102,21.372,8.886
					c2.885,2.732,10.506,14.488-17.559,14.251c-28.066-0.237-41.598,1.66-44.605-2.847c-3.007-4.508,4.351-33.272,4.351-33.272
					S236.017,1732.611,252.066,1731.162z"/>
			</g>
			<g>
				<path style="fill:#424773;" d="M412.089,1716.926c0,0-2.005,13.915-2.255,16.006c-0.251,2.09-22.302-1.231-22.302-1.231
					l-1.786-16.567C385.746,1715.133,409.333,1714.962,412.089,1716.926z"/>
			</g>
			<g>
				<path style="fill:#292C47;" d="M410.068,1731.162c0,0,6.987,8.385,13.745,12.04c6.757,3.655,31.625,6.657,35.621,10.44
					c2.885,2.731,7.682,13.725-31.808,12.696c-28.056-0.73-41.597,1.66-44.604-2.847c-3.007-4.508,4.351-33.272,4.351-33.272
					S393.634,1732.774,410.068,1731.162z"/>
			</g>
			<g>
				<path style="fill:#292C47;" d="M272.347,1359.355c0,0-20.72,32.921-19.174,62.678c1.546,29.758-7.513,62.247-10.626,93.333
					c-3.47,34.655-17.67,116.697-18.186,135.235c-0.515,18.537,2.204,77.731,2.204,77.731l28.427,0.651
					c0,0,23.874-143.431,30.058-158.066c6.183-14.635,36.847-118.97,37.877-130.678
					C323.957,1428.532,272.347,1359.355,272.347,1359.355z"/>
			</g>
			<g>
				<path style="fill:#292C47;" d="M381.422,1363.816c0,0,8.737,39.615,10.798,57.829c2.061,18.214,10.313,130.083,11.343,141.467
					c1.031,11.384,6.871,148.959,12.367,165.871h-36.341c0,0-27.897-100.013-27.897-147.332c0-47.32-21.552-102.873-35.464-134.094
					c-13.912-31.222-45.757-31.96-54.309-89.887C261.919,1357.671,369.844,1345.444,381.422,1363.816z"/>
			</g>
			<g>
				<path style="fill:#EEA886;" d="M306.923,1082.582c0,0,27.811-10.388,40.635,10.783c12.824,21.17,11.588,63.553-2.431,68.765
					c-14.019,5.212-35.077,2.487-42.254-10.76c-7.177-13.247-13.657-32.399-13.346-45.197
					C289.839,1093.375,299.621,1086.277,306.923,1082.582z"/>
			</g>
			<g>
				<path style="fill:#EEA886;" d="M342.108,1163.1c0,0-1.157,7.509,0.755,11.208c1.913,3.698-36.031,3.795-36.031,3.795
					s-3.081-20.119-8.92-37.118C292.073,1123.984,342.108,1163.1,342.108,1163.1z"/>
			</g>
			<g>
				<path style="fill:#3A3F47;" d="M297.913,1140.984c0,0,2.619,4.32,13.309,2.644c10.69-1.676,23.732-15.899,28.195-17.46
					c4.464-1.561,4.506-4.184,4.506-4.184l2.794,4.082l4.741,0.299c0,0-4.324-12.722,2.199-17.91
					c6.523-5.189-6.77-41.18-41.054-29.197c0,0-26.331,7.258-25.374,22.233C288.186,1116.467,292.021,1133.525,297.913,1140.984z"/>
			</g>
			<g>
				<path style="fill:#E2D2CA;" d="M345.116,1173.862c0,0-0.12-7.067-3.323-7.745c-3.204-0.678-35.36-3.769-39.292-2.224v8.232
					C302.501,1172.126,310.077,1176.789,345.116,1173.862z"/>
			</g>
			<g>
				<path style="fill:#EEA886;" d="M343.214,1116.538c-0.6-2.512-6.987-9.69-9.433-2.005c-2.446,7.686,3.695,18.023,7.121,17.139
					C344.327,1130.787,344.734,1122.906,343.214,1116.538z"/>
			</g>
			<g>
				<path style="fill:#323657;" d="M472.736,1257.365c-0.015-0.007-0.032-0.009-0.053-0.005
					C472.904,1257.457,472.936,1257.466,472.736,1257.365z"/>
			</g>
			<g>
				<path style="fill:#384C9E;" d="M253.093,1418.941c0,0,17.449,10.869,46.534,14.075c29.085,3.206,92.136-7.937,92.594-11.371
					c0.46-3.437-11.203-88.617-10.288-95.031c0.916-6.411-1.353-52.794-1.353-52.794c0.359,6.26,10.173,35.805,17.872,49.745
					c2.781,5.036,12.113,20.821,16.61,17.231c21.771-17.383,54.012-79.189,56.148-79.741c-1.797-0.781-17.506-17.844-19.496-18.507
					c-1.742-0.581-14.447,22.887-23.964,33.194c-4.243,4.596-7.255,7.934-7.255,7.934c-2.748-6.183-15.141-43.419-18.73-56.779
					c-8.68-32.311-11.034-34.301-11.034-34.301c-2.003-7.706-45.615-18.735-45.615-18.735l-42.616-1.736
					c0,0-39.111,8.609-54.515,15.567c-1.462,0.659-1.468,34.892-5.478,43.869l12.771,26.941c0,0,1.665,52.498,3.195,76.234
					C259.177,1345.633,253.093,1418.941,253.093,1418.941z"/>
			</g>
			<g>
				<path style="fill:#384C9E;" d="M237.39,1284.851c1.239,4,4.366,11.959,8.021,13.437c2.341,0.947,9.036,1.224,12.048,1.083
					l3.006-0.528l0,0l31.85-9.554c0,0,7.117-81.959-44.433-101.597C246.52,1188.139,226.005,1248.154,237.39,1284.851z"/>
			</g>
			<g>
				<path style="fill:#1C264F;" d="M420.495,1283.677l3.631,22.227c0,0,3.811-22.279,3.624-30.16
					C423.507,1280.339,420.495,1283.677,420.495,1283.677z"/>
			</g>
			<g>
				<path style="fill:#3A3F47;" d="M299.003,1085.08c0,0-32.948,7.071-0.623,56.678L299.003,1085.08z"/>
			</g>
		</g>
	</g>
</g>
</svg>
