<?xml version="1.0" encoding="utf-8"?>
<!-- Generator: Adobe Illustrator 27.5.0, SVG Export Plug-In . SVG Version: 6.00 Build 0)  -->
<svg version="1.1" xmlns="http://www.w3.org/2000/svg" xmlns:xlink="http://www.w3.org/1999/xlink" x="0px" y="0px"
	 viewBox="0 0 500 500" style="enable-background:new 0 0 500 500;" xml:space="preserve">
<g id="Background_Complete">
	<g>
		<rect y="382.398" style="fill:#EBEBEB;" width="500" height="0.25"/>
		<rect x="416.779" y="398.494" style="fill:#EBEBEB;" width="33.122" height="0.25"/>
		<rect x="322.527" y="401.208" style="fill:#EBEBEB;" width="8.693" height="0.25"/>
		<rect x="396.586" y="389.208" style="fill:#EBEBEB;" width="19.192" height="0.25"/>
		<rect x="52.459" y="390.888" style="fill:#EBEBEB;" width="43.193" height="0.25"/>
		<rect x="104.556" y="390.888" style="fill:#EBEBEB;" width="6.333" height="0.25"/>
		<rect x="131.471" y="395.111" style="fill:#EBEBEB;" width="93.676" height="0.25"/>
		<path style="fill:#EBEBEB;" d="M237.014,337.8H43.915c-3.147,0-5.708-2.561-5.708-5.708V60.66c0-3.147,2.561-5.708,5.708-5.708
			h193.099c3.146,0,5.707,2.561,5.707,5.708v271.432C242.721,335.239,240.16,337.8,237.014,337.8z M43.915,55.203
			c-3.01,0-5.458,2.448-5.458,5.458v271.432c0,3.01,2.448,5.458,5.458,5.458h193.099c3.009,0,5.457-2.448,5.457-5.458V60.66
			c0-3.009-2.448-5.458-5.457-5.458H43.915z"/>
		<path style="fill:#EBEBEB;" d="M453.31,337.8H260.212c-3.147,0-5.707-2.561-5.707-5.708V60.66c0-3.147,2.561-5.708,5.707-5.708
			H453.31c3.148,0,5.708,2.561,5.708,5.708v271.432C459.019,335.239,456.458,337.8,453.31,337.8z M260.212,55.203
			c-3.009,0-5.457,2.448-5.457,5.458v271.432c0,3.01,2.448,5.458,5.457,5.458H453.31c3.01,0,5.458-2.448,5.458-5.458V60.66
			c0-3.009-2.448-5.458-5.458-5.458H260.212z"/>
	</g>
	<g>
		<g>
			<rect x="66.746" y="106.223" style="fill:#F5F5F5;" width="256.027" height="211.404"/>
			<rect x="70.855" y="110.705" style="fill:#FAFAFA;" width="251.918" height="202.618"/>
			<g>
				<polygon style="fill:#F0F0F0;" points="72.714,255.681 72.714,184.094 80.152,184.094 80.152,174.639 96.886,166.811 
					96.886,157.133 99.675,157.133 99.675,184.094 102.465,184.094 102.465,255.681 106.183,255.681 106.183,218.493 
					114.551,218.493 114.551,198.97 117.34,198.97 117.34,255.681 123.848,255.681 123.848,234.298 128.496,234.298 128.496,228.72 
					138.723,228.72 138.723,209.196 144.301,209.196 144.301,196.18 150.809,196.18 150.809,176.657 153.598,176.657 
					153.598,196.18 160.106,196.18 160.106,209.196 165.684,209.196 165.684,228.72 175.911,228.72 175.911,234.298 
					180.559,234.298 180.559,255.681 186.138,255.681 186.138,228.72 196.364,228.72 196.364,169.219 199.153,169.219 
					199.153,162.711 221.466,162.711 221.466,169.219 226.115,169.219 226.115,211.985 244.709,211.985 244.709,216.634 
					251.217,216.634 251.217,219.423 244.709,219.423 244.709,236.158 264.233,236.158 264.233,180.376 267.951,180.376 
					267.951,169.219 277.248,169.219 277.248,126.453 280.037,126.453 280.037,169.219 286.545,169.219 286.545,180.376 
					322.773,180.376 322.773,313.323 70.855,313.323 70.855,255.681 				"/>
				<g>
					<rect x="300.781" y="183.29" style="fill:#F5F5F5;" width="2.634" height="2.634"/>
					<rect x="300.781" y="187.707" style="fill:#F5F5F5;" width="2.634" height="2.634"/>
					<rect x="300.781" y="205.371" style="fill:#F5F5F5;" width="2.634" height="2.634"/>
					<rect x="300.781" y="209.787" style="fill:#F5F5F5;" width="2.634" height="2.634"/>
					<rect x="300.781" y="214.203" style="fill:#F5F5F5;" width="2.634" height="2.634"/>
					<rect x="300.781" y="227.451" style="fill:#F5F5F5;" width="2.634" height="2.634"/>
					<rect x="300.781" y="231.867" style="fill:#F5F5F5;" width="2.634" height="2.634"/>
					<rect x="296.597" y="200.955" style="fill:#F5F5F5;" width="2.634" height="2.634"/>
					<rect x="296.597" y="205.371" style="fill:#F5F5F5;" width="2.634" height="2.634"/>
					<rect x="296.597" y="209.787" style="fill:#F5F5F5;" width="2.634" height="2.634"/>
					<rect x="296.597" y="214.203" style="fill:#F5F5F5;" width="2.634" height="2.634"/>
					<rect x="296.597" y="218.619" style="fill:#F5F5F5;" width="2.634" height="2.634"/>
					<rect x="296.597" y="227.451" style="fill:#F5F5F5;" width="2.634" height="2.634"/>
					<rect x="296.597" y="231.867" style="fill:#F5F5F5;" width="2.634" height="2.634"/>
					<rect x="292.413" y="183.29" style="fill:#F5F5F5;" width="2.634" height="2.634"/>
					<rect x="292.413" y="187.707" style="fill:#F5F5F5;" width="2.634" height="2.634"/>
					<rect x="292.413" y="192.123" style="fill:#F5F5F5;" width="2.634" height="2.634"/>
					<rect x="292.413" y="196.539" style="fill:#F5F5F5;" width="2.634" height="2.634"/>
					<rect x="292.413" y="200.955" style="fill:#F5F5F5;" width="2.634" height="2.634"/>
					<rect x="292.413" y="205.371" style="fill:#F5F5F5;" width="2.634" height="2.634"/>
					<rect x="292.413" y="209.787" style="fill:#F5F5F5;" width="2.634" height="2.634"/>
					<rect x="292.413" y="214.203" style="fill:#F5F5F5;" width="2.634" height="2.634"/>
					<rect x="292.413" y="218.619" style="fill:#F5F5F5;" width="2.634" height="2.634"/>
					<rect x="292.413" y="223.035" style="fill:#F5F5F5;" width="2.634" height="2.634"/>
					<rect x="292.413" y="231.867" style="fill:#F5F5F5;" width="2.634" height="2.634"/>
					<rect x="288.23" y="183.29" style="fill:#F5F5F5;" width="2.634" height="2.634"/>
					<rect x="288.23" y="187.707" style="fill:#F5F5F5;" width="2.634" height="2.634"/>
					<rect x="288.23" y="192.123" style="fill:#F5F5F5;" width="2.634" height="2.634"/>
					<rect x="288.23" y="196.539" style="fill:#F5F5F5;" width="2.634" height="2.634"/>
					<rect x="288.23" y="200.955" style="fill:#F5F5F5;" width="2.634" height="2.634"/>
					<rect x="288.23" y="205.371" style="fill:#F5F5F5;" width="2.634" height="2.634"/>
					<rect x="288.23" y="209.787" style="fill:#F5F5F5;" width="2.634" height="2.634"/>
					<rect x="288.23" y="249.532" style="fill:#F5F5F5;" width="2.634" height="2.634"/>
					<rect x="284.046" y="183.29" style="fill:#F5F5F5;" width="2.634" height="2.634"/>
					<rect x="284.046" y="187.707" style="fill:#F5F5F5;" width="2.634" height="2.634"/>
					<rect x="284.046" y="192.123" style="fill:#F5F5F5;" width="2.634" height="2.634"/>
					<rect x="284.046" y="196.539" style="fill:#F5F5F5;" width="2.634" height="2.634"/>
					<rect x="284.046" y="200.955" style="fill:#F5F5F5;" width="2.634" height="2.634"/>
					<rect x="284.046" y="205.371" style="fill:#F5F5F5;" width="2.634" height="2.634"/>
					<rect x="284.046" y="209.787" style="fill:#F5F5F5;" width="2.634" height="2.634"/>
					<rect x="284.046" y="214.203" style="fill:#F5F5F5;" width="2.634" height="2.634"/>
					<rect x="284.046" y="240.699" style="fill:#F5F5F5;" width="2.634" height="2.634"/>
					<rect x="284.046" y="245.116" style="fill:#F5F5F5;" width="2.634" height="2.634"/>
					<rect x="284.046" y="249.532" style="fill:#F5F5F5;" width="2.634" height="2.634"/>
					<rect x="284.046" y="253.948" style="fill:#F5F5F5;" width="2.634" height="2.634"/>
					<rect x="284.046" y="271.612" style="fill:#F5F5F5;" width="2.634" height="2.634"/>
					<rect x="279.862" y="183.29" style="fill:#F5F5F5;" width="2.634" height="2.634"/>
					<rect x="279.862" y="187.707" style="fill:#F5F5F5;" width="2.634" height="2.634"/>
					<rect x="279.862" y="192.123" style="fill:#F5F5F5;" width="2.634" height="2.634"/>
					<rect x="279.862" y="196.539" style="fill:#F5F5F5;" width="2.634" height="2.634"/>
					<rect x="279.862" y="200.955" style="fill:#F5F5F5;" width="2.634" height="2.634"/>
					<rect x="279.862" y="205.371" style="fill:#F5F5F5;" width="2.634" height="2.634"/>
					<rect x="279.862" y="209.787" style="fill:#F5F5F5;" width="2.634" height="2.634"/>
					<rect x="279.862" y="214.203" style="fill:#F5F5F5;" width="2.634" height="2.634"/>
					<rect x="279.862" y="218.619" style="fill:#F5F5F5;" width="2.634" height="2.634"/>
					<rect x="279.862" y="223.035" style="fill:#F5F5F5;" width="2.634" height="2.634"/>
					<rect x="279.862" y="236.283" style="fill:#F5F5F5;" width="2.634" height="2.634"/>
					<rect x="279.862" y="240.699" style="fill:#F5F5F5;" width="2.634" height="2.634"/>
					<rect x="279.862" y="245.116" style="fill:#F5F5F5;" width="2.634" height="2.634"/>
					<rect x="279.862" y="249.532" style="fill:#F5F5F5;" width="2.634" height="2.634"/>
					<rect x="279.862" y="253.948" style="fill:#F5F5F5;" width="2.634" height="2.634"/>
					<rect x="279.862" y="271.612" style="fill:#F5F5F5;" width="2.634" height="2.634"/>
					<rect x="275.679" y="183.29" style="fill:#F5F5F5;" width="2.634" height="2.634"/>
					<rect x="275.679" y="187.707" style="fill:#F5F5F5;" width="2.634" height="2.634"/>
					<rect x="275.679" y="192.123" style="fill:#F5F5F5;" width="2.634" height="2.634"/>
					<rect x="275.679" y="196.539" style="fill:#F5F5F5;" width="2.634" height="2.634"/>
					<rect x="275.679" y="200.955" style="fill:#F5F5F5;" width="2.634" height="2.634"/>
					<rect x="275.679" y="205.371" style="fill:#F5F5F5;" width="2.634" height="2.634"/>
					<rect x="275.679" y="209.787" style="fill:#F5F5F5;" width="2.634" height="2.634"/>
					<rect x="275.679" y="214.203" style="fill:#F5F5F5;" width="2.634" height="2.634"/>
					<rect x="275.679" y="218.619" style="fill:#F5F5F5;" width="2.634" height="2.634"/>
					<rect x="275.679" y="223.035" style="fill:#F5F5F5;" width="2.634" height="2.634"/>
					<rect x="275.679" y="227.451" style="fill:#F5F5F5;" width="2.634" height="2.634"/>
					<rect x="275.679" y="231.867" style="fill:#F5F5F5;" width="2.634" height="2.634"/>
					<rect x="275.679" y="236.283" style="fill:#F5F5F5;" width="2.634" height="2.634"/>
					<rect x="275.679" y="240.699" style="fill:#F5F5F5;" width="2.634" height="2.634"/>
					<rect x="275.679" y="245.116" style="fill:#F5F5F5;" width="2.634" height="2.634"/>
					<rect x="275.679" y="249.532" style="fill:#F5F5F5;" width="2.634" height="2.634"/>
					<rect x="275.679" y="253.948" style="fill:#F5F5F5;" width="2.634" height="2.634"/>
					<rect x="275.679" y="258.364" style="fill:#F5F5F5;" width="2.634" height="2.634"/>
					<rect x="271.495" y="183.29" style="fill:#F5F5F5;" width="2.634" height="2.634"/>
					<rect x="271.495" y="187.707" style="fill:#F5F5F5;" width="2.634" height="2.634"/>
					<rect x="271.495" y="192.123" style="fill:#F5F5F5;" width="2.634" height="2.634"/>
					<rect x="271.495" y="196.539" style="fill:#F5F5F5;" width="2.634" height="2.634"/>
					<rect x="271.495" y="200.955" style="fill:#F5F5F5;" width="2.634" height="2.634"/>
					<rect x="271.495" y="205.371" style="fill:#F5F5F5;" width="2.634" height="2.634"/>
					<rect x="271.495" y="209.787" style="fill:#F5F5F5;" width="2.634" height="2.634"/>
					<rect x="271.495" y="214.203" style="fill:#F5F5F5;" width="2.634" height="2.634"/>
					<rect x="271.495" y="218.619" style="fill:#F5F5F5;" width="2.634" height="2.634"/>
					<rect x="271.495" y="223.035" style="fill:#F5F5F5;" width="2.634" height="2.634"/>
					<rect x="271.495" y="236.283" style="fill:#F5F5F5;" width="2.634" height="2.634"/>
					<rect x="271.495" y="240.699" style="fill:#F5F5F5;" width="2.634" height="2.634"/>
					<rect x="271.495" y="245.116" style="fill:#F5F5F5;" width="2.634" height="2.634"/>
					<rect x="271.495" y="249.532" style="fill:#F5F5F5;" width="2.634" height="2.634"/>
					<rect x="267.311" y="183.29" style="fill:#F5F5F5;" width="2.634" height="2.634"/>
					<rect x="267.311" y="187.707" style="fill:#F5F5F5;" width="2.634" height="2.634"/>
					<rect x="267.311" y="192.123" style="fill:#F5F5F5;" width="2.634" height="2.634"/>
					<rect x="267.311" y="196.539" style="fill:#F5F5F5;" width="2.634" height="2.634"/>
					<rect x="267.311" y="200.955" style="fill:#F5F5F5;" width="2.634" height="2.634"/>
					<rect x="267.311" y="205.371" style="fill:#F5F5F5;" width="2.634" height="2.634"/>
					<rect x="267.311" y="209.787" style="fill:#F5F5F5;" width="2.634" height="2.634"/>
					<rect x="267.311" y="214.203" style="fill:#F5F5F5;" width="2.634" height="2.634"/>
					<rect x="267.311" y="218.619" style="fill:#F5F5F5;" width="2.634" height="2.634"/>
					<rect x="267.311" y="223.035" style="fill:#F5F5F5;" width="2.634" height="2.634"/>
					<rect x="267.311" y="236.283" style="fill:#F5F5F5;" width="2.634" height="2.634"/>
					<rect x="267.311" y="240.699" style="fill:#F5F5F5;" width="2.634" height="2.634"/>
					<rect x="267.311" y="245.116" style="fill:#F5F5F5;" width="2.634" height="2.634"/>
					<rect x="220.207" y="171.824" style="fill:#F5F5F5;" width="2.634" height="2.634"/>
					<rect x="220.207" y="176.24" style="fill:#F5F5F5;" width="2.634" height="2.634"/>
					<rect x="220.207" y="180.656" style="fill:#F5F5F5;" width="2.634" height="2.634"/>
					<rect x="220.207" y="185.072" style="fill:#F5F5F5;" width="2.634" height="2.634"/>
					<rect x="220.207" y="189.488" style="fill:#F5F5F5;" width="2.634" height="2.634"/>
					<rect x="220.207" y="193.905" style="fill:#F5F5F5;" width="2.634" height="2.634"/>
					<rect x="220.207" y="198.321" style="fill:#F5F5F5;" width="2.634" height="2.634"/>
					<rect x="220.207" y="202.737" style="fill:#F5F5F5;" width="2.634" height="2.634"/>
					<rect x="220.207" y="215.985" style="fill:#F5F5F5;" width="2.634" height="2.634"/>
					<rect x="220.207" y="220.401" style="fill:#F5F5F5;" width="2.634" height="2.634"/>
					<rect x="216.023" y="171.824" style="fill:#F5F5F5;" width="2.634" height="2.634"/>
					<rect x="216.023" y="176.24" style="fill:#F5F5F5;" width="2.634" height="2.634"/>
					<rect x="216.023" y="180.656" style="fill:#F5F5F5;" width="2.634" height="2.634"/>
					<rect x="216.023" y="185.072" style="fill:#F5F5F5;" width="2.634" height="2.634"/>
					<rect x="216.023" y="189.488" style="fill:#F5F5F5;" width="2.634" height="2.634"/>
					<rect x="216.023" y="193.905" style="fill:#F5F5F5;" width="2.634" height="2.634"/>
					<rect x="216.023" y="198.321" style="fill:#F5F5F5;" width="2.634" height="2.634"/>
					<rect x="216.023" y="202.737" style="fill:#F5F5F5;" width="2.634" height="2.634"/>
					<rect x="216.023" y="220.401" style="fill:#F5F5F5;" width="2.634" height="2.634"/>
					<rect x="211.839" y="171.824" style="fill:#F5F5F5;" width="2.634" height="2.634"/>
					<rect x="211.839" y="176.24" style="fill:#F5F5F5;" width="2.634" height="2.634"/>
					<rect x="211.839" y="180.656" style="fill:#F5F5F5;" width="2.634" height="2.634"/>
					<rect x="211.839" y="185.072" style="fill:#F5F5F5;" width="2.634" height="2.634"/>
					<rect x="211.839" y="189.488" style="fill:#F5F5F5;" width="2.634" height="2.634"/>
					<rect x="211.839" y="193.905" style="fill:#F5F5F5;" width="2.634" height="2.634"/>
					<rect x="211.839" y="198.321" style="fill:#F5F5F5;" width="2.634" height="2.634"/>
					<rect x="211.839" y="202.737" style="fill:#F5F5F5;" width="2.634" height="2.634"/>
					<rect x="207.656" y="171.824" style="fill:#F5F5F5;" width="2.634" height="2.634"/>
					<rect x="207.656" y="176.24" style="fill:#F5F5F5;" width="2.634" height="2.634"/>
					<rect x="207.656" y="180.656" style="fill:#F5F5F5;" width="2.634" height="2.634"/>
					<rect x="207.656" y="185.072" style="fill:#F5F5F5;" width="2.634" height="2.634"/>
					<rect x="207.656" y="189.488" style="fill:#F5F5F5;" width="2.634" height="2.634"/>
					<rect x="207.656" y="193.905" style="fill:#F5F5F5;" width="2.634" height="2.634"/>
					<rect x="207.656" y="202.737" style="fill:#F5F5F5;" width="2.634" height="2.634"/>
					<rect x="207.656" y="207.153" style="fill:#F5F5F5;" width="2.634" height="2.634"/>
					<rect x="207.656" y="220.401" style="fill:#F5F5F5;" width="2.634" height="2.634"/>
					<rect x="207.656" y="224.817" style="fill:#F5F5F5;" width="2.634" height="2.634"/>
					<rect x="207.656" y="229.233" style="fill:#F5F5F5;" width="2.634" height="2.634"/>
					<rect x="207.656" y="233.649" style="fill:#F5F5F5;" width="2.634" height="2.634"/>
					<rect x="207.656" y="238.065" style="fill:#F5F5F5;" width="2.634" height="2.634"/>
					<rect x="207.656" y="242.482" style="fill:#F5F5F5;" width="2.634" height="2.634"/>
					<rect x="207.656" y="246.898" style="fill:#F5F5F5;" width="2.634" height="2.634"/>
					<rect x="203.472" y="171.824" style="fill:#F5F5F5;" width="2.634" height="2.634"/>
					<rect x="203.472" y="176.24" style="fill:#F5F5F5;" width="2.634" height="2.634"/>
					<rect x="203.472" y="180.656" style="fill:#F5F5F5;" width="2.634" height="2.634"/>
					<rect x="203.472" y="185.072" style="fill:#F5F5F5;" width="2.634" height="2.634"/>
					<rect x="203.472" y="189.488" style="fill:#F5F5F5;" width="2.634" height="2.634"/>
					<rect x="203.472" y="193.905" style="fill:#F5F5F5;" width="2.634" height="2.634"/>
					<rect x="203.472" y="207.153" style="fill:#F5F5F5;" width="2.634" height="2.634"/>
					<rect x="203.472" y="211.569" style="fill:#F5F5F5;" width="2.634" height="2.634"/>
					<rect x="203.472" y="215.985" style="fill:#F5F5F5;" width="2.634" height="2.634"/>
					<rect x="203.472" y="220.401" style="fill:#F5F5F5;" width="2.634" height="2.634"/>
					<rect x="203.472" y="224.817" style="fill:#F5F5F5;" width="2.634" height="2.634"/>
					<rect x="203.472" y="229.233" style="fill:#F5F5F5;" width="2.634" height="2.634"/>
					<rect x="203.472" y="233.649" style="fill:#F5F5F5;" width="2.634" height="2.634"/>
					<rect x="203.472" y="238.065" style="fill:#F5F5F5;" width="2.634" height="2.634"/>
					<rect x="203.472" y="242.482" style="fill:#F5F5F5;" width="2.634" height="2.634"/>
					<rect x="203.472" y="246.898" style="fill:#F5F5F5;" width="2.634" height="2.634"/>
					<rect x="203.472" y="251.314" style="fill:#F5F5F5;" width="2.634" height="2.634"/>
					<rect x="203.472" y="260.146" style="fill:#F5F5F5;" width="2.634" height="2.634"/>
					<rect x="199.288" y="171.824" style="fill:#F5F5F5;" width="2.634" height="2.634"/>
					<rect x="199.288" y="176.24" style="fill:#F5F5F5;" width="2.634" height="2.634"/>
					<rect x="199.288" y="180.656" style="fill:#F5F5F5;" width="2.634" height="2.634"/>
					<rect x="199.288" y="185.072" style="fill:#F5F5F5;" width="2.634" height="2.634"/>
					<rect x="199.288" y="189.488" style="fill:#F5F5F5;" width="2.634" height="2.634"/>
					<rect x="199.288" y="193.905" style="fill:#F5F5F5;" width="2.634" height="2.634"/>
					<rect x="199.288" y="207.153" style="fill:#F5F5F5;" width="2.634" height="2.634"/>
					<rect x="199.288" y="211.569" style="fill:#F5F5F5;" width="2.634" height="2.634"/>
					<rect x="199.288" y="215.985" style="fill:#F5F5F5;" width="2.634" height="2.634"/>
					<rect x="199.288" y="220.401" style="fill:#F5F5F5;" width="2.634" height="2.634"/>
					<rect x="199.288" y="233.649" style="fill:#F5F5F5;" width="2.634" height="2.634"/>
					<rect x="199.288" y="238.065" style="fill:#F5F5F5;" width="2.634" height="2.634"/>
					<rect x="199.288" y="242.482" style="fill:#F5F5F5;" width="2.634" height="2.634"/>
					<rect x="199.288" y="246.898" style="fill:#F5F5F5;" width="2.634" height="2.634"/>
					<rect x="199.288" y="251.314" style="fill:#F5F5F5;" width="2.634" height="2.634"/>
					<rect x="199.288" y="260.146" style="fill:#F5F5F5;" width="2.634" height="2.634"/>
					<rect x="199.288" y="264.562" style="fill:#F5F5F5;" width="2.634" height="2.634"/>
					<rect x="161.326" y="212.886" style="fill:#F5F5F5;" width="2.634" height="2.634"/>
					<rect x="161.326" y="217.302" style="fill:#F5F5F5;" width="2.634" height="2.634"/>
					<rect x="161.326" y="221.718" style="fill:#F5F5F5;" width="2.634" height="2.634"/>
					<rect x="161.326" y="226.134" style="fill:#F5F5F5;" width="2.634" height="2.634"/>
					<rect x="161.326" y="230.55" style="fill:#F5F5F5;" width="2.634" height="2.634"/>
					<rect x="161.326" y="234.966" style="fill:#F5F5F5;" width="2.634" height="2.634"/>
					<rect x="161.326" y="239.383" style="fill:#F5F5F5;" width="2.634" height="2.634"/>
					<rect x="161.326" y="252.631" style="fill:#F5F5F5;" width="2.634" height="2.634"/>
					<rect x="161.326" y="257.047" style="fill:#F5F5F5;" width="2.634" height="2.634"/>
					<rect x="161.326" y="261.463" style="fill:#F5F5F5;" width="2.634" height="2.634"/>
					<rect x="157.142" y="212.886" style="fill:#F5F5F5;" width="2.634" height="2.634"/>
					<rect x="157.142" y="217.302" style="fill:#F5F5F5;" width="2.634" height="2.634"/>
					<rect x="157.142" y="221.718" style="fill:#F5F5F5;" width="2.634" height="2.634"/>
					<rect x="157.142" y="226.134" style="fill:#F5F5F5;" width="2.634" height="2.634"/>
					<rect x="157.142" y="230.55" style="fill:#F5F5F5;" width="2.634" height="2.634"/>
					<rect x="157.142" y="234.966" style="fill:#F5F5F5;" width="2.634" height="2.634"/>
					<rect x="157.142" y="239.383" style="fill:#F5F5F5;" width="2.634" height="2.634"/>
					<rect x="152.958" y="212.886" style="fill:#F5F5F5;" width="2.634" height="2.634"/>
					<rect x="152.958" y="217.302" style="fill:#F5F5F5;" width="2.634" height="2.634"/>
					<rect x="152.958" y="221.718" style="fill:#F5F5F5;" width="2.634" height="2.634"/>
					<rect x="152.958" y="226.134" style="fill:#F5F5F5;" width="2.634" height="2.634"/>
					<rect x="152.958" y="230.55" style="fill:#F5F5F5;" width="2.634" height="2.634"/>
					<rect x="152.958" y="234.966" style="fill:#F5F5F5;" width="2.634" height="2.634"/>
					<rect x="152.958" y="239.383" style="fill:#F5F5F5;" width="2.634" height="2.634"/>
					<rect x="148.775" y="212.886" style="fill:#F5F5F5;" width="2.634" height="2.634"/>
					<rect x="148.775" y="217.302" style="fill:#F5F5F5;" width="2.634" height="2.634"/>
					<rect x="148.775" y="221.718" style="fill:#F5F5F5;" width="2.634" height="2.634"/>
					<rect x="148.775" y="226.134" style="fill:#F5F5F5;" width="2.634" height="2.634"/>
					<rect x="148.775" y="230.55" style="fill:#F5F5F5;" width="2.634" height="2.634"/>
					<rect x="148.775" y="234.966" style="fill:#F5F5F5;" width="2.634" height="2.634"/>
					<rect x="148.775" y="239.383" style="fill:#F5F5F5;" width="2.634" height="2.634"/>
					<rect x="148.775" y="243.799" style="fill:#F5F5F5;" width="2.634" height="2.634"/>
					<rect x="148.775" y="248.215" style="fill:#F5F5F5;" width="2.634" height="2.634"/>
					<rect x="148.775" y="252.631" style="fill:#F5F5F5;" width="2.634" height="2.634"/>
					<rect x="148.775" y="257.047" style="fill:#F5F5F5;" width="2.634" height="2.634"/>
					<rect x="144.591" y="212.886" style="fill:#F5F5F5;" width="2.634" height="2.634"/>
					<rect x="144.591" y="217.302" style="fill:#F5F5F5;" width="2.634" height="2.634"/>
					<rect x="144.591" y="221.718" style="fill:#F5F5F5;" width="2.634" height="2.634"/>
					<rect x="144.591" y="226.134" style="fill:#F5F5F5;" width="2.634" height="2.634"/>
					<rect x="144.591" y="230.55" style="fill:#F5F5F5;" width="2.634" height="2.634"/>
					<rect x="144.591" y="234.966" style="fill:#F5F5F5;" width="2.634" height="2.634"/>
					<rect x="144.591" y="239.383" style="fill:#F5F5F5;" width="2.634" height="2.634"/>
					<rect x="144.591" y="243.799" style="fill:#F5F5F5;" width="2.634" height="2.634"/>
					<rect x="144.591" y="248.215" style="fill:#F5F5F5;" width="2.634" height="2.634"/>
					<rect x="144.591" y="252.631" style="fill:#F5F5F5;" width="2.634" height="2.634"/>
					<rect x="144.591" y="257.047" style="fill:#F5F5F5;" width="2.634" height="2.634"/>
					<rect x="144.591" y="261.463" style="fill:#F5F5F5;" width="2.634" height="2.634"/>
					<rect x="144.591" y="274.711" style="fill:#F5F5F5;" width="2.634" height="2.634"/>
					<rect x="144.591" y="279.127" style="fill:#F5F5F5;" width="2.634" height="2.634"/>
					<rect x="140.407" y="212.886" style="fill:#F5F5F5;" width="2.634" height="2.634"/>
					<rect x="140.407" y="217.302" style="fill:#F5F5F5;" width="2.634" height="2.634"/>
					<rect x="140.407" y="221.718" style="fill:#F5F5F5;" width="2.634" height="2.634"/>
					<rect x="140.407" y="234.966" style="fill:#F5F5F5;" width="2.634" height="2.634"/>
					<rect x="140.407" y="239.383" style="fill:#F5F5F5;" width="2.634" height="2.634"/>
					<rect x="140.407" y="243.799" style="fill:#F5F5F5;" width="2.634" height="2.634"/>
					<rect x="140.407" y="248.215" style="fill:#F5F5F5;" width="2.634" height="2.634"/>
					<rect x="140.407" y="252.631" style="fill:#F5F5F5;" width="2.634" height="2.634"/>
					<rect x="140.407" y="257.047" style="fill:#F5F5F5;" width="2.634" height="2.634"/>
					<rect x="140.407" y="261.463" style="fill:#F5F5F5;" width="2.634" height="2.634"/>
					<rect x="140.407" y="274.711" style="fill:#F5F5F5;" width="2.634" height="2.634"/>
					<rect x="140.407" y="279.127" style="fill:#F5F5F5;" width="2.634" height="2.634"/>
					<rect x="140.407" y="283.543" style="fill:#F5F5F5;" width="2.634" height="2.634"/>
					<rect x="96.556" y="186.389" style="fill:#F5F5F5;" width="2.634" height="2.634"/>
					<rect x="96.556" y="190.806" style="fill:#F5F5F5;" width="2.634" height="2.634"/>
					<rect x="96.556" y="195.222" style="fill:#F5F5F5;" width="2.634" height="2.634"/>
					<rect x="96.556" y="199.638" style="fill:#F5F5F5;" width="2.634" height="2.634"/>
					<rect x="96.556" y="204.054" style="fill:#F5F5F5;" width="2.634" height="2.634"/>
					<rect x="96.556" y="208.47" style="fill:#F5F5F5;" width="2.634" height="2.634"/>
					<rect x="96.556" y="212.886" style="fill:#F5F5F5;" width="2.634" height="2.634"/>
					<rect x="96.556" y="217.302" style="fill:#F5F5F5;" width="2.634" height="2.634"/>
					<rect x="96.556" y="221.718" style="fill:#F5F5F5;" width="2.634" height="2.634"/>
					<rect x="96.556" y="226.134" style="fill:#F5F5F5;" width="2.634" height="2.634"/>
					<rect x="96.556" y="230.55" style="fill:#F5F5F5;" width="2.634" height="2.634"/>
					<rect x="96.556" y="234.966" style="fill:#F5F5F5;" width="2.634" height="2.634"/>
					<rect x="96.556" y="239.383" style="fill:#F5F5F5;" width="2.634" height="2.634"/>
					<rect x="96.556" y="243.799" style="fill:#F5F5F5;" width="2.634" height="2.634"/>
					<rect x="96.556" y="248.215" style="fill:#F5F5F5;" width="2.634" height="2.634"/>
					<rect x="96.556" y="252.631" style="fill:#F5F5F5;" width="2.634" height="2.634"/>
					<rect x="96.556" y="257.047" style="fill:#F5F5F5;" width="2.634" height="2.634"/>
					<rect x="96.556" y="261.463" style="fill:#F5F5F5;" width="2.634" height="2.634"/>
					<rect x="96.556" y="265.879" style="fill:#F5F5F5;" width="2.634" height="2.634"/>
					<rect x="96.556" y="270.295" style="fill:#F5F5F5;" width="2.634" height="2.634"/>
					<rect x="96.556" y="274.711" style="fill:#F5F5F5;" width="2.634" height="2.634"/>
					<rect x="96.556" y="279.127" style="fill:#F5F5F5;" width="2.634" height="2.634"/>
					<rect x="96.556" y="283.543" style="fill:#F5F5F5;" width="2.634" height="2.634"/>
					<rect x="92.373" y="186.389" style="fill:#F5F5F5;" width="2.634" height="2.634"/>
					<rect x="92.373" y="190.806" style="fill:#F5F5F5;" width="2.634" height="2.634"/>
					<rect x="92.373" y="195.222" style="fill:#F5F5F5;" width="2.634" height="2.634"/>
					<rect x="92.373" y="199.638" style="fill:#F5F5F5;" width="2.634" height="2.634"/>
					<rect x="92.373" y="204.054" style="fill:#F5F5F5;" width="2.634" height="2.634"/>
					<rect x="92.373" y="208.47" style="fill:#F5F5F5;" width="2.634" height="2.634"/>
					<rect x="92.373" y="212.886" style="fill:#F5F5F5;" width="2.634" height="2.634"/>
					<rect x="92.373" y="217.302" style="fill:#F5F5F5;" width="2.634" height="2.634"/>
					<rect x="92.373" y="221.718" style="fill:#F5F5F5;" width="2.634" height="2.634"/>
					<rect x="92.373" y="226.134" style="fill:#F5F5F5;" width="2.634" height="2.634"/>
					<rect x="92.373" y="230.55" style="fill:#F5F5F5;" width="2.634" height="2.634"/>
					<rect x="92.373" y="234.966" style="fill:#F5F5F5;" width="2.634" height="2.634"/>
					<rect x="92.373" y="239.383" style="fill:#F5F5F5;" width="2.634" height="2.634"/>
					<rect x="92.373" y="243.799" style="fill:#F5F5F5;" width="2.634" height="2.634"/>
					<rect x="92.373" y="248.215" style="fill:#F5F5F5;" width="2.634" height="2.634"/>
					<rect x="92.373" y="252.631" style="fill:#F5F5F5;" width="2.634" height="2.634"/>
					<rect x="92.373" y="257.047" style="fill:#F5F5F5;" width="2.634" height="2.634"/>
					<rect x="92.373" y="261.463" style="fill:#F5F5F5;" width="2.634" height="2.634"/>
					<rect x="92.373" y="265.879" style="fill:#F5F5F5;" width="2.634" height="2.634"/>
					<rect x="88.189" y="186.389" style="fill:#F5F5F5;" width="2.634" height="2.634"/>
					<rect x="88.189" y="190.806" style="fill:#F5F5F5;" width="2.634" height="2.634"/>
					<rect x="88.189" y="195.222" style="fill:#F5F5F5;" width="2.634" height="2.634"/>
					<rect x="88.189" y="199.638" style="fill:#F5F5F5;" width="2.634" height="2.634"/>
					<rect x="88.189" y="204.054" style="fill:#F5F5F5;" width="2.634" height="2.634"/>
					<rect x="88.189" y="208.47" style="fill:#F5F5F5;" width="2.634" height="2.634"/>
					<rect x="88.189" y="212.886" style="fill:#F5F5F5;" width="2.634" height="2.634"/>
					<rect x="88.189" y="217.302" style="fill:#F5F5F5;" width="2.634" height="2.634"/>
					<rect x="88.189" y="221.718" style="fill:#F5F5F5;" width="2.634" height="2.634"/>
					<rect x="88.189" y="226.134" style="fill:#F5F5F5;" width="2.634" height="2.634"/>
					<rect x="88.189" y="230.55" style="fill:#F5F5F5;" width="2.634" height="2.634"/>
					<rect x="88.189" y="234.966" style="fill:#F5F5F5;" width="2.634" height="2.634"/>
					<rect x="88.189" y="239.383" style="fill:#F5F5F5;" width="2.634" height="2.634"/>
					<rect x="88.189" y="243.799" style="fill:#F5F5F5;" width="2.634" height="2.634"/>
					<rect x="88.189" y="248.215" style="fill:#F5F5F5;" width="2.634" height="2.634"/>
					<rect x="88.189" y="252.631" style="fill:#F5F5F5;" width="2.634" height="2.634"/>
					<rect x="88.189" y="257.047" style="fill:#F5F5F5;" width="2.634" height="2.634"/>
					<rect x="88.189" y="261.463" style="fill:#F5F5F5;" width="2.634" height="2.634"/>
					<rect x="88.189" y="265.879" style="fill:#F5F5F5;" width="2.634" height="2.634"/>
					<rect x="84.005" y="186.389" style="fill:#F5F5F5;" width="2.634" height="2.634"/>
					<rect x="84.005" y="190.806" style="fill:#F5F5F5;" width="2.634" height="2.634"/>
					<rect x="84.005" y="195.222" style="fill:#F5F5F5;" width="2.634" height="2.634"/>
					<rect x="84.005" y="199.638" style="fill:#F5F5F5;" width="2.634" height="2.634"/>
					<rect x="84.005" y="204.054" style="fill:#F5F5F5;" width="2.634" height="2.634"/>
					<rect x="84.005" y="208.47" style="fill:#F5F5F5;" width="2.634" height="2.634"/>
					<rect x="84.005" y="212.886" style="fill:#F5F5F5;" width="2.634" height="2.634"/>
					<rect x="84.005" y="217.302" style="fill:#F5F5F5;" width="2.634" height="2.634"/>
					<rect x="84.005" y="221.718" style="fill:#F5F5F5;" width="2.634" height="2.634"/>
					<rect x="84.005" y="226.134" style="fill:#F5F5F5;" width="2.634" height="2.634"/>
					<rect x="84.005" y="230.55" style="fill:#F5F5F5;" width="2.634" height="2.634"/>
					<rect x="84.005" y="234.966" style="fill:#F5F5F5;" width="2.634" height="2.634"/>
					<rect x="84.005" y="239.383" style="fill:#F5F5F5;" width="2.634" height="2.634"/>
					<rect x="84.005" y="243.799" style="fill:#F5F5F5;" width="2.634" height="2.634"/>
					<rect x="84.005" y="248.215" style="fill:#F5F5F5;" width="2.634" height="2.634"/>
					<rect x="79.822" y="186.389" style="fill:#F5F5F5;" width="2.634" height="2.634"/>
					<rect x="79.822" y="190.806" style="fill:#F5F5F5;" width="2.634" height="2.634"/>
					<rect x="79.822" y="195.222" style="fill:#F5F5F5;" width="2.634" height="2.634"/>
					<rect x="79.822" y="199.638" style="fill:#F5F5F5;" width="2.634" height="2.634"/>
					<rect x="79.822" y="204.054" style="fill:#F5F5F5;" width="2.634" height="2.634"/>
					<rect x="79.822" y="208.47" style="fill:#F5F5F5;" width="2.634" height="2.634"/>
					<rect x="79.822" y="212.886" style="fill:#F5F5F5;" width="2.634" height="2.634"/>
					<rect x="79.822" y="217.302" style="fill:#F5F5F5;" width="2.634" height="2.634"/>
					<rect x="79.822" y="221.718" style="fill:#F5F5F5;" width="2.634" height="2.634"/>
					<rect x="79.822" y="226.134" style="fill:#F5F5F5;" width="2.634" height="2.634"/>
					<rect x="79.822" y="230.55" style="fill:#F5F5F5;" width="2.634" height="2.634"/>
					<rect x="79.822" y="234.966" style="fill:#F5F5F5;" width="2.634" height="2.634"/>
					<rect x="79.822" y="239.383" style="fill:#F5F5F5;" width="2.634" height="2.634"/>
					<rect x="75.638" y="186.389" style="fill:#F5F5F5;" width="2.634" height="2.634"/>
					<rect x="75.638" y="190.806" style="fill:#F5F5F5;" width="2.634" height="2.634"/>
					<rect x="75.638" y="195.222" style="fill:#F5F5F5;" width="2.634" height="2.634"/>
					<rect x="75.638" y="199.638" style="fill:#F5F5F5;" width="2.634" height="2.634"/>
					<rect x="75.638" y="204.054" style="fill:#F5F5F5;" width="2.634" height="2.634"/>
					<rect x="75.638" y="208.47" style="fill:#F5F5F5;" width="2.634" height="2.634"/>
					<rect x="75.638" y="212.886" style="fill:#F5F5F5;" width="2.634" height="2.634"/>
					<rect x="75.638" y="217.302" style="fill:#F5F5F5;" width="2.634" height="2.634"/>
					<rect x="75.638" y="221.718" style="fill:#F5F5F5;" width="2.634" height="2.634"/>
					<rect x="75.638" y="226.134" style="fill:#F5F5F5;" width="2.634" height="2.634"/>
					<rect x="75.638" y="230.55" style="fill:#F5F5F5;" width="2.634" height="2.634"/>
					<rect x="75.638" y="234.966" style="fill:#F5F5F5;" width="2.634" height="2.634"/>
					<rect x="319.84" y="185.072" style="fill:#F5F5F5;" width="2.634" height="2.634"/>
					<rect x="319.84" y="189.488" style="fill:#F5F5F5;" width="2.634" height="2.634"/>
					<rect x="319.84" y="193.905" style="fill:#F5F5F5;" width="2.634" height="2.634"/>
					<rect x="319.84" y="198.321" style="fill:#F5F5F5;" width="2.634" height="2.634"/>
					<rect x="319.84" y="202.737" style="fill:#F5F5F5;" width="2.634" height="2.634"/>
					<rect x="319.84" y="207.153" style="fill:#F5F5F5;" width="2.634" height="2.634"/>
					<rect x="319.84" y="211.569" style="fill:#F5F5F5;" width="2.634" height="2.634"/>
					<rect x="319.84" y="215.985" style="fill:#F5F5F5;" width="2.634" height="2.634"/>
					<rect x="319.84" y="220.401" style="fill:#F5F5F5;" width="2.634" height="2.634"/>
					<rect x="319.84" y="224.817" style="fill:#F5F5F5;" width="2.634" height="2.634"/>
					<rect x="319.84" y="229.233" style="fill:#F5F5F5;" width="2.634" height="2.634"/>
					<rect x="319.84" y="233.649" style="fill:#F5F5F5;" width="2.634" height="2.634"/>
					<rect x="319.84" y="238.065" style="fill:#F5F5F5;" width="2.634" height="2.634"/>
					<rect x="319.84" y="242.482" style="fill:#F5F5F5;" width="2.634" height="2.634"/>
					<rect x="319.84" y="246.898" style="fill:#F5F5F5;" width="2.634" height="2.634"/>
					<rect x="319.84" y="251.314" style="fill:#F5F5F5;" width="2.634" height="2.634"/>
					<rect x="319.84" y="255.73" style="fill:#F5F5F5;" width="2.634" height="2.634"/>
					<rect x="319.84" y="264.562" style="fill:#F5F5F5;" width="2.634" height="2.634"/>
					<rect x="319.84" y="268.978" style="fill:#F5F5F5;" width="2.634" height="2.634"/>
					<rect x="319.84" y="273.394" style="fill:#F5F5F5;" width="2.634" height="2.634"/>
					<rect x="319.84" y="277.81" style="fill:#F5F5F5;" width="2.634" height="2.634"/>
					<rect x="319.84" y="282.226" style="fill:#F5F5F5;" width="2.634" height="2.634"/>
					<rect x="315.656" y="185.072" style="fill:#F5F5F5;" width="2.634" height="2.634"/>
					<rect x="315.656" y="189.488" style="fill:#F5F5F5;" width="2.634" height="2.634"/>
					<rect x="315.656" y="193.905" style="fill:#F5F5F5;" width="2.634" height="2.634"/>
					<rect x="315.656" y="198.321" style="fill:#F5F5F5;" width="2.634" height="2.634"/>
					<rect x="315.656" y="202.737" style="fill:#F5F5F5;" width="2.634" height="2.634"/>
					<rect x="315.656" y="207.153" style="fill:#F5F5F5;" width="2.634" height="2.634"/>
					<rect x="315.656" y="211.569" style="fill:#F5F5F5;" width="2.634" height="2.634"/>
					<rect x="315.656" y="215.985" style="fill:#F5F5F5;" width="2.634" height="2.634"/>
					<rect x="315.656" y="220.401" style="fill:#F5F5F5;" width="2.634" height="2.634"/>
					<rect x="315.656" y="224.817" style="fill:#F5F5F5;" width="2.634" height="2.634"/>
					<rect x="315.656" y="229.233" style="fill:#F5F5F5;" width="2.634" height="2.634"/>
					<rect x="315.656" y="233.649" style="fill:#F5F5F5;" width="2.634" height="2.634"/>
					<rect x="315.656" y="238.065" style="fill:#F5F5F5;" width="2.634" height="2.634"/>
					<rect x="315.656" y="242.482" style="fill:#F5F5F5;" width="2.634" height="2.634"/>
					<rect x="315.656" y="246.898" style="fill:#F5F5F5;" width="2.634" height="2.634"/>
					<rect x="315.656" y="251.314" style="fill:#F5F5F5;" width="2.634" height="2.634"/>
					<rect x="315.656" y="277.81" style="fill:#F5F5F5;" width="2.634" height="2.634"/>
					<rect x="315.656" y="282.226" style="fill:#F5F5F5;" width="2.634" height="2.634"/>
					<rect x="311.472" y="185.072" style="fill:#F5F5F5;" width="2.634" height="2.634"/>
					<rect x="311.472" y="189.488" style="fill:#F5F5F5;" width="2.634" height="2.634"/>
					<rect x="311.472" y="193.905" style="fill:#F5F5F5;" width="2.634" height="2.634"/>
					<rect x="311.472" y="198.321" style="fill:#F5F5F5;" width="2.634" height="2.634"/>
					<rect x="311.472" y="202.737" style="fill:#F5F5F5;" width="2.634" height="2.634"/>
					<rect x="311.472" y="207.153" style="fill:#F5F5F5;" width="2.634" height="2.634"/>
					<rect x="311.472" y="211.569" style="fill:#F5F5F5;" width="2.634" height="2.634"/>
					<rect x="311.472" y="215.985" style="fill:#F5F5F5;" width="2.634" height="2.634"/>
					<rect x="311.472" y="220.401" style="fill:#F5F5F5;" width="2.634" height="2.634"/>
					<rect x="311.472" y="224.817" style="fill:#F5F5F5;" width="2.634" height="2.634"/>
					<rect x="311.472" y="229.233" style="fill:#F5F5F5;" width="2.634" height="2.634"/>
					<rect x="311.472" y="233.649" style="fill:#F5F5F5;" width="2.634" height="2.634"/>
					<rect x="311.472" y="238.065" style="fill:#F5F5F5;" width="2.634" height="2.634"/>
					<rect x="311.472" y="242.482" style="fill:#F5F5F5;" width="2.634" height="2.634"/>
					<rect x="311.472" y="246.898" style="fill:#F5F5F5;" width="2.634" height="2.634"/>
					<rect x="311.472" y="251.314" style="fill:#F5F5F5;" width="2.634" height="2.634"/>
					<rect x="311.472" y="260.146" style="fill:#F5F5F5;" width="2.634" height="2.634"/>
					<rect x="311.472" y="264.562" style="fill:#F5F5F5;" width="2.634" height="2.634"/>
					<rect x="311.472" y="268.978" style="fill:#F5F5F5;" width="2.634" height="2.634"/>
					<rect x="311.472" y="273.394" style="fill:#F5F5F5;" width="2.634" height="2.634"/>
					<rect x="311.472" y="282.226" style="fill:#F5F5F5;" width="2.634" height="2.634"/>
					<rect x="238.491" y="215.985" style="fill:#F5F5F5;" width="2.634" height="2.634"/>
					<rect x="238.491" y="220.401" style="fill:#F5F5F5;" width="2.634" height="2.634"/>
					<rect x="238.491" y="224.817" style="fill:#F5F5F5;" width="2.634" height="2.634"/>
					<rect x="238.491" y="229.233" style="fill:#F5F5F5;" width="2.634" height="2.634"/>
					<rect x="238.491" y="233.649" style="fill:#F5F5F5;" width="2.634" height="2.634"/>
					<rect x="238.491" y="238.065" style="fill:#F5F5F5;" width="2.634" height="2.634"/>
					<rect x="238.491" y="242.482" style="fill:#F5F5F5;" width="2.634" height="2.634"/>
					<rect x="238.491" y="246.898" style="fill:#F5F5F5;" width="2.634" height="2.634"/>
					<rect x="238.491" y="251.314" style="fill:#F5F5F5;" width="2.634" height="2.634"/>
					<rect x="238.491" y="255.73" style="fill:#F5F5F5;" width="2.634" height="2.634"/>
					<rect x="238.491" y="260.146" style="fill:#F5F5F5;" width="2.634" height="2.634"/>
					<rect x="238.491" y="264.562" style="fill:#F5F5F5;" width="2.634" height="2.634"/>
					<rect x="238.491" y="268.978" style="fill:#F5F5F5;" width="2.634" height="2.634"/>
					<rect x="238.491" y="277.81" style="fill:#F5F5F5;" width="2.634" height="2.634"/>
					<rect x="238.491" y="282.226" style="fill:#F5F5F5;" width="2.634" height="2.634"/>
					<rect x="238.491" y="286.642" style="fill:#F5F5F5;" width="2.634" height="2.634"/>
					<rect x="238.491" y="291.058" style="fill:#F5F5F5;" width="2.634" height="2.634"/>
					<rect x="238.491" y="299.891" style="fill:#F5F5F5;" width="2.634" height="2.634"/>
					<rect x="238.491" y="304.307" style="fill:#F5F5F5;" width="2.634" height="2.634"/>
					<rect x="238.491" y="308.723" style="fill:#F5F5F5;" width="2.634" height="2.634"/>
					<rect x="234.307" y="215.985" style="fill:#F5F5F5;" width="2.634" height="2.634"/>
					<rect x="234.307" y="220.401" style="fill:#F5F5F5;" width="2.634" height="2.634"/>
					<rect x="234.307" y="224.817" style="fill:#F5F5F5;" width="2.634" height="2.634"/>
					<rect x="234.307" y="229.233" style="fill:#F5F5F5;" width="2.634" height="2.634"/>
					<rect x="234.307" y="233.649" style="fill:#F5F5F5;" width="2.634" height="2.634"/>
					<rect x="234.307" y="238.065" style="fill:#F5F5F5;" width="2.634" height="2.634"/>
					<rect x="234.307" y="242.482" style="fill:#F5F5F5;" width="2.634" height="2.634"/>
					<rect x="234.307" y="246.898" style="fill:#F5F5F5;" width="2.634" height="2.634"/>
					<rect x="234.307" y="251.314" style="fill:#F5F5F5;" width="2.634" height="2.634"/>
					<rect x="234.307" y="255.73" style="fill:#F5F5F5;" width="2.634" height="2.634"/>
					<rect x="234.307" y="260.146" style="fill:#F5F5F5;" width="2.634" height="2.634"/>
					<rect x="234.307" y="264.562" style="fill:#F5F5F5;" width="2.634" height="2.634"/>
					<rect x="234.307" y="268.978" style="fill:#F5F5F5;" width="2.634" height="2.634"/>
					<rect x="234.307" y="282.226" style="fill:#F5F5F5;" width="2.634" height="2.634"/>
					<rect x="234.307" y="286.642" style="fill:#F5F5F5;" width="2.634" height="2.634"/>
					<rect x="234.307" y="295.474" style="fill:#F5F5F5;" width="2.634" height="2.634"/>
					<rect x="234.307" y="299.891" style="fill:#F5F5F5;" width="2.634" height="2.634"/>
					<rect x="234.307" y="304.307" style="fill:#F5F5F5;" width="2.634" height="2.634"/>
					<rect x="234.307" y="308.723" style="fill:#F5F5F5;" width="2.634" height="2.634"/>
					<rect x="230.123" y="215.985" style="fill:#F5F5F5;" width="2.634" height="2.634"/>
					<rect x="230.123" y="220.401" style="fill:#F5F5F5;" width="2.634" height="2.634"/>
					<rect x="230.123" y="224.817" style="fill:#F5F5F5;" width="2.634" height="2.634"/>
					<rect x="230.123" y="229.233" style="fill:#F5F5F5;" width="2.634" height="2.634"/>
					<rect x="230.123" y="233.649" style="fill:#F5F5F5;" width="2.634" height="2.634"/>
					<rect x="230.123" y="238.065" style="fill:#F5F5F5;" width="2.634" height="2.634"/>
					<rect x="230.123" y="242.482" style="fill:#F5F5F5;" width="2.634" height="2.634"/>
					<rect x="230.123" y="246.898" style="fill:#F5F5F5;" width="2.634" height="2.634"/>
					<rect x="230.123" y="251.314" style="fill:#F5F5F5;" width="2.634" height="2.634"/>
					<rect x="230.123" y="255.73" style="fill:#F5F5F5;" width="2.634" height="2.634"/>
					<rect x="230.123" y="260.146" style="fill:#F5F5F5;" width="2.634" height="2.634"/>
					<rect x="230.123" y="264.562" style="fill:#F5F5F5;" width="2.634" height="2.634"/>
					<rect x="230.123" y="268.978" style="fill:#F5F5F5;" width="2.634" height="2.634"/>
					<rect x="230.123" y="273.394" style="fill:#F5F5F5;" width="2.634" height="2.634"/>
					<rect x="230.123" y="282.226" style="fill:#F5F5F5;" width="2.634" height="2.634"/>
					<rect x="230.123" y="291.058" style="fill:#F5F5F5;" width="2.634" height="2.634"/>
					<rect x="230.123" y="295.474" style="fill:#F5F5F5;" width="2.634" height="2.634"/>
					<rect x="230.123" y="299.891" style="fill:#F5F5F5;" width="2.634" height="2.634"/>
					<rect x="230.123" y="304.307" style="fill:#F5F5F5;" width="2.634" height="2.634"/>
					<rect x="230.123" y="308.723" style="fill:#F5F5F5;" width="2.634" height="2.634"/>
					<rect x="255.535" y="241.165" style="fill:#F5F5F5;" width="2.634" height="2.634"/>
					<rect x="255.535" y="245.581" style="fill:#F5F5F5;" width="2.634" height="2.634"/>
					<rect x="255.535" y="249.997" style="fill:#F5F5F5;" width="2.634" height="2.634"/>
					<rect x="255.535" y="254.413" style="fill:#F5F5F5;" width="2.634" height="2.634"/>
					<rect x="255.535" y="258.829" style="fill:#F5F5F5;" width="2.634" height="2.634"/>
					<rect x="255.535" y="263.245" style="fill:#F5F5F5;" width="2.634" height="2.634"/>
					<rect x="255.535" y="276.493" style="fill:#F5F5F5;" width="2.634" height="2.634"/>
					<rect x="255.535" y="280.909" style="fill:#F5F5F5;" width="2.634" height="2.634"/>
					<rect x="255.535" y="285.325" style="fill:#F5F5F5;" width="2.634" height="2.634"/>
					<rect x="255.535" y="289.741" style="fill:#F5F5F5;" width="2.634" height="2.634"/>
					<rect x="255.535" y="294.157" style="fill:#F5F5F5;" width="2.634" height="2.634"/>
					<rect x="255.535" y="298.573" style="fill:#F5F5F5;" width="2.634" height="2.634"/>
					<rect x="255.535" y="302.99" style="fill:#F5F5F5;" width="2.634" height="2.634"/>
					<rect x="251.352" y="241.165" style="fill:#F5F5F5;" width="2.634" height="2.634"/>
					<rect x="251.352" y="245.581" style="fill:#F5F5F5;" width="2.634" height="2.634"/>
					<rect x="251.352" y="249.997" style="fill:#F5F5F5;" width="2.634" height="2.634"/>
					<rect x="251.352" y="254.413" style="fill:#F5F5F5;" width="2.634" height="2.634"/>
					<rect x="251.352" y="258.829" style="fill:#F5F5F5;" width="2.634" height="2.634"/>
					<rect x="251.352" y="263.245" style="fill:#F5F5F5;" width="2.634" height="2.634"/>
					<rect x="251.352" y="276.493" style="fill:#F5F5F5;" width="2.634" height="2.634"/>
					<rect x="251.352" y="280.909" style="fill:#F5F5F5;" width="2.634" height="2.634"/>
					<rect x="251.352" y="285.325" style="fill:#F5F5F5;" width="2.634" height="2.634"/>
					<rect x="251.352" y="289.741" style="fill:#F5F5F5;" width="2.634" height="2.634"/>
					<rect x="251.352" y="294.157" style="fill:#F5F5F5;" width="2.634" height="2.634"/>
					<rect x="251.352" y="298.573" style="fill:#F5F5F5;" width="2.634" height="2.634"/>
					<rect x="251.352" y="307.406" style="fill:#F5F5F5;" width="2.634" height="2.634"/>
					<rect x="112.361" y="221.718" style="fill:#F5F5F5;" width="2.634" height="2.634"/>
					<rect x="112.361" y="226.134" style="fill:#F5F5F5;" width="2.634" height="2.634"/>
					<rect x="112.361" y="230.55" style="fill:#F5F5F5;" width="2.634" height="2.634"/>
					<rect x="112.361" y="234.966" style="fill:#F5F5F5;" width="2.634" height="2.634"/>
					<rect x="112.361" y="239.383" style="fill:#F5F5F5;" width="2.634" height="2.634"/>
					<rect x="112.361" y="243.799" style="fill:#F5F5F5;" width="2.634" height="2.634"/>
					<rect x="112.361" y="248.215" style="fill:#F5F5F5;" width="2.634" height="2.634"/>
					<rect x="112.361" y="252.631" style="fill:#F5F5F5;" width="2.634" height="2.634"/>
					<rect x="112.361" y="257.047" style="fill:#F5F5F5;" width="2.634" height="2.634"/>
					<rect x="112.361" y="261.463" style="fill:#F5F5F5;" width="2.634" height="2.634"/>
					<rect x="112.361" y="265.879" style="fill:#F5F5F5;" width="2.634" height="2.634"/>
					<rect x="112.361" y="274.711" style="fill:#F5F5F5;" width="2.634" height="2.634"/>
					<rect x="112.361" y="279.127" style="fill:#F5F5F5;" width="2.634" height="2.634"/>
					<rect x="112.361" y="283.543" style="fill:#F5F5F5;" width="2.634" height="2.634"/>
					<rect x="112.361" y="287.959" style="fill:#F5F5F5;" width="2.634" height="2.634"/>
					<rect x="112.361" y="292.375" style="fill:#F5F5F5;" width="2.634" height="2.634"/>
					<rect x="112.361" y="296.792" style="fill:#F5F5F5;" width="2.634" height="2.634"/>
					<rect x="112.361" y="301.208" style="fill:#F5F5F5;" width="2.634" height="2.634"/>
					<rect x="112.361" y="305.624" style="fill:#F5F5F5;" width="2.634" height="2.634"/>
					<rect x="108.178" y="221.718" style="fill:#F5F5F5;" width="2.634" height="2.634"/>
					<rect x="108.178" y="226.134" style="fill:#F5F5F5;" width="2.634" height="2.634"/>
					<rect x="108.178" y="230.55" style="fill:#F5F5F5;" width="2.634" height="2.634"/>
					<rect x="108.178" y="234.966" style="fill:#F5F5F5;" width="2.634" height="2.634"/>
					<rect x="108.178" y="239.383" style="fill:#F5F5F5;" width="2.634" height="2.634"/>
					<rect x="108.178" y="243.799" style="fill:#F5F5F5;" width="2.634" height="2.634"/>
					<rect x="108.178" y="248.215" style="fill:#F5F5F5;" width="2.634" height="2.634"/>
					<rect x="108.178" y="252.631" style="fill:#F5F5F5;" width="2.634" height="2.634"/>
					<rect x="108.178" y="257.047" style="fill:#F5F5F5;" width="2.634" height="2.634"/>
					<rect x="108.178" y="261.463" style="fill:#F5F5F5;" width="2.634" height="2.634"/>
					<rect x="108.178" y="265.879" style="fill:#F5F5F5;" width="2.634" height="2.634"/>
					<rect x="108.178" y="270.295" style="fill:#F5F5F5;" width="2.634" height="2.634"/>
					<rect x="108.178" y="274.711" style="fill:#F5F5F5;" width="2.634" height="2.634"/>
					<rect x="108.178" y="279.127" style="fill:#F5F5F5;" width="2.634" height="2.634"/>
					<rect x="108.178" y="283.543" style="fill:#F5F5F5;" width="2.634" height="2.634"/>
					<rect x="108.178" y="287.959" style="fill:#F5F5F5;" width="2.634" height="2.634"/>
					<rect x="108.178" y="292.375" style="fill:#F5F5F5;" width="2.634" height="2.634"/>
					<rect x="108.178" y="296.792" style="fill:#F5F5F5;" width="2.634" height="2.634"/>
					<rect x="108.178" y="301.208" style="fill:#F5F5F5;" width="2.634" height="2.634"/>
					<rect x="108.178" y="305.624" style="fill:#F5F5F5;" width="2.634" height="2.634"/>
					<rect x="132.97" y="238.918" style="fill:#F5F5F5;" width="2.634" height="2.634"/>
					<rect x="132.97" y="243.334" style="fill:#F5F5F5;" width="2.634" height="2.634"/>
					<rect x="132.97" y="247.75" style="fill:#F5F5F5;" width="2.634" height="2.634"/>
					<rect x="132.97" y="252.166" style="fill:#F5F5F5;" width="2.634" height="2.634"/>
					<rect x="132.97" y="256.582" style="fill:#F5F5F5;" width="2.634" height="2.634"/>
					<rect x="132.97" y="260.998" style="fill:#F5F5F5;" width="2.634" height="2.634"/>
					<rect x="132.97" y="265.414" style="fill:#F5F5F5;" width="2.634" height="2.634"/>
					<rect x="132.97" y="269.83" style="fill:#F5F5F5;" width="2.634" height="2.634"/>
					<rect x="132.97" y="274.246" style="fill:#F5F5F5;" width="2.634" height="2.634"/>
					<rect x="132.97" y="278.662" style="fill:#F5F5F5;" width="2.634" height="2.634"/>
					<rect x="128.786" y="238.918" style="fill:#F5F5F5;" width="2.634" height="2.634"/>
					<rect x="128.786" y="243.334" style="fill:#F5F5F5;" width="2.634" height="2.634"/>
					<rect x="128.786" y="247.75" style="fill:#F5F5F5;" width="2.634" height="2.634"/>
					<rect x="128.786" y="252.166" style="fill:#F5F5F5;" width="2.634" height="2.634"/>
					<rect x="128.786" y="256.582" style="fill:#F5F5F5;" width="2.634" height="2.634"/>
					<rect x="128.786" y="260.998" style="fill:#F5F5F5;" width="2.634" height="2.634"/>
					<rect x="128.786" y="265.414" style="fill:#F5F5F5;" width="2.634" height="2.634"/>
					<rect x="128.786" y="269.83" style="fill:#F5F5F5;" width="2.634" height="2.634"/>
					<rect x="128.786" y="274.246" style="fill:#F5F5F5;" width="2.634" height="2.634"/>
				</g>
			</g>
			<g>
				<rect x="151.892" y="106.713" style="fill:#F5F5F5;" width="4.422" height="210.914"/>
				<rect x="235.06" y="106.713" style="fill:#F5F5F5;" width="4.422" height="210.914"/>
				<rect x="318.229" y="106.713" style="fill:#F5F5F5;" width="4.422" height="210.914"/>
			</g>
		</g>
		<g>
			<g>
				<path style="fill:#F0F0F0;" d="M262.74,296.781h12.579v-0.838c0-1.644-1.842-2.951-4.032-2.862l-4.927,0.199
					c-2.03,0.082-3.62,1.339-3.62,2.862V296.781z"/>
				<g>
					<path style="fill:#E6E6E6;" d="M287.65,297.209h16.646l2.647-23.241c-0.042-0.869-0.759-1.552-1.629-1.552h-11.152
						c-0.87,0-1.587,0.683-1.629,1.552L287.65,297.209z"/>
					<path style="fill:#E6E6E6;" d="M262.245,238.236h4.155l4.67,43.894h-4.155c-0.689,0-1.306-0.558-1.379-1.247l-4.405-41.4
						C261.057,238.795,261.556,238.236,262.245,238.236z"/>
					<path style="fill:#EBEBEB;" d="M268.672,282.13h62.278c0.689,0,1.187-0.558,1.114-1.247l-4.405-41.4
						c-0.073-0.689-0.691-1.247-1.38-1.247h-62.278c-0.689,0-1.187,0.558-1.114,1.247l4.405,41.4
						C267.366,281.572,267.984,282.13,268.672,282.13z"/>
					<path style="fill:#FAFAFA;" d="M269.836,278.076h58.728c0.601,0,1.036-0.487,0.972-1.088l-3.843-36.12
						c-0.064-0.601-0.603-1.088-1.204-1.088h-58.728c-0.601,0-1.036,0.487-0.972,1.088l3.843,36.12
						C268.696,277.589,269.235,278.076,269.836,278.076z"/>
					<path style="fill:#E6E6E6;" d="M287.018,295.404h20.488c0.494,0,0.895,0.401,0.895,0.895v0.016c0,0.494-0.4,0.895-0.895,0.895
						h-20.488c-0.494,0-0.895-0.401-0.895-0.895v-0.016C286.123,295.805,286.524,295.404,287.018,295.404z"/>
				</g>
				
					<rect x="236.602" y="296.687" transform="matrix(-1 -1.224647e-16 1.224647e-16 -1 523.9055 601.0222)" style="fill:#E6E6E6;" width="50.701" height="7.649"/>
				<g>
					<path style="fill:#E6E6E6;" d="M377.881,382.112h1.265c0.157,0,0.287-0.128,0.291-0.286l2.001-77.49l-5.849,0l2.001,77.49
						C377.594,381.984,377.724,382.112,377.881,382.112z"/>
				</g>
				<g>
					<polygon style="fill:#F0F0F0;" points="423.007,382.112 425.931,382.112 417.678,304.336 411.829,304.336 					"/>
				</g>
				<polygon style="fill:#E6E6E6;" points="234.624,382.112 234.624,382.112 245.833,304.336 239.984,304.336 231.73,382.112 				
					"/>
				
					<rect x="272.842" y="296.687" transform="matrix(-1 -1.224647e-16 1.224647e-16 -1 693.9014 601.0222)" style="fill:#F5F5F5;" width="148.218" height="7.649"/>
				<polygon style="fill:#F0F0F0;" points="277.466,382.112 280.826,382.112 280.829,382.109 282.073,304.336 276.223,304.336 				
					"/>
				<g>
					<g>
						<path style="fill:#F5F5F5;" d="M324.815,295.312h1.553c0.164,0,0.296-0.133,0.296-0.297v-1.643
							c0-0.164-0.133-0.297-0.296-0.297h-1.115c-0.134,0-0.252,0.09-0.286,0.22l-0.438,1.643
							C324.479,295.127,324.621,295.312,324.815,295.312z"/>
						<path style="fill:#F5F5F5;" d="M322.669,295.312h1.553c0.164,0,0.296-0.133,0.296-0.297v-1.643
							c0-0.164-0.133-0.297-0.296-0.297h-1.115c-0.134,0-0.252,0.09-0.286,0.22l-0.438,1.643
							C322.332,295.127,322.474,295.312,322.669,295.312z"/>
						<path style="fill:#F5F5F5;" d="M320.523,295.312h1.553c0.164,0,0.297-0.133,0.297-0.297v-1.643
							c0-0.164-0.133-0.297-0.297-0.297h-1.115c-0.134,0-0.252,0.09-0.286,0.22l-0.438,1.643
							C320.186,295.127,320.328,295.312,320.523,295.312z"/>
						<path style="fill:#F5F5F5;" d="M318.376,295.312h1.553c0.164,0,0.297-0.133,0.297-0.297v-1.643
							c0-0.164-0.133-0.297-0.297-0.297h-1.115c-0.134,0-0.252,0.09-0.286,0.22l-0.438,1.643
							C318.04,295.127,318.182,295.312,318.376,295.312z"/>
						<path style="fill:#F5F5F5;" d="M316.23,295.312h1.553c0.164,0,0.297-0.133,0.297-0.297v-1.643
							c0-0.164-0.133-0.297-0.297-0.297h-1.115c-0.134,0-0.252,0.09-0.286,0.22l-0.438,1.643
							C315.893,295.127,316.035,295.312,316.23,295.312z"/>
						<path style="fill:#F5F5F5;" d="M314.084,295.312h1.553c0.164,0,0.297-0.133,0.297-0.297v-1.643
							c0-0.164-0.133-0.297-0.297-0.297h-1.115c-0.134,0-0.252,0.09-0.286,0.22l-0.438,1.643
							C313.747,295.127,313.889,295.312,314.084,295.312z"/>
						<path style="fill:#F5F5F5;" d="M311.937,295.312h1.553c0.164,0,0.297-0.133,0.297-0.297v-1.643
							c0-0.164-0.133-0.297-0.297-0.297h-1.115c-0.134,0-0.252,0.09-0.286,0.22l-0.438,1.643
							C311.601,295.127,311.743,295.312,311.937,295.312z"/>
						<path style="fill:#F5F5F5;" d="M309.791,295.312h1.553c0.164,0,0.296-0.133,0.296-0.297v-1.643
							c0-0.164-0.133-0.297-0.296-0.297h-1.115c-0.134,0-0.252,0.09-0.287,0.22l-0.438,1.643
							C309.454,295.127,309.596,295.312,309.791,295.312z"/>
						<path style="fill:#F5F5F5;" d="M307.645,295.312h1.553c0.164,0,0.297-0.133,0.297-0.297v-1.643
							c0-0.164-0.133-0.297-0.297-0.297h-1.115c-0.134,0-0.252,0.09-0.286,0.22l-0.438,1.643
							C307.308,295.127,307.45,295.312,307.645,295.312z"/>
						<path style="fill:#F5F5F5;" d="M305.499,295.312h1.553c0.164,0,0.297-0.133,0.297-0.297v-1.643
							c0-0.164-0.133-0.297-0.297-0.297h-1.115c-0.134,0-0.252,0.09-0.286,0.22l-0.438,1.643
							C305.162,295.127,305.304,295.312,305.499,295.312z"/>
						<path style="fill:#F5F5F5;" d="M303.352,295.312h1.553c0.164,0,0.297-0.133,0.297-0.297v-1.643
							c0-0.164-0.133-0.297-0.297-0.297h-1.115c-0.134,0-0.252,0.09-0.286,0.22l-0.438,1.643
							C303.015,295.127,303.157,295.312,303.352,295.312z"/>
						<path style="fill:#F5F5F5;" d="M301.206,295.312h1.553c0.164,0,0.296-0.133,0.296-0.297v-1.643
							c0-0.164-0.133-0.297-0.296-0.297h-1.115c-0.134,0-0.252,0.09-0.286,0.22l-0.438,1.643
							C300.869,295.127,301.011,295.312,301.206,295.312z"/>
						<path style="fill:#F5F5F5;" d="M299.06,295.312h1.553c0.164,0,0.296-0.133,0.296-0.297v-1.643
							c0-0.164-0.133-0.297-0.296-0.297h-1.115c-0.134,0-0.252,0.09-0.286,0.22l-0.438,1.643
							C298.723,295.127,298.865,295.312,299.06,295.312z"/>
						<path style="fill:#F5F5F5;" d="M296.913,295.312h1.553c0.164,0,0.296-0.133,0.296-0.297v-1.643
							c0-0.164-0.133-0.297-0.296-0.297h-1.115c-0.134,0-0.252,0.09-0.286,0.22l-0.438,1.643
							C296.577,295.127,296.718,295.312,296.913,295.312z"/>
						<path style="fill:#F5F5F5;" d="M294.767,295.312h1.553c0.164,0,0.297-0.133,0.297-0.297v-1.643
							c0-0.164-0.133-0.297-0.297-0.297h-1.115c-0.134,0-0.252,0.09-0.286,0.22l-0.438,1.643
							C294.43,295.127,294.572,295.312,294.767,295.312z"/>
					</g>
					
						<rect x="293.205" y="294.194" transform="matrix(-1 -1.224647e-16 1.224647e-16 -1 621.1354 590.9746)" style="fill:#EBEBEB;" width="34.726" height="2.586"/>
				</g>
			</g>
		</g>
		<g>
			<path style="fill:#E0E0E0;" d="M354.544,311.33h53.701c2.576,0,4.665,2.088,4.665,4.665v3.529h-63.03v-3.529
				C349.879,313.418,351.968,311.33,354.544,311.33z"/>
			<path style="fill:#E0E0E0;" d="M410.856,366.171l-20.196-1.985v-28.383h-8.004v28.375l-20.278,1.993
				c-2.013,0.198-3.548,1.891-3.548,3.913v3.033h27.045h1.483h27.045v-3.033C414.403,368.061,412.869,366.369,410.856,366.171z"/>
			<path style="fill:#E0E0E0;" d="M366.2,376.879c0,2.89-2.343,5.233-5.233,5.233c-2.89,0-5.233-2.343-5.233-5.233
				s2.343-5.233,5.233-5.233C363.857,371.646,366.2,373.988,366.2,376.879z"/>
			<path style="fill:#E0E0E0;" d="M407.033,376.879c0,2.89,2.343,5.233,5.233,5.233s5.233-2.343,5.233-5.233
				s-2.343-5.233-5.233-5.233S407.033,373.988,407.033,376.879z"/>
			<path style="fill:#E6E6E6;" d="M388.182,341.903h-3.049c-2.129,0-3.856-1.726-3.856-3.856v-21.424h10.761v21.424
				C392.038,340.177,390.312,341.903,388.182,341.903z"/>
			<path style="fill:#EBEBEB;" d="M376.022,311.857c2.792-10.561,9.08-37.882,10.405-73.977c0.205-5.578,4.806-9.986,10.388-9.986
				h18.632c5.723,0,10.373,4.619,10.398,10.343c0.073,16.974-1.113,51.673-10.687,79.877l-35.462-1.306
				C377.165,316.714,375.375,314.305,376.022,311.857z"/>
			<g>
				<path style="fill:#E6E6E6;" d="M381.037,316.222c0,0,9.567-34.036,11.148-77.133c0.189-5.145,4.433-9.212,9.582-9.212h17.187
					c5.279,0,9.568,4.261,9.591,9.54c0.067,15.657-1.027,50.788-9.858,76.805H381.037z"/>
				<path style="fill:#E6E6E6;" d="M388.409,291.479c0,0-20.423-4.131-40.14-2.131c-19.717,2.001,9.277,27.765,9.277,27.765h4.07
					c0,0-15.364-16.336-14.508-20.403c0.856-4.067,39.55,1.294,39.55,1.294L388.409,291.479z"/>
				<path style="fill:#E0E0E0;" d="M418.683,316.223h-33.442c0,0,9.568-34.038,11.152-77.132c0.189-5.145,4.43-9.21,9.582-9.21
					h12.975c5.285,0,9.568,4.262,9.596,9.54C428.609,255.072,427.516,290.204,418.683,316.223z"/>
			</g>
			<g>
				<path style="fill:#E0E0E0;" d="M349.508,315.427h67.978c1.036,0,1.876,0.84,1.876,1.876v0.344c0,1.036-0.84,1.876-1.876,1.876
					h-67.978c-1.036,0-1.876-0.84-1.876-1.876v-0.344C347.632,316.267,348.472,315.427,349.508,315.427z"/>
			</g>
		</g>
	</g>
</g>
<g id="Background_Simple" style="display:none;">
	<g style="display:inline;">
		<path style="fill:#407BFF;" d="M248.569,90.767c-65.844,29.625-6.072,82.424-44.09,111.179
			c-38.018,28.755-141.386-4.488-101.981,70.183c46.287,87.711,248.98,75.531,292.682-32.052S314.413,61.143,248.569,90.767z"/>
		<path style="opacity:0.9;fill:#FFFFFF;" d="M248.569,90.767c-65.844,29.625-6.072,82.424-44.09,111.179
			c-38.018,28.755-141.386-4.488-101.981,70.183c46.287,87.711,248.98,75.531,292.682-32.052S314.413,61.143,248.569,90.767z"/>
	</g>
</g>
<g id="Shadow_1_">
	<ellipse id="_x3C_Path_x3E__359_" style="fill:#F5F5F5;" cx="250" cy="416.238" rx="193.889" ry="11.323"/>
</g>
<g id="List">
	<g>
		<path style="fill:#263238;" d="M267.763,386.01H124.807c-4.003,0-7.248-3.245-7.248-7.248v-213.78
			c0-4.003,3.245-7.248,7.248-7.248h142.955c4.003,0,7.248,3.245,7.248,7.248v213.78C275.01,382.766,271.765,386.01,267.763,386.01z
			"/>
		<path style="opacity:0.4;fill:#FFFFFF;" d="M267.763,386.01H124.807c-4.003,0-7.248-3.245-7.248-7.248v-213.78
			c0-4.003,3.245-7.248,7.248-7.248h142.955c4.003,0,7.248,3.245,7.248,7.248v213.78C275.01,382.766,271.765,386.01,267.763,386.01z
			"/>
		<rect x="131.065" y="174.447" style="opacity:0.2;" width="136.443" height="202.676"/>
		<path style="fill:#263238;" d="M200.47,154.749c0-2.31-1.87-4.19-4.19-4.19c-2.31,0-4.19,1.88-4.19,4.19h-29.963
			c-1.164,0-2.107,0.943-2.107,2.107v21.833h72.53v-21.833c0-1.164-0.943-2.107-2.107-2.107H200.47z M196.28,152.559
			c1.21,0,2.19,0.98,2.19,2.19c0,1.21-0.98,2.19-2.19,2.19c-1.21,0-2.19-0.98-2.19-2.19
			C194.09,153.539,195.07,152.559,196.28,152.559z"/>
		<g>
			<g>
				<rect x="128.063" y="171.445" style="fill:#407BFF;" width="136.443" height="202.676"/>
				<rect x="128.063" y="171.445" style="opacity:0.7;fill:#FFFFFF;" width="136.443" height="202.676"/>
			</g>
			<g>
				<g style="opacity:0.4;">
					<rect x="149.603" y="193.876" width="93.363" height="5"/>
				</g>
				<g style="opacity:0.4;">
					<rect x="159.61" y="211.64" width="83.356" height="2"/>
				</g>
				<g style="opacity:0.4;">
					<rect x="149.603" y="219.393" width="93.363" height="2"/>
				</g>
				<g style="opacity:0.4;">
					<rect x="149.603" y="227.145" width="93.363" height="2"/>
				</g>
				<g style="opacity:0.4;">
					<rect x="149.603" y="234.898" width="93.363" height="2"/>
				</g>
				<g style="opacity:0.4;">
					<rect x="149.603" y="242.649" width="93.363" height="2"/>
				</g>
				<g style="opacity:0.4;">
					<rect x="149.603" y="250.401" width="93.363" height="2"/>
				</g>
				<g style="opacity:0.4;">
					<rect x="149.603" y="258.154" width="43.332" height="2"/>
				</g>
				<g style="opacity:0.4;">
					<path d="M165.949,289.683h-16.345v-16.346h16.345V289.683z M151.604,287.683h12.345v-12.346h-12.345V287.683z"/>
				</g>
				<g style="opacity:0.4;">
					<g>
						<rect x="171.269" y="277.477" width="71.697" height="2"/>
					</g>
					<g>
						<rect x="171.269" y="283.542" width="48.855" height="2"/>
					</g>
				</g>
				<g style="opacity:0.4;">
					<path d="M165.949,319.701h-16.345v-16.346h16.345V319.701z M151.604,317.701h12.345v-12.346h-12.345V317.701z"/>
				</g>
				<g style="opacity:0.4;">
					<g>
						<rect x="171.269" y="307.495" width="71.697" height="2"/>
					</g>
					<g>
						<rect x="171.269" y="313.561" width="48.855" height="2"/>
					</g>
				</g>
				<g style="opacity:0.4;">
					<path d="M165.949,349.72h-16.345v-16.346h16.345V349.72z M151.604,347.72h12.345v-12.346h-12.345V347.72z"/>
				</g>
				<g style="opacity:0.4;">
					<g>
						<rect x="171.269" y="337.515" width="71.697" height="2"/>
					</g>
					<g>
						<rect x="171.269" y="343.58" width="48.855" height="2"/>
					</g>
				</g>
				<g>
					<polygon style="fill:#407BFF;" points="156.027,286.125 153.11,282.097 154.73,280.923 156.203,282.959 160.894,277.804 
						162.374,279.149 					"/>
				</g>
				<g>
					<polygon style="fill:#407BFF;" points="156.027,316.145 153.11,312.114 154.73,310.942 156.203,312.978 160.894,307.822 
						162.374,309.168 					"/>
				</g>
				<g>
					<polygon style="fill:#407BFF;" points="156.027,346.163 153.11,342.133 154.73,340.961 156.203,342.997 160.894,337.842 
						162.374,339.188 					"/>
				</g>
			</g>
		</g>
		<g style="opacity:0.2;">
			<path d="M221.549,184.683h-48.527c-1.824,0-3.157-1.484-2.971-3.308l1.33-13.038c0.186-1.824,1.821-3.308,3.645-3.308h48.527
				c1.824,0,3.156,1.484,2.97,3.308l-1.329,13.038C225.008,183.199,223.373,184.683,221.549,184.683z M174.822,167.03
				c-0.721,0-1.368,0.586-1.441,1.308l-1.33,13.038c-0.073,0.721,0.454,1.308,1.175,1.308h48.527c0.721,0,1.367-0.586,1.441-1.308
				l1.329-13.038c0.074-0.721-0.453-1.308-1.174-1.308H174.822z"/>
		</g>
		<g>
			<path style="fill:#FFFFFF;" d="M220.549,183.683h-48.527c-1.824,0-3.308-1.484-3.308-3.308v-13.038
				c0-1.824,1.484-3.308,3.308-3.308h48.527c1.824,0,3.308,1.484,3.308,3.308v13.038
				C223.856,182.199,222.372,183.683,220.549,183.683z M172.021,166.03c-0.721,0-1.308,0.586-1.308,1.308v13.038
				c0,0.721,0.587,1.308,1.308,1.308h48.527c0.721,0,1.308-0.586,1.308-1.308v-13.038c0-0.721-0.586-1.308-1.308-1.308H172.021z"/>
		</g>
		<g>
			<path style="fill:#263238;" d="M215.368,169.118h-38.167c-0.822,0-1.488-0.666-1.488-1.488v-5.2c0-0.822,0.666-1.488,1.488-1.488
				h38.167c0.822,0,1.488,0.666,1.488,1.488v5.2C216.856,168.452,216.19,169.118,215.368,169.118z"/>
			<path style="opacity:0.1;fill:#FFFFFF;" d="M215.368,169.118h-38.167c-0.822,0-1.488-0.666-1.488-1.488v-5.2
				c0-0.822,0.666-1.488,1.488-1.488h38.167c0.822,0,1.488,0.666,1.488,1.488v5.2C216.856,168.452,216.19,169.118,215.368,169.118z"
				/>
		</g>
	</g>
</g>
<g id="Plant">
	<g>
		<path style="fill:#407BFF;" d="M103.772,395.067c0,0,4.75-10.364-0.677-20.581s-7.001-12.624-3.541-14.717
			c3.46-2.093,5.047,8.173,5.047,8.173s2.916-7.063,0.508-14.454c-2.408-7.392-3.918-19.431-0.63-20.722
			c3.289-1.291,0.628,15.019,3.481,20.578c0,0,2.397-6.189,2.791-12.126c0.394-5.937-0.222-15.417,2.375-17.849
			s4.261-0.749,1.709,12.353c-2.552,13.102-2.533,23.752-2.533,23.752s5.637-17.186,9.42-17.688c3.783-0.501,3.778,5.064,0.54,9.892
			c-3.238,4.827-9.483,13.476-10.507,17.926c0,0,6.187-12.934,11.753-8.97c5.566,3.964-4.844,11.776-9.484,14.599
			c-4.64,2.823-7.862,20.518-7.862,20.518L103.772,395.067z"/>
		<path style="opacity:0.2;enable-background:new    ;" d="M103.772,395.067c0,0,4.75-10.364-0.677-20.581
			s-7.001-12.624-3.541-14.717c3.46-2.093,5.047,8.173,5.047,8.173s2.916-7.063,0.508-14.454c-2.408-7.392-3.918-19.431-0.63-20.722
			c3.289-1.291,0.628,15.019,3.481,20.578c0,0,2.397-6.189,2.791-12.126c0.394-5.937-0.222-15.417,2.375-17.849
			s4.261-0.749,1.709,12.353c-2.552,13.102-2.533,23.752-2.533,23.752s5.637-17.186,9.42-17.688c3.783-0.501,3.778,5.064,0.54,9.892
			c-3.238,4.827-9.483,13.476-10.507,17.926c0,0,6.187-12.934,11.753-8.97c5.566,3.964-4.844,11.776-9.484,14.599
			c-4.64,2.823-7.862,20.518-7.862,20.518L103.772,395.067z"/>
		<path style="fill:#407BFF;" d="M107.521,399.318c0,0-4.625-10.434,0.924-20.569c5.55-10.135,7.151-12.518,3.717-14.663
			s-5.145,8.097-5.145,8.097s-2.831-7.106-0.335-14.461c2.497-7.355,4.151-19.371,0.878-20.711
			c-3.273-1.34-0.808,15.008-3.728,20.525c0,0-2.322-6.224-2.645-12.167c-0.323-5.942,0.407-15.412-2.161-17.883
			c-2.568-2.47-4.251-0.813-1.856,12.326c2.395,13.139,2.248,23.788,2.248,23.788s-5.43-17.269-9.207-17.827
			c-3.777-0.558-3.839,5.008-0.659,9.883c3.18,4.875,9.321,13.616,10.291,18.081c0,0-6.031-13.025-11.644-9.144
			c-5.613,3.881,4.703,11.847,9.308,14.739c4.606,2.892,7.615,20.633,7.615,20.633L107.521,399.318z"/>
		<g>
			<polygon style="fill:#263238;" points="86.188,391.88 124.399,391.88 121.306,419.224 89.28,419.224 			"/>
		</g>
	</g>
</g>
<g id="Boxes">
	<g>
		<g>
			<g>
				<rect x="256.375" y="378.265" style="fill:#407BFF;" width="58.632" height="40.959"/>
				<rect x="256.375" y="378.265" style="opacity:0.2;fill:#FFFFFF;" width="58.632" height="40.959"/>
				<polygon style="opacity:0.2;" points="271.095,378.265 256.375,378.265 256.375,419.224 315.008,419.224 271.095,417.952 				
					"/>
				<rect x="261.528" y="378.265" style="opacity:0.7;fill:#FFFFFF;" width="3.56" height="2.273"/>
				<rect x="261.528" y="416.951" style="opacity:0.7;fill:#FFFFFF;" width="3.56" height="2.273"/>
			</g>
			<g>
				<g>
					<g>
						<polygon style="fill:#263238;" points="309.404,390.141 309.39,390.178 307.527,394.896 306.827,396.671 305.513,394.293 
							302.929,395.133 305.508,388.603 307.145,389.25 309.305,390.103 						"/>
						<g style="opacity:0.2;">
							<path style="fill:#FFFFFF;" d="M306.844,395.802l-1.124-2.035l-2.21,0.718l2.231-5.651l3.334,1.316L306.844,395.802z
								 M305.762,393.663l1.069,1.936l2.132-5.401l-3.173-1.253l-2.132,5.401L305.762,393.663z"/>
						</g>
					</g>
					<path style="opacity:0.2;" d="M309.39,390.178l-1.863,4.719c-1.13-2.575-1.217-5.187-1.217-5.187l0.835-0.46l2.16,0.854
						L309.39,390.178z"/>
					<g>
						<polygon style="fill:#263238;" points="308.966,396.671 310.28,394.293 312.863,395.133 310.285,388.603 306.388,390.141 
													"/>
						<g style="opacity:0.2;">
							<path style="fill:#FFFFFF;" d="M306.717,390.15l3.334-1.316l2.231,5.651l-2.21-0.718l-1.124,2.035L306.717,390.15z
								 M312.135,394.347l-2.132-5.401l-3.173,1.253l2.132,5.401l1.069-1.936L312.135,394.347z"/>
						</g>
					</g>
				</g>
				<g>
					<polygon style="fill:#407BFF;" points="307.896,380.898 308.357,380.538 308.746,380.975 309.264,380.703 309.569,381.202 
						310.128,381.027 310.339,381.572 310.919,381.5 311.03,382.074 311.614,382.106 311.62,382.691 312.189,382.827 
						312.09,383.404 312.626,383.639 312.426,384.189 312.911,384.516 312.616,385.021 313.034,385.43 312.654,385.874 
						312.993,386.351 312.539,386.72 312.788,387.25 312.275,387.532 312.425,388.098 311.871,388.284 311.917,388.867 
						311.338,388.952 311.28,389.534 310.695,389.513 310.534,390.076 309.962,389.951 309.703,390.476 309.163,390.251 
						308.815,390.721 308.323,390.404 307.896,390.804 307.469,390.404 306.978,390.721 306.629,390.251 306.089,390.476 
						305.83,389.951 305.258,390.076 305.097,389.513 304.512,389.534 304.454,388.952 303.875,388.867 303.922,388.284 
						303.367,388.098 303.517,387.532 303.004,387.25 303.253,386.72 302.799,386.351 303.138,385.874 302.758,385.43 
						303.177,385.021 302.882,384.516 303.367,384.189 303.167,383.639 303.702,383.404 303.604,382.827 304.173,382.691 
						304.178,382.106 304.763,382.074 304.873,381.5 305.453,381.572 305.664,381.027 306.223,381.202 306.528,380.703 
						307.046,380.975 307.435,380.538 					"/>
					<path style="opacity:0.2;" d="M312.321,385.671c0,2.444-1.981,4.424-4.425,4.424c-2.444,0-4.424-1.981-4.424-4.424
						s1.981-4.424,4.424-4.424C310.34,381.246,312.321,383.227,312.321,385.671z"/>
					<g>
						<path style="fill:#407BFF;" d="M305.835,385.837l1.043-0.091c0,0,0.191-0.751,0.073-2.37c0,0,0.36-0.066,0.539-0.027
							c0.179,0.039,0.367,1.838,0.367,1.838s1.872-0.258,1.979-0.185c0.068,0.047,0.103,0.324,0.12,0.521
							c0.01,0.115-0.064,0.22-0.176,0.25l-0.064,0.017l0.035,1.801c0.003,0.139-0.103,0.256-0.242,0.267l-1.753,0.139
							c-0.174,0.014-0.347-0.025-0.498-0.112l-0.2-0.116l-1.076,0.154L305.835,385.837z"/>
						<path style="opacity:0.7;fill:#FFFFFF;enable-background:new    ;" d="M305.835,385.837l1.043-0.091
							c0,0,0.191-0.751,0.073-2.37c0,0,0.36-0.066,0.539-0.027c0.179,0.039,0.367,1.838,0.367,1.838s1.872-0.258,1.979-0.185
							c0.068,0.047,0.103,0.324,0.12,0.521c0.01,0.115-0.064,0.22-0.176,0.25l-0.064,0.017l0.035,1.801
							c0.003,0.139-0.103,0.256-0.242,0.267l-1.753,0.139c-0.174,0.014-0.347-0.025-0.498-0.112l-0.2-0.116l-1.076,0.154
							L305.835,385.837z"/>
					</g>
				</g>
			</g>
		</g>
		<polygon style="opacity:0.2;" points="271.095,378.265 255.894,394.896 255.894,378.265 		"/>
		<g>
			<g>
				<rect x="235.678" y="337.306" style="fill:#407BFF;" width="58.632" height="40.959"/>
				<rect x="235.678" y="337.306" style="opacity:0.2;fill:#FFFFFF;" width="58.632" height="40.959"/>
				<polygon style="opacity:0.2;" points="250.398,337.306 235.678,337.306 235.678,378.265 294.311,378.265 250.398,376.993 				
					"/>
				<rect x="240.831" y="337.306" style="opacity:0.7;fill:#FFFFFF;" width="3.56" height="2.273"/>
				<rect x="240.831" y="375.992" style="opacity:0.7;fill:#FFFFFF;" width="3.56" height="2.273"/>
			</g>
			<g>
				<g>
					<g>
						<polygon style="fill:#263238;" points="288.707,349.183 288.693,349.219 286.83,353.938 286.13,355.713 284.816,353.334 
							282.232,354.174 284.811,347.645 286.448,348.291 288.608,349.145 						"/>
						<g style="opacity:0.2;">
							<path style="fill:#FFFFFF;" d="M286.147,354.843l-1.124-2.034l-2.21,0.718l2.231-5.652l3.334,1.316L286.147,354.843z
								 M285.065,352.704l1.069,1.936l2.132-5.401l-3.173-1.253l-2.132,5.4L285.065,352.704z"/>
						</g>
					</g>
					<path style="opacity:0.2;" d="M288.693,349.219l-1.863,4.719c-1.13-2.575-1.217-5.187-1.217-5.187l0.835-0.46l2.16,0.854
						L288.693,349.219z"/>
					<g>
						<polygon style="fill:#263238;" points="288.27,355.712 289.583,353.335 292.166,354.174 289.588,347.644 285.691,349.182 
													"/>
						<g style="opacity:0.2;">
							<path style="fill:#FFFFFF;" d="M286.02,349.192l3.334-1.316l2.231,5.652l-2.21-0.718l-1.124,2.034L286.02,349.192z
								 M291.438,353.388l-2.132-5.4l-3.173,1.253l2.132,5.401l1.069-1.936L291.438,353.388z"/>
						</g>
					</g>
				</g>
				<g>
					<polygon style="fill:#407BFF;" points="287.199,339.94 287.66,339.579 288.049,340.016 288.568,339.744 288.873,340.243 
						289.431,340.068 289.642,340.614 290.222,340.541 290.333,341.116 290.917,341.148 290.923,341.733 291.492,341.868 
						291.393,342.445 291.929,342.681 291.728,343.23 292.214,343.557 291.918,344.063 292.337,344.471 291.957,344.916 
						292.296,345.392 291.842,345.762 292.091,346.291 291.578,346.574 291.728,347.139 291.174,347.326 291.22,347.909 
						290.641,347.993 290.583,348.575 289.999,348.555 289.837,349.117 289.266,348.993 289.006,349.517 288.466,349.293 
						288.118,349.763 287.626,349.445 287.199,349.845 286.772,349.445 286.281,349.763 285.932,349.293 285.392,349.517 
						285.133,348.993 284.561,349.117 284.4,348.555 283.815,348.575 283.757,347.993 283.178,347.909 283.225,347.326 
						282.67,347.139 282.82,346.574 282.307,346.291 282.556,345.762 282.102,345.392 282.441,344.916 282.061,344.471 
						282.48,344.063 282.185,343.557 282.67,343.23 282.47,342.681 283.005,342.445 282.907,341.868 283.476,341.733 
						283.482,341.148 284.066,341.116 284.176,340.541 284.757,340.614 284.967,340.068 285.526,340.243 285.831,339.744 
						286.349,340.016 286.738,339.579 					"/>
					<path style="opacity:0.2;" d="M291.624,344.712c0,2.444-1.981,4.424-4.424,4.424c-2.444,0-4.425-1.981-4.425-4.424
						s1.981-4.424,4.425-4.424C289.643,340.288,291.624,342.269,291.624,344.712z"/>
					<g>
						<path style="fill:#407BFF;" d="M285.138,344.879l1.043-0.091c0,0,0.191-0.752,0.073-2.37c0,0,0.36-0.066,0.539-0.027
							c0.179,0.039,0.367,1.838,0.367,1.838s1.872-0.258,1.979-0.185c0.068,0.047,0.103,0.324,0.119,0.521
							c0.01,0.115-0.064,0.22-0.175,0.25l-0.064,0.017l0.035,1.801c0.003,0.139-0.103,0.256-0.242,0.267l-1.753,0.139
							c-0.173,0.014-0.347-0.025-0.498-0.112l-0.2-0.116l-1.076,0.154L285.138,344.879z"/>
						<path style="opacity:0.7;fill:#FFFFFF;enable-background:new    ;" d="M285.138,344.879l1.043-0.091
							c0,0,0.191-0.752,0.073-2.37c0,0,0.36-0.066,0.539-0.027c0.179,0.039,0.367,1.838,0.367,1.838s1.872-0.258,1.979-0.185
							c0.068,0.047,0.103,0.324,0.119,0.521c0.01,0.115-0.064,0.22-0.175,0.25l-0.064,0.017l0.035,1.801
							c0.003,0.139-0.103,0.256-0.242,0.267l-1.753,0.139c-0.173,0.014-0.347-0.025-0.498-0.112l-0.2-0.116l-1.076,0.154
							L285.138,344.879z"/>
					</g>
				</g>
			</g>
		</g>
		<g>
			<g>
				<rect x="201.816" y="378.265" style="fill:#407BFF;" width="58.632" height="40.959"/>
				<rect x="201.816" y="378.265" style="opacity:0.2;fill:#FFFFFF;" width="58.632" height="40.959"/>
				<polygon style="opacity:0.2;" points="216.536,378.265 201.816,378.265 201.816,419.224 260.448,419.224 216.536,417.952 				
					"/>
				<rect x="206.968" y="378.265" style="opacity:0.7;fill:#FFFFFF;" width="3.56" height="2.273"/>
				<rect x="206.968" y="416.951" style="opacity:0.7;fill:#FFFFFF;" width="3.56" height="2.273"/>
			</g>
			<g>
				<g>
					<g>
						<polygon style="fill:#263238;" points="254.844,390.141 254.83,390.178 252.967,394.896 252.267,396.671 250.953,394.293 
							248.369,395.133 250.948,388.603 252.585,389.25 254.745,390.103 						"/>
						<g style="opacity:0.2;">
							<path style="fill:#FFFFFF;" d="M252.284,395.802l-1.124-2.035l-2.21,0.718l2.231-5.651l3.334,1.316L252.284,395.802z
								 M251.202,393.663l1.069,1.936l2.132-5.401l-3.173-1.253l-2.132,5.401L251.202,393.663z"/>
						</g>
					</g>
					<path style="opacity:0.2;" d="M254.83,390.178l-1.863,4.719c-1.13-2.575-1.217-5.187-1.217-5.187l0.835-0.46l2.161,0.854
						L254.83,390.178z"/>
					<g>
						<polygon style="fill:#263238;" points="254.407,396.671 255.72,394.293 258.303,395.133 255.725,388.603 251.829,390.141 
													"/>
						<g style="opacity:0.2;">
							<path style="fill:#FFFFFF;" d="M252.158,390.15l3.334-1.316l2.231,5.651l-2.21-0.718l-1.124,2.035L252.158,390.15z
								 M257.575,394.347l-2.132-5.401l-3.173,1.253l2.132,5.401l1.069-1.936L257.575,394.347z"/>
						</g>
					</g>
				</g>
				<g>
					<polygon style="fill:#407BFF;" points="253.336,380.898 253.797,380.538 254.187,380.975 254.705,380.703 255.01,381.202 
						255.568,381.027 255.779,381.572 256.36,381.5 256.47,382.074 257.054,382.106 257.06,382.691 257.629,382.827 257.53,383.404 
						258.066,383.639 257.866,384.189 258.351,384.516 258.056,385.021 258.475,385.43 258.094,385.874 258.433,386.351 
						257.979,386.72 258.228,387.25 257.716,387.532 257.866,388.098 257.311,388.284 257.358,388.867 256.779,388.952 
						256.72,389.534 256.136,389.513 255.974,390.076 255.403,389.951 255.144,390.476 254.603,390.251 254.255,390.721 
						253.763,390.404 253.336,390.804 252.909,390.404 252.418,390.721 252.069,390.251 251.529,390.476 251.27,389.951 
						250.698,390.076 250.537,389.513 249.952,389.534 249.894,388.952 249.315,388.867 249.362,388.284 248.807,388.098 
						248.957,387.532 248.445,387.25 248.693,386.72 248.24,386.351 248.579,385.874 248.198,385.43 248.617,385.021 
						248.322,384.516 248.807,384.189 248.607,383.639 249.143,383.404 249.044,382.827 249.613,382.691 249.619,382.106 
						250.203,382.074 250.313,381.5 250.894,381.572 251.105,381.027 251.663,381.202 251.968,380.703 252.486,380.975 
						252.875,380.538 					"/>
					<path style="opacity:0.2;" d="M257.761,385.671c0,2.444-1.981,4.424-4.425,4.424s-4.424-1.981-4.424-4.424
						s1.981-4.424,4.424-4.424S257.761,383.227,257.761,385.671z"/>
					<g>
						<path style="fill:#407BFF;" d="M251.276,385.837l1.043-0.091c0,0,0.191-0.751,0.073-2.37c0,0,0.36-0.066,0.539-0.027
							c0.179,0.039,0.367,1.838,0.367,1.838s1.872-0.258,1.979-0.185c0.068,0.047,0.103,0.324,0.119,0.521
							c0.01,0.115-0.064,0.22-0.175,0.25l-0.064,0.017l0.035,1.801c0.003,0.139-0.103,0.256-0.242,0.267l-1.753,0.139
							c-0.173,0.014-0.347-0.025-0.498-0.112l-0.2-0.116l-1.076,0.154L251.276,385.837z"/>
						<path style="opacity:0.7;fill:#FFFFFF;enable-background:new    ;" d="M251.276,385.837l1.043-0.091
							c0,0,0.191-0.751,0.073-2.37c0,0,0.36-0.066,0.539-0.027c0.179,0.039,0.367,1.838,0.367,1.838s1.872-0.258,1.979-0.185
							c0.068,0.047,0.103,0.324,0.119,0.521c0.01,0.115-0.064,0.22-0.175,0.25l-0.064,0.017l0.035,1.801
							c0.003,0.139-0.103,0.256-0.242,0.267l-1.753,0.139c-0.173,0.014-0.347-0.025-0.498-0.112l-0.2-0.116l-1.076,0.154
							L251.276,385.837z"/>
					</g>
				</g>
			</g>
		</g>
	</g>
</g>
<g id="Badge">
	<g>
		<g>
			<g>
				<polygon style="fill:#263238;" points="276.584,201.592 276.504,201.802 265.724,229.102 261.674,239.372 254.074,225.612 
					239.124,230.472 254.044,192.692 263.515,196.432 276.015,201.372 				"/>
				<g style="opacity:0.2;">
					<path style="fill:#FFFFFF;" d="M261.775,234.342l-6.501-11.771l-12.788,4.156l12.909-32.698l19.289,7.615L261.775,234.342z
						 M255.512,221.967l6.187,11.203l12.335-31.246l-18.359-7.248l-12.336,31.246L255.512,221.967z"/>
				</g>
			</g>
			<path style="opacity:0.2;" d="M276.504,201.802l-10.78,27.3c-6.54-14.9-7.04-30.01-7.04-30.01l4.83-2.66l12.5,4.94
				L276.504,201.802z"/>
			<g>
				<polygon style="fill:#263238;" points="274.054,239.37 281.652,225.612 296.599,230.469 281.684,192.688 259.139,201.589 				
					"/>
				<g style="opacity:0.2;">
					<path style="fill:#FFFFFF;" d="M261.042,201.643l19.29-7.615l12.909,32.698l-12.789-4.156l-6.501,11.771L261.042,201.643z
						 M292.385,225.923l-12.335-31.246l-18.359,7.248l12.336,31.246l6.188-11.203L292.385,225.923z"/>
				</g>
			</g>
		</g>
		<g>
			<polygon style="fill:#407BFF;" points="267.862,148.113 270.529,146.029 272.782,148.556 275.779,146.981 277.544,149.87 
				280.774,148.856 281.994,152.014 285.353,151.592 285.991,154.917 289.371,155.102 289.405,158.488 292.697,159.273 
				292.126,162.61 295.226,163.971 294.067,167.153 296.874,169.046 295.167,171.969 297.59,174.332 295.388,176.904 
				297.351,179.662 294.725,181.799 296.164,184.863 293.199,186.497 294.067,189.769 290.858,190.847 291.128,194.221 
				287.778,194.709 287.441,198.077 284.058,197.959 283.125,201.213 279.817,200.493 278.318,203.528 275.192,202.228 
				273.175,204.947 270.332,203.111 267.862,205.426 265.392,203.111 262.548,204.947 260.531,202.228 257.405,203.528 
				255.907,200.493 252.599,201.213 251.666,197.959 248.283,198.077 247.946,194.709 244.596,194.221 244.866,190.847 
				241.657,189.769 242.525,186.497 239.56,184.863 240.999,181.799 238.373,179.662 240.335,176.904 238.133,174.332 
				240.557,171.969 238.85,169.046 241.656,167.153 240.498,163.971 243.598,162.61 243.026,159.273 246.319,158.488 
				246.353,155.102 249.733,154.917 250.37,151.592 253.729,152.014 254.95,148.856 258.18,149.87 259.945,146.981 262.942,148.556 
				265.194,146.029 			"/>
			
				<ellipse transform="matrix(0.7071 -0.7071 0.7071 0.7071 -45.803 240.8763)" style="opacity:0.2;" cx="267.862" cy="175.727" rx="25.599" ry="25.599"/>
			<g>
				<path style="fill:#407BFF;" d="M255.939,176.691l6.037-0.529c0,0,1.107-4.348,0.422-13.713c0,0,2.085-0.383,3.121-0.159
					c1.036,0.224,2.12,10.635,2.12,10.635s10.833-1.494,11.45-1.068c0.392,0.27,0.595,1.877,0.691,3.015
					c0.056,0.665-0.371,1.274-1.015,1.447l-0.371,0.1l0.203,10.422c0.016,0.803-0.597,1.48-1.398,1.544l-10.145,0.806
					c-1.004,0.08-2.008-0.147-2.88-0.65l-1.159-0.669l-6.224,0.89L255.939,176.691z"/>
				<path style="opacity:0.7;fill:#FFFFFF;enable-background:new    ;" d="M255.939,176.691l6.037-0.529
					c0,0,1.107-4.348,0.422-13.713c0,0,2.085-0.383,3.121-0.159c1.036,0.224,2.12,10.635,2.12,10.635s10.833-1.494,11.45-1.068
					c0.392,0.27,0.595,1.877,0.691,3.015c0.056,0.665-0.371,1.274-1.015,1.447l-0.371,0.1l0.203,10.422
					c0.016,0.803-0.597,1.48-1.398,1.544l-10.145,0.806c-1.004,0.08-2.008-0.147-2.88-0.65l-1.159-0.669l-6.224,0.89
					L255.939,176.691z"/>
			</g>
		</g>
	</g>
</g>
<g id="Character">
	<g>
		<g>
			<path style="fill:#E4897B;" d="M317.574,203.684l-8.595-4.524l5.105-6.786c0,0,6.452,2.318,6.601,7.972L317.574,203.684z"/>
			<polygon style="fill:#E4897B;" points="305.089,193.445 310.105,189.298 314.084,192.374 308.979,199.16 			"/>
		</g>
		<path style="fill:#407BFF;" d="M355.687,190.62c-1.499,0.323-3.218,0.95-4.641,1.836c-1.442,0.87-2.59,1.857-3.533,2.771
			c-1.921,1.849-3.332,3.624-4.772,5.371c-2.774,3.456-5.365,6.857-7.991,10.284c-0.458-0.283-0.934-0.6-1.412-0.936
			c-0.817-0.56-1.642-1.175-2.464-1.815c-3.294-2.563-6.639-5.41-9.957-8.175l-4.074,3.536c2.498,3.822,5.191,7.379,8.33,10.805
			c1.605,1.709,3.207,3.373,5.46,4.998c0.582,0.409,1.204,0.821,2.035,1.228c0.425,0.204,0.903,0.402,1.514,0.575
			c0.635,0.162,1.415,0.337,2.567,0.229c0.28-0.027,0.578-0.075,0.92-0.167c0.317-0.079,0.653-0.195,1.002-0.36
			c0.672-0.301,1.339-0.79,1.83-1.315l0.731-0.802l1.116-1.229c2.968-3.267,5.872-6.65,8.693-9.886
			c1.393-1.609,2.817-3.204,4.057-4.41c0.627-0.619,1.177-1.053,1.618-1.316c0.451-0.262,0.805-0.436,1.445-0.618L355.687,190.62z"
			/>
		<path style="opacity:0.7;fill:#FFFFFF;" d="M358.163,201.222c-0.64,0.18-0.99,0.36-1.44,0.62c-0.45,0.26-1,0.7-1.62,1.32
			c-0.52,0.51-1.08,1.09-1.65,1.71c-0.79,0.84-1.61,1.77-2.41,2.7c-1.77,2.03-3.58,4.12-5.42,6.21c-1.07,1.23-2.17,2.46-3.27,3.67
			l-1.12,1.23l-0.73,0.8c-0.49,0.53-1.16,1.02-1.83,1.32c-0.35,0.16-0.68,0.28-1,0.36c-0.34,0.09-0.64,0.14-0.92,0.17
			c-1.15,0.1-1.93-0.07-2.57-0.23c-0.61-0.18-1.09-0.37-1.51-0.58c-0.83-0.41-1.46-0.82-2.04-1.23c-2.25-1.62-3.85-3.29-5.46-4.99
			c-3.14-3.43-5.83-6.99-8.33-10.81l4.08-3.54c3.31,2.77,6.66,5.62,9.95,8.18c0.82,0.64,1.65,1.25,2.47,1.81
			c0.47,0.34,0.95,0.66,1.41,0.94c2.62-3.43,5.21-6.83,7.99-10.28c1.44-1.75,2.85-3.53,4.77-5.38c0.94-0.91,2.09-1.9,3.53-2.77
			c1.43-0.88,3.15-1.51,4.64-1.83L358.163,201.222z"/>
		<path style="opacity:0.1;" d="M353.453,204.872c-0.79,0.84-1.61,1.77-2.41,2.7c-1.77,2.03-3.58,4.12-5.42,6.21
			c0.86-8.21,6.75-11.63,6.75-11.63C352.923,202.932,353.263,203.852,353.453,204.872z"/>
		<path style="fill:#407BFF;" d="M395.454,192.907c0,0.009-0.01,0.019-0.01,0.028c-2.089,5.955-3.457,12.897-4.35,19.849
			c-0.703,5.508-1.111,11.017-1.339,16.041c-0.228,5.148-0.256,9.782-0.228,13.382c0.048,4.692,0.209,7.626,0.209,7.626H349.43
			c-5.708-40.857,5.812-59.291,5.812-59.291s4.236-0.855,9.165-1.149c0.646-0.048,1.301-0.066,1.975-0.085
			c4.34-0.095,11.425,0.541,16.316,1.111c1.026,0.114,2.061,0.266,3.077,0.427C390.914,191.672,395.454,192.907,395.454,192.907z"/>
		<path style="opacity:0.7;fill:#FFFFFF;" d="M395.453,192.902c0,0.01-0.01,0.02-0.01,0.03c-0.93,2.63-1.71,5.46-2.37,8.38
			c-0.68,3.02-1.23,6.14-1.69,9.29c-0.1,0.73-0.2,1.45-0.29,2.18c-0.45,3.56-0.78,7.12-1.02,10.54c-0.13,1.88-0.24,3.72-0.32,5.5
			c-0.13,3.18-0.2,6.17-0.22,8.83c-0.01,1.65-0.01,3.18,0,4.55c0.04,4.7,0.2,7.63,0.2,7.63h-40.3c-5.71-40.86,5.81-59.29,5.81-59.29
			s4.24-0.86,9.16-1.15c0.65-0.05,1.31-0.07,1.98-0.08c4.34-0.1,11.43,0.54,16.32,1.11c1.02,0.11,2.06,0.26,3.07,0.42
			C390.913,191.672,395.453,192.902,395.453,192.902z"/>
		<path style="fill:#407BFF;" d="M325.786,251.945"/>
		<path d="M319.366,416.766c0,0,13.42-3.956,14.402-9.24c0.096-0.518,0.531-0.863,1.084-0.771l9.746,1.63
			c0.455,0.076,0.854,0.425,0.993,0.869l2.974,9.482l-2.757,0.086l-1.02-1.36l-1.156,1.428c-14.961,0.468-21.431,0.51-24.421-0.33
			C318.741,417.254,319.366,416.766,319.366,416.766z"/>
		<path d="M373.4,416.766c0,0,13.42-3.956,14.402-9.24c0.096-0.518,0.531-0.863,1.084-0.771l9.746,1.63
			c0.455,0.076,0.853,0.425,0.993,0.869l2.974,9.482l-2.757,0.086l-1.02-1.36l-1.156,1.428c-14.961,0.468-21.431,0.51-24.421-0.33
			C372.775,417.254,373.4,416.766,373.4,416.766z"/>
		<g>
			<path style="fill:#263238;" d="M376.857,251.532c0,0,0,0,0,0.01c-0.08,0.24-2.49,7.8-5.74,18.64c-0.18,0.62-0.37,1.26-0.56,1.9
				c-1.53,5.16-3.22,10.96-4.92,17.02c-2.08,7.37-4.17,15.12-6.02,22.54c-2.67,10.73-4.83,20.77-5.69,28.01
				c-2.81,23.77-8.28,70.7-8.28,70.7l-12.64-3.24c0,0-2.31-50.82,0.09-75.1c1.53-15.43,8.39-46.84,12.88-66.36
				c2.29-10.02,3.96-16.91,3.96-16.91l14.52,1.51L376.857,251.532z"/>
		</g>
		<path style="opacity:0.2;" d="M359.616,311.643c3.368-13.522,7.536-28.126,10.937-39.557l-2.655-6.121
			C361.021,273.688,358.638,298.233,359.616,311.643z"/>
		<g>
			<path style="fill:#263238;" d="M400.297,409.612l-14.02,1.36c0,0-16.17-47.06-18.24-71.68c-0.9-10.71-1.76-31.43-2.4-50.19
				c-0.48-13.74-0.84-26.42-1.04-33.35c-0.09-3.47-0.14-5.5-0.14-5.5l12.4,1.29l13.273,0.403c0,0,0.624,3.054,0.437,15.957
				c-0.29,20.032-0.96,55.29-0.58,74.24C390.487,366.692,400.297,409.612,400.297,409.612z"/>
		</g>
		<g>
			<path style="fill:#E4897B;" d="M379.242,173.314l-9.883,8.635c1.095,4.072-0.522,7.896-2.495,8.648l1.471,4.07l12.211-4.696
				C377.417,186.776,378.305,178.574,379.242,173.314z"/>
			<path style="opacity:0.2;" d="M375.214,176.837l-5.849,5.107c0.262,0.964,0.471,1.942,0.556,2.893
				c2.235-0.341,5.269-2.822,5.465-5.166C375.483,178.502,375.414,177.38,375.214,176.837z"/>
			<path style="fill:#407BFF;" d="M379.546,187.528c0,0-7.565,2.38-8.636,3.006c-1.07,0.626-2.306,3.632-2.306,3.632
				s0.828-3.093,0.406-4.865s-1.174-1.772-1.174-1.772l-1.939,3.967c0,0-0.407,3.422,2.707,3.923
				c3.114,0.501,12.587-5.172,12.587-5.172L379.546,187.528z"/>
			<path style="opacity:0.6;fill:#FFFFFF;" d="M379.546,187.528c0,0-7.565,2.38-8.636,3.006c-1.07,0.626-2.306,3.632-2.306,3.632
				s0.828-3.093,0.406-4.865s-1.174-1.772-1.174-1.772l-1.939,3.967c0,0-0.407,3.422,2.707,3.923
				c3.114,0.501,12.587-5.172,12.587-5.172L379.546,187.528z"/>
		</g>
		<g>
			<path style="fill:#263238;" d="M361.48,158.778c-1.78,2.107,0.283,4.802,0.2,6.865c-0.083,2.063-0.439,4.749,2.206,1.908
				C366.53,164.71,364.262,155.858,361.48,158.778z"/>
			<path style="fill:#FF8B7B;" d="M379.931,167.791c-0.89,6.882,0.023,8.052-3.71,11.334c-5.616,4.938-14.279,5.406-15.057-1.679
				c-0.7-6.377-0.59-17.841,6.368-20.076C374.387,155.168,380.821,160.908,379.931,167.791z"/>
			<path style="fill:#263238;" d="M378.915,172.424c-3.107,1.877-4.116-2.497-3.901-2.836c0.94-1.482,0.89-2.742-0.232-5.57
				c-1.122-2.828,4.551-6.099,8.674-4.877c3.797,1.126-0.046,4.086,0.445,6.558C384.775,170.104,381.419,170.911,378.915,172.424z"
				/>
			<path style="fill:#FFFFFF;" d="M363.393,175.212c0,0,1.954-0.517,7.474-0.806c-0.605,1.554-1.778,2.859-4.605,2.982
				C363.434,177.512,363.393,175.212,363.393,175.212z"/>
			<path style="fill:#FF8B7B;" d="M382.779,172.617c-0.789,1.615-2.141,2.711-3.404,3.163c-1.901,0.68-2.805-1.196-2.238-3.241
				c0.51-1.841,2.115-4.412,4.004-4.202C383.003,168.543,383.682,170.77,382.779,172.617z"/>
			<path style="fill:#263238;" d="M371.522,167.936c-0.062,0.588-0.335,0.622-0.719,0.578c-0.385-0.044-0.736-0.149-0.674-0.737
				c0.062-0.588,0.424-1.029,0.809-0.985C371.323,166.836,371.584,167.348,371.522,167.936z"/>
			<path style="fill:#263238;" d="M364.284,167.908c-0.062,0.588-0.335,0.622-0.719,0.578c-0.385-0.044-0.736-0.149-0.674-0.737
				c0.062-0.588,0.424-1.029,0.809-0.985C364.084,166.808,364.345,167.32,364.284,167.908z"/>
			<path style="fill:#FF5652;" d="M365.415,167.716c0,0-1.147,2.563-2.338,3.766c0.77,0.791,2.151,0.521,2.151,0.521
				L365.415,167.716z"/>
			<path style="fill:#263238;" d="M372.789,165.362c0.057-0.009,0.113-0.032,0.161-0.07c0.15-0.118,0.175-0.337,0.055-0.488
				c-1.2-1.512-2.8-1.392-2.867-1.386c-0.191,0.016-0.331,0.185-0.313,0.376c0.018,0.191,0.187,0.332,0.378,0.316l0,0
				c0.053-0.004,1.301-0.085,2.259,1.122C372.542,165.335,372.669,165.381,372.789,165.362z"/>
			<path style="fill:#263238;" d="M360.84,166.541c0.11,0.026,0.229-0.002,0.316-0.085c1.108-1.052,2.33-0.781,2.381-0.769
				c0.186,0.044,0.372-0.072,0.415-0.258c0.043-0.186-0.072-0.373-0.258-0.419c-0.068-0.015-1.63-0.379-3.018,0.938
				c-0.139,0.132-0.144,0.352-0.011,0.492C360.715,166.492,360.776,166.526,360.84,166.541z"/>
			<path style="fill:#263238;" d="M369.057,159.988c0,0-5.209,2.308-7.517-2.242c-2.308-4.549,3.875-7.253,3.875-7.253
				s-0.806,1.582,0,3.165c0,0,1.049-3.297,5.411-2.242c4.362,1.055,11.301,2.422,12.735,4.747c1.253,2.031,0.33,3.758,0.33,3.758
				l-7.117,1.714C376.774,161.637,374.002,157.219,369.057,159.988z"/>
		</g>
		<path style="fill:#263238;" d="M348.984,246.392l-0.31,7.651l41.915,6.758c0-6.617-1.038-15.229-1.038-15.229L348.984,246.392z"/>
		<g>
			<g>
				<polygon style="fill:#263238;" points="389.328,249.549 390.188,249.534 389.892,246.758 389.128,246.771 				"/>
				<polygon style="fill:#263238;" points="357.442,250.097 374.748,249.799 374.561,247.027 357.325,247.331 				"/>
				<polygon style="fill:#263238;" points="355.991,247.354 348.673,247.483 348.673,250.248 356.081,250.12 				"/>
				<polygon style="fill:#263238;" points="387.792,246.795 375.892,247.004 376.105,249.776 387.966,249.572 				"/>
			</g>
			<g style="opacity:0.2;">
				<polygon style="fill:#FFFFFF;" points="389.328,249.549 390.188,249.534 389.892,246.758 389.128,246.771 				"/>
				<polygon style="fill:#FFFFFF;" points="357.442,250.097 374.748,249.799 374.561,247.027 357.325,247.331 				"/>
				<polygon style="fill:#FFFFFF;" points="355.991,247.354 348.673,247.483 348.673,250.248 356.081,250.12 				"/>
				<polygon style="fill:#FFFFFF;" points="387.792,246.795 375.892,247.004 376.105,249.776 387.966,249.572 				"/>
			</g>
			<g>
				<path style="fill:none;stroke:#FFFFFF;stroke-width:0.75;stroke-miterlimit:10;" d="M362.641,247.761l0.093,1.684
					c0.015,0.268,0.236,0.477,0.504,0.477l4.321-0.007c0.292-0.001,0.523-0.249,0.502-0.54l-0.125-1.753
					c-0.019-0.267-0.244-0.473-0.512-0.469l-4.289,0.076C362.85,247.234,362.625,247.475,362.641,247.761z"/>
				
					<line style="fill:none;stroke:#FFFFFF;stroke-width:0.75;stroke-linecap:round;stroke-linejoin:round;stroke-miterlimit:10;" x1="366.09" y1="248.503" x2="367.408" y2="248.503"/>
			</g>
		</g>
		<path style="opacity:0.1;" d="M393.073,201.312c-0.68,3.02-1.23,6.14-1.69,9.29c-1.41-3.92-0.79-8.45-0.79-8.45
			C391.483,201.522,392.313,201.262,393.073,201.312z"/>
		<path style="opacity:0.1;" d="M390.073,223.322c-0.13,1.88-0.24,3.72-0.32,5.5c-0.13,3.18-0.2,6.17-0.22,8.83
			c-4.22-1.75-11.86-5.21-12.76-7.91c-1.25-3.75,0.82-5.47,0.82-5.47S385.533,224.152,390.073,223.322z"/>
		<g>
			<path style="fill:#E4897B;" d="M371.614,222.59l-2.13,0.643c-1.089,0.329-1.786,1.391-1.654,2.521l0.324,2.775
				c0.12,1.031,0.903,1.86,1.925,2.04l1.279,0.226c0,0,4.263,2.788,8.28-1.193l0.061-4.563l-6.6-2.408
				C372.621,222.458,372.1,222.443,371.614,222.59z"/>
			<path style="fill:#E4897B;" d="M377.595,224.897c0,0-1.987-3.66-2.056-5.869c-0.07-2.208-1.988,0.371-1.046,1.989
				c0.942,1.618-0.737,2.722-0.737,2.722L377.595,224.897z"/>
		</g>
		<g>
			<path style="fill:#407BFF;" d="M407.339,223.887l-0.073-0.515l-0.065-0.375l-0.076-0.421l-0.152-0.841
				c-0.81-4.492-1.723-8.967-2.886-13.505c-0.597-2.275-1.233-4.552-2.149-6.956c-0.48-1.215-0.974-2.438-1.808-3.874
				c-0.431-0.717-0.927-1.507-1.784-2.394c-0.448-0.447-0.962-0.913-1.684-1.359c-0.7-0.438-1.582-0.823-2.501-1.019
				c0,0-2.405,1.1-3.164,4.744c-0.659,3.165-0.468,5.321-0.328,5.575c0.306,0.514,0.685,1.381,1.024,2.265
				c0.693,1.814,1.352,3.866,1.977,5.933c1.237,4.092,2.375,8.335,3.542,12.576c-0.5,0.149-1.07,0.282-1.667,0.402
				c-0.937,0.185-1.948,0.318-2.98,0.419c-4.142,0.412-8.643,0.476-13.009,0.493l-0.823,5.331c4.566,1.278,9.081,2.168,13.967,2.481
				c1.224,0.062,2.469,0.09,3.776,0.035c1.31-0.052,2.663-0.197,4.211-0.589c0.777-0.206,1.609-0.476,2.546-0.965
				c0.926-0.514,2.049-1.237,2.982-2.66c0.459-0.684,0.815-1.541,0.996-2.383C407.407,225.424,407.404,224.625,407.339,223.887z"/>
			<path style="opacity:0.7;fill:#FFFFFF;" d="M407.339,223.887l-0.073-0.515l-0.065-0.375l-0.076-0.421l-0.152-0.841
				c-0.81-4.492-1.723-8.967-2.886-13.505c-0.597-2.275-1.233-4.552-2.149-6.956c-0.48-1.215-0.974-2.438-1.808-3.874
				c-0.431-0.717-0.927-1.507-1.784-2.394c-0.448-0.447-0.962-0.913-1.684-1.359c-0.7-0.438-1.582-0.823-2.501-1.019
				c0,0-2.405,1.1-3.164,4.744c-0.659,3.165-0.468,5.321-0.328,5.575c0.306,0.514,0.685,1.381,1.024,2.265
				c0.693,1.814,1.352,3.866,1.977,5.933c1.237,4.092,2.375,8.335,3.542,12.576c-0.5,0.149-1.07,0.282-1.667,0.402
				c-0.937,0.185-1.948,0.318-2.98,0.419c-4.142,0.412-8.643,0.476-13.009,0.493l-0.823,5.331c4.566,1.278,9.081,2.168,13.967,2.481
				c1.224,0.062,2.469,0.09,3.776,0.035c1.31-0.052,2.663-0.197,4.211-0.589c0.777-0.206,1.609-0.476,2.546-0.965
				c0.926-0.514,2.049-1.237,2.982-2.66c0.459-0.684,0.815-1.541,0.996-2.383C407.407,225.424,407.404,224.625,407.339,223.887z"/>
		</g>
	</g>
</g>
</svg>
