<?xml version="1.0" encoding="utf-8"?>
<!-- Generator: Adobe Illustrator 27.5.0, SVG Export Plug-In . SVG Version: 6.00 Build 0)  -->
<svg version="1.1" id="_x31_" xmlns="http://www.w3.org/2000/svg" xmlns:xlink="http://www.w3.org/1999/xlink" x="0px" y="0px"
	 viewBox="0 0 395 270" style="enable-background:new 0 0 395 270;" xml:space="preserve">
<g>
	<g>
		<path style="fill:#DFCAEF;" d="M66.332,248.618c0,0-39.834-12.195-41.438-59.234c-1.5-44,18.25-48.75,31.75-78.25
			c8.401-18.358-0.25-42.25,36.75-67.75c44.621-30.752,169.979-38.558,242.75,44.25c29,33,60,119.5-12.903,160.983L66.332,248.618z"
			/>
		<path style="opacity:0.4;fill:#B1B7CC;" d="M27.477,190.635c-1.456-42.707,25.23-46.034,38.333-74.667
			c8.154-17.819-6.579-46.249,29.333-71c43.31-29.849,168.701-35.708,239.333,44.667c23.122,26.312,42.498,89.963,16.48,135.652
			c35.164-44.818,9.481-110.007-14.814-137.652c-72.771-82.809-198.129-75.003-242.75-44.25c-37,25.5-28.349,49.392-36.75,67.75
			c-13.5,29.5-33.25,34.25-31.75,78.25c1.604,47.039,41.438,59.233,41.438,59.233h13.109
			C67.624,244.798,28.796,229.326,27.477,190.635z"/>
		<path style="opacity:0.4;fill:#B1B7CC;" d="M363.042,203.512c-33.67,20.618-95.66,34.453-166.601,34.453
			c-73.561,0-137.531-14.868-170.246-36.758c7.129,37.3,40.137,47.41,40.137,47.41h256.909
			C344.406,236.574,356.801,220.734,363.042,203.512z"/>
		<g>
			<path style="fill:#DFCAEF;" d="M350.458,101.179c-7.983-19.717-22.908-34.317-40.331-47.001
				c-19.33-14.109-36.365-21.336-56.383-26.626l-0.049-0.013c-0.802-0.212-1.28-1.033-1.068-1.835
				c0.195-0.739,0.909-1.203,1.647-1.105c18.161,2.384,36.283,8.55,58.852,25.515c17.41,13.044,32.781,29.638,39.056,50.456
				c0.146,0.484-0.128,0.995-0.612,1.141C351.115,101.849,350.634,101.611,350.458,101.179z"/>
			<path style="fill:#DFCAEF;" d="M339.461,69.059c-5.091-8.148-8.497-12.024-14.339-17.751
				c-9.295-8.369-14.47-10.941-18.387-13.064l-0.076-0.041c-1.288-0.698-1.766-2.308-1.068-3.596
				c0.698-1.288,2.308-1.766,3.596-1.068c2.167,1.174,9.659,6.083,18.423,15.324c5.578,6.383,8.795,10.706,13.309,19.363
				c0.215,0.411,0.055,0.919-0.357,1.133C340.171,69.563,339.691,69.426,339.461,69.059z"/>
			<path style="fill:#DFCAEF;" d="M54.509,82.632c3.079-13.116,7.734-23.865,16.691-34.416c7.575-8.975,20.14-19.071,31.887-21.198
				c0.732-0.133,1.434,0.354,1.566,1.086c0.108,0.595-0.193,1.17-0.703,1.436l-0.082,0.042c-5.826,3.027-18.16,7.668-29.698,21.176
				c-9.02,10.484-13.374,21.41-17.181,32.577l-0.002,0.007c-0.23,0.675-0.963,1.035-1.638,0.805
				C54.716,83.933,54.361,83.27,54.509,82.632z"/>
		</g>
		<g style="opacity:0.4;">
			<path style="fill:#B1B7CC;" d="M350.458,101.179c-7.983-19.717-22.908-34.317-40.331-47.001
				c-19.33-14.109-36.365-21.336-56.383-26.626l-0.049-0.013c-0.802-0.212-1.28-1.033-1.068-1.835
				c0.195-0.739,0.909-1.203,1.647-1.105c18.161,2.384,36.283,8.55,58.852,25.515c17.41,13.044,32.781,29.638,39.056,50.456
				c0.146,0.484-0.128,0.995-0.612,1.141C351.115,101.849,350.634,101.611,350.458,101.179z"/>
			<path style="fill:#B1B7CC;" d="M339.461,69.059c-5.091-8.148-8.497-12.024-14.339-17.751
				c-9.295-8.369-14.47-10.941-18.387-13.064l-0.076-0.041c-1.288-0.698-1.766-2.308-1.068-3.596
				c0.698-1.288,2.308-1.766,3.596-1.068c2.167,1.174,9.659,6.083,18.423,15.324c5.578,6.383,8.795,10.706,13.309,19.363
				c0.215,0.411,0.055,0.919-0.357,1.133C340.171,69.563,339.691,69.426,339.461,69.059z"/>
			<path style="fill:#B1B7CC;" d="M54.509,82.632c3.079-13.116,7.734-23.865,16.691-34.416c7.575-8.975,20.14-19.071,31.887-21.198
				c0.732-0.133,1.434,0.354,1.566,1.086c0.108,0.595-0.193,1.17-0.703,1.436l-0.082,0.042c-5.826,3.027-18.16,7.668-29.698,21.176
				c-9.02,10.484-13.374,21.41-17.181,32.577l-0.002,0.007c-0.23,0.675-0.963,1.035-1.638,0.805
				C54.716,83.933,54.361,83.27,54.509,82.632z"/>
		</g>
	</g>
	<g>
		<g>
			<g>
				<path style="fill:#FCF2FA;" d="M55.593,236.13l0.886-30.255c0,0,2.98-1.617,6.02,0.001l-0.043,0.536
					c0.527,0.31,1.065,0.708,1.601,1.216c0,0-0.987,18.81-0.953,28.076L55.593,236.13z"/>
				<g>
					<path style="fill:#D9C5D4;" d="M55.441,212.256l-0.357-0.674c0.089-0.073,2.251-1.779,7.734-0.357l-0.118,0.786
						C57.514,210.667,55.461,212.24,55.441,212.256z"/>
					<path style="fill:#D9C5D4;" d="M54.558,230.137l-0.242-0.781c0.09-0.043,2.264-1.07,7.793-0.338l-0.055,0.83
						C56.711,229.139,54.579,230.126,54.558,230.137z"/>
				</g>
				<path style="fill:#CCB6C6;" d="M56.48,205.875l-0.886,30.255l1.884-0.075c0.015-0.769,0.027-1.606,0.035-2.526
					c0.167-19.095,1.232-27.158,1.494-28.344C57.527,205.313,56.48,205.875,56.48,205.875z"/>
				<path style="fill:#D9C5D4;" d="M55.441,212.256l-0.357-0.674c0.089-0.073,2.251-1.779,7.734-0.357l-0.118,0.786
					C57.514,210.667,55.461,212.24,55.441,212.256z"/>
				<path style="fill:#D9C5D4;" d="M54.558,230.137l-0.242-0.781c0.09-0.043,2.264-1.07,7.793-0.338l-0.055,0.83
					C56.711,229.139,54.579,230.126,54.558,230.137z"/>
				<path style="fill:#CCB6C6;" d="M56.48,205.875l-0.886,30.255l1.884-0.075c0.015-0.769,0.027-1.606,0.035-2.526
					c0.167-19.095,1.232-27.158,1.494-28.344C57.527,205.313,56.48,205.875,56.48,205.875z"/>
				<g>
					<path style="fill:#C7AEBF;" d="M55.779,229.805c0.455-0.082,1.044-0.157,1.782-0.192c0.005-0.283,0.009-0.562,0.014-0.839
						c-0.717,0.031-1.304,0.1-1.771,0.179L55.779,229.805z"/>
					<path style="fill:#C7AEBF;" d="M58.373,210.669c-0.861,0.036-1.535,0.17-2.043,0.325l-0.025,0.847
						c0.463-0.159,1.122-0.313,2.003-0.36C58.329,211.201,58.351,210.93,58.373,210.669z"/>
				</g>
				<path style="fill:#D6C2D1;" d="M63.108,234.092c0.069-9.683,0.949-26.464,0.949-26.464c-0.536-0.508-1.073-0.906-1.601-1.216
					c0,0-0.846,14.238-1.059,27.344L63.108,234.092z"/>
			</g>
			<g>
				<path style="fill:#FCF2FA;" d="M43.827,235.286c0,0,0.042-24.889,0.521-46.796c0,0,4.123-2.564,8.782-1.475l-0.036,0.773
					c1.272,0.324,2.604,0.87,3.938,1.736c0,0-0.556,31.574-1.065,45.935L43.827,235.286z"/>
				<path style="fill:#D9C5D4;" d="M52.126,235.008c0,0.134,0.002,0.261,0.003,0.393l3.837,0.057
					c0.509-14.361,1.065-45.935,1.065-45.935c-1.334-0.866-2.665-1.412-3.938-1.736C53.094,187.787,52.111,209.525,52.126,235.008z"
					/>
				<path style="fill:#CCB6C6;" d="M53.094,187.787c0,0-0.982,21.738-0.968,47.222c0,0.134,0.002,0.261,0.003,0.393l0.984,0.015
					c-0.015-0.824-0.033-1.7-0.054-2.629c-0.616-27.054,1.243-42.217,1.55-44.512C54.097,188.074,53.591,187.913,53.094,187.787z"/>
				<g>
					<path style="fill:#D9C5D4;" d="M50.611,193.897c-0.065,3.421-0.553,28.978-0.824,39.365l0.66,0.031
						c0.282-11.108,0.798-39.488,0.804-39.765l0.007-0.388l-0.318-0.008c-3.684-0.084-5.755,0.69-6.708,1.198
						c-0.005,0.288-0.01,0.576-0.015,0.865C44.876,194.79,46.812,193.86,50.611,193.897z"/>
					<path style="fill:#D9C5D4;" d="M48.338,227.037l0.393-19.219h-0.33c-1.976,0-3.513,0.325-4.378,0.565
						c-0.003,0.275-0.007,0.55-0.01,0.823c0.753-0.218,2.195-0.552,4.059-0.588l-0.372,17.592c-0.688,0.012-2.356,0.066-3.835,0.311
						c-0.002,0.285-0.003,0.565-0.005,0.838c1.859-0.318,4.135-0.322,4.16-0.322H48.338z"/>
				</g>
			</g>
			<g>
				<path style="fill:#FCF2FA;" d="M31.87,235.35c-0.071-7.966-1.389-29.654-1.528-38.392c0,0,0.735-0.564,2.182-1.048
					c0,0-0.129-0.772-0.031-0.802c1.757-0.537,5.224-0.833,8.365,0.527c0,0,0.092,23.702,1.014,39.563L31.87,235.35z"/>
				<path style="fill:#D9C5D4;" d="M33.797,235.321l0.99-0.015c-0.083-1.795-0.19-4.205-0.32-7.309
					c-0.327-7.789-1.943-32.086-1.943-32.086c-0.434,0.145-0.797,0.296-1.102,0.439C32.245,205.277,33.346,226.347,33.797,235.321z"
					/>
				<g>
					<path style="fill:#D9C5D4;" d="M41.301,221.54c-1.065-0.122-3.078-0.318-5.023-0.318H35.93l0.526,12.926l0.66-0.056
						l-0.499-12.046c1.868,0.021,3.743,0.21,4.709,0.323C41.318,222.093,41.309,221.816,41.301,221.54z"/>
					<path style="fill:#D9C5D4;" d="M34.728,197.909l1.167,21.267h0.299c0.032,0,2.919,0.003,5.045,0.199
						c-0.007-0.274-0.015-0.547-0.022-0.82c-1.736-0.155-3.927-0.187-4.714-0.193l-1.093-19.671
						c2.589,0.034,4.525,0.447,5.476,0.699c-0.003-0.282-0.005-0.55-0.007-0.804c-1.067-0.274-3.094-0.677-5.804-0.677H34.728z"/>
				</g>
				<path style="fill:#D9C5D4;" d="M40.858,195.636c-0.419-0.182-0.843-0.333-1.269-0.459c-0.073,2.336-0.54,17.654-0.54,25.978
					c0,5.955,0.181,11.149,0.31,14.083l2.513-0.038C40.95,219.338,40.858,195.636,40.858,195.636z"/>
				<g>
					<path style="fill:#CCB6C6;" d="M40.882,199.12c0.001,0.082,0.001,0.165,0.002,0.249
						C40.884,199.285,40.883,199.202,40.882,199.12z"/>
					<path style="fill:#CCB6C6;" d="M41.302,221.573c0-0.011-0.001-0.022-0.001-0.033c-0.547-0.062-1.343-0.144-2.251-0.21
						c0,0.276,0.001,0.551,0.002,0.823c0.932,0.068,1.742,0.153,2.275,0.215C41.318,222.104,41.31,221.839,41.302,221.573z"/>
					<path style="fill:#CCB6C6;" d="M41.217,218.555c-0.685-0.061-1.441-0.103-2.154-0.132c-0.003,0.276-0.005,0.549-0.006,0.816
						c0.725,0.029,1.494,0.073,2.182,0.136C41.231,219.101,41.224,218.827,41.217,218.555z"/>
					<path style="fill:#CCB6C6;" d="M40.885,199.389c0-0.007,0-0.014,0-0.02c-0.001-0.084-0.002-0.167-0.002-0.249
						c-0.002-0.185-0.003-0.363-0.005-0.535c-0.357-0.092-0.821-0.198-1.382-0.298c-0.007,0.252-0.015,0.516-0.023,0.79
						C40.063,199.185,40.539,199.298,40.885,199.389L40.885,199.389z"/>
				</g>
			</g>
		</g>
		<g>
			<polygon style="fill:#6B6780;" points="65.565,248.618 66.529,231.786 29.687,231.786 30.651,248.618 			"/>
			<g>
				<path style="fill:#8C89A3;" d="M40.807,248.618c0.679-1.387,1.136-2.983,1.148-4.819c0.051-7.716-9.516-9.263-9.516-9.263
					l0.814,14.082H40.807z"/>
			</g>
			<polygon style="fill:#585469;" points="54.8,248.618 65.565,248.618 66.529,231.786 29.687,231.786 55.32,236.042 			"/>
		</g>
	</g>
	<g>
		<polygon style="opacity:0.4;fill:#B4AFCC;" points="245.588,48.184 260.807,63.016 288.015,62.627 304.513,79.123 296.101,84.369 
			246.112,79.721 		"/>
		<rect x="188.487" y="85.329" style="opacity:0.4;fill:#B4AFCC;" width="116.026" height="13.966"/>
		<g>
			<g>
				<polygon style="fill:#F8F7FC;" points="220.086,48.196 214.518,48.196 214.509,45.683 220.076,45.683 				"/>
				<polygon style="fill:#F8F7FC;" points="220.966,45.683 213.946,45.683 213.939,43.622 220.958,43.622 				"/>
				<polygon style="fill:#CAC5D6;" points="220.365,48.196 216.963,48.196 216.958,45.683 220.359,45.683 				"/>
				<polygon style="fill:#CAC5D6;" points="220.966,45.683 216.678,45.683 216.673,43.622 220.961,43.622 				"/>
				<polygon style="fill:#D7D2E3;" points="245.588,48.184 217.361,48.184 214.437,58.491 250.504,58.491 				"/>
				<rect x="203.665" y="58.491" style="fill:#F8F7FC;" width="12.466" height="20.677"/>
				<polygon style="fill:#F8F7FC;" points="206.93,48.184 202.092,58.491 214.437,58.491 217.361,48.184 				"/>
				<rect x="237.651" y="69.062" style="fill:#D7D2E3;" width="16.976" height="10.106"/>
				<polygon style="fill:#D7D2E3;" points="252.953,63.708 238.29,63.708 236.77,69.062 255.507,69.062 				"/>
				<rect x="197.286" y="69.062" style="fill:#F8F7FC;" width="6.379" height="10.106"/>
				<polygon style="fill:#F8F7FC;" points="198.982,63.708 196.469,69.062 203.665,69.062 203.665,63.708 				"/>
				<polygon style="fill:#CAC5D6;" points="236.77,69.062 238.29,63.708 248.83,63.708 248.81,58.491 216.132,58.491 
					216.132,79.168 237.651,79.168 237.651,69.062 				"/>
				<polygon style="fill:#B2ACBF;" points="222.002,76.507 218.492,76.507 218.464,69.164 221.974,69.164 				"/>
				<polygon style="fill:#B2ACBF;" points="228.357,76.507 224.847,76.507 224.819,69.164 228.329,69.164 				"/>
				<polygon style="fill:#B2ACBF;" points="248.586,79.168 243.768,79.168 243.738,71.309 248.556,71.309 				"/>
				<polygon style="fill:#B2ACBF;" points="221.964,66.356 218.454,66.356 218.432,60.623 221.942,60.623 				"/>
				<polygon style="fill:#CAC5D6;" points="211.722,76.507 208.212,76.507 208.184,69.164 211.694,69.164 				"/>
				<polygon style="fill:#CAC5D6;" points="211.683,66.356 208.173,66.356 208.152,60.623 211.661,60.623 				"/>
				<polygon style="fill:#B2ACBF;" points="228.319,66.356 224.809,66.356 224.787,60.623 228.297,60.623 				"/>
				<polygon style="fill:#B2ACBF;" points="241.977,75.818 239.368,75.818 239.351,71.309 241.96,71.309 				"/>
				<polygon style="fill:#CAC5D6;" points="201.826,75.818 199.217,75.818 199.2,71.309 201.808,71.309 				"/>
				<polygon style="fill:#B2ACBF;" points="252.991,75.818 250.382,75.818 250.365,71.309 252.973,71.309 				"/>
				<polygon style="fill:#B2ACBF;" points="232.82,58.491 236.023,58.491 235.993,63.685 232.79,63.685 				"/>
				<polygon style="fill:#B2ACBF;" points="244.385,58.491 247.588,58.491 247.558,63.685 244.355,63.685 				"/>
				<polygon style="fill:#B2ACBF;" points="240.53,58.491 243.733,58.491 243.703,63.685 240.5,63.685 				"/>
				<polygon style="fill:#B2ACBF;" points="236.675,58.491 239.878,58.491 239.848,63.685 236.645,63.685 				"/>
				<rect x="231.175" y="69.062" style="fill:#F8F7FC;" width="6.476" height="10.106"/>
				<polygon style="fill:#F8F7FC;" points="232.87,63.708 230.357,69.062 236.77,69.062 238.29,63.708 				"/>
				<polygon style="fill:#CAC5D6;" points="235.683,75.818 233.075,75.818 233.058,71.309 235.666,71.309 				"/>
				
					<rect x="216.132" y="58.491" transform="matrix(1 -0.0039 0.0039 1 -0.2273 0.9048)" style="fill:#B2ACBF;" width="32.68" height="0.771"/>
				<rect x="203.665" y="58.491" style="fill:#CAC5D6;" width="12.466" height="0.837"/>
				<rect x="237.651" y="69.062" style="fill:#B2ACBF;" width="16.976" height="0.746"/>
				<rect x="231.175" y="69.062" style="fill:#CAC5D6;" width="6.476" height="0.746"/>
				<polygon style="fill:#CAC5D6;" points="220.086,46.349 214.518,46.349 214.509,45.683 220.076,45.683 				"/>
				<polygon style="fill:#B2ACBF;" points="220.365,46.349 216.963,46.349 216.958,45.683 220.359,45.683 				"/>
				<rect x="197.286" y="69.062" style="fill:#CAC5D6;" width="6.379" height="0.851"/>
			</g>
			<g>
				<g>
					
						<linearGradient id="SVGID_1_" gradientUnits="userSpaceOnUse" x1="401.0432" y1="62.5251" x2="401.0432" y2="68.2549" gradientTransform="matrix(1 0 0 1 -127.8551 0)">
						<stop  offset="0" style="stop-color:#987FC9"/>
						<stop  offset="1" style="stop-color:#60578F"/>
					</linearGradient>
					<path style="fill:url(#SVGID_1_);" d="M287.39,67.17v-3.523h0.625c0-0.675,0-1.02,0-1.02h-28.75
						c-0.499,0-0.904,0.405-0.904,0.904v3.755c0,0.499,0.405,0.904,0.904,0.904h28.75c0,0,0-0.347,0-1.02H287.39z"/>
					<path style="opacity:0.5;fill:#60578F;" d="M259.265,62.627h13.13v5.562h-13.13c-0.499,0-0.904-0.405-0.904-0.904v-3.755
						C258.361,63.032,258.766,62.627,259.265,62.627z"/>
					<path style="opacity:0.5;fill:#60578F;" d="M286.625,67.17l-26.912,0c-0.316,0-0.573-0.256-0.573-0.573v-2.378
						c0-0.316,0.256-0.572,0.573-0.572l26.912,0V67.17z"/>
					<path style="fill:#DBC3B9;" d="M287.389,67.17l-26.912,0c-0.316,0-0.573-0.256-0.573-0.573v-2.378
						c0-0.316,0.256-0.572,0.573-0.572l26.912,0V67.17z"/>
					<rect x="272.997" y="63.647" style="fill:#DBC3B9;" width="14.392" height="3.523"/>
					<rect x="272.997" y="63.647" style="fill:#FFE6D6;" width="14.392" height="3.523"/>
					<path style="fill:#B29B93;" d="M273.484,63.647l-13.006,0c-0.316,0-0.573,0.256-0.573,0.572v0.811
						c0-0.316,0.256-0.572,0.573-0.572l13.006,0V63.647z"/>
					<g>
						<path style="fill:#B29B93;" d="M260.876,65.176c0,0,0.379,0.034,0.949,0.057c0.569,0.013,1.328,0.031,2.087,0.049
							c0.759-0.018,1.518-0.036,2.087-0.049c0.569-0.024,0.949-0.058,0.949-0.058s-0.38-0.034-0.949-0.058
							c-0.569-0.013-1.328-0.031-2.087-0.049c-0.759,0.018-1.518,0.036-2.087,0.049C261.255,65.143,260.876,65.176,260.876,65.176z"
							/>
						<path style="fill:#B29B93;" d="M262.684,66.521c0,0,0.556,0.034,1.391,0.057c0.834,0.013,1.947,0.031,3.059,0.049
							c1.112-0.018,2.225-0.036,3.059-0.049c0.834-0.024,1.391-0.058,1.391-0.058s-0.556-0.034-1.391-0.058
							c-0.834-0.013-1.947-0.031-3.059-0.049c-1.112,0.018-2.225,0.036-3.059,0.049C263.24,66.487,262.684,66.521,262.684,66.521z"
							/>
					</g>
					<g>
						<path style="fill:#DBC3B9;" d="M273.715,65.825c0,0,0.71,0.02,1.775,0.051c1.065,0.012,2.484,0.028,3.904,0.044
							c1.42-0.016,2.839-0.032,3.904-0.044c1.065-0.03,1.774-0.051,1.774-0.051s-0.71-0.02-1.774-0.051
							c-1.065-0.012-2.484-0.028-3.904-0.043c-1.419,0.016-2.839,0.032-3.904,0.044C274.425,65.805,273.715,65.825,273.715,65.825z"
							/>
						<path style="fill:#DBC3B9;" d="M281.92,64.991c0,0,0.303,0.03,0.759,0.051c0.455,0.012,1.062,0.028,1.669,0.044
							c0.607-0.016,1.214-0.032,1.669-0.043c0.455-0.021,0.759-0.051,0.759-0.051s-0.303-0.03-0.759-0.051
							c-0.455-0.012-1.062-0.028-1.669-0.044c-0.607,0.016-1.214,0.032-1.669,0.044C282.223,64.961,281.92,64.991,281.92,64.991z"/>
						<path style="fill:#DBC3B9;" d="M275.558,66.555c0,0,0.464,0.03,1.159,0.051c0.695,0.012,1.622,0.028,2.549,0.043
							c0.927-0.016,1.854-0.032,2.549-0.043c0.695-0.021,1.159-0.051,1.159-0.051s-0.464-0.03-1.159-0.051
							c-0.695-0.012-1.622-0.028-2.549-0.044c-0.927,0.016-1.854,0.032-2.549,0.044C276.022,66.526,275.558,66.555,275.558,66.555z"
							/>
					</g>
					<rect x="272.997" y="63.647" style="fill:#DBC3B9;" width="14.392" height="0.799"/>
				</g>
				<g>
					
						<linearGradient id="SVGID_00000065063283454073113050000000871381293233241524_" gradientUnits="userSpaceOnUse" x1="326.8982" y1="68.1691" x2="326.8982" y2="71.2962" gradientTransform="matrix(-1 0 0 1 599.6762 0)">
						<stop  offset="0" style="stop-color:#EB5D84"/>
						<stop  offset="1" style="stop-color:#BF2F56"/>
					</linearGradient>
					<path style="fill:url(#SVGID_00000065063283454073113050000000871381293233241524_);" d="M253.513,70.552v-1.62h-0.606
						c0-0.654,0-0.708,0-0.708h38.866c0.484,0,0.876,0.331,0.876,0.74v1.557c0,0.409-0.392,0.74-0.876,0.74h-38.866
						c0,0,0-0.056,0-0.708H253.513z"/>
					<path style="opacity:0.3;fill:#A0335D;" d="M254.255,70.552l37.084,0c0.306,0,0.555-0.248,0.555-0.555v-0.51
						c0-0.307-0.248-0.555-0.555-0.555l-37.084,0V70.552z"/>
					<path style="fill:#FFE6D6;" d="M253.514,70.552l37.084,0c0.306,0,0.555-0.248,0.555-0.555v-0.51
						c0-0.307-0.248-0.555-0.555-0.555l-37.084,0V70.552z"/>
					<path style="opacity:0.3;fill:#A0335D;" d="M252.907,68.933c0-0.654,0-0.708,0-0.708h19.634v3.036h-19.634c0,0,0-0.056,0-0.708
						h0.606v-1.62H252.907z"/>
					<rect x="253.514" y="68.933" style="fill:#DBC3B9;" width="19.365" height="1.62"/>
					<rect x="253.514" y="68.933" style="fill:#DBC3B9;" width="19.365" height="1.62"/>
					<path style="fill:#DBC3B9;" d="M272.407,68.933l18.191,0c0.306,0,0.555,0.248,0.555,0.555v0.786
						c0-0.306-0.249-0.555-0.555-0.555l-18.191,0V68.933z"/>
					<rect x="253.514" y="68.933" style="fill:#B29B93;" width="19.365" height="0.775"/>
				</g>
				<g>
					
						<linearGradient id="SVGID_00000042718062564945143940000005175843477723892382_" gradientUnits="userSpaceOnUse" x1="326.9545" y1="71.0849" x2="326.9545" y2="79.2617" gradientTransform="matrix(-1 0 0 1 599.6762 0)">
						<stop  offset="0.0039" style="stop-color:#FFE675"/>
						<stop  offset="1" style="stop-color:#E57830"/>
					</linearGradient>
					<path style="fill:url(#SVGID_00000042718062564945143940000005175843477723892382_);" d="M252.455,77.713l0-5.027h-0.892
						c0-0.963,0-1.455,0-1.455h41.029c0.712,0,1.29,0.577,1.29,1.29v5.358c0,0.712-0.578,1.29-1.29,1.29h-41.029
						c0,0,0-0.496,0-1.455H252.455z"/>
					<path style="opacity:0.3;fill:#9E4435;" d="M253.547,77.713l38.406,0c0.451,0,0.817-0.366,0.817-0.817v-3.393
						c0-0.451-0.366-0.817-0.817-0.817l-38.406,0V77.713z"/>
					<path style="fill:#FFE6D6;" d="M252.455,77.713l38.406,0c0.451,0,0.817-0.366,0.817-0.817v-3.393
						c0-0.451-0.366-0.817-0.817-0.817l-38.406,0V77.713z"/>
					<path style="opacity:0.3;fill:#9E4435;" d="M251.562,72.686c0-0.963,0-1.455,0-1.455h20.936v7.938h-20.936c0,0,0-0.496,0-1.455
						h0.892l0-5.027H251.562z"/>
					<rect x="252.455" y="72.686" style="fill:#DBC3B9;" width="20.539" height="5.027"/>
					<rect x="252.455" y="72.686" style="fill:#DBC3B9;" width="20.539" height="5.027"/>
					<path style="fill:#DBC3B9;" d="M272.3,72.686l18.561,0c0.451,0,0.817,0.366,0.817,0.817v1.157c0-0.451-0.366-0.817-0.817-0.817
						l-18.561,0V72.686z"/>
					<g>
						<path style="fill:#DBC3B9;" d="M290.293,74.868c0,0-0.542-0.046-1.354-0.089c-0.812-0.043-1.896-0.059-2.979-0.07
							c-1.083,0.011-2.166,0.026-2.979,0.069c-0.812,0.043-1.354,0.089-1.354,0.089s0.542,0.047,1.354,0.089
							c0.812,0.043,1.896,0.058,2.979,0.069c1.083-0.011,2.166-0.026,2.979-0.07C289.751,74.914,290.293,74.868,290.293,74.868z"/>
						<path style="fill:#DBC3B9;" d="M287.713,76.787c0,0-0.794-0.036-1.984-0.089c-1.191-0.043-2.778-0.059-4.366-0.07
							c-1.588,0.011-3.175,0.026-4.366,0.069c-1.191,0.054-1.985,0.089-1.985,0.089s0.794,0.036,1.985,0.089
							c1.191,0.043,2.778,0.058,4.366,0.069c1.588-0.011,3.175-0.026,4.366-0.07C286.919,76.822,287.713,76.787,287.713,76.787z"/>
					</g>
					<g>
						<path style="fill:#B29B93;" d="M271.969,75.795c0,0-1.013-0.04-2.532-0.101c-1.519-0.049-3.545-0.066-5.571-0.078
							c-2.026,0.012-4.052,0.029-5.571,0.078c-1.519,0.06-2.532,0.101-2.532,0.101s1.013,0.04,2.532,0.101
							c1.519,0.049,3.545,0.066,5.571,0.078c2.026-0.013,4.052-0.03,5.571-0.079C270.956,75.835,271.969,75.795,271.969,75.795z"/>
						<path style="fill:#B29B93;" d="M260.261,74.604c0,0-0.433-0.037-1.083-0.063c-0.65-0.015-1.516-0.034-2.382-0.054
							c-0.866,0.02-1.732,0.039-2.382,0.054c-0.65,0.026-1.083,0.063-1.083,0.063s0.433,0.037,1.083,0.063
							c0.65,0.015,1.516,0.034,2.382,0.054c0.866-0.02,1.732-0.039,2.382-0.054C259.828,74.641,260.261,74.604,260.261,74.604z"/>
						<path style="fill:#B29B93;" d="M269.34,76.836c0,0-0.661-0.033-1.654-0.081c-0.992-0.039-2.315-0.053-3.638-0.063
							c-1.323,0.01-2.646,0.024-3.638,0.063c-0.992,0.049-1.654,0.082-1.654,0.082s0.661,0.033,1.654,0.082
							c0.992,0.04,2.315,0.053,3.638,0.063c1.323-0.01,2.646-0.024,3.638-0.063C268.678,76.869,269.34,76.836,269.34,76.836z"/>
					</g>
					<rect x="252.455" y="72.686" style="fill:#B29B93;" width="20.539" height="1.141"/>
				</g>
			</g>
		</g>
		<g>
			<rect x="188.111" y="79.123" style="fill:#F0D4BD;" width="26.177" height="6.206"/>
			<rect x="214.338" y="79.123" style="fill:#D1AB90;" width="90.175" height="6.206"/>
			<rect x="214.338" y="79.123" style="fill:#F0D4BD;" width="90.175" height="1.397"/>
			
				<rect x="188.487" y="79.123" transform="matrix(-1 -1.224647e-16 1.224647e-16 -1 402.8257 159.6423)" style="fill:#FFE8D9;" width="25.851" height="1.397"/>
		</g>
	</g>
	<g>
		<g>
			<g>
				<path style="fill:#948FCC;" d="M338.544,152.083c-2.521,6.879-0.804,16.438,0.227,23.53c1.865,12.823,7.012,24.778,8.92,37.483
					c0.121,0.804,1.505,0.701,1.446-0.128c-1.427-20.015-15.028-39.836-10.149-60.74
					C339.056,151.938,338.649,151.796,338.544,152.083L338.544,152.083z"/>
				<g>
					<path style="fill:#948FCC;" d="M338.161,154.82c2.736-1.78,3.65-7.23,2.478-7.671
						C339.468,146.709,337.037,150.202,338.161,154.82z"/>
					<path style="fill:#948FCC;" d="M333.462,155.634c-0.772,0.875-0.138,6.138,4.1,8.572
						C337.452,157.027,334.11,154.9,333.462,155.634z"/>
					<path style="fill:#948FCC;" d="M342.519,163.258c-1.366,0.16-5.183,4.954-3.664,10.033
						C344.692,167.299,343.665,163.124,342.519,163.258z"/>
					<path style="fill:#948FCC;" d="M333.402,175.309c-0.683,1.212,1.729,6.986,7.716,8.521
						C338.761,175.737,333.975,174.292,333.402,175.309z"/>
					<path style="fill:#948FCC;" d="M345.857,179.221c-1.527,0.218-5.194,5.741-2.767,11.441
						C348.881,183.73,347.137,179.038,345.857,179.221z"/>
					<path style="fill:#948FCC;" d="M337.415,194.021c-0.6,1.332,2.49,7.194,8.924,8.298
						C343.083,194.015,337.919,192.904,337.415,194.021z"/>
					<path style="fill:#948FCC;" d="M337.081,164.038c0.135,0.092,0.275,0.16,0.408,0.124L337.081,164.038z"/>
					<path style="fill:#948FCC;" d="M337.081,164.038C336.953,163.951,337.004,163.997,337.081,164.038
						C337.055,164.02,337.081,164.038,337.081,164.038z"/>
				</g>
			</g>
			<g>
				<path style="fill:#948FCC;" d="M376.046,157.54c-4.055,19.504-16.942,40.862-12.226,61.133c0.192,0.826,1.632,0.598,1.493-0.257
					c-3.515-21.663,9.897-39.796,11.329-60.817C376.665,157.257,376.114,157.211,376.046,157.54L376.046,157.54z"/>
				<path style="fill:#948FCC;" d="M376.155,160.049c2.207-2.687,1.279-8.587-0.079-8.676
					C374.718,151.285,373.412,155.641,376.155,160.049z"/>
				<path style="fill:#948FCC;" d="M378.741,171.766c0.979,1.167-1.149,6.999-8.12,8.811
					C372.377,172.451,377.92,170.787,378.741,171.766z"/>
				<path style="fill:#948FCC;" d="M372.158,191.035c1.277,1.141-0.089,7.884-7.476,10.912
					C365.25,192.732,371.087,190.078,372.158,191.035z"/>
				<path style="fill:#948FCC;" d="M371.569,161.479c1.384,0.166,4.236,5.075,1.468,10.268
					C368.364,165.61,370.409,161.34,371.569,161.479z"/>
				<path style="fill:#948FCC;" d="M365.837,177.091c1.748,0.145,5.118,6.158,1.339,12.777
					C361.557,182.402,364.371,176.969,365.837,177.091z"/>
			</g>
			<g>
				<path style="fill:#948FCC;" d="M358.241,117.055c-3.234,14.946-5.879,29.81-5.178,45.237
					c0.774,17.038,4.534,33.651,4.464,50.809c-0.006,1.464,2.265,1.466,2.275,0c0.117-16.531-3.838-32.193-5.148-48.56
					c-1.307-16.318,3.326-31.425,4.354-47.381C359.037,116.721,358.334,116.624,358.241,117.055L358.241,117.055z"/>
				<path style="fill:#948FCC;" d="M358.421,119.178c2.637-2.777,1.611-8.955,0.009-9.067
					C356.829,110,355.236,114.534,358.421,119.178z"/>
				<path style="fill:#948FCC;" d="M363.83,122.44c1.022,1.066-0.578,6.919-7.106,9.208
					C357.798,123.585,362.972,121.547,363.83,122.44z"/>
				<path style="fill:#948FCC;" d="M350.542,130.833c1.854,0.018,6.451,5.39,3.68,11.805
					C347.013,136.064,348.986,130.818,350.542,130.833z"/>
				<path style="fill:#948FCC;" d="M346.457,154.032c2.083-0.358,8.746,4.742,7.445,12.519
					C343.973,160.632,344.71,154.333,346.457,154.032z"/>
				<path style="fill:#948FCC;" d="M348.371,183.131c2.263-0.296,9.847,5.311,8.853,13.423
					C346.016,189.962,346.473,183.38,348.371,183.131z"/>
				<path style="fill:#948FCC;" d="M360.793,142.384c-1.938-0.203-7.956,4.801-6.525,11.764
					C363.284,148.213,362.419,142.554,360.793,142.384z"/>
				<path style="fill:#948FCC;" d="M359.812,164.507c-2.158,0.522-7.24,8.186-3.687,15.111
					C364.186,169.812,361.622,164.07,359.812,164.507z"/>
			</g>
		</g>
		<path style="fill:#D96799;" d="M366.486,248.618h-22.052c-3.837-11.308-6.277-24.14-7.306-38.515h36.663
			C372.931,223.601,370.661,236.508,366.486,248.618z"/>
		<path style="fill:#BF5281;" d="M363.625,210.103c-1.314,40.367-16.868,35.182-20.911,32.96c0.542,1.886,1.107,3.747,1.72,5.555
			h22.052c4.175-12.109,6.445-25.017,7.306-38.515H363.625z"/>
		<g>
			<path style="fill:#FFC4E6;" d="M345.857,222.269c0.751,7.198-0.096,9.861-1.467,10.004c-1.372,0.143-2.643-1.27-3.501-9.486
				c-0.857-8.217,0.096-9.861,1.467-10.004C343.728,212.64,345.106,215.072,345.857,222.269z"/>
			<path style="fill:#FFC4E6;" d="M347.113,237.396c0.319,2.24-0.343,3.143-1.299,3.279c-0.956,0.136-1.798-0.229-2.162-2.787
				c-0.364-2.557,0.343-3.143,1.299-3.279C345.907,234.473,346.794,235.156,347.113,237.396z"/>
		</g>
	</g>
	<g>
		<rect x="60.004" y="71.477" style="opacity:0.4;fill:#A29FBD;" width="71.79" height="55.513"/>
		<rect x="60.004" y="71.477" style="fill:#F1EDF2;" width="69.877" height="53.214"/>
		<path style="fill:#E7DEE8;" d="M129.881,124.691H60.004V84.735c0,0-1.344,37.816,35.566,37.816
			c36.91,0,34.312-37.816,34.312-37.816V124.691z"/>
		<g>
			<circle style="fill:#403D51;" cx="62.79" cy="74.132" r="1.218"/>
			<circle style="fill:#403D51;" cx="127.095" cy="74.132" r="1.218"/>
		</g>
		<g>
			<path style="fill:#A6A2B3;" d="M103.965,103.095h15.434c0.15,0,0.271-0.121,0.271-0.271v-7.775c0-0.15-0.121-0.271-0.271-0.271
				h-5.047v-5.643h0.858c0.15,0,0.271-0.121,0.271-0.271V87.39c0-0.15-0.121-0.271-0.271-0.271h-11.246
				c-0.15,0-0.271,0.121-0.271,0.271v3.439c0,0.15,0.121,0.271,0.271,0.271c0.15,0,0.271-0.121,0.271-0.271v-3.169h10.704v0.932
				h-0.859c-0.15,0-0.271,0.121-0.271,0.271v6.185c0,0.15,0.121,0.271,0.271,0.271h5.047v7.233h-14.892v-1.955
				c0-0.15-0.121-0.271-0.271-0.271c-0.15,0-0.271,0.121-0.271,0.271v2.226C103.694,102.974,103.815,103.095,103.965,103.095z"/>
			<path style="fill:#A6A2B3;" d="M80.843,111.275h23.122c0.15,0,0.271-0.121,0.271-0.271v-10.405c0-0.15-0.121-0.271-0.271-0.271
				c-0.15,0-0.271,0.121-0.271,0.271v10.134h-22.58v-8.4c0-0.15-0.121-0.271-0.271-0.271H67.6V89.077l-0.111-9.596h36.205V90.83
				c0,0.15,0.121,0.271,0.271,0.271c0.15,0,0.271-0.121,0.271-0.271V79.211c0-0.15-0.121-0.271-0.271-0.271H67.219
				c-0.15,0-0.271,0.121-0.271,0.271c0,0,0.111,9.446,0.111,9.596v13.527c0,0.15,0.121,0.271,0.271,0.271h13.243v8.4
				C80.573,111.154,80.694,111.275,80.843,111.275z"/>
			<path style="fill:#A6A2B3;" d="M80.843,93.644c0.15,0,0.271-0.121,0.271-0.271V79.326c0-0.15-0.121-0.271-0.271-0.271
				c-0.15,0-0.271,0.121-0.271,0.271v14.047C80.573,93.523,80.694,93.644,80.843,93.644z"/>
			<path style="fill:#A6A2B3;" d="M80.843,102.604c0.15,0,0.271-0.121,0.271-0.271v-3.468c0-0.15-0.121-0.271-0.271-0.271
				c-0.15,0-0.271,0.121-0.271,0.271v3.468C80.573,102.483,80.694,102.604,80.843,102.604z"/>
			<path style="fill:#A6A2B3;" d="M78.587,89.106h2.363c0.027,0,0.049-0.121,0.049-0.271c0-0.15-0.022-0.271-0.049-0.271h-2.363
				c-0.027,0-0.049,0.121-0.049,0.271C78.538,88.985,78.56,89.106,78.587,89.106z"/>
			<path style="fill:#A6A2B3;" d="M67.418,89.106h6.687c0.077,0,0.138-0.121,0.138-0.271c0-0.15-0.062-0.271-0.138-0.271h-6.687
				c-0.077,0-0.139,0.121-0.139,0.271C67.279,88.985,67.341,89.106,67.418,89.106z"/>
			<path style="fill:#A6A2B3;" d="M113.94,102.758c0.107,0,0.194-0.087,0.194-0.194v-7.515c0-0.107-0.087-0.194-0.194-0.194
				c-0.107,0-0.194,0.087-0.194,0.194v7.515C113.746,102.671,113.833,102.758,113.94,102.758z"/>
			<path style="fill:#A6A2B3;" d="M88.016,109.468v-2.445c0-0.107,0.087-0.194,0.194-0.194h6.295c0.107,0,0.194,0.087,0.194,0.194
				v2.445c0,0.107-0.087,0.194-0.194,0.194h-6.295C88.103,109.662,88.016,109.575,88.016,109.468z M94.31,107.217h-5.907v2.058
				h5.907V107.217z"/>
			
				<rect x="91.528" y="115.762" transform="matrix(-1 -1.224647e-16 1.224647e-16 -1 186.8276 232.9895)" style="fill:#A6A2B3;" width="3.772" height="1.465"/>
			
				<rect x="123.637" y="94.418" transform="matrix(6.123234e-17 -1 1 6.123234e-17 30.3722 220.6737)" style="fill:#A6A2B3;" width="3.772" height="1.465"/>
			<path style="fill:#A6A2B3;" d="M87.235,103.617v-3.018c0-0.107,0.087-0.194,0.194-0.194h7.855c0.107,0,0.194,0.087,0.194,0.194
				v3.018c0,0.107-0.087,0.194-0.194,0.194h-7.855C87.322,103.81,87.235,103.723,87.235,103.617z M95.09,100.792h-7.468v2.631h7.468
				V100.792z"/>
			<path style="fill:#A6A2B3;" d="M82.82,106.638v-3.018c0-0.107,0.087-0.194,0.194-0.194h2.98c0.107,0,0.194,0.087,0.194,0.194
				v3.018c0,0.107-0.087,0.194-0.194,0.194h-2.98C82.907,106.831,82.82,106.744,82.82,106.638z M85.799,103.813h-2.592v2.63h2.592
				V103.813z"/>
			<path style="fill:#A6A2B3;" d="M96.499,106.638v-3.018c0-0.107,0.087-0.194,0.194-0.194h2.98c0.107,0,0.194,0.087,0.194,0.194
				v3.018c0,0.107-0.087,0.194-0.194,0.194h-2.98C96.586,106.831,96.499,106.744,96.499,106.638z M99.478,103.813h-2.592v2.63h2.592
				V103.813z"/>
			<path style="fill:#A6A2B3;" d="M101.461,111.004v-10.405c0-0.106,0.086-0.192,0.192-0.192h2.264c0.106,0,0.192,0.086,0.192,0.192
				v10.405c0,0.106-0.086,0.192-0.192,0.192h-2.264C101.548,111.196,101.461,111.11,101.461,111.004z M103.725,100.791h-1.88v10.021
				h1.88V100.791z"/>
			<path style="fill:#A6A2B3;" d="M86.892,91.003v-3.584c0-0.107,0.087-0.194,0.194-0.194h16.879c0.107,0,0.194,0.087,0.194,0.194
				v3.584c0,0.107-0.087,0.194-0.194,0.194H87.086C86.979,91.197,86.892,91.11,86.892,91.003z M103.772,87.613H87.28v3.197h16.492
				V87.613z"/>
			<path style="fill:#A6A2B3;" d="M103.757,90.14v-2.721c0-0.107,0.087-0.194,0.194-0.194h2.731c0.107,0,0.194,0.087,0.194,0.194
				v2.721c0,0.107-0.087,0.194-0.194,0.194h-2.731C103.844,90.333,103.757,90.246,103.757,90.14z M106.488,87.613h-2.344v2.333
				h2.344V87.613z"/>
			<path style="fill:#A6A2B3;" d="M80.65,81.282v-2.03c0-0.107,0.087-0.194,0.194-0.194h2.037c0.107,0,0.194,0.087,0.194,0.194v2.03
				c0,0.107-0.087,0.194-0.194,0.194h-2.037C80.737,81.475,80.65,81.388,80.65,81.282z M82.687,79.446h-1.65v1.642h1.65V79.446z"/>
			<path style="fill:#A6A2B3;" d="M99.898,87.362v-8.151c0-0.107,0.087-0.194,0.194-0.194h3.989c0.107,0,0.194,0.087,0.194,0.194
				v8.151c0,0.107-0.087,0.194-0.194,0.194h-3.989C99.985,87.555,99.898,87.468,99.898,87.362z M103.887,79.404h-3.601v7.763h3.601
				V79.404z"/>
			<path style="fill:#A6A2B3;" d="M96.468,83.977v-4.824c0-0.107,0.087-0.194,0.194-0.194h3.41c0.107,0,0.194,0.087,0.194,0.194
				v4.824c0,0.107-0.087,0.194-0.194,0.194h-3.41C96.555,84.171,96.468,84.084,96.468,83.977z M99.878,79.347h-3.022v4.437h3.022
				V79.347z"/>
			<path style="fill:#A6A2B3;" d="M67.083,87.303v-7.977c0-0.107,0.087-0.194,0.194-0.194h3.411c0.107,0,0.194,0.087,0.194,0.194
				v7.977c0,0.107-0.087,0.194-0.194,0.194h-3.411C67.17,87.497,67.083,87.41,67.083,87.303z M70.493,79.52H67.47v7.589h3.023V79.52
				z"/>
			<path style="fill:#A6A2B3;" d="M67.194,93.055v-4.22c0-0.107,0.087-0.194,0.194-0.194h2.081c0.107,0,0.194,0.087,0.194,0.194
				v4.22c0,0.107-0.087,0.194-0.194,0.194h-2.081C67.282,93.249,67.194,93.162,67.194,93.055z M69.275,89.029h-1.694v3.833h1.694
				V89.029z"/>
			<path style="fill:#A6A2B3;" d="M75.187,102.304v-2.602c0-0.107,0.087-0.194,0.194-0.194h5.521c0.107,0,0.194,0.087,0.194,0.194
				v2.602c0,0.107-0.087,0.194-0.194,0.194h-5.521C75.274,102.498,75.187,102.411,75.187,102.304z M80.707,99.896h-5.133v2.214
				h5.133V99.896z"/>
			<g>
				<path style="fill:#A6A2B3;" d="M103.965,93.593c0.107,0,0.194-0.087,0.194-0.194v-1.734c0-0.107-0.087-0.194-0.194-0.194
					c-0.107,0-0.194,0.087-0.194,0.194v1.734C103.772,93.506,103.859,93.593,103.965,93.593z"/>
				<path style="fill:#A6A2B3;" d="M103.965,96.714c0.107,0,0.194-0.087,0.194-0.194v-1.734c0-0.107-0.087-0.194-0.194-0.194
					c-0.107,0-0.194,0.087-0.194,0.194v1.734C103.772,96.627,103.859,96.714,103.965,96.714z"/>
				<path style="fill:#A6A2B3;" d="M103.965,99.836c0.107,0,0.194-0.087,0.194-0.194v-1.734c0-0.107-0.087-0.194-0.194-0.194
					c-0.107,0-0.194,0.087-0.194,0.194v1.734C103.772,99.749,103.859,99.836,103.965,99.836z"/>
			</g>
			<path style="fill:#A6A2B3;" d="M67.399,114.558L67.399,114.558l52.03-0.114c0.064-0.001,0.117-0.052,0.117-0.117l-0.001-11.272
				c0-0.064-0.052-0.117-0.117-0.117l0,0c-0.064,0-0.117,0.052-0.117,0.117l0.001,11.156l-51.793,0.113l0.001-11.992
				c0-0.064-0.052-0.117-0.117-0.117c-0.064,0-0.117,0.052-0.117,0.117l-0.004,12.104c-0.002,0.032,0.01,0.062,0.032,0.086
				C67.337,114.545,67.367,114.558,67.399,114.558z"/>
			<path style="fill:#A6A2B3;" d="M103.918,111.121h19.239c0.064,0,0.117-0.052,0.117-0.117V79.298c0-0.064-0.052-0.117-0.117-0.117
				h-19.075c-0.064,0-0.117,0.052-0.117,0.117c0,0.064,0.052,0.117,0.117,0.117h18.959v31.473h-19.122
				c-0.064,0-0.117,0.052-0.117,0.117C103.801,111.068,103.853,111.121,103.918,111.121z"/>
			
				<rect x="108.821" y="94.731" transform="matrix(-1 -1.224647e-16 1.224647e-16 -1 218.9426 190.7627)" style="fill:#A6A2B3;" width="1.301" height="1.301"/>
			
				<rect x="91.653" y="82.852" transform="matrix(-1 -1.224647e-16 1.224647e-16 -1 184.6062 167.0046)" style="fill:#A6A2B3;" width="1.301" height="1.301"/>
			
				<rect x="73.583" y="94.673" transform="matrix(-1 -1.224647e-16 1.224647e-16 -1 148.4664 190.6474)" style="fill:#A6A2B3;" width="1.301" height="1.301"/>
			
				<rect x="90.706" y="101.451" transform="matrix(-1 -1.224647e-16 1.224647e-16 -1 182.7134 204.2025)" style="fill:#A6A2B3;" width="1.301" height="1.301"/>
			
				<rect x="70.788" y="83.502" transform="matrix(-1 -1.224647e-16 1.224647e-16 -1 142.8768 168.3052)" style="fill:#A6A2B3;" width="1.301" height="1.301"/>
		</g>
	</g>
	<g>
		<g>
			<rect x="140.476" y="103.906" style="fill:#585469;" width="126.591" height="98.51"/>
			<rect x="136.793" y="201.726" style="fill:#6B6780;" width="133.956" height="5.524"/>
			<rect x="143.928" y="107.589" style="fill:#F1EDF2;" width="119.686" height="91.145"/>
			<path style="fill:#E7DEE8;" d="M263.614,198.734H143.928v-68.436c0,0-2.302,64.772,60.917,64.772s58.769-64.772,58.769-64.772
				V198.734z"/>
			<g>
				<path style="fill:#A6A2B3;" d="M190.926,162.191h-27.639c-0.315,0-0.571-0.255-0.571-0.571v-2.786
					c0-0.315,0.255-0.571,0.571-0.571h8.953v-10.547h-8.953c-0.315,0-0.571-0.255-0.571-0.571v-14.693
					c0-0.315,0.255-0.571,0.571-0.571h27.639c0.315,0,0.571,0.256,0.571,0.571v4.206c0,0.315-0.256,0.571-0.571,0.571
					s-0.571-0.255-0.571-0.571v-3.635h-26.497v13.551h8.953c0.315,0,0.571,0.255,0.571,0.571v11.689
					c0,0.315-0.255,0.571-0.571,0.571h-8.953v1.644h26.497v-5.928c0-0.315,0.255-0.571,0.571-0.571s0.571,0.256,0.571,0.571v6.499
					C191.497,161.935,191.242,162.191,190.926,162.191z"/>
				<path style="fill:#A6A2B3;" d="M247.86,177.648h-56.933c-0.315,0-0.571-0.256-0.571-0.571V155.12
					c0-0.315,0.255-0.571,0.571-0.571s0.571,0.256,0.571,0.571v21.386h55.791v-17.563c0-0.315,0.256-0.571,0.571-0.571h8.101v-24.42
					h-23.628c-0.315,0-0.571-0.255-0.571-0.571v-15.815h-40.264v19.092c0,0.315-0.256,0.571-0.571,0.571s-0.571-0.255-0.571-0.571
					v-19.663c0-0.315,0.255-0.571,0.571-0.571h41.406c0.315,0,0.571,0.256,0.571,0.571v15.815h23.628
					c0.315,0,0.571,0.255,0.571,0.571v25.562c0,0.315-0.256,0.571-0.571,0.571h-8.101v17.563
					C248.431,177.393,248.175,177.648,247.86,177.648z"/>
				<path style="fill:#A6A2B3;" d="M232.332,177.429c-0.315,0-0.571-0.256-0.571-0.571v-26.545c0-0.315,0.255-0.571,0.571-0.571
					s0.571,0.255,0.571,0.571v26.545C232.903,177.174,232.648,177.429,232.332,177.429z"/>
				<path style="fill:#A6A2B3;" d="M232.332,140.506c-0.315,0-0.571-0.255-0.571-0.571v-6.554c0-0.315,0.255-0.571,0.571-0.571
					s0.571,0.255,0.571,0.571v6.554C232.903,140.251,232.648,140.506,232.332,140.506z"/>
				<path style="fill:#A6A2B3;" d="M247.86,159.547c-0.363,0-0.657-0.294-0.657-0.657v-18.08c0-0.363,0.294-0.657,0.657-0.657
					c0.363,0,0.657,0.294,0.657,0.657v18.08C248.517,159.253,248.223,159.547,247.86,159.547z"/>
				<path style="fill:#A6A2B3;" d="M247.86,159.547h-4.969c-0.363,0-0.657-0.294-0.657-0.657c0-0.363,0.294-0.657,0.657-0.657h4.969
					c0.363,0,0.657,0.294,0.657,0.657C248.517,159.253,248.223,159.547,247.86,159.547z"/>
				<path style="fill:#A6A2B3;" d="M236.887,159.461h-4.347c-0.315,0-0.571-0.256-0.571-0.571s0.255-0.571,0.571-0.571h4.347
					c0.315,0,0.571,0.255,0.571,0.571S237.202,159.461,236.887,159.461z"/>
				<g>
					<path style="fill:#A6A2B3;" d="M256.451,156.254h-8.488c-0.204,0-0.369-0.165-0.369-0.369c0-0.204,0.165-0.369,0.369-0.369
						h8.488c0.204,0,0.369,0.165,0.369,0.369C256.82,156.089,256.655,156.254,256.451,156.254z"/>
					<path style="fill:#A6A2B3;" d="M256.451,153.413h-8.488c-0.204,0-0.369-0.165-0.369-0.369c0-0.204,0.165-0.369,0.369-0.369
						h8.488c0.204,0,0.369,0.165,0.369,0.369C256.82,153.248,256.655,153.413,256.451,153.413z"/>
					<path style="fill:#A6A2B3;" d="M256.451,150.574h-8.488c-0.204,0-0.369-0.165-0.369-0.369s0.165-0.369,0.369-0.369h8.488
						c0.204,0,0.369,0.165,0.369,0.369S256.655,150.574,256.451,150.574z"/>
					<path style="fill:#A6A2B3;" d="M256.451,147.733h-8.488c-0.204,0-0.369-0.165-0.369-0.369c0-0.204,0.165-0.369,0.369-0.369
						h8.488c0.204,0,0.369,0.165,0.369,0.369C256.82,147.568,256.655,147.733,256.451,147.733z"/>
					<path style="fill:#A6A2B3;" d="M256.451,144.893h-8.488c-0.204,0-0.369-0.165-0.369-0.369c0-0.204,0.165-0.369,0.369-0.369
						h8.488c0.204,0,0.369,0.165,0.369,0.369C256.82,144.728,256.655,144.893,256.451,144.893z"/>
					<path style="fill:#A6A2B3;" d="M256.451,142.053h-8.488c-0.204,0-0.369-0.165-0.369-0.369c0-0.204,0.165-0.369,0.369-0.369
						h8.488c0.204,0,0.369,0.165,0.369,0.369C256.82,141.887,256.655,142.053,256.451,142.053z"/>
				</g>
				<path style="fill:#A6A2B3;" d="M173.064,147.515c-0.204,0-0.369-0.165-0.369-0.369v-14.201c0-0.204,0.165-0.369,0.369-0.369
					s0.369,0.165,0.369,0.369v14.201C173.434,147.349,173.268,147.515,173.064,147.515z"/>
				<path style="fill:#A6A2B3;" d="M217.428,127.888h-11.272c-0.204,0-0.369-0.165-0.369-0.369v-4.621
					c0-0.204,0.165-0.369,0.369-0.369h11.272c0.204,0,0.369,0.165,0.369,0.369v4.621
					C217.797,127.723,217.632,127.888,217.428,127.888z M206.525,127.15h10.534v-3.882h-10.534V127.15z"/>
				<rect x="206.444" y="188.282" style="fill:#A6A2B3;" width="6.754" height="2.769"/>
				
					<rect x="148.758" y="145.643" transform="matrix(-1.836970e-16 1 -1 -1.836970e-16 299.2763 -5.3677)" style="fill:#A6A2B3;" width="7.128" height="2.624"/>
				<path style="fill:#A6A2B3;" d="M218.825,137.028h-14.068c-0.204,0-0.369-0.165-0.369-0.369v-5.702
					c0-0.204,0.165-0.369,0.369-0.369h14.068c0.204,0,0.369,0.165,0.369,0.369v5.702
					C219.194,136.862,219.029,137.028,218.825,137.028z M205.127,136.289h13.329v-4.964h-13.329V136.289z"/>
				<path style="fill:#A6A2B3;" d="M225.516,129.538h-5.403c-0.204,0-0.369-0.165-0.369-0.369v-6.271
					c0-0.204,0.165-0.369,0.369-0.369h5.403c0.204,0,0.369,0.165,0.369,0.369v6.271C225.885,129.373,225.72,129.538,225.516,129.538
					z M220.482,128.8h4.665v-5.533h-4.665V128.8z"/>
				<path style="fill:#A6A2B3;" d="M195.067,137.025h-4.056c-0.202,0-0.367-0.165-0.367-0.367v-19.663
					c0-0.202,0.164-0.367,0.367-0.367h4.056c0.203,0,0.367,0.164,0.367,0.367v19.663
					C195.434,136.861,195.27,137.025,195.067,137.025z M191.378,136.292h3.322v-18.929h-3.322V136.292z"/>
				<g>
					<path style="fill:#A6A2B3;" d="M222.831,136.88c-1.616,0-2.931-1.379-2.931-3.073s1.315-3.073,2.931-3.073
						c1.617,0,2.932,1.378,2.932,3.073S224.447,136.88,222.831,136.88z M222.831,131.473c-1.209,0-2.192,1.047-2.192,2.334
						c0,1.287,0.983,2.335,2.192,2.335c1.209,0,2.193-1.048,2.193-2.335C225.024,132.52,224.04,131.473,222.831,131.473z"/>
					<path style="fill:#A6A2B3;" d="M200.752,136.88c-1.616,0-2.931-1.379-2.931-3.073s1.315-3.073,2.931-3.073
						c1.617,0,2.932,1.378,2.932,3.073S202.368,136.88,200.752,136.88z M200.752,131.473c-1.209,0-2.192,1.047-2.192,2.334
						c0,1.287,0.983,2.335,2.192,2.335c1.209,0,2.193-1.048,2.193-2.335C202.945,132.52,201.961,131.473,200.752,131.473z"/>
				</g>
				<path style="fill:#A6A2B3;" d="M221.153,161.934h-30.226c-0.204,0-0.369-0.165-0.369-0.369v-6.773
					c0-0.204,0.165-0.369,0.369-0.369h30.226c0.204,0,0.369,0.165,0.369,0.369v6.773
					C221.522,161.769,221.357,161.934,221.153,161.934z M191.296,161.196h29.488v-6.034h-29.488V161.196z"/>
				<path style="fill:#A6A2B3;" d="M190.952,161.934h-4.891c-0.204,0-0.369-0.165-0.369-0.369v-5.141
					c0-0.204,0.165-0.369,0.369-0.369h4.891c0.204,0,0.369,0.165,0.369,0.369v5.141
					C191.321,161.769,191.156,161.934,190.952,161.934z M186.431,161.196h4.152v-4.402h-4.152V161.196z"/>
				<path style="fill:#A6A2B3;" d="M232.332,167.014h-3.649c-0.204,0-0.369-0.165-0.369-0.369v-3.835
					c0-0.204,0.165-0.369,0.369-0.369h3.649c0.204,0,0.369,0.165,0.369,0.369v3.835
					C232.702,166.849,232.536,167.014,232.332,167.014z M229.053,166.276h2.91v-3.097h-2.91V166.276z"/>
				<path style="fill:#A6A2B3;" d="M197.862,177.447h-7.143c-0.204,0-0.369-0.165-0.369-0.369v-15.403
					c0-0.204,0.165-0.369,0.369-0.369h7.143c0.204,0,0.369,0.165,0.369,0.369v15.403
					C198.231,177.281,198.066,177.447,197.862,177.447z M191.089,176.708h6.404v-14.664h-6.404V176.708z"/>
				<path style="fill:#A6A2B3;" d="M198.69,153.304h-4.244c-0.204,0-0.369-0.165-0.369-0.369v-4.479
					c0-0.204,0.165-0.369,0.369-0.369h4.244c0.204,0,0.369,0.165,0.369,0.369v4.479C199.059,153.139,198.894,153.304,198.69,153.304
					z M194.815,152.566h3.506v-3.74h-3.506V152.566z"/>
				<path style="fill:#A6A2B3;" d="M208.576,153.304h-4.244c-0.204,0-0.369-0.165-0.369-0.369v-4.479
					c0-0.204,0.165-0.369,0.369-0.369h4.244c0.204,0,0.369,0.165,0.369,0.369v4.479C208.945,153.139,208.78,153.304,208.576,153.304
					z M204.701,152.566h3.506v-3.74h-3.506V152.566z"/>
				<path style="fill:#A6A2B3;" d="M218.461,153.304h-4.244c-0.204,0-0.369-0.165-0.369-0.369v-4.479
					c0-0.204,0.165-0.369,0.369-0.369h4.244c0.204,0,0.369,0.165,0.369,0.369v4.479
					C218.831,153.139,218.665,153.304,218.461,153.304z M214.587,152.566h3.506v-3.74h-3.506V152.566z"/>
				<path style="fill:#A6A2B3;" d="M232.332,177.556h-6.107c-0.204,0-0.369-0.165-0.369-0.369v-9.117
					c0-0.204,0.165-0.369,0.369-0.369h6.107c0.204,0,0.369,0.165,0.369,0.369v9.117C232.702,177.39,232.536,177.556,232.332,177.556
					z M226.594,176.817h5.369v-8.378h-5.369V176.817z"/>
				<path style="fill:#A6A2B3;" d="M247.756,177.228h-6.107c-0.204,0-0.369-0.165-0.369-0.369v-15.075
					c0-0.204,0.165-0.369,0.369-0.369h6.107c0.204,0,0.369,0.165,0.369,0.369v15.075
					C248.126,177.062,247.96,177.228,247.756,177.228z M242.018,176.489h5.369v-14.336h-5.369V176.489z"/>
				<path style="fill:#A6A2B3;" d="M238.077,177.392h-5.745c-0.204,0-0.369-0.165-0.369-0.369v-6.063
					c0-0.204,0.165-0.369,0.369-0.369h5.745c0.204,0,0.369,0.165,0.369,0.369v6.063
					C238.447,177.226,238.281,177.392,238.077,177.392z M232.702,176.653h5.007v-5.324h-5.007V176.653z"/>
				<path style="fill:#A6A2B3;" d="M236.266,159.259h-3.726c-0.204,0-0.369-0.165-0.369-0.369v-7.976
					c0-0.204,0.165-0.369,0.369-0.369h3.726c0.204,0,0.369,0.165,0.369,0.369v7.976C236.635,159.094,236.47,159.259,236.266,159.259
					z M232.909,158.521h2.988v-7.237h-2.988V158.521z"/>
				<path style="fill:#A6A2B3;" d="M247.86,159.259h-2.691c-0.204,0-0.369-0.165-0.369-0.369v-12.673
					c0-0.204,0.165-0.369,0.369-0.369h2.691c0.204,0,0.369,0.165,0.369,0.369v12.673
					C248.229,159.094,248.064,159.259,247.86,159.259z M245.538,158.521h1.953v-11.934h-1.953V158.521z"/>
				<path style="fill:#A6A2B3;" d="M242.114,138.721h-9.885c-0.204,0-0.369-0.165-0.369-0.369v-4.916
					c0-0.204,0.165-0.369,0.369-0.369h9.885c0.204,0,0.369,0.165,0.369,0.369v4.916
					C242.484,138.555,242.318,138.721,242.114,138.721z M232.598,137.982h9.147v-4.177h-9.147V137.982z"/>
				<g>
					<path style="fill:#A6A2B3;" d="M190.926,153.911c-0.204,0-0.369-0.165-0.369-0.369v-3.277c0-0.204,0.165-0.369,0.369-0.369
						s0.369,0.165,0.369,0.369v3.277C191.296,153.746,191.13,153.911,190.926,153.911z"/>
					<path style="fill:#A6A2B3;" d="M190.926,148.012c-0.204,0-0.369-0.165-0.369-0.369v-3.277c0-0.204,0.165-0.369,0.369-0.369
						s0.369,0.165,0.369,0.369v3.277C191.296,147.846,191.13,148.012,190.926,148.012z"/>
					<path style="fill:#A6A2B3;" d="M190.926,142.113c-0.204,0-0.369-0.165-0.369-0.369v-3.277c0-0.204,0.165-0.369,0.369-0.369
						s0.369,0.165,0.369,0.369v3.277C191.296,141.948,191.13,142.113,190.926,142.113z"/>
				</g>
				<path style="fill:#A6A2B3;" d="M163.236,185.814c-0.059,0-0.115-0.023-0.156-0.064c-0.042-0.042-0.065-0.098-0.065-0.157
					l0-23.879c0-0.122,0.099-0.221,0.222-0.221c0.123,0,0.221,0.099,0.221,0.221l0,23.657l92.721-0.214v-26.27
					c0-0.122,0.099-0.221,0.222-0.221c0.122,0,0.221,0.099,0.221,0.221v26.434c0.006,0.021,0.008,0.043,0.008,0.064l-0.008,0.215
					c-0.004,0.12-0.102,0.214-0.221,0.214c-0.001,0-0.002,0-0.004,0c-0.118-0.002-0.214-0.097-0.218-0.215L163.236,185.814
					L163.236,185.814z"/>
				<path style="fill:#A6A2B3;" d="M190.719,177.135h-34.16c-0.122,0-0.222-0.099-0.222-0.222v-59.918
					c0-0.122,0.099-0.221,0.222-0.221h34.452c0.122,0,0.222,0.099,0.222,0.221c0,0.122-0.099,0.222-0.222,0.222h-34.231v59.475
					h33.938c0.122,0,0.222,0.099,0.222,0.221C190.941,177.035,190.842,177.135,190.719,177.135z"/>
				<rect x="179.902" y="145.29" style="fill:#A6A2B3;" width="2.329" height="2.458"/>
				<rect x="210.646" y="167.738" style="fill:#A6A2B3;" width="2.329" height="2.458"/>
				<rect x="243.02" y="144.716" style="fill:#A6A2B3;" width="2.329" height="2.458"/>
				<rect x="210.627" y="132.59" style="fill:#A6A2B3;" width="2.329" height="2.458"/>
				<rect x="239.139" y="166.509" style="fill:#A6A2B3;" width="2.329" height="2.458"/>
			</g>
		</g>
		<g>
			<path style="fill:#6B6780;" d="M278.565,220.385c-0.908,7.519-0.151,28.08-0.151,28.08h21.716l0.454-8.267h2.461l-0.19,8.421
				h18.252c0,0,0.757-5.371,1.06-8.746c0.303-3.376,2.422-12.429,0.606-21.329L278.565,220.385z"/>
			<path style="fill:#585469;" d="M299.055,232.679c-0.555,2.866-1.458,6.138-5.447,7.519h3.146l-0.623,8.267h3.999l0.454-8.267
				h2.461l-0.19,8.421h18.252c0,0,0.757-5.37,1.06-8.746c0.303-3.376,2.422-12.429,0.605-21.329l-44.207,1.841
				c0,0,6.911,5.082,21.028,5.849C299.592,226.234,299.516,230.3,299.055,232.679z"/>
			<path style="fill:#B37047;" d="M291.581,108.311c2.425-6.011,12.644-4.905,17.28-2.706c4.375,2.076,7.075,5.75,9.126,9.986
				c0.147,0.304,0.656,0.091,0.548-0.231c-2.046-6.103-7.53-10.666-13.848-11.82c-4.356-0.796-11.96-0.417-13.594,4.637
				C290.993,108.493,291.463,108.604,291.581,108.311L291.581,108.311z"/>
			<path style="fill:#4B3C59;" d="M286.997,131.125c0,0-0.978,0.835-2.058,0.247c0,0,0.388,0.969,1.314,1.37L286.997,131.125z"/>
			<path style="fill:#C2B7C4;" d="M330.78,197.752c-2.187,1.726-11.969,1.381-20.485-3.107l5.294-11.393l13.58,6.214L330.78,197.752
				z"/>
			<g>
				<g>
					<path style="fill:#F1EDF2;" d="M331.518,132.581l-0.824,1.42c-3.327-2.438-7.038-0.989-7.038-0.989
						c-2.328,3.544-4.278,7.141-5.907,10.622c-6.367,13.608-10.611,23.997-10.611,23.997l12.261,8.197
						c4.924-17.808,13.992-33.572,13.992-33.572C334.979,136.962,331.518,132.581,331.518,132.581z"/>
					<path style="fill:#D2C7D4;" d="M330.694,134.001c-0.178-0.131-0.358-0.249-0.537-0.358
						c-6.225,9.805-11.931,23.294-11.931,23.294l1.431,1.519l12.151-24.21l-0.867-0.671L330.694,134.001z"/>
					<path style="fill:#D2C7D4;" d="M327.999,139.795l0.469-0.442c-0.035-0.036-3.311-3.437-7.63-1.717
						c-0.181,0.321-0.36,0.642-0.536,0.962C324.586,136.271,327.861,139.649,327.999,139.795z"/>
					<path style="fill:#E7DEE8;" d="M321.539,168.909c5.023-14.778,12.655-28.084,12.655-28.084
						c1.167-5.408-2.675-8.244-2.675-8.244l-0.824,1.42c0,0-11.368,21.249-13.338,28.847L321.539,168.909z"/>
					<path style="fill:#D2C7D4;" d="M323.196,164.314c4.885-12.831,10.997-23.489,10.997-23.489
						c0.271-1.258,0.272-2.377,0.113-3.353c-6.12,9.291-12.128,24.375-12.128,24.375L323.196,164.314z"/>
					<path style="fill:#D2C7D4;" d="M331.607,145.635c-0.251-2.576-1.291-4.612-1.353-4.73l-0.278-0.532l-0.29,0.525
						c-0.07,0.127-7.012,12.746-9.047,19.073l0.613,0.197c1.772-5.506,7.32-15.871,8.691-18.395c0.392,0.93,1.078,2.886,1.065,5.03
						C331.215,146.396,331.415,146.007,331.607,145.635z"/>
				</g>
				<g>
					<path style="fill:#E7DEE8;" d="M336.134,155.005l0.771-0.983c0,0-4.013-1.152-5.88,1.107c0,0-9.109,8.872-12.391,22.387
						l9.203,6.404c0,0,3.079-9.393,12.993-21.268C340.831,162.652,340.602,159.047,336.134,155.005z"/>
					<path style="fill:#C2B7C4;" d="M332.645,156.327l-0.709-0.007c-0.055-0.004-0.916-0.007-2.249,0.25
						c-0.212,0.242-0.445,0.514-0.696,0.814c0.916-0.224,1.679-0.328,2.197-0.377c-4.141,4.889-8.783,13.264-8.831,13.351
						l0.564,0.311c0.05-0.09,5.041-9.096,9.251-13.813L332.645,156.327z"/>
					<path style="fill:#D7CCD9;" d="M336.134,155.005c0,0-7.877,9.498-11.097,16.538l4.952,7.293
						c2.784-5.002,7.955-12.374,10.842-16.184C340.831,162.652,340.982,157.393,336.134,155.005z"/>
					<path style="fill:#C2B7C4;" d="M340.233,159.54c-4.36,4.683-10.057,13.941-11.836,16.951l1.593,2.345
						c2.784-5.002,7.955-12.374,10.842-16.184C340.831,162.652,340.871,161.236,340.233,159.54z"/>
					<path style="fill:#C2B7C4;" d="M336.134,155.005c0,0-7.877,9.498-11.097,16.538l1.05,1.784c0,0,0.91-3.643,3.359-8.063
						c2.548-4.598,7.88-9.549,7.88-9.549C336.968,155.459,336.571,155.221,336.134,155.005z"/>
					<path style="fill:#C2B7C4;" d="M337.74,160.163c-1.224-1.913-2.653-2.694-3.346-2.979c-0.132,0.17-0.27,0.347-0.413,0.533
						c0.48,0.174,1.967,0.842,3.216,2.793c0.906,1.417,1.273,3.591,1.422,5.138c0.193-0.266,0.382-0.526,0.566-0.778
						C338.991,163.349,338.585,161.483,337.74,160.163z"/>
				</g>
				<path style="fill:#C2B7C4;" d="M330.588,177.746c0,0-9.36,15.958-13.81,27.16L306.19,198l15.191-27.159L330.588,177.746z"/>
				<path style="fill:#B6A9B8;" d="M322.464,192.634l-2.157-1.539c0,0-3.222,5.524-4.143,9.053
					c-0.449,1.721,0.069,3.315,0.718,4.496C318.387,200.895,320.423,196.638,322.464,192.634z"/>
			</g>
			<g>
				<path style="fill:#FF9696;" d="M234.141,159.375c-0.993-0.536-1.887-0.974-2.634-1.429c-1.289-0.784-3.146-2.865-2.676-3.384
					c0.719-0.795,2.919,1.611,3.485,1.975c0.566,0.364,2.311,1.468,2.769,1.513S234.141,159.375,234.141,159.375z"/>
				<path style="fill:#FF9696;" d="M235.333,159.2c-0.764-0.619-1.526-1.148-2.066-1.652c-0.956-0.892-2.186-3.15-1.534-3.467
					c0.839-0.408,2.05,1.837,2.465,2.251c0.538,0.536,1.771,1.773,2.156,1.885C236.738,158.329,235.333,159.2,235.333,159.2z"/>
				
					<linearGradient id="SVGID_00000097470243988464643160000010902672492941342131_" gradientUnits="userSpaceOnUse" x1="230.65" y1="147.1081" x2="248.7889" y2="159.3548" gradientTransform="matrix(0.9996 0.029 -0.029 0.9996 4.6741 -0.2197)">
					<stop  offset="0" style="stop-color:#FFB8A8"/>
					<stop  offset="1" style="stop-color:#FF9696"/>
				</linearGradient>
				<path style="fill:url(#SVGID_00000097470243988464643160000010902672492941342131_);" d="M240.885,164.164
					c-1.664-1.463-4.174-2.787-6.087-3.814c-3.051-1.638-7.066-2.563-6.704-3.428c0.507-1.211,5.717,0.755,7.648,1.098
					c1.931,0.343,3.411,1.004,3.896,0.382c0.485-0.622-2.4-4.454-1.269-5.022c0.889-0.446,2.028,2.08,3.729,3.813
					c1.336,1.361,1.743,2.106,2.511,4.002l2.175,1.649l-3.935,3.359L240.885,164.164z"/>
				<path style="fill:#F08D8D;" d="M234.799,160.35c1.913,1.027,4.423,2.351,6.087,3.814l1.963,2.039l3.935-3.359l-2.175-1.649
					c-0.768-1.896-1.175-2.641-2.511-4.002c-1.701-1.733-2.84-4.259-3.729-3.813c0.614-0.121,1.457,1.656,2.455,2.96
					c0.997,1.304,1.381,1.343,2.187,3.184c0.806,1.841-0.295,2.933-0.295,2.933c-2.174,1.13-5.805-2.05-8.797-3.124
					c-2.992-1.074-5.831-1.611-5.824-2.411C227.732,157.788,231.747,158.712,234.799,160.35z"/>
			</g>
			<path style="fill:#6B6780;" d="M286.745,134.804c-1.238,0-2.229-0.354-2.951-1.056c-1.22-1.186-1.177-2.916-1.175-2.99
				c0.008-0.255,0.204-0.465,0.459-0.492l7.34-0.753c0.269-0.031,0.513,0.159,0.556,0.425c0.014,0.083,0.32,2.044-0.816,3.469
				c-0.667,0.837-1.673,1.302-2.989,1.383C287.026,134.8,286.884,134.804,286.745,134.804z M283.675,131.233
				c0.066,0.473,0.262,1.231,0.838,1.787c0.588,0.567,1.465,0.819,2.595,0.749c1.013-0.062,1.769-0.397,2.249-0.995
				c0.563-0.702,0.649-1.633,0.642-2.19L283.675,131.233z"/>
			<path style="fill:#D2C7D4;" d="M319.233,156.092c4.45,3.683,20.408,36.366,12.122,41.43c-7.445,4.549-14.117-9.667-17.032-17.186
				S319.233,156.092,319.233,156.092z"/>
			<path style="fill:#D98285;" d="M315.527,154.346c-2.125-1.113-4.813-2.38-6.144-7.579c-0.584-2.28-0.354-5.963,0.696-7.501l0,0
				l0,0l0,0c-0.008,0.002-2.193,0.639-4.775,1.676c-1.273-3.167-4.361-8.702-5.71-8.779c-1.932-0.11-7.597,16.122-7.597,16.122
				c1.031,0.422,3.592-0.023,5.928-1.411c1.263,2.914,0.326,7.827-3.514,8.979c0,0-0.536,7.118,7.823,7.454
				c8.143,0.327,13.035-8.486,13.283-8.942C315.524,154.353,315.527,154.346,315.527,154.346z"/>
			<path style="fill:#B37047;" d="M291.098,108.288c0,0-3.753-0.883-5.961,2.944c-1.054,1.826-0.957,4.784,0.442,7.728
				c0.331,5.777,5.069,9.03,7.871,11.952c3.204,3.341,2.797,1.472,5.593,1.472c2.797,0,2.285,10.624,8.541,10.788
				c6.992,0.184,13.165-7.359,13.1-19.282c-0.074-13.542-11.095-20.117-21.527-19.282
				C292.717,105.124,291.098,108.288,291.098,108.288z"/>
			<path style="fill:#A16242;" d="M293.449,130.912c3.204,3.341,2.797,1.472,5.593,1.472c2.797,0,2.285,10.624,8.541,10.788
				c6.992,0.184,13.165-7.359,13.1-19.282c-0.033-6.036-2.245-10.685-5.606-13.913c0.896,3.183,0.116,6.754-2.48,8.846
				c-4.143,3.337-11.163,4.718-18.874,2.877c-6.257-1.494-8.58-5.494-9.284-7.118c0.054,1.361,0.424,2.869,1.14,4.377
				C285.91,124.737,290.647,127.99,293.449,130.912z"/>
			<path style="fill:#6B6780;" d="M299.488,137.281c-0.093,0-0.187-0.026-0.272-0.079c-0.239-0.15-0.311-0.466-0.16-0.705
				c2.26-3.59,0.272-6.067,0.187-6.171c-0.179-0.217-0.15-0.539,0.066-0.719c0.216-0.18,0.537-0.152,0.718,0.062
				c0.026,0.031,2.565,3.132-0.105,7.372C299.824,137.196,299.658,137.281,299.488,137.281z"/>
			
				<linearGradient id="SVGID_00000151502742041205940040000006904054981096136341_" gradientUnits="userSpaceOnUse" x1="292.8422" y1="148.3337" x2="292.8422" y2="102.5865">
				<stop  offset="0" style="stop-color:#FFB7A7"/>
				<stop  offset="1" style="stop-color:#FF9595"/>
			</linearGradient>
			<path style="fill:url(#SVGID_00000151502742041205940040000006904054981096136341_);" d="M298.299,128.509
				c-1.902-0.019-1.626,2.41-2.675,2.631c-2.098,0.166-2.539-4.195-2.539-4.195c-5.796-2.981-7.507-7.985-7.507-7.985
				c-1.049,3.904-0.026,9.055,0.664,13.06c0.614,7.979,4.585,16.11,5.754,16.265c1.503,0.199,4.247-5.089,5.576-12.173
				c1.317,0.371,2.743-1.219,2.964-3.758C300.71,130.368,299.686,128.49,298.299,128.509z"/>
			<path style="fill:#D27A84;" d="M299.276,132.865c-0.202,1.136-0.75,1.795-1.224,1.472c-0.474-0.323-0.695-1.505-0.493-2.641
				c0.202-1.136,0.75-1.795,1.224-1.472C299.257,130.547,299.478,131.73,299.276,132.865z"/>
			<path style="fill:#965A3E;" d="M317.592,123.375c0,0,3.385-2.208,5.446,1.766c2.061,3.974,1.398,12.07-3.9,15.381
				c-5.299,3.312-10.73,0.64-12.07-4.563c-1.913-7.433,2.429-13.394,6.476-14.351C317.592,120.652,317.592,123.375,317.592,123.375z
				"/>
			<path style="fill:#E7DEE8;" d="M293.354,155.282c0,0-5.806,1.653-7.418,2.881c-1.611,1.227-7.619,19.943-7.365,23.247
				c0.46,5.984,6.291,10.123,6.291,12.889c0,7.979-5.371,13.196-6.905,25.855c0,0,15.958,4.527,28.924,2.992
				c12.966-1.535,16.879-4.757,16.879-4.757s-1.371-6.008-2.685-10.741c-1.534-5.524-3.99-9.514-4.143-14.347
				c-0.197-6.211,2.609-10.895,3.453-19.027c0.844-8.132,0.23-16.955-1.151-18.183c-1.381-1.227-4.45-3.146-6.291-3.529
				c-1.841-0.384-9.053-0.691-9.053-0.691L293.354,155.282z"/>
			<path style="fill:#D2C7D4;" d="M306.881,223.146c12.966-1.534,16.879-4.757,16.879-4.757s-1.371-6.008-2.685-10.741
				c-1.534-5.524-3.98-9.514-4.134-14.347c-0.197-6.211,2.712-10.895,3.556-19.027c0.844-8.132,0.117-16.955-1.264-18.183
				c-1.381-1.227-4.45-3.146-6.291-3.529c-1.841-0.384-9.053-0.691-9.053-0.691l-9.569,3.098l-0.122,0.083
				c0,0,5.05,4.396,4.935,15.443c-0.105,10.127-2.187,17.723-2.417,23.247c-0.212,5.087,3.768,18.371,2.692,29.698
				C301.921,223.508,304.453,223.434,306.881,223.146z"/>
			<path style="fill:#F1EDF2;" d="M294.198,155.052l0.638-4.945c0,0,4.066-2.762,10.127-3.452c4.445-0.506,6.214-0.307,6.214-0.307
				l1.765,6.214C312.942,152.563,309.978,151.711,294.198,155.052z"/>
			<path style="fill:#E7DEE8;" d="M285.936,158.163c-4.757,1.86-10.511,14.519-18.413,21.866c0,0-7.979-10.339-20.178-19.257
				c0,0-4.296,0.767-6.445,6.291c0,0,6.905,9.207,11.662,16.725c4.757,7.519,8.286,13.522,15.037,14.903
				c6.752,1.381,16.649-12.064,16.649-12.064L285.936,158.163z"/>
			<path style="fill:#6B6780;" d="M282.707,131.268c-0.26,0-0.484-0.198-0.509-0.463c-0.026-0.281,0.18-0.531,0.461-0.557
				l13.469-1.273c0.289-0.026,0.531,0.18,0.557,0.461c0.026,0.281-0.18,0.531-0.461,0.557l-13.469,1.273
				C282.739,131.268,282.722,131.268,282.707,131.268z"/>
			<path style="fill:#A16242;" d="M284.764,126.214c-0.198,0.555,0.165,0.814,1.107,1.112c1.066,0.337,1.57,0.64,1.782,0.134
				C287.982,126.673,285.306,124.697,284.764,126.214z"/>
			<path style="fill:#C9BCCC;" d="M267.599,198.691c4.833,0.989,11.239-5.216,14.534-9.292c1.423,1.972,2.729,3.592,2.729,4.9
				c0,0.405-0.023,0.799-0.049,1.192c4.591-8.502,3.962-18.205,3.962-18.205s-14.04,19.794-20.792,19.334
				c-5.073-0.346-8.132-4.757-14.424-13.81c-7.282-10.479-12.659-15.747-12.659-15.747s6.905,9.207,11.662,16.725
				C257.319,191.307,260.848,197.31,267.599,198.691z"/>
			<path style="fill:#E2DAE3;" d="M294.198,155.052c14.64-3.123,18.744-2.49,18.744-2.49l-1.765-6.214c0,0-1.77-0.2-6.214,0.307
				c-2.636,0.3-4.893,0.992-6.603,1.678C298.697,152.337,296.778,154.032,294.198,155.052z"/>
			<path style="fill:#A16242;" d="M291.14,108.339c-5.043-1.937-8.803,3.196-8.212,7.88c0.76,6.028,6.639,11.273,12.638,11.33
				c0.528,0.005,0.528-0.811,0-0.819c-4.474-0.073-8.365-2.798-10.557-6.651c-2.734-4.807-1.081-13.205,5.981-11.195
				C291.346,108.985,291.472,108.467,291.14,108.339L291.14,108.339z"/>
			<path style="fill:#B37047;" d="M290.177,103.924c-0.638,1.979-0.337,4.048,1.401,5.355c0.386,0.291,0.771-0.366,0.381-0.651
				c-1.47-1.075-1.598-2.983-1.438-4.657C290.54,103.766,290.235,103.744,290.177,103.924L290.177,103.924z"/>
			<path style="fill:#A16242;" d="M300.852,134.876c-1.036,3.827,2.329,8.158,6.221,8.254c0.408,0.01,0.408-0.624,0-0.635
				c-3.463-0.085-6.528-4.056-5.609-7.45C301.571,134.65,300.959,134.482,300.852,134.876L300.852,134.876z"/>
			<path style="fill:#965A3E;" d="M323.08,130.9c1.296,3.316,0.917,6.778-1.781,9.288c-2.98,2.773-7.388,3.121-10.214,0.066
				c-0.224-0.242-0.569,0.065-0.435,0.336c1.963,3.985,7.614,2.854,10.499,0.634c3.159-2.431,4.526-6.988,2.329-10.491
				C323.353,130.534,322.986,130.661,323.08,130.9L323.08,130.9z"/>
			<path style="fill:#965A3E;" d="M317.641,123.711c2.787-2.52,5.676,0.014,6.396,2.93c0.628,2.546,0.118,4.74-1.854,6.506
				c-0.268,0.24,0.073,0.6,0.36,0.467c3.275-1.512,3.032-6.574,1.403-9.21c-1.398-2.263-4.864-3.528-6.576-0.901
				C317.259,123.672,317.5,123.838,317.641,123.711L317.641,123.711z"/>
			<g>
				<path style="fill:#A16242;" d="M287.084,110.337c-2.065,2.784,0.066,5.969,2.429,7.8c3.076,2.383,7.721,3.206,11.534,2.948
					c0.258-0.018,0.353-0.426,0.065-0.481c-2.408-0.46-4.872-0.376-7.25-1.075c-3.781-1.11-8.715-4.426-6.618-9.099
					C287.293,110.321,287.155,110.241,287.084,110.337L287.084,110.337z"/>
				<path style="fill:#A16242;" d="M298.156,118.995c2.835,1.475,7.337,1.857,10.166,0.153c0.189-0.114,0.129-0.484-0.122-0.452
					c-1.581,0.206-3.034,0.72-4.657,0.765c-1.802,0.05-3.545-0.304-5.3-0.672C298.124,118.764,298.037,118.933,298.156,118.995
					L298.156,118.995z"/>
				<path style="fill:#A16242;" d="M301.326,105.484c-1.763-0.286-3.424-0.138-5.099,0.511c-1.216,0.471-2.848,1.16-3.308,2.465
					c-0.115,0.326,0.366,0.499,0.539,0.227c1.479-2.325,5.332-2.869,7.818-2.836C301.481,105.855,301.539,105.518,301.326,105.484
					L301.326,105.484z"/>
				<path style="fill:#A16242;" d="M300.819,107.096c4.66-0.143,10.847,0.192,12.063,5.808c0.065,0.301,0.49,0.209,0.51-0.069
					c0.415-5.549-8.7-7.542-12.615-6.048C300.621,106.846,300.629,107.102,300.819,107.096L300.819,107.096z"/>
				<path style="fill:#A16242;" d="M291.79,113.135c1.308,3.042,5.441,4.251,8.489,3.833c0.202-0.028,0.194-0.365,0-0.4
					c-1.472-0.263-2.971-0.215-4.41-0.691c-1.615-0.534-2.844-1.523-3.85-2.875C291.916,112.863,291.723,112.978,291.79,113.135
					L291.79,113.135z"/>
			</g>
			<g>
				<path style="fill:#8C513A;" d="M316.089,123.728c-0.848-0.883-2.619-0.682-3.598-0.114c-1.183,0.686-2.433,1.797-2.687,3.187
					c-0.05,0.274,0.357,0.503,0.489,0.206c0.43-0.975,1.107-1.706,1.949-2.344c1.162-0.88,2.29-0.899,3.67-0.63
					C316.086,124.066,316.221,123.865,316.089,123.728L316.089,123.728z"/>
				<path style="fill:#8C513A;" d="M311.699,126.396c-3.344,2.61-3.704,12.508,2.086,12.143c0.296-0.019,0.375-0.444,0.072-0.53
					c-5.313-1.507-4.656-7.872-1.921-11.376C312.069,126.462,311.87,126.262,311.699,126.396L311.699,126.396z"/>
				<path style="fill:#8C513A;" d="M314.525,136.424c1.213,1.116,3.543,1.061,4.445-0.454c0.114-0.191-0.119-0.444-0.314-0.314
					c-1.244,0.823-2.532,1.194-3.964,0.552C314.559,136.149,314.401,136.31,314.525,136.424L314.525,136.424z"/>
				<path style="fill:#8C513A;" d="M317.233,139.615c4.321-0.178,6.007-5.885,5.427-9.432c-0.033-0.202-0.378-0.203-0.41,0
					c-0.294,1.889-0.204,3.75-1.053,5.531c-0.84,1.762-2.248,2.836-4.009,3.572C317.03,139.352,317.027,139.623,317.233,139.615
					L317.233,139.615z"/>
				<path style="fill:#8C513A;" d="M319.175,126.722c0.42,0.777,0.848,1.577,1.097,2.428c0.23,0.788,0.21,1.605,0.396,2.397
					c0.058,0.248,0.399,0.217,0.472,0c0.561-1.675-0.411-3.938-1.671-5.052C319.311,126.355,319.071,126.53,319.175,126.722
					L319.175,126.722z"/>
			</g>
			<path style="fill:#C2B7C4;" d="M320.497,174.275c-0.571,5.503-2.087,9.427-2.948,13.314c0.603,1.172,1.252,2.339,1.943,3.449
				c2.097-4.215,1.289-14.046,1.01-16.813C320.5,174.241,320.499,174.258,320.497,174.275z"/>
		</g>
		<g>
			<path style="fill:#ADAFB8;" d="M85.176,191.096c0,0-16.725-0.463-18.549-2.361c-11.889,1.719-19.041,6.63-16.194,11.069
				c2.34,6.023,18.605,9.705,37.751,0.282C88.183,200.085,89.385,195.362,85.176,191.096z"/>
			<g>
				<polygon style="fill:#C4C5CF;" points="69.696,163.638 85.671,158.941 83.723,152.243 67.748,156.94 				"/>
				
					<linearGradient id="SVGID_00000133509794377878929080000008202533916137678000_" gradientUnits="userSpaceOnUse" x1="-682.9901" y1="290.1654" x2="-682.9901" y2="243.9424" gradientTransform="matrix(-0.9508 0.2795 0.2864 0.9533 -643.8779 115.3116)">
					<stop  offset="0" style="stop-color:#544140"/>
					<stop  offset="0.5342" style="stop-color:#503D3C"/>
					<stop  offset="1" style="stop-color:#463332"/>
				</linearGradient>
				<polygon style="fill:url(#SVGID_00000133509794377878929080000008202533916137678000_);" points="70.526,206.757 
					106.925,196.055 93.359,150.904 56.961,161.606 				"/>
				<polygon style="fill:#545666;" points="70.526,206.757 106.925,196.055 93.359,150.904 56.961,161.606 				"/>
				<polygon style="fill:#626376;" points="71.652,206.426 108.05,195.724 94.485,150.573 58.087,161.275 				"/>
				<polygon style="fill:#F1EDF2;" points="72.412,204.566 106.387,194.577 93.725,152.432 59.75,162.421 				"/>
				<polygon style="fill:#D2C7D4;" points="72.412,204.566 106.387,194.577 100.443,174.833 66.467,184.822 				"/>
			</g>
			<path style="fill:#ADAFB8;" d="M50.287,198.899c4.39,4.827,10.748,1.537,18.443-7.267c2.992-3.913,8.148-11.604,8.148-11.604
				l1.058-27.62C61.979,160.407,46.16,192.819,50.287,198.899z"/>
			<path style="fill:#936466;" d="M111.29,101.591c-5.037-3.067-11.966-4.616-17.684-2.578c-2.52,0.898-5.486,2.765-5.586,5.732
				c-0.01,0.302,0.492,0.384,0.54,0.073c0.504-3.257,4.22-4.966,7.098-5.576c5.467-1.159,10.452,0.854,15.489,2.692
				C111.35,102.008,111.466,101.699,111.29,101.591L111.29,101.591z"/>
			<path style="fill:#80565A;" d="M92.711,99.638c-3.368-0.898-7.012,1.411-8.226,4.541c-0.801,2.064-0.92,5.684,1.48,6.802
				c0.356,0.166,0.644-0.31,0.31-0.531c-2.027-1.339-1.996-4.203-1.126-6.233c1.435-3.347,4.411-3.63,7.563-4.262
				C92.874,99.923,92.862,99.678,92.711,99.638L92.711,99.638z"/>
			<path style="fill:#6B6780;" d="M169.804,164.303L169.804,164.303c-0.341-0.375-0.361-0.911-0.043-1.193
				c0,0,24.512-21.848,25.34-22.512c0.411-0.329,0.666-0.323,0.879-0.088c0.203,0.224,0.183,0.511-0.172,0.867
				c-0.703,0.706-24.821,23.083-24.821,23.083C170.677,164.749,170.145,164.679,169.804,164.303z"/>
			
				<linearGradient id="SVGID_00000026867178876321922300000013619839440622628226_" gradientUnits="userSpaceOnUse" x1="179.3224" y1="155.6435" x2="162.4438" y2="172.8291">
				<stop  offset="0" style="stop-color:#FFB8A8"/>
				<stop  offset="1" style="stop-color:#FF9696"/>
			</linearGradient>
			<path style="fill:url(#SVGID_00000026867178876321922300000013619839440622628226_);" d="M161.124,166.858
				c0.563-0.521,1.392-1.119,2.138-1.921c2.04-2.195,5.096-5.299,7.032-6.249c2.317-1.138,10.489-1.943,10.526-0.448
				c0.043,1.72-4.066,0.69-8.132,2.608c0,0,6.138,0.614,5.502,2.551c-0.395,1.204-3.672-0.275-4.487,0.378
				c0.7,0.359,2.978,0.771,2.726,1.961c-0.253,1.19-2.629,0.31-3.282,0.613c-0.653,0.304-2.185,1.979-5.073,2.789l-2.27,2.608
				L161.124,166.858z"/>
			<path style="fill:#E39494;" d="M175.354,159.237c-2.417,0.633-3.51,1.093-3.625,1.554c-0.115,0.46,1.093,3.222,0.652,4.603
				c-0.294,0.919-5.198,4.143-7.269,1.726c-0.733-0.855-0.976-1.991-0.984-3.103c-0.303,0.318-0.594,0.627-0.866,0.92
				c-0.746,0.802-1.576,1.399-2.138,1.921l4.681,4.892l2.27-2.608c2.888-0.81,4.42-2.486,5.073-2.789
				c0.653-0.303,3.03,0.577,3.282-0.613c0.253-1.19-2.026-1.603-2.726-1.961c0.815-0.653,4.092,0.826,4.487-0.378
				c0.635-1.937-5.502-2.551-5.502-2.551c4.066-1.918,8.176-0.889,8.132-2.608C180.82,158.949,177.771,158.604,175.354,159.237z"/>
			<path style="fill:#6B6780;" d="M121.684,220.078c0,7.519,0,28.54,0,28.54H97.577l-0.614-7.193h-1.688l-0.153,7.193H74.714
				c0,0-0.767-23.802,0-29.001L121.684,220.078z"/>
			<path style="fill:#585469;" d="M74.714,248.618h20.408l0.153-7.193h1.688l0.614,7.193h4.573l-0.379-7.193h4.757
				c0,0-4.884-2.378-5.191-3.759c-0.307-1.381-0.486-9.59-0.486-9.59c9.585-1.766,19.219-4.775,20.834-5.791c0-0.82,0-1.563,0-2.206
				l-46.969-0.46C73.947,224.816,74.714,248.618,74.714,248.618z"/>
			<path style="fill:#C4C5CF;" d="M110.467,150.568c-5.611-1.028-24.244-1.227-24.244-1.227s-9.667,1.995-11.201,5.984
				c-3.624,9.423,0.153,41.755-0.767,65.999c12.26,6.099,30.231,5.236,47.953,0.614c0,0-0.308-17.335-0.308-29.154
				c0-21.233,2.839-33.776-1.458-37.612C117.037,152.133,110.467,150.568,110.467,150.568z"/>
			<path style="fill:#ADAFB8;" d="M110.467,150.568c-9.59-2.36-24.244-1.227-24.244-1.227s-7.365,1.668-11.163,4.891
				c-5.463,11.609,0.038,43.249-0.882,67.493c11.278,5.508,26.546,3.82,26.546,3.82c-0.58-11.177,0.152-34.465,0.69-51.02
				C102.027,155.65,110.467,150.568,110.467,150.568z"/>
			<path style="fill:#E39494;" d="M106.413,133.074c0,0,5.86,5.915,5.62,9.969c-0.422,0.901-2.908,1.003-5.057,0.274
				c-0.586,0.281-0.637,1.535-0.614,2.455c0.103,4.01,4.105,4.795,4.105,4.795c-8.062-1.865-16.147-1.964-24.244-1.227
				c0,0,7.365-0.212,4.143-12.122l13.405-11.142L106.413,133.074z"/>
			<path style="fill:#936466;" d="M85.208,110.441l29.539,5.119c-3.931,1.929-3.727,13.752-5.628,14.179
				c-1.901,0.427-4.604-2.029-4.604-2.029c-1.482-1.323-2.009,7.755-5.179,9.845c-1.904,1.256-8.174,1.131-9.987-0.064
				c-1.291-0.851-3.949-4.154-5.581-12.6C82.135,116.445,82.9,111.42,85.208,110.441z"/>
			
				<linearGradient id="SVGID_00000107562633178242487520000015741344271947598470_" gradientUnits="userSpaceOnUse" x1="-1268.3373" y1="491.7532" x2="-1275.3672" y2="445.5041" gradientTransform="matrix(-0.4902 0.2972 0.0693 0.9504 -546.0619 54.6965)">
				<stop  offset="0" style="stop-color:#FFB8A8"/>
				<stop  offset="1" style="stop-color:#FF9696"/>
			</linearGradient>
			<path style="fill:url(#SVGID_00000107562633178242487520000015741344271947598470_);" d="M105.846,125.509
				c1.05,0.617,1.263,3.021,2.7,3.265c1.548,0.263,2.392-6.104,2.721-9.868c0.79-9.039,5.199-5.185,5.413-3.917
				c0.261,1.549-0.157,7.308-0.776,13.647c-0.738,7.551-2.475,13.493-4.018,14.547c-2.117,1.682-6.56-5.524-6.558-10.434
				c-1.741,0.355-2.614-1.958-2.271-4.098C103.411,126.442,104.581,124.766,105.846,125.509z"/>
			<path style="fill:#936466;" d="M94.585,100.411c9.056-1.921,15.038,0.153,18.106,1.841c0,0-1.151,0.23-2.033,0.072
				c0,0,1.314,0.833,4.831,3.122c3.076,2.002,4.595,2.153,5.856,1.904c0.89,2.507-4.436,10.761-12.953,10.732l-23.186-7.641
				C85.208,110.441,81.926,103.096,94.585,100.411z"/>
			<path style="fill:#D37A85;" d="M105.959,129.052c-0.045,1.194-0.477,2.148-0.966,2.129s-0.848-1.001-0.803-2.196
				c0.045-1.194,0.477-2.148,0.966-2.129C105.645,126.875,106.004,127.858,105.959,129.052z"/>
			<g>
				<path style="fill:#80565A;" d="M117.437,122.699c-0.124,0.929-0.313,1.498-1.191,1.618c-1.126,0.154-1.9-0.367-1.863-1.175
					c0.042-0.92,0.706-2.032,2.025-2.1C117.266,120.997,117.567,121.723,117.437,122.699z"/>
			</g>
			<path style="fill:#C4C5CF;" d="M119.213,154.404c7.058,4.45,22.863,25.779,22.863,25.779l18.567-15.344
				c0,0,4.143,1.227,6.751,7.979c0,0-15.184,25.329-25.241,26.641c-10.588,1.381-26.699-18.183-26.699-18.183L119.213,154.404z"/>
			<path style="fill:#80565A;" d="M85.143,110.715c-0.622-0.864-1.355-1.629-1.818-2.602c-0.569-1.197-0.625-2.329-0.623-3.624
				c0-0.224-0.295-0.292-0.41-0.111c-1.258,1.986,0.766,5.619,2.604,6.583C85.043,111.038,85.255,110.872,85.143,110.715
				L85.143,110.715z"/>
			<path style="fill:#80565A;" d="M85.247,110.202c-7.508,3.399-1.953,17.544,1.169,22.325c0.217,0.332,0.693,0.045,0.526-0.308
				c-2.566-5.418-8.318-17.102-1.456-21.608C85.746,110.442,85.522,110.078,85.247,110.202L85.247,110.202z"/>
			<path style="fill:#80565A;" d="M110.224,119.409c2.005,0.485,3.861-0.675,5.257-2.019c1.423-1.37,3.394-3.397,3.258-5.515
				c-0.019-0.29-0.404-0.342-0.501-0.068c-1.229,3.482-4.002,6.97-7.958,7.189C110.053,119.01,109.984,119.351,110.224,119.409
				L110.224,119.409z"/>
			<path style="fill:#80565A;" d="M121.347,107.35c0,0-2.441,4.875-9.691,6.601c-7.25,1.726-16.122,1.54-21.52-2.877
				c-4.517-3.696-1.982-7.758-1.383-8.592c-5.646,3.255-3.545,7.958-3.545,7.958c-2.308,0.979-3.072,6.004-1.44,14.451
				s4.291,11.749,5.581,12.6c1.813,1.195,8.083,1.32,9.987,0.064c1.925-1.27,2.875-5.117,3.657-7.646
				c-0.129-2.241,1.206-5.368,2.853-4.4c1.05,0.617,1.263,3.021,2.7,3.265c1.548,0.263,2.392-6.104,2.721-9.868
				c0.036-0.415,0.08-0.804,0.131-1.166c1.743-0.409,3.465-1.192,5.103-2.404C120.042,112.706,121.901,108.913,121.347,107.35z"/>
			<g>
				<path style="fill:#80565A;" d="M102.078,113.441c5.647,1.475,12.798-0.487,16.685-4.924c0.141-0.161-0.048-0.462-0.245-0.318
					c-5.185,3.79-9.934,5.365-16.393,4.899C101.925,113.083,101.89,113.392,102.078,113.441L102.078,113.441z"/>
				<path style="fill:#80565A;" d="M97.693,111.113c2.413,1.204,5.749,1.832,8.396,1.146c0.303-0.079,0.221-0.505-0.071-0.525
					c-1.296-0.089-2.589,0.038-3.89-0.083c-1.471-0.137-2.895-0.47-4.339-0.766C97.659,110.858,97.559,111.047,97.693,111.113
					L97.693,111.113z"/>
				<path style="fill:#80565A;" d="M89.902,107.901c-0.55-2.551,1.711-4.697,3.811-5.704c0.252-0.121,0.074-0.524-0.189-0.448
					c-2.394,0.7-4.717,3.716-3.926,6.235C89.659,108.179,89.945,108.099,89.902,107.901L89.902,107.901z"/>
				<path style="fill:#80565A;" d="M93.329,104.153c3.174-2.655,7.819-2.945,11.756-2.655c0.258,0.019,0.322-0.418,0.062-0.456
					c-3.462-0.515-9.832-0.265-12.088,2.902C92.938,104.114,93.19,104.269,93.329,104.153L93.329,104.153z"/>
			</g>
			<path style="fill:#ADAFB8;" d="M141.309,197.233c-7.365,0.307-27.006-19.794-27.006-19.794s1.995,14.424,7.621,22.063
				c-0.016-2.328-0.026-4.611-0.026-6.718c0-1.573,0.016-3.098,0.043-4.576c5.653,5.476,13.911,12.072,20.212,11.25
				c10.057-1.312,25.242-26.641,25.242-26.641S148.674,196.926,141.309,197.233z"/>
			<path style="fill:#E7DEE8;" d="M86.223,149.34c0,0,2.876-0.414,10.357-0.212c8.516,0.23,13.887,1.439,13.887,1.439l-1.343-5.313
				c0,0-5.562-2.647-12.621-2.57c-5.879,0.064-8.286,1.611-8.286,1.611L86.223,149.34z"/>
		</g>
	</g>
	<g>
		<defs>
			<filter id="Adobe_OpacityMaskFilter" filterUnits="userSpaceOnUse" x="116.612" y="79.635" width="60.049" height="65.802">
				<feColorMatrix  type="matrix" values="1 0 0 0 0  0 1 0 0 0  0 0 1 0 0  0 0 0 1 0"/>
			</filter>
		</defs>
		
			<mask maskUnits="userSpaceOnUse" x="116.612" y="79.635" width="60.049" height="65.802" id="SVGID_00000057838206550442030560000015416972568517025711_">
			<g style="filter:url(#Adobe_OpacityMaskFilter);">
				
					<linearGradient id="SVGID_00000173143143921703280770000006450528781937381023_" gradientUnits="userSpaceOnUse" x1="-234.139" y1="161.6988" x2="-269.2549" y2="216.6826" gradientTransform="matrix(-0.876 -0.5659 -0.6009 0.8245 40.9989 -186.3875)">
					<stop  offset="0" style="stop-color:#FFFFFF"/>
					<stop  offset="0.2281" style="stop-color:#C4C4C4"/>
					<stop  offset="1" style="stop-color:#000000"/>
				</linearGradient>
				<polygon style="fill:url(#SVGID_00000173143143921703280770000006450528781937381023_);" points="116.612,145.249 
					176.662,145.437 157.609,79.703 136.078,79.635 				"/>
			</g>
		</mask>
		<polygon style="opacity:0.2;mask:url(#SVGID_00000057838206550442030560000015416972568517025711_);fill:#FFF8E6;" points="
			116.612,145.249 176.662,145.437 157.609,79.703 136.078,79.635 		"/>
		<g>
			<polygon style="fill:#4E4C63;" points="147.644,64.399 145.694,64.392 145.779,22.634 147.73,22.633 			"/>
			<polygon style="fill:#4E4C63;" points="158.311,80.803 134.963,80.702 142.055,58.641 151.301,58.677 			"/>
			<path style="fill:#3D3B4C;" d="M158.311,80.803l-23.348-0.101c18.434-2.993,20.412-17.83,7.092-22.061l9.246,0.036
				L158.311,80.803z"/>
		</g>
	</g>
</g>
</svg>
