<?xml version="1.0" encoding="utf-8"?>
<!-- Generator: Adobe Illustrator 27.5.0, SVG Export Plug-In . SVG Version: 6.00 Build 0)  -->
<svg version="1.1" id="Layer_1" xmlns="http://www.w3.org/2000/svg" xmlns:xlink="http://www.w3.org/1999/xlink" x="0px" y="0px"
	 viewBox="0 0 900 900" style="enable-background:new 0 0 900 900;display:none;" xml:space="preserve">
<g style="display:inline;">
	<g>
		<g style="opacity:0.7;">
			<path style="fill:#8271A8;" d="M187.305,824.78c0-2.84,2.709-5.163,6.021-5.163h481.983c3.311,0,6.021,2.323,6.021,5.163
				c0,2.84-2.709,5.163-6.021,5.163H193.326C190.014,829.944,187.305,827.62,187.305,824.78z"/>
		</g>
		<path style="fill:#442E1E;" d="M307.511,767.91c-0.985,7.879-8.583,26.032-4.644,30.464c3.939,4.432,11.325,3.283,15.429,0.328
			s6.073-12.721,4.924-14.034C322.072,783.355,307.511,767.91,307.511,767.91z"/>
		<path style="fill:#177FBF;" d="M415.684,536.439l-39.249-25.676l11.286-26.936l1.097-2.626c0.548,1.412,1.284,2.206,2.101,2.626
			h0.012c0,0,0,0,0,0.012c3.256,1.657,7.948-2.579,8.403,2.042c0.42,4.272,8.018,4.47,12.78,3.688
			c1.692-0.28,3.034-0.677,3.571-1.062c0,0,0.198,1.646,0.735,4.715c0.012,0.105,0.035,0.222,0.047,0.339
			c0.035,0.116,0.047,0.245,0.07,0.374c0.584,3.174,1.494,7.667,2.883,13.27c0.759,3.07,1.657,6.477,2.731,10.177
			C427.332,535.272,415.684,536.439,415.684,536.439z"/>
		<g>
			<path style="fill:none;stroke:#E5785C;stroke-width:21;stroke-linecap:round;stroke-linejoin:round;stroke-miterlimit:10;" d="
				M415.374,309.441l85.442,46.652c4.827,2.636,11.215,1.01,14.194-3.613l48.289-74.92"/>
		</g>
		<g>
			<path style="fill:#177FBF;" d="M324.391,637.17c1.517,7.854,1.331,33.355-16.864,116.02c-1.144,5.182-1.622,7.341-1.856,8.706
				c-0.852,4.983,0.164,9.85,2.556,13.877c2.404,4.061,6.197,7.259,10.842,8.881c1.051,0.362,2.136,0.642,3.268,0.84
				c1.167,0.199,2.334,0.303,3.49,0.303c9.757,0,18.393-7.026,20.109-16.969c0.128-0.689,0.817-3.828,1.482-6.863
				c15.721-71.39,20.984-112.262,17.086-132.522c-3.408-17.705-10.2-53.908-15.429-81.871c-3.91-20.996-6.956-37.347-7.026-37.732
				c-0.245-1.319-0.607-2.579-1.086-3.781c-0.525-1.33-1.179-2.579-1.949-3.735c-1.774-2.684-4.143-4.902-6.897-6.477
				c-4.05-2.322-8.928-3.268-13.877-2.346c-11.099,2.054-18.417,12.721-16.351,23.808c0.047,0.269,1.611,8.66,3.922,21.066
				C311.074,566.585,320.224,615.555,324.391,637.17z"/>
		</g>
		<g>
			<path style="fill:#177FBF;" d="M384.04,530.02c0.175,0.42,0.362,0.875,0.56,1.331c4.388,10.574,12.254,30.134,19.373,49.438
				c6.326,17.121,12.056,34.055,14.25,44.349c5.275,24.626-1.144,134.973-2.509,145.617c-1.739,11.005,5.695,21.416,16.713,23.307
				c1.179,0.21,2.346,0.303,3.49,0.303c9.757,0,18.393-7.014,20.109-16.958c1.26-7.376,9.372-127.025,2.148-160.812
				c-6.571-30.682-35.234-99.412-36.448-102.33c-4.353-10.399-16.316-15.312-26.714-10.959c-0.268,0.117-0.537,0.234-0.805,0.362
				c-6.641,3.116-10.877,9.407-11.624,16.281C382.208,523.263,382.663,526.717,384.04,530.02z"/>
		</g>
		<path style="fill:#FFE14E;" d="M431.664,297.057c8.871,3.824,37.331,26.469,37.331,26.469l-16.082,32.1
			c0,0,0.981,0.493-12.967-6.633c-13.949-7.126-47.511-21.171-29.008-43.827C420.651,293.273,431.664,297.057,431.664,297.057z"/>
		<g>
			<g>
				<path style="fill:#FCB322;" d="M427.807,299.242c7.05,8.418,6.486,21.523,2.629,31.873c-8.007,22.145-3.903,43.157-8.285,66.052
					c-3.302,17.251,2.597,39.648,0.58,57.23c-2.035,17.737-3.324,3.927-3.525,20.567c-0.009,0.735-0.17,21.255-18.054,13.612
					c-4.921-4.705-12.152-11.259-19.41-16.184L427.807,299.242z"/>
				<path style="fill:#FFE14E;" d="M317.922,315.253c0.121-0.353,0.251-0.731,0.385-1.081c5.293-13.802,19.122-28.668,34.74-27.045
					c0.598,0.062,1.276,0.083,1.956,0.034c2.828-0.206,6.143-1.3,9.025-0.92c17.202,2.27,34.403,4.539,51.605,6.809
					c0.752,0.099,1.483,0.246,2.164,0.423c0.662,0.137,1.315,0.324,1.898,0.525c2.97,1.023,5.557,2.581,7.54,4.645
					c0.211,0.19,0.407,0.403,0.572,0.601l-46.064,173.15c-5.081-3.449-10.176-6.1-14.501-6.761
					c-16.278-2.486-32.201-6.043-47.265-13.403C302.835,443.854,295.689,435,295.689,435
					C298.009,393.766,305.275,354.569,317.922,315.253z"/>
				<path style="fill:#FFE536;" d="M403.302,476.027c0,0,0.236-0.45,0.495-1.063C403.899,475.639,403.302,476.027,403.302,476.027z"
					/>
				<path style="fill:#FFB287;" d="M411.378,292.484c-0.957,1.809-1.435,2.719-2.369,4.528c-0.07,8.251-4.937,10.807-14.624,10.935
					c-9.208,0.117-14.682-2.334-18.918-6.419c-2.346-2.229-4.318-4.972-6.337-8.041c-0.163-0.245-1.074-0.689-2.369-1.237
					c-3.968-1.692-11.519-4.365-11.753-5.089c2.836-0.21,6.139-1.295,9.022-0.922c0.268,0.035,0.525,0.07,0.794,0.105
					c1.505,0.198,2.999,0.397,4.505,0.595c13.363,1.762,26.738,3.525,40.113,5.287c0.082,0.012,0.175,0.023,0.257,0.035h0.011
					C410.269,292.332,410.818,292.414,411.378,292.484z"/>
				<path style="fill:#177FBF;" d="M401.068,291.37c1.042,0.629,1.923,1.521,2.558,2.607c10.286,17.598-2.134,46.845-6.809,64.896
					c3.205,0.149,4.807,0.223,8.013,0.372c2.105,0.552,3.686,0.828,5.791,1.38c4.992-19.167,16.788-45.464,9.847-63.804
					c-0.428-1.131-1.152-2.162-1.933-2.978c-1.236-1.291-2.845-2.125-4.901-2.397c0,0-4.701-1.145-8.111-1.105
					c-0.129,0.006-0.258,0.013-0.371,0.01c-1.453,0.334-0.737-0.031-2.255,0.334C402.896,290.685,401.598,290.598,401.068,291.37z"
					/>
				<path style="fill:#F7C52C;" d="M317.921,315.253c-13.568,42.09-20.92,84.14-22.474,128.334c0,0,7.382,0.246,24.527,8.647
					c10.82,0.865,16.23,1.298,27.052,2.164c0.424-26.43,2.803-52.136,7.242-78.194c-4.585-20.061-8.203-40.057-10.828-60.468
					c0,0-12.594-0.871-25.131-1.557C318.17,314.529,318.042,314.9,317.921,315.253z"/>
				<path style="fill:#177FBF;" d="M287.802,488.168c1.506,23.248,10.025,38.245,18.008,50.208
					c6.711,10.072,13.048,17.997,14.483,26.878c1.214,0.164,2.357,0.292,3.408,0.385c13.468,1.284,14.577-2.486,23.879-15.977
					c0.513-0.735,1.599-1.284,1.494-2.089c-1.144-8.391,5.31-12.569,13.13-14.589c0.093-0.023,0.199-0.058,0.304-0.082
					c8.485-2.136,18.475-1.774,22.093-1.552c0.198,0.011,0.374,0.023,0.525,0.035c-0.747-4.668,0.385-9.337,2.311-14.005
					c0,0,0,0,0-0.012c1.856-4.563,4.458-9.126,6.769-13.701c2.953-5.906,5.415-11.834,5.123-17.786
					c-0.105-2.614-0.257-6.279-0.362-10.247c-0.187-7.784-0.187-11.682-0.011-19.467c0-0.07,0-0.14,0.011-0.198
					c0-0.012-0.011-0.012-0.011-0.012c0.047-1.762,0.07-2.649,0.128-4.423c1.552-31.383,4.388-61.213,11.741-91.768
					c-21.159-2.789-45.365-5.579-66.535-8.38c-1.214,4.692-0.105,0.28-2.626,10.294c-6.162,24.544-9.255,49.846-10.445,75.102
					c-0.152,3.198-1.424,6.629-6.115,6.011c-11.904-1.576-23.82-3.151-35.725-4.715c0,0-0.864,26.796-1.319,41.221
					C287.908,484.154,287.814,487.608,287.802,488.168z"/>
				<g>
					<path style="fill:#602C34;" d="M318.313,502.613l-0.03-0.197L318.313,502.613z"/>
					<path style="fill:#602C34;" d="M316.848,488.504l0.007,0.073L316.848,488.504z"/>
					<path style="fill:#602C34;" d="M316.725,486.653l0.005,0.109L316.725,486.653z"/>
					<path style="fill:#602C34;" d="M317.182,484.235l-0.094-0.408L317.182,484.235z"/>
					<path style="fill:#602C34;" d="M319.103,506.547l-0.043-0.185L319.103,506.547z"/>
					<path style="fill:#602C34;" d="M318.687,504.674l-0.06-0.295L318.687,504.674z"/>
				</g>
				<path style="fill:#177FBF;" d="M366.001,354.502c-1.926-0.152-4.446-0.245-6.664-0.35c-0.723-0.047-1.424-0.082-2.054-0.129
					c-2.848-0.525-4.283-0.782-7.131-1.307c3.151-11.764,21.217-62.906-0.35-65.754c-0.432-0.07-0.887-0.105-1.354-0.128
					c0,0,0.28-0.21,0.759-0.514c0.548-0.35,1.365-0.817,2.334-1.214c1.027-0.408,2.229-0.747,3.466-0.759
					c0.245,0,0.514,0,0.794,0.012c3.583,0.129,9.582,1.272,9.582,1.272c7.108,1.109,10.142,7.084,10.842,15.149
					C377.789,318.591,368.044,346.555,366.001,354.502z"/>
				<g style="opacity:0.5;">
					<path style="fill:#27A3E0;" d="M358.91,370.838c-1.142,5.344-1.67,8.026-2.637,13.404c-1.288,7.162,3.23,13.764,9.788,14.63
						c5.623,0.742,8.434,1.113,14.057,1.855c6.559,0.865,12.773-4.321,14.061-11.483c0.967-5.378,1.495-8.059,2.637-13.404"/>
				</g>
				<path style="fill:#16569B;" d="M396.227,378.647c0.679-3.285,1.034-4.925,1.779-8.197c-12.636-1.667-25.271-3.334-37.907-5.001
					c-0.744,3.272-1.1,4.911-1.779,8.196C370.956,375.313,383.591,376.979,396.227,378.647z"/>
				<path style="fill:#473F3C;" d="M412.751,356.656c1.312,0.173,2.692-0.837,3.077-2.242c0.911-3.324,1.384-4.981,2.364-8.287
					c0.414-1.397-0.312-2.679-1.624-2.852c-4.555-0.601-6.832-0.901-11.387-1.502c-1.312-0.173-2.732,0.826-3.146,2.223
					c-0.98,3.306-1.453,4.963-2.364,8.287c-0.385,1.405,0.381,2.698,1.693,2.871C405.918,355.754,408.196,356.055,412.751,356.656z"
					/>
				<path style="fill:#177FBF;" d="M363.303,344.986c0.888,0.117,1.832-0.564,2.103-1.513c0.155-0.542,0.233-0.813,0.389-1.355
					c0.274-0.947-0.225-1.817-1.113-1.935c-2.685-0.354-4.028-0.531-6.714-0.886c-0.888-0.117-1.842,0.561-2.116,1.509
					c-0.157,0.542-0.234,0.813-0.389,1.355c-0.271,0.948,0.238,1.821,1.126,1.938C359.275,344.454,360.618,344.632,363.303,344.986z
					"/>
				<path style="fill:#177FBF;" d="M412.326,351.454c0.888,0.117,1.832-0.564,2.103-1.513c0.155-0.542,0.232-0.813,0.389-1.355
					c0.274-0.947-0.225-1.817-1.113-1.935c-2.685-0.354-4.028-0.531-6.714-0.886c-0.888-0.117-1.842,0.561-2.116,1.509
					c-0.157,0.542-0.234,0.813-0.389,1.355c-0.27,0.948,0.238,1.821,1.126,1.939C408.298,350.922,409.641,351.099,412.326,351.454z"
					/>
				<path style="opacity:0.4;fill:#754559;" d="M307.526,753.189c18.195-82.664,18.382-108.165,16.864-116.02
					c-4.166-21.614-13.316-70.585-18.58-98.794c-7.983-11.963-16.503-26.959-18.008-50.208c0.012-0.56,0.105-4.015,0.257-8.87h3.431
					l0.003,0.001l12.516-126.092c0,0,9.793-24.493,44.437-20.31c37.592,4.538,68.054-3.615,69.49-19.161v-0.035
					c0.432-4.598,0.199-9.033-0.443-13.036c0,0,13.235,8.765,19.712,14.18c-0.443,30.998-4.82,125.543-4.82,173.662
					c0,6.804-5.509,5.462-15.849,5.427c0.583,3.174,1.494,7.667,2.883,13.27c-27.706,0.56-28.477-22.735-28.488-23.365
					c0-0.012,0-0.012,0-0.012h-24.754c0,0-1.796,28.438-24.445,24.592c-21.826-3.706-22.628,3.657-19.126,21.017
					c2.425,12.02,11.449,65.87,16.421,86.948c10.282,43.649,2.334,58.354-5.252,102.703c-5.158,30.134-11.297,53.616-14.705,65.567
					c-4.645-1.622-8.438-4.82-10.842-8.881c-2.392-4.026-3.408-8.893-2.556-13.877C305.904,760.53,306.383,758.371,307.526,753.189z
					"/>
				<path style="fill:#FF7631;" d="M286.507,454.195c0.012,5.847,0.128,11.729,0.374,17.623c0.21,5.427,0.513,10.877,0.922,16.351
					c0.502,0.14,45.435,4.89,51.76,5.333c1.155,0.082,2.031,0.164,2.521,0.222c9.372,1.237,15.254-2.801,16.397-14.425
					c0.175-1.692,0.234-3.56,0.199-5.59c0-0.07,0.035-4.517,0.081-11.963c0.047-6.057,0.105-14.075,0.164-23.33
					c0.117-18.265,0.245-41.303,0.339-63.314c0.035-7.154,0.058-14.203,0.07-20.949c0.023-7.936,0.035-15.441,0.035-22.21
					c0.339-1.074,0.619-2.159,0.91-3.174c0.735-2.509,1.646-6.314,2.358-10.691c1.447-8.835,2.089-19.957-1.109-27.263
					c-1.249-2.871-3.093-5.147-5.73-6.454c-0.806-0.409-1.693-0.723-2.661-0.934c-3.945-0.525-4.692-0.28-7.399-1.202
					c-0.864-0.116-1.832-0.222-2.848-0.245c-0.56-0.023-1.109-0.023-1.646,0c-1.996,0.07-3.91,0.385-5.719,0.91
					c-4.902,1.424-9.162,4.365-12.838,8.181c-1.471,1.517-2.848,3.174-4.132,4.925c-6.01,8.193-10.107,18.51-12.674,26.726
					c-0.117,0.362-0.245,0.724-0.362,1.074c-2.626,8.858-4.983,17.716-7.061,26.586
					C290.405,384.671,286.437,419.077,286.507,454.195z"/>
				<path style="fill:#FF7631;" d="M409.879,466.542c0,9.103-0.339,18.09,2.229,23.027c0.957,1.867,2.334,3.163,4.306,3.653
					c0.595,0.163,1.26,0.245,1.972,0.245c1.412,0-0.548,0-1.926,0.094c-0.747,0.035-1.319,0.105-1.097,0.222
					c0.012,0,0.012,0,0.012,0c0.105,0.047,0.362,0.105,0.805,0.164c0-0.012,0-0.012,0-0.012h0.607c0.35,0,0.875,0.012,1.506,0.023
					c0.432,0,0.841,0.011,1.249,0.023c0.303,0.011,0.607,0.023,0.922,0.023c2.054,0.046,3.863,0.093,5.392,0.035h0.023
					c4.283-0.175,6.501-1.214,6.501-5.532c0-48.119,4.376-142.664,4.82-173.662c0.035-1.716,0.046-3.233,0.046-4.54
					c0-8.391-2.241-15.662-10.492-17.401c-2.626-0.35-4.447-0.63-6.232-0.899c-1.424-0.222-2.836-0.432-4.633-0.689
					c-0.584-0.082-1.202-0.163-1.879-0.257c-0.525-0.07-3.816-0.35-4.353-0.374c0.374,0.292,0.724,0.584,1.062,0.887
					c0.35,0.303,0.677,0.619,0.992,0.945c0.245,0.257,0.49,0.513,0.735,0.782c0.058,0.07,0.117,0.128,0.175,0.198
					c0.14,0.163,0.28,0.338,0.42,0.514c0.28,0.35,0.537,0.7,0.794,1.062c0.21,0.292,0.397,0.584,0.56,0.887
					c0.035,0.047,0.07,0.105,0.093,0.152c0.035,0.058,0.082,0.116,0.117,0.175c0.094,0.164,0.187,0.327,0.28,0.49
					c0,0,0.012,0,0.012,0.012c0.198,0.397,0.397,0.794,0.595,1.214c0.093,0.21,0.187,0.42,0.268,0.63
					c0.093,0.21,0.175,0.432,0.257,0.654c0.093,0.222,0.175,0.443,0.245,0.665c0.128,0.385,0.245,0.77,0.362,1.167
					c0.105,0.362,0.21,0.735,0.292,1.109c0.058,0.187,0.105,0.385,0.14,0.583c0.082,0.362,0.152,0.724,0.222,1.109
					c0.012,0.035,0.012,0.058,0.023,0.094c0.058,0.373,0.128,0.759,0.175,1.155c0.047,0.257,0.082,0.513,0.105,0.77
					c0.047,0.303,0.081,0.607,0.105,0.91c0.023,0.257,0.047,0.513,0.07,0.782c0.035,0.327,0.058,0.654,0.07,0.98
					c0.023,0.245,0.035,0.478,0.047,0.724c0,0.012,0,0.012,0,0.023c0.012,0.152,0.023,0.315,0.023,0.479
					c0.012,0.21,0.012,0.432,0.023,0.653c0.018,0.548,0.02,1.121,0.022,1.696c0.002,0.494,0,0.996-0.011,1.513v0.004
					c-0.007,0.444-0.01,0.879-0.023,1.339c-0.047,1.33-0.117,2.719-0.21,4.178c-0.105,1.599-0.222,3.244-0.327,4.914
					c-0.117,1.68-0.222,3.384-0.338,5.123c-0.047,0.875-0.105,1.751-0.164,2.638c-0.116,1.762-0.233,3.571-0.339,5.392
					c0,0,0,0,0,0.012c-0.116,1.82-0.222,3.664-0.338,5.544c-0.058,0.934-0.117,1.879-0.175,2.836
					c-0.117,1.891-0.222,3.805-0.339,5.73c0,0,0,0,0,0.012c-0.117,1.926-0.222,3.863-0.338,5.824c0,0,0,0,0,0.012
					c-0.117,1.949-0.222,3.922-0.339,5.894c-0.058,0.992-0.105,1.984-0.164,2.988c-0.117,1.984-0.222,3.968-0.339,5.964
					c-0.385,6.979-0.758,13.993-1.12,20.879c-0.105,1.961-0.21,3.909-0.315,5.847c0,0,0,0,0,0.012
					c-0.094,1.926-0.198,3.851-0.292,5.754c-0.023,0.525-0.058,1.062-0.081,1.587c-0.047,0.98-0.105,1.961-0.152,2.929
					c-0.023,0.385-0.035,0.759-0.058,1.132c-0.023,0.467-0.047,0.922-0.07,1.389c-0.035,0.642-0.058,1.284-0.093,1.926
					c-0.035,0.735-0.082,1.47-0.117,2.206c-0.035,0.712-0.07,1.424-0.105,2.136c-0.023,0.479-0.046,0.945-0.07,1.424
					c-0.105,2.101-0.21,4.167-0.303,6.174c-0.035,0.7-0.07,1.389-0.105,2.066c-0.035,0.619-0.058,1.225-0.093,1.821
					c-0.023,0.642-0.058,1.272-0.093,1.891c-0.023,0.514-0.047,1.027-0.07,1.54c-0.047,1.086-0.105,2.147-0.152,3.198
					c-0.023,0.385-0.035,0.77-0.058,1.144c-0.023,0.607-0.058,1.214-0.082,1.797c-0.023,0.409-0.035,0.817-0.058,1.214
					c-0.023,0.408-0.035,0.805-0.058,1.202c-0.035,0.793-0.082,1.564-0.117,2.322c-0.047,1.039-0.094,2.042-0.14,3.023
					c0,0.07,0,0.128-0.012,0.175c-0.023,0.584-0.047,1.167-0.07,1.739c-0.058,1.296-0.117,2.521-0.163,3.699
					c-0.023,0.385-0.047,0.771-0.059,1.144c-0.058,1.167-0.105,2.276-0.14,3.303c-0.023,0.409-0.035,0.793-0.058,1.179
					c-0.012,0.245-0.023,0.502-0.035,0.735c-0.023,0.607-0.047,1.19-0.07,1.727c-0.023,0.584-0.047,1.132-0.07,1.646
					c0,0.128-0.012,0.257-0.012,0.374c-0.012,0.233-0.012,0.443-0.023,0.653c0,0.105-0.012,0.199-0.012,0.28
					c-0.012,0.21-0.012,0.408-0.023,0.607c0,0,0,0.012,0,0.023c-0.012,0.42-0.023,0.782-0.035,1.109
					C409.879,465.889,409.879,466.367,409.879,466.542z"/>
				<path style="fill:#FFE536;" d="M409.879,466.542c0,12.768-1.4,25.734,5.485,27.24c0.012,0,0.012,0,0.012,0
					c0.432,0.105,0.91,0.152,1.412,0.152c0.35,0,0.875,0.012,1.506,0.023c0.432,0,0.841,0.011,1.249,0.023
					c0.303,0.011,0.607,0.023,0.922,0.023c2.054,0.046,3.863,0.093,5.392,0.035c-7.049-2.101-6.641-15.067-6.641-27.497
					c-0.094-2.894,4.295-95.584,7.819-147.321c0.945-13.818-0.665-21.719-6.512-27.216c-1.424-0.222-2.836-0.432-4.633-0.689
					c-0.584-0.082-1.202-0.163-1.879-0.257c-0.525-0.07-3.816-0.35-4.353-0.374c0.374,0.292,0.724,0.584,1.062,0.887
					c0.35,0.303,0.677,0.619,0.992,0.945c0.257,0.257,0.502,0.513,0.735,0.782c0.058,0.07,0.117,0.128,0.175,0.198
					c0.151,0.163,0.292,0.338,0.42,0.514c0.292,0.339,0.56,0.7,0.794,1.062c0.21,0.292,0.397,0.584,0.56,0.887
					c0.035,0.047,0.07,0.105,0.093,0.152c0.035,0.058,0.082,0.116,0.117,0.175c0.105,0.164,0.198,0.327,0.28,0.49
					c0,0,0.012,0,0.012,0.012c0.21,0.397,0.42,0.794,0.595,1.214c0.093,0.21,0.187,0.42,0.268,0.63
					c0.105,0.21,0.187,0.432,0.257,0.654c0.093,0.222,0.175,0.443,0.245,0.665c0.128,0.385,0.245,0.77,0.362,1.167
					c0.105,0.362,0.198,0.735,0.292,1.109c0.058,0.187,0.105,0.385,0.14,0.583c0.082,0.362,0.164,0.735,0.222,1.109
					c0.012,0.035,0.012,0.058,0.023,0.094c0.07,0.373,0.128,0.759,0.175,1.155c0.047,0.257,0.082,0.513,0.105,0.77
					c0.047,0.303,0.081,0.607,0.105,0.91c0.035,0.257,0.058,0.513,0.07,0.782c0.035,0.327,0.058,0.654,0.07,0.98
					c0.023,0.233,0.047,0.478,0.047,0.724c0,0.012,0,0.012,0,0.023c0.012,0.152,0.023,0.315,0.023,0.479
					c0.012,0.21,0.012,0.432,0.023,0.653c0.047,1.424,0.035,2.941-0.012,4.552c-0.035,1.33-0.105,2.719-0.21,4.178
					c-0.105,1.599-0.222,3.244-0.327,4.914c-0.117,1.68-0.222,3.384-0.338,5.123c-0.047,0.875-0.105,1.751-0.164,2.638
					c-0.116,1.774-0.222,3.571-0.339,5.392c0,0,0,0,0,0.012c-0.116,1.82-0.222,3.664-0.338,5.544
					c-0.058,0.934-0.117,1.879-0.175,2.836c-0.105,1.891-0.222,3.805-0.339,5.73c0,0,0,0,0,0.012
					c-0.105,1.926-0.222,3.863-0.338,5.824c0,0,0,0,0,0.012c-0.105,1.949-0.222,3.922-0.339,5.894
					c-0.058,0.992-0.105,1.984-0.164,2.988c-0.117,1.984-0.222,3.968-0.339,5.964c-0.385,6.979-0.758,13.993-1.12,20.879
					c-0.105,1.961-0.21,3.909-0.315,5.847c0,0,0,0,0,0.012c-0.094,1.926-0.198,3.851-0.292,5.754
					c-0.023,0.525-0.058,1.062-0.081,1.587c-0.047,0.98-0.105,1.961-0.152,2.929c-0.023,0.385-0.035,0.759-0.058,1.132
					c-0.023,0.467-0.047,0.922-0.07,1.389c-0.035,0.642-0.058,1.284-0.093,1.926c-0.035,0.735-0.082,1.47-0.117,2.206
					c-0.035,0.712-0.07,1.424-0.105,2.136c-0.023,0.479-0.046,0.945-0.07,1.424c-0.105,2.101-0.21,4.167-0.303,6.174
					c-0.035,0.7-0.07,1.389-0.105,2.066c-0.035,0.619-0.058,1.225-0.093,1.821c-0.023,0.642-0.058,1.272-0.093,1.891
					c-0.023,0.514-0.047,1.027-0.07,1.54c-0.047,1.086-0.105,2.147-0.152,3.198c-0.023,0.385-0.035,0.77-0.058,1.144
					c-0.023,0.607-0.058,1.214-0.082,1.797c-0.023,0.409-0.035,0.817-0.058,1.214c-0.023,0.408-0.035,0.805-0.058,1.202
					c-0.035,0.793-0.082,1.564-0.117,2.322c-0.047,1.039-0.094,2.042-0.14,3.023c0,0.07,0,0.128-0.012,0.175
					c-0.023,0.595-0.047,1.167-0.07,1.739c-0.058,1.296-0.117,2.521-0.163,3.699c-0.023,0.385-0.047,0.771-0.059,1.144
					c-0.047,1.167-0.105,2.276-0.14,3.303c-0.023,0.409-0.035,0.793-0.058,1.179c-0.012,0.257-0.023,0.502-0.035,0.735
					c-0.023,0.607-0.047,1.19-0.07,1.727c-0.023,0.584-0.047,1.132-0.07,1.646c0,0.128-0.012,0.257-0.012,0.374
					c-0.012,0.222-0.012,0.443-0.023,0.653c0,0.105-0.012,0.199-0.012,0.28c-0.012,0.21-0.012,0.408-0.023,0.607
					c0,0,0,0.012,0,0.023c-0.012,0.42-0.023,0.794-0.035,1.109C409.879,465.889,409.879,466.367,409.879,466.542z"/>
				<path style="fill:#FFE536;" d="M358.766,461.746c-0.047,7.446-0.082,11.892-0.082,11.963c0.035,2.031-0.023,3.898-0.198,5.59
					c-21.859-1.167-55.542-5.217-71.601-7.481c-0.245-5.894-0.362-11.776-0.373-17.623
					C302.501,456.47,336.743,460.59,358.766,461.746z"/>
			</g>
			<path style="fill:#FFE536;" d="M360.283,328.768c-0.292,1.015-0.572,2.1-0.91,3.174c0,6.769-0.012,14.273-0.035,22.21
				c-0.105,38-0.408,85.71-0.572,107.593c-0.047,7.446-0.082,11.892-0.082,11.963c0.035,2.031-0.023,3.898-0.198,5.59
				c-1.144,11.624-7.026,15.662-16.398,14.425c-0.49-0.058-1.365-0.14-2.521-0.222c5.392-1.307,8.753-5.73,9.582-14.203
				c0.175-1.692,0.233-3.56,0.198-5.59c0-0.07,0.035-4.517,0.082-11.963c0.198-26.446,0.607-90.636,0.607-129.803
				c0.339-1.074,0.619-2.159,0.91-3.174c2.521-8.555,7.084-32.433-1.144-41.805c-0.187-0.222-0.385-0.432-0.595-0.642
				c-1.436-1.412-3.209-2.416-5.404-2.894c-3.454-0.467-4.61-1.062-8.274-0.537c1.879-0.607,3.828-0.875,5.66-0.922
				c0.584-0.023,1.144-0.023,1.704,0.012c1.016,0.023,1.984,0.129,2.848,0.245c4.365,0.537,4.155,0.595,7.399,1.202
				c0.969,0.21,1.856,0.525,2.661,0.934c2.638,1.307,4.482,3.583,5.731,6.454C366.317,301.738,362.5,321.217,360.283,328.768z"/>
			<path style="opacity:0.4;fill:#D88916;" d="M286.507,454.195c0.012,5.847,0.128,11.729,0.374,17.623
				c0.21,5.427,0.513,10.877,0.922,16.351c0.502,0.14,45.435,4.89,51.76,5.333c1.155,0.082,2.031,0.164,2.521,0.222
				c9.372,1.237,15.254-2.801,16.397-14.425c0.175-1.692,0.234-3.56,0.199-5.59c0-0.07,0.035-4.517,0.081-11.963
				c0.047-6.057,0.105-14.075,0.164-23.33c-47.757-42.598-42.097-131.332-36.238-147.344c-1.471,1.517-2.848,3.174-4.132,4.925
				c-6.01,8.193-10.107,18.51-12.674,26.726c-0.117,0.362-0.245,0.724-0.362,1.074c-2.626,8.858-4.983,17.716-7.061,26.586
				C290.405,384.671,286.437,419.077,286.507,454.195z"/>
			<path style="fill:#FFE536;" d="M340.968,331.394c0,18.65-12.453,18.988-19,18.988c-6.547,0,0.712,0-16.502,0
				c2.077-8.87,4.435-17.728,7.061-26.586c0.117-0.35,0.245-0.712,0.362-1.074c2.568-8.216,3.995-13.865,10.006-22.058l10.589-3.996
				C345.503,296.668,340.968,312.744,340.968,331.394z"/>
		</g>
		<path style="fill:#FFB287;" d="M420.621,266.399l-7.913,18.276l-0.327,0.758l-1.179,2.719l-1.762,4.073l-0.035,0.082l-3.245,7.481
			l-22.338-2.462l-2.568-1.856l-11.519-8.298l-0.408-0.233l-0.14-0.082c0,0,7.4-11.624,10.492-16.467
			c2.008-3.163,2.124-8.041,1.961-11.064c-0.093-1.622-0.257-2.696-0.257-2.696l5.392-4.353l5.322-4.318l3.921-3.163
			L420.621,266.399z"/>
		<path style="fill:#E5785C;" d="M411.203,288.154l-1.762,4.073c0.082,0.012,0.175,0.023,0.257,0.035
			c-0.093,0.012-0.187,0.035-0.292,0.047c-8.695,1.237-21.778-3.023-28.15,3.163c-0.175,0.163-0.339,0.339-0.502,0.525
			c-1.728,1.949-3.245,3.525-4.528,4.785c-0.56-6.384-2.579-11.461-6.921-13.842c0.012,0,0.012,0,0.023,0l-0.14-0.082
			c0,0,7.4-11.624,10.492-16.467c2.008-3.163,2.124-8.041,1.961-11.064c-0.455-1.167-0.84-2.346-1.202-3.525l5.684-4.365l0.654,0.84
			l9.5,12.243l14.11,18.183l0.852,1.155l0.012,0.012l1.132,1.564l2.393,3.268C413.548,288.574,412.358,288.387,411.203,288.154z"/>
		<g>
			<g>
				<g>
					<path style="fill:#442E1E;" d="M494.711,821.832c0,0.55-0.45,1-1,1l-81.281,0c-0.55,0-1-0.45-1-1v-12.116c0-0.55,0.45-1,1-1
						l81.281,0c0.55,0,1,0.45,1,1V821.832z"/>
				</g>
				<path style="fill:#D8743D;" d="M456.84,778.778l-3.647,0.308l-9.841,0.791l-4.087,0.352c0,0-0.044,0.527-0.264,1.362
					c0.069,4.207-3.13,12.627-11.644,13.183c-6.447,0.421-8.722-3.292-10.264-5.303c-1.416-1.847-3.139-0.8-3.717,0.731
					c-0.846,2.24-2.008,7.74-2.102,17.973v0.968c0,2.46,0.045,3.383,0.221,6.371c0.042,0.265,23.552,0,23.552,0
					s4.261,0.704,9.754,1.539c5.493,0.833,12.26,0.516,17.313,1.041c0,0,26.321,0.102,29.001-0.119c0.176,0,0.351-0.042,0.527-0.089
					c0.087,0,0.132-0.042,0.176-0.042c0.132-0.044,0.263-0.089,0.396-0.131c0.043-0.044,0.088-0.044,0.132-0.089
					c0.176-0.044,0.351-0.133,0.483-0.264c0.043,0,0.043-0.044,0.087-0.044c0.132-0.088,0.264-0.177,0.352-0.264
					c0.044-0.044,0.132-0.089,0.176-0.133c0.087-0.086,0.176-0.175,0.263-0.308l0.132-0.131c0.131-0.133,0.263-0.308,0.351-0.44
					c0.044-0.087,0.089-0.131,0.132-0.217c0.088-0.088,0.133-0.177,0.22-0.31c0.044-0.087,0.087-0.175,0.132-0.264
					c0.044-0.088,0.087-0.175,0.133-0.264c0.131-0.219,0.218-0.438,0.306-0.66c0-0.042,0.044-0.087,0.044-0.175
					c0.044-0.133,0.089-0.263,0.176-0.396c0-0.044,0.044-0.131,0.044-0.217c0.044-0.133,0.087-0.266,0.132-0.396
					c0-0.044,0.044-0.133,0.044-0.177c0.087-0.396,0.176-0.791,0.263-1.231c0.176-1.098,0.176-2.372,0.176-2.635
					c0-0.044,0-0.044,0-0.044c-0.045-0.175-0.045-0.352-0.045-0.527c-0.35-4.57-5.566-5.845-10.896-5.846
					c-5.422,0-11.117-0.131-11.117-0.131s-8.349-7.427-12.832-12.48L456.84,778.778z"/>
			</g>
		</g>
		<g>
			<g>
				<g>
					<path style="fill:#442E1E;" d="M380.34,821.831c0,0.55-0.45,1-1,1l-82.448,0c-0.55,0-1-0.45-1-1v-12.116c0-0.55,0.45-1,1-1
						l82.448,0c0.55,0,1,0.45,1,1V821.831z"/>
				</g>
				<path style="fill:#D8743D;" d="M341.302,778.778l-3.647,0.308l-9.841,0.79l-4.087,0.352c0,0-0.044,0.527-0.264,1.362
					c-0.659,3.297-3.13,12.627-11.644,13.183c-6.448,0.421-8.722-3.292-10.264-5.303c-1.416-1.846-3.139-0.8-3.717,0.731
					c-0.846,2.24-2.008,7.74-2.102,17.973v0.967c0,2.46,0.045,3.383,0.221,6.37c0.042,0.266,23.552,0,23.552,0
					s4.261,0.704,9.754,1.539c5.493,0.833,12.26,0.516,17.313,1.041c0,0,26.321,0.102,29.001-0.119c0.176,0,0.351-0.042,0.527-0.089
					c0.088,0,0.132-0.042,0.176-0.042c0.132-0.044,0.264-0.088,0.396-0.131c0.043-0.044,0.088-0.044,0.132-0.088
					c0.176-0.044,0.351-0.133,0.483-0.264c0.043,0,0.043-0.044,0.087-0.044c0.132-0.089,0.264-0.177,0.352-0.263
					c0.044-0.044,0.132-0.089,0.176-0.133c0.087-0.087,0.176-0.175,0.263-0.308l0.132-0.131c0.131-0.133,0.264-0.308,0.351-0.44
					c0.044-0.086,0.089-0.131,0.132-0.217c0.089-0.089,0.133-0.177,0.22-0.31c0.044-0.086,0.087-0.175,0.132-0.263
					c0.044-0.089,0.087-0.175,0.133-0.263c0.131-0.219,0.218-0.439,0.306-0.66c0-0.042,0.044-0.086,0.044-0.175
					c0.044-0.133,0.089-0.263,0.176-0.396c0-0.044,0.044-0.131,0.044-0.217c0.044-0.133,0.087-0.265,0.132-0.396
					c0-0.044,0.044-0.133,0.044-0.177c0.087-0.396,0.176-0.791,0.263-1.231c0.176-1.098,0.176-2.372,0.176-2.635
					c0-0.044,0-0.044,0-0.044c-0.045-0.175-0.045-0.352-0.045-0.527c-0.35-4.57-5.565-5.845-10.896-5.845
					c-5.422,0-11.117-0.131-11.117-0.131s-8.349-7.427-12.831-12.479L341.302,778.778z"/>
			</g>
		</g>
		<path style="opacity:0.5;fill:#754559;" d="M362.641,318.078c-0.712,4.377-1.622,8.181-2.358,10.691
			c-0.292,1.015-0.572,2.1-0.91,3.174c0,6.769-0.012,14.273-0.035,22.21c-0.012,6.746-0.035,13.795-0.07,20.949
			c-8.52-8.1-20.634-19.549-27.625-25.909c-0.047-0.047-0.094-0.082-0.14-0.129c-10.014-9.161-18.218-24.404-14.822-37.58
			c0.992-3.84,2.976-7.516,6.197-10.796c0-0.012,0-0.023,0.023-0.023c0.338-0.362,2.61,1.832,2.995,1.482
			c2.603-2.393,5.322-1.622,7.878-1.482c2.836,0.117,3.552-2.719,5.887-1.004c4.668,3.396,7.89,8.333,7.89,8.333
			C350.059,310.375,356.035,314.18,362.641,318.078z"/>
		<g>
			<path style="fill:#D88916;" d="M380.366,161.716c1.141-5.217,5.136-12.881,17.853-13.94c12.718-1.06,13.125,9.212,11.984,11.087
				c-1.141,1.875-4.647,6.033-4.647,6.033l-11.984,2.69L380.366,161.716z"/>
			<path style="fill:#D88916;" d="M367.809,201.496c-7.174,9.457-11.303,18.23-9.783,23.805c1.957,7.174,12.392,5.217,55.109,2.935
				c42.718-2.283,60.979-15.544,52.175-37.827C460.046,177.086,367.809,201.496,367.809,201.496z"/>
			<g>
				<path style="fill:#8E3925;" d="M366.003,226.267c1.835,25.539,8.146,32.438,18.127,32.438c8.188,0,14.971-11.302,14.678-13.944
					c-0.294-2.642-3.229-18.201-5.578-19.081C390.881,224.799,366.003,226.267,366.003,226.267z"/>
				<path style="fill:#8E3925;" d="M389.37,253.267c-1.623-3.257-2.62,7.092-2.644,5.855c-0.416-21.742-19.036-5.554-20.504-29.626
					c-1.252-20.525-1.428-20.704-1.982-30.677c-1.101-19.815,10.41-40.837,52.76-40.513c23.577,0.181,29.625,9.337,34.941,21.344
					c9.902,22.365,1.908,51.093,1.908,51.093L389.37,253.267z"/>
				<path style="fill:#E5785C;" d="M459.858,212.597l-1.774,31.301c0,8.158-7.108,26.96-11.519,32.573
					c-1.879,2.404-2.404,6.897-8.1,9.418c-0.035,0.012-0.07,0.035-0.117,0.047c-6.792,2.953-17.588,2.953-19.864,2.953
					c-1.272,0-2.509-0.058-3.711-0.187c-1.225-0.128-2.416-0.315-3.571-0.549c-14.822-3.116-24.66-15.546-29.562-28.827
					c-0.455-1.167-0.84-2.346-1.202-3.525c-1.681-5.544-2.521-11.099-2.521-16.082l8.368-26.131c0-12.488,4.75-22.98,12.768-29.609
					c5.976-4.972,13.783-7.796,22.781-7.726C442.901,176.417,459.858,190.784,459.858,212.597z"/>
				<path style="fill:#FFB287;" d="M405.853,279.739c4.995,4.843,11.484,7.901,19.805,7.96
					c27.788,0.233,32.923-20.903,33.729-43.789l0.584-18.568l0.164-4.937l0.28-8.66c0.058-1.856,0.058-3.676-0.012-5.462
					c-0.175-4.33-0.77-8.426-1.879-12.196c-3.805-13.001-13.678-21.976-33.425-21.976c-20.389,0-31.92,10.399-32.48,38.794
					c-0.047,0.758-0.047,1.552-0.047,2.346l-1.319,18.93C390.716,247.422,394.206,268.442,405.853,279.739z"/>
				<g>
					<path style="fill:#E5785C;" d="M435.703,249.167c3.955,0.005,7.318-2.229,7.144-4.507c-0.063-0.83-0.891-1.83-2.441-1.1
						c-0.711,0.335-2.634,0.727-4.676,0.714c-2.043-0.013-3.15-0.423-4.305-0.77c-2.515-0.755-3.308,0.235-3.372,1.064
						C427.877,246.843,431.749,249.123,435.703,249.167z"/>
				</g>
				<path style="fill:#E5785C;" d="M391.661,230.191c0.576,8.129-3.556,15.111-9.231,15.596
					c-5.674,0.484-10.742-5.713-11.318-13.842c-0.576-8.129,2.587-14.457,8.207-15.461
					C384.938,215.481,391.085,222.062,391.661,230.191z"/>
				<path style="fill:#422B27;" d="M446.812,228.935c0,1.932,1.578,3.509,3.525,3.524c1.947,0.015,3.525-1.539,3.525-3.47
					c0-1.931-1.578-3.509-3.525-3.524C448.391,225.45,446.812,227.004,446.812,228.935z"/>
				<path style="fill:#8E3925;" d="M388.342,214.484"/>
				<path style="fill:#8E3925;" d="M401.561,211.941"/>
				
					<line style="fill:none;stroke:#8E3925;stroke-width:3.7756;stroke-linecap:round;stroke-miterlimit:10;" x1="409.557" y1="214.04" x2="425.42" y2="213.721"/>
				
					<line style="fill:none;stroke:#8E3925;stroke-width:3.7756;stroke-linecap:round;stroke-miterlimit:10;" x1="445.111" y1="214.312" x2="458.771" y2="215.298"/>
				<path style="fill:#8E3925;" d="M383.118,210.29c0-12.354,5.533-23.387,14.157-30.608c-4.158-5.165-5.666-12.886-4.779-13.595
					c1.468-1.174,20.497-15.318,42.954-2.328c15.378,8.895,22.416,14.866,19.783,21.179c0.033,0.073,0.069,0.141,0.102,0.216
					c-0.042-0.045-0.089-0.092-0.133-0.139c-2.38,5.612-7.664,9.253-12.361,9.253c-19.668,0-19.251-11.548-33.906-10.421
					c-5.724,0.44-13.61,1.893-13.61,16.203c0,15.522-3.35,33.889-3.449,33.896c-4.604,0.298-4.664-2.689-4.664-2.689
					c0-8.22-1.231-12.818-6.458-15.265L383.118,210.29z"/>
			</g>
			<path style="fill:none;stroke:#E5785C;stroke-width:4.1218;stroke-linecap:round;stroke-miterlimit:10;" d="M441.178,262.69
				c-2.291,1.617-5.784,1.877-8.811,1.875c-3.027-0.001-7.916-0.266-10.216-1.885"/>
			<path style="opacity:0.6;fill:#C67560;" d="M460.456,209.104c0-0.088-0.001-0.176-0.001-0.264
				c-0.072-20.454-8.776-36.734-35.353-36.734c-20.387,0-29.133,14.165-30.717,43.616c0.346-4.176,7.635-5.686,17.237-7.208
				c40.17-2.191,48.515,11.897,48.515,11.897l0.16-5.015l0.119-3.646C460.446,210.86,460.456,209.98,460.456,209.104z"/>
			<path style="opacity:0.4;fill:#C67560;" d="M405.947,279.739c4.995,4.843,11.484,7.901,19.805,7.96
				c27.788,0.233,32.923-20.903,33.729-43.789l0.583-18.568l0.164-4.937l0.28-8.66c0.059-1.856,0.059-3.676-0.012-5.462
				c-0.175-4.33-0.77-8.426-1.879-12.196l-20.739-4.972l-10.459,19.262c9.83,1.252,9.888,6.023,9.901,9.051
				C437.491,257.845,437.607,298.395,405.947,279.739z"/>
			<g>
				<path style="fill:#754559;" d="M365.836,224.024c0,1.773-2.728-1.364-3.188-2.754c-0.651-1.972-1.568-3.81-0.138-5.317
					c0.762-0.803,19.237-19.663,69.169-19.663c21.827,0,28.321,2.035,30.4,8.775c2.063,6.69-2.063,12.379-1.88,11.283
					c0.313-1.88,0.627-6.111-1.097-8.305c-0.029-0.036-2.134-4.231-27.423-4.231c-46.735,0-63.549,17.146-63.714,17.319
					C367.226,221.91,365.7,223.069,365.836,224.024z"/>
			</g>
			<path style="fill:#FFCD2C;" d="M355.178,197.308c0,0.572,0,1.12,0.035,1.704c0.047,2.649,0.198,5.556,0.432,8.427
				c0.327,4.178,0.805,8.274,1.342,11.321c0.548,3.104,1.167,5.112,1.751,4.96c0.035-0.012,0.07-0.023,0.105-0.047
				c0.98-1.68,2.416-3.408,4.272-5.147c0.187-0.187,0.385-0.362,0.583-0.537c0.152-0.14,0.315-0.292,0.478-0.432
				c0.105-0.094,0.21-0.175,0.315-0.257c0.292-0.245,0.583-0.478,0.887-0.724c0.875-0.7,1.809-1.389,2.813-2.066
				c0.77-0.548,1.576-1.074,2.428-1.599c0.292-0.175,0.595-0.362,0.91-0.548c2.813-1.681,5.999-3.268,9.465-4.692
				c0.432-0.187,0.875-0.374,1.319-0.537c0.864-0.35,1.751-0.677,2.649-1.004c1.389-0.49,2.789-0.957,4.225-1.389
				c0.934-0.28,1.879-0.56,2.836-0.829c2.871-0.805,5.87-1.541,8.963-2.194c5.147-1.109,10.55-2.019,16.082-2.696
				c2.217-0.269,4.446-0.502,6.699-0.7c1.121-0.105,2.253-0.198,3.385-0.268c4.516-0.315,9.08-0.479,13.62-0.479
				c1.004,0,1.949,0,2.859-0.023h0.164c0.852,0,1.657-0.011,2.416-0.035c0.35-0.012,0.688-0.023,1.027-0.023
				c1.424-0.035,2.719-0.07,3.887-0.105c0.49-0.023,0.945-0.035,1.389-0.047h0.07c0.467-0.023,0.91-0.035,1.33-0.047
				c0.117,0,0.245-0.012,0.35-0.012c0.303-0.011,0.595-0.023,0.875-0.023c0.21,0,0.409-0.011,0.595-0.011
				c0.175-0.012,0.35-0.012,0.513-0.012h0.735c2.159,0,3.664,0.129,4.925,0.584c0.7,0.245,1.33,0.596,1.949,1.062
				c0.198-0.012,0.385-0.105,0.56-0.257c1.914-1.797,1.867-12.126-2.999-23.085c-0.128-0.303-0.268-0.607-0.408-0.899
				c-0.268-0.595-0.549-1.179-0.84-1.762c-4.132-8.146-10.107-14.32-21.953-18.802c-0.257-0.093-0.525-0.198-0.793-0.292
				c-0.35-0.175-2.498-3.046-6.081-4.236c-5.322-1.786-8.648-2.124-15.639-2.031c-1.132,0-2.252,0.047-3.431,0.117
				c-0.187,0-0.35,0.012-0.525,0.023c-3.105,0.222-6.046,0.549-8.87,0.969c-0.07,0-0.163,0.058-0.268,0.058
				c-1.424,0.222-2.836,0.49-4.178,0.782c-2.439,0.502-4.773,1.121-7.014,1.821c-3.093,0.969-5.976,2.101-8.66,3.385
				c-0.899,0.432-1.786,0.875-2.638,1.354c-5.637,3.046-10.27,6.804-13.947,11.041c-0.023,0.035-0.047,0.058-0.07,0.082
				c-4.586,5.322-7.691,11.414-9.383,17.856C355.692,188.987,355.178,193.142,355.178,197.308z"/>
			<path style="fill:#D88916;" d="M456.245,197.244c-0.313,1.017-0.743,1.604-1.291,1.643c-1.122-0.861-2.27-1.304-3.835-1.5
				c-3.274-0.431-8.426,0.183-19.252,0.183l-10.513-0.301c2.609-0.208,3.065-12.143-2.596-24.874
				c-3.691-8.387-13.283-21.767-21.979-22.636c1.357-0.287,4.396-0.842,5.831-1.064c0.104,0,0.209-0.066,0.274-0.066
				c2.817-0.43,5.752-0.743,8.87-0.965c4.957,0.326,9.418,1.252,13.435,2.622c0.378,0.13,0.757,0.248,1.122,0.417
				c13.644,4.982,21.926,15.157,26.205,24.835C456.65,184.839,457.302,193.683,456.245,197.244z"/>
			<path style="fill:#FFE14E;" d="M456.206,175.54c-4.269-9.685-14.453-21.406-27.118-26.943c-0.359-0.162-0.736-0.287-1.112-0.413
				c-5.309-1.811-12.181-1.475-19.158-1.386c-1.13,0-2.26,0.037-3.426,0.108c-2.45,0.159-4.905,0.577-7.172,0.87
				c2.283,0.245,4.534,1.069,5.536,1.487c8.386,3.498,15.314,14.456,18.838,22.451c5.656,12.727,5.06,25.35,2.461,25.56
				l10.508,0.294c16.017,0,19.623-1.328,23.084,1.327C461.085,198.696,461.515,187.486,456.206,175.54z"/>
			<path style="fill:#FFCD2C;" d="M358.026,225.085c0.198-0.455,0.443-0.91,0.712-1.365c1.015-1.727,2.509-3.478,4.377-5.193
				c0.187-0.187,0.385-0.362,0.583-0.537c0.257-0.234,0.525-0.455,0.794-0.689c0.292-0.245,0.583-0.478,0.887-0.724
				c0.887-0.7,1.821-1.389,2.813-2.066c0.782-0.537,1.587-1.062,2.428-1.564c3.093-1.914,6.605-3.7,10.375-5.275
				c0.444-0.175,0.875-0.362,1.319-0.537c0.875-0.339,1.762-0.677,2.649-1.004c1.389-0.49,2.789-0.957,4.225-1.389
				c0.934-0.28,1.879-0.56,2.836-0.829c2.871-0.794,5.87-1.529,8.963-2.194c5.147-1.109,10.55-2.019,16.082-2.696
				c2.217-0.269,4.446-0.502,6.699-0.7c1.121-0.105,2.253-0.198,3.385-0.268c4.516-0.327,9.08-0.49,13.62-0.49
				c1.004,0,1.949,0,2.859-0.012h0.164c0.84-0.011,1.646-0.023,2.416-0.035c0.35-0.012,0.688-0.023,1.027-0.023
				c1.424-0.035,2.719-0.07,3.887-0.105c0.49-0.023,0.945-0.035,1.389-0.047h0.07c0.467-0.023,0.91-0.035,1.33-0.047
				c0.117,0,0.245-0.012,0.35-0.012c0.303-0.011,0.595-0.023,0.875-0.023c0.21,0,0.409-0.011,0.595-0.011
				c0.443-0.012,0.852-0.012,1.249-0.012c2.159,0,3.664,0.129,4.925,0.584c0.7,0.245,1.33,0.596,1.949,1.074
				c0.198-0.012,0.397-0.105,0.56-0.268c1.914-1.797,1.867-12.126-2.999-23.085c-0.128-0.303-0.268-0.607-0.408-0.899
				c-0.268-0.595-0.549-1.179-0.84-1.762c-4.167-8.333-10.049-14.577-22.408-19.105c0.151,0.093,0.303,0.198,0.455,0.303
				c11.204,7.388,13.62,26.528,13.888,32.422c0.105,2.381-13.2,0.327-52.507,9.944c-12.453,3.046-22.606,6.722-29.901,10.632
				c-7.096,3.793-11.496,7.808-12.709,11.682C356.299,220.93,356.614,223.066,358.026,225.085z"/>
			<path style="fill:#FFE536;" d="M489.767,192.913c0,0-20.27,4.591-26.739,6.3c0,0-1.513-1.135-6.196-2.192
				c-3.991-0.887-10.279-1.721-19.892-1.721c-5.583,0-14.048,1.448-21.848,3.091c-10.239,2.139-19.344,4.63-19.344,4.63l-0.77-5.217
				c0,0,5.739-3.952,20.113-7.37c9.691-2.309,23.309-4.382,41.74-4.826c2.413-0.065,4.917-0.091,7.5-0.091
				c17.009,0,24,1.135,25.279,2.778C490.185,189.026,489.767,192.913,489.767,192.913z"/>
			<path style="opacity:0.5;fill:#FFFFFF;" d="M456.832,185.609v11.413c-3.991-0.887-10.279-1.721-19.892-1.721
				c-5.583,0-14.048,1.448-21.848,3.091v-7.957C424.784,188.126,438.402,186.053,456.832,185.609z"/>
			<path style="fill:#D88916;" d="M464.332,189.431c-51.522,0-69.132,13.695-69.132,13.695s20.871-3.913,41.74-3.913
				c20.869,0,26.087,3.913,26.087,3.913C475.419,199.866,515.855,189.431,464.332,189.431z"/>
			<path style="fill:#E5785C;" d="M384.999,229.702c0.395,7.224-2.423,13.429-6.293,13.858c-3.87,0.429-7.328-5.079-7.723-12.303
				c-0.395-7.224,1.762-12.848,5.594-13.739C380.411,216.628,384.604,222.478,384.999,229.702z"/>
		</g>
		
			<line style="fill:none;stroke:#FFC32E;stroke-width:10;stroke-linecap:round;stroke-linejoin:round;stroke-miterlimit:10;" x1="593.115" y1="515.701" x2="666.58" y2="818.116"/>
		
			<line style="fill:none;stroke:#E29024;stroke-width:10;stroke-linecap:round;stroke-linejoin:round;stroke-miterlimit:10;" x1="589.442" y1="500.582" x2="593.115" y2="515.701"/>
		
			<line style="fill:none;stroke:#FF5E43;stroke-width:14;stroke-linecap:round;stroke-linejoin:round;stroke-miterlimit:10;" x1="587.643" y1="493.179" x2="589.442" y2="500.582"/>
		
			<line style="fill:none;stroke:#FFC32E;stroke-width:14;stroke-linecap:round;stroke-linejoin:round;stroke-miterlimit:10;" x1="548.706" y1="332.897" x2="586.716" y2="489.364"/>
		<g>
			<path style="fill:#475F72;" d="M528.6,336.993c-1.1,0-2.9,0-4,0h-25.802c-1.1,0-2,0.9-2,2v11.315c0,1.1,0.9,2,2,2H524.6
				c1.1,0,2.9,0,4,0h17.779c1.1,0,2-0.9,2-2v-11.315c0-1.1-0.9-2-2-2H528.6z"/>
		</g>
		
			<line style="fill:none;stroke:#FFC32E;stroke-width:10;stroke-linecap:round;stroke-linejoin:round;stroke-miterlimit:10;" x1="458.639" y1="520.1" x2="389.578" y2="818.115"/>
		
			<line style="fill:none;stroke:#E29024;stroke-width:10;stroke-linecap:round;stroke-linejoin:round;stroke-miterlimit:10;" x1="461.884" y1="506.095" x2="458.639" y2="520.1"/>
		
			<line style="fill:none;stroke:#F4B321;stroke-width:12;stroke-linecap:round;stroke-linejoin:round;stroke-miterlimit:10;" x1="512.524" y1="332.897" x2="472.389" y2="506.095"/>
		
			<line style="fill:none;stroke:#F4B321;stroke-width:12;stroke-linecap:round;stroke-linejoin:round;stroke-miterlimit:10;" x1="494.785" y1="332.897" x2="454.65" y2="506.095"/>
		<g>
			<path style="fill:#D3422F;" d="M448.563,498.704c0,0-0.798,3.446-1.775,7.657c-0.976,4.212,2.23,7.657,7.124,7.657
				c4.894,0,12.391,0,16.659,0s8.559-3.446,9.535-7.657c0.976-4.211,1.775-7.657,1.775-7.657"/>
		</g>
		<g>
			<polygon style="fill:#558845;" points="526.508,294.464 497.387,294.464 497.387,307.947 526.508,307.947 547.791,307.947 
				547.791,294.464 			"/>
			<polygon style="fill:#475F72;" points="526.508,316.382 497.387,316.382 497.387,329.865 526.508,329.865 547.791,329.865 
				547.791,316.382 			"/>
			<g>
				<path style="fill:#B3F490;" d="M541.555,183.05c-2.406,4.341-4.375,12.626-4.375,18.411v87.26
					c0,5.785,2.978,10.519,6.617,10.519h22.35c3.639,0,6.617-4.734,6.617-10.519v-87.26c0-5.785-1.969-14.07-4.375-18.411
					l-9.042-16.313c-1.203-2.171-2.789-3.256-4.375-3.256h-8.779L541.555,183.05z"/>
				<path style="fill:#68AD57;" d="M563.433,288.72c0,5.785-2.978,10.519-6.617,10.519h-22.35c-3.64,0-6.617-4.734-6.617-10.519
					v-87.26c0-5.785,1.969-14.07,4.375-18.411l9.042-16.313c2.406-4.341,6.344-4.341,8.75,0l9.042,16.313
					c2.406,4.341,4.375,12.626,4.375,18.411V288.72z"/>
			</g>
			<rect x="490.875" y="202.517" style="fill:#68AD57;" width="50.749" height="63.882"/>
			<g>
				<path style="fill:#B3F490;" d="M560.844,261.398c0,2.75-2.25,5-5,5h-24.393c-2.75,0-5-2.25-5-5v-53.882c0-2.75,2.25-5,5-5
					h24.393c2.75,0,5,2.25,5,5V261.398z"/>
			</g>
			<rect x="487.719" y="279.039" style="fill:#558845;" width="61.273" height="20.2"/>
			<g>
				<path style="fill:#B3F490;" d="M567.212,296.336c0.416,1.597-0.594,2.903-2.244,2.903h-34.119c-1.65,0-3.34-1.307-3.756-2.903
					l-3.748-14.394c-0.416-1.597,0.594-2.903,2.244-2.903h34.119c1.65,0,3.34,1.306,3.756,2.903L567.212,296.336z"/>
			</g>
			<g>
				<path style="fill:#B3F490;" d="M490.013,183.05c-2.406,4.341-4.375,12.626-4.375,18.411v87.623
					c0,5.785,2.978,10.519,6.617,10.519h22.35c3.64,0,6.617-4.733,6.617-10.519v-87.623c0-5.785-1.969-14.07-4.375-18.411
					l-9.042-16.313c-1.203-2.171-2.789-3.256-4.375-3.256h-8.78L490.013,183.05z"/>
				<path style="fill:#88BA68;" d="M476.31,201.463v87.625c0,5.777,2.976,10.516,6.618,10.516h22.35
					c3.641,0,6.618-4.738,6.618-10.516v-87.625c0-5.789-1.973-14.075-4.377-18.417l-9.045-16.304c-2.404-4.341-6.337-4.341-8.753,0
					l-9.034,16.304C478.271,187.388,476.31,195.674,476.31,201.463z"/>
				<path style="fill:#558845;" d="M476.31,243.781v45.306c0,5.777,2.976,10.516,6.618,10.516h3.221c0,0,5.474-4.61,11.741-10.469
					c6.255-5.859,4.342-24.334,4.342-28.267c0-3.945-0.537-12.989,0.619-16.071c0.992-2.649-1.121-0.408-1.459,0h-0.012
					l-15.744-2.859L476.31,243.781z"/>
				
					<polyline style="fill:none;stroke:#FFA788;stroke-width:9;stroke-linecap:round;stroke-linejoin:round;stroke-miterlimit:10;" points="
					461.132,288.889 466.356,259.726 475.849,241.934 				"/>
			</g>
			<g>
				<path style="fill:#475F72;" d="M488.806,234.735c2.923,0,5.293,3.053,5.293,6.819c0,3.766-2.37,6.819-5.293,6.819h-5.26v-13.638
					H488.806z"/>
			</g>
			<ellipse style="fill:#2F3747;" cx="483.546" cy="241.554" rx="5.293" ry="6.819"/>
			<polygon style="fill:#B3F490;" points="527.848,305.265 488.771,305.265 488.771,318.748 527.848,318.748 556.406,318.748 
				556.406,305.265 			"/>
			<g>
				<ellipse style="fill:#AAD07B;" cx="544.334" cy="229.102" rx="12.423" ry="16.004"/>
				<g>
					<path style="fill:#2F3747;" d="M546.585,213.037c-5.815,0-10.529,6.073-10.529,13.565c0,7.492,4.714,13.565,10.529,13.565
						h5.203v-27.129H546.585z"/>
				</g>
				<ellipse style="fill:#475F72;" cx="551.788" cy="226.601" rx="10.529" ry="13.565"/>
			</g>
			
				<line style="fill:none;stroke:#68AD57;stroke-width:7;stroke-linecap:round;stroke-miterlimit:10;" x1="542.76" y1="167.206" x2="545.07" y2="167.206"/>
			
				<line style="fill:none;stroke:#B3F490;stroke-width:7;stroke-linecap:round;stroke-miterlimit:10;" x1="504.833" y1="167.206" x2="540.657" y2="167.206"/>
			<g>
				<g>
					<path style="fill:#2F3747;" d="M553.081,219.48c-3.053,0-5.528,3.189-5.528,7.122c0,3.933,2.475,7.122,5.528,7.122h4.836
						V219.48H553.081z"/>
				</g>
				<path style="fill:#475F72;" d="M552.388,226.601c0,3.933,2.475,7.122,5.528,7.122s5.528-3.189,5.528-7.122
					c0-3.933-2.475-7.122-5.528-7.122S552.388,222.668,552.388,226.601z"/>
			</g>
			<g>
				<g>
					<path style="fill:#FFFFFF;" d="M535.388,295.5c-1.417,0-2.915-1.158-3.272-2.529l-2.061-7.914
						c-0.161-0.619-0.069-1.194,0.259-1.619c0.328-0.425,0.861-0.659,1.501-0.659h24.405c1.417,0,2.915,1.158,3.272,2.529
						l2.061,7.914c0.161,0.619,0.069,1.194-0.259,1.619c-0.328,0.425-0.861,0.659-1.501,0.659H535.388z"/>
					<path style="fill:#B3F490;" d="M556.221,283.28c1.186,0,2.489,1.007,2.787,2.155l2.061,7.914
						c0.121,0.466,0.061,0.887-0.171,1.187c-0.231,0.299-0.624,0.464-1.106,0.464h-24.405c-1.186,0-2.49-1.007-2.788-2.155
						l-2.06-7.914c-0.121-0.466-0.061-0.887,0.171-1.187c0.231-0.299,0.624-0.464,1.105-0.464H556.221 M556.221,282.28
						L556.221,282.28h-24.406c-1.65,0-2.66,1.306-2.244,2.903l2.06,7.914c0.416,1.597,2.106,2.903,3.756,2.903h24.405
						c1.65,0,2.66-1.306,2.244-2.903l-2.061-7.914C559.561,283.586,557.871,282.28,556.221,282.28L556.221,282.28z"/>
				</g>
			</g>
		</g>
		
			<line style="fill:none;stroke:#FFC32E;stroke-width:10;stroke-linecap:round;stroke-linejoin:round;stroke-miterlimit:10;" x1="552.058" y1="520.1" x2="587.123" y2="818.115"/>
		
			<line style="fill:none;stroke:#E29024;stroke-width:10;stroke-linecap:round;stroke-linejoin:round;stroke-miterlimit:10;" x1="550.411" y1="506.095" x2="552.058" y2="520.1"/>
		
			<line style="fill:none;stroke:#FFC32E;stroke-width:13;stroke-linecap:round;stroke-linejoin:round;stroke-miterlimit:10;" x1="540.536" y1="332.897" x2="560.915" y2="506.095"/>
		
			<line style="fill:none;stroke:#FFC32E;stroke-width:13;stroke-linecap:round;stroke-linejoin:round;stroke-miterlimit:10;" x1="519.296" y1="332.897" x2="539.674" y2="506.095"/>
		<g>
			<g>
				<path style="fill:#D3422F;" d="M530.577,334.342c-1.097,0.079-2.894,0.096-3.992,0.038l-40.536-2.125
					c-1.099-0.058-1.997,0.795-1.997,1.895v10.002c0,1.1,0.9,2,2,2h40.531c1.1,0,2.9,0,4,0h28.543c1.1,0,2-0.9,2-2v-10.002
					c0-1.1-0.898-1.936-1.995-1.857L530.577,334.342z"/>
			</g>
			<g>
				<path style="fill:#FF5E43;" d="M530.583,324.69c-1.1,0-2.9,0-4,0h-40.531c-1.1,0-2,0.9-2,2v12.577c0,1.1,0.9,2,2,2h40.531
					c1.1,0,2.9,0,4,0h28.543c1.1,0,2-0.9,2-2V326.69c0-1.1-0.9-2-2-2H530.583z"/>
			</g>
			<g>
				<path style="fill:#D3422F;" d="M517.2,326.69c0-1.1-0.9-2-2-2h-29.149c-1.1,0-2,0.9-2,2v14.791c0,1.1,0.9,2,2,2h21.234
					c1.1,0,2.9,0,4,0h0.042c1.1,0,2.246-0.866,2.547-1.924l2.779-9.769c0.301-1.058,0.547-2.824,0.547-3.924V326.69z"/>
			</g>
			<g style="opacity:0.6;">
				<path style="fill:#FFFFFF;" d="M546.013,326.79c-1.1,0-2.9,0-4,0h-4.699c-1.1,0-2,0.9-2,2v8.378c0,1.1,0.9,2,2,2h6.744
					c1.1,0,2.9,0,4,0h2.357c1.1,0,2-0.9,2-2v-8.378c0-1.1-0.9-2-2-2H546.013z"/>
			</g>
		</g>
		<path style="opacity:0.5;fill:#754559;" d="M376.225,300.782c-4.645-2.439-9.313-6.326-14.693-9.967
			c-3.058-2.089-6.349-4.096-9.99-5.707c-3.139-1.4-6.548-2.509-10.294-3.128c-0.023,0-0.035-0.012-0.059-0.012
			c0.584-0.023,1.144-0.023,1.704,0.012c1.016,0.023,1.984,0.129,2.848,0.245c4.365,0.537,4.155,0.595,7.399,1.202
			c0.969,0.21,1.856,0.525,2.661,0.934c3.583,0.129,9.582,1.272,9.582,1.272C372.491,286.742,375.525,292.717,376.225,300.782z"/>
		<g>
			<g>
				<path style="fill:none;stroke:#FFA68A;stroke-width:21;stroke-linecap:round;stroke-linejoin:round;stroke-miterlimit:10;" d="
					M336.008,309.441l77.986,57.201c4.435,3.253,10.25,1.981,12.922-2.826l45.346-81.587"/>
			</g>
			<polygon style="opacity:0.6;fill:#E5785C;" points="359.365,341.752 373.676,352.233 374.678,323.124 374.678,323.124 
				373.127,324.258 372.208,323.818 367.748,327.867 			"/>
			<path style="fill:#FFE536;" d="M348.994,301.915c8.437,4.721,26.966,19.42,26.966,19.42l-20.054,32.375
				c1.786,1.142,1.782,1.148-12.226-7.939c-13.152-8.531-39.988-24.414-21.689-44.177
				C332.423,290.327,348.994,301.915,348.994,301.915z"/>
			<g>
				<path style="fill:#FFA788;" d="M472.914,302.218l15.473-13.884c0.814-0.742-1.433-2.218-0.868-3.098
					c-4.399-3.132-12.812-9.024-12.812-9.024s-10.584-10.669-13.575-12.876l-5.358,27.004
					C454.168,294.596,465.33,291.394,472.914,302.218z"/>
				<g>
					<path style="fill:#FFA788;" d="M471.272,290.546c2.824,4.518,8.422,5.352,12.441,1.855l13.509-11.757
						c4.019-3.497,4.47-9.668,1.004-13.714l-9.841-11.483c-3.467-4.045-9.591-4.493-13.61-0.996l-9.575,8.333
						c-4.019,3.497-4.996,10.055-2.173,14.572L471.272,290.546z"/>
				</g>
				
					<line style="fill:none;stroke:#FFBB99;stroke-width:9.6862;stroke-linecap:round;stroke-miterlimit:10;" x1="485.793" y1="252.744" x2="497.885" y2="241.554"/>
				
					<line style="fill:none;stroke:#FFA788;stroke-width:9.6862;stroke-linecap:round;stroke-miterlimit:10;" x1="473.436" y1="263.336" x2="484.789" y2="253.604"/>
				
					<line style="fill:none;stroke:#FFBB99;stroke-width:9.6862;stroke-linecap:round;stroke-miterlimit:10;" x1="490.413" y1="263.623" x2="494.772" y2="259.744"/>
				
					<line style="fill:none;stroke:#FFA788;stroke-width:9.6862;stroke-linecap:round;stroke-miterlimit:10;" x1="483.37" y1="269.797" x2="488.935" y2="264.696"/>
				
					<line style="fill:none;stroke:#FFBB99;stroke-width:9.6862;stroke-linecap:round;stroke-miterlimit:10;" x1="494.772" y1="275.012" x2="498.702" y2="270.766"/>
				
					<line style="fill:none;stroke:#FFA788;stroke-width:9.6862;stroke-linecap:round;stroke-miterlimit:10;" x1="485.632" y1="282.698" x2="492.593" y2="276.776"/>
			</g>
			<path style="fill:#FFE536;" d="M335.529,332.309c-0.251,0.62,1.718,5.722-1.539,3.936c-7.174-3.936-10.468,5.898-10.468,5.898
				s-8.96-5.42-9.106-13.152c-0.146-7.732-0.408-21.294,10.72-30.034l10.393,10.777V332.309z"/>
		</g>
		<path style="fill:#FFFFFF;" d="M558.363,224.431c0,1.04,0.654,1.883,1.462,1.883s1.462-0.843,1.462-1.883
			c0-1.04-0.654-1.883-1.462-1.883S558.363,223.391,558.363,224.431z"/>
		<polygon style="fill:#88BA68;" points="507.518,305.265 488.771,305.265 488.771,318.748 507.518,318.748 521.218,318.748 
			524.884,305.265 		"/>
		<g>
			<path style="fill:#FF5E43;" d="M531.005,498.704c0,0,0.405,3.446,0.901,7.657c0.495,4.212,5.693,7.657,11.55,7.657
				c5.857,0,14.142,0,18.41,0c4.268,0,7.355-3.446,6.86-7.657c-0.495-4.211-0.901-7.657-0.901-7.657"/>
		</g>
		<path style="opacity:0.4;fill:#754559;" d="M362.508,532.903c8.485-2.136,18.475-1.774,22.093-1.552
			c4.388,10.574,12.254,30.134,19.373,49.438c0.502,0.642,0.502,0.303-0.175-1.365c-12.616-30.881-15.662-52.18-16.362-62.042
			c0,0,0,0,0-0.012c-0.292-4.096-0.175-6.22-0.175-6.22s-1.097,4.061-4.68,8.8C378.94,524.768,372.731,530.277,362.508,532.903z"/>
		<path style="fill:#442E1E;" d="M416.785,781.143c-0.985,7.878-2.318,12.8,1.621,17.232s11.325,3.283,15.429,0.328
			c4.103-2.954,6.073-12.721,4.924-14.034c-0.574-0.657-6.104,2.031-11.344,1.129C422.175,784.895,416.785,781.143,416.785,781.143z
			"/>
	</g>
	<path style="fill:none;stroke:#422B27;stroke-width:3;stroke-linecap:round;stroke-miterlimit:10;" d="M413.741,230.193
		c0.722-1.675,2.617-2.879,4.863-2.879c2.246,0,4.141,1.204,4.863,2.879"/>
	<polygon style="fill:#D88916;" points="549.947,348.61 536.044,358.313 534.512,346.154 549.947,346.154 	"/>
	<polygon style="fill:#D88916;" points="528.635,348.61 514.733,358.313 513.201,346.154 528.635,346.154 	"/>
	<path style="fill:#E8A81A;" d="M355.178,197.308c0,0.572,0,1.12,0.035,1.704c0.047,2.649,0.198,5.556,0.432,8.427
		c0.327,4.178,0.805,8.274,1.342,11.321c-0.689,2.171-0.374,4.307,1.039,6.326c0.198-0.455,0.443-0.91,0.712-1.365
		c0.035-0.012,0.07-0.023,0.105-0.047c0.98-1.68,2.416-3.408,4.272-5.147c0.187-0.187,0.385-0.362,0.583-0.537
		c0.257-0.234,0.525-0.455,0.794-0.689c0.292-0.245,0.583-0.478,0.887-0.724c0.887-0.7,1.821-1.389,2.813-2.066
		c0.782-0.537,1.587-1.062,2.428-1.564v-0.035c-0.129-0.758-0.257-1.517-0.385-2.287c-0.187-1.179-0.374-2.369-0.537-3.548
		c-0.385-2.673-0.7-5.299-0.934-7.773c-0.117-0.794-0.175-1.54-0.233-2.299c-0.409-5.637-0.035-11.274,1.132-16.747
		c2.007-9.138,6.302-17.88,13.095-25.582c0.07-0.093,0.152-0.175,0.233-0.269c-0.98,0.525-1.937,1.062-2.871,1.622
		c-5.485,3.256-10.118,6.979-13.947,11.041c-0.023,0.035-0.047,0.058-0.07,0.082c-4.586,5.322-7.691,11.414-9.383,17.856
		C355.692,188.987,355.178,193.142,355.178,197.308z"/>
	<polygon style="fill:#558845;" points="521.223,208.377 516.558,211.591 516.558,270.337 521.223,267.989 	"/>
</g>
</svg>
